<?xml version="1.0" ?><svg viewBox="0 0 64 64" xmlns="http://www.w3.org/2000/svg"><title/><g data-name="21-Measure the fever" id="_21-Measure_the_fever"><path d="M52,32.613V28.1s2.875,0,2.875,1.806S52,32.613,52,32.613Z" style="fill:none;stroke:#000;stroke-linejoin:round;stroke-width:2px"/><line style="fill:none;stroke:#000;stroke-linejoin:round;stroke-width:2px" x1="34" x2="34" y1="54" y2="48"/><line style="fill:none;stroke:#000;stroke-linejoin:round;stroke-width:2px" x1="52" x2="52" y1="36" y2="47"/><path d="M25.376,5A15.886,15.886,0,0,1,36.06,1h8.083C54.557,1,63,8.2,63,17.085v7.149c0,2.681-1.394,8.542-5,11.617l-1.565,1.4A7.051,7.051,0,0,0,54,42.5V43H52" style="fill:none;stroke:#000;stroke-linejoin:round;stroke-width:2px"/><path d="M22.873,8A13.537,13.537,0,0,1,24,6.432" style="fill:none;stroke:#000;stroke-linejoin:round;stroke-width:2px"/><path d="M21,16V14.548h0A12.316,12.316,0,0,1,21.87,10" style="fill:none;stroke:#000;stroke-linejoin:round;stroke-width:2px"/><path d="M18.783,30C19.85,28.631,21,26.938,21,26V16a6.418,6.418,0,0,0,4-3c6,0,12.762,13,20,13h8.331A3.581,3.581,0,0,1,57,29.2V31.25a3.57,3.57,0,0,1-1.835,3.538L52,36a19.325,19.325,0,0,1-8,9.935" style="fill:none;stroke:#000;stroke-linejoin:round;stroke-width:2px"/><path d="M18,30h2a91.931,91.931,0,0,0,24,3V46s-1,2-10,2c0,0-16,1-16-14Z" style="fill:none;stroke:#000;stroke-linejoin:round;stroke-width:2px"/><line style="fill:none;stroke:#000;stroke-linejoin:round;stroke-width:2px" x1="44" x2="50" y1="33" y2="26"/><path d="M18,34s11,3,21,3V48" style="fill:none;stroke:#000;stroke-linejoin:round;stroke-width:2px"/><line style="fill:none;stroke:#000;stroke-linejoin:round;stroke-width:2px" x1="52" x2="44" y1="36" y2="42"/><line style="fill:none;stroke:#000;stroke-linejoin:round;stroke-width:2px" x1="23" x2="32" y1="25" y2="25"/><path d="M54,54V49H51.171L37,51l-4,4s-5,3-5,8" style="fill:none;stroke:#000;stroke-linejoin:round;stroke-width:2px"/><path d="M63,63V61c0-1.16-1.349-2.38-3-3" style="fill:none;stroke:#000;stroke-linejoin:round;stroke-width:2px"/><path d="M56,54l6,4c-6,0-16,5-16,5H35c2-4,11-7,11-7A24.266,24.266,0,0,1,56,54Z" style="fill:none;stroke:#000;stroke-linejoin:round;stroke-width:2px"/><path d="M34,51H30v3s-6,3-6,9" style="fill:none;stroke:#000;stroke-linejoin:round;stroke-width:2px"/><path d="M5,14H9l6.221.8A2,2,0,0,1,17,16.79v4.768a2,2,0,0,1-1.368,1.9L9,26H5" style="fill:none;stroke:#000;stroke-linejoin:round;stroke-width:2px"/><rect height="12" rx="2" style="fill:none;stroke:#000;stroke-linejoin:round;stroke-width:2px" width="6" x="1" y="14"/><line style="fill:none;stroke:#000;stroke-linejoin:round;stroke-width:2px" x1="10" x2="15" y1="18" y2="18"/><line style="fill:none;stroke:#000;stroke-linejoin:round;stroke-width:2px" x1="10" x2="15" y1="21" y2="21"/><path d="M2,25v.881a2.23,2.23,0,0,0,.787,1.67A3.269,3.269,0,0,1,4,30c0,3-3,3-3,10v1.014a3.258,3.258,0,0,0,.547,1.807l.486.729A3.257,3.257,0,0,0,4.743,45h0A3.257,3.257,0,0,0,8,41.743V36s2-10,4-11" style="fill:none;stroke:#000;stroke-linejoin:round;stroke-width:2px"/><path d="M9,30h2.071a1.994,1.994,0,0,0,2-1.862C13.164,26.607,14,25,14,24" style="fill:none;stroke:#000;stroke-linejoin:round;stroke-width:2px"/><line style="fill:none;stroke:#000;stroke-linejoin:round;stroke-width:2px" x1="1" x2="7" y1="17" y2="17"/><line style="fill:none;stroke:#000;stroke-linejoin:round;stroke-width:2px" x1="1" x2="7" y1="23" y2="23"/><path d="M10,4a2.708,2.708,0,0,1,1,2c0,1.916-2,2.083-2,4" style="fill:none;stroke:#000;stroke-linejoin:round;stroke-width:2px"/><path d="M18,4a2.708,2.708,0,0,1,1,2c0,1.916-2,2.083-2,4" style="fill:none;stroke:#000;stroke-linejoin:round;stroke-width:2px"/><path d="M2,4A2.708,2.708,0,0,1,3,6c0,1.916-2,2.083-2,4" style="fill:none;stroke:#000;stroke-linejoin:round;stroke-width:2px"/></g></svg>