<?xml version="1.0" ?><svg id="icon" viewBox="0 0 512 512" xmlns="http://www.w3.org/2000/svg"><defs><style>.cls-1{fill:#4f4c5f;}.cls-2{fill:#fb8978;}.cls-3{fill:#c1e9fa;}.cls-4{fill:#ffd3bc;}.cls-5{fill:#ffbe9c;}.cls-6{fill:#ff748f;}.cls-7{fill:#d89b80;}.cls-8{fill:#c5836a;}.cls-9{fill:#78cbec;}.cls-10{fill:#00c67f;}.cls-11{fill:#36d39a;}.cls-12{fill:#ef7062;}.cls-13{fill:#404055;}</style></defs><title/><path class="cls-1" d="M450,232.521V324.18a15.581,15.581,0,0,1-15.582,15.581h0A31.833,31.833,0,0,0,407.9,318.809c-4.5,18.01-26.434,14.622-28.586,0a33.246,33.246,0,0,0-13.318,4.6,31.831,31.831,0,0,0-13.2,16.352h-.6a15.582,15.582,0,0,1-15.582-15.581V231.244a56.693,56.693,0,0,1,55.6-56.681C423.992,173.963,450,200.74,450,232.521Z"/><path class="cls-2" d="M174.089,218a86.473,86.473,0,0,1-17.78,4.82c-9.88,1.57-22.18,1.62-32.33-4.25-8.58-4.95-14.28-13.36-18-21.49a33.111,33.111,0,0,1-7.64,9.22c-10.363,8.561-27.277,9.369-36.34,7.76,0,0,.49-22.61,14.55-34.19a30.951,30.951,0,0,1,6.59-4.14c9.63-4.57,20.66-4.46,26.21-4.02,10.42-2.68,27.09-4.94,40.17,2.62C170.129,186.232,174.089,218,174.089,218Z"/><path class="cls-3" d="M158.549,274.452q-1.545,4.74-3.43,9.38c-15.146,37.506-62.224,34.04-75.29,2.08a136.213,136.213,0,0,1-4.8-13.04l38.18-12.53a11.63,11.63,0,0,1,7.66.05Z"/><path class="cls-4" d="M158.549,274.452l-37.68-14.06a11.63,11.63,0,0,0-7.66-.05l-38.18,12.53a143.132,143.132,0,0,1-5.69-58.22c10.342,0,20.881-1.644,29-8.34a33.222,33.222,0,0,0,7.64-9.24c3.73,8.12,9.43,16.55,18.01,21.51,10.14,5.86,22.44,5.8,32.33,4.25a86.345,86.345,0,0,0,8.97-1.94A141.158,141.158,0,0,1,158.549,274.452Z"/><path class="cls-5" d="M133.451,307.414c0,13.745.076,13.9-.218,15.374a16.41,16.41,0,0,1-27.8,9.05c-6.053-6.122-4.771-12.429-4.771-24.424A40.363,40.363,0,0,0,133.451,307.414Z"/><path class="cls-6" d="M68.506,358.984c.27-12.558,6.574-24.441,17.3-31a37.163,37.163,0,0,1,15.069-5.208,16.377,16.377,0,0,0,32.363,0,37.169,37.169,0,0,1,15.069,5.208c10.721,6.557,17.025,18.44,17.3,31Z"/><path class="cls-7" d="M428.759,280.482c-.53-1.26-.84-2-.84-2l-29.11-13.67a12.521,12.521,0,0,0-10.44-.09l-30.65,13.76c-10.013-28.836-6.27-49.769-6.27-55.2,13.9,0,25.517-3.466,32.37-15.53,3.3,7.18,8.33,14.62,15.92,19,10.959,6.336,24.452,5.055,36.48,2.05A125.011,125.011,0,0,1,428.759,280.482Z"/><path class="cls-8" d="M408.1,305.25c0,10.859.972,16.343-4.119,21.434a14.459,14.459,0,0,1-18.471,1.9c-7.915-5.194-6.382-13.411-6.382-23.337C387.442,309.414,400.183,309.211,408.1,305.25Z"/><path class="cls-9" d="M350.706,350.816a33.6,33.6,0,0,1,2.095-11.055A31.831,31.831,0,0,1,366,323.409a33.247,33.247,0,0,1,13.317-4.6c2.144,14.551,24.07,18.067,28.587,0a31.833,31.833,0,0,1,26.515,20.952,34.177,34.177,0,0,1,2.071,11.055Z"/><path class="cls-3" d="M428.759,280.482c-.49,1.32-.99,2.63-1.52,3.93-13.411,33.169-55.007,30.029-66.52,1.83-.517-1.229-1.572-3.641-3-7.76l30.65-13.76a12.521,12.521,0,0,1,10.44.09l29.11,13.67S428.229,279.222,428.759,280.482Z"/><path class="cls-10" d="M263.749,221.642a26.5,26.5,0,1,1,14.65-34.5A26.261,26.261,0,0,1,263.749,221.642Z"/><path class="cls-11" d="M247.339,222.752a26.49,26.49,0,0,1,0-51.38,45.25,45.25,0,0,1,4.55,11C255.739,196.492,253.649,211.982,247.339,222.752Z"/><path class="cls-12" d="M174.089,218.007s-31-7.145-46.115-27.135-25.053,8.1-40.834-2.79A97.6,97.6,0,0,1,76.7,179.737c10.617-8.609,25.789-8.563,32.634-8.018,10.418-2.682,27.09-4.945,40.171,2.609C170.126,186.227,174.089,218.007,174.089,218.007Z"/><path class="cls-13" d="M151.429,322.866a42.984,42.984,0,0,0-11.978-5.021v-6.731a45.286,45.286,0,0,0,12.776-10.447c10.892-12.833,17.44-40.31,18.878-58.235a149.124,149.124,0,0,0,.4-17.122c2.982-.97,4.8-1.728,4.908-1.773a6,6,0,0,0,3.634-6.276c-.177-1.418-4.594-34.887-27.53-48.127-14.2-8.2-31.424-6.5-43.7-3.47-8.917-.573-24.553.081-36.084,9.58-16,13.179-16.708,37.65-16.731,38.686a6,6,0,0,0,4.947,6.036c.149.027.82.142,1.9.27a147.874,147.874,0,0,0,11.428,67.937A45.854,45.854,0,0,0,94.66,311.114v6.729a43.011,43.011,0,0,0-11.991,5.026c-12.3,7.525-19.839,20.978-20.162,35.987a6,6,0,0,0,12,.258c.231-10.741,5.758-20.707,14.421-26.006a31.16,31.16,0,0,1,7.812-3.416c7.932,17.1,32.72,17.337,40.644,0a31.064,31.064,0,0,1,7.789,3.409c8.668,5.3,14.2,15.267,14.426,26.008a6,6,0,0,0,6,5.871l.132,0a6,6,0,0,0,5.87-6.127C171.273,343.846,163.736,330.393,151.429,322.866Zm-33.419,7.726a10.342,10.342,0,0,1-5.858-1.167c-6.332-3.347-5.492-9.628-5.492-13.693a46.671,46.671,0,0,0,20.791,0v4.495A10.467,10.467,0,0,1,118.01,330.592ZM78.966,264.874c-.107-.387-.192-.752-.278-1.139-.014-.063-.028-.125-.044-.186a136.283,136.283,0,0,1-3.8-43.01c11.271-.581,22.549-4.333,30.327-12.388,12.477,19.441,31.529,24.5,54.413,20.206.063,4.38-.084,8.763-.438,13.094v.011a130.82,130.82,0,0,1-3.728,22.177c-.02.079-.039.158-.056.238l-.044.208c-.04.19-.077.387-.13.573-.014.045-.026.09-.037.135-.112.426-.242.854-.358,1.281L122.879,254.74a17.764,17.764,0,0,0-11.6-.079L79.162,265.57C79.1,265.337,79.028,265.109,78.966,264.874Zm31.877-87.346c8.322-2.142,24.022-4.728,35.673,2,13.367,7.716,18.847,25.919,20.751,34.543-12.523,3.988-28.854,5.916-40.273-.683-6.25-3.611-11.487-9.942-15.568-18.818a6.013,6.013,0,0,0-10.668-.457c-6.627,11.664-18.7,14.949-32.166,14.519C74.583,170.729,106.031,178.771,110.843,177.528ZM85.365,283.581c-.694-1.647-1.335-3.1-2.6-6.563l32.364-10.994a5.707,5.707,0,0,1,3.731.024l32.272,11.461q-.753,2.038-1.57,4.063C136.247,314.211,96.371,310.58,85.365,283.581Z"/><path class="cls-13" d="M392.1,168.565a62.7,62.7,0,0,0-61.487,62.68v92.936A21.605,21.605,0,0,0,345.3,344.612a39.521,39.521,0,0,0-.595,6.091,6,6,0,0,0,12,.227c.168-8.909,4.708-17.675,12.4-22.388a27.314,27.314,0,0,1,6.191-2.779c7.462,15.015,29.106,15.069,36.621,0,11.52,3.514,18.359,13.978,18.57,25.166a6,6,0,0,0,12-.227,39.794,39.794,0,0,0-.625-6.292A21.6,21.6,0,0,0,456,324.181V232.522C456,198.054,427.9,167.923,392.1,168.565ZM356.97,229.151c9.574-.587,19.16-3.742,26.033-10.51,11.111,16.706,27.721,21.076,47.491,17.588.027,3.574-.105,7.145-.394,10.676v.012a120.812,120.812,0,0,1-3.472,20.356c-.013.045-.025.09-.037.135-.294,1.124-.612,2.25-.944,3.377l-24.287-11.4a18.489,18.489,0,0,0-15.447-.132l-24.5,10.994A119.7,119.7,0,0,1,356.97,229.151ZM390.824,270.2a6.5,6.5,0,0,1,5.436.047l25.411,11.927c-10.919,26.794-45.11,27.355-56.356-.528Zm-5.7,43.265a42.2,42.2,0,0,0,16.972,0v3.1a8.478,8.478,0,0,1-13.3,7C384.575,320.8,385.123,316.309,385.123,313.467ZM444,324.181a9.6,9.6,0,0,1-5.994,8.884A37.533,37.533,0,0,0,414.1,313.918v-5a40.578,40.578,0,0,0,11.121-9.184c8.794-10.36,19.087-39.54,17-71.324a6,6,0,0,0-7.442-5.426c-21.322,5.336-36.2,2.5-45.5-17.734a6.008,6.008,0,0,0-10.669-.457c-5.694,10.02-15.429,12.5-27.152,12.5a6,6,0,0,0-6,5.816c-1.835,16.925-.021,34.614,3.592,47.5,6.776,25.679,15.13,33.249,24.077,38.317v5a37.56,37.56,0,0,0-24.018,19.333,9.6,9.6,0,0,1-6.488-9.069V231.245c0-43.907,53.251-67.908,85.579-36.185A52.842,52.842,0,0,1,444,232.522Z"/><path class="cls-13" d="M304.833,274.24a6,6,0,0,0-8.484,8.485l10.414,10.414H191.224l10.414-10.414a6,6,0,1,0-8.484-8.485l-20.195,20.194a6,6,0,0,0,0,8.486c23.6,23.6,22.772,23.649,26.135,23.649a6.007,6.007,0,0,0,4.243-10.242l-11.187-11.188H305.838l-11.187,11.188a6,6,0,0,0,8.486,8.485l21.891-21.892a6,6,0,0,0,0-8.486Z"/><path class="cls-13" d="M212.9,220.457l13.682-5.65a32.136,32.136,0,0,0,10.429,10.079l-5.188,13.869a6,6,0,1,0,11.238,4.205l5.188-13.869a31.526,31.526,0,0,0,10.6.094l4.949,13.953a6,6,0,0,0,11.311-4.012l-4.95-13.956a32.241,32.241,0,0,0,6.547-5c13.1,9.054,13.113,9.475,15.576,9.475a6,6,0,0,0,3.416-10.936l-12.19-8.425c.077-.174.161-.344.235-.519a32.317,32.317,0,0,0,2.4-16.216l14.169-4.289a6,6,0,1,0-3.477-11.485l-14.174,4.291a32.17,32.17,0,0,0-12.48-13.085l4.964-13.957a6,6,0,1,0-11.307-4.021l-4.958,13.941a32.1,32.1,0,0,0-11.457.252l-5.547-13.73a6,6,0,0,0-11.127,4.5l5.547,13.729a32.114,32.114,0,0,0-7.5,6.617l-12.937-7.182a6,6,0,1,0-5.825,10.491l12.955,7.191a32.172,32.172,0,0,0-.981,16.9l-13.689,5.652a6,6,0,1,0,4.58,11.092ZM261.834,178.2a20.367,20.367,0,0,1,11,11.193h0c6.863,16.984-10.358,33.625-27.021,26.553A20.5,20.5,0,1,1,261.834,178.2Z"/><circle class="cls-13" cx="256.216" cy="187.182" r="6.426"/><circle class="cls-13" cx="245.101" cy="202.706" r="6.426"/><circle class="cls-13" cx="261.794" cy="203.222" r="6.426"/></svg>