<?xml version="1.0" ?><svg viewBox="0 0 64 64" xmlns="http://www.w3.org/2000/svg"><defs><style>.cls-1{fill:#348fd9;}.cls-2{fill:#9fe4ed;}.cls-3{fill:#5f9548;}.cls-4{fill:#7eb457;}</style></defs><g data-name="filled outline" id="filled_outline"><path class="cls-1" d="M43.3589,41.9482q-.0307-.0351-.0645-.0673L22.14,20.7275l-.01-.0107c-.0093-.01-.0191-.02-.0293-.03a1,1,0,0,0-1.4141,0L6.5444,34.8281a16,16,0,0,0,22.627,22.628L43.2622,43.3643l.0293-.0254A1.0022,1.0022,0,0,0,43.3589,41.9482Z"/><path class="cls-2" d="M57.4556,6.5439a16.018,16.018,0,0,0-22.627,0L20.6865,20.6865a1,1,0,0,0,0,1.4141l.0064.0068,21.21,21.21a.9982.9982,0,0,0,1.3887.0215,1.0493,1.0493,0,0,0,.0732-.0762L57.4556,29.1719A16.0192,16.0192,0,0,0,57.4556,6.5439Z"/><path class="cls-3" d="M32,27a1,1,0,0,1-1-1V23a1,1,0,0,1,2,0v3A1,1,0,0,1,32,27Z"/><path class="cls-3" d="M29.001,27.8037a.999.999,0,0,1-.8672-.5l-1.5-2.5976a1,1,0,1,1,1.7324-1l1.5,2.5976a1,1,0,0,1-.8652,1.5Z"/><path class="cls-3" d="M26.8027,30a.9973.9973,0,0,1-.499-.1338l-2.5981-1.5a1,1,0,0,1,1-1.7324l2.5981,1.5A1,1,0,0,1,26.8027,30Z"/><path class="cls-3" d="M26,33H23a1,1,0,0,1,0-2h3a1,1,0,0,1,0,2Z"/><path class="cls-3" d="M24.2065,37.5a1,1,0,0,1-.5009-1.8662l2.5981-1.5a1,1,0,1,1,1,1.7324l-2.5981,1.5A.9974.9974,0,0,1,24.2065,37.5Z"/><path class="cls-3" d="M27.499,40.7939a1,1,0,0,1-.8652-1.5l1.5-2.5976a1,1,0,0,1,1.7324,1l-1.5,2.5976A.999.999,0,0,1,27.499,40.7939Z"/><path class="cls-3" d="M32,42a1,1,0,0,1-1-1V38a1,1,0,0,1,2,0v3A1,1,0,0,1,32,42Z"/><path class="cls-3" d="M36.501,40.7939a.999.999,0,0,1-.8672-.5l-1.5-2.5976a1,1,0,1,1,1.7324-1l1.5,2.5976a1,1,0,0,1-.8652,1.5Z"/><path class="cls-3" d="M39.7935,37.5a.9974.9974,0,0,1-.4991-.1338l-2.5981-1.5a1,1,0,0,1,1-1.7324l2.5981,1.5A1,1,0,0,1,39.7935,37.5Z"/><path class="cls-3" d="M41,33H38a1,1,0,0,1,0-2h3a1,1,0,0,1,0,2Z"/><path class="cls-3" d="M37.1973,30a1,1,0,0,1-.501-1.8662l2.5981-1.5a1,1,0,1,1,1,1.7324l-2.5981,1.5A.9973.9973,0,0,1,37.1973,30Z"/><path class="cls-3" d="M34.999,27.8037a1,1,0,0,1-.8652-1.5l1.5-2.5976a1,1,0,1,1,1.7324,1l-1.5,2.5976A.999.999,0,0,1,34.999,27.8037Z"/><circle class="cls-4" cx="32" cy="32" r="7"/><path class="cls-3" d="M31,32a2,2,0,1,1,2-2A2.0023,2.0023,0,0,1,31,32Zm0-2h0Zm0,0h0Zm0,0h0Zm0,0h0Zm0-.001h0Zm0,0h0Zm0,0h0Zm0,0h0Z"/><path class="cls-3" d="M33,35.5A1.5,1.5,0,1,1,34.5,34,1.5017,1.5017,0,0,1,33,35.5Zm0-2a.5.5,0,1,0,.5.5A.5006.5006,0,0,0,33,33.5Z"/><path d="M38.3643,11.0791a1,1,0,0,1-.7071-1.707,11.92,11.92,0,0,1,8.4849-3.5147,1,1,0,0,1,0,2,9.9346,9.9346,0,0,0-7.0708,2.9287A.9969.9969,0,0,1,38.3643,11.0791Z"/><path d="M41,31H38.92a6.9378,6.9378,0,0,0-.4246-1.5952l1.7989-1.0386a1,1,0,1,0-1-1.7324l-1.802,1.04a7.0544,7.0544,0,0,0-1.1665-1.1666l1.04-1.8015a1,1,0,1,0-1.7324-1l-1.0385,1.7984A6.94,6.94,0,0,0,33,25.08V23a1,1,0,0,0-2,0v2.08a6.94,6.94,0,0,0-1.5953.4247l-1.0385-1.7984a1,1,0,1,0-1.7324,1l1.04,1.8015a7.0544,7.0544,0,0,0-1.1665,1.1666l-1.802-1.04a1,1,0,0,0-1,1.7324l1.7989,1.0386A6.9378,6.9378,0,0,0,25.08,31H23a1,1,0,0,0,0,2h2.08a6.9378,6.9378,0,0,0,.4246,1.5952l-1.7989,1.0386a1,1,0,0,0,1,1.7324l1.802-1.04a7.0544,7.0544,0,0,0,1.1665,1.1666l-1.04,1.8015a1,1,0,0,0,1.7324,1l1.0385-1.7984A6.94,6.94,0,0,0,31,38.92V41a1,1,0,0,0,2,0V38.92a6.94,6.94,0,0,0,1.5953-.4246l1.0385,1.7984a1,1,0,1,0,1.7324-1l-1.04-1.8015a7.0544,7.0544,0,0,0,1.1665-1.1666l1.802,1.04a1,1,0,1,0,1-1.7324l-1.7989-1.0386A6.9378,6.9378,0,0,0,38.92,33H41a1,1,0,0,0,0-2Zm-9,6a5,5,0,1,1,5-5A5.0059,5.0059,0,0,1,32,37Z"/><path d="M57.4556,6.5439a16.018,16.018,0,0,0-22.627,0L6.5444,34.8281a16,16,0,0,0,22.627,22.628L43.2965,43.3309c.0061-.0058.0144-.0075.02-.0135s.0077-.0143.0135-.02L57.4556,29.1719A16.0192,16.0192,0,0,0,57.4556,6.5439ZM42.6066,41.1927l-2.8913-2.8919a1,1,0,0,0-1.414,1.414l2.8912,2.892L27.7573,56.042a14,14,0,0,1-19.7988-19.8L21.3931,22.8076l2.4614,2.461a1,1,0,0,0,1.4141-1.4141l-2.462-2.46L36.2427,7.958a14,14,0,0,1,19.7988,19.8Z"/><circle cx="31" cy="30" r="2"/><path d="M33,32.5A1.5,1.5,0,1,0,34.5,34,1.5017,1.5017,0,0,0,33,32.5Zm0,2a.5.5,0,1,1,.5-.5A.5006.5006,0,0,1,33,34.5Z"/></g></svg>