<?xml version="1.0" ?><svg viewBox="0 0 512 512" xmlns="http://www.w3.org/2000/svg" xmlns:xlink="http://www.w3.org/1999/xlink"><defs><style>.cls-1{fill:url(#linear-gradient);}.cls-2{fill:url(#linear-gradient-2);}.cls-3{fill:url(#linear-gradient-3);}.cls-4{fill:url(#linear-gradient-4);}.cls-5{fill:url(#linear-gradient-5);}.cls-6{fill:url(#linear-gradient-6);}.cls-7{fill:url(#linear-gradient-7);}.cls-8{fill:url(#linear-gradient-8);}.cls-9{fill:url(#linear-gradient-9);}.cls-10{fill:url(#linear-gradient-10);}.cls-11{fill:url(#linear-gradient-11);}.cls-12{fill:url(#linear-gradient-12);}.cls-13{fill:url(#linear-gradient-13);}.cls-14{fill:url(#linear-gradient-14);}.cls-15{fill:url(#linear-gradient-15);}.cls-16{fill:url(#linear-gradient-16);}.cls-17{fill:url(#linear-gradient-17);}.cls-18{fill:url(#linear-gradient-18);}.cls-19{fill:url(#radial-gradient);}.cls-20{fill:url(#linear-gradient-19);}.cls-21{fill:url(#linear-gradient-20);}.cls-22{fill:url(#linear-gradient-21);}.cls-23{fill:url(#linear-gradient-22);}.cls-24{fill:url(#linear-gradient-23);}.cls-25{fill:url(#linear-gradient-24);}.cls-26{fill:url(#linear-gradient-25);}</style><linearGradient gradientTransform="translate(329.6518 71.7042) rotate(45)" gradientUnits="userSpaceOnUse" id="linear-gradient" x1="41.3877" x2="115.1548" y1="396.8936" y2="470.6606"><stop offset="0.0056" stop-color="#9a9ac1"/><stop offset="0.4972" stop-color="#ababce"/><stop offset="0.551" stop-color="#a7a7cb"/><stop offset="0.7469" stop-color="#9d9dc3"/><stop offset="1" stop-color="#9a9ac1"/></linearGradient><linearGradient gradientTransform="translate(323.2545 55.0236) rotate(45.0003)" id="linear-gradient-2" x1="69.0197" x2="121.3969" xlink:href="#linear-gradient" y1="391.5233" y2="443.9005"/><linearGradient gradientTransform="translate(182.3965 -283.8016) rotate(45)" id="linear-gradient-3" x1="396.8936" x2="470.6606" xlink:href="#linear-gradient" y1="41.3877" y2="115.1548"/><linearGradient gradientTransform="translate(189.6657 -267.48) rotate(44.9997)" id="linear-gradient-4" x1="391.5233" x2="443.9005" xlink:href="#linear-gradient" y1="69.0197" y2="121.3969"/><linearGradient gradientTransform="translate(210.365 -216.2796) rotate(45)" id="linear-gradient-5" x1="329.3716" x2="403.1387" xlink:href="#linear-gradient" y1="108.9097" y2="182.6768"/><linearGradient gradientTransform="translate(224.9579 -181.0549) rotate(45)" id="linear-gradient-6" x1="296.46" x2="365.603" xlink:href="#linear-gradient" y1="146.4492" y2="215.5923"/><linearGradient gradientTransform="translate(203.9661 -232.9612) rotate(45)" id="linear-gradient-7" x1="357.0034" x2="409.3809" xlink:href="#linear-gradient" y1="103.5396" y2="155.917"/><linearGradient gradientTransform="translate(218.2764 -198.922) rotate(45)" id="linear-gradient-8" x1="309.0044" x2="389.5122" xlink:href="#linear-gradient" y1="123.7681" y2="204.2759"/><linearGradient gradientTransform="translate(301.6833 4.1823) rotate(45)" id="linear-gradient-9" x1="108.9097" x2="182.6768" xlink:href="#linear-gradient" y1="329.3716" y2="403.1387"/><linearGradient gradientTransform="translate(287.0944 -31.0441) rotate(45)" id="linear-gradient-10" x1="146.4492" x2="215.5923" xlink:href="#linear-gradient" y1="296.46" y2="365.603"/><linearGradient gradientTransform="translate(308.9543 20.5026) rotate(45)" id="linear-gradient-11" x1="103.5396" x2="155.917" xlink:href="#linear-gradient" y1="357.0034" y2="409.3809"/><linearGradient gradientTransform="translate(295.0038 -13.6857) rotate(45)" id="linear-gradient-12" x1="123.7681" x2="204.2759" xlink:href="#linear-gradient" y1="309.0044" y2="389.5122"/><linearGradient gradientUnits="userSpaceOnUse" id="linear-gradient-13" x1="98.2778" x2="494.0841" y1="296.1694" y2="296.1694"><stop offset="0" stop-color="#62a6ff"/><stop offset="0.4542" stop-color="#559ff6"/><stop offset="1" stop-color="#4b9aef"/></linearGradient><linearGradient gradientUnits="userSpaceOnUse" id="linear-gradient-14" x1="17.9159" x2="413.7222" y1="215.8022" y2="215.8022"><stop offset="0" stop-color="#f98585"/><stop offset="0.5659" stop-color="#f17171"/><stop offset="1" stop-color="#ed6666"/></linearGradient><linearGradient gradientUnits="userSpaceOnUse" id="linear-gradient-15" x1="171.876" x2="193.2316" y1="191.1217" y2="169.766"><stop offset="0" stop-color="#f45175"/><stop offset="0.108" stop-color="#f25074"/><stop offset="1" stop-color="#e54c71"/></linearGradient><linearGradient id="linear-gradient-16" x1="217.3334" x2="147.7745" xlink:href="#linear-gradient-15" y1="292.5566" y2="362.1155"/><linearGradient id="linear-gradient-17" x1="364.2257" x2="294.6667" xlink:href="#linear-gradient-15" y1="362.1154" y2="292.5564"/><linearGradient id="linear-gradient-18" x1="318.7682" x2="340.1239" xlink:href="#linear-gradient-15" y1="169.7659" y2="191.1215"/><radialGradient cx="169.5561" cy="161.8761" gradientUnits="userSpaceOnUse" id="radial-gradient" r="186.5629"><stop offset="0.2268" stop-color="#f9809a"/><stop offset="0.5628" stop-color="#f87c98"/><stop offset="0.918" stop-color="#f36f90"/><stop offset="1" stop-color="#f26b8e"/></radialGradient><linearGradient id="linear-gradient-19" x1="255.9999" x2="255.9999" xlink:href="#linear-gradient-15" y1="100.8358" y2="199.207"/><linearGradient id="linear-gradient-20" x1="102.9459" x2="201.3171" xlink:href="#linear-gradient-15" y1="253.89" y2="253.89"/><linearGradient id="linear-gradient-21" x1="256.0001" x2="256.0001" xlink:href="#linear-gradient-15" y1="406.9439" y2="308.5728"/><linearGradient gradientUnits="userSpaceOnUse" id="linear-gradient-22" x1="310.6829" x2="409.0541" y1="253.8898" y2="253.8898"><stop offset="0" stop-color="#e54c71"/><stop offset="0.892" stop-color="#f25074"/><stop offset="1" stop-color="#f45175"/></linearGradient><linearGradient gradientUnits="userSpaceOnUse" id="linear-gradient-23" x1="268.2071" x2="298.2659" y1="248.4504" y2="248.4504"><stop offset="0" stop-color="#f45175"/><stop offset="0.5922" stop-color="#f34973"/><stop offset="1" stop-color="#f24170"/></linearGradient><linearGradient id="linear-gradient-24" x1="223.5039" x2="253.5628" xlink:href="#linear-gradient-23" y1="233.4543" y2="233.4543"/><linearGradient id="linear-gradient-25" x1="231.6759" x2="261.7348" xlink:href="#linear-gradient-23" y1="276.4781" y2="276.4781"/></defs><title/><g id="Smooth-Virus"><g data-name="covid-19 coronavirus bacteria virus biology dna genetics medical" id="covid-19_coronavirus_bacteria_virus_biology_dna_genetics_medical-4"><rect class="cls-1" height="104.3224" transform="translate(-283.8016 182.3965) rotate(-45)" width="10.0003" x="73.2711" y="381.6159"/><rect class="cls-2" height="74.0725" transform="translate(-267.4821 189.6691) rotate(-45.0003)" width="10.0003" x="90.2081" y="380.6756"/><rect class="cls-3" height="104.3224" transform="translate(71.7042 329.6518) rotate(-45)" width="10.0003" x="428.7769" y="26.11"/><rect class="cls-4" height="74.0725" transform="translate(55.0215 323.2511) rotate(-44.9997)" width="10.0003" x="412.7118" y="58.172"/><rect class="cls-5" height="104.3224" transform="translate(4.1823 301.6833) rotate(-45)" width="10.0003" x="361.255" y="93.632"/><rect class="cls-6" height="97.7831" transform="translate(-31.0441 287.0944) rotate(-45)" width="10.0003" x="326.0313" y="132.1292"/><rect class="cls-7" height="74.0729" transform="translate(20.5026 308.9543) rotate(-45)" width="10.0003" x="378.192" y="92.6918"/><rect class="cls-8" height="113.8552" transform="translate(-13.6857 295.0038) rotate(-45)" width="10.0003" x="344.2581" y="107.0944"/><rect class="cls-9" height="104.3224" transform="translate(-216.2796 210.365) rotate(-45)" width="10.0003" x="140.7931" y="314.0939"/><rect class="cls-10" height="97.7831" transform="translate(-181.0549 224.9579) rotate(-45)" width="10.0003" x="176.0206" y="282.14"/><rect class="cls-11" height="74.0729" transform="translate(-232.9612 203.9661) rotate(-45)" width="10.0003" x="124.7281" y="346.1557"/><rect class="cls-12" height="113.8552" transform="translate(-198.922 218.2764) rotate(-45)" width="10.0003" x="159.0218" y="292.3307"/><path class="cls-13" d="M101.4766,485.4766c21.9736-21.9732,14.063-52.2051,5.6875-84.2124-8.72-33.3262-17.7369-67.7867,8.291-93.815s60.4892-17.0117,93.8149-8.2905c32.0078,8.3745,62.2393,16.2847,84.2124-5.688s14.0611-52.2031,5.6856-84.21c-8.7207-33.3257-17.7388-67.7861,8.2885-93.8134,26.0264-26.0254,60.4864-17.0079,93.8111-8.2872,32.0063,8.376,62.2383,16.2886,84.209-5.684,4.6756-4.6733,11.7521,2.39,7.0713,7.0713-26.0269,26.0268-60.4864,17.0083-93.8121,8.2871-32.0044-8.376-62.2363-16.2876-84.208,5.684s-14.0615,52.2037-5.6855,84.2105c8.7207,33.3257,17.7383,67.7856-8.2886,93.8125-26.0293,26.0283-60.49,17.01-93.8149,8.291-32.0078-8.3755-62.2393-16.2851-84.2124,5.6875s-14.063,52.2051-5.688,84.2124c8.72,33.3262,17.7373,67.7866-8.29,93.815C103.9261,497.1673,96.7444,490.2088,101.4766,485.4766Z"/><path class="cls-14" d="M110.7324,404.8394c-32.0058-8.376-62.2378-16.2876-84.209,5.684-4.6756,4.6733-11.7521-2.39-7.0713-7.0713,26.0284-26.0263,60.4874-17.0078,93.8121-8.2871,32.0058,8.3765,62.2373,16.2881,84.208-5.684,21.9726-21.9722,14.0615-52.2037,5.6855-84.21-8.7207-33.3257-17.7383-67.7856,8.2886-93.8125,26.0283-26.0288,60.4892-17.0112,93.8149-8.291,32.0078,8.3755,62.2393,16.2856,84.2124-5.6875s14.063-52.2051,5.688-84.2124c-8.72-33.3262-17.7373-67.7866,8.29-93.815,4.6757-4.6732,11.7522,2.39,7.0713,7.0713-21.9736,21.9732-14.063,52.2051-5.6875,84.2124,8.72,33.3262,17.7369,67.7867-8.291,93.815s-60.49,17.0107-93.8149,8.29c-32.0073-8.3745-62.24-16.2851-84.2124,5.688s-14.0611,52.2031-5.6856,84.21c8.7207,33.3257,17.7388,67.7861-8.2885,93.8134C179.8986,421.1971,148.828,414.8088,110.7324,404.8394Z"/><path class="cls-15" d="M218.2777,194.9547c-12.5764-9.8691-29.6-24.2331-43.3711-35.31a10.7875,10.7875,0,0,1-3.7872-6.6143,13.7967,13.7967,0,1,0-15.9843,15.9778,10.8015,10.8015,0,0,1,6.6207,3.7885c11.0764,13.771,25.44,30.7943,35.3091,43.37C208.4005,230.6121,232.7058,206.2775,218.2777,194.9547Z"/><path class="cls-16" d="M197.0649,291.6122c-9.8692,12.5764-24.2332,29.6-35.31,43.371a10.7865,10.7865,0,0,1-6.6143,3.7872,13.7967,13.7967,0,1,0,15.9778,15.9843,10.8012,10.8012,0,0,1,3.7886-6.6206c13.7709-11.0764,30.7942-25.44,43.37-35.3091C232.7222,301.4894,208.3877,277.184,197.0649,291.6122Z"/><path class="cls-17" d="M293.7223,312.825c12.5764,9.8692,29.6,24.2332,43.3711,35.31a10.788,10.788,0,0,1,3.7872,6.6144,13.7967,13.7967,0,1,0,15.9843-15.9779,10.801,10.801,0,0,1-6.6207-3.7885c-11.0764-13.7709-25.44-30.7942-35.3091-43.37C303.6,277.1677,279.2942,301.5022,293.7223,312.825Z"/><path class="cls-18" d="M314.9351,216.1675c9.8692-12.5764,24.2332-29.6,35.31-43.371a10.7875,10.7875,0,0,1,6.6143-3.7872,13.7967,13.7967,0,1,0-15.9778-15.9843,10.8014,10.8014,0,0,1-3.7886,6.6207c-13.7709,11.0763-30.7942,25.44-43.37,35.309C279.2778,206.29,303.6123,230.5957,314.9351,216.1675Z"/><path class="cls-19" d="M254.0774,178.6471c-40.5579.8549-74.6091,34.2306-75.5787,75.2428-1,42.2972,33.5262,78.3813,76.25,78.9377,42.2772.5506,77.6274-33.8818,78.2658-75.9146C333.6757,213.4173,296.924,177.744,254.0774,178.6471Z"/><path class="cls-20" d="M271,185.5427c-1.9143-15.8714-3.7949-38.0658-5.7-55.6356a10.788,10.788,0,0,1,1.9991-7.355,13.7967,13.7967,0,1,0-22.6006-.0046,10.8011,10.8011,0,0,1,2.0026,7.36c-1.9054,17.57-3.7859,39.7637-5.7,55.6348C238.8019,203.7721,273.1956,203.7514,271,185.5427Z"/><path class="cls-21" d="M187.6528,238.89c-15.8714,1.9143-38.0658,3.7949-55.6356,5.7a10.7874,10.7874,0,0,1-7.355-1.999,13.7967,13.7967,0,1,0-.0045,22.6006,10.8009,10.8009,0,0,1,7.36-2.0026c17.57,1.9053,39.7637,3.7859,55.6347,5.7C205.8822,271.0879,205.8615,236.6943,187.6528,238.89Z"/><path class="cls-22" d="M241,322.237c1.9143,15.8714,3.7949,38.0658,5.7,55.6357a10.7879,10.7879,0,0,1-1.9991,7.3549,13.7967,13.7967,0,1,0,22.6006.0046,10.8009,10.8009,0,0,1-2.0026-7.36c1.9054-17.57,3.7859-39.7637,5.7-55.6348C273.1981,304.0077,238.8044,304.0283,241,322.237Z"/><path class="cls-23" d="M324.3472,268.89c15.8714-1.9143,38.0658-3.7949,55.6356-5.7a10.7875,10.7875,0,0,1,7.355,1.9991,13.7967,13.7967,0,1,0,.0045-22.6006,10.802,10.802,0,0,1-7.36,2.0026c-17.57-1.9054-39.7637-3.7859-55.6347-5.7C306.1178,236.6918,306.1385,271.0854,324.3472,268.89Z"/><path class="cls-24" d="M282.911,233.4576A14.9969,14.9969,0,1,0,298.2642,248.68,15.1328,15.1328,0,0,0,282.911,233.4576Z"/><path class="cls-25" d="M238.2079,218.4614a14.9969,14.9969,0,1,0,15.3532,15.2225A15.1331,15.1331,0,0,0,238.2079,218.4614Z"/><path class="cls-26" d="M246.38,261.4852a14.9969,14.9969,0,1,0,15.3532,15.2226A15.1331,15.1331,0,0,0,246.38,261.4852Z"/></g></g></svg>