<?xml version="1.0" encoding="utf-8"?>
<!-- Generator: Adobe Illustrator 24.1.2, SVG Export Plug-In . SVG Version: 6.00 Build 0)  -->
<svg version="1.1" id="Слой_1" xmlns="http://www.w3.org/2000/svg" xmlns:xlink="http://www.w3.org/1999/xlink" x="0px" y="0px"
	 viewBox="0 0 478 401.6" style="enable-background:new 0 0 478 401.6;" xml:space="preserve">
<style type="text/css">
	.st0{fill:#DBDBDB;}
	.st1{fill:#EBEBEB;}
	.st2{fill:#E4E4E2;}
	.st3{fill:#C7463B;}
	.st4{fill:#C1E3F7;}
	.st5{fill:#8ED2FF;}
	.st6{fill:#CBCBCB;}
	.st7{fill:#F7BA61;}
	.st8{fill:#A83B32;}
	.st9{fill:#41B2FF;}
</style>
<g id="flat">
	<path class="st0" d="M52.2,124.3h146l0,0v224l0,0H6.2l0,0v-178C6.2,144.9,26.8,124.3,52.2,124.3z"/>
	<path class="st0" d="M406.8,244.3L349.6,138c-4.5-8.4-13.3-13.7-22.9-13.7H52.2c-25.4,0-46,20.6-46,46l0,0v178h464v-75.5
		c0-7.3-5-13.7-12.1-15.5L406.8,244.3z"/>
	<polygon class="st0" points="406.8,244.3 310.2,244.3 310.2,172.3 368,172.3 	"/>
	<rect x="198.2" y="124.3" class="st1" width="112" height="224"/>
	<rect x="198.2" y="124.3" class="st2" width="112" height="128"/>
	<circle class="st3" cx="102.2" cy="220.3" r="64"/>
	<polygon class="st2" points="134.2,204.3 118.2,204.3 118.2,188.3 86.2,188.3 86.2,204.3 70.2,204.3 70.2,236.3 86.2,236.3 
		86.2,252.3 118.2,252.3 118.2,236.3 134.2,236.3 	"/>
	<path class="st4" d="M238.2,156.3h32c4.4,0,8,3.6,8,8v48c0,4.4-3.6,8-8,8h-32c-4.4,0-8-3.6-8-8v-48
		C230.2,159.9,233.8,156.3,238.2,156.3z"/>
	<path class="st5" d="M238.2,156.3h24c4.4,0,8,3.6,8,8v48c0,4.4-3.6,8-8,8h-24c-4.4,0-8-3.6-8-8v-48
		C230.2,159.9,233.8,156.3,238.2,156.3z"/>
	<polygon class="st4" points="406.8,244.3 310.2,244.3 310.2,172.3 368,172.3 	"/>
	<polygon class="st5" points="390.2,244.3 310.2,244.3 310.2,172.3 350.2,172.3 	"/>
	<rect x="342.2" y="268.3" class="st6" width="32" height="16"/>
	<polygon class="st1" points="470.2,348.3 398.2,348.3 422.2,316.3 470.2,316.3 	"/>
	<rect x="446.2" y="276.3" class="st7" width="24" height="16"/>
	<rect x="6.2" y="292.3" class="st3" width="192" height="24"/>
	<rect x="198.2" y="252.3" class="st3" width="112" height="24"/>
	<rect x="230.2" y="92.3" class="st7" width="48" height="32"/>
	<path class="st3" d="M254.2,60.3L254.2,60.3c8.8,0,16,7.2,16,16v16l0,0h-32l0,0v-16C238.2,67.5,245.4,60.3,254.2,60.3z"/>
	<path class="st7" d="M254.2,36.3c-4.4,0-8-3.6-8-8v-16c0-4.4,3.6-8,8-8c4.4,0,8,3.6,8,8v16C262.2,32.8,258.6,36.3,254.2,36.3z"/>
	<path class="st7" d="M212.6,60.3c-1.4,0-2.8-0.4-4-1.1l-13.9-8c-3.8-2.2-5.2-7.1-3-10.9c2.2-3.8,7.1-5.2,10.9-3c0,0,0.1,0,0.1,0.1
		l13.9,8c3.8,2.2,5.1,7.1,2.9,10.9C218.1,58.8,215.5,60.3,212.6,60.3z"/>
	<path class="st7" d="M295.8,60.3c-4.4,0-8-3.6-8-8c0-2.9,1.5-5.5,4-6.9l13.9-8c3.8-2.2,8.7-1,10.9,2.9c2.2,3.8,1,8.7-2.9,10.9
		c0,0-0.1,0-0.1,0.1l-13.9,8C298.5,60,297.2,60.3,295.8,60.3z"/>
	<rect x="190.2" y="124.3" class="st6" width="8" height="168"/>
	<rect x="190.2" y="316.3" class="st6" width="8" height="32"/>
	<rect x="310.2" y="124.3" class="st6" width="8" height="48"/>
	<rect x="310.2" y="244.3" class="st6" width="8" height="104"/>
	<rect x="190.2" y="292.3" class="st8" width="8" height="24"/>
	<rect x="310.2" y="172.3" class="st9" width="8" height="72"/>
	<circle class="st1" cx="103" cy="349.5" r="32"/>
	<circle class="st6" cx="102.2" cy="348.3" r="10"/>
	<path class="st6" d="M102.3,388.4c-3.3,0-6.7-0.4-9.9-1.2c-21.4-5.4-34.4-27.2-28.9-48.6l0,0c5.4-21.4,27.2-34.3,48.6-28.9
		s34.3,27.2,28.9,48.6C136.4,375.9,120.5,388.3,102.3,388.4L102.3,388.4z M102.1,324.3c-11,0-20.5,7.5-23.2,18.1l0,0
		c-3.3,12.8,4.5,25.9,17.4,29.2s25.9-4.5,29.2-17.4c3.3-12.8-4.5-25.9-17.4-29.2C106.1,324.6,104.2,324.3,102.1,324.3z M71.2,340.5
		L71.2,340.5z"/>
	<circle class="st1" cx="383" cy="349.5" r="32"/>
	<circle class="st6" cx="382.2" cy="348.3" r="10"/>
	<path class="st6" d="M382.2,388.4c-3.3,0-6.7-0.4-9.9-1.2c-21.4-5.4-34.4-27.2-28.9-48.6l0,0c5.4-21.4,27.2-34.3,48.6-28.9
		c21.4,5.4,34.3,27.2,28.9,48.6C416.4,375.9,400.5,388.3,382.2,388.4L382.2,388.4z M382.1,324.3c-11,0-20.5,7.5-23.2,18.1l0,0
		c-3.3,12.8,4.5,25.9,17.4,29.2c12.8,3.3,25.9-4.5,29.2-17.4c3.3-12.8-4.5-25.9-17.4-29.2l0,0C386.1,324.6,384.1,324.3,382.1,324.3
		L382.1,324.3z M351.2,340.5L351.2,340.5z"/>
</g>
</svg>
