<?xml version="1.0" encoding="utf-8"?>
<!-- Generator: Adobe Illustrator 24.1.2, SVG Export Plug-In . SVG Version: 6.00 Build 0)  -->
<svg version="1.1" id="Слой_1" xmlns="http://www.w3.org/2000/svg" xmlns:xlink="http://www.w3.org/1999/xlink" x="0px" y="0px"
	 viewBox="0 0 193 212.1" style="enable-background:new 0 0 193 212.1;" xml:space="preserve">
<style type="text/css">
	.st0{fill:#EF4058;}
	.st1{fill:#1466AC;}
	.st2{opacity:0.92;fill:#FF3573;stroke:#9A8AFF;stroke-miterlimit:10;}
</style>
<path class="st0" d="M79.2,107.9H59.6c-0.2,0-0.3,0.1-0.4,0.3c-0.5,8.9-2.2,18.4-4.6,26.2c0,0.1,0,0.2,0.1,0.3s0.2,0.1,0.3,0.1h6.7
	c0.2,0,0.3-0.1,0.3-0.2c1.9-6,3.4-13.8,4-20.4h6.4v20.3c0,0.2,0.2,0.4,0.4,0.4h6.4c0.2,0,0.4-0.2,0.4-0.4v-26.3
	C79.6,108,79.4,107.9,79.2,107.9 M162.1,107.9h-6.4c-0.2,0-0.4,0.2-0.4,0.4v20.3c-1.4,0.4-2.8,0.6-4.4,0.6c-4.2,0-5.2-1.3-5.2-6.9
	v-14c0-0.2-0.2-0.4-0.4-0.4H139c-0.2,0-0.4,0.2-0.4,0.4V123c0,9.2,3.1,12.7,11,12.7c4.5,0,9.6-1.2,12.6-2.3c0.1-0.1,0.2-0.2,0.2-0.3
	v-24.8C162.5,108,162.3,107.9,162.1,107.9 M26.5,107.9H20c-0.2,0-0.3,0.1-0.3,0.3c-1,4-3.1,10.8-5.9,17.9l-6.5-17.9
	C7.2,108.1,7.1,108,7,108H0.4c-0.1,0-0.2,0.1-0.3,0.2s-0.1,0.2,0,0.3l9.8,26.8c-1,2.1-1.9,3.8-2.8,5.4c-0.7,1.2-1.3,2.4-1.9,3.6
	c-0.1,0.1-0.1,0.2,0,0.3s0.2,0.2,0.3,0.2h7.1c0.1,0,0.3-0.1,0.3-0.2c1.2-2.3,2.7-5.5,4.1-8.8c4.2-9.8,7.5-19,10-27.4
	c0-0.1,0-0.2-0.1-0.3C26.7,107.9,26.6,107.9,26.5,107.9 M49.8,128.6c0-0.1-0.1-0.2-0.2-0.2h-0.3c-1.6,0.6-4.5,1-6.5,1
	c-4.5,0-6.6-1.2-6.6-8c0-5.5,0.7-8,6.6-8c1.7,0,3.2,0.2,5.2,0.8c0.2,0,0.3,0,0.4-0.2c0.7-1.4,1.6-3.1,2.6-5.2v-0.3
	c0-0.1-0.1-0.2-0.2-0.2c-2.6-0.8-5.7-1.3-8.5-1.3c-9.3,0-13.5,4.4-13.5,14.3c0,10,4.2,14.5,13.5,14.5c2.3,0,7-0.5,9.2-1.4
	c0.2-0.1,0.3-0.3,0.2-0.5L49.8,128.6 M110.7,107.9h-6.5c-0.2,0-0.3,0.1-0.3,0.3c-1,4.1-3.1,10.8-5.9,17.9l-6.5-17.9
	c-0.1-0.1-0.2-0.2-0.3-0.2h-6.6c-0.1,0-0.2,0.1-0.3,0.2c-0.1,0.1-0.1,0.2,0,0.3l9.8,26.8c-1,2.1-1.9,3.8-2.8,5.4
	c-0.7,1.2-1.3,2.4-1.9,3.7c-0.1,0.1-0.1,0.2,0,0.3s0.2,0.2,0.3,0.2h7.1c0.1,0,0.3-0.1,0.3-0.2c1.2-2.3,2.7-5.5,4.1-8.8
	c4.1-9.8,7.5-19,10-27.4c0-0.1,0-0.2-0.1-0.3C110.9,107.9,110.8,107.9,110.7,107.9 M134.7,107.9h-18.9c-0.2,0-0.4,0.2-0.4,0.4v26.3
	c0,0.2,0.2,0.4,0.4,0.4h6.4c0.2,0,0.4-0.2,0.4-0.4v-20.3h9.9c0.1,0,0.3-0.1,0.3-0.2c0.8-1.8,1.5-3.7,2.3-5.6v-0.3
	C134.9,107.9,134.8,107.9,134.7,107.9"/>
<path class="st1" d="M34.1,67.5c-9.2,0-12.8,4-12.8,14.1c0,10.3,3.6,14.3,12.8,14.3c9.3,0,12.9-4,12.9-14.3
	C47,71.4,43.4,67.5,34.1,67.5 M34.1,90c-4.2,0-5.5-1.1-5.5-8.3c0-7.6,1.4-8.3,5.5-8.3c4.2,0,5.6,0.7,5.6,8.3
	C39.7,88.9,38.4,90,34.1,90 M72.6,88.9c0-0.1-0.1-0.2-0.2-0.2h-0.3c-1.6,0.6-4.5,1-6.5,1c-4.5,0-6.6-1.2-6.6-8c0-5.5,0.7-8,6.6-8
	c1.7,0,3.2,0.2,5.2,0.8c0.2,0,0.3,0,0.4-0.2c0.7-1.4,1.6-3.1,2.6-5.2v-0.3c0-0.1-0.1-0.2-0.2-0.2c-2.6-0.8-5.7-1.3-8.5-1.3
	c-9.3,0-13.5,4.4-13.5,14.3c0,10,4.2,14.5,13.5,14.5c2.3,0,7-0.5,9.2-1.4c0.2-0.1,0.3-0.3,0.2-0.5L72.6,88.9 M19.3,68.2H0.4
	c-0.2,0-0.4,0.2-0.4,0.4v26.3c0,0.2,0.2,0.4,0.4,0.4h6.4c0.2,0,0.4-0.2,0.4-0.4V74.5H17c0.1,0,0.3-0.1,0.3-0.2
	c0.8-1.8,1.5-3.7,2.3-5.6v-0.3C19.5,68.3,19.4,68.2,19.3,68.2"/>
<path class="st2" d="M192,132.1v-0.4c0-0.2,0-0.5,0.1-0.7c0.3-3.7,0.5-8.2,0.7-13.4v-0.4c0.1-3.5,0.2-7.3,0.2-11.2
	c0-3.9-0.1-7.7-0.2-11.2v-0.4c-0.2-5.1-0.4-9.7-0.7-13.4c0-0.2,0-0.5-0.1-0.7v-0.4c0-0.4-0.1-0.7-0.1-1.1v-0.4
	c-0.3-3.9-0.5-6.3-0.6-6.5c0-0.4-0.1-0.8-0.1-1.1v-0.3c-0.1-0.7-0.2-1.3-0.4-2c0-0.1,0-0.2-0.1-0.3c-1.7-8.1-6.2-17-11.8-23.7
	c-2.2-2.6-4.5-4.9-6.9-6.7c-0.2-0.2-3-2.2-7.4-5.3c-5.1-3.5-12.4-8.4-20.7-13.2C129.1,10.6,116,4.5,114.2,3.8
	c-0.1,0-0.1-0.1-0.1-0.1c-3.9-1.7-8.6-2.9-13.7-3.4c-1-0.1-2-0.2-3-0.2C96.4,0,95.5,0,94.6,0h-1.4c-6.8,0.2-13.1,1.4-18.1,3.7
	C74.4,4,61.1,10.1,46,19l-0.6,0.3c-15.5,9.1-27.6,18.1-28.1,18.5c-3.8,2.8-7.2,6.4-10.3,11c-0.7,1-0.7,3.6,2.3,3.6H17
	c3.3,0,4.1-2,7.8-4.7c4.1-3,12.2-9,27-17.8c10.7-6.3,20.7-11.3,25.6-13.6c0.1,0,0.2-0.1,0.3-0.1c0,0,0.1,0,0.1-0.1
	c0,0,0.1,0,0.1-0.1c0.1,0,0.2-0.1,0.2-0.1c0.1,0,0.2-0.1,0.3-0.1c1.2-0.6,2-0.9,2-0.9c3.4-1.5,8.2-2.5,13.3-2.6h2
	c1.5,0,3,0.1,4.4,0.3c3.1,0.4,5.9,1,8.2,2c0.2,0.1,0.5,0.2,0.7,0.3c0,0,0.1,0.1,0.4,0.2c2.3,1,14.7,6.9,28.2,14.8
	c8,4.7,15.1,9.4,20,12.8c4.3,3,6.9,4.9,7,5c1.9,1.4,3.8,3.4,5.6,5.6c4.5,5.8,8.2,13.7,8.8,19.8c0,0.1,0.3,2.5,0.6,6.6
	c0,0.3,0,0.5,0.1,0.8v0.6c0,0.4,0.1,0.7,0.1,1.1v0.4c0,0.2,0,0.5,0.1,0.7c0,0.5,0.1,1,0.1,1.5c0,0.3,0,0.6,0.1,0.9v0.2
	c0,0.4,0,0.7,0.1,1.1v0.8c0.3,5.2,0.5,11.4,0.5,17.9s-0.2,12.7-0.5,17.9v0.8c0,0.4,0,0.7-0.1,1.1v0.2c0,0.3,0,0.6-0.1,0.9
	c0,0.5-0.1,1-0.1,1.5c0,0.3,0,0.5-0.1,0.7v0.4c0,0.4-0.1,0.7-0.1,1.1v0.6c0,0.3,0,0.6-0.1,0.8c-0.3,4.1-0.6,6.6-0.6,6.6
	c-0.6,6.1-4.3,14-8.8,19.8c-1.8,2.3-3.7,4.2-5.6,5.6c-0.1,0-2.7,2-7,5c-4.9,3.4-12.1,8.1-20,12.8c-13.5,8-26,13.8-28.2,14.8
	l-0.4,0.2c-0.2,0.1-0.5,0.2-0.7,0.3c-2.3,0.9-5.1,1.6-8.2,2c-1.4,0.2-2.9,0.3-4.4,0.3h-2c-5.1-0.1-9.9-1-13.3-2.6c0,0-0.7-0.3-2-0.9
	c-0.1-0.1-0.3-0.1-0.4-0.2c-0.1-0.1-0.2-0.1-0.3-0.2c-0.1,0-0.1-0.1-0.2-0.1s-0.2-0.1-0.3-0.1c-0.1-0.1-0.2-0.1-0.4-0.2h-0.1
	c-5.1-2-14.7-6.8-24.9-12.8c-14.9-8.7-22.9-14.8-27-17.8c-3.7-2.7-4.5-4.7-7.8-4.7H9.3c-3,0-3,2.6-2.3,3.6c3.1,4.6,6.5,8.2,10.3,11
	c0.5,0.4,12.7,9.4,28.1,18.5c0.8,0.5,1.6,1,2.5,1.4c14.3,8.2,26.6,13.8,27.3,14.2c4.9,2.2,11.3,3.5,18.1,3.7h1.4
	c0.9,0,1.8,0,2.7-0.1c1,0,2-0.1,3-0.2c5.1-0.5,9.9-1.7,13.7-3.4c0,0,0.1,0,0.1-0.1c1.7-0.8,14.9-6.9,29.6-15.5
	c8.3-4.9,15.6-9.7,20.7-13.2c4.4-3.1,7.2-5.1,7.4-5.3c2.4-1.8,4.7-4.1,6.9-6.7c5.6-6.7,10.1-15.6,11.8-23.7c0-0.1,0-0.2,0.1-0.3
	c0.1-0.7,0.3-1.4,0.4-2v-0.3c0.1-0.4,0.1-0.8,0.1-1.1c0-0.2,0.3-2.6,0.6-6.5v-0.4C192,132.8,192,132.5,192,132.1"/>
</svg>
