<?xml version="1.0" encoding="utf-8"?>
<!-- Generator: Adobe Illustrator 24.1.2, SVG Export Plug-In . SVG Version: 6.00 Build 0)  -->
<svg version="1.1" id="Layer_3" xmlns="http://www.w3.org/2000/svg" xmlns:xlink="http://www.w3.org/1999/xlink" x="0px" y="0px"
	 viewBox="0 0 1181.6 1184.2" style="enable-background:new 0 0 1181.6 1184.2;" xml:space="preserve">
<style type="text/css">
	.st0{fill:#E0E1E2;}
	.st1{fill:#1682FC;}
	.st2{fill:#2E3A58;}
</style>
<path class="st0" d="M1121.3,889.1l-88.7,87.3c-67.8,66.8-167,90.5-257.7,61.5l0,0c-170.1-54.5-324.8-148.8-451.2-275.1
	S103,481.8,48.6,311.6l0,0c-2.9-9.2-5.3-18.5-7.2-27.9c-8.5,42.6-6,86.7,7.2,128.1l0,0c110.4,345.3,381,615.9,726.3,726.3l0,0
	c90.6,29,189.9,5.3,257.7-61.4l88.7-87.4c31.1-30.6,36.4-79,12.6-115.6C1130.2,879.2,1126,884.4,1121.3,889.1z"/>
<path class="st1" d="M392.1,347c-1.4,0-2.8-0.6-3.8-1.6l-34.1-34.1c-2.1-2.1-2.1-5.5,0-7.6s5.6-2.1,7.7,0l34,34.1
	c2.1,2.1,2.1,5.5,0,7.6C394.9,346.4,393.5,347,392.1,347z M309.6,264.5c-1.4,0-2.8-0.6-3.8-1.6l-48.4-48.4c-1.9-2.3-1.6-5.7,0.7-7.6
	c2-1.6,4.9-1.6,6.9,0l48.4,48.4c2.1,2.1,2.1,5.5,0,7.6C312.4,263.9,311,264.5,309.6,264.5z M212.8,167.6c-1.4,0-2.8-0.5-3.8-1.5
	l-48.5-48.5c-2.1-2.1-2.1-5.5,0-7.6s5.6-2.1,7.7,0l48.4,48.4c2.1,2.1,2.1,5.6,0,7.7C215.6,167.1,214.2,167.6,212.8,167.6z"/>
<path class="st1" d="M1088,1024.9c-1.4,0-2.8-0.6-3.8-1.6l-48.5-48.4c-2.1-2.1-2.1-5.5,0-7.6s5.6-2.1,7.7,0l48.4,48.4
	c2.1,2.1,2.1,5.5,0,7.6C1090.8,1024.3,1089.4,1024.9,1088,1024.9z M991.1,928.1c-1.4-0.1-2.8-0.6-3.8-1.6l-48.4-48.4
	c-2.1-2.1-2.1-5.6,0-7.7s5.5-2.1,7.6,0l48.4,48.5c2.1,2,2.2,5.3,0.3,7.3c-0.1,0.1-0.2,0.2-0.3,0.3
	C993.9,927.5,992.5,928.1,991.1,928.1L991.1,928.1z M894.3,831.2c-1.4,0-2.8-0.6-3.8-1.6L842,781.2c-2.1-2.1-2.1-5.5,0-7.6
	s5.6-2.1,7.7,0l48.4,48.4c2.1,2.1,2.1,5.5,0,7.6C897.1,830.6,895.7,831.2,894.3,831.2L894.3,831.2z"/>
<path class="st0" d="M845.9,532.8c-128.8,0-234.7-97.6-247.8-222.9c-0.9,8.7-1.3,17.5-1.3,26.2c0,137.6,111.5,249.1,249.1,249.1
	S1095,473.7,1095,336.1c0-8.8-0.5-17.5-1.4-26.2C1080.5,435.2,974.6,532.8,845.9,532.8z"/>
<path class="st2" d="M845.9,600.2c-146,0.1-264.4-118.2-264.5-264.1c-0.1-146,118.2-264.4,264.1-264.5
	c146-0.1,264.4,118.2,264.5,264.1c0,70.2-27.8,137.5-77.4,187.1C983.2,572.5,916,600.4,845.9,600.2z M845.9,102
	c-129.2,0-234,104.8-233.9,234.1s104.8,234,234.1,233.9c129.2,0,234-104.8,233.9-234.1c0-62.1-24.7-121.6-68.6-165.4
	C967.6,126.5,908,101.8,845.9,102z"/>
<path class="st1" d="M845.9,530.6c-23.5,0-46.9-4.3-68.9-12.6c-2.8-1.1-4.2-4.2-3.2-7c1.1-2.8,4.2-4.2,7-3.1l0,0
	c20.8,7.9,42.9,11.9,65.1,11.9c3,0,5.4,2.4,5.4,5.4C851.3,528.2,848.9,530.6,845.9,530.6L845.9,530.6L845.9,530.6z M869.9,529.1
	c-2.7,0-5-2.1-5.3-4.8c-0.4-2.9,1.7-5.6,4.6-6c22.1-2.8,43.4-9.6,63-20.1c2.7-1.3,5.9-0.1,7.2,2.6c1.2,2.5,0.3,5.4-2.1,6.9
	c-20.7,11.1-43.3,18.4-66.7,21.3L869.9,529.1z M720.6,483c-1.3,0-2.6-0.4-3.6-1.3c-17.6-15.6-32.3-34.3-43.2-55.1
	c-1.4-2.6-0.4-5.8,2.2-7.2l0,0c2.6-1.4,5.9-0.4,7.3,2.2c10.4,19.7,24.2,37.3,40.9,52c2.2,2,2.4,5.3,0.5,7.6
	C723.7,482.4,722.2,483,720.6,483L720.6,483z M988.1,466c-3-0.1-5.4-2.6-5.4-5.6c0-1.2,0.5-2.4,1.3-3.4c14.7-16.7,26.2-35.9,34-56.7
	c1.3-2.7,4.5-3.9,7.2-2.6c2.4,1.1,3.6,3.8,2.9,6.3c-8.3,22-20.5,42.4-36,60.1C991.1,465.3,989.7,466,988.1,466L988.1,466z
	 M658.2,364.5c-2.7,0-5-2-5.4-4.7c-0.9-7.9-1.4-15.8-1.4-23.7c0-15.6,1.8-31.1,5.5-46.2c0.7-2.9,3.6-4.7,6.5-4s4.7,3.7,4,6.6
	c-3.5,14.3-5.3,28.9-5.3,43.6c0,7.5,0.5,15,1.4,22.4c0.4,2.9-1.6,5.6-4.5,6c-0.1,0-0.1,0-0.2,0L658.2,364.5z M1035,340.5
	c-3,0-5.4-2.4-5.4-5.4l0,0c-0.1-22.2-4.3-44.3-12.3-65c-1-2.8,0.4-5.8,3.1-6.9c2.8-1.1,5.9,0.3,7,3.1l0,0c8.5,22,12.9,45.3,13,68.8
	C1040.4,338.1,1038,340.5,1035,340.5L1035,340.5L1035,340.5z M690,234.4c-1.1,0-2.1-0.3-3-0.9c-2.4-1.6-3.1-4.9-1.5-7.3
	c0-0.1,0.1-0.1,0.1-0.2c13.4-19.4,30.1-36.2,49.4-49.6c2.4-1.7,5.8-1.1,7.5,1.3c1.7,2.5,1.1,5.8-1.4,7.5
	c-18.2,12.7-34,28.6-46.6,46.9C693.5,233.5,691.8,234.4,690,234.4L690,234.4z M986.8,215.5c-1.5,0-3-0.7-4-1.8
	c-14.8-16.6-32.5-30.3-52.2-40.6c-2.6-1.3-3.7-4.5-2.4-7.1c0-0.1,0.1-0.1,0.1-0.2c1.4-2.6,4.6-3.6,7.3-2.3
	c20.9,10.9,39.6,25.4,55.2,43c2,2.2,1.8,5.7-0.4,7.7C989.4,215.1,988.1,215.5,986.8,215.5z M800,158c-2.5,0-4.6-1.7-5.2-4.1
	c-0.7-2.8,1-5.7,3.8-6.5h0.1c22.8-5.7,46.5-7.2,69.9-4.5c2.9,0.6,4.8,3.4,4.3,6.3c-0.5,2.6-2.8,4.5-5.5,4.4
	c-7.1-0.8-14.3-1.2-21.5-1.2c-15,0-30,1.8-44.6,5.4L800,158z"/>
<polygon class="st1" points="883.8,303.6 883.8,227.7 807.9,227.7 807.9,303.6 732,303.6 732,379.5 807.9,379.5 807.9,455.5 
	883.8,455.5 883.8,379.5 959.7,379.5 959.7,303.6 "/>
<path class="st2" d="M852.9,1165.3c-28,0-55.9-4.4-82.6-12.9l0,0c-172.4-55.2-329.2-150.7-457.2-278.8
	c-128-128-223.6-284.8-278.8-457.2c-30.7-95.9-5.7-200.9,65-272.7l87.4-88.8c41.5-42.1,109.3-42.6,151.5-1c0.1,0.1,0.3,0.3,0.4,0.4
	L452.2,168c41.8,41.7,41.8,109.4,0,151.2l0,0L403.4,368c-16.8,16.8-22.1,41.9-13.6,64.1c39.6,103,82.8,175.8,135.9,228.9
	s125.9,96.3,229,135.9c22.1,8.5,47.2,3.2,64-13.5l48.8-48.9c41.8-41.7,109.5-41.7,151.3,0l113.6,113.7
	c41.8,41.8,41.7,109.6-0.1,151.3c-0.2,0.2-0.3,0.3-0.5,0.5l-88.7,87.4C992.4,1137.3,924.1,1165.3,852.9,1165.3L852.9,1165.3z
	 M779.5,1123.8c85.3,27.3,178.7,5,242.5-57.8l88.8-87.4c30.3-29.9,30.6-78.6,0.7-108.9c-0.1-0.1-0.2-0.2-0.3-0.3L997.6,755.7
	c-30.1-30-78.8-30-108.9,0l-48.8,48.9c-25.2,25.1-62.8,33.1-96,20.3c-107.1-41.2-183.2-86.5-239.4-142.7S403,550,361.8,442.8
	c-12.8-33.2-4.8-70.8,20.4-96L431,298c30-30.1,30-78.7,0-108.8L317.4,75.5C303,61.1,283.4,53,263,53h-0.3c-20.6,0-40.2,8.3-54.6,23
	l-87.4,88.7c-62.8,63.8-85.1,157.2-57.8,242.5C171.8,747.9,438.8,1014.9,779.5,1123.8z"/>
</svg>
