<?xml version="1.0" encoding="utf-8"?>
<!-- Generator: Adobe Illustrator 24.1.2, SVG Export Plug-In . SVG Version: 6.00 Build 0)  -->
<svg version="1.1" id="Слой_1" xmlns="http://www.w3.org/2000/svg" xmlns:xlink="http://www.w3.org/1999/xlink" x="0px" y="0px"
	 viewBox="0 0 1560.5 1560.5" style="enable-background:new 0 0 1560.5 1560.5;" xml:space="preserve">
<style type="text/css">
	.st0{fill:#EBECED;}
</style>
<path class="st0" d="M1162.2,958.2v109c0,33.3-12.2,63-36.5,89s-55.7,46.2-94,60.5s-77.7,25.2-118,32.5s-79.5,11-117.5,11
	c-136.7,0-250.8-46.3-342.5-139s-137.5-208-137.5-346c0-135.3,45.3-248.3,136-339s203.7-136,339-136c22.7,0,47.8,1.5,75.5,4.5
	s58.7,9,93,18s65.2,20.3,92.5,34s50.3,32.5,69,56.5s28,51,28,81v109c0,10.7-5.3,16-16,16h-118c-10.7,0-16-5.3-16-16v-70
	c0-28.7-21.8-51.2-65.5-67.5s-89.5-24.5-137.5-24.5c-93.3,0-169.5,30.5-228.5,91.5s-88.5,140.2-88.5,237.5
	c0,100.7,30.5,183.8,91.5,249.5s138.8,98.5,233.5,98.5c45.3,0,91.3-8,138-24s70-38,70-66v-70c0-4.7,1.5-8.5,4.5-11.5
	s6.5-4.5,10.5-4.5h119c4,0,7.7,1.5,11,4.5S1162.2,953.6,1162.2,958.2z M780.2,140.2c-86.7,0-169.5,17-248.5,51s-147,79.5-204,136.5
	s-102.5,125-136.5,204s-51,161.8-51,248.5s17,169.5,51,248.5s79.5,147,136.5,204s125,102.5,204,136.5s161.8,51,248.5,51
	s169.5-17,248.5-51s147-79.5,204-136.5s102.5-125,136.5-204s51-161.8,51-248.5s-17-169.5-51-248.5s-79.5-147-136.5-204
	s-125-102.5-204-136.5S866.9,140.2,780.2,140.2z M1548.2,780.2c0,139.3-34.3,267.8-103,385.5s-161.8,210.8-279.5,279.5
	s-246.2,103-385.5,103s-267.8-34.3-385.5-103s-210.8-161.8-279.5-279.5s-103-246.2-103-385.5s34.3-267.8,103-385.5
	S277,183.9,394.7,115.2s246.2-103,385.5-103s267.8,34.3,385.5,103s210.8,161.8,279.5,279.5S1548.2,640.9,1548.2,780.2z"/>
</svg>
