<?xml version="1.0" ?><svg id="icon" viewBox="0 0 512 512" xmlns="http://www.w3.org/2000/svg"><defs><style>.cls-1{fill:#00c67f;}.cls-2{fill:#ff748f;}.cls-3{fill:#dbdbdb;}.cls-4{fill:#f9ed80;}.cls-5{fill:#36d39a;}.cls-6{fill:#fd5f7e;}.cls-7{fill:#efdd60;}.cls-8{fill:#fff;}.cls-9{fill:#b0ebce;}</style></defs><title/><path class="cls-1" d="M319.654,130.2l-12.566-27.515a6.186,6.186,0,0,1,11.254-5.14l12.565,27.515a6.186,6.186,0,1,1-11.253,5.14Z"/><path class="cls-1" d="M300.877,152.027,277.2,137.969a6.185,6.185,0,0,1,6.315-10.637l23.68,14.057a6.186,6.186,0,0,1-6.315,10.638Z"/><path class="cls-1" d="M296.592,179.378l-21.923-2.842a6.186,6.186,0,0,1,1.591-12.269l21.922,2.843a6.185,6.185,0,1,1-1.59,12.268Z"/><path class="cls-1" d="M267.074,220.84a6.185,6.185,0,0,1,2.134-8.483l32.951-19.7a6.186,6.186,0,0,1,6.349,10.618l-32.951,19.7A6.186,6.186,0,0,1,267.074,220.84Z"/><path class="cls-1" d="M315.359,249.9a6.185,6.185,0,0,1-3.6-7.973l10.693-28.295A6.185,6.185,0,1,1,334.024,218l-10.692,28.3A6.187,6.187,0,0,1,315.359,249.9Z"/><path class="cls-1" d="M363.858,257.967l-8.093-41.174a6.186,6.186,0,0,1,12.139-2.386L376,255.581a6.186,6.186,0,0,1-12.14,2.386Z"/><path class="cls-1" d="M394.01,217.936,378.736,205.5a6.186,6.186,0,1,1,7.813-9.592l15.274,12.441a6.185,6.185,0,1,1-7.813,9.591Z"/><path class="cls-1" d="M431.124,184.528l-38.837-3a6.186,6.186,0,0,1,.951-12.335l38.836,3a6.186,6.186,0,0,1-.95,12.335Z"/><path class="cls-1" d="M382.9,153.613a6.186,6.186,0,0,1,3.355-8.079l25.77-10.647a6.185,6.185,0,1,1,4.724,11.433l-25.77,10.648A6.186,6.186,0,0,1,382.9,153.613Z"/><path class="cls-1" d="M368.938,136.975a6.185,6.185,0,0,1-1.536-8.612l23.827-34.171a6.186,6.186,0,0,1,10.149,7.076L377.55,135.439A6.187,6.187,0,0,1,368.938,136.975Z"/><path class="cls-1" d="M351.265,129.545h-.06a6.186,6.186,0,0,1-6.126-6.245l.395-40.922a6.186,6.186,0,0,1,12.372.12l-.4,40.922A6.187,6.187,0,0,1,351.265,129.545Z"/><rect class="cls-2" height="191.011" transform="translate(-169.329 273.989) rotate(-44.995)" width="84.033" x="204.093" y="245.911"/><rect class="cls-3" height="34.455" transform="translate(-136.33 194.373) rotate(-45.012)" width="84.033" x="124.379" y="244.475"/><path class="cls-3" d="M348.569,436.142l-7.742,7.732a36.55,36.55,0,0,1-51.681,0l-5.216-5.217,59.423-59.412,5.216,5.206A36.562,36.562,0,0,1,348.569,436.142Z"/><polygon class="cls-4" points="202.537 201.192 114.547 289.182 106.866 296.863 56 245.996 151.671 150.325 202.537 201.192"/><path class="cls-1" d="M364.992,214.584a47.8,47.8,0,1,1,23.619-63.331A47.572,47.572,0,0,1,364.992,214.584Z"/><path class="cls-5" d="M334.755,217.759a47.808,47.808,0,0,1,0-93.32,65.744,65.744,0,0,1,11.082,20.319C354.652,170.356,349.559,199.666,334.755,217.759Z"/><circle class="cls-5" cx="403.648" cy="87.871" r="12.14"/><circle class="cls-5" cx="307.672" cy="89.071" r="12.14"/><circle class="cls-5" cx="268.914" cy="124.529" r="12.14"/><circle class="cls-5" cx="350.38" cy="69.567" r="12.14"/><circle class="cls-5" cx="425.215" cy="135.097" r="12.14"/><circle class="cls-5" cx="443.857" cy="178.568" r="12.14"/><circle class="cls-5" cx="406.18" cy="222.712" r="12.14"/><circle class="cls-5" cx="261.898" cy="169.92" r="12.14"/><circle class="cls-5" cx="314.506" cy="255.891" r="12.14"/><circle class="cls-5" cx="262.72" cy="225.73" r="12.14"/><circle class="cls-5" cx="372.79" cy="268.812" r="12.14"/><polygon class="cls-6" points="343.353 379.245 283.93 438.657 208.29 244.172 343.353 379.245"/><path class="cls-7" d="M114.547,289.182c37.485-43.495,37.124-138.857,37.124-138.857l50.866,50.867Z"/><path class="cls-8" d="M208.98,293.7c.846,7.741,11.726,4.728,9.552-4.09-3.029-12.233-18.56-20.179-32.526-6.213-20.819,20.834,9.875,40.461,15.266,28.421,1-2.272-.021-5.36-4.025-5.945-4.087-.6-6.671-2.965-7.537-5.313C186.635,292.2,207.174,277.23,208.98,293.7Z"/><path class="cls-8" d="M238.337,305.672c-11.691-11.692-26.167-3.333-32.9,8.123-8,13.521,4.776,26.464,15.5,26.464C233.479,340.259,253.412,320.822,238.337,305.672Zm-9.556,19.721c-9.928,9.928-16.09.463-15.268-3.556.964-4.47,10.628-16.124,17.525-9.227C233.938,315.51,234.963,319.211,228.781,325.393Z"/><path class="cls-8" d="M275.139,344.513c-.128-2.319-3.465-6.227-6.787-5.417-.766.193.241-.229-19.729,9.554l9.035-18.893c2.272-5.216-6.371-11.4-9.215-4.952-15.287,32.476-14.681,30.918-14.8,31.873a4.811,4.811,0,0,0,.916,3.486c4.275,6.2,4.545,4.127,37.741-11.5A4.251,4.251,0,0,0,275.139,344.513Z"/><path class="cls-8" d="M279.652,350.126c-1.762.313-.227-.819-25.141,24.094-4.117,4.094,3.25,11.394,7.32,7.354L284.8,358.61C288.32,355.105,283.458,349.456,279.652,350.126Z"/><path class="cls-8" d="M302.605,370.558c-10.549-10.527-6.6-10.514-33.66,16.536a5.037,5.037,0,0,0-.123,7.289c5.6,5.6,10.393,11.371,18.783,11.371C300.2,405.754,319.084,387.111,302.605,370.558Zm-7.711,20.618c-7.359,7.409-11.009,4.074-15.217-.134l14.6-14.608C298.9,381.063,300.906,385.217,294.894,391.176Z"/><path class="cls-9" d="M330.914,148.931a6.816,6.816,0,1,0-3.381,9.031A6.824,6.824,0,0,0,330.914,148.931Z"/><path class="cls-9" d="M341.141,162.92a6.816,6.816,0,1,0,9.031,3.382A6.821,6.821,0,0,0,341.141,162.92Z"/><path class="cls-9" d="M359.573,186.766a6.816,6.816,0,1,0,9.032,3.35A6.805,6.805,0,0,0,359.573,186.766Z"/><path class="cls-9" d="M367.532,161.075a6.812,6.812,0,1,0,9.031,3.351A6.818,6.818,0,0,0,367.532,161.075Z"/><path class="cls-9" d="M316.409,172.838a6.811,6.811,0,0,0-3.371,9.031v.01a6.818,6.818,0,1,0,3.371-9.041Z"/><path class="cls-9" d="M360.306,142.065a6.814,6.814,0,1,0-3.382,9.021A6.825,6.825,0,0,0,360.306,142.065Z"/><path class="cls-9" d="M333.862,191.93a6.816,6.816,0,1,0,9.031,3.382A6.814,6.814,0,0,0,333.862,191.93Z"/></svg>