<?xml version="1.0" encoding="utf-8"?>
<!-- Generator: Adobe Illustrator 24.1.2, SVG Export Plug-In . SVG Version: 6.00 Build 0)  -->
<svg version="1.1" id="Слой_1" xmlns="http://www.w3.org/2000/svg" xmlns:xlink="http://www.w3.org/1999/xlink" x="0px" y="0px"
	 viewBox="0 0 64 64" style="enable-background:new 0 0 64 64;" xml:space="preserve">
<style type="text/css">
	.st0{fill:#57B5B5;}
	.st1{fill:#75C6A8;}
	.st2{fill:#9EC6B8;}
	.st3{fill:#263047;}
	.st4{fill:none;stroke:#263047;stroke-width:0.5;stroke-linecap:round;stroke-miterlimit:10;}
	.st5{fill:#FFFFFF;}
	.st6{fill:#BFD8D0;}
</style>
<g id="Layer_1">
</g>
<g id="artworks">
	<circle class="st0" cx="50.3" cy="34.7" r="3.4"/>
	<circle class="st0" cx="53.5" cy="32.3" r="4.2"/>
	<circle class="st0" cx="57.9" cy="30" r="2.5"/>
	<circle class="st1" cx="47.3" cy="28.1" r="1.7"/>
	<circle class="st1" cx="48.3" cy="30.5" r="2.6"/>
	<circle class="st1" cx="48.3" cy="34.8" r="3"/>
	<path class="st1" d="M53.6,26.7l-0.9-0.8c0.3-1,0-2.1-0.8-2.9c-0.5-0.5-1.2-0.8-1.9-0.9c-1.1-0.1-2.2-0.6-3-1.4l-3.4-3.1l-1,1.8
		l2.6,2.8c0.9,0.9,1.4,2,1.5,3.3c0.1,0.7,0.4,1.3,0.9,1.8c0.9,0.9,2.1,1.1,3.2,0.7l0.7,0.8L53.6,26.7z"/>
	<polygon class="st0" points="43.7,17.6 42.6,19.4 45.3,22.1 45.3,22.1 46.9,20.5 	"/>
	<circle class="st1" cx="52.9" cy="25.7" r="3.1"/>
	<path class="st1" d="M54.1,26.5c-0.8,0.3-1.3,0.9-1.5,1.6c-1.5-0.9-3.5-0.6-4.6,0.9c-0.9,1.2-0.8,2.9,0.1,4.1
		c1.3,1.7,3.7,1.8,5.2,0.3c0.1-0.1,0.2-0.2,0.3-0.3c0.5-0.7,1.2-1.2,2-1.4c0.6-0.1,1.1-0.3,1.6-0.8c1.3-1.3,1-3.4-0.6-4.4
		C55.7,26.2,54.8,26.2,54.1,26.5z"/>
	<circle class="st1" cx="58" cy="26.1" r="3"/>
	<circle class="st1" cx="57" cy="20.6" r="0.7"/>
	<circle class="st1" cx="54.6" cy="21.3" r="0.3"/>
	<circle class="st1" cx="53.7" cy="18.9" r="1"/>
	<circle class="st1" cx="51.3" cy="21.2" r="0.1"/>
	<circle class="st1" cx="57.2" cy="17.7" r="0.5"/>
	<circle class="st1" cx="49.6" cy="20.1" r="0.3"/>
	<circle class="st1" cx="51.4" cy="19.9" r="0.2"/>
	<g>
		<path class="st2" d="M35.5,16.8l-0.8,3.9c0,0.3,0,0.5,0.2,0.7l0,0c0.3,0.3,0.9,0.3,1.2-0.1l2.7-4.1"/>
		<path class="st3" d="M16.9,53.9l13.6-20.8c0.7-1.1,0.6-2.5-0.4-3.5l-1.4-1.4c-2-2-2-5.3,0-7.4l1.5-1.5l-4.7-4.7l-7.1,7.1L18,22.1
			L5.6,34.6c-3.5,3.5-3.5,9.2,0,12.7l7,7C13.9,55.6,15.9,55.4,16.9,53.9z"/>
		<path class="st1" d="M27.5,37.7l-5.8-5.8c-0.6-0.6-1.6-0.6-2.3,0l-8.2,8.2c-0.6,0.6-0.6,1.6,0,2.3l8,8L27.5,37.7z"/>
		<path class="st4" d="M16.9,53.9l13.6-20.8c0.7-1.1,0.6-2.5-0.4-3.5l-1.4-1.4"/>
		<path class="st5" d="M17.3,40.8l-1.9-1.9c-0.2-0.2-0.2-0.5,0-0.7l0,0c0.2-0.2,0.5-0.2,0.7,0L18,40c0.2,0.2,0.2,0.5,0,0.7l0,0
			C17.8,41,17.5,41,17.3,40.8z"/>
		<path class="st5" d="M16,42l-1.9-1.9c-0.2-0.2-0.2-0.5,0-0.7l0,0c0.2-0.2,0.5-0.2,0.7,0l1.9,1.9c0.2,0.2,0.2,0.5,0,0.7l0,0
			C16.6,42.2,16.2,42.2,16,42z"/>
		<path class="st5" d="M13.5,42l-0.6-0.6c-0.2-0.2-0.2-0.5,0-0.7l0,0c0.2-0.2,0.5-0.2,0.7,0l0.6,0.6c0.2,0.2,0.2,0.5,0,0.7l0,0
			C14,42.2,13.7,42.2,13.5,42z"/>
		<path class="st2" d="M29.4,21l-5.1-5.1c-0.2-0.2-0.2-0.6,0-0.8l0.4-0.4c0.2-0.2,0.6-0.2,0.8,0l5.1,5.1c0.2,0.2,0.2,0.6,0,0.8
			L30.1,21C29.9,21.2,29.6,21.2,29.4,21z"/>
		<path class="st6" d="M35.6,10.7l-3-1.6c-1-0.5-2.2-0.3-2.9,0.6l-4.2,5.1l4.7,4.7c0.9,0.9,2.4,1,3.4,0.1l1.9-1.6
			c0.9-0.8,2.1-0.9,3.1-0.2l3,1.9c0.4,0.3,1,0.2,1.3-0.1l1.5-1.5c0.2-0.2,0.2-0.6,0-0.9C41.8,14.6,38.8,12.4,35.6,10.7z"/>
		<path class="st4" d="M35.6,10.7l-3-1.6c-1-0.5-2.2-0.3-2.9,0.6l-4.2,5.1"/>
	</g>
	<circle class="st1" cx="43.3" cy="36.1" r="0.5"/>
	<circle class="st1" cx="41.7" cy="32.2" r="1.1"/>
	<circle class="st1" cx="44.3" cy="32.2" r="0.2"/>
	<path class="st1" d="M50,41.6l0.9-1.5c0.1-0.2-0.1-0.4-0.3-0.3l-1.5,0.9c-0.5,0.3-1.1,0.3-1.6,0l-1.5-1c-0.2-0.1-0.4,0.1-0.3,0.3
		l0.9,1.5c0.3,0.5,0.3,1.1,0,1.6l-0.9,1.5c-0.1,0.2,0.1,0.4,0.3,0.3l1.5-0.9c0.5-0.3,1.1-0.3,1.6,0l1.5,0.9c0.2,0.1,0.4-0.1,0.3-0.3
		L50,43.2C49.7,42.7,49.7,42.1,50,41.6z"/>
	<path class="st1" d="M58.3,40.4l1.3-0.3c0.2,0,0.2-0.3,0-0.3l-1.3-0.3c-0.4-0.1-0.7-0.4-0.9-0.9l-0.3-1.3c0-0.2-0.3-0.2-0.3,0
		l-0.3,1.3c-0.1,0.4-0.4,0.7-0.9,0.9l-1.3,0.3c-0.2,0-0.2,0.3,0,0.3l1.3,0.3c0.4,0.1,0.7,0.4,0.9,0.9l0.3,1.3c0,0.2,0.3,0.2,0.3,0
		l0.3-1.3C57.6,40.8,57.9,40.5,58.3,40.4z"/>
	<path class="st1" d="M38.9,35.3l-0.1-0.5c0-0.1-0.1-0.1-0.1,0l-0.1,0.5c0,0.2-0.2,0.3-0.3,0.3l-0.5,0.1c-0.1,0-0.1,0.1,0,0.1
		l0.5,0.1c0.2,0,0.3,0.2,0.3,0.3l0.1,0.5c0,0.1,0.1,0.1,0.1,0l0.1-0.5c0-0.2,0.2-0.3,0.3-0.3l0.5-0.1c0.1,0,0.1-0.1,0-0.1l-0.5-0.1
		C39.1,35.6,38.9,35.5,38.9,35.3z"/>
	<circle class="st1" cx="43" cy="29.8" r="0.2"/>
	<circle class="st1" cx="44.2" cy="28.5" r="0.3"/>
	<circle class="st1" cx="43.9" cy="26.9" r="0.1"/>
</g>
</svg>
