<?xml version="1.0" encoding="utf-8"?>
<!-- Generator: Adobe Illustrator 24.1.2, SVG Export Plug-In . SVG Version: 6.00 Build 0)  -->
<svg version="1.1" id="Слой_1" xmlns="http://www.w3.org/2000/svg" xmlns:xlink="http://www.w3.org/1999/xlink" x="0px" y="0px"
	 viewBox="0 0 64 64" style="enable-background:new 0 0 64 64;" xml:space="preserve">
<style type="text/css">
	.st0{fill:#98DEEA;}
	.st1{fill:#82D0D8;}
	.st2{fill:#E6E6E6;}
	.st3{fill:#CECECE;}
	.st4{fill:#FF938D;}
	.st5{fill:#FFD3B6;}
	.st6{fill:#F9B995;}
	.st7{fill:#FFFFFF;}
</style>
<g id="Layer_31">
	<path class="st0" d="M29,63H9c-4.4,0-8-3.6-8-8V27.1c0-1.8,1.2-3.4,3-3.9l9-2.2h12l9,2.2c1.8,0.4,3,2,3,3.9V55
		C37,59.4,33.4,63,29,63z"/>
	<path class="st1" d="M32,60L32,60C16.5,60,4,47.5,4,32v-7.9c0-0.3,0-0.6,0.1-0.9l-0.1,0c-1.8,0.4-3,2-3,3.9V55c0,4.4,3.6,8,8,8h20
		c2.9,0,5.5-1.5,7-4C34.7,59.6,33.4,60,32,60z"/>
	<path class="st2" d="M15,15h8c1.1,0,2,0.9,2,2v4l0,0H13l0,0v-4C13,15.9,13.9,15,15,15z"/>
	<path class="st0" d="M17,11h4c1.1,0,2,0.9,2,2v2l0,0h-8l0,0v-2C15,11.9,15.9,11,17,11z"/>
	<path class="st1" d="M20,11h-3c-1.1,0-2,0.9-2,2v2h3v-2C18,11.9,18.9,11,20,11z"/>
	<rect x="17" y="5" class="st2" width="4" height="6"/>
	<rect x="17" y="5" class="st3" width="4" height="2"/>
	<path class="st2" d="M27.3,5H15c-1.1,0-2-0.9-2-2l0,0c0-1.1,0.9-2,2-2h18l-2.8,2.8C29.4,4.6,28.4,5,27.3,5z"/>
	<path class="st3" d="M16,3c0-1.1,0.9-2,2-2h-3c-1.1,0-2,0.9-2,2s0.9,2,2,2h3C16.9,5,16,4.1,16,3z"/>
	<path class="st2" d="M9,27h20c1.1,0,2,0.9,2,2v26c0,1.1-0.9,2-2,2H9c-1.1,0-2-0.9-2-2V29C7,27.9,7.9,27,9,27z"/>
	<path class="st3" d="M19.4,57C14,54.3,9.7,50,7,44.6V55c0,1.1,0.9,2,2,2H19.4z"/>
	<polygon class="st4" points="24,40 21,40 21,37 17,37 17,40 14,40 14,44 17,44 17,47 21,47 21,44 24,44 	"/>
	<path class="st5" d="M25,31h0.2c0.5,0,1,0.2,1.4,0.6L34,39h9c0-3.3,2.7-6,6-6c1.7,0,3.3,0.7,4.5,2H59v12H34.3
		c-2.1,0-4.2-0.8-5.7-2.3l-6.5-6.5c-0.8-0.8-1.2-1.8-1.2-2.8V35C21,32.8,22.8,31,25,31z"/>
	<path class="st6" d="M57,44H36.3c-2.1,0-4.2-0.8-5.7-2.3l-6.5-6.5c-0.8-0.8-1.2-1.8-1.2-2.8V32c0-0.2,0-0.3,0-0.5
		c-1.3,0.7-2,2-2,3.5v0.3c0,1.1,0.4,2.1,1.2,2.8l6.5,6.5c1.5,1.5,3.5,2.3,5.7,2.3H59v-3H57z"/>
	<path class="st2" d="M63,49h-2c-1.1,0-2-0.9-2-2V35c0-1.1,0.9-2,2-2h2l0,0V49L63,49z"/>
	<path class="st3" d="M59,44v3c0,1.1,0.9,2,2,2h2v-3h-2C59.9,46,59,45.1,59,44z"/>
	<path class="st0" d="M36,14c0,1.7-1.3,3-3,3c-1.7,0-3-1.3-3-3c0-1.7,3-5,3-5S36,12.3,36,14z"/>
	<path class="st5" d="M47,41H36c-1.7,0-3-1.3-3-3l0,0c0-1.7,1.3-3,3-3h11l0,0V41L47,41z"/>
	<path class="st6" d="M39,38c-1.7,0-3-1.3-3-3c-1.7,0-3,1.3-3,3c0,0.1,0,0.1,0,0.2c0.1,1.6,1.5,2.9,3.2,2.8h9.3
		c0.8,0,1.5-0.7,1.5-1.5l0,0c0-0.8-0.7-1.5-1.5-1.5H39z"/>
	<path class="st7" d="M31,25.6c-0.1,0-0.2,0-0.2,0l-3-0.8c-0.5-0.1-0.9-0.7-0.7-1.2c0.1-0.5,0.7-0.9,1.2-0.7l3,0.8
		c0.5,0.1,0.9,0.7,0.7,1.2C31.9,25.2,31.5,25.6,31,25.6z"/>
	<rect x="16" y="15" class="st3" width="2" height="6"/>
	<rect x="20" y="15" class="st3" width="2" height="6"/>
</g>
</svg>
