<?xml version="1.0" encoding="utf-8"?>
<!-- Generator: Adobe Illustrator 24.1.2, SVG Export Plug-In . SVG Version: 6.00 Build 0)  -->
<svg version="1.1" id="Слой_1" xmlns="http://www.w3.org/2000/svg" xmlns:xlink="http://www.w3.org/1999/xlink" x="0px" y="0px"
	 viewBox="0 0 64 64" style="enable-background:new 0 0 64 64;" xml:space="preserve">
<style type="text/css">
	.st0{fill:#4C6CB5;}
	.st1{fill:#CCCCCC;}
	.st2{fill:#D6D6D6;}
	.st3{fill:#3B5892;}
	.st4{fill:#78A0D4;}
	.st5{fill:#FADCB6;}
	.st6{fill:#F2F2F2;}
</style>
<g id="Layer_15">
	<path class="st0" d="M6,19h18c2.2,0,4,1.8,4,4v39l0,0H2l0,0V23C2,20.8,3.8,19,6,19z"/>
	<rect x="2" y="28" class="st1" width="26" height="26"/>
	<path class="st2" d="M2,52c12.7-0.5,23-10.9,23.9-24H2V52z"/>
	<rect x="9" y="15" class="st3" width="12" height="4"/>
	<rect x="13" y="8" class="st1" width="4" height="7"/>
	<rect x="9" y="2" class="st3" width="12" height="6"/>
	<path class="st1" d="M21,3h9c1.7,0,3,1.3,3,3v5h-4V7h-8V3z"/>
	<polygon class="st4" points="21,39 17,39 17,35 13,35 13,39 9,39 9,43 13,43 13,47 17,47 17,43 21,43 	"/>
	<path class="st5" d="M52.1,35.2c-1.4-0.8-2.9-1.2-4.5-1.2h-0.3c-0.9,0-1.7,0.1-2.6,0.4l-7.1,2.1c-1.2,0.4-1.9,1.6-1.6,2.8
		c0.3,1,1.2,1.7,2.2,1.7H37l-10.3-8.4C26.3,32.2,25.6,32,25,32h-0.3c-1.5,0-2.7,1.3-2.7,2.8c0,0.8,0.4,1.5,1,2L35,47h16l11,7V41
		L52.1,35.2z"/>
	<path class="st6" d="M26.8,32.6L37,41h1.3C37,41,36,40,36,38.7c0-1,0.7-1.9,1.7-2.2l7.1-2.1c0.8-0.3,1.7-0.4,2.6-0.4h0.3
		c0.8,0,1.6,0.1,2.4,0.3V34c0-2.8-2.2-5-5-5c-0.3,0-0.7,0-1,0.1c0,0,0-0.1,0-0.1c0-2.8-2.2-5-5-5c-2,0-3.8,1.2-4.6,3.1
		c-2.7-1.9-6.5-1.2-8.3,1.6c-0.7,1-1,2.2-1,3.4l0,0C25.6,32,26.3,32.2,26.8,32.6z"/>
	<circle class="st1" cx="41" cy="14" r="2"/>
	<circle class="st1" cx="51" cy="23" r="3"/>
	<path d="M21,38h-3v-3c0-0.6-0.4-1-1-1h-4c-0.6,0-1,0.4-1,1v3H9c-0.6,0-1,0.4-1,1v4c0,0.6,0.4,1,1,1h3v3c0,0.6,0.4,1,1,1h4
		c0.6,0,1-0.4,1-1v-3h3c0.6,0,1-0.4,1-1v-4C22,38.4,21.6,38,21,38z M20,42h-3c-0.6,0-1,0.4-1,1v3h-2v-3c0-0.6-0.4-1-1-1h-3v-2h3
		c0.6,0,1-0.4,1-1v-3h2v3c0,0.6,0.4,1,1,1h3V42z"/>
	<path d="M62.5,40.1l-9.9-5.8c-0.5-0.3-1.1-0.5-1.6-0.7c-0.2-3.2-2.8-5.6-6-5.6h-0.1c-0.5-3.3-3.6-5.5-6.9-4.9
		c-1.6,0.3-3.1,1.2-4,2.6c-0.9-0.5-2-0.7-3-0.7c-0.7,0-1.4,0.1-2,0.3V23c0-2.8-2.2-5-5-5h-2v-3c0-0.6-0.4-1-1-1h-3V9h3
		c0.6,0,1-0.4,1-1h6v3c0,0.6,0.4,1,1,1h4c0.6,0,1-0.4,1-1V6c0-2.2-1.8-4-4-4h-8c0-0.6-0.4-1-1-1H9C8.4,1,8,1.4,8,2v6
		c0,0.6,0.4,1,1,1h3v5H9c-0.6,0-1,0.4-1,1v3H6c-2.8,0-5,2.2-5,5v39c0,0.6,0.4,1,1,1h26c0.6,0,1-0.4,1-1V43.2l5.3,4.5
		c0.2,0.2,0.4,0.2,0.7,0.2h15.7l10.8,6.8c0.2,0.1,0.3,0.2,0.5,0.2c0.6,0,1-0.4,1-1V41C63,40.6,62.8,40.3,62.5,40.1z M30,4
		c1.1,0,2,0.9,2,2v4h-2V7c0-0.6-0.4-1-1-1h-7V4H30z M33.8,27.9c0.5,0.3,1.1,0.2,1.4-0.3c0-0.1,0.1-0.1,0.1-0.2c0.9-2,3.2-3,5.2-2.1
		c1.5,0.6,2.4,2,2.5,3.6c0,0.1,0,0.1,0,0.2c0,0.3,0.1,0.6,0.4,0.8c0.2,0.2,0.5,0.3,0.8,0.2C44.5,30,44.7,30,45,30
		c1.9,0,3.5,1.3,3.9,3.1C48.5,33,48,33,47.6,33h-0.3c-1,0-1.9,0.1-2.9,0.4l-7.1,2.1c-1.2,0.4-2.1,1.3-2.3,2.6l-7.7-6.3
		c-0.4-0.3-0.8-0.5-1.3-0.7c0.5-2.7,3-4.6,5.8-4.1C32.6,27.2,33.2,27.5,33.8,27.9z M10,3h10v4H10V3z M14,9h2v5h-2V9z M10,16h10v2H10
		V16z M6,20h18c1.7,0,3,1.3,3,3v3.3c-0.3,0.2-0.6,0.5-0.9,0.7H3v-4C3,21.3,4.3,20,6,20z M3,61v-6h24v6H3z M27,53H3V29h21.7
		c-0.3,0.7-0.5,1.4-0.6,2.1c-2,0.4-3.4,2.3-3,4.3c0.2,0.9,0.6,1.6,1.3,2.2l4.7,4V53z M61,52.2l-9.5-6C51.4,46.1,51.2,46,51,46H35.4
		L23.6,36c-0.4-0.3-0.6-0.8-0.6-1.3c0-1,0.8-1.7,1.7-1.7H25c0.4,0,0.8,0.1,1.1,0.4l10.2,8.4c0.2,0.2,0.4,0.2,0.7,0.2h8v-2h-6.7
		c-0.7,0-1.3-0.6-1.3-1.3l0,0c0-0.6,0.4-1.1,0.9-1.2l7.1-2.1c0.7-0.2,1.5-0.3,2.3-0.3h0.3c1.4,0,2.8,0.4,4,1.1l9.5,5.5V52.2z"/>
	<path d="M41,17c1.7,0,3-1.3,3-3s-1.3-3-3-3s-3,1.3-3,3S39.3,17,41,17z M41,13c0.6,0,1,0.4,1,1s-0.4,1-1,1s-1-0.4-1-1S40.4,13,41,13
		z"/>
	<path d="M51,27c2.2,0,4-1.8,4-4s-1.8-4-4-4s-4,1.8-4,4S48.8,27,51,27z M51,21c1.1,0,2,0.9,2,2s-0.9,2-2,2s-2-0.9-2-2S49.9,21,51,21
		z"/>
</g>
</svg>
