<?xml version="1.0" encoding="utf-8"?>
<!-- Generator: Adobe Illustrator 24.1.2, SVG Export Plug-In . SVG Version: 6.00 Build 0)  -->
<svg version="1.1" id="Слой_1" xmlns="http://www.w3.org/2000/svg" xmlns:xlink="http://www.w3.org/1999/xlink" x="0px" y="0px"
	 viewBox="0 0 512 512" style="enable-background:new 0 0 512 512;" xml:space="preserve">
<style type="text/css">
	.st0{fill:#8ED0EB;}
	.st1{fill:#37A2C7;}
	.st2{fill:#E84042;}
	.st3{fill:#2D80B7;}
	.st4{fill:#F2C233;}
</style>
<g id="Flat">
	<path class="st0" d="M184,176h144c22.1,0,40,17.9,40,40v240c0,22.1-17.9,40-40,40H184c-22.1,0-40-17.9-40-40V216
		C144,193.9,161.9,176,184,176z"/>
	<rect x="144" y="216" class="st1" width="224" height="240"/>
	<circle class="st0" cx="256" cy="336" r="88"/>
	<polygon class="st2" points="304,320 304,352 272,352 272,384 240,384 240,352 208,352 208,320 240,320 240,288 272,288 272,320 	
		"/>
	<rect x="216" y="144" class="st1" width="80" height="32"/>
	<rect x="232" y="104" class="st3" width="48" height="40"/>
	<rect x="184" y="24" class="st0" width="144" height="80"/>
	<path class="st1" d="M208,64c0,13.2-10.8,24-24,24V40C197.2,40,208,50.8,208,64z"/>
	<path class="st0" d="M112,80l15-15c10.9-10.9,25.6-17,41-17h16c8.8,0,16,7.2,16,16l0,0c0,8.8-7.2,16-16,16l0,0
		c-15.4,0-30.1,6.1-41,17l-7,7L112,80z"/>
	<rect x="224" y="56" class="st1" width="16" height="48"/>
	<rect x="256" y="56" class="st1" width="16" height="48"/>
	<rect x="288" y="56" class="st1" width="16" height="48"/>
	<path class="st0" d="M152,192c0,17.7-14.3,32-32,32s-32-14.3-32-32c0-13,17.4-41.6,26.5-55.8c3.3-5.1,5.5-8.3,5.5-8.3
		S152,174.3,152,192z"/>
	<path class="st4" d="M352,192L352,192c22.1,0,40-17.9,40-40l0,0c0,22.1,17.9,40,40,40l0,0c-22.1,0-40,17.9-40,40l0,0
		C392,209.9,374.1,192,352,192z"/>
	<path class="st4" d="M80,408L80,408c22.1,0,40-17.9,40-40l0,0c0,22.1,17.9,40,40,40l0,0c-22.1,0-40,17.9-40,40l0,0
		C120,425.9,102.1,408,80,408z"/>
	<path class="st1" d="M152,192c0,17.7-14.3,32-32,32c-8.1,0-15.8-3-21.7-8.5c17.4,3.2,34-8.3,37.2-25.7c0.3-1.9,0.5-3.8,0.5-5.8
		c0-10.9-12.1-32.6-21.5-47.8c3.3-5.1,5.5-8.3,5.5-8.3S152,174.3,152,192z"/>
</g>
</svg>
