<?xml version="1.0" encoding="utf-8"?>
<!-- Generator: Adobe Illustrator 24.1.2, SVG Export Plug-In . SVG Version: 6.00 Build 0)  -->
<svg version="1.1" id="Layer_3" xmlns="http://www.w3.org/2000/svg" xmlns:xlink="http://www.w3.org/1999/xlink" x="0px" y="0px"
	 viewBox="0 0 985.5 985.5" style="enable-background:new 0 0 985.5 985.5;" xml:space="preserve">
<style type="text/css">
	.st0{fill:#E0E1E2;}
	.st1{fill:#1682FC;}
	.st2{fill:#2E3A58;}
</style>
<rect x="442.7" y="644.3" transform="matrix(0.7071 -0.7071 0.7071 0.7071 -276.6318 667.786)" class="st0" width="450.1" height="47"/>
<path class="st1" d="M717.1,897.1c-4.4,0-8.9-0.2-13.3-0.5c-2.8-0.2-4.8-2.6-4.7-5.3s2.6-4.8,5.3-4.7c4.2,0.3,8.4,0.5,12.6,0.5
	c15.2,0,30.4-2.1,45.1-6.1c2.7-0.7,5.5,0.8,6.2,3.5s-0.8,5.5-3.5,6.2l0,0C749.3,894.9,733.2,897.1,717.1,897.1z M646.2,882.2
	c-0.7,0-1.4-0.2-2-0.5c-18.9-8.3-36.2-19.8-51.1-34.1c-2-1.8-2.1-4.9-0.3-6.9c0,0,0-0.1,0.1-0.1c1.9-2,5.1-2.1,7.1-0.2l0,0
	c14.1,13.4,30.4,24.3,48.2,32.2c2.5,1.1,3.7,4.1,2.6,6.6C649.9,881,648.2,882.1,646.2,882.2z M817.6,865.5c-1.6,0-3.2-0.8-4.1-2.2
	c-1.5-2.2-1-5.3,1.2-6.9c8.1-5.7,15.7-12,22.7-19c6.7-6.8,12.9-14.1,18.5-21.9c1.5-2.2,4.6-2.8,6.8-1.3c0,0,0.1,0,0.1,0.1
	c2.3,1.6,2.8,4.7,1.2,7l0,0c-5.8,8.3-12.4,16-19.6,23.1c-7.4,7.4-15.4,14.2-23.9,20.2C819.6,865.2,818.6,865.5,817.6,865.5z
	 M554.1,806.6c-1.3,0-2.6-0.5-3.6-1.4l-42.4-42.5c-1.9-1.9-1.9-5.1,0-7c1.9-2,5.1-2,7.1,0l0,0l42.4,42.4c2,1.9,2,5.1,0,7.1l0,0
	C556.6,806.1,555.4,806.6,554.1,806.6z M885.6,769.5l-1.3-0.2c-2.7-0.7-4.2-3.5-3.5-6.1c0,0,0,0,0-0.1c4.2-15,6.3-30.5,6.3-46
	c0-3.9-0.2-7.8-0.4-11.7c-0.2-2.8,1.9-5.2,4.7-5.3s5.2,1.9,5.3,4.7c0.2,4.1,0.4,8.3,0.4,12.4c0,16.5-2.3,32.8-6.7,48.7
	C889.8,768,887.9,769.5,885.6,769.5z M877.5,652.1c-2,0-3.7-1.2-4.5-3c-7.8-17.9-18.6-34.2-32-48.4c-1.9-2-1.8-5.2,0.2-7.1
	s5.2-1.8,7.1,0.2c14.1,15,25.6,32.4,33.8,51.3c1.1,2.5,0,5.4-2.5,6.5h-0.1C878.9,651.9,878.2,652.1,877.5,652.1z M802.3,559.7
	c-1.3,0.1-2.6-0.5-3.5-1.4l-42.5-42.4c-1.9-2-1.9-5.1,0-7.1s5.1-2,7.1,0l0,0l42.4,42.4c2,1.9,2,5.1,0,7.1l0,0
	C804.9,559.2,803.6,559.8,802.3,559.7L802.3,559.7z"/>
<path class="st1" d="M228.8,481.3c-1.3,0.1-2.6-0.5-3.5-1.4l-42.5-42.5c-1.9-1.9-1.9-5.1,0-7c1.9-2,5.1-2,7.1,0l0,0l42.4,42.4
	c2,1.9,2,5.1,0,7.1l0,0C231.4,480.8,230.1,481.4,228.8,481.3z M143.9,396.5c-1.3,0-2.6-0.6-3.5-1.5l-0.6-0.6
	c-14.4-14.3-26.2-31.1-35-49.4c-1.2-2.4-0.2-5.4,2.2-6.6h0.1c2.5-1.2,5.5-0.2,6.7,2.3l0,0c8.3,17.3,19.4,33,33,46.6l0.7,0.7
	c1.9,1.9,1.9,5.1,0,7C146.5,396,145.3,396.5,143.9,396.5z M93.1,290.4c-2.6,0-4.7-1.9-5-4.5c-0.7-6.2-1-12.5-1-18.8
	c0-14.3,1.7-28.5,5-42.4c0.6-2.7,3.3-4.4,6-3.7h0.1c2.7,0.6,4.3,3.3,3.7,6c-3.2,13.1-4.8,26.6-4.8,40.1c0,5.9,0.3,11.9,0.9,17.8
	c0.3,2.7-1.7,5.2-4.4,5.5L93.1,290.4L93.1,290.4z M468.1,225.5c-1.3,0-2.6-0.5-3.6-1.4l-42.4-42.5c-1.9-1.9-1.9-5.1,0-7
	c1.9-2,5.1-2,7.1,0l0,0l42.4,42.4c2,1.9,2,5.1,0,7.1l0,0C470.6,225,469.4,225.5,468.1,225.5L468.1,225.5z M120.7,176
	c-1,0-1.9-0.3-2.7-0.8c-2.3-1.5-3-4.6-1.5-6.9c6.8-10.3,14.6-19.8,23.3-28.5c5.8-5.9,12.1-11.4,18.7-16.3c2-1.9,5.1-1.9,7.1,0.1
	c1.9,2,1.9,5.1-0.1,7.1c-0.3,0.3-0.6,0.6-1,0.8c-6.2,4.8-12.1,9.9-17.7,15.4c-8.2,8.2-15.5,17.3-21.9,27
	C123.9,175.2,122.4,176,120.7,176z M383,140.9c-1.2,0-2.4-0.4-3.3-1.2c-14.6-12.9-31.3-23.2-49.4-30.5c-2.5-1.1-3.8-3.9-2.8-6.5
	c1.1-2.5,4-3.7,6.5-2.7c19.2,7.6,36.9,18.5,52.3,32.2c2,1.9,2.2,5,0.3,7.1C385.7,140.3,384.4,140.9,383,140.9z M214.6,105.1
	c-2.8,0.1-5-2.1-5.1-4.9c0-2.3,1.4-4.3,3.6-4.9c17.5-5.4,35.7-8.2,54-8.2h6.9c2.7,0.2,4.8,2.5,4.8,5.2c-0.1,2.8-2.4,4.9-5.2,4.8l0,0
	h-6.5c-17.3,0-34.5,2.6-51,7.8L214.6,105.1z"/>
<rect x="91.3" y="292.9" transform="matrix(0.7071 -0.7071 0.7071 0.7071 -131.0946 316.3497)" class="st0" width="450.1" height="47"/>
<path class="st0" d="M876.3,107.9L876.3,107.9c-7.9-7.8-16.2-15-25.1-21.6c65.5,88.1,58.3,213.3-21.6,293.2L379.5,829.6
	c-79.9,79.9-205.1,87.1-293.2,21.6c6.6,8.9,13.8,17.2,21.6,25.1l0,0c87.9,87.8,230.4,87.8,318.3,0l450.1-450.1
	C964.1,338.3,964.1,195.8,876.3,107.9z"/>
<path class="st2" d="M267.1,957.2C134.5,957.2,27,849.7,27.1,717c0-63.6,25.3-124.6,70.2-169.6L547.4,97.3
	c95.4-92.1,247.4-89.4,339.5,6c89.8,93,89.8,240.5,0,333.5L436.8,886.9C391.9,932.1,330.8,957.4,267.1,957.2z M717.1,57
	c-55.7-0.1-109.2,22.1-148.5,61.6l-450,450c-81.9,81.9-81.9,215.1,0,297c81.8,82,214.7,82.1,296.7,0.3c0.1-0.1,0.2-0.2,0.3-0.3
	l450-450c81.9-81.9,81.9-215.1,0-297C826.3,79,772.8,56.9,717.1,57L717.1,57z"/>
<path class="st1" d="M526.1,791.4c-4,0-7.8-1.6-10.6-4.4L197.2,468.7c-5.8-5.9-5.8-15.3,0-21.2l250.3-250.3c5.9-5.8,15.3-5.8,21.2,0
	L787,515.5c5.8,5.9,5.8,15.3,0,21.2L536.7,787C533.9,789.8,530.1,791.4,526.1,791.4z M229.1,458.1l297,297l229-229l-297-297
	L229.1,458.1z"/>
<path class="st2" d="M173.8,507.1c-4,0-7.8-1.6-10.6-4.4l-65.9-65.9c-92.1-95.4-89.4-247.4,6-339.5c93-89.8,240.5-89.8,333.5,0
	l65.9,65.9c5.9,5.8,5.9,15.2,0.1,21.1l-0.1,0.1L184.4,502.7C181.6,505.5,177.8,507.1,173.8,507.1z M267.1,57
	C151.1,56.9,57,150.9,57,266.9c0,55.8,22.1,109.3,61.6,148.7l55.2,55.3l297.1-297.1l-55.3-55.2C376.3,79.1,322.8,56.9,267.1,57z"/>
<path class="st2" d="M717.1,957.2c-63.7,0.2-124.8-25.2-169.7-70.3L481.5,821c-5.9-5.8-5.9-15.2-0.1-21.1l0.1-0.1l318.3-318.3
	c2.8-2.8,6.6-4.4,10.6-4.4s7.8,1.6,10.6,4.4l65.9,65.9c93.7,93.8,93.7,245.8-0.2,339.6C841.7,931.9,780.7,957.2,717.1,957.2z
	 M513.3,810.4l55.3,55.2c82,82,215,82,297,0s82-215,0-297l-55.2-55.3L513.3,810.4z"/>
<path class="st1" d="M265.7,897.1c-13.8,0-27.6-1.7-41.1-4.9c-2.6-0.7-4.3-3.3-3.7-6c0.6-2.6,3.2-4.3,5.8-3.7c0.1,0,0.1,0,0.2,0
	c12.7,3,25.7,4.6,38.8,4.6c6.4,0,12.8-0.4,19.1-1.1c2.8-0.3,5.2,1.7,5.5,4.5s-1.7,5.2-4.5,5.5C279.2,896.7,272.4,897.1,265.7,897.1z
	 M342.8,879.8c-2.8,0-5-2.3-4.9-5.1c0-1.9,1.1-3.6,2.8-4.4c17.3-8.2,33.1-19.3,46.6-32.9l0.7-0.7c1.9-1.9,5.1-1.9,7,0
	c2,1.9,2,5.1,0,7.1l0,0l-0.6,0.6c-14.3,14.4-31,26.2-49.4,34.9C344.3,879.7,343.6,879.8,342.8,879.8L342.8,879.8z M171,868.5
	c-1,0-1.9-0.3-2.7-0.8c-10.3-6.8-19.8-14.6-28.5-23.3c-5.9-5.8-11.4-12.1-16.3-18.7c-1.9-2-1.9-5.1,0.1-7.1c2-1.9,5.1-1.9,7.1,0.1
	c0.3,0.3,0.6,0.6,0.8,1c4.8,6.2,9.9,12.1,15.4,17.7c8.2,8.2,17.3,15.5,27,21.9c2.3,1.6,2.9,4.7,1.4,7
	C174.2,867.7,172.7,868.5,171,868.5L171,868.5z M433.9,802.8c-1.3,0-2.5-0.5-3.5-1.4c-2-1.9-2-5.1,0-7.1l0,0l42.4-42.4
	c1.9-2,5.1-2,7.1,0l0,0c1.9,1.9,1.9,5.1,0,7l-42.5,42.5C436.5,802.3,435.2,802.8,433.9,802.8L433.9,802.8z M100.1,774.6
	c-2.2,0-4.1-1.4-4.8-3.5c-5.4-17.5-8.2-35.7-8.2-54c0-2.3,0.1-4.6,0.1-6.9c0.2-2.7,2.5-4.8,5.2-4.8c2.8,0.1,4.9,2.4,4.8,5.2l0,0
	c0,2.2-0.1,4.4-0.1,6.5c0,17.3,2.6,34.5,7.8,51c0.8,2.6-0.7,5.4-3.3,6.3L100.1,774.6z M104.6,657l-1.9-0.3c-2.5-1.1-3.7-4-2.7-6.5
	c7.6-19.2,18.5-36.9,32.2-52.3c1.7-2,4.7-2.3,6.8-0.6c0.1,0.1,0.2,0.1,0.2,0.2c2.1,1.7,2.3,4.8,0.6,6.9l-0.1,0.1
	c-12.9,14.6-23.2,31.3-30.5,49.4C108.5,655.8,106.6,657,104.6,657z M178.1,563.5c-1.3,0.1-2.6-0.5-3.5-1.4c-2-1.9-2-5.1,0-7.1l0,0
	l42.4-42.4c1.9-2,5.1-2,7.1,0l0,0c1.9,2,1.9,5.1,0,7.1l-42.5,42.4C180.7,563,179.4,563.6,178.1,563.5z"/>
<path class="st1" d="M759.2,477.5c-1.3,0.1-2.6-0.5-3.5-1.4c-2-1.9-2-5.1,0-7.1l0,0l42.4-42.4c1.9-2,5.1-2,7.1,0l0,0
	c1.9,2,1.9,5.1,0,7.1l-42.5,42.4C761.8,477,760.5,477.6,759.2,477.5z M844,392.7c-1.3,0-2.5-0.5-3.4-1.4c-2-1.9-2.1-5.1-0.2-7.1l0,0
	c13.4-14.1,24.3-30.4,32.2-48.2c0.8-2.6,3.6-4.1,6.3-3.3c2.6,0.8,4.1,3.6,3.3,6.3c-0.1,0.3-0.3,0.7-0.4,1
	c-8.3,18.9-19.8,36.2-34.1,51.1C846.7,392.1,845.4,392.7,844,392.7L844,392.7z M891.6,285.1h-0.4c-2.8-0.2-4.8-2.6-4.6-5.4l0,0
	c0.3-4.2,0.5-8.4,0.5-12.6c0-15.2-2.1-30.4-6.1-45.1c-0.7-2.7,0.8-5.5,3.5-6.2s5.5,0.8,6.2,3.5l0,0c4.2,15.6,6.4,31.7,6.4,47.8
	c0,4.4-0.2,8.9-0.5,13.3C896.4,283,894.2,285.1,891.6,285.1z M512.3,229.3c-1.3,0-2.5-0.5-3.5-1.4c-2-1.9-2-5.1,0-7.1l0,0l42.4-42.4
	c1.9-2,5.1-2,7.1,0l0,0c1.9,1.9,1.9,5.1,0,7l-42.4,42.5C514.9,228.8,513.6,229.3,512.3,229.3z M860.5,171.6c-1.6,0-3.2-0.8-4.1-2.1
	c-5.6-8.1-12-15.7-19-22.7c-6.8-6.7-14.1-12.9-21.9-18.5c-2.3-1.6-2.8-4.7-1.2-7l0,0c1.7-2.2,4.8-2.7,7-1.1
	c8.3,5.8,16,12.4,23.1,19.6c7.4,7.4,14.2,15.4,20.2,23.9c1.6,2.3,1,5.4-1.2,7c0,0,0,0-0.1,0C862.5,171.3,861.5,171.6,860.5,171.6
	L860.5,171.6z M597.2,144.5c-2.8,0-5-2.3-4.9-5.1c0-1.3,0.6-2.6,1.5-3.5c15-14.1,32.4-25.5,51.3-33.7c2.4-1.4,5.4-0.6,6.8,1.8
	c1.4,2.4,0.6,5.4-1.8,6.8c-0.3,0.2-0.7,0.3-1,0.4c-17.9,7.8-34.2,18.5-48.4,31.9C599.7,144.1,598.5,144.5,597.2,144.5L597.2,144.5z
	 M764.5,103.5l-1.3-0.2c-14.5-4.1-29.6-6.2-44.7-6.2c-4.3,0-8.7,0.2-13,0.5c-2.8,0.2-5.2-1.9-5.3-4.7s1.9-5.2,4.7-5.3
	c4.5-0.3,9.1-0.5,13.7-0.5c16,0,32,2.2,47.4,6.5c2.7,0.8,4.2,3.5,3.5,6.2C768.7,102,766.8,103.5,764.5,103.5L764.5,103.5z"/>
<polygon class="st1" points="528.5,455.7 528.5,382.8 455.7,382.8 455.7,455.7 382.8,455.7 382.8,528.5 455.7,528.5 455.7,601.4 
	528.5,601.4 528.5,528.5 601.4,528.5 601.4,455.7 "/>
</svg>
