<?xml version="1.0" ?><svg data-name="Layer 1" id="Layer_1" viewBox="0 0 64 64" xmlns="http://www.w3.org/2000/svg"><defs><style>.cls-1{fill:#f2f2f2;}.cls-2{fill:#009245;}.cls-3{opacity:0.5;}.cls-4{fill:#006e34;}.cls-5{fill:none;stroke:#b3b3b3;stroke-linecap:round;stroke-linejoin:round;stroke-width:2px;}</style></defs><title/><g data-name="&lt;Group&gt;" id="_Group_"><path class="cls-1" d="M52.86,10.39l.3,2.61h-4l.29-2.61a1.74,1.74,0,0,1,3.42,0Z"/><path class="cls-1" d="M53.49,18.81c0,.31.07.63.11.94A10.11,10.11,0,0,1,53.72,21a2.49,2.49,0,0,1-.85,1.83,2.55,2.55,0,0,1-4.27-2.14c0-.39.09-.78.14-1.18l.12-1c.07-.62.14-1.25.22-1.87,0,0,.06-.59.07-.59h4c0,.3.07.6.1.91C53.34,17.54,53.41,18.18,53.49,18.81Z"/><path class="cls-1" d="M44.87,18.81c0,.31.07.63.11.94A10.11,10.11,0,0,1,45.1,21a2.52,2.52,0,0,1-.84,1.83,2.58,2.58,0,0,1-3.56-.11,2.41,2.41,0,0,1-.55-.83,2.58,2.58,0,0,1-.17-1.2c0-.39.09-.78.14-1.18l.12-1c.07-.62.15-1.25.22-1.87,0,0,.06-.59.07-.59h4c0,.3.07.6.11.91C44.72,17.54,44.8,18.18,44.87,18.81Z"/><path class="cls-1" d="M44.25,10.39,44.54,13h-4l.29-2.61a1.75,1.75,0,0,1,3.43,0Z"/><path class="cls-1" d="M23.88,44.53l-.12,1c-.07.62-.15,1.25-.22,1.87,0,0-.06.59-.07.59h-4c0-.3-.07-.6-.11-.91-.07-.63-.15-1.27-.22-1.9,0-.31-.07-.63-.11-.94A10.11,10.11,0,0,1,18.9,43a2.52,2.52,0,0,1,.84-1.83,2.58,2.58,0,0,1,3.56.11,2.41,2.41,0,0,1,.55.83,2.58,2.58,0,0,1,.17,1.2C24,43.74,23.93,44.13,23.88,44.53Z"/><path class="cls-1" d="M23.47,51l-.29,2.61a1.75,1.75,0,0,1-3.43,0L19.46,51Z"/><path class="cls-1" d="M14.85,51l-.29,2.61a1.74,1.74,0,0,1-3.42,0L10.84,51Z"/><path class="cls-1" d="M15.26,44.53l-.12,1c-.07.62-.14,1.25-.22,1.87,0,0-.06.59-.07.59h-4c0-.3-.07-.6-.1-.91-.08-.63-.15-1.27-.23-1.9,0-.31-.07-.63-.11-.94A10.11,10.11,0,0,1,10.28,43a2.49,2.49,0,0,1,.85-1.83,2.55,2.55,0,0,1,4.27,2.14C15.37,43.74,15.31,44.13,15.26,44.53Z"/><path class="cls-2" d="M44.54,16h-4s-.07.56-.07.59c-.07.62-.15,1.25-.22,1.87l-.12,1c0,.4-.11.79-.14,1.18a2.58,2.58,0,0,0,.17,1.2,2.41,2.41,0,0,0,.55.83,2.58,2.58,0,0,0,3.56.11A2.52,2.52,0,0,0,45.1,21,10.11,10.11,0,0,0,45,19.75c0-.31-.07-.63-.11-.94-.07-.63-.15-1.27-.22-1.9C44.61,16.6,44.57,16.3,44.54,16Zm0-3-.29-2.61a1.75,1.75,0,0,0-3.43,0L40.53,13Zm8.62,3h-4s-.07.56-.07.59c-.08.62-.15,1.25-.22,1.87l-.12,1c-.05.4-.11.79-.14,1.18a2.56,2.56,0,0,0,4.27,2.14A2.49,2.49,0,0,0,53.72,21a10.11,10.11,0,0,0-.12-1.21c0-.31-.08-.63-.11-.94-.08-.63-.15-1.27-.23-1.9C53.23,16.6,53.19,16.3,53.16,16Zm0-3-.3-2.61a1.74,1.74,0,0,0-3.42,0L49.15,13ZM47,4A12,12,0,1,1,35,16,12,12,0,0,1,47,4Z"/><g class="cls-3"><path class="cls-4" d="M39.46,16.59c-.07.62-.15,1.25-.22,1.87l-.12,1c0,.4-.11.79-.14,1.18a2.58,2.58,0,0,0,.17,1.2,2.41,2.41,0,0,0,.55.83A2.54,2.54,0,0,0,42,23.4a2.58,2.58,0,0,1-1.33-.72,2.41,2.41,0,0,1-.55-.83,2.58,2.58,0,0,1-.17-1.2c0-.39.09-.78.14-1.18l.12-1c.07-.62.15-1.25.22-1.87,0,0,.06-.59.07-.59h-1S39.46,16.56,39.46,16.59Z"/><path class="cls-4" d="M39.82,10.39,39.53,13h1l.29-2.61A1.73,1.73,0,0,1,42,9.08a1.7,1.7,0,0,0-2.21,1.31Z"/><path class="cls-4" d="M48.08,16.59c-.08.62-.15,1.25-.22,1.87l-.12,1c0,.4-.11.79-.14,1.18a2.56,2.56,0,0,0,2.55,2.8,2.52,2.52,0,0,0,.49-.05,2.51,2.51,0,0,1-2-2.75c0-.39.09-.78.14-1.18l.12-1c.07-.62.14-1.25.22-1.87,0,0,.06-.59.07-.59h-1S48.08,16.56,48.08,16.59Z"/><path class="cls-4" d="M48.44,10.39,48.15,13h1l.29-2.61a1.73,1.73,0,0,1,1.21-1.31,1.72,1.72,0,0,0-.5-.09A1.75,1.75,0,0,0,48.44,10.39Z"/></g><g class="cls-3"><path class="cls-4" d="M38,16A12,12,0,0,1,48.5,4.1a12,12,0,1,0,0,23.79A12,12,0,0,1,38,16Z"/></g><path class="cls-2" d="M14.85,51h-4l.3,2.61a1.74,1.74,0,0,0,3.42,0Zm0-3s.07-.56.07-.59c.08-.62.15-1.25.22-1.87l.12-1c.05-.4.11-.79.14-1.18a2.56,2.56,0,0,0-4.27-2.14A2.49,2.49,0,0,0,10.28,43a10.11,10.11,0,0,0,.12,1.21c0,.31.08.63.11.94.08.63.15,1.27.23,1.9,0,.31.07.61.1.91Zm8.62,3h-4l.29,2.61a1.75,1.75,0,0,0,3.43,0Zm0-3s.07-.56.07-.59c.07-.62.15-1.25.22-1.87l.12-1c.05-.4.11-.79.14-1.18a2.58,2.58,0,0,0-.17-1.2,2.41,2.41,0,0,0-.55-.83,2.58,2.58,0,0,0-3.56-.11A2.52,2.52,0,0,0,18.9,43,10.11,10.11,0,0,0,19,44.25c0,.31.07.63.11.94.07.63.15,1.27.22,1.9,0,.31.08.61.11.91ZM17,36A12,12,0,1,1,5,48,12,12,0,0,1,17,36Z"/><g class="cls-3"><path class="cls-4" d="M10.13,41.21A2.49,2.49,0,0,0,9.28,43a10.1,10.1,0,0,0,.12,1.21c0,.31.08.63.11.94.08.63.15,1.27.23,1.9,0,.31.07.61.1.91h1c0-.3-.07-.6-.1-.91-.08-.63-.15-1.27-.23-1.9,0-.31-.07-.63-.11-.94A10.1,10.1,0,0,1,10.28,43a2.49,2.49,0,0,1,.85-1.83,2.61,2.61,0,0,1,1.23-.61,2.53,2.53,0,0,0-.51-.05A2.6,2.6,0,0,0,10.13,41.21Z"/><path class="cls-4" d="M10.14,53.61A1.75,1.75,0,0,0,11.85,55a1.72,1.72,0,0,0,.5-.09,1.73,1.73,0,0,1-1.21-1.31L10.84,51h-1Z"/><path class="cls-4" d="M18.74,41.21A2.52,2.52,0,0,0,17.9,43,10.1,10.1,0,0,0,18,44.25c0,.31.07.63.11.94.07.63.15,1.27.22,1.9,0,.31.08.61.11.91h1c0-.3-.07-.6-.11-.91-.07-.63-.15-1.27-.22-1.9,0-.31-.07-.63-.11-.94A10.1,10.1,0,0,1,18.9,43a2.52,2.52,0,0,1,.84-1.83A2.61,2.61,0,0,1,21,40.6a2.52,2.52,0,0,0-.5-.05A2.61,2.61,0,0,0,18.74,41.21Z"/><path class="cls-4" d="M18.75,53.61A1.76,1.76,0,0,0,20.47,55a1.72,1.72,0,0,0,.5-.09,1.75,1.75,0,0,1-1.22-1.31L19.46,51h-1Z"/></g><g class="cls-3"><path class="cls-4" d="M8,48A12,12,0,0,1,18.5,36.1a12,12,0,1,0,0,23.79A12,12,0,0,1,8,48Z"/></g><line class="cls-5" x1="2" x2="2" y1="4" y2="60"/><line class="cls-5" x1="62" x2="62" y1="4" y2="60"/><line class="cls-5" x1="32" x2="32" y1="4" y2="60"/><path class="cls-5" d="M6,32H28"/><path class="cls-5" d="M36,32H58"/></g></svg>