<?xml version="1.0" ?><svg data-name="Layer 1" id="Layer_1" viewBox="0 0 64 64" xmlns="http://www.w3.org/2000/svg"><defs><style>.cls-1{fill:#a381bd;}.cls-2{fill:#fcc062;}.cls-3{fill:#bd904a;}.cls-10,.cls-11,.cls-3,.cls-7,.cls-9{opacity:0.5;}.cls-4{fill:#846b5b;}.cls-5{fill:#fbe1ce;}.cls-6{fill:#f2f2f2;}.cls-8{fill:#635044;}.cls-9{fill:#bca99b;}.cls-10{fill:#7a618e;}.cls-11{fill:#b5b5b5;}.cls-12,.cls-13{fill:none;stroke-linecap:round;stroke-linejoin:round;stroke-width:2px;}.cls-12{stroke:#b3b3b3;}.cls-13{stroke:#cd5257;}</style></defs><title/><g data-name="&lt;Group&gt;" id="_Group_"><path class="cls-1" d="M56,33.23A1.46,1.46,0,0,1,54.55,35H49.48a1.46,1.46,0,0,1-1.42-1.81l.37-1.72h0l.69-3.2a1.45,1.45,0,0,1,1.42-1.15h2.9a1.47,1.47,0,0,1,1.43,1.15l.72,3.23Z"/><path class="cls-2" d="M13,33.23A1.46,1.46,0,0,1,11.55,35H6.48A1.46,1.46,0,0,1,5.06,33.2l.37-1.72h0l.69-3.2a1.45,1.45,0,0,1,1.42-1.15h2.9a1.47,1.47,0,0,1,1.43,1.15l.72,3.23Z"/><path class="cls-3" d="M6,33.21l.37-1.72h0l.69-3.21a1.45,1.45,0,0,1,1.37-1.14H7.55a1.45,1.45,0,0,0-1.42,1.15l-.69,3.2h0L5.06,33.2A1.46,1.46,0,0,0,6.48,35h.91A1.46,1.46,0,0,1,6,33.21Z"/><path class="cls-4" d="M58.15,20.55c.88,6.17,1.47,8.78-.29,10l-2.26,1-.72-3.23a1.47,1.47,0,0,0-1.43-1.15h-2.9a1.45,1.45,0,0,0-1.42,1.15l-.69,3.2h0l-2.27-.94c-1.76-1.2-1.17-3.81-.29-10S52,14.67,52,14.67,57.27,14.37,58.15,20.55Zm-5.52,5.27a3.74,3.74,0,0,0,3.74-3.75v-1a.53.53,0,0,0-.53-.54H48.16a.53.53,0,0,0-.53.54v1a3.74,3.74,0,0,0,3.74,3.75Z"/><path class="cls-5" d="M56.37,22.07a3.74,3.74,0,0,1-3.74,3.75H51.37a3.74,3.74,0,0,1-3.74-3.75v-1a.53.53,0,0,1,.53-.54h7.68a.53.53,0,0,1,.53.54Z"/><path class="cls-5" d="M54.62,35v5.87A1.14,1.14,0,0,1,53.5,42h-.38A1.13,1.13,0,0,1,52,40.88V35h2.62Z"/><path class="cls-5" d="M52,35v5.87A1.13,1.13,0,0,1,50.88,42H50.5a1.14,1.14,0,0,1-1.13-1.13V35H52Z"/><path class="cls-6" d="M35.57,40.76A14.75,14.75,0,0,0,32,40.34c-4.42,0-8,1.79-8,4,0,1.57,1.8,2.92,4.42,3.57a14.34,14.34,0,0,0,3.58.43c4.42,0,8-1.79,8-4C40,42.77,38.2,41.41,35.57,40.76Z"/><path class="cls-4" d="M15.15,20.55c.88,6.17,1.47,8.78-.29,10l-2.26,1-.72-3.23a1.47,1.47,0,0,0-1.43-1.15H7.55a1.45,1.45,0,0,0-1.42,1.15l-.69,3.2h0l-2.27-.94c-1.76-1.2-1.17-3.81-.29-10S9,14.67,9,14.67,14.27,14.37,15.15,20.55ZM9.63,25.82a3.74,3.74,0,0,0,3.74-3.75v-1a.53.53,0,0,0-.53-.54H5.16a.53.53,0,0,0-.53.54v1a3.74,3.74,0,0,0,3.74,3.75Z"/><g class="cls-7"><path class="cls-8" d="M5.32,24.23a3.7,3.7,0,0,1-.69-2.16v-1a.53.53,0,0,1,.53-.54h.69v0c.58-4,3-5.3,4.65-5.7A5.86,5.86,0,0,0,9,14.67s-5.27-.3-6.15,5.88-1.47,8.78.29,10l2.27.94h0l.28-1.32C4.8,29.16,4.88,27.41,5.32,24.23Z"/></g><path class="cls-5" d="M13.37,22.07a3.74,3.74,0,0,1-3.74,3.75H8.37a3.74,3.74,0,0,1-3.74-3.75v-1a.53.53,0,0,1,.53-.54h7.68a.53.53,0,0,1,.53.54Z"/><path class="cls-5" d="M11.62,35v5.87A1.14,1.14,0,0,1,10.5,42h-.38A1.13,1.13,0,0,1,9,40.88V35h2.62Z"/><path class="cls-9" d="M10,40.88V35H9v5.87A1.13,1.13,0,0,0,10.12,42h.38a1.09,1.09,0,0,0,.31-.06A1.12,1.12,0,0,1,10,40.88Z"/><path class="cls-5" d="M9,35v5.87A1.13,1.13,0,0,1,7.88,42H7.5a1.14,1.14,0,0,1-1.13-1.13V35H9Z"/><path class="cls-9" d="M7.37,40.88V35h-1v5.87A1.14,1.14,0,0,0,7.5,42h.38a1.07,1.07,0,0,0,.31-.06A1.12,1.12,0,0,1,7.37,40.88Z"/><path class="cls-1" d="M56,33.23A1.46,1.46,0,0,1,54.55,35H49.48a1.46,1.46,0,0,1-1.42-1.81l.37-1.72h0l.69-3.2a1.45,1.45,0,0,1,1.42-1.15h2.9a1.47,1.47,0,0,1,1.43,1.15l.72,3.23Z"/><path class="cls-10" d="M49.06,33.2l.37-1.72h0l.69-3.2a1.45,1.45,0,0,1,1.42-1.15h-1a1.45,1.45,0,0,0-1.42,1.15l-.69,3.2h0l-.37,1.72A1.46,1.46,0,0,0,49.48,35h1A1.46,1.46,0,0,1,49.06,33.2Z"/><path class="cls-2" d="M13,33.23A1.46,1.46,0,0,1,11.55,35H6.48A1.46,1.46,0,0,1,5.06,33.2l.37-1.72h0l.69-3.2a1.45,1.45,0,0,1,1.42-1.15h2.9a1.47,1.47,0,0,1,1.43,1.15l.72,3.23Z"/><path class="cls-3" d="M6,33.21l.37-1.72h0l.69-3.21a1.45,1.45,0,0,1,1.37-1.14H7.55a1.45,1.45,0,0,0-1.42,1.15l-.69,3.2h0L5.06,33.2A1.46,1.46,0,0,0,6.48,35h.91A1.46,1.46,0,0,1,6,33.21Z"/><path class="cls-4" d="M58.15,20.55c.88,6.17,1.47,8.78-.29,10l-2.26,1-.72-3.23a1.47,1.47,0,0,0-1.43-1.15h-2.9a1.45,1.45,0,0,0-1.42,1.15l-.69,3.2h0l-2.27-.94c-1.76-1.2-1.17-3.81-.29-10S52,14.67,52,14.67,57.27,14.37,58.15,20.55Zm-5.52,5.27a3.74,3.74,0,0,0,3.74-3.75v-1a.53.53,0,0,0-.53-.54H48.16a.53.53,0,0,0-.53.54v1a3.74,3.74,0,0,0,3.74,3.75Z"/><g class="cls-7"><path class="cls-8" d="M48.32,24.23a3.7,3.7,0,0,1-.69-2.16v-1a.53.53,0,0,1,.53-.54h.69v0c.58-4,3-5.3,4.65-5.7a5.86,5.86,0,0,0-1.5-.18s-5.27-.3-6.15,5.88-1.47,8.78.29,10l2.27.94h0l.28-1.32C47.8,29.16,47.88,27.41,48.32,24.23Z"/></g><path class="cls-5" d="M56.37,22.07a3.74,3.74,0,0,1-3.74,3.75H51.37a3.74,3.74,0,0,1-3.74-3.75v-1a.53.53,0,0,1,.53-.54h7.68a.53.53,0,0,1,.53.54Z"/><path class="cls-5" d="M54.62,35v5.87A1.14,1.14,0,0,1,53.5,42h-.38A1.13,1.13,0,0,1,52,40.88V35h2.62Z"/><path class="cls-9" d="M53,40.88V35H52v5.87A1.13,1.13,0,0,0,53.12,42h.38a1.09,1.09,0,0,0,.31-.06A1.12,1.12,0,0,1,53,40.88Z"/><path class="cls-5" d="M52,35v5.87A1.13,1.13,0,0,1,50.88,42H50.5a1.14,1.14,0,0,1-1.13-1.13V35H52Z"/><path class="cls-9" d="M50.37,40.88V35h-1v5.87A1.14,1.14,0,0,0,50.5,42h.38a1.07,1.07,0,0,0,.31-.06A1.12,1.12,0,0,1,50.37,40.88Z"/><path class="cls-6" d="M35.57,40.76A14.75,14.75,0,0,0,32,40.34c-4.42,0-8,1.79-8,4,0,1.57,1.8,2.92,4.42,3.57a14.34,14.34,0,0,0,3.58.43c4.42,0,8-1.79,8-4C40,42.77,38.2,41.41,35.57,40.76Z"/><path class="cls-11" d="M32.42,47.91c-2.62-.65-4.42-2-4.42-3.57,0-1.86,2.55-3.42,6-3.87a15.62,15.62,0,0,0-2-.13c-4.42,0-8,1.79-8,4,0,1.57,1.8,2.92,4.42,3.57a14.34,14.34,0,0,0,3.58.43,15.63,15.63,0,0,0,2-.13A13.12,13.12,0,0,1,32.42,47.91Z"/><path class="cls-4" d="M15.15,20.55c.88,6.17,1.47,8.78-.29,10l-2.26,1-.72-3.23a1.47,1.47,0,0,0-1.43-1.15H7.55a1.45,1.45,0,0,0-1.42,1.15l-.69,3.2h0l-2.27-.94c-1.76-1.2-1.17-3.81-.29-10S9,14.67,9,14.67,14.27,14.37,15.15,20.55ZM9.63,25.82a3.74,3.74,0,0,0,3.74-3.75v-1a.53.53,0,0,0-.53-.54H5.16a.53.53,0,0,0-.53.54v1a3.74,3.74,0,0,0,3.74,3.75Z"/><g class="cls-7"><path class="cls-8" d="M5.32,24.23a3.7,3.7,0,0,1-.69-2.16v-1a.53.53,0,0,1,.53-.54h.69v0c.58-4,3-5.3,4.65-5.7A5.86,5.86,0,0,0,9,14.67s-5.27-.3-6.15,5.88-1.47,8.78.29,10l2.27.94h0l.28-1.32C4.8,29.16,4.88,27.41,5.32,24.23Z"/></g><path class="cls-5" d="M13.37,22.07a3.74,3.74,0,0,1-3.74,3.75H8.37a3.74,3.74,0,0,1-3.74-3.75v-1a.53.53,0,0,1,.53-.54h7.68a.53.53,0,0,1,.53.54Z"/><path class="cls-5" d="M11.62,35v5.87A1.14,1.14,0,0,1,10.5,42h-.38A1.13,1.13,0,0,1,9,40.88V35h2.62Z"/><path class="cls-9" d="M10,40.88V35H9v5.87A1.13,1.13,0,0,0,10.12,42h.38a1.09,1.09,0,0,0,.31-.06A1.12,1.12,0,0,1,10,40.88Z"/><path class="cls-5" d="M9,35v5.87A1.13,1.13,0,0,1,7.88,42H7.5a1.14,1.14,0,0,1-1.13-1.13V35H9Z"/><path class="cls-9" d="M7.37,40.88V35h-1v5.87A1.14,1.14,0,0,0,7.5,42h.38a1.07,1.07,0,0,0,.31-.06A1.12,1.12,0,0,1,7.37,40.88Z"/><line class="cls-12" x1="7" x2="18" y1="49.34" y2="38.34"/><line class="cls-12" x1="50.5" x2="61.25" y1="49.34" y2="38.59"/><polyline class="cls-13" points="24 44.34 32 44.34 40 44.34"/><path class="cls-13" d="M28.42,47.91,32,44.34l3.57-3.58,0,0"/></g></svg>