<?xml version="1.0" ?><svg id="chair" viewBox="0 0 64 64" xmlns="http://www.w3.org/2000/svg"><circle cx="32" cy="14" r="8" style="fill:#fffffb"/><circle cx="32" cy="14" r="8" style="fill:none;stroke:#e01637;stroke-linecap:round;stroke-linejoin:round;stroke-width:2px"/><line style="fill:none;stroke:#0a1c28;stroke-linejoin:round;stroke-width:2px" x1="29" x2="35" y1="11" y2="17"/><line style="fill:none;stroke:#0a1c28;stroke-linejoin:round;stroke-width:2px" x1="35" x2="29" y1="11" y2="17"/><circle cx="12" cy="14" r="8" style="fill:#fffffb"/><circle cx="12" cy="14" r="8" style="fill:none;stroke:#e01637;stroke-miterlimit:10;stroke-width:2px"/><polyline points="20 8 11 17 8 14" style="fill:none;stroke:#00ad83;stroke-linejoin:round;stroke-width:2px"/><circle cx="51" cy="14" r="8" style="fill:#fffffb"/><circle cx="51" cy="14" r="8" style="fill:none;stroke:#e01637;stroke-miterlimit:10;stroke-width:2px"/><polyline points="59 8 50 17 47 14" style="fill:none;stroke:#00ad83;stroke-linejoin:round;stroke-width:2px"/><line style="fill:none;stroke:#0a1c28;stroke-linejoin:round;stroke-width:2px" x1="6" x2="6" y1="49" y2="59"/><line style="fill:none;stroke:#0a1c28;stroke-linejoin:round;stroke-width:2px" x1="18" x2="18" y1="49" y2="59"/><line style="fill:none;stroke:#0a1c28;stroke-linejoin:round;stroke-width:2px" x1="7" x2="7" y1="41" y2="47"/><line style="fill:none;stroke:#0a1c28;stroke-linejoin:round;stroke-width:2px" x1="17" x2="17" y1="41" y2="47"/><path d="M21,48a2,2,0,0,1-2,2H5a2,2,0,0,1-2-2,2,2,0,0,1,2-2H19a2,2,0,0,1,2,2Z" style="fill:#008262"/><path d="M5,46h7.27a19.86,19.86,0,0,1-5.54,4H5a2,2,0,0,1-2-2A2,2,0,0,1,5,46Z" style="fill:#00ad83"/><path d="M19,42H5l.69-12.64A3.52,3.52,0,0,1,9.19,26h5.62a1.27,1.27,0,0,1,.28,0,3.51,3.51,0,0,1,3.22,3.34Z" style="fill:#008262"/><path d="M16,32a19.84,19.84,0,0,1-2.69,10H5l.69-12.64A3.52,3.52,0,0,1,9.19,26h5.62a1.27,1.27,0,0,1,.28,0A20,20,0,0,1,16,32Z" style="fill:#00ad83"/><path d="M21,48a2,2,0,0,1-2,2H5a2,2,0,0,1-2-2,2,2,0,0,1,2-2H19a2,2,0,0,1,2,2Z" style="fill:none;stroke:#0a1c28;stroke-linejoin:round;stroke-width:2px"/><path d="M19,42H5l.69-12.64A3.52,3.52,0,0,1,9.19,26h5.62a1.27,1.27,0,0,1,.28,0,3.51,3.51,0,0,1,3.22,3.34Z" style="fill:none;stroke:#0a1c28;stroke-linejoin:round;stroke-width:2px"/><line style="fill:none;stroke:#0a1c28;stroke-linejoin:round;stroke-width:2px" x1="26" x2="26" y1="49" y2="59"/><line style="fill:none;stroke:#0a1c28;stroke-linejoin:round;stroke-width:2px" x1="38" x2="38" y1="49" y2="59"/><line style="fill:none;stroke:#0a1c28;stroke-linejoin:round;stroke-width:2px" x1="27" x2="27" y1="41" y2="47"/><line style="fill:none;stroke:#0a1c28;stroke-linejoin:round;stroke-width:2px" x1="37" x2="37" y1="41" y2="47"/><path d="M41,48a2,2,0,0,1-2,2H25a2,2,0,0,1-2-2,2,2,0,0,1,2-2H39a2,2,0,0,1,2,2Z" style="fill:#107aa8"/><path d="M25,46h7.27a19.86,19.86,0,0,1-5.54,4H25a2,2,0,0,1-2-2A2,2,0,0,1,25,46Z" style="fill:#16a3e0"/><path d="M39,42H25l.69-12.64A3.52,3.52,0,0,1,29.19,26h5.62a1.27,1.27,0,0,1,.28,0,3.51,3.51,0,0,1,3.22,3.34Z" style="fill:#107aa8"/><path d="M36,32a19.84,19.84,0,0,1-2.69,10H25l.69-12.64A3.52,3.52,0,0,1,29.19,26h5.62a1.27,1.27,0,0,1,.28,0A20,20,0,0,1,36,32Z" style="fill:#16a3e0"/><path d="M41,48a2,2,0,0,1-2,2H25a2,2,0,0,1-2-2,2,2,0,0,1,2-2H39a2,2,0,0,1,2,2Z" style="fill:none;stroke:#0a1c28;stroke-linejoin:round;stroke-width:2px"/><path d="M39,42H25l.69-12.64A3.52,3.52,0,0,1,29.19,26h5.62a1.27,1.27,0,0,1,.28,0,3.51,3.51,0,0,1,3.22,3.34Z" style="fill:none;stroke:#0a1c28;stroke-linejoin:round;stroke-width:2px"/><line style="fill:none;stroke:#0a1c28;stroke-linejoin:round;stroke-width:2px" x1="46" x2="46" y1="49" y2="59"/><line style="fill:none;stroke:#0a1c28;stroke-linejoin:round;stroke-width:2px" x1="58" x2="58" y1="49" y2="59"/><line style="fill:none;stroke:#0a1c28;stroke-linejoin:round;stroke-width:2px" x1="47" x2="47" y1="41" y2="47"/><line style="fill:none;stroke:#0a1c28;stroke-linejoin:round;stroke-width:2px" x1="57" x2="57" y1="41" y2="47"/><path d="M61,48a2,2,0,0,1-2,2H45a2,2,0,0,1-2-2,2,2,0,0,1,2-2H59a2,2,0,0,1,2,2Z" style="fill:#008262"/><path d="M45,46h7.27a19.86,19.86,0,0,1-5.54,4H45a2,2,0,0,1-2-2A2,2,0,0,1,45,46Z" style="fill:#00ad83"/><path d="M59,42H45l.69-12.64A3.52,3.52,0,0,1,49.19,26h5.62a1.27,1.27,0,0,1,.28,0,3.51,3.51,0,0,1,3.22,3.34Z" style="fill:#008262"/><path d="M56,32a19.84,19.84,0,0,1-2.69,10H45l.69-12.64A3.52,3.52,0,0,1,49.19,26h5.62a1.27,1.27,0,0,1,.28,0A20,20,0,0,1,56,32Z" style="fill:#00ad83"/><path d="M61,48a2,2,0,0,1-2,2H45a2,2,0,0,1-2-2,2,2,0,0,1,2-2H59a2,2,0,0,1,2,2Z" style="fill:none;stroke:#0a1c28;stroke-linejoin:round;stroke-width:2px"/><path d="M59,42H45l.69-12.64A3.52,3.52,0,0,1,49.19,26h5.62a1.27,1.27,0,0,1,.28,0,3.51,3.51,0,0,1,3.22,3.34Z" style="fill:none;stroke:#0a1c28;stroke-linejoin:round;stroke-width:2px"/></svg>