<?xml version="1.0" encoding="utf-8"?>
<!-- Generator: Adobe Illustrator 24.1.2, SVG Export Plug-In . SVG Version: 6.00 Build 0)  -->
<svg version="1.1" id="Слой_1" xmlns="http://www.w3.org/2000/svg" xmlns:xlink="http://www.w3.org/1999/xlink" x="0px" y="0px"
	 viewBox="0 0 99 14" enable-background="new 0 0 99 14" xml:space="preserve">
<g>
	<g>
		<g>
			<path fill="#A23F97" d="M6.28,6.94"/>
			<g>
				<path fill="#A22B97" d="M6.28,12.94c7.72,0,7.73-12,0-12C-1.44,0.94-1.46,12.94,6.28,12.94L6.28,12.94z"/>
			</g>
		</g>
		<g>
			<path fill="#A23F97" d="M49.33,6.94"/>
			<g>
				<path fill="#A22B97" d="M49.33,12.94c7.72,0,7.73-12,0-12C41.61,0.94,41.6,12.94,49.33,12.94L49.33,12.94z"/>
			</g>
		</g>
	</g>
	<g>
		<path fill="#A23F97" d="M49.92,7.75"/>
		<g>
			<path fill="#A22B97" d="M49.92,13.75c7.72,0,7.73-12,0-12C42.2,1.75,42.18,13.75,49.92,13.75L49.92,13.75z"/>
		</g>
	</g>
	<g>
		<path fill="#A23F97" d="M92.97,7.75"/>
		<g>
			<path fill="#A22B97" d="M92.97,13.75c7.72,0,7.73-12,0-12C85.25,1.75,85.24,13.75,92.97,13.75L92.97,13.75z"/>
		</g>
	</g>
</g>
</svg>
