<?xml version="1.0" encoding="utf-8"?>
<!-- Generator: Adobe Illustrator 24.1.2, SVG Export Plug-In . SVG Version: 6.00 Build 0)  -->
<svg version="1.1" id="Layer_1" xmlns="http://www.w3.org/2000/svg" xmlns:xlink="http://www.w3.org/1999/xlink" x="0px" y="0px"
	 viewBox="0 0 616 616" style="enable-background:new 0 0 616 616;" xml:space="preserve">
<style type="text/css">
	.st0{fill:url(#SVGID_1_);}
	.st1{fill:url(#SVGID_2_);}
	.st2{opacity:0.3;enable-background:new    ;}
	.st3{fill:#FFFFFF;}
</style>
<g>
	<g>
		
			<linearGradient id="SVGID_1_" gradientUnits="userSpaceOnUse" x1="56" y1="306" x2="568" y2="306" gradientTransform="matrix(1 0 0 -1 0 610)">
			<stop  offset="0" style="stop-color:#33B49D"/>
			<stop  offset="1" style="stop-color:#00A185"/>
		</linearGradient>
		<circle class="st0" cx="312" cy="304" r="256"/>
		
			<linearGradient id="SVGID_2_" gradientUnits="userSpaceOnUse" x1="98.6667" y1="305.9995" x2="525.3334" y2="305.9995" gradientTransform="matrix(1 0 0 -1 0 610)">
			<stop  offset="0" style="stop-color:#00A185"/>
			<stop  offset="1" style="stop-color:#33B49D"/>
		</linearGradient>
		<path class="st1" d="M312,517.3c-117.6,0-213.3-95.7-213.3-213.3c0-117.6,95.7-213.3,213.3-213.3c117.6,0,213.3,95.7,213.3,213.3
			C525.3,421.6,429.6,517.3,312,517.3z"/>
	</g>
	<g>
		<polygon class="st2" points="291.5,236.5 281.5,236.5 281.5,273.5 244.5,273.5 244.5,283.5 281.5,283.5 281.5,320.4 291.5,320.4 
			291.5,283.5 328.4,283.5 328.4,273.5 291.5,273.5 		"/>
		<path class="st2" d="M434.4,399.6l-74.9-74.9c21.2-33.4,17.2-78.2-11.9-107.3c-33.8-33.8-88.5-33.8-122.3,0
			c-33.8,33.8-33.8,88.5,0,122.3c29.1,29.1,73.9,33.1,107.3,11.9l74.9,74.9c7.4,7.4,19.4,7.4,26.9,0
			C441.9,419,441.9,407,434.4,399.6z M285.8,346.4c-37.8,0-68.6-30.8-68.6-68.6c0-37.8,30.8-68.6,68.6-68.6
			c37.8,0,68.6,30.8,68.6,68.6C354.4,315.6,323.6,346.4,285.8,346.4z"/>
	</g>
	<g>
		<polygon class="st3" points="283.5,228.5 273.5,228.5 273.5,265.5 236.5,265.5 236.5,275.5 273.5,275.5 273.5,312.4 283.5,312.4 
			283.5,275.5 320.4,275.5 320.4,265.5 283.5,265.5 		"/>
		<path class="st3" d="M426.4,391.6l-74.9-74.9c21.2-33.4,17.2-78.2-11.9-107.3c-33.8-33.8-88.5-33.8-122.3,0
			c-33.8,33.8-33.8,88.5,0,122.3c29.1,29.1,73.9,33.1,107.3,11.9l74.9,74.9c7.4,7.4,19.4,7.4,26.9,0
			C433.9,411,433.9,399,426.4,391.6z M277.8,338.4c-37.8,0-68.6-30.8-68.6-68.6c0-37.8,30.8-68.6,68.6-68.6
			c37.8,0,68.6,30.8,68.6,68.6C346.4,307.6,315.6,338.4,277.8,338.4z"/>
	</g>
</g>
</svg>
