<?xml version="1.0" ?><svg style="enable-background:new 0 0 512 512;" version="1.1" viewBox="0 0 512 512" xml:space="preserve" xmlns="http://www.w3.org/2000/svg" xmlns:xlink="http://www.w3.org/1999/xlink"><g id="_x32_2_x2C__Bacteria_x2C__disease_x2C__protection_x2C__safe"><g id="XMLID_4175_"><g id="XMLID_4176_"><path d="M159.319,136.25c23.13-19.5,52.1-32.28,83.92-35.34V81.37     c-8.87-5.13-14.84-14.71-14.84-25.69c0-16.39,13.29-29.68,29.68-29.68s29.68,13.29,29.68,29.68c0,10.98-5.97,20.56-14.84,25.69     v19.54c31.82,3.06,60.79,15.84,83.93,35.34l14.22-14.22c-2.65-9.9-0.09-20.9,7.67-28.66c11.59-11.59,30.38-11.59,41.97,0     c11.59,11.59,11.59,30.38,0,41.97c-7.76,7.76-18.76,10.32-28.66,7.67l-14.46,14.46c4.74,5.89,9.04,12.13,12.88,18.68h-121.68     c-1.14,23.19-20.27,41.4-43.48,41.4l-2.5,72.07c-4.18,44.97,14.79,88.85,50.11,116.62v24.38c8.87,5.14,14.84,14.72,14.84,25.7     c0,16.39-13.29,29.68-29.68,29.68s-29.68-13.29-29.68-29.68c0-10.98,5.97-20.561,14.84-25.7v-24.48     c-30.59-2.93-58.55-14.859-81.21-33.1l-16.94,16.93c2.65,9.9,0.09,20.9-7.67,28.66c-11.59,11.59-30.38,11.59-41.97,0     c-11.59-11.59-11.59-30.38,0-41.97c7.76-7.76,18.76-10.32,28.66-7.67l16.7-16.7c-18.99-22.53-31.62-50.6-35.08-81.45h-22.28     c-5.13,8.87-14.71,14.84-25.69,14.84c-16.39,0-29.68-13.29-29.68-29.68c0-16.39,13.29-29.68,29.68-29.68     c10.98,0,20.56,5.97,25.69,14.84h21.79c2.52-31.55,14.6-60.41,33.33-83.68l-17.67-17.67c-13.12,5.06-28.57,2.31-39.15-8.28     c-14.32-14.32-14.32-37.54,0-51.86c14.32-14.32,37.54-14.32,51.86,0c10.59,10.58,13.34,26.03,8.28,39.15L159.319,136.25z" id="XMLID_4250_" style="fill:#D94556;"/><path d="M153.079,446c11.05,0,20,8.95,20,20s-8.95,20-20,20c-11.05,0-20-8.95-20-20     S142.029,446,153.079,446z" id="XMLID_611_" style="fill:#D94556;"/><path d="M453.079,36c11.05,0,20,8.95,20,20s-8.95,20-20,20s-20-8.95-20-20     S442.029,36,453.079,36z" id="XMLID_610_" style="fill:#D94556;"/><path d="M223.079,246c0,13.81-11.19,25-25,25c-13.81,0-25-11.19-25-25     c0-13.81,11.19-25,25-25C211.889,221,223.079,232.19,223.079,246z" id="XMLID_609_" style="fill:#FFD400;"/><circle cx="455.579" cy="148.5" id="XMLID_608_" r="7.5" style="fill:#5CBEFF;"/><circle cx="450.579" cy="458.5" id="XMLID_607_" r="7.5" style="fill:#5CBEFF;"/><circle cx="350.579" cy="63.5" id="XMLID_606_" r="7.5" style="fill:#5CBEFF;"/><path d="M143.079,256c5.52,0,10,4.48,10,10s-4.48,10-10,10c-5.52,0-10-4.48-10-10     S137.559,256,143.079,256z" id="XMLID_605_" style="fill:#FFD400;"/><circle cx="135.579" cy="38.5" id="XMLID_604_" r="7.5" style="fill:#5CBEFF;"/><circle cx="65.579" cy="168.5" id="XMLID_603_" r="7.5" style="fill:#5CBEFF;"/><circle cx="45.579" cy="378.5" id="XMLID_602_" r="7.5" style="fill:#5CBEFF;"/><path d="M248.079,161c-3.779,0-7.251-1.732-9.524-4.752l-2.77-3.703     c-0.552-0.736-1.297-0.788-1.693-0.751c-0.397,0.036-1.124,0.22-1.541,1.052c-1.235,2.47-4.239,3.47-6.708,2.236     c-2.47-1.235-3.471-4.238-2.236-6.708c1.861-3.723,5.446-6.167,9.589-6.54c4.137-0.371,8.102,1.391,10.594,4.718l2.763,3.694     c0.493,0.655,1.168,0.754,1.526,0.754c0.358,0,1.033-0.1,1.535-0.767l2.751-3.678c2.496-3.331,6.463-5.093,10.597-4.722     c4.143,0.373,7.728,2.818,9.589,6.54c0.478,0.953,1.361,1.056,1.718,1.056c0.429,0,1.042-0.135,1.525-0.777l1.572-2.1     c2.495-3.329,6.46-5.091,10.596-4.72c4.143,0.373,7.728,2.818,9.589,6.54c0.478,0.953,1.361,1.056,1.718,1.056     c0.429,0,1.042-0.135,1.525-0.777l1.572-2.1c2.495-3.329,6.458-5.091,10.596-4.72c4.143,0.373,7.728,2.818,9.589,6.54     c0.478,0.953,1.361,1.056,1.718,1.056c0.429,0,1.042-0.135,1.525-0.777c1.66-2.207,4.796-2.648,7.001-0.988     c2.207,1.661,2.648,4.795,0.988,7.002c-2.278,3.027-5.746,4.763-9.515,4.763c-4.539,0-8.622-2.521-10.659-6.578     c-0.42-0.839-1.147-1.023-1.544-1.059c-0.395-0.041-1.142,0.015-1.696,0.755l-1.579,2.108c-2.286,3.037-5.754,4.774-9.522,4.774     c-4.539,0-8.622-2.521-10.659-6.578c-0.42-0.839-1.147-1.023-1.544-1.059c-0.397-0.041-1.142,0.015-1.696,0.755l-1.579,2.108     c-2.286,3.037-5.754,4.774-9.522,4.774c-4.539,0-8.622-2.521-10.659-6.578c-0.42-0.839-1.147-1.023-1.544-1.059     c-0.395-0.041-1.142,0.015-1.696,0.755l-2.757,3.687C255.33,159.268,251.859,161,248.079,161z" id="XMLID_601_" style="fill:#FFD400;"/><path d="M218.65,284.62l2.5-72.07c23.21,0,42.34-18.21,43.48-41.4h121.68h51.06     c1.14,23.19,20.27,41.4,43.48,41.4l2.5,72.07c4.34,46.7-16.28,92.23-54.26,119.76L351,461l-78.09-56.62     C235.061,377.016,214.3,331.41,218.65,284.62z" id="XMLID_4183_" style="fill:#3F4751;"/><path d="M423.4,245.64c6.83,6.84,6.83,17.919,0,24.749l-65.41,65.41l-24.75,24.75     l-24.75-24.75l-19.44-19.439c-3.42-3.42-5.13-7.9-5.13-12.38c0-4.48,1.71-8.961,5.13-12.37c6.83-6.841,17.91-6.841,24.74,0     l19.45,19.439l65.41-65.41c3.41-3.42,7.89-5.12,12.37-5.12C415.5,240.52,419.98,242.22,423.4,245.64z" id="XMLID_599_" style="fill:#07CC66;"/></g></g></g><g id="Layer_1"/></svg>