<?xml version="1.0" ?><svg viewBox="0 0 512 512" xmlns="http://www.w3.org/2000/svg" xmlns:xlink="http://www.w3.org/1999/xlink"><defs><style>.cls-1{fill:url(#linear-gradient);}.cls-2{fill:url(#linear-gradient-2);}.cls-3{fill:url(#linear-gradient-3);}.cls-4{fill:url(#linear-gradient-4);}.cls-5{fill:url(#linear-gradient-5);}.cls-6{fill:url(#linear-gradient-6);}</style><linearGradient gradientUnits="userSpaceOnUse" id="linear-gradient" x1="260.5031" x2="260.5031" y1="351.7745" y2="32"><stop offset="0" stop-color="#9ed0db"/><stop offset="0.5035" stop-color="#b4dae3"/><stop offset="1" stop-color="#c5e1ea"/></linearGradient><linearGradient gradientTransform="translate(112.3662 -12.7173) rotate(22.5)" gradientUnits="userSpaceOnUse" id="linear-gradient-2" x1="32" x2="144.3005" y1="276.0928" y2="276.0928"><stop offset="0" stop-color="#ffd5b3"/><stop offset="0.5132" stop-color="#f3c0a3"/><stop offset="1" stop-color="#eab198"/></linearGradient><linearGradient gradientUnits="userSpaceOnUse" id="linear-gradient-3" x1="101.9874" x2="130.992" y1="262.2291" y2="250.5105"><stop offset="0" stop-color="#c7dbe2"/><stop offset="0.0832" stop-color="#cddfe6"/><stop offset="0.2983" stop-color="#d8e7ed"/><stop offset="0.5363" stop-color="#dce9ef"/><stop offset="0.7386" stop-color="#d8e6ed"/><stop offset="0.942" stop-color="#ccdee5"/><stop offset="1" stop-color="#c7dbe2"/></linearGradient><linearGradient gradientUnits="userSpaceOnUse" id="linear-gradient-4" x1="42" x2="478.1772" y1="330.5261" y2="330.5261"><stop offset="0" stop-color="#b5e1f4"/><stop offset="0.3823" stop-color="#c6e7f6"/><stop offset="1" stop-color="#eaf5fb"/></linearGradient><linearGradient gradientTransform="matrix(1, 0, 0, 1, 0, 0)" id="linear-gradient-5" x2="92.6683" xlink:href="#linear-gradient-2" y1="357.3492" y2="357.3492"/><linearGradient gradientUnits="userSpaceOnUse" id="linear-gradient-6" x1="84.73" x2="114.73" y1="357.3491" y2="357.3491"><stop offset="0" stop-color="#d6e9f2"/><stop offset="0.0729" stop-color="#dbecf4"/><stop offset="0.2929" stop-color="#e6f3f9"/><stop offset="0.5363" stop-color="#eaf5fb"/><stop offset="0.7436" stop-color="#e6f3f9"/><stop offset="0.9521" stop-color="#daebf4"/><stop offset="1" stop-color="#d6e9f2"/></linearGradient></defs><title/><g id="Smooth-Virus"><g data-name="hygiene glove healthcare protection" id="hygiene_glove_healthcare_protection-4"><path class="cls-1" d="M341.1787,135.4645c-6.9,2.8579-2.586,13.2989,4.3231,10.4371l108.3576-31.7329c24.1385-7.6351,29.7265,24.3355,9.2808,32.8044-26.33,10.9061-107.4119,38.3776-107.4119,38.3776-6.59,2.73-3.0061,12.6894,3.795,10.6261L459.684,172.565c19.9861-5.1914,27.8378,24.5566,10.5587,31.4165S358.17,238.4807,358.17,238.4807c-6.4626,2.6769-3.1659,12.5306,3.6973,10.6687,3.8642-.8186,70.2405-16.2692,70.2405-16.2692,17.9293-5.6457,26.39,21.9385,3.157,32.19-21.3109,8.7425-109.0743,38.7894-146.4616,48.1625-36.231,9.0834-57.1464,21.5565-111.3966,5.44L97.4891,351.7745l-56.25-135.8,81.6068-33.8026c15.3007-25.4111,19.3715-50.7052,38.6472-70.3773,19.6284-20.032,43.0679-65.98,43.0679-65.98s6.6223-15.5553,14.9707-13.6529c12.7009,2.8942,22.45,31.6125,4.71,57.5973s-2.1859,47.2777,4.9449,46.3446S394.5311,68.2614,420.9183,62.0643s30.0472,24.6,13.911,33.1009c-14.6351,7.71-93.6506,40.2993-93.6506,40.2993"/><rect class="cls-2" height="146.9892" transform="translate(-98.9461 54.75) rotate(-22.5)" width="60.6683" x="57.8161" y="202.5982"/><path class="cls-3" d="M133.52,336.85l-56.25-135.8c-7.6-18.35,20.1279-29.8011,27.7168-11.48l56.25,135.8Z"/><path class="cls-4" d="M349.918,324.2554c-7.4681,0-7.4784,11.2969,0,11.2969l112.253,12.1494c25.2229,2.1834,18.1509,33.8589-3.9793,33.8589-28.4991,0-113.9221-5.6485-113.9221-5.6485-7.1333,0-7.6334,10.573-.56,11.2695l101.4957,16.7c20.4513,2.8522,16.3213,33.34-2.2676,33.0657S326.193,425.932,326.193,425.932c-6.995,0-7.72,10.3653-.6669,11.2715,3.8834.7225,71.12,11.8492,71.12,11.8492,18.7251,1.6453,15.986,30.3676-9.4017,30.9473-23.0342-.0783-115.6155-5.9042-153.7438-11.552-36.9492-5.4732-61.0457-1.9535-104.9986-37.6042H42V283.8546h88.3305c23.86-17.6215,37.301-39.4324,62.6376-50.2305,25.8-10.9957,65.0391-44.4762,65.0391-44.4762s12.071-11.837,19.0558-6.8847c10.6266,7.5343,8.6436,37.7975-17.69,55.0156s-20.1119,42.8423-13.1668,44.7091,178.7205.597,205.4706,4.97,18.3461,34.2258.1849,35.9047c-16.4717,1.5228-101.9438,1.3932-101.9438,1.3932"/><rect class="cls-5" height="146.9892" width="60.6683" x="32" y="283.8546"/><path class="cls-6" d="M84.73,430.8438V283.8545c0-19.8325,30-19.8594,30,0V430.8438C114.73,450.6762,84.73,450.7031,84.73,430.8438Z"/></g></g></svg>