<?xml version="1.0" ?><svg viewBox="0 0 64 64" xmlns="http://www.w3.org/2000/svg"><g id="outline"><path d="M13,30a7,7,0,1,0-7-7A7.0081,7.0081,0,0,0,13,30Zm0-12a5,5,0,1,1-5,5A5.0059,5.0059,0,0,1,13,18Z"/><path d="M24,50V36a5.0059,5.0059,0,0,0-5-5H7a5.0059,5.0059,0,0,0-5,5V50H6V62H20V50ZM15.1292,33a3.96,3.96,0,0,1-4.2584,0ZM4,48V36a3.0033,3.0033,0,0,1,3-3H8.0546a5.976,5.976,0,0,0,9.8908,0H19a3.0033,3.0033,0,0,1,3,3V48H20V37H18v4H8V37H6V48ZM18,60H14V48h2V46H10v2h2V60H8V43H18V60Z"/><path d="M51,30a7,7,0,1,0-7-7A7.0081,7.0081,0,0,0,51,30Zm0-12a5,5,0,1,1-5,5A5.0059,5.0059,0,0,1,51,18Z"/><path d="M62,36a5.0059,5.0059,0,0,0-5-5H45a5.0059,5.0059,0,0,0-5,5V50h4V62H58V50h4Zm-8.8708-3a3.96,3.96,0,0,1-4.2584,0ZM56,60H52V48h2V46H48v2h2V60H46V43H56V60Zm4-12H58V37H56v4H46V37H44V48H42V36a3.0033,3.0033,0,0,1,3-3h1.0546a5.976,5.976,0,0,0,9.8908,0H57a3.0033,3.0033,0,0,1,3,3Z"/><polygon points="40 58 24 58 24 56 22 56 22 62 24 62 24 60 40 60 40 62 42 62 42 56 40 56 40 58"/><path d="M32,26A12,12,0,1,0,20,14,12.0134,12.0134,0,0,0,32,26ZM32,4A10,10,0,1,1,22,14,10.0114,10.0114,0,0,1,32,4Z"/><polygon points="38.707 10.207 37.293 8.793 29 17.086 26.707 14.793 25.293 16.207 29 19.914 38.707 10.207"/></g></svg>