<?xml version="1.0" ?><svg height="512" viewBox="0 0 512 512" width="512" xmlns="http://www.w3.org/2000/svg"><g><g><g><g><path d="M408,320v24a8,8,0,0,0,16,0V320a8,8,0,0,0,0-16H408a8,8,0,0,0,0,16Z" fill="#009d54"/><path d="M424,432V408a8,8,0,0,0-16,0v24a8,8,0,0,0,0,16h16a8,8,0,0,0,0-16Z" fill="#009d54"/><path d="M480,360a8,8,0,0,0-8,8H448a8,8,0,0,0,0,16h24a8,8,0,0,0,16,0V368A8,8,0,0,0,480,360Z" fill="#009d54"/><path d="M384,384a8,8,0,0,0,0-16H360a8,8,0,0,0-16,0v16a8,8,0,0,0,16,0Z" fill="#009d54"/><circle cx="416" cy="376" fill="#5ec09b" r="32"/><path d="M458.343,402.343,456,404.686l-11.716-11.715a8,8,0,1,0-11.314,11.313L444.686,416l-2.343,2.343a8,8,0,0,0,11.314,11.314l16-16a8,8,0,0,0-11.314-11.314Z" fill="#009d54"/><path d="M432.97,359.029a8,8,0,0,0,11.314,0L456,347.314l2.343,2.343a8,8,0,0,0,11.314-11.314l-16-16a8,8,0,0,0-11.314,11.314L444.686,336,432.97,347.716A8,8,0,0,0,432.97,359.029Z" fill="#009d54"/><path d="M368,352a7.974,7.974,0,0,0,5.657-2.343L376,347.314l11.716,11.715a8,8,0,0,0,11.314-11.313L387.314,336l2.343-2.343a8,8,0,0,0-11.314-11.314l-16,16A8,8,0,0,0,368,352Z" fill="#009d54"/><path d="M399.03,392.971a8,8,0,0,0-11.314,0L376,404.686l-2.343-2.343a8,8,0,0,0-11.314,11.314l16,16a8,8,0,0,0,11.314-11.314L387.314,416l11.716-11.716A8,8,0,0,0,399.03,392.971Z" fill="#009d54"/></g><path d="M416,416a40,40,0,1,1,40-40A40.045,40.045,0,0,1,416,416Zm0-64a24,24,0,1,0,24,24A24.028,24.028,0,0,0,416,352Z" fill="#1a9663"/></g><path d="M208,56l-4.422-8.845A41.889,41.889,0,0,0,166.111,24h-4.222a41.889,41.889,0,0,0-37.467,23.155h0A41.9,41.9,0,0,0,120,65.889V112L80,128,48,224l32,32V424l16,8v56h64V464l-16-8V432l16-8,16-80v80l16,8v56h64V464l-16-8V432l16-8V256l80-56,8,8,32-24-24-32-32,16-32,16-32-56-48-16Z" fill="#eceff0"/><circle cx="420.374" cy="227.87" fill="#5ec09b" r="16"/><circle cx="40" cy="112" fill="#5ec09b" r="16"/><circle cx="408" cy="40" fill="#5ec09b" r="16"/><circle cx="472" cy="472" fill="#5ec09b" r="16"/><circle cx="304" cy="384" fill="#5ec09b" r="16"/><circle cx="304.364" cy="82.57" fill="#5ec09b" r="16"/><circle cx="360" cy="272" fill="#7bd7ef" r="8"/><circle cx="488" cy="24" fill="#7bd7ef" r="8"/><circle cx="304" cy="296" fill="#7bd7ef" r="8"/><circle cx="48" cy="32" fill="#7bd7ef" r="8"/><circle cx="360" cy="48" fill="#7bd7ef" r="8"/><circle cx="248" cy="32" fill="#7bd7ef" r="8"/><circle cx="312" cy="464" fill="#7bd7ef" r="8"/><circle cx="392" cy="472" fill="#7bd7ef" r="8"/><circle cx="472" cy="280" fill="#7bd7ef" r="8"/><path d="M184,80l-8,8H160v16s0,16,24,16,24-16,24-16V88H192Z" fill="#aedef8"/><path d="M120,80a8,8,0,0,1-.008-16l32-.03H152a8,8,0,0,1,.008,16l-32,.03Z" fill="#fcc200"/><path d="M176,352a8,8,0,0,1-8-8V120a8,8,0,0,1,16,0V344A8,8,0,0,1,176,352Z" fill="#00a8e7"/><path d="M248,216H104a8,8,0,0,1,0-16H248a8,8,0,0,1,0,16Z" fill="#00a8e7"/><path d="M248,264a8,8,0,0,1-8-8V176a8,8,0,0,1,16,0v80A8,8,0,0,1,248,264Z" fill="#d1e1e5"/><polygon fill="#00a8e7" points="192 432 240 432 240 456 256 464 256 488 192 488 192 432"/><polyline fill="#00a8e7" points="96 432 144 432 144 456 160 464 160 488 96 488 96 432"/><polygon fill="#00a8e7" points="344 208 320 168 352 152 376 184 344 208"/><path d="M48,312H72a24,24,0,0,1,24,24V488a0,0,0,0,1,0,0H24a0,0,0,0,1,0,0V336a24,24,0,0,1,24-24Z" fill="#1a9663"/><rect fill="#fcc200" height="24" width="24" x="48" y="288"/><path d="M160.007,288a8,8,0,0,1-3.976-14.947l168-96a8,8,0,1,1,7.938,13.892l-168,96A7.968,7.968,0,0,1,160.007,288Z" fill="#fcc200"/><path d="M360,168a8,8,0,0,1-5.657-13.657l24-24A8,8,0,0,1,384,128h16a8,8,0,0,1,0,16H387.313l-21.656,21.657A7.976,7.976,0,0,1,360,168Z" fill="#fcc200"/><path d="M100,408a44.049,44.049,0,0,1-44-44V312a8,8,0,0,1,16,0v52a28,28,0,0,0,56,0V320a8,8,0,0,1,16,0v44A44.049,44.049,0,0,1,100,408Z" fill="#42a87e"/><path d="M488,144H432a8,8,0,0,1,0-16h56a8,8,0,0,1,0,16Z" fill="#aedef8"/><path d="M424.006,120a8,8,0,0,1-3.584-15.157l48-24a8,8,0,1,1,7.156,14.31l-48,24A7.976,7.976,0,0,1,424.006,120Z" fill="#aedef8"/><path d="M471.994,192a7.976,7.976,0,0,1-3.572-.847l-48-24a8,8,0,0,1,7.156-14.31l48,24A8,8,0,0,1,471.994,192Z" fill="#aedef8"/><g><path d="M199.782,55.818l-31.813.121A16.031,16.031,0,0,0,152,71.969h0A16.03,16.03,0,0,0,168.03,88H176l8-8,8,8,8.007-.082a16.03,16.03,0,0,0,15.867-16.029v-.041A16.03,16.03,0,0,0,199.782,55.818Z" fill="#aedef8"/><path d="M176,96h-7.97a24.031,24.031,0,0,1-.092-48.061l31.814-.121h.095a24.029,24.029,0,0,1,24.027,24.03,24.118,24.118,0,0,1-23.786,24.07L192.082,96H192a8,8,0,0,1-5.657-2.343L184,91.313l-2.343,2.344A8,8,0,0,1,176,96Zm23.812-32.182L168,63.939A8.031,8.031,0,0,0,168.03,80h4.657l5.656-5.657a8,8,0,0,1,11.314,0l5.623,5.623,4.645-.047a8.059,8.059,0,0,0,5.586-13.76,7.921,7.921,0,0,0-5.7-2.341Zm-.03-8h0Z" fill="#00a8e7"/></g><path d="M136,328c-.188,0-.377-.007-.567-.02a8,8,0,0,1-5.833-3.18l-23.659-31.545-31.6-31.6a8,8,0,0,1,11.313-11.314l32,32a8.078,8.078,0,0,1,.743.857l18.466,24.621L156.687,288l-18.344-18.343A8,8,0,0,1,136,264V251.313L98.343,213.657a8,8,0,0,1-2.1-7.6l8-32a8,8,0,1,1,15.522,3.88l-6.9,27.606,36.8,36.8A8,8,0,0,1,152,248v12.687l21.657,21.656a8,8,0,0,1,0,11.314l-32,32A8,8,0,0,1,136,328Z" fill="#d1e1e5"/><polygon fill="#00a8e7" points="112 288 144 264 168 288 136 320 112 288"/></g><path d="M348.8,214.4l32-24a8,8,0,0,0,1.6-11.2l-12.98-17.306L387.313,144H400a8,8,0,0,0,0-16H384a8,8,0,0,0-5.657,2.343l-18.62,18.621L358.4,147.2a8,8,0,0,0-9.978-2.355L291.191,173.46l-28.245-49.429a8,8,0,0,0-4.416-3.62L216,106.234V89.628c10.448-9.192,10.524-26.677-.331-35.857.068-.514-4.641-9.47-4.934-10.189C201.651,25.1,182.263,14.739,161.89,16A49.887,49.887,0,0,0,112,65.89v40.693L77.029,120.572a8,8,0,0,0-4.618,4.9l-32,96a8,8,0,0,0,1.932,8.187L72,259.313V280H48a8,8,0,0,0-8,8v17.013A32.056,32.056,0,0,0,16,336V488a8,8,0,0,0,8,8c33.874-.036,102.3.026,136,0a8,8,0,0,0,8-8v-6.111a36.709,36.709,0,0,0-16-30.443v-13.2l23.069-5.767L184,436.944V488a8,8,0,0,0,8,8h64a8,8,0,0,0,8-8v-6.111a36.709,36.709,0,0,0-16-30.443v-14.5l11.578-5.789A8,8,0,0,0,264,424V260.165L335.089,210.4l3.254,3.254A8,8,0,0,0,348.8,214.4Zm.806-52.259L364.8,182.4l-20.05,15.037-2.175-2.176-11.842-23.683ZM156.687,288l-19.821,19.821L123.2,289.6l20.049-15.037ZM72,320a16.019,16.019,0,0,1,16,16v53.293A28.034,28.034,0,0,1,72,364Zm16-11.695V275.314l17.941,17.941L128,322.666V364a28.04,28.04,0,0,1-24,27.71V336A32.012,32.012,0,0,0,88,308.305Zm73.336-38.282L152,260.687V248a8,8,0,0,0-2.343-5.657L123.314,216H168v50.215ZM184,216h64v4.5l-64,36.572Zm80,13.785,60.627-34.643,1.131,2.262L264,240.635Zm-13.429-95.162,30.483,53.346a8,8,0,0,0,10.524,3.186l24.844-12.422,1.038,2.076L264,211.357V176c-.391-10.6-15.609-10.6-16,0v24H184V128c11.882,0,19.352-3.352,24.049-7.551Zm-50.759-70.8h0c.063,0,.125.006.187.007V79.914c-.124.013-4.606.047-4.72.052l-5.623-5.623a8,8,0,0,0-11.314,0L172.687,80H168.03c-10.619-.4-10.643-15.616-.03-16.061ZM176,96a8,8,0,0,0,5.657-2.343L184,91.313l2.343,2.344A8,8,0,0,0,192,96h8v7.834c-.123,1.511-1.492,8.166-16,8.166s-15.877-6.655-16-8.166V96Zm24,7.865V104S200,103.953,200,103.865ZM168,104v-.135C168,103.953,168,104,168,104ZM131.575,50.738A33.71,33.71,0,0,1,161.89,32c13.406-.874,25.728,4.379,32.883,15.837l-26.835.1a24.092,24.092,0,0,0-22.563,16.037l-17.32.016A33.84,33.84,0,0,1,131.575,50.738ZM86.416,134.05l36.555-14.622A8,8,0,0,0,128,112V79.992l17.376-.016A24.1,24.1,0,0,0,152,89.853V104a24.386,24.386,0,0,0,16,21.311V200H114.246l5.515-22.06c2.216-10.346-12.592-14.074-15.522-3.88l-8,32a8.081,8.081,0,0,0,.806,5.884,8.613,8.613,0,0,0,1.3,1.717L136,251.313V260l-23.249,17.437-55.6-55.6ZM56,296H72v8H56ZM32,336a16.019,16.019,0,0,1,16-16h8v44a44.07,44.07,0,0,0,32,42.323V480H32Zm72,144V440h32v16a8,8,0,0,0,4.422,7.155A20.816,20.816,0,0,1,151.917,480Zm64-62.246L143.015,424H104V407.81A44.054,44.054,0,0,0,144,364V323.313l24-24ZM200,480V440h32v16a8,8,0,0,0,4.422,7.155A20.816,20.816,0,0,1,247.917,480Zm48-60.944L238.112,424H193.888L184,419.056V275.5l64-36.572Zm205.657,10.6,16-16a8,8,0,0,0-11.314-11.314L456,404.687l-6.644-6.645A39.756,39.756,0,0,0,455.2,384H472c.39,10.6,15.608,10.6,16,0V368c-.389-10.6-15.608-10.6-16,0H455.2a39.756,39.756,0,0,0-5.839-14.042L456,347.313l2.343,2.344a8,8,0,0,0,11.314-11.314l-16-16a8,8,0,0,0-11.314,11.314L444.687,336l-6.645,6.644A39.756,39.756,0,0,0,424,336.805V320c10.6-.39,10.6-15.608,0-16H408c-10.6.389-10.6,15.608,0,16v16.805a39.756,39.756,0,0,0-14.042,5.839L387.313,336l2.344-2.343a8,8,0,0,0-11.314-11.314l-16,16a8,8,0,0,0,11.314,11.314L376,347.313l6.644,6.645A39.756,39.756,0,0,0,376.805,368H360c-.39-10.6-15.608-10.6-16,0v16c.389,10.6,15.608,10.6,16,0h16.805a39.756,39.756,0,0,0,5.839,14.042L376,404.687l-2.343-2.344a8,8,0,0,0-11.314,11.314l16,16a8,8,0,0,0,11.314-11.314L387.313,416l6.645-6.644A39.756,39.756,0,0,0,408,415.2V432c-10.6.39-10.6,15.608,0,16h16c10.6-.389,10.6-15.608,0-16V415.2a39.756,39.756,0,0,0,14.042-5.839L444.687,416l-2.344,2.343C435.112,426.091,445.915,436.885,453.657,429.657ZM416,400a24.028,24.028,0,0,1-24-24c1.319-31.839,46.686-31.83,48,0A24.028,24.028,0,0,1,416,400ZM396.374,227.87a24.027,24.027,0,0,0,24,24c31.839-1.318,31.83-46.687,0-48A24.027,24.027,0,0,0,396.374,227.87Zm32,0a8.009,8.009,0,0,1-8,8c-10.6-.4-10.6-15.6,0-16A8.009,8.009,0,0,1,428.374,227.87ZM40,136a24.027,24.027,0,0,0,24-24c-1.318-31.839-46.687-31.83-48,0A24.027,24.027,0,0,0,40,136Zm0-32a8.009,8.009,0,0,1,8,8c-.4,10.6-15.6,10.6-16,0A8.009,8.009,0,0,1,40,104ZM408,64a24.027,24.027,0,0,0,24-24c-1.318-31.839-46.687-31.83-48,0A24.027,24.027,0,0,0,408,64Zm0-32a8.009,8.009,0,0,1,8,8c-.4,10.6-15.6,10.6-16,0A8.009,8.009,0,0,1,408,32Zm64,416a24.027,24.027,0,0,0-24,24c1.318,31.839,46.687,31.83,48,0A24.027,24.027,0,0,0,472,448Zm0,32a8.009,8.009,0,0,1-8-8c.4-10.6,15.6-10.6,16,0A8.009,8.009,0,0,1,472,480ZM304,360a24.027,24.027,0,0,0-24,24c1.318,31.839,46.687,31.83,48,0A24.027,24.027,0,0,0,304,360Zm0,32a8.009,8.009,0,0,1-8-8c.4-10.6,15.6-10.6,16,0A8.009,8.009,0,0,1,304,392Zm.364-285.43a24.027,24.027,0,0,0,24-24c-1.318-31.84-46.687-31.83-48,0A24.027,24.027,0,0,0,304.364,106.57Zm0-32a8.009,8.009,0,0,1,8,8c-.4,10.6-15.6,10.6-16,0A8.009,8.009,0,0,1,304.364,74.57ZM360,264a8,8,0,0,1,8,8c-.392,10.6-15.609,10.6-16,0A8,8,0,0,1,360,264ZM480,24a8,8,0,0,1,8-8c10.6.392,10.6,15.609,0,16A8,8,0,0,1,480,24ZM304,304a8,8,0,0,1-8-8c.392-10.6,15.609-10.6,16,0A8,8,0,0,1,304,304ZM40,32a8,8,0,0,1,8-8c10.6.392,10.6,15.609,0,16A8,8,0,0,1,40,32ZM352,48a8,8,0,0,1,8-8c10.6.392,10.6,15.609,0,16A8,8,0,0,1,352,48ZM240,32a8,8,0,0,1,8-8c10.6.392,10.6,15.609,0,16A8,8,0,0,1,240,32Zm80,432a8,8,0,0,1-8,8c-10.6-.392-10.6-15.609,0-16A8,8,0,0,1,320,464Zm80,8a8,8,0,0,1-8,8c-10.6-.392-10.6-15.609,0-16A8,8,0,0,1,400,472Zm80-192a8,8,0,0,1-8,8c-10.6-.392-10.6-15.609,0-16A8,8,0,0,1,480,280Zm16-144a8,8,0,0,1-8,8H432a8,8,0,0,1,0-16h56A8,8,0,0,1,496,136Zm-75.578-31.155,48-24c9.64-4.388,16.47,9.21,7.156,14.31l-48,24a8,8,0,0,1-7.156-14.31Zm58.733,82.733a8.006,8.006,0,0,1-10.733,3.577l-48-24a8,8,0,0,1,7.156-14.31l48,24A8,8,0,0,1,479.155,187.578Z"/></g></svg>