<?xml version="1.0" ?><svg id="Covid-19_1_" style="enable-background:new 0 0 64 64;" version="1.1" viewBox="0 0 64 64" xml:space="preserve" xmlns="http://www.w3.org/2000/svg" xmlns:xlink="http://www.w3.org/1999/xlink"><style type="text/css">
	.st0{fill:#DEDDDF;}
	.st1{fill:#80B6F7;}
	.st2{fill:#4092F2;}
	.st3{fill:#FE6840;}
	.st4{fill:#0EA8B2;}
	.st5{fill:#9B9A9E;}
	.st6{fill:#BCBBBE;}
	.st7{fill:#A8C6E2;}
	.st8{fill:#BFDBFB;}
	.st9{fill:#CC2B02;}
	.st10{fill:#9E2001;}
	.st11{fill:#FFDAAA;}
	.st12{fill:#FFB680;}
	.st13{fill:#79787D;}
	.st14{fill:#4D4C50;}
	.st15{fill:#87D3D8;}
	.st16{fill:#B89558;}
	.st17{fill:#8B7140;}
	.st18{fill:#626169;}
	.st19{fill:#FFA980;}
	.st20{fill:#FF8F5B;}
	.st21{fill:#C3E9EC;}
	.st22{fill:#A2FFF3;}
	.st23{fill:#4ABDC5;}
	.st24{fill:#007A80;}
	.st25{fill:#006DEE;}
	.st26{fill:#EB975D;}
	.st27{fill:#B25E1E;}
	.st28{fill:#DEBB7E;}
	.st29{fill:#A2814B;}
	.st30{fill:#E6CC9F;}
	.st31{fill:#62D2F5;}
	.st32{fill:#CBF0FC;}
	.st33{fill:#004DDA;}
</style><g id="_x31_3-PPE"><g><path class="st0" d="M32,1c-8.84,0-16,6.72-16,15v12c0,8.28,7.16,15,16,15s16-6.72,16-15V16C48,7.72,40.84,1,32,1z"/><path class="st5" d="M22,27V15c0-6.38,4.26-11.82,10.26-13.99C32.17,1.01,32.09,1,32,1c-8.84,0-16,6.72-16,15v12    c0,8.28,7.16,15,16,15c2.03,0,3.96-0.37,5.74-1.01C29.03,41.86,22,35.2,22,27z"/><path class="st12" d="M42,14c-0.81,0-19,0-20,0s-2,1-2,2s0,9,0,11s0,4,2,6v-0.59C22,29.98,26.48,28,32,28s10,1.98,10,4.41V33    c2-2,2-4,2-6s0-10,0-11S43,14,42,14z"/><path class="st4" d="M42,13H22c-1.54,0-3,1.46-3,3v11c0,2.07,0,4.41,2.29,6.71c0.19,0.19,0.45,0.28,0.71,0.28v-1.58    c0-0.33,0.09-0.65,0.24-0.96c-0.09-0.02-0.18-0.05-0.27-0.04C21,30,21,28.59,21,27V16c0-0.45,0.55-1,1-1h20c0.45,0,1,0.55,1,1v11    c0,1.59,0,3-0.97,4.41c-0.09,0-0.18,0.03-0.27,0.05c0.15,0.31,0.24,0.62,0.24,0.95V34c0.26,0,0.52-0.1,0.71-0.29    C45,31.41,45,29.07,45,27V16C45,14.46,43.54,13,42,13z"/><path class="st0" d="M32,28c-5.52,0-10,1.98-10,4.41v7.29c2.74,2.06,6.21,3.3,10,3.3s7.26-1.24,10-3.3v-7.29    C42,29.98,37.52,28,32,28z"/><path class="st5" d="M35,41c-3.79,0-7.26-1.24-10-3.3v-7.29c0-0.47,0.17-0.91,0.47-1.34c-2.12,0.81-3.47,2-3.47,3.34v7.29    c2.74,2.06,6.21,3.3,10,3.3s7.26-1.24,10-3.3v-0.23C39.88,40.44,37.51,41,35,41z"/><path class="st1" d="M20,18v5c0,3,2,5,5,5s5-3,7-3s4,3,7,3s5-2,5-5v-5H20z"/><path class="st2" d="M20,18v3h21v5c0,0.63-0.11,1.2-0.27,1.73C42.74,27.1,44,25.37,44,23v-5H20z"/><path class="st8" d="M34.41,18h-2.83l9.58,9.58c0.65-0.27,1.2-0.68,1.64-1.18L34.41,18z"/><path class="st8" d="M40.41,18h-2.83l6.27,6.27C43.94,23.87,44,23.45,44,23v-1.41L40.41,18z"/><path class="st0" d="M32,43c-3.79,0-7.26-1.24-10-3.3V43c0,3.87,4.48,7,10,7s10-3.13,10-7v-3.3C39.26,41.76,35.79,43,32,43z"/><path class="st5" d="M39.83,41.08C37.51,42.3,34.85,43,32,43c-3.79,0-7.26-1.24-10-3.3V43c0,0.71,0.15,1.4,0.44,2.05    C24.17,45.65,26.04,46,28,46C32.69,46,36.9,44.09,39.83,41.08z"/><path class="st0" d="M41.93,43.78c-0.53,3.35-4.45,5.99-9.31,6.2C32.42,49.99,32.21,50,32,50s-0.42-0.01-0.63-0.02    c-4.86-0.21-8.77-2.84-9.31-6.2C12.07,45.39,5,49.36,5,54v9h54v-9C59,49.36,51.93,45.39,41.93,43.78z"/><path class="st5" d="M13,55c0-3.5,4.01-6.61,10.26-8.62c-0.62-0.79-1.04-1.66-1.19-2.6C12.07,45.39,5,49.36,5,54v9h8V55z"/><path class="st5" d="M37.55,35.16C36.07,34.41,34.1,34,32,34s-4.07,0.41-5.55,1.16l-0.9-1.79C27.3,32.49,29.59,32,32,32    s4.7,0.49,6.45,1.37L37.55,35.16z"/><rect class="st4" height="20" width="2" x="31" y="43"/><path class="st24" d="M31,45.72c0.68-0.12,1.35-0.27,2-0.47V43h-2V45.72z"/><path class="st25" d="M39,29c-1.96,0-3.52-1.05-4.77-1.9C33.39,26.54,32.59,26,32,26s-1.39,0.54-2.23,1.1    C28.52,27.95,26.96,29,25,29c-3.53,0-6-2.47-6-6v-5c0-0.55,0.45-1,1-1h24c0.55,0,1,0.45,1,1v5C45,26.53,42.53,29,39,29z M32,24    c1.2,0,2.25,0.7,3.35,1.44C36.48,26.21,37.65,27,39,27c2.43,0,4-1.57,4-4v-4H21v4c0,2.43,1.57,4,4,4c1.35,0,2.52-0.79,3.65-1.56    C29.75,24.7,30.8,24,32,24z"/></g></g></svg>