<?xml version="1.0" encoding="utf-8"?>
<!-- Generator: Adobe Illustrator 24.1.2, SVG Export Plug-In . SVG Version: 6.00 Build 0)  -->
<svg version="1.1" id="Layer_3" xmlns="http://www.w3.org/2000/svg" xmlns:xlink="http://www.w3.org/1999/xlink" x="0px" y="0px"
	 viewBox="0 0 1355.6 1095.1" style="enable-background:new 0 0 1355.6 1095.1;" xml:space="preserve">
<style type="text/css">
	.st0{opacity:0.47;fill:#643AA0;}
	.st1{fill:#A23F97;stroke:#6400AA;stroke-miterlimit:10;}
	.st2{fill:#643AA0;}
	.st3{fill:#A23F97;stroke:#643AA0;stroke-miterlimit:10;}
	.st4{fill:#2E3A58;}
</style>
<path class="st0" d="M1084.1,376.4H980.2c18.2,0,32.9,14.7,32.9,32.9l0,0l0,0c0,18.2-14.7,32.9-32.9,32.9l0,0H719.3l-3.1,65.9h264
	c18.2,0,32.9-14.7,32.9-32.9l0,0l0,0c0.1-18.2-14.6-32.9-32.8-33h-0.1h103.9c18.2,0,32.9-14.7,32.9-32.9
	C1117,391.2,1102.3,376.4,1084.1,376.4L1084.1,376.4L1084.1,376.4z"/>
<path class="st0" d="M1291.4,244.8h-115.5c18.2,0,32.9,14.8,32.9,32.9c0,18.2-14.7,32.9-32.9,32.9h115.5c18.2,0,32.9-14.7,32.9-32.9
	l0,0l0,0C1324.3,259.5,1309.6,244.8,1291.4,244.8z"/>
<path class="st0" d="M1175.9,310.6h-91.8c18.2,0,32.9,14.7,32.9,32.9c0,18.2-14.7,32.9-32.9,32.9l0,0h91.8
	c18.2,0,32.9-14.8,32.9-32.9C1208.8,325.3,1194.1,310.6,1175.9,310.6z"/>
<path class="st0" d="M141.2,277.7c0-18.2,14.7-32.9,32.9-32.9l0,0H58.6c-18.2,0-32.9,14.7-32.9,32.9l0,0l0,0
	c0,18.2,14.7,32.9,32.9,32.9l0,0h115.5C155.9,310.6,141.2,295.9,141.2,277.7z"/>
<path class="st0" d="M441.9,442.2h-72.1c-18.2,0-32.9-14.7-32.9-32.9l0,0l0,0c0-18.2,14.7-32.9,32.9-32.9l0,0H265.9
	c-18.2,0-32.9,14.7-32.9,32.9c0,18.2,14.7,32.9,32.9,32.9l0,0h103.9c-18.2,0-32.9,14.7-32.9,32.9v0.1l0,0
	c0,18.2,14.7,32.9,32.9,32.9l0,0h264l-3.1-65.9H441.9z"/>
<path class="st0" d="M233,343.5c0-18.2,14.7-32.9,32.9-32.9l0,0h-91.8c-18.2,0-32.9,14.8-32.9,32.9c0,18.2,14.7,32.9,32.9,32.9h91.8
	C247.7,376.4,233,361.7,233,343.5z"/>
<path class="st0" d="M626.1,344.3c-15-5.6-28.9-13.7-41.2-24l8.9,187.8h40L626.1,344.3z"/>
<path class="st0" d="M765.1,320.3c-12.3,10.3-26.2,18.4-41.2,24l-7.7,163.8h40L765.1,320.3z"/>
<polygon class="st1" points="690.3,108.2 690.3,77.6 659.7,77.6 659.7,108.2 629.2,108.2 629.2,138.7 659.7,138.7 659.7,169.2 
	690.3,169.2 690.3,138.7 720.8,138.7 720.8,108.2 "/>
<path class="st2" d="M379.8,325.6H174.1c-8.3,0-15-6.7-15-15s6.7-15,15-15h205.7c8.3,0,15,6.7,15,15S388.1,325.6,379.8,325.6z"/>
<path class="st2" d="M461.8,391.6H270.9c-8.3,0-15-6.7-15-15s6.7-15,15-15h190.9c8.3,0,15,6.7,15,15S470.1,391.6,461.8,391.6z"/>
<path class="st2" d="M519,457.2H369.8c-8.3,0-15-6.7-15-15s6.7-15,15-15H519c8.3,0,15,6.7,15,15S527.3,457.2,519,457.2z"/>
<path class="st2" d="M1175.9,325.6H970.2c-8.3,0-15-6.7-15-15s6.7-15,15-15h205.7c8.3,0,15,6.7,15,15S1184.2,325.6,1175.9,325.6
	L1175.9,325.6z"/>
<path class="st2" d="M1079.1,391.6H888.2c-8.3,0-15-6.7-15-15s6.7-15,15-15h190.9c8.3,0,15,6.7,15,15S1087.4,391.6,1079.1,391.6z"/>
<path class="st2" d="M980.2,457.2H831c-8.3,0-15-6.7-15-15s6.7-15,15-15h149.2c8.3,0,15,6.7,15,15S988.5,457.2,980.2,457.2z"/>
<path class="st3" d="M980.2,523.1h-264c-4.1,0-8.1-1.7-10.9-4.7c-2.8-2.9-4.3-6.9-4.1-11l7.7-163.8c0.3-6,4.2-11.3,9.8-13.4
	c39.4-14.6,68.9-47.9,78.5-88.8c1.6-6.8,7.6-11.6,14.6-11.6h479.6c26.5,0,47.9,21.5,47.9,47.9s-21.4,47.9-47.9,47.9h-71.1
	c2.3,5.7,3.5,11.8,3.5,17.9c-0.1,26.4-21.5,47.8-47.9,47.9h-47.4c2.3,5.7,3.5,11.8,3.5,17.9c0,26.5-21.4,47.9-47.9,47.9l0,0h-59.5
	c2.3,5.7,3.5,11.8,3.5,18C1028,501.6,1006.6,523,980.2,523.1z M731.9,493.1h248.3c9.9-0.7,17.3-9.4,16.6-19.3
	c-0.7-8.9-7.7-15.9-16.6-16.6c-8.3,0-15-6.7-15-15s6.7-15,15-15h103.9c9.9,0,17.9-8,17.9-17.9s-8-17.9-17.9-17.9l0,0
	c-8.3,0-15-6.7-15-15s6.7-15,15-15h91.8c9.9,0,17.9-8,17.9-17.9s-8-17.9-17.9-17.9c-8.3,0-15-6.7-15-15s6.7-15,15-15h115.5
	c9.9,0,17.9-8,17.9-17.9s-8-17.9-17.9-17.9H823.2c-13.4,42.2-44.3,76.7-84.8,94.7L731.9,493.1z"/>
<path class="st1" d="M633.8,523.1h-264c-26.4-0.1-47.8-21.5-47.9-47.9c0-6.2,1.2-12.3,3.5-18h-59.5c-26.5,0-47.9-21.4-47.9-47.9
	c0-6.1,1.2-12.2,3.5-17.9h-47.4c-26.4-0.1-47.8-21.5-47.9-47.9c0-6.1,1.2-12.2,3.5-17.9H58.6c-26.5,0-47.9-21.5-47.9-47.9
	s21.4-47.9,47.9-47.9h479.6c7,0,13,4.8,14.6,11.6c9.6,40.9,39.1,74.2,78.5,88.8c5.6,2.1,9.5,7.4,9.8,13.4l7.7,163.8
	c0.2,4.1-1.3,8.1-4.1,11C641.9,521.4,637.9,523.1,633.8,523.1z M369.8,457.2c-9.9,0.7-17.3,9.4-16.6,19.3
	c0.7,8.9,7.7,15.9,16.6,16.6h248.3l-6.5-138.6c-40.5-18-71.4-52.5-84.8-94.7H58.6c-9.9,0-17.9,8-17.9,17.9s8,17.9,17.9,17.9h115.5
	c8.3,0,15,6.7,15,15s-6.7,15-15,15c-9.9,0-17.9,8-17.9,17.9s8,17.9,17.9,17.9h91.8c8.3,0,15,6.7,15,15s-6.7,15-15,15
	c-9.9,0-17.9,8-17.9,17.9s8,17.9,17.9,17.9l0,0h103.9c8.3,0,15,6.7,15,15S378.1,457.2,369.8,457.2z"/>
<path class="st4" d="M610.2,992.1c-8.3,0-15-6.7-15-15v-17.9c0.1-61.2,49.7-110.8,110.9-110.9h13.5c20.8,0,37.7-16.9,37.7-37.7
	s-16.9-37.7-37.7-37.7H611c-42,0-76.1-34.1-76-76.2c0-42,34.1-76,76-76h93.7c45.9-0.1,83-37.2,83-83.1v-29.5c0-8.3,6.7-15,15-15
	s15,6.7,15,15v29.5c-0.1,62.4-50.6,113-113,113.1H611c-25.5,0-46.1,20.6-46.1,46.1s20.6,46.1,46.1,46.1h0.1h108.6
	c37.4,0,67.7,30.3,67.7,67.7s-30.3,67.7-67.7,67.7l0,0h-13.5c-44.7,0.1-80.8,36.2-80.9,80.9v17.9
	C625.2,985.4,618.5,992.1,610.2,992.1z"/>
<path class="st4" d="M742.4,992.1c-8.3,0-15-6.7-15-15v-17.9c0-44.6-36.2-80.8-80.8-80.9H633c-37.4,0-67.7-30.3-67.7-67.7
	s30.3-67.7,67.7-67.7l0,0h108.6c25.5,0,46.1-20.6,46.1-46.1s-20.6-46.1-46.1-46.1h-0.1H648c-62.4-0.1-113-50.7-113.1-113.1v-29.5
	c0-8.3,6.7-15,15-15s15,6.7,15,15v29.5c0.1,45.9,37.2,83,83.1,83.1h93.6c42,0,76.1,34,76.2,76c0,42-34,76.1-76,76.2h-0.1H633
	c-20.8,0-37.7,16.9-37.7,37.7s16.9,37.7,37.7,37.7h13.6c61.2,0.1,110.8,49.7,110.8,110.9v17.9C757.4,985.4,750.7,992.1,742.4,992.1z
	"/>
<path class="st4" d="M675,1075.9c-16.4,0-29.9-12.9-30.7-29.3l-39.5-835.5c-26.8-21.4-42.3-53.8-42.1-88.1
	c0.2-60.8,49.9-111,110.7-111.9c62-0.9,113,48.6,114,110.6c0.5,34.7-15,67.7-42.2,89.4l-39.5,835.5
	C704.9,1063,691.4,1075.9,675,1075.9z M675,41.1h-1.2c-44.5,0.6-81,37.4-81.1,82c-0.1,27.1,13.1,52.4,35.3,67.9
	c3.8,2.7,6.2,7,6.4,11.6l39.9,842.6c0,0.4,0.3,0.7,0.7,0.7s0.7-0.3,0.7-0.7l39.9-842.6c0.2-4.6,2.6-8.9,6.4-11.6
	c37.3-25.9,46.6-77.2,20.7-114.5C727.3,54.3,702,41.1,675,41.1z"/>
</svg>
