<?xml version="1.0" encoding="utf-8"?>
<!-- Generator: Adobe Illustrator 24.1.2, SVG Export Plug-In . SVG Version: 6.00 Build 0)  -->
<svg version="1.1" id="Layer_1" xmlns="http://www.w3.org/2000/svg" xmlns:xlink="http://www.w3.org/1999/xlink" x="0px" y="0px"
	 viewBox="0 0 432 432" style="enable-background:new 0 0 432 432;" xml:space="preserve">
<style type="text/css">
	.st0{fill:#F2F2F2;}
	.st1{fill:#4384EC;}
	.st2{fill:#FFFFFF;}
	.st3{fill:#2666CE;}
	.st4{fill:#CAD8EF;}
</style>
<g>
	<path class="st0" d="M445.6,123.1c0-18.9-12.9-34.8-30.4-39.4c0.4-0.6,0.9-1.3,1.3-1.9c5.8-10.1,2.4-23.1-7.7-28.9
		c-6.4-3.7-14-3.7-20.1-0.6C385,28.7,364.8,10.5,340.3,10c-9.7-21.9-31.5-37.1-57-37.1c-31.1,0-56.8,22.8-61.5,52.5
		c-7.6-3.9-17-3.9-25,0.7c-12.6,7.2-16.9,23.3-9.6,35.9c0.5,0.8,1,1.6,1.6,2.4c-9.6,2.5-18,7.8-24.5,14.9
		C153.4,69.8,139,64,123.3,64c-31.1,0-56.8,22.8-61.5,52.5c-7.6-3.9-17-3.9-25,0.7c-12.6,7.2-16.9,23.3-9.6,35.9
		c0.5,0.8,1,1.6,1.6,2.4c-21.7,5.7-37.7,25.5-37.7,49c0,28,22.2,50.6,50.2,50.6c1.8,0,143.9,0.2,143.9,0.2v-93.7
		c5,1.6,10.3,2.6,15.9,2.6c1,0,48.1,0.1,87.1,0.1v0.1c0,0,12.3,0,28.6,0c8,0,14.9,0,19.9,0c-1.1,4.2-1.6,8.6-1.6,13.1
		c0,29,23.6,52.5,52.6,52.5s52.6-23.5,52.6-52.5c0-9.1-2.3-17.7-6.4-25.2C441,144.6,445.6,134.3,445.6,123.1z"/>
	<g>
		<polygon class="st1" points="303,160 303,19 131,19 131,160 49,160 49,367 385,367 385,160 		"/>
		<g>
			<rect x="198.4" y="55" class="st2" width="87.8" height="9.7"/>
			<rect x="198.4" y="102.4" class="st2" width="87.8" height="9.7"/>
			<rect x="198.4" y="149.8" class="st2" width="87.8" height="9.7"/>
			<rect x="198.4" y="197.2" class="st2" width="87.8" height="9.7"/>
			<rect x="198.4" y="244.6" class="st2" width="87.8" height="9.7"/>
			<rect x="152" y="55" class="st2" width="27.8" height="9.7"/>
			<rect x="152" y="102.4" class="st2" width="27.8" height="9.7"/>
			<rect x="152" y="149.8" class="st2" width="27.8" height="9.7"/>
			<rect x="152" y="197.2" class="st2" width="27.8" height="9.7"/>
			<rect x="152" y="244.6" class="st2" width="27.8" height="9.7"/>
		</g>
		<path class="st3" d="M131.6,313L131.6,313V160.1h-15.4v137.5C116.2,306.1,123.1,313,131.6,313z"/>
		<path class="st3" d="M303.3,313L303.3,313V160.1h15.4v137.5C318.7,306.1,311.8,313,303.3,313z"/>
		<g>
			<rect x="49.6" y="197.2" class="st2" width="66.6" height="9.7"/>
			<rect x="116.2" y="197.2" class="st4" width="7.7" height="9.7"/>
		</g>
		<g>
			<rect x="49.6" y="244.6" class="st2" width="66.6" height="9.7"/>
			<rect x="116.2" y="244.6" class="st4" width="7.7" height="9.7"/>
		</g>
		<g>
			<rect x="318.7" y="197.2" class="st2" width="66.6" height="9.7"/>
			<rect x="311" y="197.2" class="st4" width="7.7" height="9.7"/>
		</g>
		<g>
			<rect x="318.7" y="244.6" class="st2" width="66.6" height="9.7"/>
			<rect x="311" y="244.6" class="st4" width="7.7" height="9.7"/>
		</g>
		<rect x="28.5" y="367" class="st1" width="378.2" height="14.5"/>
		<rect x="9.3" y="381.6" class="st3" width="416.5" height="16.7"/>
		<rect x="49.7" y="358.5" class="st3" width="335.8" height="8.5"/>
		<g>
			<rect x="197" y="321" class="st2" width="49.7" height="46"/>
			<rect x="220.9" y="321" class="st4" width="1.9" height="46"/>
		</g>
	</g>
</g>
</svg>
