<?xml version="1.0" encoding="utf-8"?>
<!-- Generator: Adobe Illustrator 24.1.2, SVG Export Plug-In . SVG Version: 6.00 Build 0)  -->
<svg version="1.1" id="Layer_1" xmlns="http://www.w3.org/2000/svg" xmlns:xlink="http://www.w3.org/1999/xlink" x="0px" y="0px"
	 viewBox="0 0 512 512" style="enable-background:new 0 0 512 512;" xml:space="preserve">
<style type="text/css">
	.st0{fill:url(#SVGID_1_);}
	.st1{fill:url(#SVGID_2_);}
	.st2{opacity:0.3;enable-background:new    ;}
	.st3{fill:#FFFFFF;}
</style>
<g>
	<g>
		
			<linearGradient id="SVGID_1_" gradientUnits="userSpaceOnUse" x1="0" y1="258" x2="512" y2="258" gradientTransform="matrix(1 0 0 -1 0 514)">
			<stop  offset="0" style="stop-color:#33B49D"/>
			<stop  offset="1" style="stop-color:#00A185"/>
		</linearGradient>
		<circle class="st0" cx="256" cy="256" r="256"/>
		
			<linearGradient id="SVGID_2_" gradientUnits="userSpaceOnUse" x1="42.6667" y1="257.9995" x2="469.3333" y2="257.9995" gradientTransform="matrix(1 0 0 -1 0 514)">
			<stop  offset="0" style="stop-color:#00A185"/>
			<stop  offset="1" style="stop-color:#33B49D"/>
		</linearGradient>
		<path class="st1" d="M256,469.3c-117.6,0-213.3-95.7-213.3-213.3c0-117.6,95.7-213.3,213.3-213.3c117.6,0,213.3,95.7,213.3,213.3
			C469.3,373.6,373.6,469.3,256,469.3z"/>
	</g>
	<path class="st2" d="M264,150.7l-120,43.6l3.4,9.3l18.1-6.6v180.4h77.2v-60.8h42.7v60.8h77.2V196.9l18.1,6.6l3.4-9.3L264,150.7z
		 M253.1,290.4h-60.4v-29.2h60.4V290.4z M253.1,238.9h-60.4v-29.2h60.4V238.9z M335.3,290.4h-60.4v-29.2h60.4V290.4z M335.3,238.9
		h-60.4v-29.2h60.4V238.9z"/>
	<path class="st3" d="M256,142.7l-120,43.6l3.4,9.3l18.1-6.6v180.4h77.2v-60.8h42.7v60.8h77.2V188.9l18.1,6.6l3.4-9.3L256,142.7z
		 M245.1,282.4h-60.4v-29.2h60.4V282.4z M245.1,230.9h-60.4v-29.2h60.4V230.9z M327.3,282.4h-60.4v-29.2h60.4V282.4z M327.3,230.9
		h-60.4v-29.2h60.4V230.9z"/>
</g>
</svg>
