<?xml version="1.0" encoding="utf-8"?>
<!-- Generator: Adobe Illustrator 24.1.2, SVG Export Plug-In . SVG Version: 6.00 Build 0)  -->
<svg version="1.1" id="Слой_1" xmlns="http://www.w3.org/2000/svg" xmlns:xlink="http://www.w3.org/1999/xlink" x="0px" y="0px"
	 viewBox="0 0 31.4 31.4" style="enable-background:new 0 0 31.4 31.4;" xml:space="preserve">
<style type="text/css">
	.st0{fill:#4AA0EC;}
	.st1{fill:none;stroke:#303030;stroke-width:0.7;stroke-linecap:round;stroke-linejoin:round;stroke-miterlimit:10;}
</style>
<g id="Icons">
	<path class="st0" d="M27.1,2.5c-2.1-2.1-5.5-2.1-7.6,0l-6.7,6.7c-0.9,0.9-1.4,2-1.5,3.1c-0.1,0.6-0.1,1.2,0,1.7
		c0,0.1,0.1,0.3,0.1,0.4c0.1,0.4,0.3,0.8,0.5,1.1l0,0c0.1,0.1,0.1,0.3,0.2,0.4c0.2,0.3,0.4,0.6,0.7,0.8c1.1,1.1,2.5,1.6,3.9,1.5
		l-0.5-1.6c-0.8-0.1-1.7-0.5-2.3-1.1c0,0,0,0,0,0c-0.1-0.1-0.3-0.3-0.4-0.4c-0.1-0.2-0.2-0.3-0.3-0.5c-0.2-0.3-0.3-0.7-0.3-1
		c0-0.2,0-0.3-0.1-0.5c0-0.6,0-1.1,0.3-1.6c0.2-0.5,0.5-0.9,0.8-1.3l6.7-6.7c1.5-1.5,3.9-1.5,5.4,0c1.5,1.5,1.5,3.9,0,5.4l-5.7,5.7
		l0,0c0,0,0,0,0,0l0.8,1.5c0,0,0,0,0,0l0,0l6-6C29.2,8,29.2,4.6,27.1,2.5z"/>
	<path class="st0" d="M19.3,15.6c-0.2-0.4-0.5-0.8-0.9-1.2c-1.1-1.1-2.5-1.6-3.9-1.6l0.5,1.6c0.8,0.1,1.6,0.5,2.3,1.1
		c0.3,0.3,0.5,0.6,0.7,0.9c0.3,0.5,0.4,1,0.4,1.5c0,0.6,0,1.1-0.3,1.7c-0.2,0.5-0.5,0.9-0.8,1.2l-6.7,6.7c-1.5,1.5-3.9,1.5-5.4,0
		c-1.5-1.5-1.5-3.9,0-5.4l5.7-5.7c-0.3-0.5-0.6-1-0.8-1.5l-6,6c-2.1,2.1-2.1,5.5,0,7.6c2.1,2.1,5.5,2.1,7.6,0l6.7-6.7
		c0.9-0.9,1.4-1.9,1.5-3.1c0.1-0.6,0.1-1.2,0-1.8C19.8,16.7,19.6,16.1,19.3,15.6z"/>
	<g>
		<path class="st1" d="M15,14.5c-0.6-0.7-0.5-1.6-0.5-1.6"/>
	</g>
	<path class="st1" d="M14.5,12.9c1.4-0.1,2.8,0.5,3.9,1.6c0.4,0.4,0.7,0.8,0.9,1.2c0.3,0.5,0.5,1,0.6,1.6c0.1,0.6,0.1,1.2,0,1.7
		c-0.1,1.1-0.7,2.2-1.5,3.1l-6.7,6.7c-2.1,2.1-5.5,2.1-7.6,0s-2.1-5.5,0-7.6l6-6c0.2,0.5,0.4,1,0.8,1.5l-5.7,5.7
		c-1.5,1.5-1.5,3.9,0,5.4s3.9,1.5,5.4,0l6.7-6.7c0.4-0.4,0.6-0.8,0.8-1.2c0.2-0.5,0.3-1.1,0.3-1.7c0-0.5-0.2-1.1-0.4-1.5
		c-0.2-0.3-0.4-0.7-0.7-0.9c-0.6-0.6-1.4-1-2.3-1.1"/>
	<path class="st1" d="M16.7,18.3c-1.4,0.1-2.8-0.5-3.9-1.5c-1-1.1-1.4-2.2-1.5-2.8c-0.1-0.6-0.1-1.1-0.1-1.7
		c0.2-1.1,0.7-2.2,1.5-3.1l6.7-6.7c2.1-2.1,5.5-2.1,7.6,0c2.1,2.1,2.1,5.5,0,7.6l-6,6c-0.2-0.5-0.4-1-0.8-1.5L25.9,9
		c1.5-1.5,1.5-3.9,0-5.4c-1.5-1.5-3.9-1.5-5.4,0l-6.7,6.7c-0.4,0.4-0.6,0.8-0.8,1.3c-0.2,0.5-0.3,1.1-0.3,1.7c0,0.5,0.2,1.1,0.4,1.5
		c0.2,0.3,0.4,0.7,0.7,0.9c0,0,0,0,0,0c0.6,0.6,1.5,1,2.3,1.1C16.8,17.3,16.7,18.3,16.7,18.3z"/>
</g>
</svg>
