<?xml version="1.0" encoding="utf-8"?>
<!-- Generator: Adobe Illustrator 24.1.2, SVG Export Plug-In . SVG Version: 6.00 Build 0)  -->
<svg version="1.1" id="Layer_3" xmlns="http://www.w3.org/2000/svg" xmlns:xlink="http://www.w3.org/1999/xlink" x="0px" y="0px"
	 viewBox="0 0 1147.4 1234.2" style="enable-background:new 0 0 1147.4 1234.2;" xml:space="preserve">
<style type="text/css">
	.st0{fill:#E0E1E2;}
	.st1{fill:#2E3A58;}
	.st2{fill:#1682FC;}
</style>
<path class="st0" d="M1084.5,1141.6H203.4c-56.5,0-102.2-45.7-102.3-102.2V183.8c0-6.3,0.6-12.7,1.8-18.9
	c-41.5,24-67.1,68.3-67.1,116.3v791.4c0,74.2,60.1,134.3,134.3,134.3l0,0h817c48,0,92.3-25.6,116.3-67.1
	C1097.2,1141,1090.8,1141.6,1084.5,1141.6z"/>
<path class="st1" d="M1116.8,353.9H35.8c-8.3,0-15-6.7-15-15s6.7-15,15-15h1081c8.3,0,15,6.7,15,15S1125.1,353.9,1116.8,353.9z"/>
<path class="st1" d="M981.1,1221.9H171.5c-83.1,0-150.7-67.6-150.7-150.7V282.6c0-74.8,54.9-138.3,128.9-149.1
	c8.2-1.2,15.8,4.5,17,12.7s-4.5,15.8-12.7,17c-59.3,8.6-103.2,59.5-103.2,119.4v788.6c0.1,66.6,54.1,120.6,120.7,120.7h809.6
	c66.6-0.1,120.6-54.1,120.7-120.7V282.6c0-59.5-43.3-110.1-102-119.3c-8.2-0.8-14.3-8.2-13.4-16.4s8.2-14.3,16.4-13.4
	c0.5,0.1,1.1,0.1,1.6,0.3c73.4,11.4,127.4,74.6,127.4,148.9v788.6C1131.8,1154.3,1064.2,1221.9,981.1,1221.9z"/>
<path class="st1" d="M903.3,161.9h-151c-8.3,0-15-6.7-15-15s6.7-15,15-15h151c8.3,0,15,6.7,15,15S911.6,161.9,903.3,161.9z"/>
<path class="st1" d="M654.4,161.9H501.5c-8.3,0-15-6.7-15-15s6.7-15,15-15h152.9c8.3,0,15,6.7,15,15
	C669.4,155.2,662.7,161.9,654.4,161.9z"/>
<path class="st1" d="M402.7,161.9H253.5c-8.3,0-15-6.7-15-15s6.7-15,15-15h149.2c8.3,0,15,6.7,15,15S411,161.9,402.7,161.9z"/>
<polygon class="st2" points="647.7,687.8 647.7,544.9 504.9,544.9 504.9,687.8 362,687.8 362,830.6 504.9,830.6 504.9,973.5 
	647.7,973.5 647.7,830.6 790.6,830.6 790.6,687.8 "/>
<path class="st2" d="M576.3,1076.5c-16.7,0-33.4-1.3-49.9-3.9c-2.7-0.5-4.6-3-4.1-5.8l0,0c0.4-2.7,2.9-4.5,5.6-4.1h0.1
	c19.4,3,39.1,4.2,58.8,3.6c2.8-0.1,5.1,2,5.2,4.8l0,0c0.1,2.8-2,5.1-4.8,5.2h-0.1L576.3,1076.5z M646.4,1068.6
	c-2.8,0.1-5.1-2-5.2-4.8c-0.1-2.5,1.6-4.7,4-5.1c19.2-4.4,37.9-10.7,55.9-18.7c2.5-1.1,5.5,0,6.7,2.5c1.1,2.5,0,5.5-2.6,6.7l0,0
	c-18.6,8.2-37.9,14.7-57.7,19.2L646.4,1068.6z M469.2,1057.6l-1.7-0.3c-19.1-7-37.5-15.8-54.9-26.3c-2.3-1.4-3.1-4.4-1.7-6.8
	c1.3-2.4,4.3-3.2,6.7-1.8c0.1,0,0.1,0.1,0.2,0.1c16.8,10.1,34.6,18.6,53.1,25.4c2.6,0.9,3.9,3.8,3,6.4
	C473.2,1056.3,471.3,1057.7,469.2,1057.6L469.2,1057.6z M755.3,1020.1c-1.6,0-3.1-0.8-4.1-2.1c-1.6-2.3-1-5.4,1.2-7
	c16.1-11.3,31.1-24.1,44.8-38.3c1.9-2,5.1-2,7.1-0.1l0,0c2,1.9,2,5.1,0.1,7.1l0,0c-14.1,14.6-29.6,27.8-46.2,39.5
	C757.3,1019.8,756.3,1020.1,755.3,1020.1L755.3,1020.1z M367.1,996c-1.2,0-2.4-0.4-3.3-1.3c-15.1-13.6-28.9-28.7-41.1-44.9
	c-1.7-2.2-1.2-5.3,1-7c2.2-1.6,5.3-1.2,7,1c11.9,15.7,25.2,30.3,39.8,43.5c2,1.9,2.2,5,0.3,7.1l0,0C369.9,995.4,368.5,996,367.1,996
	z M838.2,934.3c-1,0-2-0.2-2.8-0.8c-2.3-1.5-2.9-4.6-1.4-6.9c10.7-16.5,19.8-34,27.2-52.2c1.1-2.6,4-3.8,6.6-2.8
	c2.5,1.1,3.7,4,2.7,6.5c-7.7,18.8-17.1,36.9-28.1,54C841.4,933.5,839.9,934.3,838.2,934.3z M295.4,900.7c-1.9,0-3.7-1.1-4.5-2.8
	c-8.9-18.3-16-37.4-21.2-57c-0.7-2.6,0.8-5.3,3.4-6.1h0.1c2.6-0.7,5.4,0.9,6.1,3.5c5.1,19,12,37.6,20.6,55.3
	c1.2,2.4,0.2,5.4-2.2,6.6h-0.1C296.9,900.6,296.2,900.7,295.4,900.7L295.4,900.7z M882.9,823.8h-1c-2.6-0.4-4.4-2.9-4-5.5
	c0-0.1,0-0.2,0.1-0.3c6.4-33.2,7.3-67.1,2.7-100.6c-0.4-2.7,1.6-5.2,4.3-5.6c2.7-0.4,5.2,1.4,5.6,4.1c0,0.1,0,0.1,0,0.2
	c2,14.3,3,28.7,3,43.2c0,20.3-2,40.6-5.8,60.6C887.3,822.2,885.2,823.8,882.9,823.8L882.9,823.8z M264.8,785.5c-2.6,0-4.8-2-5-4.6
	c-0.5-7.2-0.8-14.5-0.8-21.7c0-13.1,0.8-26.1,2.4-39.1c0.4-2.7,2.8-4.7,5.6-4.4c2.7,0.3,4.7,2.8,4.4,5.5c0,0,0,0,0,0.1
	c-1.6,12.6-2.4,25.2-2.4,37.9c0,7,0.3,14.1,0.8,21c0.2,2.8-1.9,5.1-4.7,5.3l0,0L264.8,785.5z M279.4,667.2l-1.5-0.2
	c-2.6-0.8-4-3.5-3.3-6.1c0-0.1,0-0.1,0.1-0.2c6.2-19.4,14.4-38.1,24.3-55.8c1.4-2.4,4.4-3.3,6.8-1.9c2.4,1.4,3.3,4.4,2,6.8l0,0
	c-9.7,17.2-17.6,35.3-23.6,54C283.5,665.9,281.6,667.2,279.4,667.2L279.4,667.2z M871.9,663.4c-2.1,0-4-1.4-4.7-3.4
	c-6.4-18.6-14.5-36.6-24.3-53.7c-1.6-2.2-1.1-5.4,1.1-7s5.4-1.1,7,1.1c0.2,0.3,0.4,0.6,0.5,0.9c10.2,17.6,18.6,36.2,25.1,55.4
	c0.9,2.6-0.4,5.5-3,6.4c0,0,0,0-0.1,0C873,663.3,872.4,663.4,871.9,663.4L871.9,663.4z M337.5,563.1c-2.8,0-5.1-2.4-5-5.2
	c0-1.1,0.4-2.2,1.1-3.1c13.1-15.5,27.7-29.8,43.5-42.5c2.3-1.5,5.4-0.9,6.9,1.4c1.3,2,1,4.6-0.6,6.3c-15.3,12.4-29.4,26.2-42.1,41.3
	C340.3,562.4,339,563,337.5,563.1z M812.5,560c-1.5,0-2.9-0.7-3.8-1.8c-12.9-14.9-27.2-28.5-42.6-40.7c-2.2-1.7-2.6-4.8-0.9-7
	c1.8-2.1,4.9-2.5,7.1-0.8c16,12.6,30.7,26.6,44,42c1.8,2,1.6,5.1-0.4,6.9l-0.1,0.1C814.9,559.5,813.7,560,812.5,560z M430.2,488.1
	c-1.8,0-3.5-1-4.4-2.6c-1.3-2.5-0.3-5.5,2.1-6.8c18-9.5,36.8-17.3,56.3-23.2c2.7-0.8,5.4,0.7,6.3,3.3s-0.7,5.4-3.3,6.3
	c-18.8,5.7-37.1,13.3-54.5,22.5C431.9,488,431,488.1,430.2,488.1z M718.8,486.3c-0.8,0-1.6-0.2-2.3-0.6c-17.5-9-35.9-16.3-54.8-21.7
	c-2.6-0.8-4.2-3.6-3.4-6.2c0.8-2.6,3.5-4.2,6.2-3.4c19.5,5.6,38.4,13.1,56.5,22.4c2.5,1.2,3.5,4.2,2.3,6.7
	C722.5,485.2,720.7,486.3,718.8,486.3L718.8,486.3z M544.3,453.6c-2.8,0.1-5.1-2-5.3-4.8s2-5.1,4.8-5.3c10.8-1.1,21.6-1.7,32.5-1.7
	c9.5,0,19,0.5,28.4,1.3c2.8,0.2,4.8,2.7,4.6,5.5c-0.2,2.8-2.7,4.8-5.5,4.5c-9.1-0.8-18.3-1.3-27.5-1.3s-21.1,0.6-31.5,1.6
	L544.3,453.6z"/>
<path class="st2" d="M203.1,271.2c-33.8-0.1-61.2-27.5-61.3-61.3v-126c-1.4-33.8,24.9-62.4,58.8-63.7c33.8-1.4,62.4,24.9,63.7,58.8
	c0.1,1.6,0.1,3.3,0,5v126C264.3,243.7,236.9,271.1,203.1,271.2z M203.1,52.6c-17.3,0-31.3,14-31.3,31.3v126
	c0,17.3,14,31.3,31.3,31.3l0,0c17.2-0.1,31.2-14.1,31.2-31.3v-126C234.3,66.7,220.3,52.7,203.1,52.6L203.1,52.6z"/>
<path class="st2" d="M451.9,271.2c-33.8-0.1-61.2-27.5-61.3-61.3v-126c0-33.9,27.4-61.3,61.3-61.3c33.9,0,61.3,27.4,61.3,61.3V84
	v126C513.1,243.7,485.7,271.1,451.9,271.2z M451.9,52.6c-17.3,0-31.3,14-31.3,31.3v126c0,17.3,14,31.3,31.3,31.3s31.3-14,31.3-31.3
	c0,0,0,0,0-0.1v-126C483.1,66.6,469.2,52.7,451.9,52.6L451.9,52.6z"/>
<path class="st2" d="M700.7,271.2c-33.8-0.1-61.2-27.5-61.3-61.3v-126c0-33.9,27.4-61.3,61.3-61.3S762,50,762,83.9V84v126
	C761.9,243.7,734.5,271.1,700.7,271.2z M700.7,52.6c-17.3,0.1-31.2,14-31.3,31.3v126c0,17.3,14,31.3,31.3,31.3s31.3-14,31.3-31.3
	c0,0,0,0,0-0.1v-126C732,66.6,718,52.6,700.7,52.6L700.7,52.6z"/>
<path class="st2" d="M949.5,271.2c-33.8-0.1-61.2-27.5-61.2-61.3v-126c-1.4-33.8,24.9-62.4,58.8-63.7c33.8-1.4,62.4,24.9,63.7,58.8
	c0.1,1.6,0.1,3.3,0,5v126C1010.7,243.7,983.3,271.1,949.5,271.2z M949.5,52.6c-17.2,0.1-31.2,14.1-31.2,31.3v126
	c-1,17.3,12.2,32,29.5,33s32-12.2,33-29.5c0.1-1.2,0.1-2.4,0-3.5v-126C980.8,66.6,966.8,52.6,949.5,52.6L949.5,52.6L949.5,52.6z"/>
</svg>
