<?xml version="1.0" encoding="utf-8"?>
<!-- Generator: Adobe Illustrator 24.1.2, SVG Export Plug-In . SVG Version: 6.00 Build 0)  -->
<svg version="1.1" id="Слой_1" xmlns="http://www.w3.org/2000/svg" xmlns:xlink="http://www.w3.org/1999/xlink" x="0px" y="0px"
	 viewBox="0 0 1616.4 1246" style="enable-background:new 0 0 1616.4 1246;" xml:space="preserve">
<style type="text/css">
	.st0{fill:#42C1C7;stroke:#E90027;stroke-miterlimit:10;}
	.st1{fill:#F5CEB7;}
	.st2{fill:#F44747;}
	.st3{opacity:0.12;fill:#17292D;enable-background:new    ;}
	.st4{fill:#A23F97;stroke:#A23F77;stroke-width:2;stroke-miterlimit:10;}
	.st5{fill:#A23F97;stroke:#A23F77;stroke-miterlimit:10;}
</style>
<path class="st0" d="M494.8,488"/>
<path class="st1" d="M985.4,203c-5,159.7-155.1,266.4-223,306.6c-20.3,12-45.5,12-65.8,0c-68-40.2-218-146.9-223.1-306.6
	c-2.5-78.3,57.9-145.6,134.8-145.3c53.6,0.2,99.8,32.3,121.2,78.6c21.4-46.3,67.6-78.4,121.2-78.6C927.5,57.5,987.9,124.8,985.4,203
	z"/>
<path class="st2" d="M959.9,262.6H806.3l-38.4,64l-51.2-102.4L665.5,301l-25.6-38.4H499c0,0-6.3,0.6-16.1,1.8
	c34.5,125.8,154.8,210.4,213.7,245.3c20.3,12,45.5,12,65.8,0c59.1-35,180.3-120.3,214.2-247L959.9,262.6z"/>
<path class="st3" d="M850.7,57.8c-14.4,0.1-28.7,2.5-42.4,7.2c60.2,20.3,102.5,80.7,100.4,149c-4.5,143.1-117.3,246.5-197,302.1
	c17.1,4.9,35.4,2.6,50.7-6.4c68-40.2,218-146.9,223-306.6C987.9,124.8,927.5,57.5,850.7,57.8z"/>
<g>
	<path class="st4" d="M167.1,509.7v142.9l14,0.5l-1.4,54.7h-16.1l-1.4-38.4H61.4L60,707.9H43.9l-1.4-54.7l12.1-0.5
		c5.9-10.9,11.9-22.5,15.6-35.1c5.5-18.5,7.6-39.8,7.6-67.3v-40.5L167.1,509.7L167.1,509.7z M97,556.9c0,25.6-2.4,47.2-8.1,65.2
		c-3.3,11.1-8.3,21.8-13,30.3h70.6V526.8H97V556.9z"/>
	<path class="st4" d="M216.7,615.9c0.5,28.2,18.5,39.8,39.3,39.8c14.9,0,23.9-2.6,31.8-5.9l3.6,14.9c-7.3,3.3-19.9,7.1-38.2,7.1
		c-35.3,0-56.4-23.2-56.4-57.8c0-34.6,20.4-61.9,53.8-61.9c37.4,0,47.4,32.9,47.4,54c0,4.3-0.5,7.6-0.7,9.7L216.7,615.9L216.7,615.9
		z M277.8,601c0.2-13.3-5.5-33.9-28.9-33.9c-21.1,0-30.3,19.4-32,33.9L277.8,601L277.8,601z"/>
	<path class="st4" d="M400.3,554.8v16.5h-35.8v98.1h-20.6v-98.1h-35.8v-16.6h92.2V554.8z"/>
	<path class="st4" d="M497.3,665.2c-5.5,2.8-17.5,6.6-32.9,6.6c-34.6,0-57.1-23.5-57.1-58.5c0-35.3,24.2-60.9,61.6-60.9
		c12.3,0,23.2,3.1,28.9,5.9l-4.7,16.1c-5-2.8-12.8-5.5-24.2-5.5c-26.3,0-40.5,19.4-40.5,43.4c0,26.5,17.1,42.9,39.8,42.9
		c11.8,0,19.7-3.1,25.6-5.7L497.3,665.2z"/>
	<path class="st4" d="M542.3,554.8v49.8h5l43.1-49.8h25.4l-50,51.9c18.5,1.9,29.6,14.2,38.6,34.8c3.1,7.6,7.1,18.7,12.3,28h-21.8
		c-3.1-5-7.1-14-10.7-23.5c-7.8-18.5-18.5-27-37.9-27h-4v50.5h-20.6V554.8H542.3z"/>
	<path class="st4" d="M701.1,669.5l-1.7-14.5h-0.7c-6.4,9-18.7,17.1-35.1,17.1c-23.2,0-35.1-16.4-35.1-32.9
		c0-27.7,24.6-42.9,69-42.7v-2.4c0-9.5-2.6-26.5-26.1-26.5c-10.7,0-21.8,3.3-29.9,8.5l-4.7-13.7c9.5-6.2,23.2-10.2,37.7-10.2
		c35.1,0,43.6,23.9,43.6,46.9V642c0,10,0.5,19.7,1.9,27.5H701.1L701.1,669.5z M698,610.9c-22.8-0.5-48.6,3.6-48.6,25.8
		c0,13.5,9,19.9,19.7,19.9c14.9,0,24.4-9.5,27.7-19.2c0.7-2.1,1.2-4.5,1.2-6.6L698,610.9L698,610.9z"/>
	<path class="st4" d="M837.1,669.5h-20.6v-48.1h-15.4c-8.8,0-14.7,2.4-19.2,6.4c-8.5,6.9-11.6,21.1-16.1,32.2
		c-1.4,3.6-3.1,6.6-4.7,9.5h-22.3c2.6-3.8,5-8.1,7.1-13c5-11.1,7.8-26.1,18-34.6c3.6-3.1,7.8-5.7,13-6.6v-0.7
		c-14.9-1.7-30.3-10.9-30.3-28.4c0-11.9,6.4-19.9,15.2-24.9c9.5-5.5,23.5-7.8,38.4-7.8c13.7,0,27,1.2,37,2.4v113.6H837.1z
		 M816.5,568.5c-5.2-0.7-10-1.2-17.3-1.2c-14.2,0-31,4-31,19.9c0,14.7,18.2,19.9,30.6,19.9c8.5,0,13,0,17.8,0L816.5,568.5
		L816.5,568.5z"/>
</g>
<g>
	<path class="st4" d="M88.1,741.8v114.8H73.3V754.3H19.9v102.4H5.1V741.8H88.1z"/>
	<path class="st4" d="M188.1,814.8c0,30.5-21.1,43.8-41.1,43.8c-22.3,0-39.5-16.4-39.5-42.4c0-27.6,18.1-43.8,40.9-43.8
		C172.1,772.3,188.1,789.5,188.1,814.8z M122.7,815.6c0,18.1,10.4,31.7,25,31.7c14.3,0,25-13.5,25-32c0-14-7-31.7-24.7-31.7
		S122.7,799.9,122.7,815.6z"/>
	<path class="st4" d="M269.5,774.2v82.5h-14.8V786h-28.3v21.5c0,23.2-2.2,38.7-12.9,45.7c-4.1,3.2-8.7,5.1-16.4,5.1l-1.5-11.8
		c2.9-0.5,6.1-1.7,8.2-3.4c7.7-5.6,8.5-17.2,8.5-35.6v-33.2h57.2V774.2z"/>
	<path class="st4" d="M307.9,774.2V809c0,13.1-0.2,21.3-0.9,33.1l0.5,0.2c4.9-10.1,7.8-15.8,13.3-25.4l25.7-42.6H364v82.5h-14.3
		v-34.9c0-13.5,0.3-20.4,1-33.7h-0.5c-5.3,10.6-8.9,17.2-13.6,25.6c-7.8,12.8-16.9,28.6-25.7,43.1h-17.2v-82.5h14.2V774.2z"/>
	<path class="st4" d="M403.3,774.2V810h3.6l31-35.8h18.2l-36,37.3c13.3,1.4,21.3,10.2,27.8,25c2.2,5.5,5.1,13.5,8.9,20.1h-15.7
		c-2.2-3.6-5.1-10.1-7.7-16.9c-5.6-13.3-13.3-19.4-27.3-19.4h-2.9v36.3h-14.8v-82.5L403.3,774.2L403.3,774.2z"/>
	<path class="st4" d="M536.5,774.2v82.5h-14.8V786h-28.3v21.5c0,23.2-2.2,38.7-12.9,45.7c-4.1,3.2-8.7,5.1-16.4,5.1l-1.5-11.8
		c2.9-0.5,6.1-1.7,8.2-3.4c7.7-5.6,8.5-17.2,8.5-35.6v-33.2h57.2V774.2z"/>
	<path class="st4" d="M574.9,774.2V809c0,13.1-0.2,21.3-0.9,33.1l0.5,0.2c4.9-10.1,7.8-15.8,13.3-25.4l25.7-42.6H631v82.5h-14.3
		v-34.9c0-13.5,0.3-20.4,1-33.7h-0.5c-5.3,10.6-8.9,17.2-13.6,25.6c-7.8,12.8-16.9,28.6-25.7,43.1h-17.2v-82.5h14.2V774.2z"/>
	<path class="st4" d="M669.9,774.2v33.2h39.2v-33.2h14.8v82.5h-14.8v-37.3h-39.2v37.3h-14.8v-82.5H669.9z"/>
	<path class="st4" d="M762.3,774.2V809c0,13.1-0.2,21.3-0.9,33.1l0.5,0.2c4.9-10.1,7.8-15.8,13.3-25.4l25.7-42.6h17.5v82.5h-14.3
		v-34.9c0-13.5,0.3-20.4,1-33.7h-0.5c-5.3,10.6-8.9,17.2-13.6,25.6c-7.8,12.8-16.9,28.6-25.7,43.1h-17.2v-82.5h14.2V774.2z"/>
	<path class="st4" d="M857.7,774.2V810h3.6l31-35.8h18.2l-36,37.3c13.3,1.4,21.3,10.2,27.8,25c2.2,5.5,5.1,13.5,8.9,20.1h-15.7
		c-2.2-3.6-5.1-10.1-7.7-16.9c-5.6-13.3-13.3-19.4-27.3-19.4h-2.9v36.3h-14.8v-82.5L857.7,774.2L857.7,774.2z"/>
	<path class="st4" d="M971.8,856.7l-1.2-10.4h-0.5c-4.6,6.5-13.5,12.3-25.2,12.3c-16.7,0-25.2-11.8-25.2-23.7
		c0-19.9,17.7-30.8,49.6-30.7v-1.7c0-6.8-1.9-19.1-18.7-19.1c-7.7,0-15.7,2.4-21.5,6.1l-3.4-9.9c6.8-4.4,16.7-7.3,27.1-7.3
		c25.2,0,31.4,17.2,31.4,33.7v30.8c0,7.2,0.3,14.1,1.4,19.8h-13.8V856.7z M969.6,814.6c-16.4-0.3-34.9,2.6-34.9,18.6
		c0,9.7,6.5,14.3,14.1,14.3c10.7,0,17.5-6.8,19.9-13.8c0.5-1.5,0.9-3.2,0.9-4.8V814.6z"/>
</g>
<g>
	<path class="st4" d="M1045.3,897.6v-31.7l40.4-39.3C1183,734,1227,684.7,1227.6,627.3c0-38.7-18.8-74.4-75.6-74.4
		c-34.6,0-63.3,17.6-80.9,32.2l-16.4-36.3c26.4-22.3,63.9-38.7,107.9-38.7c82.1,0,116.7,56.3,116.7,110.8
		c0,70.3-51,127.2-131.3,204.6l-30.5,28.1v1.2h171.2v42.8H1045.3z"/>
	<path class="st4" d="M1375.9,861.3c11.1,1.2,24,0,41.6-1.8c29.9-4.1,58-16.4,79.7-36.9c25.2-22.9,43.4-56.3,50.4-101.4h-1.8
		c-21.1,25.8-51.6,41-89.7,41c-68.6,0-112.6-51.6-112.6-116.7c0-72.1,52.2-135.4,130.1-135.4s126,63.3,126,160.6
		c0,83.8-28.1,142.4-65.7,178.8c-29.3,28.7-69.8,46.3-110.8,51c-18.8,2.9-35.2,3.5-47.5,2.9v-42.1H1375.9z M1394.7,642.1
		c0,47.5,28.7,80.9,73.3,80.9c34.6,0,61.6-17,75-39.9c2.9-4.7,4.7-10.6,4.7-18.8c0-65.1-24-114.9-78-114.9
		C1425.8,549.4,1394.7,588.1,1394.7,642.1z"/>
</g>
<g>
	<path class="st5" d="M39.3,1023.2c0,13.9-7.9,21.3-17.5,21.3c-9.8,0-16.8-8.3-16.8-20.6c0-12.9,7.4-21.3,17.5-21.3
		C32.7,1002.7,39.3,1011.1,39.3,1023.2z M10.2,1023.8c0,8.7,4.3,16.4,12,16.4s12-7.6,12-16.8c0-8.1-3.9-16.5-12-16.5
		C14.2,1006.9,10.2,1014.9,10.2,1023.8z"/>
	<path class="st5" d="M64.4,1014.7v4.2H56v24.9h-4.9v-24.9h-8.4v-4.2H64.4z"/>
	<path class="st5" d="M88,1014.7v25.1l2.8,0.1l-0.3,13.2h-3.8l-0.2-9.3H67.7l-0.2,9.3h-3.8l-0.2-13.2l2.3-0.1c1.2-1.9,2.1-3.8,2.7-6
		c1.1-3.6,1.6-7.5,1.6-11.6v-7.6L88,1014.7L88,1014.7z M74.3,1023.6c0,3.8-0.5,7.6-1.4,10.8c-0.6,2-1.3,3.8-2.2,5.4h12.4v-21h-8.9
		L74.3,1023.6L74.3,1023.6z"/>
	<path class="st5" d="M99.1,1030.3c0.1,7.2,4.3,10.1,9.3,10.1c3.5,0,5.6-0.7,7.5-1.5l0.8,3.8c-1.7,0.8-4.7,1.8-9,1.8
		c-8.3,0-13.3-5.9-13.3-14.7c0-8.8,4.8-15.7,12.7-15.7c8.8,0,11.2,8.4,11.2,13.7c0,1.1-0.1,1.9-0.2,2.5H99.1L99.1,1030.3z
		 M113.5,1026.5c0.1-3.4-1.3-8.6-6.8-8.6c-5,0-7.1,4.9-7.5,8.6H113.5z"/>
	<path class="st5" d="M144.9,1014.7v29.1H140v-25h-9.3v7.6c0,8.2-0.7,13.6-4.2,16.1c-1.3,1.1-2.8,1.8-5.4,1.8l-0.5-4.1
		c0.9-0.2,2-0.6,2.7-1.2c2.5-2,2.8-6.1,2.8-12.6v-11.7L144.9,1014.7L144.9,1014.7z"/>
	<path class="st5" d="M163.4,1005.7c2.6-1.8,5.9-3.1,9.9-3.1c6.5,0,11,3.7,11,9.9c0,5-3.3,8.8-7.8,9.9v0.1c5.3,0.6,9.1,4.3,9.1,10.2
		c0,8.4-6.7,11.8-13.6,11.8c-3.4,0-7-0.8-9.8-2.6l1.3-4.1c2,1.3,5.4,2.5,8.4,2.5c5.6,0,8.6-3.2,8.6-7.7c0-6.1-5.4-7.8-10.2-7.8h-2.2
		v-4h2.2c5,0,8.8-3.3,8.8-7.5c0-4.1-2.7-6.4-6.7-6.4c-2.8,0-5.8,1.3-7.8,2.6L163.4,1005.7z"/>
	<path class="st5" d="M212.8,1014.7v25.1l2.8,0.1l-0.3,13.2h-3.8l-0.2-9.3h-18.7l-0.2,9.3h-3.8l-0.2-13.2l2.3-0.1
		c1.2-1.9,2.1-3.8,2.7-6c1.1-3.6,1.6-7.5,1.6-11.6v-7.6L212.8,1014.7L212.8,1014.7z M199.2,1023.6c0,3.8-0.5,7.6-1.4,10.8
		c-0.6,2-1.3,3.8-2.2,5.4H208v-21h-8.9L199.2,1023.6L199.2,1023.6z"/>
	<path class="st5" d="M221.5,1024.2c0-3.7-0.1-6.7-0.2-9.5h4.4l0.2,5h0.1c2-3.5,5.2-5.7,9.6-5.7c6.5,0,11.4,6,11.4,14.8
		c0,10.5-5.9,15.6-12.3,15.6c-3.6,0-6.7-1.7-8.3-4.6h-0.1v15.8h-4.9v-31.4H221.5z M226.3,1032c0,0.8,0.1,1.5,0.2,2.2
		c0.9,3.7,3.8,6.2,7.4,6.2c5.2,0,8.2-4.6,8.2-11.2c0-5.8-2.8-10.8-8-10.8c-3.3,0-6.5,2.6-7.4,6.6c-0.2,0.7-0.3,1.4-0.3,2.2
		L226.3,1032L226.3,1032z"/>
	<path class="st5" d="M268.2,1043.8l-0.4-3.7h-0.2c-1.5,2.3-4.4,4.3-8.3,4.3c-5.5,0-8.3-4.1-8.3-8.4c0-7,5.8-10.9,16.2-10.8v-0.6
		c0-2.4-0.6-6.7-6.1-6.7c-2.5,0-5.1,0.8-7,2.2l-1.1-3.5c2.2-1.6,5.5-2.6,8.9-2.6c8.3,0,10.3,6.1,10.3,11.9v10.9c0,2.5,0.1,5,0.4,7
		L268.2,1043.8L268.2,1043.8z M267.4,1029c-5.4-0.1-11.4,0.9-11.4,6.6c0,3.4,2.1,5.1,4.6,5.1c3.5,0,5.7-2.4,6.5-4.9
		c0.2-0.5,0.3-1.1,0.3-1.7V1029z"/>
	<path class="st5" d="M280,1015.1c1.9-0.4,5.4-0.7,8.6-0.7c4.5,0,12,0.8,12,7.3c0,3.6-2.6,5.8-5.6,6.6v0.1c4,0.6,6.9,3,6.9,7.2
		c0,7.6-8.9,8.6-14.2,8.6c-3,0-6.1-0.2-7.6-0.4L280,1015.1L280,1015.1z M284.6,1040.4c1.4,0.2,2.4,0.2,4,0.2c3.3,0,8.2-0.8,8.2-5.1
		c0-4.3-3.9-5.1-8.6-5.1h-3.6V1040.4z M284.7,1027h3.7c3.6,0,7.4-1.1,7.4-4.6c0-2.9-2.3-4.3-7.2-4.3c-1.6,0-2.6,0.1-3.8,0.2v8.7
		H284.7z"/>
	<path class="st5" d="M332.4,1029.1c0,10.8-6.9,15.5-13.4,15.5c-7.3,0-12.9-5.8-12.9-15c0-9.7,5.9-15.5,13.4-15.5
		C327.2,1014.1,332.4,1020.2,332.4,1029.1z M311,1029.4c0,6.4,3.4,11.2,8.2,11.2c4.7,0,8.2-4.8,8.2-11.3c0-4.9-2.3-11.2-8.1-11.2
		S311,1023.8,311,1029.4z"/>
	<path class="st5" d="M363,1029.1c0,10.8-6.9,15.5-13.4,15.5c-7.3,0-12.9-5.8-12.9-15c0-9.7,5.9-15.5,13.4-15.5
		C357.8,1014.1,363,1020.2,363,1029.1z M341.6,1029.4c0,6.4,3.4,11.2,8.2,11.2c4.7,0,8.2-4.8,8.2-11.3c0-4.9-2.3-11.2-8.1-11.2
		S341.6,1023.8,341.6,1029.4z"/>
	<path class="st5" d="M370.8,1014.7l3.8,6.3c1,1.6,1.8,3.1,2.7,4.8h0.2c0.9-1.7,1.8-3.2,2.7-4.8l3.8-6.2h5.3l-9.2,14.1l9.5,15H384
		l-4-6.6c-1.1-1.7-2-3.3-2.9-5.1H377c-0.9,1.7-1.8,3.3-2.8,5.1l-3.9,6.6h-5.4l9.6-14.9l-9.1-14.2L370.8,1014.7L370.8,1014.7z"/>
	<path class="st5" d="M394.3,1024.2c0-3.7-0.1-6.7-0.2-9.5h4.4l0.2,5h0.1c2-3.5,5.2-5.7,9.6-5.7c6.5,0,11.4,6,11.4,14.8
		c0,10.5-5.9,15.6-12.3,15.6c-3.6,0-6.7-1.7-8.3-4.6h-0.1v15.8h-4.9L394.3,1024.2L394.3,1024.2z M399.1,1032c0,0.8,0.1,1.5,0.2,2.2
		c0.9,3.7,3.8,6.2,7.4,6.2c5.2,0,8.2-4.6,8.2-11.2c0-5.8-2.8-10.8-8-10.8c-3.3,0-6.5,2.6-7.4,6.6c-0.2,0.7-0.3,1.4-0.3,2.2v4.8
		H399.1z"/>
	<path class="st5" d="M441,1043.8l-0.4-3.7h-0.2c-1.5,2.3-4.4,4.3-8.3,4.3c-5.5,0-8.3-4.1-8.3-8.4c0-7,5.8-10.9,16.2-10.8v-0.6
		c0-2.4-0.6-6.7-6.1-6.7c-2.5,0-5.1,0.8-7,2.2l-1.1-3.5c2.2-1.6,5.5-2.6,8.9-2.6c8.3,0,10.3,6.1,10.3,11.9v10.9c0,2.5,0.1,5,0.4,7
		L441,1043.8L441,1043.8z M440.2,1029c-5.4-0.1-11.4,0.9-11.4,6.6c0,3.4,2.1,5.1,4.6,5.1c3.5,0,5.7-2.4,6.5-4.9
		c0.2-0.5,0.3-1.1,0.3-1.7V1029z"/>
	<path class="st5" d="M457.6,1014.7v11.7h12.8v-11.7h4.9v29.1h-4.9v-13.2h-12.8v13.2h-4.9v-29.1H457.6z"/>
	<path class="st5" d="M486.1,1030.3c0.1,7.2,4.3,10.1,9.3,10.1c3.5,0,5.6-0.7,7.5-1.5l0.8,3.8c-1.7,0.8-4.7,1.8-9,1.8
		c-8.3,0-13.3-5.9-13.3-14.7c0-8.8,4.8-15.7,12.7-15.7c8.8,0,11.2,8.4,11.2,13.7c0,1.1-0.1,1.9-0.2,2.5H486.1L486.1,1030.3z
		 M500.5,1026.5c0.1-3.4-1.3-8.6-6.8-8.6c-5,0-7.1,4.9-7.5,8.6H500.5z"/>
	<path class="st5" d="M516,1014.7v11.7h12.8v-11.7h4.9v29.1h-4.9v-13.2H516v13.2h-4.9v-29.1H516z"/>
	<path class="st5" d="M546.3,1014.7v12.3c0,4.6-0.1,7.5-0.3,11.7l0.2,0.1c1.6-3.5,2.6-5.6,4.3-9l8.4-15h5.7v29.1H560v-12.3
		c0-4.8,0.1-7.2,0.3-11.9h-0.2c-1.7,3.7-2.9,6.1-4.5,9c-2.6,4.5-5.5,10.1-8.4,15.2h-5.6v-29.1L546.3,1014.7L546.3,1014.7z"/>
	<path class="st5" d="M592.5,1043.8h-4.9v-12.2H584c-2.1,0-3.5,0.6-4.5,1.6c-2,1.7-2.7,5.4-3.8,8.2c-0.3,0.9-0.7,1.7-1.1,2.4h-5.2
		c0.6-1,1.2-2,1.7-3.3c1.2-2.8,1.8-6.6,4.2-8.8c0.8-0.8,1.8-1.4,3.1-1.7v-0.2c-3.5-0.4-7.1-2.8-7.1-7.2c0-3,1.5-5.1,3.6-6.3
		c2.2-1.4,5.5-2,9-2c3.2,0,6.4,0.3,8.7,0.6v28.9H592.5z M587.7,1018.2c-1.2-0.2-2.3-0.3-4.1-0.3c-3.3,0-7.3,1-7.3,5
		c0,3.7,4.3,5.1,7.2,5.1c2,0,3.1,0,4.2,0L587.7,1018.2L587.7,1018.2z"/>
	<path class="st5" d="M617.3,1003.3v18h1.5l12.9-18h5.9l-14.2,18.6c6.2,0.9,8.6,5,10.5,10.5c1.4,4.1,2.5,7.9,4.1,11.5h-5.2
		c-1.3-2.8-2.4-6.4-3.4-9.6c-1.7-5.4-4.1-9-10.5-9h-1.6v18.6h-4.8v-40.6H617.3z"/>
	<path class="st5" d="M658.2,1043.8l-0.4-3.7h-0.2c-1.5,2.3-4.4,4.3-8.3,4.3c-5.5,0-8.3-4.1-8.3-8.4c0-7,5.8-10.9,16.2-10.8v-0.6
		c0-2.4-0.6-6.7-6.1-6.7c-2.5,0-5.1,0.8-7,2.2l-1.1-3.5c2.2-1.6,5.5-2.6,8.9-2.6c8.3,0,10.3,6.1,10.3,11.9v10.9c0,2.5,0.1,5,0.4,7
		L658.2,1043.8L658.2,1043.8z M657.5,1029c-5.4-0.1-11.4,0.9-11.4,6.6c0,3.4,2.1,5.1,4.6,5.1c3.5,0,5.7-2.4,6.5-4.9
		c0.2-0.5,0.3-1.1,0.3-1.7L657.5,1029L657.5,1029z"/>
	<path class="st5" d="M690.7,1014.7v29.1h-4.9v-25h-9.3v7.6c0,8.2-0.7,13.6-4.2,16.1c-1.3,1.1-2.8,1.8-5.4,1.8l-0.5-4.1
		c0.9-0.2,2-0.6,2.7-1.2c2.5-2,2.8-6.1,2.8-12.6v-11.7L690.7,1014.7L690.7,1014.7z"/>
	<path class="st5" d="M703.2,1014.7v12.3c0,4.6-0.1,7.5-0.3,11.7l0.2,0.1c1.6-3.5,2.6-5.6,4.3-9l8.4-15h5.7v29.1H717v-12.3
		c0-4.8,0.1-7.2,0.3-11.9h-0.2c-1.7,3.7-2.9,6.1-4.5,9c-2.6,4.5-5.5,10.1-8.4,15.2h-5.6v-29.1L703.2,1014.7L703.2,1014.7z"/>
	<path class="st5" d="M734.4,1014.7v11.7h12.8v-11.7h4.9v29.1h-4.9v-13.2h-12.8v13.2h-4.9v-29.1H734.4z"/>
	<path class="st5" d="M764.6,1014.7v12.3c0,4.6-0.1,7.5-0.3,11.7l0.2,0.1c1.6-3.5,2.6-5.6,4.3-9l8.4-15h5.7v29.1h-4.7v-12.3
		c0-4.8,0.1-7.2,0.3-11.9h-0.2c-1.7,3.7-2.9,6.1-4.5,9c-2.6,4.5-5.5,10.1-8.4,15.2h-5.6v-29.1L764.6,1014.7L764.6,1014.7z"/>
	<path class="st5" d="M795.7,1014.7v11.7h12.8v-11.7h4.9v29.1h-4.9v-13.2h-12.8v13.2h-4.9v-29.1H795.7z"/>
	<path class="st5" d="M840.6,1042.8c-1.3,0.7-4.1,1.7-7.8,1.7c-8.1,0-13.4-6-13.4-14.9c0-9,5.7-15.5,14.5-15.5
		c2.9,0,5.5,0.8,6.8,1.5l-1.1,4.1c-1.2-0.7-3-1.4-5.7-1.4c-6.2,0-9.5,4.9-9.5,11c0,6.7,4,10.9,9.4,10.9c2.8,0,4.6-0.8,6-1.4
		L840.6,1042.8z"/>
	<path class="st5" d="M851.2,1014.7v12.6h1.2l10.1-12.6h6l-11.8,13.2c4.3,0.5,7,3.6,9.1,8.8c0.7,1.9,1.7,4.7,2.9,7.1h-5.1
		c-0.7-1.3-1.7-3.5-2.5-6c-1.8-4.7-4.3-6.9-8.9-6.9h-0.9v12.8h-4.9v-29.1h4.8V1014.7z"/>
	<path class="st5" d="M897.2,1029.1c0,10.8-6.9,15.5-13.4,15.5c-7.3,0-12.9-5.8-12.9-15c0-9.7,5.9-15.5,13.4-15.5
		C891.9,1014.1,897.2,1020.2,897.2,1029.1z M875.8,1029.4c0,6.4,3.4,11.2,8.2,11.2c4.7,0,8.2-4.8,8.2-11.3c0-4.9-2.3-11.2-8.1-11.2
		C878.3,1018.1,875.8,1023.8,875.8,1029.4z"/>
	<path class="st5" d="M919.8,1014.7v4.3h-11.7v24.8h-4.9v-29.1H919.8z"/>
	<path class="st5" d="M948.2,1029.1c0,10.8-6.9,15.5-13.4,15.5c-7.3,0-12.9-5.8-12.9-15c0-9.7,5.9-15.5,13.4-15.5
		C942.9,1014.1,948.2,1020.2,948.2,1029.1z M926.7,1029.4c0,6.4,3.4,11.2,8.2,11.2c4.7,0,8.2-4.8,8.2-11.3c0-4.9-2.3-11.2-8.1-11.2
		C929.3,1018.1,926.7,1023.8,926.7,1029.4z"/>
	<path class="st5" d="M966.2,1024.2c0-3.7-0.1-6.7-0.2-9.5h4.4l0.2,5h0.1c2-3.5,5.2-5.7,9.6-5.7c6.5,0,11.4,6,11.4,14.8
		c0,10.5-5.9,15.6-12.3,15.6c-3.6,0-6.7-1.7-8.3-4.6H971v15.8h-4.9v-31.4H966.2z M971,1032c0,0.8,0.1,1.5,0.2,2.2
		c0.9,3.7,3.8,6.2,7.4,6.2c5.2,0,8.2-4.6,8.2-11.2c0-5.8-2.8-10.8-8-10.8c-3.3,0-6.5,2.6-7.4,6.6c-0.2,0.7-0.3,1.4-0.3,2.2v4.8H971z
		"/>
	<path class="st5" d="M1012.8,1043.8l-0.4-3.7h-0.2c-1.5,2.3-4.4,4.3-8.3,4.3c-5.5,0-8.3-4.1-8.3-8.4c0-7,5.8-10.9,16.2-10.8v-0.6
		c0-2.4-0.6-6.7-6.1-6.7c-2.5,0-5.1,0.8-7,2.2l-1.1-3.5c2.2-1.6,5.5-2.6,8.9-2.6c8.3,0,10.3,6.1,10.3,11.9v10.9c0,2.5,0.1,5,0.4,7
		L1012.8,1043.8L1012.8,1043.8z M1012.1,1029c-5.4-0.1-11.4,0.9-11.4,6.6c0,3.4,2.1,5.1,4.6,5.1c3.5,0,5.7-2.4,6.5-4.9
		c0.2-0.5,0.3-1.1,0.3-1.7L1012.1,1029L1012.1,1029z"/>
	<path class="st5" d="M1029.3,1014.7v12.3c0,4.6-0.1,7.5-0.3,11.7l0.2,0.1c1.6-3.5,2.6-5.6,4.3-9l8.4-15h5.7v29.1h-4.7v-12.3
		c0-4.8,0.1-7.2,0.3-11.9h-0.2c-1.7,3.7-2.9,6.1-4.5,9c-2.6,4.5-5.5,10.1-8.4,15.2h-5.6v-29.1L1029.3,1014.7L1029.3,1014.7z
		 M1032.5,1002.9c0.2,2.6,1.3,4.6,3.6,4.6c2.4,0,3.5-1.9,3.8-4.6h3.5c-0.2,4.9-3.1,7.5-7.4,7.5c-4.9,0-6.8-3.3-7-7.5H1032.5z"/>
	<path class="st5" d="M1080.1,1029.1c0,10.8-6.9,15.5-13.4,15.5c-7.3,0-12.9-5.8-12.9-15c0-9.7,5.9-15.5,13.4-15.5
		C1074.9,1014.1,1080.1,1020.2,1080.1,1029.1z M1058.7,1029.4c0,6.4,3.4,11.2,8.2,11.2c4.7,0,8.2-4.8,8.2-11.3
		c0-4.9-2.3-11.2-8.1-11.2S1058.7,1023.8,1058.7,1029.4z"/>
	<path class="st5" d="M1091,1014.7v11.7h12.8v-11.7h4.9v29.1h-4.9v-13.2H1091v13.2h-4.9v-29.1H1091z"/>
	<path class="st5" d="M1131.7,1043.8l-0.4-3.7h-0.2c-1.5,2.3-4.4,4.3-8.3,4.3c-5.5,0-8.3-4.1-8.3-8.4c0-7,5.8-10.9,16.2-10.8v-0.6
		c0-2.4-0.6-6.7-6.1-6.7c-2.5,0-5.1,0.8-7,2.2l-1.1-3.5c2.2-1.6,5.5-2.6,8.9-2.6c8.3,0,10.3,6.1,10.3,11.9v10.9c0,2.5,0.1,5,0.4,7
		L1131.7,1043.8L1131.7,1043.8z M1131,1029c-5.4-0.1-11.4,0.9-11.4,6.6c0,3.4,2.1,5.1,4.6,5.1c3.5,0,5.7-2.4,6.5-4.9
		c0.2-0.5,0.3-1.1,0.3-1.7V1029z"/>
	<path class="st5" d="M1171.9,1014.7v4.3h-11.7v24.8h-4.9v-29.1H1171.9z"/>
	<path class="st5" d="M1171.5,1040.7c0-2.2,1.4-3.8,3.3-3.8c2,0,3.3,1.6,3.3,3.8c0,2.2-1.3,3.8-3.3,3.8S1171.5,1042.9,1171.5,1040.7
		z"/>
	<path class="st5" d="M1210.6,1042.5c-1.8,1-5.4,1.9-9.9,1.9c-10.6,0-18.6-7.2-18.6-20.5c0-12.7,8-21.3,19.6-21.3
		c4.7,0,7.6,1.1,8.9,1.8l-1.2,4.3c-1.8-1-4.5-1.7-7.6-1.7c-8.8,0-14.7,6.1-14.7,16.7c0,9.9,5.3,16.3,14.4,16.3c3,0,6-0.7,7.9-1.7
		L1210.6,1042.5z"/>
	<path class="st5" d="M1231.2,1043.8l-0.4-3.7h-0.2c-1.5,2.3-4.4,4.3-8.3,4.3c-5.5,0-8.3-4.1-8.3-8.4c0-7,5.8-10.9,16.2-10.8v-0.6
		c0-2.4-0.6-6.7-6.1-6.7c-2.5,0-5.1,0.8-7,2.2l-1.1-3.5c2.2-1.6,5.5-2.6,8.9-2.6c8.3,0,10.3,6.1,10.3,11.9v10.9c0,2.5,0.1,5,0.4,7
		L1231.2,1043.8L1231.2,1043.8z M1230.5,1029c-5.4-0.1-11.4,0.9-11.4,6.6c0,3.4,2.1,5.1,4.6,5.1c3.5,0,5.7-2.4,6.5-4.9
		c0.2-0.5,0.3-1.1,0.3-1.7V1029z"/>
	<path class="st5" d="M1247.9,1014.7v11.7h12.8v-11.7h4.9v29.1h-4.9v-13.2h-12.8v13.2h-4.9v-29.1H1247.9z"/>
	<path class="st5" d="M1278.5,1014.7v12.6h1.2l10.1-12.6h6l-11.8,13.2c4.3,0.5,7,3.6,9.1,8.8c0.7,1.9,1.7,4.7,2.9,7.1h-5.1
		c-0.7-1.3-1.7-3.5-2.5-6c-1.8-4.7-4.3-6.9-8.9-6.9h-0.9v12.8h-4.9v-29.1h4.8V1014.7z"/>
	<path class="st5" d="M1319.5,1014.7v4.2h-8.4v24.9h-4.9v-24.9h-8.4v-4.2H1319.5z"/>
	<path class="st5" d="M1333.7,1025.6v3.9h-13.8v-3.9H1333.7z"/>
	<path class="st5" d="M1366.7,1003.3v40.5h-4.9v-36.1h-17.5v36.1h-4.9v-40.5H1366.7z"/>
	<path class="st5" d="M1377.8,1030.3c0.1,7.2,4.3,10.1,9.3,10.1c3.5,0,5.6-0.7,7.5-1.5l0.8,3.8c-1.7,0.8-4.7,1.8-9,1.8
		c-8.3,0-13.3-5.9-13.3-14.7c0-8.8,4.8-15.7,12.7-15.7c8.8,0,11.2,8.4,11.2,13.7c0,1.1-0.1,1.9-0.2,2.5H1377.8L1377.8,1030.3z
		 M1392.2,1026.5c0.1-3.4-1.3-8.6-6.8-8.6c-5,0-7.1,4.9-7.5,8.6H1392.2z"/>
	<path class="st5" d="M1421,1014.7v4.2h-8.4v24.9h-4.9v-24.9h-8.4v-4.2H1421z"/>
	<path class="st5" d="M1427.3,1030.3c0.1,7.2,4.4,10.1,9.3,10.1c3.5,0,5.6-0.7,7.5-1.5l0.8,3.8c-1.7,0.8-4.7,1.8-9,1.8
		c-8.3,0-13.3-5.9-13.3-14.7c0-8.8,4.8-15.7,12.7-15.7c8.8,0,11.2,8.4,11.2,13.7c0,1.1-0.1,1.9-0.2,2.5H1427.3L1427.3,1030.3z
		 M1441.7,1026.5c0.1-3.4-1.3-8.6-6.8-8.6c-5,0-7.1,4.9-7.5,8.6H1441.7z"/>
	<path class="st5" d="M1452.5,1024.2c0-3.7-0.1-6.7-0.2-9.5h4.4l0.2,5h0.1c2-3.5,5.2-5.7,9.6-5.7c6.5,0,11.4,6,11.4,14.8
		c0,10.5-5.9,15.6-12.3,15.6c-3.6,0-6.7-1.7-8.3-4.6h-0.1v15.8h-4.9v-31.4H1452.5z M1457.3,1032c0,0.8,0.1,1.5,0.2,2.2
		c0.9,3.7,3.8,6.2,7.4,6.2c5.2,0,8.2-4.6,8.2-11.2c0-5.8-2.8-10.8-8-10.8c-3.3,0-6.5,2.6-7.4,6.6c-0.2,0.7-0.3,1.4-0.3,2.2
		L1457.3,1032L1457.3,1032z"/>
	<path class="st5" d="M1504.6,1004.9c-1.4,0.5-3.8,1-5.6,1.3c-4.4,0.7-7.5,2.3-9.6,5.5c-1.7,2.6-2.7,6.6-3,9.6h0.2
		c1.7-4.2,5.5-6.6,9.4-6.6c6.6,0,11.5,5.1,11.5,14.4c0,9.5-4.6,15.4-12.5,15.4c-9.5,0-12.6-9.8-12.6-19.5c0-6.6,1.3-12,4.2-16.1
		c2.6-4,6.4-5.9,11.6-6.9c2.2-0.4,4.9-0.8,6.7-1.6L1504.6,1004.9z M1495,1018.7c-2.9,0-5,1.6-6.1,4c-0.9,1.7-1.3,3.8-1.3,6.2
		c0,4.8,2.2,11.7,7.5,11.7c5.4,0,7.4-5.7,7.4-11C1502.5,1024.8,1500.8,1018.7,1495,1018.7z"/>
	<path class="st5" d="M1514.9,1014.7l5.9,17.2c0.6,1.9,1.3,4.2,1.7,6h0.1c0.5-1.7,1.1-4,1.7-6.1l5.4-17.1h5.2l-7.4,20.7
		c-3.5,10-5.9,15.1-9.3,18.2c-2.4,2.3-4.8,3.2-6,3.4l-1.2-4.4c1.2-0.4,2.8-1.3,4.3-2.6c1.3-1.1,3-3.2,4.1-5.9c0.2-0.5,0.4-1,0.4-1.3
		c0-0.3-0.1-0.7-0.3-1.4l-10-26.8L1514.9,1014.7L1514.9,1014.7z"/>
	<path class="st5" d="M1539.4,1024.2c0-3.7-0.1-6.7-0.2-9.5h4.4l0.2,5h0.1c2-3.5,5.2-5.7,9.6-5.7c6.5,0,11.4,6,11.4,14.8
		c0,10.5-5.9,15.6-12.3,15.6c-3.6,0-6.7-1.7-8.3-4.6h-0.1v15.8h-4.9v-31.4H1539.4z M1544.2,1032c0,0.8,0.1,1.5,0.2,2.2
		c0.9,3.7,3.8,6.2,7.4,6.2c5.2,0,8.2-4.6,8.2-11.2c0-5.8-2.8-10.8-8-10.8c-3.3,0-6.5,2.6-7.4,6.6c-0.2,0.7-0.3,1.4-0.3,2.2
		L1544.2,1032L1544.2,1032z"/>
	<path class="st5" d="M1587.6,1014.7v4.3h-11.7v24.8h-4.9v-29.1H1587.6z"/>
	<path class="st5" d="M1606.7,1043.8l-0.4-3.7h-0.2c-1.5,2.3-4.4,4.3-8.3,4.3c-5.5,0-8.3-4.1-8.3-8.4c0-7,5.8-10.9,16.2-10.8v-0.6
		c0-2.4-0.6-6.7-6.1-6.7c-2.5,0-5.1,0.8-7,2.2l-1.1-3.5c2.2-1.6,5.5-2.6,8.9-2.6c8.3,0,10.3,6.1,10.3,11.9v10.9c0,2.5,0.1,5,0.4,7
		L1606.7,1043.8L1606.7,1043.8z M1606,1029c-5.4-0.1-11.4,0.9-11.4,6.6c0,3.4,2.1,5.1,4.6,5.1c3.5,0,5.7-2.4,6.5-4.9
		c0.2-0.5,0.3-1.1,0.3-1.7V1029z"/>
</g>
<g>
	<path class="st4" d="M940.6,757.1v-91.7h13.5l24,45.3c5.5,10.9,10.4,21,14.4,30.6l0.1-0.1c-1-12.8-1.3-23.6-1.3-38.1v-37.7h11v91.7
		h-12.6l-24.1-45.6c-5.4-10.3-10.3-20.7-14.5-31.2l-0.4,0.1c0.6,11.9,0.8,22.4,0.8,38.7v38L940.6,757.1L940.6,757.1z M1055,691.7
		c0,17.5-11,24.7-22.3,24.7c-12.6,0-22.3-8.7-22.3-24.1c0-15.8,10.3-24.7,22.4-24.7C1046.6,667.5,1055,677,1055,691.7z
		 M1014.3,729.8v-7.3h37.1v7.3H1014.3z M1020.6,692.2c0,9.9,5.5,17.1,12.1,17.1c7.5,0,12.1-7.2,12.1-17.4c0-8.2-3.4-17.4-12.1-17.4
		C1024.4,674.6,1020.6,683.8,1020.6,692.2z"/>
</g>
</svg>
