<?xml version="1.0" encoding="utf-8"?>
<!-- Generator: Adobe Illustrator 24.1.2, SVG Export Plug-In . SVG Version: 6.00 Build 0)  -->
<svg version="1.1" id="Слой_1" xmlns="http://www.w3.org/2000/svg" xmlns:xlink="http://www.w3.org/1999/xlink" x="0px" y="0px"
	 viewBox="0 0 1657.7 1994.8" style="enable-background:new 0 0 1657.7 1994.8;" xml:space="preserve">
<style type="text/css">
	.st0{fill:#42C1C7;stroke:#E90027;stroke-miterlimit:10;}
	.st1{fill:#F5CEB7;}
	.st2{fill:#F44747;}
	.st3{opacity:0.12;fill:#17292D;enable-background:new    ;}
	.st4{fill:#A23F97;stroke:#A23F77;stroke-width:2;stroke-miterlimit:10;}
	.st5{fill:#A23F97;stroke:#A23F77;stroke-miterlimit:10;}
</style>
<path class="st0" d="M518.1,862.6"/>
<path class="st1" d="M1008.7,577.6c-5,159.7-155.1,266.4-223,306.6c-20.3,12-45.5,12-65.8,0c-68-40.2-218-146.9-223.1-306.6
	c-2.5-78.3,57.9-145.6,134.8-145.3c53.6,0.2,99.8,32.3,121.2,78.6c21.4-46.3,67.6-78.4,121.2-78.6
	C950.8,432.1,1011.2,499.4,1008.7,577.6z"/>
<path class="st2" d="M983.2,637.2H829.6l-38.4,64L740,598.8l-51.2,76.8l-25.6-38.4H522.3c0,0-6.3,0.6-16.1,1.8
	C540.7,764.8,661,849.4,719.9,884.3c20.3,12,45.5,12,65.8,0c59.1-35,180.3-120.3,214.2-247L983.2,637.2z"/>
<path class="st3" d="M874,432.4c-14.4,0.1-28.7,2.5-42.4,7.2c60.2,20.3,102.5,80.7,100.4,149c-4.5,143.1-117.3,246.5-197,302.1
	c17.1,4.9,35.4,2.6,50.7-6.4c68-40.2,218-146.9,223-306.6C1011.2,499.4,950.8,432.1,874,432.4z"/>
<g>
	<path class="st4" d="M190.4,884.3v142.9l14,0.5l-1.4,54.7h-16.1l-1.4-38.4H84.7l-1.4,38.5H67.2l-1.4-54.7l12.1-0.5
		c5.9-10.9,11.9-22.5,15.6-35.1c5.5-18.5,7.6-39.8,7.6-67.3v-40.5L190.4,884.3L190.4,884.3z M120.3,931.5c0,25.6-2.4,47.2-8.1,65.2
		c-3.3,11.1-8.3,21.8-13,30.3h70.6V901.4h-49.5V931.5z"/>
	<path class="st4" d="M240,990.5c0.5,28.2,18.5,39.8,39.3,39.8c14.9,0,23.9-2.6,31.8-5.9l3.6,14.9c-7.3,3.3-19.9,7.1-38.2,7.1
		c-35.3,0-56.4-23.2-56.4-57.8s20.4-61.9,53.8-61.9c37.4,0,47.4,32.9,47.4,54c0,4.3-0.5,7.6-0.7,9.7L240,990.5L240,990.5z
		 M301.1,975.6c0.2-13.3-5.5-33.9-28.9-33.9c-21.1,0-30.3,19.4-32,33.9H301.1L301.1,975.6z"/>
	<path class="st4" d="M423.6,929.4v16.5h-35.8v98.1h-20.6v-98.1h-35.8v-16.6L423.6,929.4L423.6,929.4z"/>
	<path class="st4" d="M520.6,1039.8c-5.5,2.8-17.5,6.6-32.9,6.6c-34.6,0-57.1-23.5-57.1-58.5c0-35.3,24.2-60.9,61.6-60.9
		c12.3,0,23.2,3.1,28.9,5.9l-4.7,16.1c-5-2.8-12.8-5.5-24.2-5.5c-26.3,0-40.5,19.4-40.5,43.4c0,26.5,17.1,42.9,39.8,42.9
		c11.8,0,19.7-3.1,25.6-5.7L520.6,1039.8z"/>
	<path class="st4" d="M565.6,929.4v49.8h5l43.1-49.8h25.4l-50,51.9c18.5,1.9,29.6,14.2,38.6,34.8c3.1,7.6,7.1,18.7,12.3,28h-21.8
		c-3.1-5-7.1-14-10.7-23.5c-7.8-18.5-18.5-27-37.9-27h-4v50.5H545V929.4H565.6z"/>
	<path class="st4" d="M724.4,1044.1l-1.7-14.5H722c-6.4,9-18.7,17.1-35.1,17.1c-23.2,0-35.1-16.4-35.1-32.9
		c0-27.7,24.6-42.9,69-42.7v-2.4c0-9.5-2.6-26.5-26.1-26.5c-10.7,0-21.8,3.3-29.9,8.5l-4.7-13.7c9.5-6.2,23.2-10.2,37.7-10.2
		c35.1,0,43.6,23.9,43.6,46.9v42.9c0,10,0.5,19.7,1.9,27.5L724.4,1044.1L724.4,1044.1z M721.3,985.5c-22.8-0.5-48.6,3.6-48.6,25.8
		c0,13.5,9,19.9,19.7,19.9c14.9,0,24.4-9.5,27.7-19.2c0.7-2.1,1.2-4.5,1.2-6.6L721.3,985.5L721.3,985.5z"/>
	<path class="st4" d="M860.4,1044.1h-20.6V996h-15.4c-8.8,0-14.7,2.4-19.2,6.4c-8.5,6.9-11.6,21.1-16.1,32.2
		c-1.4,3.6-3.1,6.6-4.7,9.5h-22.3c2.6-3.8,5-8.1,7.1-13c5-11.1,7.8-26.1,18-34.6c3.6-3.1,7.8-5.7,13-6.6v-0.7
		c-14.9-1.7-30.3-10.9-30.3-28.4c0-11.9,6.4-19.9,15.2-24.9c9.5-5.5,23.5-7.8,38.4-7.8c13.7,0,27,1.2,37,2.4v113.6H860.4
		L860.4,1044.1z M839.8,943.1c-5.2-0.7-10-1.2-17.3-1.2c-14.2,0-31,4-31,19.9c0,14.7,18.2,19.9,30.6,19.9c8.5,0,13,0,17.8,0
		L839.8,943.1L839.8,943.1z"/>
</g>
<g>
	<path class="st4" d="M111.4,1116.4v114.8H96.6v-102.3H43.2v102.4H28.4v-114.9H111.4z"/>
	<path class="st4" d="M211.4,1189.4c0,30.5-21.1,43.8-41.1,43.8c-22.3,0-39.5-16.4-39.5-42.4c0-27.6,18.1-43.8,40.9-43.8
		C195.4,1146.9,211.4,1164.1,211.4,1189.4z M146,1190.2c0,18.1,10.4,31.7,25,31.7c14.3,0,25-13.5,25-32c0-14-7-31.7-24.7-31.7
		S146,1174.5,146,1190.2z"/>
	<path class="st4" d="M292.8,1148.8v82.5H278v-70.7h-28.3v21.5c0,23.2-2.2,38.7-12.9,45.7c-4.1,3.2-8.7,5.1-16.4,5.1l-1.5-11.8
		c2.9-0.5,6.1-1.7,8.2-3.4c7.7-5.6,8.5-17.2,8.5-35.6v-33.2L292.8,1148.8L292.8,1148.8z"/>
	<path class="st4" d="M331.2,1148.8v34.8c0,13.1-0.2,21.3-0.9,33.1l0.5,0.2c4.9-10.1,7.8-15.8,13.3-25.4l25.7-42.6h17.5v82.5H373
		v-34.9c0-13.5,0.3-20.4,1-33.7h-0.5c-5.3,10.6-8.9,17.2-13.6,25.6c-7.8,12.8-16.9,28.6-25.7,43.1H317V1149h14.2V1148.8z"/>
	<path class="st4" d="M426.6,1148.8v35.8h3.6l31-35.8h18.2l-36,37.3c13.3,1.4,21.3,10.2,27.8,25c2.2,5.5,5.1,13.5,8.9,20.1h-15.7
		c-2.2-3.6-5.1-10.1-7.7-16.9c-5.6-13.3-13.3-19.4-27.3-19.4h-2.9v36.3h-14.8v-82.5L426.6,1148.8L426.6,1148.8z"/>
	<path class="st4" d="M559.8,1148.8v82.5H545v-70.7h-28.3v21.5c0,23.2-2.2,38.7-12.9,45.7c-4.1,3.2-8.7,5.1-16.4,5.1l-1.5-11.8
		c2.9-0.5,6.1-1.7,8.2-3.4c7.7-5.6,8.5-17.2,8.5-35.6v-33.2L559.8,1148.8L559.8,1148.8L559.8,1148.8z"/>
	<path class="st4" d="M598.2,1148.8v34.8c0,13.1-0.2,21.3-0.9,33.1l0.5,0.2c4.9-10.1,7.8-15.8,13.3-25.4l25.7-42.6h17.5v82.5H640
		v-34.9c0-13.5,0.3-20.4,1-33.7h-0.5c-5.3,10.6-8.9,17.2-13.6,25.6c-7.8,12.8-16.9,28.6-25.7,43.1H584V1149h14.2V1148.8z"/>
	<path class="st4" d="M693.2,1148.8v33.2h39.2v-33.2h14.8v82.5h-14.8V1194h-39.2v37.3h-14.8v-82.5H693.2z"/>
	<path class="st4" d="M785.6,1148.8v34.8c0,13.1-0.2,21.3-0.9,33.1l0.5,0.2c4.9-10.1,7.8-15.8,13.3-25.4l25.7-42.6h17.5v82.5h-14.3
		v-34.9c0-13.5,0.3-20.4,1-33.7h-0.5c-5.3,10.6-8.9,17.2-13.6,25.6c-7.8,12.8-16.9,28.6-25.7,43.1h-17.2V1149h14.2V1148.8z"/>
	<path class="st4" d="M881,1148.8v35.8h3.6l31-35.8h18.2l-36,37.3c13.3,1.4,21.3,10.2,27.8,25c2.2,5.5,5.1,13.5,8.9,20.1h-15.7
		c-2.2-3.6-5.1-10.1-7.7-16.9c-5.6-13.3-13.3-19.4-27.3-19.4h-2.9v36.3h-14.8v-82.5L881,1148.8L881,1148.8z"/>
	<path class="st4" d="M995.1,1231.3l-1.2-10.4h-0.5c-4.6,6.5-13.5,12.3-25.2,12.3c-16.7,0-25.2-11.8-25.2-23.7
		c0-19.9,17.7-30.8,49.6-30.7v-1.7c0-6.8-1.9-19.1-18.7-19.1c-7.7,0-15.7,2.4-21.5,6.1l-3.4-9.9c6.8-4.4,16.7-7.3,27.1-7.3
		c25.2,0,31.4,17.2,31.4,33.7v30.8c0,7.2,0.3,14.1,1.4,19.8L995.1,1231.3L995.1,1231.3L995.1,1231.3z M992.9,1189.2
		c-16.4-0.3-34.9,2.6-34.9,18.6c0,9.7,6.5,14.3,14.1,14.3c10.7,0,17.5-6.8,19.9-13.8c0.5-1.5,0.9-3.2,0.9-4.8V1189.2z"/>
</g>
<g>
	<path class="st4" d="M1068.6,1272.2v-31.7l40.4-39.3c97.3-92.6,141.3-141.9,141.9-199.3c0-38.7-18.8-74.4-75.6-74.4
		c-34.6,0-63.3,17.6-80.9,32.2l-16.4-36.3c26.4-22.3,63.9-38.7,107.9-38.7c82.1,0,116.7,56.3,116.7,110.8
		c0,70.3-51,127.2-131.3,204.6l-30.5,28.1v1.2H1312v42.8H1068.6z"/>
	<path class="st4" d="M1399.2,1235.9c11.1,1.2,24,0,41.6-1.8c29.9-4.1,58-16.4,79.7-36.9c25.2-22.9,43.4-56.3,50.4-101.4h-1.8
		c-21.1,25.8-51.6,41-89.7,41c-68.6,0-112.6-51.6-112.6-116.7c0-72.1,52.2-135.4,130.1-135.4s126,63.3,126,160.6
		c0,83.8-28.1,142.4-65.7,178.8c-29.3,28.7-69.8,46.3-110.8,51c-18.8,2.9-35.2,3.5-47.5,2.9v-42.1L1399.2,1235.9L1399.2,1235.9z
		 M1418,1016.7c0,47.5,28.7,80.9,73.3,80.9c34.6,0,61.6-17,75-39.9c2.9-4.7,4.7-10.6,4.7-18.8c0-65.1-24-114.9-78-114.9
		C1449.1,924,1418,962.7,1418,1016.7z"/>
</g>
<g>
	<path class="st5" d="M62.6,1397.8c0,13.9-7.9,21.3-17.5,21.3c-9.8,0-16.8-8.3-16.8-20.6c0-12.9,7.4-21.3,17.5-21.3
		C56,1377.3,62.6,1385.7,62.6,1397.8z M33.5,1398.4c0,8.7,4.3,16.4,12,16.4s12-7.6,12-16.8c0-8.1-3.9-16.5-12-16.5
		C37.5,1381.5,33.5,1389.5,33.5,1398.4z"/>
	<path class="st5" d="M87.7,1389.3v4.2h-8.4v24.9h-4.9v-24.9H66v-4.2H87.7z"/>
	<path class="st5" d="M111.3,1389.3v25.1l2.8,0.1l-0.3,13.2H110l-0.2-9.3H91l-0.2,9.3H87l-0.2-13.2l2.3-0.1c1.2-1.9,2.1-3.8,2.7-6
		c1.1-3.6,1.6-7.5,1.6-11.6v-7.6L111.3,1389.3L111.3,1389.3z M97.6,1398.2c0,3.8-0.5,7.6-1.4,10.8c-0.6,2-1.3,3.8-2.2,5.4h12.4v-21
		h-8.9L97.6,1398.2L97.6,1398.2z"/>
	<path class="st5" d="M122.4,1404.9c0.1,7.2,4.3,10.1,9.3,10.1c3.5,0,5.6-0.7,7.5-1.5l0.8,3.8c-1.7,0.8-4.7,1.8-9,1.8
		c-8.3,0-13.3-5.9-13.3-14.7c0-8.8,4.8-15.7,12.7-15.7c8.8,0,11.2,8.4,11.2,13.7c0,1.1-0.1,1.9-0.2,2.5L122.4,1404.9L122.4,1404.9z
		 M136.8,1401.1c0.1-3.4-1.3-8.6-6.8-8.6c-5,0-7.1,4.9-7.5,8.6H136.8z"/>
	<path class="st5" d="M168.2,1389.3v29.1h-4.9v-25H154v7.6c0,8.2-0.7,13.6-4.2,16.1c-1.3,1.1-2.8,1.8-5.4,1.8l-0.5-4.1
		c0.9-0.2,2-0.6,2.7-1.2c2.5-2,2.8-6.1,2.8-12.6v-11.7H168.2L168.2,1389.3z"/>
	<path class="st5" d="M186.7,1380.3c2.6-1.8,5.9-3.1,9.9-3.1c6.5,0,11,3.7,11,9.9c0,5-3.3,8.8-7.8,9.9v0.1c5.3,0.6,9.1,4.3,9.1,10.2
		c0,8.4-6.7,11.8-13.6,11.8c-3.4,0-7-0.8-9.8-2.6l1.3-4.1c2,1.3,5.4,2.5,8.4,2.5c5.6,0,8.6-3.2,8.6-7.7c0-6.1-5.4-7.8-10.2-7.8h-2.2
		v-4h2.2c5,0,8.8-3.3,8.8-7.5c0-4.1-2.7-6.4-6.7-6.4c-2.8,0-5.8,1.3-7.8,2.6L186.7,1380.3z"/>
	<path class="st5" d="M236.1,1389.3v25.1l2.8,0.1l-0.3,13.2h-3.8l-0.2-9.3h-18.7l-0.2,9.3h-3.8l-0.2-13.2l2.3-0.1
		c1.2-1.9,2.1-3.8,2.7-6c1.1-3.6,1.6-7.5,1.6-11.6v-7.6L236.1,1389.3L236.1,1389.3z M222.5,1398.2c0,3.8-0.5,7.6-1.4,10.8
		c-0.6,2-1.3,3.8-2.2,5.4h12.4v-21h-8.9L222.5,1398.2L222.5,1398.2z"/>
	<path class="st5" d="M244.8,1398.8c0-3.7-0.1-6.7-0.2-9.5h4.4l0.2,5h0.1c2-3.5,5.2-5.7,9.6-5.7c6.5,0,11.4,6,11.4,14.8
		c0,10.5-5.9,15.6-12.3,15.6c-3.6,0-6.7-1.7-8.3-4.6h-0.1v15.8h-4.9v-31.4L244.8,1398.8L244.8,1398.8z M249.6,1406.6
		c0,0.8,0.1,1.5,0.2,2.2c0.9,3.7,3.8,6.2,7.4,6.2c5.2,0,8.2-4.6,8.2-11.2c0-5.8-2.8-10.8-8-10.8c-3.3,0-6.5,2.6-7.4,6.6
		c-0.2,0.7-0.3,1.4-0.3,2.2L249.6,1406.6L249.6,1406.6z"/>
	<path class="st5" d="M291.5,1418.4l-0.4-3.7h-0.2c-1.5,2.3-4.4,4.3-8.3,4.3c-5.5,0-8.3-4.1-8.3-8.4c0-7,5.8-10.9,16.2-10.8v-0.6
		c0-2.4-0.6-6.7-6.1-6.7c-2.5,0-5.1,0.8-7,2.2l-1.1-3.5c2.2-1.6,5.5-2.6,8.9-2.6c8.3,0,10.3,6.1,10.3,11.9v10.9c0,2.5,0.1,5,0.4,7
		L291.5,1418.4L291.5,1418.4z M290.7,1403.6c-5.4-0.1-11.4,0.9-11.4,6.6c0,3.4,2.1,5.1,4.6,5.1c3.5,0,5.7-2.4,6.5-4.9
		c0.2-0.5,0.3-1.1,0.3-1.7V1403.6z"/>
	<path class="st5" d="M303.3,1389.7c1.9-0.4,5.4-0.7,8.6-0.7c4.5,0,12,0.8,12,7.3c0,3.6-2.6,5.8-5.6,6.6v0.1c4,0.6,6.9,3,6.9,7.2
		c0,7.6-8.9,8.6-14.2,8.6c-3,0-6.1-0.2-7.6-0.4L303.3,1389.7L303.3,1389.7z M307.9,1415c1.4,0.2,2.4,0.2,4,0.2
		c3.3,0,8.2-0.8,8.2-5.1c0-4.3-3.9-5.1-8.6-5.1h-3.6V1415z M308,1401.6h3.7c3.6,0,7.4-1.1,7.4-4.6c0-2.9-2.3-4.3-7.2-4.3
		c-1.6,0-2.6,0.1-3.8,0.2v8.7L308,1401.6L308,1401.6z"/>
	<path class="st5" d="M355.7,1403.7c0,10.8-6.9,15.5-13.4,15.5c-7.3,0-12.9-5.8-12.9-15c0-9.7,5.9-15.5,13.4-15.5
		C350.5,1388.7,355.7,1394.8,355.7,1403.7z M334.3,1404c0,6.4,3.4,11.2,8.2,11.2c4.7,0,8.2-4.8,8.2-11.3c0-4.9-2.3-11.2-8.1-11.2
		S334.3,1398.4,334.3,1404z"/>
	<path class="st5" d="M386.3,1403.7c0,10.8-6.9,15.5-13.4,15.5c-7.3,0-12.9-5.8-12.9-15c0-9.7,5.9-15.5,13.4-15.5
		C381.1,1388.7,386.3,1394.8,386.3,1403.7z M364.9,1404c0,6.4,3.4,11.2,8.2,11.2c4.7,0,8.2-4.8,8.2-11.3c0-4.9-2.3-11.2-8.1-11.2
		S364.9,1398.4,364.9,1404z"/>
	<path class="st5" d="M394.1,1389.3l3.8,6.3c1,1.6,1.8,3.1,2.7,4.8h0.2c0.9-1.7,1.8-3.2,2.7-4.8l3.8-6.2h5.3l-9.2,14.1l9.5,15h-5.6
		l-4-6.6c-1.1-1.7-2-3.3-2.9-5.1h-0.1c-0.9,1.7-1.8,3.3-2.8,5.1l-3.9,6.6h-5.4l9.6-14.9l-9.1-14.2L394.1,1389.3L394.1,1389.3z"/>
	<path class="st5" d="M417.6,1398.8c0-3.7-0.1-6.7-0.2-9.5h4.4l0.2,5h0.1c2-3.5,5.2-5.7,9.6-5.7c6.5,0,11.4,6,11.4,14.8
		c0,10.5-5.9,15.6-12.3,15.6c-3.6,0-6.7-1.7-8.3-4.6h-0.1v15.8h-4.9L417.6,1398.8L417.6,1398.8z M422.4,1406.6
		c0,0.8,0.1,1.5,0.2,2.2c0.9,3.7,3.8,6.2,7.4,6.2c5.2,0,8.2-4.6,8.2-11.2c0-5.8-2.8-10.8-8-10.8c-3.3,0-6.5,2.6-7.4,6.6
		c-0.2,0.7-0.3,1.4-0.3,2.2v4.8L422.4,1406.6L422.4,1406.6z"/>
	<path class="st5" d="M464.3,1418.4l-0.4-3.7h-0.2c-1.5,2.3-4.4,4.3-8.3,4.3c-5.5,0-8.3-4.1-8.3-8.4c0-7,5.8-10.9,16.2-10.8v-0.6
		c0-2.4-0.6-6.7-6.1-6.7c-2.5,0-5.1,0.8-7,2.2l-1.1-3.5c2.2-1.6,5.5-2.6,8.9-2.6c8.3,0,10.3,6.1,10.3,11.9v10.9c0,2.5,0.1,5,0.4,7
		L464.3,1418.4L464.3,1418.4z M463.5,1403.6c-5.4-0.1-11.4,0.9-11.4,6.6c0,3.4,2.1,5.1,4.6,5.1c3.5,0,5.7-2.4,6.5-4.9
		c0.2-0.5,0.3-1.1,0.3-1.7V1403.6z"/>
	<path class="st5" d="M480.9,1389.3v11.7h12.8v-11.7h4.9v29.1h-4.9v-13.2h-12.8v13.2H476v-29.1H480.9L480.9,1389.3z"/>
	<path class="st5" d="M509.4,1404.9c0.1,7.2,4.3,10.1,9.3,10.1c3.5,0,5.6-0.7,7.5-1.5l0.8,3.8c-1.7,0.8-4.7,1.8-9,1.8
		c-8.3,0-13.3-5.9-13.3-14.7c0-8.8,4.8-15.7,12.7-15.7c8.8,0,11.2,8.4,11.2,13.7c0,1.1-0.1,1.9-0.2,2.5L509.4,1404.9L509.4,1404.9z
		 M523.8,1401.1c0.1-3.4-1.3-8.6-6.8-8.6c-5,0-7.1,4.9-7.5,8.6H523.8z"/>
	<path class="st5" d="M539.3,1389.3v11.7h12.8v-11.7h4.9v29.1h-4.9v-13.2h-12.8v13.2h-4.9v-29.1H539.3L539.3,1389.3z"/>
	<path class="st5" d="M569.6,1389.3v12.3c0,4.6-0.1,7.5-0.3,11.7l0.2,0.1c1.6-3.5,2.6-5.6,4.3-9l8.4-15h5.7v29.1h-4.6v-12.3
		c0-4.8,0.1-7.2,0.3-11.9h-0.2c-1.7,3.7-2.9,6.1-4.5,9c-2.6,4.5-5.5,10.1-8.4,15.2h-5.6v-29.1L569.6,1389.3L569.6,1389.3z"/>
	<path class="st5" d="M615.8,1418.4h-4.9v-12.2h-3.6c-2.1,0-3.5,0.6-4.5,1.6c-2,1.7-2.7,5.4-3.8,8.2c-0.3,0.9-0.7,1.7-1.1,2.4h-5.2
		c0.6-1,1.2-2,1.7-3.3c1.2-2.8,1.8-6.6,4.2-8.8c0.8-0.8,1.8-1.4,3.1-1.7v-0.2c-3.5-0.4-7.1-2.8-7.1-7.2c0-3,1.5-5.1,3.6-6.3
		c2.2-1.4,5.5-2,9-2c3.2,0,6.4,0.3,8.7,0.6v28.9H615.8z M611,1392.8c-1.2-0.2-2.3-0.3-4.1-0.3c-3.3,0-7.3,1-7.3,5
		c0,3.7,4.3,5.1,7.2,5.1c2,0,3.1,0,4.2,0L611,1392.8L611,1392.8z"/>
	<path class="st5" d="M640.6,1377.9v18h1.5l12.9-18h5.9l-14.2,18.6c6.2,0.9,8.6,5,10.5,10.5c1.4,4.1,2.5,7.9,4.1,11.5h-5.2
		c-1.3-2.8-2.4-6.4-3.4-9.6c-1.7-5.4-4.1-9-10.5-9h-1.6v18.6h-4.8v-40.6H640.6L640.6,1377.9z"/>
	<path class="st5" d="M681.5,1418.4l-0.4-3.7h-0.2c-1.5,2.3-4.4,4.3-8.3,4.3c-5.5,0-8.3-4.1-8.3-8.4c0-7,5.8-10.9,16.2-10.8v-0.6
		c0-2.4-0.6-6.7-6.1-6.7c-2.5,0-5.1,0.8-7,2.2l-1.1-3.5c2.2-1.6,5.5-2.6,8.9-2.6c8.3,0,10.3,6.1,10.3,11.9v10.9c0,2.5,0.1,5,0.4,7
		L681.5,1418.4L681.5,1418.4z M680.8,1403.6c-5.4-0.1-11.4,0.9-11.4,6.6c0,3.4,2.1,5.1,4.6,5.1c3.5,0,5.7-2.4,6.5-4.9
		c0.2-0.5,0.3-1.1,0.3-1.7L680.8,1403.6L680.8,1403.6z"/>
	<path class="st5" d="M714,1389.3v29.1h-4.9v-25h-9.3v7.6c0,8.2-0.7,13.6-4.2,16.1c-1.3,1.1-2.8,1.8-5.4,1.8l-0.5-4.1
		c0.9-0.2,2-0.6,2.7-1.2c2.5-2,2.8-6.1,2.8-12.6v-11.7H714L714,1389.3z"/>
	<path class="st5" d="M726.5,1389.3v12.3c0,4.6-0.1,7.5-0.3,11.7l0.2,0.1c1.6-3.5,2.6-5.6,4.3-9l8.4-15h5.7v29.1h-4.5v-12.3
		c0-4.8,0.1-7.2,0.3-11.9h-0.2c-1.7,3.7-2.9,6.1-4.5,9c-2.6,4.5-5.5,10.1-8.4,15.2h-5.6v-29.1L726.5,1389.3L726.5,1389.3z"/>
	<path class="st5" d="M757.7,1389.3v11.7h12.8v-11.7h4.9v29.1h-4.9v-13.2h-12.8v13.2h-4.9v-29.1H757.7L757.7,1389.3z"/>
	<path class="st5" d="M787.9,1389.3v12.3c0,4.6-0.1,7.5-0.3,11.7l0.2,0.1c1.6-3.5,2.6-5.6,4.3-9l8.4-15h5.7v29.1h-4.7v-12.3
		c0-4.8,0.1-7.2,0.3-11.9h-0.2c-1.7,3.7-2.9,6.1-4.5,9c-2.6,4.5-5.5,10.1-8.4,15.2h-5.6v-29.1L787.9,1389.3L787.9,1389.3z"/>
	<path class="st5" d="M819,1389.3v11.7h12.8v-11.7h4.9v29.1h-4.9v-13.2H819v13.2h-4.9v-29.1H819L819,1389.3z"/>
	<path class="st5" d="M863.9,1417.4c-1.3,0.7-4.1,1.7-7.8,1.7c-8.1,0-13.4-6-13.4-14.9c0-9,5.7-15.5,14.5-15.5
		c2.9,0,5.5,0.8,6.8,1.5l-1.1,4.1c-1.2-0.7-3-1.4-5.7-1.4c-6.2,0-9.5,4.9-9.5,11c0,6.7,4,10.9,9.4,10.9c2.8,0,4.6-0.8,6-1.4
		L863.9,1417.4z"/>
	<path class="st5" d="M874.5,1389.3v12.6h1.2l10.1-12.6h6l-11.8,13.2c4.3,0.5,7,3.6,9.1,8.8c0.7,1.9,1.7,4.7,2.9,7.1h-5.1
		c-0.7-1.3-1.7-3.5-2.5-6c-1.8-4.7-4.3-6.9-8.9-6.9h-0.9v12.8h-4.9v-29.1L874.5,1389.3L874.5,1389.3L874.5,1389.3z"/>
	<path class="st5" d="M920.5,1403.7c0,10.8-6.9,15.5-13.4,15.5c-7.3,0-12.9-5.8-12.9-15c0-9.7,5.9-15.5,13.4-15.5
		C915.2,1388.7,920.5,1394.8,920.5,1403.7z M899.1,1404c0,6.4,3.4,11.2,8.2,11.2c4.7,0,8.2-4.8,8.2-11.3c0-4.9-2.3-11.2-8.1-11.2
		C901.6,1392.7,899.1,1398.4,899.1,1404z"/>
	<path class="st5" d="M943.1,1389.3v4.3h-11.7v24.8h-4.9v-29.1H943.1L943.1,1389.3z"/>
	<path class="st5" d="M971.5,1403.7c0,10.8-6.9,15.5-13.4,15.5c-7.3,0-12.9-5.8-12.9-15c0-9.7,5.9-15.5,13.4-15.5
		C966.2,1388.7,971.5,1394.8,971.5,1403.7z M950,1404c0,6.4,3.4,11.2,8.2,11.2c4.7,0,8.2-4.8,8.2-11.3c0-4.9-2.3-11.2-8.1-11.2
		C952.6,1392.7,950,1398.4,950,1404z"/>
	<path class="st5" d="M989.5,1398.8c0-3.7-0.1-6.7-0.2-9.5h4.4l0.2,5h0.1c2-3.5,5.2-5.7,9.6-5.7c6.5,0,11.4,6,11.4,14.8
		c0,10.5-5.9,15.6-12.3,15.6c-3.6,0-6.7-1.7-8.3-4.6h-0.1v15.8h-4.9L989.5,1398.8L989.5,1398.8L989.5,1398.8z M994.3,1406.6
		c0,0.8,0.1,1.5,0.2,2.2c0.9,3.7,3.8,6.2,7.4,6.2c5.2,0,8.2-4.6,8.2-11.2c0-5.8-2.8-10.8-8-10.8c-3.3,0-6.5,2.6-7.4,6.6
		c-0.2,0.7-0.3,1.4-0.3,2.2v4.8L994.3,1406.6L994.3,1406.6z"/>
	<path class="st5" d="M1036.1,1418.4l-0.4-3.7h-0.2c-1.5,2.3-4.4,4.3-8.3,4.3c-5.5,0-8.3-4.1-8.3-8.4c0-7,5.8-10.9,16.2-10.8v-0.6
		c0-2.4-0.6-6.7-6.1-6.7c-2.5,0-5.1,0.8-7,2.2l-1.1-3.5c2.2-1.6,5.5-2.6,8.9-2.6c8.3,0,10.3,6.1,10.3,11.9v10.9c0,2.5,0.1,5,0.4,7
		L1036.1,1418.4L1036.1,1418.4z M1035.4,1403.6c-5.4-0.1-11.4,0.9-11.4,6.6c0,3.4,2.1,5.1,4.6,5.1c3.5,0,5.7-2.4,6.5-4.9
		c0.2-0.5,0.3-1.1,0.3-1.7V1403.6L1035.4,1403.6z"/>
	<path class="st5" d="M1052.6,1389.3v12.3c0,4.6-0.1,7.5-0.3,11.7l0.2,0.1c1.6-3.5,2.6-5.6,4.3-9l8.4-15h5.7v29.1h-4.7v-12.3
		c0-4.8,0.1-7.2,0.3-11.9h-0.2c-1.7,3.7-2.9,6.1-4.5,9c-2.6,4.5-5.5,10.1-8.4,15.2h-5.6v-29.1L1052.6,1389.3L1052.6,1389.3z
		 M1055.8,1377.5c0.2,2.6,1.3,4.6,3.6,4.6c2.4,0,3.5-1.9,3.8-4.6h3.5c-0.2,4.9-3.1,7.5-7.4,7.5c-4.9,0-6.8-3.3-7-7.5H1055.8z"/>
	<path class="st5" d="M1103.4,1403.7c0,10.8-6.9,15.5-13.4,15.5c-7.3,0-12.9-5.8-12.9-15c0-9.7,5.9-15.5,13.4-15.5
		C1098.2,1388.7,1103.4,1394.8,1103.4,1403.7z M1082,1404c0,6.4,3.4,11.2,8.2,11.2c4.7,0,8.2-4.8,8.2-11.3c0-4.9-2.3-11.2-8.1-11.2
		S1082,1398.4,1082,1404z"/>
	<path class="st5" d="M1114.3,1389.3v11.7h12.8v-11.7h4.9v29.1h-4.9v-13.2h-12.8v13.2h-4.9v-29.1H1114.3L1114.3,1389.3z"/>
	<path class="st5" d="M1155,1418.4l-0.4-3.7h-0.2c-1.5,2.3-4.4,4.3-8.3,4.3c-5.5,0-8.3-4.1-8.3-8.4c0-7,5.8-10.9,16.2-10.8v-0.6
		c0-2.4-0.6-6.7-6.1-6.7c-2.5,0-5.1,0.8-7,2.2l-1.1-3.5c2.2-1.6,5.5-2.6,8.9-2.6c8.3,0,10.3,6.1,10.3,11.9v10.9c0,2.5,0.1,5,0.4,7
		L1155,1418.4L1155,1418.4z M1154.3,1403.6c-5.4-0.1-11.4,0.9-11.4,6.6c0,3.4,2.1,5.1,4.6,5.1c3.5,0,5.7-2.4,6.5-4.9
		c0.2-0.5,0.3-1.1,0.3-1.7V1403.6z"/>
	<path class="st5" d="M1195.2,1389.3v4.3h-11.7v24.8h-4.9v-29.1H1195.2L1195.2,1389.3z"/>
	<path class="st5" d="M1194.8,1415.3c0-2.2,1.4-3.8,3.3-3.8c2,0,3.3,1.6,3.3,3.8c0,2.2-1.3,3.8-3.3,3.8S1194.8,1417.5,1194.8,1415.3
		z"/>
	<path class="st5" d="M1233.9,1417.1c-1.8,1-5.4,1.9-9.9,1.9c-10.6,0-18.6-7.2-18.6-20.5c0-12.7,8-21.3,19.6-21.3
		c4.7,0,7.6,1.1,8.9,1.8l-1.2,4.3c-1.8-1-4.5-1.7-7.6-1.7c-8.8,0-14.7,6.1-14.7,16.7c0,9.9,5.3,16.3,14.4,16.3c3,0,6-0.7,7.9-1.7
		L1233.9,1417.1z"/>
	<path class="st5" d="M1254.5,1418.4l-0.4-3.7h-0.2c-1.5,2.3-4.4,4.3-8.3,4.3c-5.5,0-8.3-4.1-8.3-8.4c0-7,5.8-10.9,16.2-10.8v-0.6
		c0-2.4-0.6-6.7-6.1-6.7c-2.5,0-5.1,0.8-7,2.2l-1.1-3.5c2.2-1.6,5.5-2.6,8.9-2.6c8.3,0,10.3,6.1,10.3,11.9v10.9c0,2.5,0.1,5,0.4,7
		L1254.5,1418.4L1254.5,1418.4z M1253.8,1403.6c-5.4-0.1-11.4,0.9-11.4,6.6c0,3.4,2.1,5.1,4.6,5.1c3.5,0,5.7-2.4,6.5-4.9
		c0.2-0.5,0.3-1.1,0.3-1.7V1403.6z"/>
	<path class="st5" d="M1271.2,1389.3v11.7h12.8v-11.7h4.9v29.1h-4.9v-13.2h-12.8v13.2h-4.9v-29.1H1271.2L1271.2,1389.3z"/>
	<path class="st5" d="M1301.8,1389.3v12.6h1.2l10.1-12.6h6l-11.8,13.2c4.3,0.5,7,3.6,9.1,8.8c0.7,1.9,1.7,4.7,2.9,7.1h-5.1
		c-0.7-1.3-1.7-3.5-2.5-6c-1.8-4.7-4.3-6.9-8.9-6.9h-0.9v12.8h-4.9v-29.1L1301.8,1389.3L1301.8,1389.3L1301.8,1389.3z"/>
	<path class="st5" d="M1342.8,1389.3v4.2h-8.4v24.9h-4.9v-24.9h-8.4v-4.2H1342.8z"/>
	<path class="st5" d="M1357,1400.2v3.9h-13.8v-3.9H1357z"/>
	<path class="st5" d="M1390,1377.9v40.5h-4.9v-36.1h-17.5v36.1h-4.9v-40.5H1390L1390,1377.9z"/>
	<path class="st5" d="M1401.1,1404.9c0.1,7.2,4.3,10.1,9.3,10.1c3.5,0,5.6-0.7,7.5-1.5l0.8,3.8c-1.7,0.8-4.7,1.8-9,1.8
		c-8.3,0-13.3-5.9-13.3-14.7c0-8.8,4.8-15.7,12.7-15.7c8.8,0,11.2,8.4,11.2,13.7c0,1.1-0.1,1.9-0.2,2.5L1401.1,1404.9L1401.1,1404.9
		z M1415.5,1401.1c0.1-3.4-1.3-8.6-6.8-8.6c-5,0-7.1,4.9-7.5,8.6H1415.5z"/>
	<path class="st5" d="M1444.3,1389.3v4.2h-8.4v24.9h-4.9v-24.9h-8.4v-4.2H1444.3z"/>
	<path class="st5" d="M1450.6,1404.9c0.1,7.2,4.4,10.1,9.3,10.1c3.5,0,5.6-0.7,7.5-1.5l0.8,3.8c-1.7,0.8-4.7,1.8-9,1.8
		c-8.3,0-13.3-5.9-13.3-14.7c0-8.8,4.8-15.7,12.7-15.7c8.8,0,11.2,8.4,11.2,13.7c0,1.1-0.1,1.9-0.2,2.5L1450.6,1404.9L1450.6,1404.9
		z M1465,1401.1c0.1-3.4-1.3-8.6-6.8-8.6c-5,0-7.1,4.9-7.5,8.6H1465z"/>
	<path class="st5" d="M1475.8,1398.8c0-3.7-0.1-6.7-0.2-9.5h4.4l0.2,5h0.1c2-3.5,5.2-5.7,9.6-5.7c6.5,0,11.4,6,11.4,14.8
		c0,10.5-5.9,15.6-12.3,15.6c-3.6,0-6.7-1.7-8.3-4.6h-0.1v15.8h-4.9v-31.4L1475.8,1398.8L1475.8,1398.8z M1480.6,1406.6
		c0,0.8,0.1,1.5,0.2,2.2c0.9,3.7,3.8,6.2,7.4,6.2c5.2,0,8.2-4.6,8.2-11.2c0-5.8-2.8-10.8-8-10.8c-3.3,0-6.5,2.6-7.4,6.6
		c-0.2,0.7-0.3,1.4-0.3,2.2L1480.6,1406.6L1480.6,1406.6z"/>
	<path class="st5" d="M1527.9,1379.5c-1.4,0.5-3.8,1-5.6,1.3c-4.4,0.7-7.5,2.3-9.6,5.5c-1.7,2.6-2.7,6.6-3,9.6h0.2
		c1.7-4.2,5.5-6.6,9.4-6.6c6.6,0,11.5,5.1,11.5,14.4c0,9.5-4.6,15.4-12.5,15.4c-9.5,0-12.6-9.8-12.6-19.5c0-6.6,1.3-12,4.2-16.1
		c2.6-4,6.4-5.9,11.6-6.9c2.2-0.4,4.9-0.8,6.7-1.6L1527.9,1379.5z M1518.3,1393.3c-2.9,0-5,1.6-6.1,4c-0.9,1.7-1.3,3.8-1.3,6.2
		c0,4.8,2.2,11.7,7.5,11.7c5.4,0,7.4-5.7,7.4-11C1525.8,1399.4,1524.1,1393.3,1518.3,1393.3z"/>
	<path class="st5" d="M1538.2,1389.3l5.9,17.2c0.6,1.9,1.3,4.2,1.7,6h0.1c0.5-1.7,1.1-4,1.7-6.1l5.4-17.1h5.2l-7.4,20.7
		c-3.5,10-5.9,15.1-9.3,18.2c-2.4,2.3-4.8,3.2-6,3.4l-1.2-4.4c1.2-0.4,2.8-1.3,4.3-2.6c1.3-1.1,3-3.2,4.1-5.9c0.2-0.5,0.4-1,0.4-1.3
		s-0.1-0.7-0.3-1.4l-10-26.8L1538.2,1389.3L1538.2,1389.3z"/>
	<path class="st5" d="M1562.7,1398.8c0-3.7-0.1-6.7-0.2-9.5h4.4l0.2,5h0.1c2-3.5,5.2-5.7,9.6-5.7c6.5,0,11.4,6,11.4,14.8
		c0,10.5-5.9,15.6-12.3,15.6c-3.6,0-6.7-1.7-8.3-4.6h-0.1v15.8h-4.9v-31.4L1562.7,1398.8L1562.7,1398.8z M1567.5,1406.6
		c0,0.8,0.1,1.5,0.2,2.2c0.9,3.7,3.8,6.2,7.4,6.2c5.2,0,8.2-4.6,8.2-11.2c0-5.8-2.8-10.8-8-10.8c-3.3,0-6.5,2.6-7.4,6.6
		c-0.2,0.7-0.3,1.4-0.3,2.2L1567.5,1406.6L1567.5,1406.6z"/>
	<path class="st5" d="M1610.9,1389.3v4.3h-11.7v24.8h-4.9v-29.1H1610.9L1610.9,1389.3z"/>
	<path class="st5" d="M1630,1418.4l-0.4-3.7h-0.2c-1.5,2.3-4.4,4.3-8.3,4.3c-5.5,0-8.3-4.1-8.3-8.4c0-7,5.8-10.9,16.2-10.8v-0.6
		c0-2.4-0.6-6.7-6.1-6.7c-2.5,0-5.1,0.8-7,2.2l-1.1-3.5c2.2-1.6,5.5-2.6,8.9-2.6c8.3,0,10.3,6.1,10.3,11.9v10.9c0,2.5,0.1,5,0.4,7
		L1630,1418.4L1630,1418.4z M1629.3,1403.6c-5.4-0.1-11.4,0.9-11.4,6.6c0,3.4,2.1,5.1,4.6,5.1c3.5,0,5.7-2.4,6.5-4.9
		c0.2-0.5,0.3-1.1,0.3-1.7V1403.6z"/>
</g>
<g>
	<path class="st4" d="M963.9,1131.7V1040h13.5l24,45.3c5.5,10.9,10.4,21,14.4,30.6l0.1-0.1c-1-12.8-1.3-23.6-1.3-38.1V1040h11v91.7
		H1013l-24.1-45.6c-5.4-10.3-10.3-20.7-14.5-31.2l-0.4,0.1c0.6,11.9,0.8,22.4,0.8,38.7v38H963.9L963.9,1131.7z M1078.3,1066.3
		c0,17.5-11,24.7-22.3,24.7c-12.6,0-22.3-8.7-22.3-24.1c0-15.8,10.3-24.7,22.4-24.7C1069.9,1042.1,1078.3,1051.6,1078.3,1066.3z
		 M1037.6,1104.4v-7.3h37.1v7.3H1037.6z M1043.9,1066.8c0,9.9,5.5,17.1,12.1,17.1c7.5,0,12.1-7.2,12.1-17.4
		c0-8.2-3.4-17.4-12.1-17.4C1047.7,1049.2,1043.9,1058.4,1043.9,1066.8z"/>
</g>
</svg>
