<svg xmlns="http://www.w3.org/2000/svg" xml:space="preserve" viewBox="0 0 2193.83 513.32" xmlns:xlink="http://www.w3.org/1999/xlink">
<path fill="#42C1C7" d="M287.51 510.82c2.31,1.59 4.96,2.42 7.64,2.5l0.88 0c2.67,-0.08 5.32,-0.91 7.63,-2.5l9.48 -6.46c28.47,-19.42 278.04,-193.94 278.04,-340.73 0,-70.64 -41.16,-130.18 -105.41,-153.46 -0.63,-0.23 -2.17,-0.72 -4,-1.29 -4.52,-1.44 -9.13,1.92 -9.13,6.68l0 49.99c0,3.94 2.08,7.66 5.56,9.53 31.81,17.06 50.52,49.53 50.52,88.55 0,45.66 -43.42,111.45 -122.31,185.25 -40.29,37.74 -80.37,68.9 -104.87,87 -3.56,2.63 -8.35,2.63 -11.91,0 -24.49,-18.11 -64.59,-49.26 -104.87,-87 -78.88,-73.8 -122.3,-139.59 -122.3,-185.25 0,-39.02 18.7,-71.49 50.52,-88.55 3.47,-1.87 5.55,-5.58 5.55,-9.53l0 -49.99c0,-4.76 -4.61,-8.11 -9.13,-6.68 -1.83,0.57 -3.37,1.07 -4,1.29 -64.25,23.28 -105.4,82.83 -105.4,153.46 0,146.79 249.56,321.31 278.03,340.73l9.48 6.46z"></path>
    <path fill="#42C1C7" d="M290.95 152.58c2.27,3.19 7.01,3.19 9.28,0l20.81 -29.23c18.15,-25.53 39.82,-43.24 64.53,-52.81 2.53,-0.97 5.27,1 5.27,3.7l0.02 248.98c0,4.73 5.67,7.16 9.12,3.91 0.45,-0.42 0.77,-0.73 0.92,-0.86 17.56,-16.67 33.29,-32.88 46.87,-48.33l0.05 -0.05c3.54,-4.03 5.49,-9.21 5.49,-14.57l0 -252.27c0,-5.2 -3.96,-9.54 -9.15,-10 -5.71,-0.52 -12.7,-1.05 -16.59,-1.05 -46.83,0 -92.32,19.16 -128.96,54.11 -1.7,1.64 -4.34,1.64 -6.04,0 -36.64,-34.96 -82.13,-54.11 -128.95,-54.11 -3.9,0 -10.89,0.53 -16.6,1.05 -5.18,0.46 -9.14,4.81 -9.14,10.01l0 252.26c0,5.36 1.94,10.55 5.48,14.57l0.05 0.05c13.57,15.45 29.31,31.66 46.88,48.33 0.14,0.13 0.46,0.44 0.91,0.86 3.45,3.25 9.12,0.82 9.12,-3.91l0.02 -248.98c0,-2.7 2.73,-4.67 5.27,-3.7 24.71,9.56 46.38,27.28 64.54,52.81l20.8 29.23z"></path>
    <path fill="#A23F97" fill-rule="nonzero" d="M765.39 115.88c-1.15,12.23 -5.67,21.8 -13.54,28.69 -7.88,6.85 -18.34,10.29 -31.43,10.29 -9.14,0 -17.18,-2.18 -24.14,-6.5 -6.96,-4.33 -12.31,-10.49 -16.1,-18.47 -3.79,-7.99 -5.75,-17.26 -5.91,-27.82l0 -10.73c0,-10.83 1.93,-20.35 5.75,-28.6 3.84,-8.25 9.33,-14.63 16.5,-19.09 7.18,-4.46 15.46,-6.69 24.84,-6.69 12.66,0 22.85,3.44 30.57,10.29 7.71,6.89 12.2,16.59 13.46,29.14l-19.83 0c-0.94,-8.22 -3.36,-14.19 -7.21,-17.82 -3.87,-3.65 -9.51,-5.48 -16.99,-5.48 -8.65,0 -15.29,3.17 -19.94,9.49 -4.65,6.34 -7.05,15.61 -7.13,27.85l0 10.16c0,12.42 2.21,21.85 6.64,28.38 4.44,6.51 10.94,9.76 19.49,9.76 7.82,0 13.71,-1.75 17.64,-5.27 3.95,-3.52 6.45,-9.38 7.5,-17.58l19.83 0zm82.99 -32.63l-27.64 0 0 70 -19.14 0 0 -70 -27.31 0 0 -15.16 74.09 0 0 15.16zm6.74 26.64c0,-8.36 1.67,-15.89 4.98,-22.58 3.3,-6.7 7.96,-11.83 13.95,-15.43 5.97,-3.6 12.85,-5.41 20.62,-5.41 11.5,0 20.83,3.71 28.01,11.11 7.15,7.42 11.02,17.23 11.61,29.46l0.08 4.49c0,8.41 -1.61,15.91 -4.84,22.53 -3.25,6.61 -7.85,11.74 -13.87,15.37 -6.02,3.63 -12.95,5.43 -20.83,5.43 -12.02,0 -21.64,-4 -28.87,-12.02 -7.21,-8.01 -10.84,-18.68 -10.84,-32.01l0 -0.94zm19.14 1.61c0,8.76 1.83,15.62 5.46,20.59 3.6,4.98 8.66,7.45 15.11,7.45 6.45,0 11.48,-2.53 15.08,-7.55 3.6,-5.06 5.4,-12.42 5.4,-22.15 0,-8.61 -1.85,-15.44 -5.56,-20.49 -3.68,-5.03 -8.71,-7.55 -15.08,-7.55 -6.24,0 -11.21,2.47 -14.87,7.44 -3.68,4.98 -5.54,12.37 -5.54,22.26zm126.91 18.23l25.22 -61.64 23.92 0 0 85.16 -19.14 0 0 -56.35 -23.47 56.35 -12.98 0 -23.55 -56.67 0 56.67 -19.14 0 0 -85.16 24.09 0 25.05 61.64zm121.53 23.52c-0.86,-1.61 -1.58,-4.25 -2.2,-7.93 -6.1,6.37 -13.55,9.54 -22.37,9.54 -8.57,0 -15.53,-2.44 -20.96,-7.34 -5.41,-4.89 -8.09,-10.94 -8.09,-18.14 0,-9.09 3.36,-16.08 10.1,-20.94 6.75,-4.87 16.4,-7.29 28.95,-7.29l11.72 0 0 -5.59c0,-4.41 -1.23,-7.93 -3.68,-10.59 -2.47,-2.66 -6.24,-3.98 -11.26,-3.98 -4.36,0 -7.93,1.1 -10.73,3.28 -2.77,2.18 -4.16,4.95 -4.16,8.31l-19.14 0c0,-4.68 1.56,-9.03 4.65,-13.09 3.09,-4.06 7.31,-7.26 12.63,-9.55 5.32,-2.31 11.29,-3.47 17.85,-3.47 9.97,0 17.93,2.51 23.84,7.53 5.95,5 8.98,12.04 9.14,21.13l0 38.44c0,7.66 1.08,13.76 3.23,18.33l0 1.35 -19.52 0zm-21.05 -13.71c3.8,0 7.34,-0.92 10.68,-2.77 3.33,-1.83 5.86,-4.3 7.52,-7.42l0 -16.1 -10.32 0c-7.07,0 -12.39,1.23 -15.97,3.71 -3.57,2.47 -5.37,5.97 -5.37,10.51 0,3.68 1.23,6.61 3.68,8.79 2.45,2.18 5.7,3.28 9.78,3.28zm123.18 -56.29l-27.64 0 0 70 -19.14 0 0 -70 -27.31 0 0 -15.16 74.09 0 0 15.16zm6.74 26.64c0,-8.36 1.67,-15.89 4.98,-22.58 3.3,-6.7 7.95,-11.83 13.95,-15.43 5.97,-3.6 12.85,-5.41 20.62,-5.41 11.5,0 20.83,3.71 28.01,11.11 7.15,7.42 11.02,17.23 11.61,29.46l0.08 4.49c0,8.41 -1.61,15.91 -4.84,22.53 -3.25,6.61 -7.85,11.74 -13.87,15.37 -6.02,3.63 -12.96,5.43 -20.83,5.43 -12.02,0 -21.64,-4 -28.87,-12.02 -7.21,-8.01 -10.84,-18.68 -10.84,-32.01l0 -0.94zm19.14 1.61c0,8.76 1.83,15.62 5.46,20.59 3.6,4.98 8.66,7.45 15.11,7.45 6.45,0 11.48,-2.53 15.08,-7.55 3.6,-5.06 5.4,-12.42 5.4,-22.15 0,-8.61 -1.85,-15.44 -5.56,-20.49 -3.69,-5.03 -8.71,-7.55 -15.08,-7.55 -6.24,0 -11.21,2.47 -14.87,7.44 -3.68,4.98 -5.54,12.37 -5.54,22.26zm147.45 -43.41l0 85.16 -19.14 0 0 -69.68 -24.09 0 -1.58 29.65c-1,14.25 -3.74,24.49 -8.23,30.7 -4.49,6.21 -11.34,9.33 -20.59,9.33l-5.91 0 -0.08 -15.97 3.95 -0.4c4.19,-0.57 7.26,-3.12 9.16,-7.66 1.91,-4.55 3.15,-12.8 3.66,-24.82l1.59 -36.31 61.26 0zm16.75 41.8c0,-8.36 1.66,-15.89 4.97,-22.58 3.31,-6.7 7.96,-11.83 13.95,-15.43 5.97,-3.6 12.85,-5.41 20.62,-5.41 11.5,0 20.83,3.71 28.01,11.11 7.15,7.42 11.02,17.23 11.61,29.46l0.08 4.49c0,8.41 -1.61,15.91 -4.84,22.53 -3.25,6.61 -7.85,11.74 -13.87,15.37 -6.02,3.63 -12.95,5.43 -20.83,5.43 -12.02,0 -21.64,-4 -28.87,-12.02 -7.21,-8.01 -10.83,-18.68 -10.83,-32.01l0 -0.94zm19.14 1.61c0,8.76 1.82,15.62 5.45,20.59 3.6,4.98 8.66,7.45 15.11,7.45 6.45,0 11.48,-2.53 15.08,-7.55 3.6,-5.06 5.4,-12.42 5.4,-22.15 0,-8.61 -1.85,-15.44 -5.56,-20.49 -3.68,-5.03 -8.71,-7.55 -15.08,-7.55 -6.24,0 -11.21,2.47 -14.87,7.44 -3.68,4.98 -5.53,12.37 -5.53,22.26zm133.06 -27.93l-37.02 0 0 69.68 -19.06 0 0 -85.16 56.08 0 0 15.48zm64.03 -15.48l19.06 0 0 85.16 -19.06 0 0 -56.83 -33.39 56.83 -19.05 0 0 -85.16 19.05 0 0 56.83 33.39 -56.83zm107.74 85.16l-19.14 0 0 -28.5c-4.94,1.16 -10.13,1.72 -15.59,1.72 -11.67,0 -20.56,-2.79 -26.69,-8.38 -6.16,-5.59 -9.22,-13.61 -9.22,-24.04l0 -26.12 19.14 0 0 26.1c0,6.18 1.37,10.54 4.14,13.12 2.74,2.55 6.96,3.84 12.63,3.84 5.14,0 10.35,-0.59 15.59,-1.8l0 -41.1 19.14 0 0 85.16zm57.91 1.61c-12.13,0 -21.97,-3.82 -29.49,-11.45 -7.53,-7.66 -11.32,-17.82 -11.32,-30.54l0 -2.36c0,-8.5 1.64,-16.11 4.95,-22.8 3.28,-6.69 7.87,-11.91 13.81,-15.64 5.92,-3.74 12.53,-5.6 19.84,-5.6 11.61,0 20.57,3.71 26.88,11.13 6.35,7.42 9.49,17.91 9.49,31.46l0 7.74 -55.67 0c0.59,7.01 2.93,12.55 7.04,16.61 4.14,4.09 9.33,6.13 15.57,6.13 8.76,0 15.91,-3.52 21.42,-10.59l10.32 9.84c-3.41,5.1 -7.98,9.06 -13.68,11.85 -5.7,2.82 -12.07,4.22 -19.16,4.22zm-2.29 -73.06c-5.24,0 -9.49,1.85 -12.71,5.54 -3.23,3.68 -5.3,8.84 -6.19,15.42l36.45 0 0 -1.42c-0.4,-6.42 -2.12,-11.29 -5.1,-14.6 -2.99,-3.3 -7.15,-4.94 -12.45,-4.94zm86.26 57.74c4.76,0 8.74,-1.4 11.89,-4.17 3.14,-2.77 4.83,-6.21 5.02,-10.29l18.04 0c-0.19,5.32 -1.85,10.27 -4.95,14.86 -3.09,4.6 -7.31,8.23 -12.6,10.92 -5.3,2.66 -11.02,4 -17.18,4 -11.91,0 -21.37,-3.87 -28.33,-11.58 -6.99,-7.72 -10.49,-18.39 -10.49,-31.99l0 -1.97c0,-12.95 3.47,-23.36 10.41,-31.15 6.93,-7.8 16.37,-11.7 28.33,-11.7 10.13,0 18.41,2.96 24.78,8.88 6.37,5.88 9.73,13.65 10.03,23.27l-18.04 0c-0.19,-4.91 -1.85,-8.92 -5,-12.09 -3.12,-3.15 -7.09,-4.73 -11.91,-4.73 -6.21,0 -10.99,2.25 -14.35,6.74 -3.36,4.49 -5.05,11.29 -5.11,20.43l0 3.07c0,9.25 1.67,16.13 5,20.67 3.34,4.54 8.15,6.83 14.46,6.83zm79.74 -20.16l-9.68 0 0 33.87 -19.14 0 0 -85.16 19.14 0 0 33.87 8.41 0 23.55 -33.87 23.63 0 -30.78 40.62 33.39 44.54 -24.9 0 -23.62 -33.87zm109.94 33.87c-0.86,-1.61 -1.59,-4.25 -2.2,-7.93 -6.11,6.37 -13.55,9.54 -22.37,9.54 -8.57,0 -15.54,-2.44 -20.97,-7.34 -5.4,-4.89 -8.09,-10.94 -8.09,-18.14 0,-9.09 3.36,-16.08 10.11,-20.94 6.75,-4.87 16.4,-7.29 28.95,-7.29l11.72 0 0 -5.59c0,-4.41 -1.24,-7.93 -3.68,-10.59 -2.47,-2.66 -6.24,-3.98 -11.27,-3.98 -4.35,0 -7.93,1.1 -10.72,3.28 -2.77,2.18 -4.17,4.95 -4.17,8.31l-19.14 0c0,-4.68 1.56,-9.03 4.65,-13.09 3.09,-4.06 7.31,-7.26 12.64,-9.55 5.32,-2.31 11.29,-3.47 17.85,-3.47 9.97,0 17.93,2.51 23.84,7.53 5.94,5 8.98,12.04 9.14,21.13l0 38.44c0,7.66 1.08,13.76 3.23,18.33l0 1.35 -19.52 0zm-21.05 -13.71c3.79,0 7.34,-0.92 10.67,-2.77 3.34,-1.83 5.86,-4.3 7.53,-7.42l0 -16.1 -10.32 0c-7.07,0 -12.39,1.23 -15.97,3.71 -3.57,2.47 -5.37,5.97 -5.37,10.51 0,3.68 1.23,6.61 3.68,8.79 2.44,2.18 5.7,3.28 9.78,3.28zm125.65 -71.45l0 85.16 -19.06 0 0 -31.29 -17.88 0 -18.2 31.29 -19.84 0 20.08 -34.44c-5.24,-2.2 -9.27,-5.35 -12.09,-9.43 -2.8,-4.12 -4.2,-8.79 -4.2,-14.09 0,-7.9 3.04,-14.41 9.17,-19.46 6.1,-5.05 14.38,-7.64 24.76,-7.74l37.26 0zm-52.05 27.66c0,3.55 1.32,6.45 3.98,8.68 2.64,2.23 6.05,3.34 10.19,3.34l18.82 0 0 -24.52 -17.64 0c-4.67,0 -8.41,1.18 -11.18,3.55 -2.8,2.34 -4.17,5.32 -4.17,8.95zm-1331.33 251.07l-19.14 0 0 -69.67 -33.25 0 0 69.67 -19.12 0 0 -85.16 71.51 0 0 85.16zm16.72 -43.36c0,-8.36 1.67,-15.88 4.97,-22.58 3.31,-6.69 7.96,-11.83 13.95,-15.43 5.97,-3.6 12.85,-5.4 20.62,-5.4 11.51,0 20.84,3.71 28.01,11.1 7.15,7.42 11.02,17.23 11.62,29.46l0.08 4.49c0,8.42 -1.62,15.92 -4.84,22.53 -3.25,6.61 -7.85,11.75 -13.87,15.38 -6.02,3.62 -12.96,5.43 -20.84,5.43 -12.01,0 -21.64,-4.01 -28.87,-12.02 -7.2,-8.01 -10.83,-18.68 -10.83,-32.02l0 -0.94zm19.14 1.62c0,8.76 1.83,15.61 5.46,20.59 3.6,4.97 8.65,7.44 15.1,7.44 6.46,0 11.48,-2.52 15.08,-7.55 3.61,-5.05 5.41,-12.42 5.41,-22.15 0,-8.6 -1.86,-15.43 -5.57,-20.48 -3.68,-5.03 -8.71,-7.56 -15.08,-7.56 -6.23,0 -11.21,2.48 -14.86,7.45 -3.69,4.97 -5.54,12.36 -5.54,22.26zm147.45 -43.42l0 85.16 -19.15 0 0 -69.67 -24.08 0 -1.59 29.65c-0.99,14.24 -3.73,24.48 -8.22,30.69 -4.49,6.21 -11.35,9.33 -20.59,9.33l-5.92 0 -0.08 -15.96 3.95 -0.41c4.2,-0.56 7.26,-3.12 9.17,-7.66 1.91,-4.54 3.14,-12.79 3.66,-24.81l1.58 -36.32 61.27 0zm73.57 0l19.06 0 0 85.16 -19.06 0 0 -56.82 -33.39 56.82 -19.06 0 0 -85.16 19.06 0 0 56.83 33.39 -56.83zm69.68 51.29l-9.68 0 0 33.87 -19.14 0 0 -85.16 19.14 0 0 33.87 8.41 0 23.55 -33.87 23.63 0 -30.78 40.62 33.39 44.54 -24.89 0 -23.63 -33.87zm131.42 -51.29l0 85.16 -19.14 0 0 -69.67 -24.09 0 -1.58 29.65c-1,14.24 -3.74,24.48 -8.23,30.69 -4.49,6.21 -11.34,9.33 -20.59,9.33l-5.91 0 -0.08 -15.96 3.95 -0.41c4.19,-0.56 7.26,-3.12 9.16,-7.66 1.91,-4.54 3.15,-12.79 3.66,-24.81l1.59 -36.32 61.26 0zm73.57 0l19.06 0 0 85.16 -19.06 0 0 -56.82 -33.38 56.82 -19.06 0 0 -85.16 19.06 0 0 56.83 33.38 -56.83zm111.59 85.16l-19.14 0 0 -34.35 -33.17 0 0 34.35 -19.12 0 0 -85.16 19.12 0 0 35.49 33.17 0 0 -35.49 19.14 0 0 85.16zm73.55 -85.16l19.06 0 0 85.16 -19.06 0 0 -56.82 -33.39 56.82 -19.06 0 0 -85.16 19.06 0 0 56.83 33.39 -56.83zm69.67 51.29l-9.67 0 0 33.87 -19.14 0 0 -85.16 19.14 0 0 33.87 8.41 0 23.55 -33.87 23.63 0 -30.78 40.62 33.39 44.54 -24.9 0 -23.63 -33.87zm109.95 33.87c-0.86,-1.61 -1.59,-4.24 -2.21,-7.93 -6.1,6.37 -13.54,9.55 -22.36,9.55 -8.58,0 -15.54,-2.45 -20.97,-7.34 -5.4,-4.9 -8.09,-10.94 -8.09,-18.15 0,-9.08 3.36,-16.07 10.11,-20.94 6.74,-4.86 16.4,-7.28 28.95,-7.28l11.72 0 0 -5.6c0,-4.4 -1.24,-7.93 -3.68,-10.59 -2.48,-2.66 -6.24,-3.98 -11.27,-3.98 -4.35,0 -7.93,1.11 -10.72,3.29 -2.77,2.17 -4.17,4.94 -4.17,8.3l-19.14 0c0,-4.68 1.56,-9.03 4.65,-13.09 3.09,-4.06 7.31,-7.26 12.64,-9.54 5.32,-2.31 11.29,-3.47 17.85,-3.47 9.97,0 17.93,2.5 23.84,7.53 5.94,5 8.98,12.04 9.14,21.12l0 38.44c0,7.67 1.07,13.77 3.23,18.34l0 1.34 -19.52 0zm-21.05 -13.71c3.79,0 7.34,-0.91 10.67,-2.77 3.34,-1.82 5.86,-4.3 7.53,-7.42l0 -16.1 -10.32 0c-7.07,0 -12.4,1.24 -15.97,3.71 -3.58,2.48 -5.38,5.97 -5.38,10.51 0,3.69 1.24,6.62 3.69,8.79 2.44,2.18 5.69,3.28 9.78,3.28zm240.73 -18.71l-47.96 0 0 -11.77 47.96 0 0 11.77zm-51.19 -55.8c0,-8.36 2.48,-15.08 7.48,-20.14 4.97,-5.08 11.58,-7.6 19.75,-7.6 8.2,0 14.81,2.52 19.82,7.55 5.02,5.05 7.52,11.93 7.52,20.64l0 6.16c0,8.2 -2.44,14.84 -7.34,19.95 -4.86,5.08 -11.47,7.63 -19.83,7.63 -8.34,0 -15,-2.55 -19.98,-7.63 -4.94,-5.11 -7.42,-11.91 -7.42,-20.43l0 -6.13zm13.77 6.61c0,5.08 1.21,9.01 3.63,11.85 2.41,2.85 5.75,4.28 10,4.28 4.14,0 7.41,-1.43 9.81,-4.28 2.39,-2.84 3.57,-6.85 3.57,-12.06l0 -6.4c0,-5.03 -1.21,-8.95 -3.63,-11.83 -2.42,-2.88 -5.72,-4.3 -9.92,-4.3 -4.14,0 -7.42,1.42 -9.83,4.3 -2.42,2.88 -3.63,6.88 -3.63,12.04l0 6.4zm-24.65 81.61l-21.11 0 -39.3 -81.45 0 81.45 -19.22 0 0 -114.67 21.05 0 39.52 81.66 0 -81.66 19.06 0 0 114.67zm174.56 0l-19.05 0 0 -92.01 -28.12 9.59 0 -16.13 44.73 -16.45 2.44 0 0 115zm44.95 -56.85l6.21 -57.82 61.59 0 0 16.61 -45.68 0 -3.14 27.31c5.29,-3.04 11.29,-4.57 17.96,-4.57 10.91,0 19.4,3.5 25.48,10.48 6.05,6.99 9.09,16.4 9.09,28.23 0,11.67 -3.36,20.94 -10.08,27.85 -6.73,6.91 -15.95,10.38 -27.64,10.38 -10.51,0 -19.22,-2.99 -26.13,-8.96 -6.88,-5.96 -10.64,-13.84 -11.21,-23.6l18.5 0c0.75,5.57 2.74,9.81 5.99,12.8 3.25,2.95 7.5,4.43 12.77,4.43 5.86,0 10.46,-2.09 13.74,-6.29 3.28,-4.19 4.92,-9.92 4.92,-17.17 0,-6.97 -1.81,-12.5 -5.43,-16.56 -3.63,-4.06 -8.61,-6.11 -14.98,-6.11 -3.46,0 -6.39,0.46 -8.81,1.38 -2.42,0.91 -5.03,2.71 -7.88,5.4l-15.27 -3.79z"></path>
    <path fill="#E6B711" fill-rule="nonzero" d="M703.05 491.26l-8.04 0 0 -12 -32.1 0 0 12 -8.17 0 -0.26 -18.78 3.91 0c1.94,-1.88 3.49,-4.61 4.66,-8.18 1.15,-3.58 1.91,-7.63 2.24,-12.16l1.27 -21.61 30.73 0 0 41.95 6.19 0 -0.43 18.78zm-35.09 -18.78l20.88 0 0 -35.1 -14.22 0 -0.8 13.71c-0.6,9.15 -2.56,16.28 -5.86,21.39zm57.05 7.47c-5.15,0 -9.33,-1.62 -12.53,-4.87 -3.2,-3.25 -4.81,-7.57 -4.81,-12.98l0 -1c0,-3.61 0.7,-6.84 2.1,-9.69 1.4,-2.84 3.35,-5.06 5.88,-6.65 2.51,-1.59 5.32,-2.37 8.43,-2.37 4.93,0 8.74,1.57 11.42,4.72 2.7,3.16 4.04,7.61 4.04,13.37l0 3.29 -23.66 0c0.25,2.98 1.24,5.34 2.99,7.06 1.76,1.74 3.96,2.61 6.61,2.61 3.73,0 6.77,-1.5 9.11,-4.5l4.39 4.18c-1.45,2.17 -3.4,3.85 -5.82,5.04 -2.42,1.2 -5.13,1.79 -8.15,1.79zm-0.97 -31.05c-2.22,0 -4.03,0.79 -5.4,2.35 -1.37,1.57 -2.25,3.76 -2.63,6.56l15.49 0 0 -0.61c-0.17,-2.73 -0.9,-4.8 -2.17,-6.2 -1.26,-1.41 -3.04,-2.1 -5.29,-2.1zm52.51 30.36l-8.13 0 0 -29.61 -14.14 0 0 29.61 -8.12 0 0 -36.19 30.39 0 0 36.19zm30.29 0c-0.37,-0.68 -0.68,-1.8 -0.94,-3.37 -2.59,2.71 -5.76,4.06 -9.5,4.06 -3.65,0 -6.61,-1.04 -8.92,-3.12 -2.29,-2.08 -3.43,-4.65 -3.43,-7.71 0,-3.86 1.42,-6.83 4.29,-8.9 2.87,-2.07 6.97,-3.1 12.31,-3.1l4.98 0 0 -2.37c0,-1.88 -0.53,-3.37 -1.57,-4.5 -1.05,-1.14 -2.65,-1.69 -4.78,-1.69 -1.86,0 -3.38,0.46 -4.56,1.39 -1.18,0.92 -1.77,2.1 -1.77,3.53l-8.14 0c0,-1.99 0.66,-3.84 1.98,-5.57 1.31,-1.72 3.1,-3.08 5.37,-4.05 2.26,-0.98 4.8,-1.47 7.58,-1.47 4.24,0 7.62,1.06 10.14,3.19 2.52,2.13 3.81,5.12 3.88,8.98l0 16.34c0,3.26 0.46,5.85 1.37,7.79l0 0.57 -8.29 0zm-8.95 -5.82c1.61,0 3.12,-0.39 4.54,-1.18 1.42,-0.78 2.49,-1.83 3.2,-3.15l0 -6.85 -4.39 0c-3,0 -5.27,0.53 -6.79,1.58 -1.52,1.05 -2.28,2.54 -2.28,4.47 0,1.56 0.52,2.81 1.56,3.73 1.04,0.93 2.43,1.4 4.16,1.4zm56.11 -11.91c0,5.61 -1.28,10.08 -3.82,13.42 -2.54,3.33 -5.96,5 -10.24,5 -3.97,0 -7.16,-1.3 -9.54,-3.92l0 17.15 -8.14 0 0 -50.11 7.51 0 0.33 3.67c2.39,-2.9 5.63,-4.35 9.73,-4.35 4.42,0 7.89,1.64 10.4,4.93 2.51,3.29 3.77,7.86 3.77,13.71l0 0.5zm-8.1 -0.72c0,-3.61 -0.72,-6.47 -2.16,-8.6 -1.44,-2.11 -3.5,-3.18 -6.18,-3.18 -3.33,0 -5.71,1.38 -7.16,4.12l0 16.07c1.47,2.81 3.88,4.22 7.23,4.22 2.59,0 4.61,-1.04 6.08,-3.13 1.46,-2.09 2.19,-5.25 2.19,-9.5zm42.07 -11.3l-11.75 0 0 29.75 -8.13 0 0 -29.75 -11.61 0 0 -6.44 31.49 0 0 6.44zm26.51 29.75c-0.36,-0.68 -0.67,-1.8 -0.94,-3.37 -2.59,2.71 -5.75,4.06 -9.5,4.06 -3.65,0 -6.61,-1.04 -8.91,-3.12 -2.3,-2.08 -3.44,-4.65 -3.44,-7.71 0,-3.86 1.43,-6.83 4.29,-8.9 2.87,-2.07 6.97,-3.1 12.31,-3.1l4.98 0 0 -2.37c0,-1.88 -0.53,-3.37 -1.56,-4.5 -1.06,-1.14 -2.66,-1.69 -4.79,-1.69 -1.85,0 -3.37,0.46 -4.56,1.39 -1.18,0.92 -1.77,2.1 -1.77,3.53l-8.14 0c0,-1.99 0.67,-3.84 1.98,-5.57 1.31,-1.72 3.11,-3.08 5.37,-4.05 2.26,-0.98 4.8,-1.47 7.59,-1.47 4.24,0 7.62,1.06 10.13,3.19 2.52,2.13 3.82,5.12 3.88,8.98l0 16.34c0,3.26 0.46,5.85 1.37,7.79l0 0.57 -8.29 0zm-8.94 -5.82c1.61,0 3.11,-0.39 4.53,-1.18 1.42,-0.78 2.49,-1.83 3.2,-3.15l0 -6.85 -4.39 0c-3,0 -5.26,0.53 -6.78,1.58 -1.52,1.05 -2.29,2.54 -2.29,4.47 0,1.56 0.53,2.81 1.57,3.73 1.04,0.93 2.42,1.4 4.16,1.4zm45.89 -4.17l10.71 -26.2 10.17 0 0 36.19 -8.13 0 0 -23.94 -9.98 23.94 -5.51 0 -10.01 -24.08 0 24.08 -8.14 0 0 -36.19 10.24 0 10.65 26.2zm45.97 10.68c-5.15,0 -9.33,-1.62 -12.53,-4.87 -3.2,-3.25 -4.81,-7.57 -4.81,-12.98l0 -1c0,-3.61 0.7,-6.84 2.1,-9.69 1.39,-2.84 3.35,-5.06 5.87,-6.65 2.52,-1.59 5.33,-2.37 8.43,-2.37 4.94,0 8.74,1.57 11.43,4.72 2.69,3.16 4.03,7.61 4.03,13.37l0 3.29 -23.66 0c0.25,2.98 1.25,5.34 2.99,7.06 1.76,1.74 3.97,2.61 6.62,2.61 3.72,0 6.76,-1.5 9.1,-4.5l4.39 4.18c-1.45,2.17 -3.39,3.85 -5.81,5.04 -2.43,1.2 -5.13,1.79 -8.15,1.79zm-0.97 -31.05c-2.23,0 -4.03,0.79 -5.4,2.35 -1.37,1.57 -2.26,3.76 -2.63,6.56l15.49 0 0 -0.61c-0.17,-2.73 -0.9,-4.8 -2.17,-6.2 -1.27,-1.41 -3.04,-2.1 -5.29,-2.1zm52.47 30.36l-8.13 0 0 -14.6 -14.1 0 0 14.6 -8.12 0 0 -36.19 8.12 0 0 15.08 14.1 0 0 -15.08 8.13 0 0 36.19zm37.15 -29.75l-11.75 0 0 29.75 -8.13 0 0 -29.75 -11.61 0 0 -6.44 31.49 0 0 6.44zm49.91 3.41c0,1.6 -0.48,3.07 -1.45,4.42 -0.97,1.35 -2.34,2.43 -4.1,3.23 4.14,1.45 6.22,4.26 6.22,8.43 0,3.34 -1.35,5.99 -4.04,7.98 -2.71,1.98 -6.32,2.97 -10.85,2.97 -2.77,0 -5.29,-0.47 -7.57,-1.39 -2.27,-0.94 -4.04,-2.26 -5.32,-3.97 -1.27,-1.71 -1.91,-3.75 -1.91,-6.1l8.1 0c0,1.49 0.66,2.72 1.98,3.73 1.31,0.99 2.98,1.49 4.99,1.49 1.99,0 3.56,-0.47 4.73,-1.39 1.18,-0.94 1.76,-2.16 1.76,-3.67 0,-1.77 -0.52,-3.05 -1.54,-3.84 -1.03,-0.79 -2.61,-1.18 -4.76,-1.18l-5.81 0 0 -5.82 6.02 0c3.63,-0.05 5.45,-1.54 5.45,-4.49 0,-1.48 -0.52,-2.63 -1.57,-3.45 -1.05,-0.84 -2.49,-1.25 -4.31,-1.25 -1.79,0 -3.3,0.45 -4.53,1.33 -1.22,0.88 -1.84,2 -1.84,3.33l-8.1 0c0,-3.18 1.34,-5.8 4.02,-7.83 2.68,-2.05 6.08,-3.06 10.21,-3.06 4.48,0 7.98,0.91 10.47,2.74 2.5,1.82 3.75,4.42 3.75,7.79zm7.72 19.83c2.25,-2.51 3.76,-4.91 4.54,-7.17 0.76,-2.25 1.23,-5.15 1.38,-8.67l0.47 -13.84 25.13 0 0 29.68 5.03 0 0 17.28 -8.1 0 0 -10.77 -23.23 0 0 10.77 -8.23 0 0.03 -17.28 2.98 0zm9.54 0l13.88 0 0 -22.69 -9.13 0 -0.24 6.91c-0.3,6.64 -1.81,11.91 -4.51,15.78zm63.93 -11.22c0,5.61 -1.28,10.08 -3.81,13.42 -2.55,3.33 -5.97,5 -10.25,5 -3.96,0 -7.15,-1.3 -9.54,-3.92l0 17.15 -8.13 0 0 -50.11 7.5 0 0.33 3.67c2.39,-2.9 5.64,-4.35 9.74,-4.35 4.42,0 7.88,1.64 10.39,4.93 2.52,3.29 3.77,7.86 3.77,13.71l0 0.5zm-8.1 -0.72c0,-3.61 -0.72,-6.47 -2.15,-8.6 -1.44,-2.11 -3.5,-3.18 -6.19,-3.18 -3.32,0 -5.71,1.38 -7.16,4.12l0 16.07c1.47,2.81 3.88,4.22 7.23,4.22 2.6,0 4.62,-1.04 6.08,-3.13 1.46,-2.09 2.19,-5.25 2.19,-9.5zm36.62 18.45c-0.37,-0.68 -0.67,-1.8 -0.94,-3.37 -2.59,2.71 -5.76,4.06 -9.5,4.06 -3.65,0 -6.61,-1.04 -8.91,-3.12 -2.3,-2.08 -3.44,-4.65 -3.44,-7.71 0,-3.86 1.43,-6.83 4.29,-8.9 2.87,-2.07 6.97,-3.1 12.31,-3.1l4.98 0 0 -2.37c0,-1.88 -0.53,-3.37 -1.57,-4.5 -1.05,-1.14 -2.65,-1.69 -4.78,-1.69 -1.85,0 -3.37,0.46 -4.56,1.39 -1.18,0.92 -1.77,2.1 -1.77,3.53l-8.14 0c0,-1.99 0.67,-3.84 1.98,-5.57 1.31,-1.72 3.11,-3.08 5.37,-4.05 2.26,-0.98 4.8,-1.47 7.58,-1.47 4.24,0 7.62,1.06 10.14,3.19 2.52,2.13 3.81,5.12 3.88,8.98l0 16.34c0,3.26 0.46,5.85 1.37,7.79l0 0.57 -8.29 0zm-8.95 -5.82c1.61,0 3.12,-0.39 4.54,-1.18 1.42,-0.78 2.49,-1.83 3.2,-3.15l0 -6.85 -4.39 0c-3,0 -5.27,0.53 -6.78,1.58 -1.52,1.05 -2.29,2.54 -2.29,4.47 0,1.56 0.53,2.81 1.57,3.73 1.03,0.93 2.42,1.4 4.15,1.4zm25.01 5.82l0 -36.19 14.71 0c4.94,0 8.71,0.87 11.31,2.59 2.58,1.73 3.88,4.21 3.88,7.44 0,1.67 -0.52,3.18 -1.56,4.5 -1.03,1.33 -2.57,2.35 -4.6,3.07 2.37,0.47 4.24,1.47 5.62,2.96 1.39,1.5 2.07,3.26 2.07,5.29 0,3.38 -1.23,5.93 -3.72,7.7 -2.49,1.76 -6.07,2.64 -10.73,2.64l-16.98 0zm8.14 -15.42l0 8.98 8.91 0c4.17,0 6.26,-1.5 6.26,-4.48 0,-3 -2.13,-4.5 -6.36,-4.5l-8.81 0zm0 -5.83l6.69 0c4.63,0 6.94,-1.36 6.94,-4.07 0,-2.86 -2.2,-4.33 -6.57,-4.43l-7.06 0 0 8.5zm28.76 2.83c0,-3.56 0.71,-6.76 2.12,-9.6 1.4,-2.84 3.38,-5.03 5.93,-6.56 2.53,-1.53 5.46,-2.29 8.76,-2.29 4.89,0 8.85,1.57 11.9,4.71 3.04,3.16 4.69,7.33 4.94,12.52l0.03 1.91c0,3.58 -0.68,6.77 -2.05,9.58 -1.38,2.81 -3.34,4.99 -5.9,6.53 -2.56,1.54 -5.5,2.31 -8.85,2.31 -5.11,0 -9.2,-1.7 -12.27,-5.11 -3.06,-3.4 -4.61,-7.94 -4.61,-13.6l0 -0.4zm8.14 0.68c0,3.73 0.78,6.64 2.32,8.75 1.53,2.12 3.68,3.17 6.42,3.17 2.74,0 4.88,-1.08 6.41,-3.21 1.53,-2.15 2.29,-5.28 2.29,-9.42 0,-3.65 -0.78,-6.55 -2.36,-8.7 -1.57,-2.14 -3.7,-3.21 -6.41,-3.21 -2.65,0 -4.76,1.05 -6.32,3.16 -1.56,2.12 -2.35,5.26 -2.35,9.46zm30.89 -0.68c0,-3.56 0.71,-6.76 2.11,-9.6 1.41,-2.84 3.39,-5.03 5.93,-6.56 2.54,-1.53 5.46,-2.29 8.77,-2.29 4.89,0 8.85,1.57 11.9,4.71 3.04,3.16 4.68,7.33 4.94,12.52l0.03 1.91c0,3.58 -0.69,6.77 -2.06,9.58 -1.38,2.81 -3.33,4.99 -5.89,6.53 -2.56,1.54 -5.51,2.31 -8.86,2.31 -5.1,0 -9.19,-1.7 -12.27,-5.11 -3.06,-3.4 -4.6,-7.94 -4.6,-13.6l0 -0.4zm8.14 0.68c0,3.73 0.77,6.64 2.31,8.75 1.54,2.12 3.68,3.17 6.42,3.17 2.75,0 4.88,-1.08 6.41,-3.21 1.54,-2.15 2.3,-5.28 2.3,-9.42 0,-3.65 -0.79,-6.55 -2.36,-8.7 -1.57,-2.14 -3.71,-3.21 -6.41,-3.21 -2.65,0 -4.77,1.05 -6.32,3.16 -1.57,2.12 -2.35,5.26 -2.35,9.46zm44.72 -6.54l6.89 -11.91 9.04 0 -11.07 17.83 11.44 18.36 -8.96 0 -7.24 -12.37 -7.19 12.37 -9.04 0 11.45 -18.36 -11.05 -17.83 8.97 0 6.76 11.91zm53.19 6.55c0,5.61 -1.27,10.08 -3.81,13.42 -2.55,3.33 -5.96,5 -10.25,5 -3.96,0 -7.15,-1.3 -9.54,-3.92l0 17.15 -8.13 0 0 -50.11 7.5 0 0.33 3.67c2.39,-2.9 5.64,-4.35 9.74,-4.35 4.42,0 7.88,1.64 10.4,4.93 2.51,3.29 3.76,7.86 3.76,13.71l0 0.5zm-8.09 -0.72c0,-3.61 -0.72,-6.47 -2.16,-8.6 -1.44,-2.11 -3.5,-3.18 -6.18,-3.18 -3.33,0 -5.72,1.38 -7.17,4.12l0 16.07c1.48,2.81 3.89,4.22 7.23,4.22 2.6,0 4.62,-1.04 6.08,-3.13 1.46,-2.09 2.2,-5.25 2.2,-9.5zm36.61 18.45c-0.36,-0.68 -0.67,-1.8 -0.94,-3.37 -2.59,2.71 -5.75,4.06 -9.5,4.06 -3.65,0 -6.61,-1.04 -8.91,-3.12 -2.3,-2.08 -3.44,-4.65 -3.44,-7.71 0,-3.86 1.43,-6.83 4.29,-8.9 2.87,-2.07 6.97,-3.1 12.31,-3.1l4.98 0 0 -2.37c0,-1.88 -0.53,-3.37 -1.56,-4.5 -1.06,-1.14 -2.66,-1.69 -4.79,-1.69 -1.85,0 -3.37,0.46 -4.56,1.39 -1.18,0.92 -1.77,2.1 -1.77,3.53l-8.14 0c0,-1.99 0.67,-3.84 1.98,-5.57 1.31,-1.72 3.11,-3.08 5.37,-4.05 2.26,-0.98 4.8,-1.47 7.59,-1.47 4.24,0 7.62,1.06 10.13,3.19 2.52,2.13 3.82,5.12 3.88,8.98l0 16.34c0,3.26 0.46,5.85 1.38,7.79l0 0.57 -8.3 0zm-8.94 -5.82c1.61,0 3.11,-0.39 4.53,-1.18 1.42,-0.78 2.49,-1.83 3.2,-3.15l0 -6.85 -4.39 0c-3,0 -5.26,0.53 -6.78,1.58 -1.52,1.05 -2.29,2.54 -2.29,4.47 0,1.56 0.53,2.81 1.57,3.73 1.04,0.93 2.42,1.4 4.16,1.4zm55.06 5.82l-8.13 0 0 -14.6 -14.1 0 0 14.6 -8.12 0 0 -36.19 8.12 0 0 15.08 14.1 0 0 -15.08 8.13 0 0 36.19zm24.61 0.69c-5.15,0 -9.33,-1.62 -12.53,-4.87 -3.2,-3.25 -4.81,-7.57 -4.81,-12.98l0 -1c0,-3.61 0.7,-6.84 2.1,-9.69 1.39,-2.84 3.35,-5.06 5.87,-6.65 2.52,-1.59 5.33,-2.37 8.43,-2.37 4.94,0 8.74,1.57 11.43,4.72 2.69,3.16 4.03,7.61 4.03,13.37l0 3.29 -23.66 0c0.25,2.98 1.25,5.34 2.99,7.06 1.76,1.74 3.97,2.61 6.62,2.61 3.72,0 6.76,-1.5 9.1,-4.5l4.39 4.18c-1.45,2.17 -3.39,3.85 -5.81,5.04 -2.43,1.2 -5.13,1.79 -8.15,1.79zm-0.97 -31.05c-2.23,0 -4.03,0.79 -5.4,2.35 -1.37,1.57 -2.26,3.76 -2.63,6.56l15.49 0 0 -0.61c-0.17,-2.73 -0.9,-4.8 -2.17,-6.2 -1.27,-1.41 -3.04,-2.1 -5.29,-2.1zm52.47 30.36l-8.13 0 0 -14.6 -14.1 0 0 14.6 -8.12 0 0 -36.19 8.12 0 0 15.08 14.1 0 0 -15.08 8.13 0 0 36.19zm31.26 -36.19l8.1 0 0 36.19 -8.1 0 0 -24.15 -14.19 24.15 -8.1 0 0 -36.19 8.1 0 0 24.15 14.19 -24.15zm45.76 0l0 36.19 -8.1 0 0 -13.29 -7.6 0 -7.74 13.29 -8.43 0 8.54 -14.63c-2.23,-0.94 -3.94,-2.27 -5.14,-4.01 -1.19,-1.75 -1.79,-3.74 -1.79,-5.99 0,-3.36 1.29,-6.12 3.9,-8.27 2.59,-2.15 6.11,-3.24 10.52,-3.29l15.84 0zm-22.12 11.76c0,1.5 0.56,2.74 1.69,3.69 1.12,0.94 2.57,1.41 4.33,1.41l8 0 0 -10.42 -7.5 0c-1.99,0 -3.57,0.51 -4.75,1.51 -1.19,1 -1.77,2.26 -1.77,3.81zm72.32 -5.18l-15.74 0 0 29.61 -8.1 0 0 -36.19 23.84 0 0 6.58zm2.38 11.19c0,-3.56 0.71,-6.76 2.12,-9.6 1.4,-2.84 3.38,-5.03 5.93,-6.56 2.53,-1.53 5.46,-2.29 8.76,-2.29 4.89,0 8.85,1.57 11.9,4.71 3.04,3.16 4.69,7.33 4.94,12.52l0.03 1.91c0,3.58 -0.68,6.77 -2.05,9.58 -1.38,2.81 -3.34,4.99 -5.9,6.53 -2.56,1.54 -5.5,2.31 -8.85,2.31 -5.11,0 -9.2,-1.7 -12.27,-5.11 -3.06,-3.4 -4.61,-7.94 -4.61,-13.6l0 -0.4zm8.14 0.68c0,3.73 0.78,6.64 2.32,8.75 1.53,2.12 3.68,3.17 6.42,3.17 2.74,0 4.88,-1.08 6.41,-3.21 1.53,-2.15 2.29,-5.28 2.29,-9.42 0,-3.65 -0.78,-6.55 -2.36,-8.7 -1.57,-2.14 -3.7,-3.21 -6.41,-3.21 -2.65,0 -4.76,1.05 -6.32,3.16 -1.56,2.12 -2.35,5.26 -2.35,9.46zm64.15 0.01c0,5.61 -1.28,10.08 -3.82,13.42 -2.55,3.33 -5.96,5 -10.25,5 -3.96,0 -7.15,-1.3 -9.54,-3.92l0 17.15 -8.13 0 0 -50.11 7.51 0 0.33 3.67c2.39,-2.9 5.63,-4.35 9.73,-4.35 4.42,0 7.88,1.64 10.4,4.93 2.51,3.29 3.77,7.86 3.77,13.71l0 0.5zm-8.1 -0.72c0,-3.61 -0.72,-6.47 -2.16,-8.6 -1.44,-2.11 -3.5,-3.18 -6.18,-3.18 -3.33,0 -5.72,1.38 -7.17,4.12l0 16.07c1.48,2.81 3.89,4.22 7.24,4.22 2.59,0 4.61,-1.04 6.07,-3.13 1.47,-2.09 2.2,-5.25 2.2,-9.5zm13.43 0.03c0,-3.56 0.71,-6.76 2.12,-9.6 1.4,-2.84 3.38,-5.03 5.93,-6.56 2.53,-1.53 5.46,-2.29 8.76,-2.29 4.89,0 8.85,1.57 11.9,4.71 3.04,3.16 4.69,7.33 4.94,12.52l0.03 1.91c0,3.58 -0.68,6.77 -2.05,9.58 -1.39,2.81 -3.34,4.99 -5.9,6.53 -2.56,1.54 -5.51,2.31 -8.85,2.31 -5.11,0 -9.2,-1.7 -12.27,-5.11 -3.07,-3.4 -4.61,-7.94 -4.61,-13.6l0 -0.4zm8.14 0.68c0,3.73 0.77,6.64 2.32,8.75 1.53,2.12 3.67,3.17 6.42,3.17 2.74,0 4.88,-1.08 6.41,-3.21 1.53,-2.15 2.29,-5.28 2.29,-9.42 0,-3.65 -0.79,-6.55 -2.36,-8.7 -1.57,-2.14 -3.7,-3.21 -6.41,-3.21 -2.65,0 -4.77,1.05 -6.32,3.16 -1.56,2.12 -2.35,5.26 -2.35,9.46zm30.17 11.23c2.25,-2.51 3.76,-4.91 4.53,-7.17 0.77,-2.25 1.24,-5.15 1.39,-8.67l0.47 -13.84 25.13 0 0 29.68 5.03 0 0 17.28 -8.1 0 0 -10.77 -23.23 0 0 10.77 -8.24 0 0.04 -17.28 2.98 0zm9.54 0l13.88 0 0 -22.69 -9.13 0 -0.24 6.91c-0.31,6.64 -1.81,11.91 -4.51,15.78zm54.46 6.51c-0.36,-0.68 -0.67,-1.8 -0.94,-3.37 -2.59,2.71 -5.75,4.06 -9.5,4.06 -3.65,0 -6.61,-1.04 -8.91,-3.12 -2.3,-2.08 -3.44,-4.65 -3.44,-7.71 0,-3.86 1.43,-6.83 4.29,-8.9 2.87,-2.07 6.97,-3.1 12.31,-3.1l4.98 0 0 -2.37c0,-1.88 -0.53,-3.37 -1.57,-4.5 -1.05,-1.14 -2.65,-1.69 -4.78,-1.69 -1.85,0 -3.37,0.46 -4.56,1.39 -1.18,0.92 -1.77,2.1 -1.77,3.53l-8.14 0c0,-1.99 0.67,-3.84 1.98,-5.57 1.31,-1.72 3.11,-3.08 5.37,-4.05 2.26,-0.98 4.8,-1.47 7.59,-1.47 4.23,0 7.62,1.06 10.13,3.19 2.52,2.13 3.82,5.12 3.88,8.98l0 16.34c0,3.26 0.46,5.85 1.37,7.79l0 0.57 -8.29 0zm-8.94 -5.82c1.61,0 3.11,-0.39 4.53,-1.18 1.42,-0.78 2.49,-1.83 3.2,-3.15l0 -6.85 -4.39 0c-3,0 -5.26,0.53 -6.78,1.58 -1.52,1.05 -2.29,2.54 -2.29,4.47 0,1.56 0.53,2.81 1.57,3.73 1.04,0.93 2.42,1.4 4.16,1.4zm53.22 -42.91l14.06 37.36 14.02 -37.36 10.95 0 0 48.73 -8.44 0 0 -16.06 0.84 -21.49 -14.39 37.55 -6.07 0 -14.35 -37.51 0.84 21.45 0 16.06 -8.44 0 0 -48.73 10.98 0zm46.71 30.31c0,-3.56 0.7,-6.76 2.11,-9.6 1.4,-2.84 3.38,-5.03 5.93,-6.56 2.54,-1.53 5.46,-2.29 8.76,-2.29 4.89,0 8.86,1.57 11.91,4.71 3.04,3.16 4.68,7.33 4.93,12.52l0.04 1.91c0,3.58 -0.69,6.77 -2.06,9.58 -1.38,2.81 -3.34,4.99 -5.9,6.53 -2.56,1.54 -5.5,2.31 -8.85,2.31 -5.11,0 -9.2,-1.7 -12.27,-5.11 -3.06,-3.4 -4.6,-7.94 -4.6,-13.6l0 -0.4zm8.13 0.68c0,3.73 0.78,6.64 2.32,8.75 1.53,2.12 3.68,3.17 6.42,3.17 2.74,0 4.88,-1.08 6.41,-3.21 1.53,-2.15 2.3,-5.28 2.3,-9.42 0,-3.65 -0.79,-6.55 -2.37,-8.7 -1.56,-2.14 -3.7,-3.21 -6.41,-3.21 -2.65,0 -4.76,1.05 -6.32,3.16 -1.56,2.12 -2.35,5.26 -2.35,9.46zm47.3 11.92c2.02,0 3.71,-0.6 5.05,-1.77 1.34,-1.18 2.05,-2.64 2.13,-4.38l7.67 0c-0.08,2.26 -0.79,4.37 -2.1,6.32 -1.32,1.95 -3.11,3.49 -5.36,4.64 -2.25,1.13 -4.68,1.7 -7.3,1.7 -5.06,0 -9.08,-1.65 -12.04,-4.92 -2.97,-3.28 -4.46,-7.82 -4.46,-13.6l0 -0.83c0,-5.51 1.48,-9.93 4.42,-13.25 2.95,-3.31 6.96,-4.96 12.05,-4.96 4.3,0 7.82,1.25 10.53,3.77 2.71,2.5 4.13,5.8 4.26,9.89l-7.67 0c-0.08,-2.09 -0.78,-3.79 -2.12,-5.14 -1.33,-1.34 -3.02,-2.01 -5.06,-2.01 -2.64,0 -4.67,0.96 -6.1,2.86 -1.43,1.91 -2.15,4.8 -2.17,8.69l0 1.3c0,3.93 0.7,6.85 2.12,8.79 1.42,1.93 3.46,2.9 6.15,2.9zm33.88 -8.57l-4.11 0 0 14.39 -8.13 0 0 -36.19 8.13 0 0 14.4 3.58 0 10 -14.4 10.05 0 -13.09 17.26 14.2 18.93 -10.58 0 -10.05 -14.39zm25.71 14.39l0 -36.19 14.7 0c4.95,0 8.72,0.87 11.31,2.59 2.58,1.73 3.89,4.21 3.89,7.44 0,1.67 -0.53,3.18 -1.57,4.5 -1.03,1.33 -2.57,2.35 -4.59,3.07 2.36,0.47 4.24,1.47 5.62,2.96 1.38,1.5 2.07,3.26 2.07,5.29 0,3.38 -1.24,5.93 -3.73,7.7 -2.49,1.76 -6.06,2.64 -10.73,2.64l-16.97 0zm8.13 -15.42l0 8.98 8.91 0c4.17,0 6.26,-1.5 6.26,-4.48 0,-3 -2.12,-4.5 -6.36,-4.5l-8.81 0zm0 -5.83l6.7 0c4.62,0 6.93,-1.36 6.93,-4.07 0,-2.86 -2.19,-4.33 -6.57,-4.43l-7.06 0 0 8.5zm39.05 -3.42l7.96 0c2.97,0 5.57,0.51 7.77,1.54 2.22,1.02 3.9,2.45 5.04,4.31 1.16,1.85 1.73,3.99 1.73,6.45 0,3.73 -1.32,6.71 -3.96,8.96 -2.62,2.26 -6.13,3.39 -10.51,3.41l-16.16 0 0 -36.19 8.13 0 0 11.52zm36.65 24.67l-8.13 0 0 -36.19 8.13 0 0 36.19zm-36.65 -18.16l0 11.65 7.94 0c1.98,0 3.55,-0.49 4.7,-1.48 1.15,-1 1.72,-2.4 1.72,-4.23 0,-1.83 -0.56,-3.27 -1.69,-4.32 -1.12,-1.06 -2.65,-1.6 -4.57,-1.62l-8.1 0z"></path>
</svg>
