<?xml version="1.0" encoding="utf-8"?>
<!-- Generator: Adobe Illustrator 24.1.2, SVG Export Plug-In . SVG Version: 6.00 Build 0)  -->
<svg version="1.1" id="Слой_1" xmlns="http://www.w3.org/2000/svg" xmlns:xlink="http://www.w3.org/1999/xlink" x="0px" y="0px"
	 viewBox="0 0 1616.4 686.5" style="enable-background:new 0 0 1616.4 686.5;" xml:space="preserve">
<style type="text/css">
	.st0{fill:#42C1C7;stroke:#42AEC7;stroke-width:2;stroke-miterlimit:10;}
	.st1{fill:#A23F97;stroke:#A23F77;stroke-width:2;stroke-miterlimit:10;}
	.st2{fill:#42C1C7;stroke:#E90027;stroke-miterlimit:10;}
	.st3{fill:#A23F97;stroke:#A23F77;stroke-miterlimit:10;}
</style>
<path class="st0" d="M287.5,510.8c2.3,1.6,5,2.4,7.6,2.5h0.9c2.7-0.1,5.3-0.9,7.6-2.5l9.5-6.5c28.5-19.4,278-193.9,278-340.7
	C591.2,93,550,33.5,485.8,10.2c-0.6-0.2-2.2-0.7-4-1.3c-4.5-1.4-9.1,1.9-9.1,6.7v50c0,3.9,2.1,7.7,5.6,9.5
	c31.8,17.1,50.5,49.5,50.5,88.6c0,45.7-43.4,111.5-122.3,185.3c-40.3,37.7-80.4,68.9-104.9,87c-3.6,2.6-8.4,2.6-11.9,0
	c-24.5-18.1-64.6-49.3-104.9-87C105.9,275.1,62.5,209.3,62.5,163.6c0-39,18.7-71.5,50.5-88.6c3.5-1.9,5.6-5.6,5.6-9.5v-50
	c0-4.8-4.6-8.1-9.1-6.7c-1.8,0.6-3.4,1.1-4,1.3C41.2,33.4,0,93,0,163.6c0,146.8,249.6,321.3,278,340.7L287.5,510.8L287.5,510.8z"/>
<g>
	<path class="st1" d="M167.1,134.4v142.9l14,0.5l-1.4,54.7h-16.1l-1.4-38.4H61.4L60,332.6H43.9l-1.4-54.7l12.1-0.5
		c5.9-10.9,11.9-22.5,15.6-35.1c5.5-18.5,7.6-39.8,7.6-67.3v-40.5H167.1z M97,181.6c0,25.6-2.4,47.2-8.1,65.2
		c-3.3,11.1-8.3,21.8-13,30.3h70.6V151.5H97V181.6z"/>
	<path class="st1" d="M216.7,240.6c0.5,28.2,18.5,39.8,39.3,39.8c14.9,0,23.9-2.6,31.8-5.9l3.6,14.9c-7.3,3.3-19.9,7.1-38.2,7.1
		c-35.3,0-56.4-23.2-56.4-57.8c0-34.6,20.4-61.9,53.8-61.9c37.4,0,47.4,32.9,47.4,54c0,4.3-0.5,7.6-0.7,9.7H216.7z M277.8,225.7
		c0.2-13.3-5.5-33.9-28.9-33.9c-21.1,0-30.3,19.4-32,33.9H277.8z"/>
	<path class="st1" d="M400.3,179.5V196h-35.8v98.1h-20.6V196h-35.8v-16.6H400.3z"/>
	<path class="st1" d="M497.3,289.9c-5.5,2.8-17.5,6.6-32.9,6.6c-34.6,0-57.1-23.5-57.1-58.5c0-35.3,24.2-60.9,61.6-60.9
		c12.3,0,23.2,3.1,28.9,5.9l-4.7,16.1c-5-2.8-12.8-5.5-24.2-5.5c-26.3,0-40.5,19.4-40.5,43.4c0,26.5,17.1,42.9,39.8,42.9
		c11.8,0,19.7-3.1,25.6-5.7L497.3,289.9z"/>
	<path class="st1" d="M542.3,179.5v49.8h5l43.1-49.8h25.4l-50,51.9c18.5,1.9,29.6,14.2,38.6,34.8c3.1,7.6,7.1,18.7,12.3,28h-21.8
		c-3.1-5-7.1-14-10.7-23.5c-7.8-18.5-18.5-27-37.9-27h-4v50.5h-20.6V179.5H542.3z"/>
	<path class="st1" d="M701.1,294.2l-1.7-14.5h-0.7c-6.4,9-18.7,17.1-35.1,17.1c-23.2,0-35.1-16.4-35.1-32.9
		c0-27.7,24.6-42.9,69-42.7v-2.4c0-9.5-2.6-26.5-26.1-26.5c-10.7,0-21.8,3.3-29.9,8.5l-4.7-13.7c9.5-6.2,23.2-10.2,37.7-10.2
		c35.1,0,43.6,23.9,43.6,46.9v42.9c0,10,0.5,19.7,1.9,27.5H701.1z M698,235.6c-22.8-0.5-48.6,3.6-48.6,25.8c0,13.5,9,19.9,19.7,19.9
		c14.9,0,24.4-9.5,27.7-19.2c0.7-2.1,1.2-4.5,1.2-6.6V235.6z"/>
	<path class="st1" d="M837.1,294.2h-20.6v-48.1h-15.4c-8.8,0-14.7,2.4-19.2,6.4c-8.5,6.9-11.6,21.1-16.1,32.2
		c-1.4,3.6-3.1,6.6-4.7,9.5h-22.3c2.6-3.8,5-8.1,7.1-13c5-11.1,7.8-26.1,18-34.6c3.6-3.1,7.8-5.7,13-6.6v-0.7
		c-14.9-1.7-30.3-10.9-30.3-28.4c0-11.9,6.4-19.9,15.2-24.9c9.5-5.5,23.5-7.8,38.4-7.8c13.7,0,27,1.2,37,2.4V294.2z M816.5,193.2
		c-5.2-0.7-10-1.2-17.3-1.2c-14.2,0-31,4-31,19.9c0,14.7,18.2,19.9,30.6,19.9c8.5,0,13,0,17.8,0V193.2z"/>
</g>
<g>
	<path class="st1" d="M88.1,366.5v114.8H73.3V379H19.9v102.4H5.1V366.5H88.1z"/>
	<path class="st1" d="M188.1,439.5c0,30.5-21.1,43.8-41.1,43.8c-22.3,0-39.5-16.4-39.5-42.4c0-27.6,18.1-43.8,40.9-43.8
		C172.1,397,188.1,414.2,188.1,439.5z M122.7,440.3c0,18.1,10.4,31.7,25,31.7c14.3,0,25-13.5,25-32c0-14-7-31.7-24.7-31.7
		C130.3,408.3,122.7,424.6,122.7,440.3z"/>
	<path class="st1" d="M269.5,398.9v82.5h-14.8v-70.7h-28.3v21.5c0,23.2-2.2,38.7-12.9,45.7c-4.1,3.2-8.7,5.1-16.4,5.1l-1.5-11.8
		c2.9-0.5,6.1-1.7,8.2-3.4c7.7-5.6,8.5-17.2,8.5-35.6v-33.2H269.5z"/>
	<path class="st1" d="M307.9,398.9v34.8c0,13.1-0.2,21.3-0.9,33.1l0.5,0.2c4.9-10.1,7.8-15.8,13.3-25.4l25.7-42.6h17.5v82.5h-14.3
		v-34.9c0-13.5,0.3-20.4,1-33.7h-0.5c-5.3,10.6-8.9,17.2-13.6,25.6c-7.8,12.8-16.9,28.6-25.7,43.1h-17.2v-82.5H307.9z"/>
	<path class="st1" d="M403.3,398.9v35.8h3.6l31-35.8h18.2l-36,37.3c13.3,1.4,21.3,10.2,27.8,25c2.2,5.5,5.1,13.5,8.9,20.1h-15.7
		c-2.2-3.6-5.1-10.1-7.7-16.9c-5.6-13.3-13.3-19.4-27.3-19.4h-2.9v36.3h-14.8v-82.5H403.3z"/>
	<path class="st1" d="M536.5,398.9v82.5h-14.8v-70.7h-28.3v21.5c0,23.2-2.2,38.7-12.9,45.7c-4.1,3.2-8.7,5.1-16.4,5.1l-1.5-11.8
		c2.9-0.5,6.1-1.7,8.2-3.4c7.7-5.6,8.5-17.2,8.5-35.6v-33.2H536.5z"/>
	<path class="st1" d="M574.9,398.9v34.8c0,13.1-0.2,21.3-0.9,33.1l0.5,0.2c4.9-10.1,7.8-15.8,13.3-25.4l25.7-42.6h17.5v82.5h-14.3
		v-34.9c0-13.5,0.3-20.4,1-33.7h-0.5c-5.3,10.6-8.9,17.2-13.6,25.6c-7.8,12.8-16.9,28.6-25.7,43.1h-17.2v-82.5H574.9z"/>
	<path class="st1" d="M669.9,398.9v33.2h39.2v-33.2h14.8v82.5h-14.8v-37.3h-39.2v37.3h-14.8v-82.5H669.9z"/>
	<path class="st1" d="M762.3,398.9v34.8c0,13.1-0.2,21.3-0.9,33.1l0.5,0.2c4.9-10.1,7.8-15.8,13.3-25.4l25.7-42.6h17.5v82.5h-14.3
		v-34.9c0-13.5,0.3-20.4,1-33.7h-0.5c-5.3,10.6-8.9,17.2-13.6,25.6c-7.8,12.8-16.9,28.6-25.7,43.1h-17.2v-82.5H762.3z"/>
	<path class="st1" d="M857.7,398.9v35.8h3.6l31-35.8h18.2l-36,37.3c13.3,1.4,21.3,10.2,27.8,25c2.2,5.5,5.1,13.5,8.9,20.1h-15.7
		c-2.2-3.6-5.1-10.1-7.7-16.9c-5.6-13.3-13.3-19.4-27.3-19.4h-2.9v36.3h-14.8v-82.5H857.7z"/>
	<path class="st1" d="M971.8,481.4l-1.2-10.4h-0.5c-4.6,6.5-13.5,12.3-25.2,12.3c-16.7,0-25.2-11.8-25.2-23.7
		c0-19.9,17.7-30.8,49.6-30.7v-1.7c0-6.8-1.9-19.1-18.7-19.1c-7.7,0-15.7,2.4-21.5,6.1l-3.4-9.9c6.8-4.4,16.7-7.3,27.1-7.3
		c25.2,0,31.4,17.2,31.4,33.7v30.8c0,7.2,0.3,14.1,1.4,19.8H971.8z M969.6,439.3c-16.4-0.3-34.9,2.6-34.9,18.6
		c0,9.7,6.5,14.3,14.1,14.3c10.7,0,17.5-6.8,19.9-13.8c0.5-1.5,0.9-3.2,0.9-4.8V439.3z"/>
</g>
<g>
	<path class="st1" d="M1045.3,522.3v-31.7l40.4-39.3c97.3-92.6,141.3-141.9,141.9-199.3c0-38.7-18.8-74.4-75.6-74.4
		c-34.6,0-63.3,17.6-80.9,32.2l-16.4-36.3c26.4-22.3,63.9-38.7,107.9-38.7c82.1,0,116.7,56.3,116.7,110.8
		c0,70.3-51,127.2-131.3,204.6l-30.5,28.1v1.2h171.2v42.8H1045.3z"/>
	<path class="st1" d="M1375.9,486c11.1,1.2,24,0,41.6-1.8c29.9-4.1,58-16.4,79.7-36.9c25.2-22.9,43.4-56.3,50.4-101.4h-1.8
		c-21.1,25.8-51.6,41-89.7,41c-68.6,0-112.6-51.6-112.6-116.7c0-72.1,52.2-135.4,130.1-135.4s126,63.3,126,160.6
		c0,83.8-28.1,142.4-65.7,178.8c-29.3,28.7-69.8,46.3-110.8,51c-18.8,2.9-35.2,3.5-47.5,2.9V486z M1394.7,266.8
		c0,47.5,28.7,80.9,73.3,80.9c34.6,0,61.6-17,75-39.9c2.9-4.7,4.7-10.6,4.7-18.8c0-65.1-24-114.9-78-114.9
		C1425.8,174.1,1394.7,212.8,1394.7,266.8z"/>
</g>
<path class="st2" d="M693.9-95.8"/>
<g>
	<path class="st3" d="M39.3,647.9c0,13.9-7.9,21.3-17.5,21.3C12,669.2,5,660.9,5,648.6c0-12.9,7.4-21.3,17.5-21.3
		C32.7,627.4,39.3,635.8,39.3,647.9z M10.2,648.5c0,8.7,4.3,16.4,12,16.4c7.7,0,12-7.6,12-16.8c0-8.1-3.9-16.5-12-16.5
		C14.2,631.6,10.2,639.6,10.2,648.5z"/>
	<path class="st3" d="M64.4,639.4v4.2H56v24.9h-4.9v-24.9h-8.4v-4.2H64.4z"/>
	<path class="st3" d="M88,639.4v25.1l2.8,0.1l-0.3,13.2h-3.8l-0.2-9.3H67.7l-0.2,9.3h-3.8l-0.2-13.2l2.3-0.1c1.2-1.9,2.1-3.8,2.7-6
		c1.1-3.6,1.6-7.5,1.6-11.6v-7.6H88z M74.3,648.3c0,3.8-0.5,7.6-1.4,10.8c-0.6,2-1.3,3.8-2.2,5.4h12.4v-21h-8.9V648.3z"/>
	<path class="st3" d="M99.1,655c0.1,7.2,4.3,10.1,9.3,10.1c3.5,0,5.6-0.7,7.5-1.5l0.8,3.8c-1.7,0.8-4.7,1.8-9,1.8
		c-8.3,0-13.3-5.9-13.3-14.7s4.8-15.7,12.7-15.7c8.8,0,11.2,8.4,11.2,13.7c0,1.1-0.1,1.9-0.2,2.5H99.1z M113.5,651.2
		c0.1-3.4-1.3-8.6-6.8-8.6c-5,0-7.1,4.9-7.5,8.6H113.5z"/>
	<path class="st3" d="M144.9,639.4v29.1H140v-25h-9.3v7.6c0,8.2-0.7,13.6-4.2,16.1c-1.3,1.1-2.8,1.8-5.4,1.8l-0.5-4.1
		c0.9-0.2,2-0.6,2.7-1.2c2.5-2,2.8-6.1,2.8-12.6v-11.7H144.9z"/>
	<path class="st3" d="M163.4,630.4c2.6-1.8,5.9-3.1,9.9-3.1c6.5,0,11,3.7,11,9.9c0,5-3.3,8.8-7.8,9.9v0.1c5.3,0.6,9.1,4.3,9.1,10.2
		c0,8.4-6.7,11.8-13.6,11.8c-3.4,0-7-0.8-9.8-2.6l1.3-4.1c2,1.3,5.4,2.5,8.4,2.5c5.6,0,8.6-3.2,8.6-7.7c0-6.1-5.4-7.8-10.2-7.8h-2.2
		v-4h2.2c5,0,8.8-3.3,8.8-7.5c0-4.1-2.7-6.4-6.7-6.4c-2.8,0-5.8,1.3-7.8,2.6L163.4,630.4z"/>
	<path class="st3" d="M212.8,639.4v25.1l2.8,0.1l-0.3,13.2h-3.8l-0.2-9.3h-18.7l-0.2,9.3h-3.8l-0.2-13.2l2.3-0.1
		c1.2-1.9,2.1-3.8,2.7-6c1.1-3.6,1.6-7.5,1.6-11.6v-7.6H212.8z M199.2,648.3c0,3.8-0.5,7.6-1.4,10.8c-0.6,2-1.3,3.8-2.2,5.4H208v-21
		h-8.9V648.3z"/>
	<path class="st3" d="M221.5,648.9c0-3.7-0.1-6.7-0.2-9.5h4.4l0.2,5h0.1c2-3.5,5.2-5.7,9.6-5.7c6.5,0,11.4,6,11.4,14.8
		c0,10.5-5.9,15.6-12.3,15.6c-3.6,0-6.7-1.7-8.3-4.6h-0.1v15.8h-4.9V648.9z M226.3,656.7c0,0.8,0.1,1.5,0.2,2.2
		c0.9,3.7,3.8,6.2,7.4,6.2c5.2,0,8.2-4.6,8.2-11.2c0-5.8-2.8-10.8-8-10.8c-3.3,0-6.5,2.6-7.4,6.6c-0.2,0.7-0.3,1.4-0.3,2.2V656.7z"
		/>
	<path class="st3" d="M268.2,668.5l-0.4-3.7h-0.2c-1.5,2.3-4.4,4.3-8.3,4.3c-5.5,0-8.3-4.1-8.3-8.4c0-7,5.8-10.9,16.2-10.8v-0.6
		c0-2.4-0.6-6.7-6.1-6.7c-2.5,0-5.1,0.8-7,2.2l-1.1-3.5c2.2-1.6,5.5-2.6,8.9-2.6c8.3,0,10.3,6.1,10.3,11.9v10.9c0,2.5,0.1,5,0.4,7
		H268.2z M267.4,653.7c-5.4-0.1-11.4,0.9-11.4,6.6c0,3.4,2.1,5.1,4.6,5.1c3.5,0,5.7-2.4,6.5-4.9c0.2-0.5,0.3-1.1,0.3-1.7V653.7z"/>
	<path class="st3" d="M280,639.8c1.9-0.4,5.4-0.7,8.6-0.7c4.5,0,12,0.8,12,7.3c0,3.6-2.6,5.8-5.6,6.6v0.1c4,0.6,6.9,3,6.9,7.2
		c0,7.6-8.9,8.6-14.2,8.6c-3,0-6.1-0.2-7.6-0.4V639.8z M284.6,665.1c1.4,0.2,2.4,0.2,4,0.2c3.3,0,8.2-0.8,8.2-5.1s-3.9-5.1-8.6-5.1
		h-3.6V665.1z M284.7,651.7h3.7c3.6,0,7.4-1.1,7.4-4.6c0-2.9-2.3-4.3-7.2-4.3c-1.6,0-2.6,0.1-3.8,0.2V651.7z"/>
	<path class="st3" d="M332.4,653.8c0,10.8-6.9,15.5-13.4,15.5c-7.3,0-12.9-5.8-12.9-15c0-9.7,5.9-15.5,13.4-15.5
		C327.2,638.8,332.4,644.9,332.4,653.8z M311,654.1c0,6.4,3.4,11.2,8.2,11.2c4.7,0,8.2-4.8,8.2-11.3c0-4.9-2.3-11.2-8.1-11.2
		C313.5,642.8,311,648.5,311,654.1z"/>
	<path class="st3" d="M363,653.8c0,10.8-6.9,15.5-13.4,15.5c-7.3,0-12.9-5.8-12.9-15c0-9.7,5.9-15.5,13.4-15.5
		C357.8,638.8,363,644.9,363,653.8z M341.6,654.1c0,6.4,3.4,11.2,8.2,11.2c4.7,0,8.2-4.8,8.2-11.3c0-4.9-2.3-11.2-8.1-11.2
		C344.1,642.8,341.6,648.5,341.6,654.1z"/>
	<path class="st3" d="M370.8,639.4l3.8,6.3c1,1.6,1.8,3.1,2.7,4.8h0.2c0.9-1.7,1.8-3.2,2.7-4.8l3.8-6.2h5.3l-9.2,14.1l9.5,15H384
		l-4-6.6c-1.1-1.7-2-3.3-2.9-5.1H377c-0.9,1.7-1.8,3.3-2.8,5.1l-3.9,6.6h-5.4l9.6-14.9l-9.1-14.2H370.8z"/>
	<path class="st3" d="M394.3,648.9c0-3.7-0.1-6.7-0.2-9.5h4.4l0.2,5h0.1c2-3.5,5.2-5.7,9.6-5.7c6.5,0,11.4,6,11.4,14.8
		c0,10.5-5.9,15.6-12.3,15.6c-3.6,0-6.7-1.7-8.3-4.6h-0.1v15.8h-4.9V648.9z M399.1,656.7c0,0.8,0.1,1.5,0.2,2.2
		c0.9,3.7,3.8,6.2,7.4,6.2c5.2,0,8.2-4.6,8.2-11.2c0-5.8-2.8-10.8-8-10.8c-3.3,0-6.5,2.6-7.4,6.6c-0.2,0.7-0.3,1.4-0.3,2.2V656.7z"
		/>
	<path class="st3" d="M441,668.5l-0.4-3.7h-0.2c-1.5,2.3-4.4,4.3-8.3,4.3c-5.5,0-8.3-4.1-8.3-8.4c0-7,5.8-10.9,16.2-10.8v-0.6
		c0-2.4-0.6-6.7-6.1-6.7c-2.5,0-5.1,0.8-7,2.2l-1.1-3.5c2.2-1.6,5.5-2.6,8.9-2.6c8.3,0,10.3,6.1,10.3,11.9v10.9c0,2.5,0.1,5,0.4,7
		H441z M440.2,653.7c-5.4-0.1-11.4,0.9-11.4,6.6c0,3.4,2.1,5.1,4.6,5.1c3.5,0,5.7-2.4,6.5-4.9c0.2-0.5,0.3-1.1,0.3-1.7V653.7z"/>
	<path class="st3" d="M457.6,639.4v11.7h12.8v-11.7h4.9v29.1h-4.9v-13.2h-12.8v13.2h-4.9v-29.1H457.6z"/>
	<path class="st3" d="M486.1,655c0.1,7.2,4.3,10.1,9.3,10.1c3.5,0,5.6-0.7,7.5-1.5l0.8,3.8c-1.7,0.8-4.7,1.8-9,1.8
		c-8.3,0-13.3-5.9-13.3-14.7s4.8-15.7,12.7-15.7c8.8,0,11.2,8.4,11.2,13.7c0,1.1-0.1,1.9-0.2,2.5H486.1z M500.5,651.2
		c0.1-3.4-1.3-8.6-6.8-8.6c-5,0-7.1,4.9-7.5,8.6H500.5z"/>
	<path class="st3" d="M516,639.4v11.7h12.8v-11.7h4.9v29.1h-4.9v-13.2H516v13.2h-4.9v-29.1H516z"/>
	<path class="st3" d="M546.3,639.4v12.3c0,4.6-0.1,7.5-0.3,11.7l0.2,0.1c1.6-3.5,2.6-5.6,4.3-9l8.4-15h5.7v29.1H560v-12.3
		c0-4.8,0.1-7.2,0.3-11.9h-0.2c-1.7,3.7-2.9,6.1-4.5,9c-2.6,4.5-5.5,10.1-8.4,15.2h-5.6v-29.1H546.3z"/>
	<path class="st3" d="M592.5,668.5h-4.9v-12.2h-3.6c-2.1,0-3.5,0.6-4.5,1.6c-2,1.7-2.7,5.4-3.8,8.2c-0.3,0.9-0.7,1.7-1.1,2.4h-5.2
		c0.6-1,1.2-2,1.7-3.3c1.2-2.8,1.8-6.6,4.2-8.8c0.8-0.8,1.8-1.4,3.1-1.7v-0.2c-3.5-0.4-7.1-2.8-7.1-7.2c0-3,1.5-5.1,3.6-6.3
		c2.2-1.4,5.5-2,9-2c3.2,0,6.4,0.3,8.7,0.6V668.5z M587.7,642.9c-1.2-0.2-2.3-0.3-4.1-0.3c-3.3,0-7.3,1-7.3,5c0,3.7,4.3,5.1,7.2,5.1
		c2,0,3.1,0,4.2,0V642.9z"/>
	<path class="st3" d="M617.3,628v18h1.5l12.9-18h5.9l-14.2,18.6c6.2,0.9,8.6,5,10.5,10.5c1.4,4.1,2.5,7.9,4.1,11.5h-5.2
		c-1.3-2.8-2.4-6.4-3.4-9.6c-1.7-5.4-4.1-9-10.5-9h-1.6v18.6h-4.8V628H617.3z"/>
	<path class="st3" d="M658.2,668.5l-0.4-3.7h-0.2c-1.5,2.3-4.4,4.3-8.3,4.3c-5.5,0-8.3-4.1-8.3-8.4c0-7,5.8-10.9,16.2-10.8v-0.6
		c0-2.4-0.6-6.7-6.1-6.7c-2.5,0-5.1,0.8-7,2.2l-1.1-3.5c2.2-1.6,5.5-2.6,8.9-2.6c8.3,0,10.3,6.1,10.3,11.9v10.9c0,2.5,0.1,5,0.4,7
		H658.2z M657.5,653.7c-5.4-0.1-11.4,0.9-11.4,6.6c0,3.4,2.1,5.1,4.6,5.1c3.5,0,5.7-2.4,6.5-4.9c0.2-0.5,0.3-1.1,0.3-1.7V653.7z"/>
	<path class="st3" d="M690.7,639.4v29.1h-4.9v-25h-9.3v7.6c0,8.2-0.7,13.6-4.2,16.1c-1.3,1.1-2.8,1.8-5.4,1.8l-0.5-4.1
		c0.9-0.2,2-0.6,2.7-1.2c2.5-2,2.8-6.1,2.8-12.6v-11.7H690.7z"/>
	<path class="st3" d="M703.2,639.4v12.3c0,4.6-0.1,7.5-0.3,11.7l0.2,0.1c1.6-3.5,2.6-5.6,4.3-9l8.4-15h5.7v29.1H717v-12.3
		c0-4.8,0.1-7.2,0.3-11.9h-0.2c-1.7,3.7-2.9,6.1-4.5,9c-2.6,4.5-5.5,10.1-8.4,15.2h-5.6v-29.1H703.2z"/>
	<path class="st3" d="M734.4,639.4v11.7h12.8v-11.7h4.9v29.1h-4.9v-13.2h-12.8v13.2h-4.9v-29.1H734.4z"/>
	<path class="st3" d="M764.6,639.4v12.3c0,4.6-0.1,7.5-0.3,11.7l0.2,0.1c1.6-3.5,2.6-5.6,4.3-9l8.4-15h5.7v29.1h-4.7v-12.3
		c0-4.8,0.1-7.2,0.3-11.9h-0.2c-1.7,3.7-2.9,6.1-4.5,9c-2.6,4.5-5.5,10.1-8.4,15.2h-5.6v-29.1H764.6z"/>
	<path class="st3" d="M795.7,639.4v11.7h12.8v-11.7h4.9v29.1h-4.9v-13.2h-12.8v13.2h-4.9v-29.1H795.7z"/>
	<path class="st3" d="M840.6,667.5c-1.3,0.7-4.1,1.7-7.8,1.7c-8.1,0-13.4-6-13.4-14.9c0-9,5.7-15.5,14.5-15.5c2.9,0,5.5,0.8,6.8,1.5
		l-1.1,4.1c-1.2-0.7-3-1.4-5.7-1.4c-6.2,0-9.5,4.9-9.5,11c0,6.7,4,10.9,9.4,10.9c2.8,0,4.6-0.8,6-1.4L840.6,667.5z"/>
	<path class="st3" d="M851.2,639.4v12.6h1.2l10.1-12.6h6l-11.8,13.2c4.3,0.5,7,3.6,9.1,8.8c0.7,1.9,1.7,4.7,2.9,7.1h-5.1
		c-0.7-1.3-1.7-3.5-2.5-6c-1.8-4.7-4.3-6.9-8.9-6.9h-0.9v12.8h-4.9v-29.1H851.2z"/>
	<path class="st3" d="M897.2,653.8c0,10.8-6.9,15.5-13.4,15.5c-7.3,0-12.9-5.8-12.9-15c0-9.7,5.9-15.5,13.4-15.5
		C891.9,638.8,897.2,644.9,897.2,653.8z M875.8,654.1c0,6.4,3.4,11.2,8.2,11.2c4.7,0,8.2-4.8,8.2-11.3c0-4.9-2.3-11.2-8.1-11.2
		C878.3,642.8,875.8,648.5,875.8,654.1z"/>
	<path class="st3" d="M919.8,639.4v4.3h-11.7v24.8h-4.9v-29.1H919.8z"/>
	<path class="st3" d="M948.2,653.8c0,10.8-6.9,15.5-13.4,15.5c-7.3,0-12.9-5.8-12.9-15c0-9.7,5.9-15.5,13.4-15.5
		C942.9,638.8,948.2,644.9,948.2,653.8z M926.7,654.1c0,6.4,3.4,11.2,8.2,11.2c4.7,0,8.2-4.8,8.2-11.3c0-4.9-2.3-11.2-8.1-11.2
		C929.3,642.8,926.7,648.5,926.7,654.1z"/>
	<path class="st3" d="M966.2,648.9c0-3.7-0.1-6.7-0.2-9.5h4.4l0.2,5h0.1c2-3.5,5.2-5.7,9.6-5.7c6.5,0,11.4,6,11.4,14.8
		c0,10.5-5.9,15.6-12.3,15.6c-3.6,0-6.7-1.7-8.3-4.6H971v15.8h-4.9V648.9z M971,656.7c0,0.8,0.1,1.5,0.2,2.2
		c0.9,3.7,3.8,6.2,7.4,6.2c5.2,0,8.2-4.6,8.2-11.2c0-5.8-2.8-10.8-8-10.8c-3.3,0-6.5,2.6-7.4,6.6c-0.2,0.7-0.3,1.4-0.3,2.2V656.7z"
		/>
	<path class="st3" d="M1012.8,668.5l-0.4-3.7h-0.2c-1.5,2.3-4.4,4.3-8.3,4.3c-5.5,0-8.3-4.1-8.3-8.4c0-7,5.8-10.9,16.2-10.8v-0.6
		c0-2.4-0.6-6.7-6.1-6.7c-2.5,0-5.1,0.8-7,2.2l-1.1-3.5c2.2-1.6,5.5-2.6,8.9-2.6c8.3,0,10.3,6.1,10.3,11.9v10.9c0,2.5,0.1,5,0.4,7
		H1012.8z M1012.1,653.7c-5.4-0.1-11.4,0.9-11.4,6.6c0,3.4,2.1,5.1,4.6,5.1c3.5,0,5.7-2.4,6.5-4.9c0.2-0.5,0.3-1.1,0.3-1.7V653.7z"
		/>
	<path class="st3" d="M1029.3,639.4v12.3c0,4.6-0.1,7.5-0.3,11.7l0.2,0.1c1.6-3.5,2.6-5.6,4.3-9l8.4-15h5.7v29.1h-4.7v-12.3
		c0-4.8,0.1-7.2,0.3-11.9h-0.2c-1.7,3.7-2.9,6.1-4.5,9c-2.6,4.5-5.5,10.1-8.4,15.2h-5.6v-29.1H1029.3z M1032.5,627.6
		c0.2,2.6,1.3,4.6,3.6,4.6c2.4,0,3.5-1.9,3.8-4.6h3.5c-0.2,4.9-3.1,7.5-7.4,7.5c-4.9,0-6.8-3.3-7-7.5H1032.5z"/>
	<path class="st3" d="M1080.1,653.8c0,10.8-6.9,15.5-13.4,15.5c-7.3,0-12.9-5.8-12.9-15c0-9.7,5.9-15.5,13.4-15.5
		C1074.9,638.8,1080.1,644.9,1080.1,653.8z M1058.7,654.1c0,6.4,3.4,11.2,8.2,11.2c4.7,0,8.2-4.8,8.2-11.3c0-4.9-2.3-11.2-8.1-11.2
		C1061.2,642.8,1058.7,648.5,1058.7,654.1z"/>
	<path class="st3" d="M1091,639.4v11.7h12.8v-11.7h4.9v29.1h-4.9v-13.2H1091v13.2h-4.9v-29.1H1091z"/>
	<path class="st3" d="M1131.7,668.5l-0.4-3.7h-0.2c-1.5,2.3-4.4,4.3-8.3,4.3c-5.5,0-8.3-4.1-8.3-8.4c0-7,5.8-10.9,16.2-10.8v-0.6
		c0-2.4-0.6-6.7-6.1-6.7c-2.5,0-5.1,0.8-7,2.2l-1.1-3.5c2.2-1.6,5.5-2.6,8.9-2.6c8.3,0,10.3,6.1,10.3,11.9v10.9c0,2.5,0.1,5,0.4,7
		H1131.7z M1131,653.7c-5.4-0.1-11.4,0.9-11.4,6.6c0,3.4,2.1,5.1,4.6,5.1c3.5,0,5.7-2.4,6.5-4.9c0.2-0.5,0.3-1.1,0.3-1.7V653.7z"/>
	<path class="st3" d="M1171.9,639.4v4.3h-11.7v24.8h-4.9v-29.1H1171.9z"/>
	<path class="st3" d="M1171.5,665.4c0-2.2,1.4-3.8,3.3-3.8c2,0,3.3,1.6,3.3,3.8c0,2.2-1.3,3.8-3.3,3.8
		C1172.8,669.2,1171.5,667.6,1171.5,665.4z"/>
	<path class="st3" d="M1210.6,667.2c-1.8,1-5.4,1.9-9.9,1.9c-10.6,0-18.6-7.2-18.6-20.5c0-12.7,8-21.3,19.6-21.3
		c4.7,0,7.6,1.1,8.9,1.8l-1.2,4.3c-1.8-1-4.5-1.7-7.6-1.7c-8.8,0-14.7,6.1-14.7,16.7c0,9.9,5.3,16.3,14.4,16.3c3,0,6-0.7,7.9-1.7
		L1210.6,667.2z"/>
	<path class="st3" d="M1231.2,668.5l-0.4-3.7h-0.2c-1.5,2.3-4.4,4.3-8.3,4.3c-5.5,0-8.3-4.1-8.3-8.4c0-7,5.8-10.9,16.2-10.8v-0.6
		c0-2.4-0.6-6.7-6.1-6.7c-2.5,0-5.1,0.8-7,2.2l-1.1-3.5c2.2-1.6,5.5-2.6,8.9-2.6c8.3,0,10.3,6.1,10.3,11.9v10.9c0,2.5,0.1,5,0.4,7
		H1231.2z M1230.5,653.7c-5.4-0.1-11.4,0.9-11.4,6.6c0,3.4,2.1,5.1,4.6,5.1c3.5,0,5.7-2.4,6.5-4.9c0.2-0.5,0.3-1.1,0.3-1.7V653.7z"
		/>
	<path class="st3" d="M1247.9,639.4v11.7h12.8v-11.7h4.9v29.1h-4.9v-13.2h-12.8v13.2h-4.9v-29.1H1247.9z"/>
	<path class="st3" d="M1278.5,639.4v12.6h1.2l10.1-12.6h6l-11.8,13.2c4.3,0.5,7,3.6,9.1,8.8c0.7,1.9,1.7,4.7,2.9,7.1h-5.1
		c-0.7-1.3-1.7-3.5-2.5-6c-1.8-4.7-4.3-6.9-8.9-6.9h-0.9v12.8h-4.9v-29.1H1278.5z"/>
	<path class="st3" d="M1319.5,639.4v4.2h-8.4v24.9h-4.9v-24.9h-8.4v-4.2H1319.5z"/>
	<path class="st3" d="M1333.7,650.3v3.9h-13.8v-3.9H1333.7z"/>
	<path class="st3" d="M1366.7,628v40.5h-4.9v-36.1h-17.5v36.1h-4.9V628H1366.7z"/>
	<path class="st3" d="M1377.8,655c0.1,7.2,4.3,10.1,9.3,10.1c3.5,0,5.6-0.7,7.5-1.5l0.8,3.8c-1.7,0.8-4.7,1.8-9,1.8
		c-8.3,0-13.3-5.9-13.3-14.7s4.8-15.7,12.7-15.7c8.8,0,11.2,8.4,11.2,13.7c0,1.1-0.1,1.9-0.2,2.5H1377.8z M1392.2,651.2
		c0.1-3.4-1.3-8.6-6.8-8.6c-5,0-7.1,4.9-7.5,8.6H1392.2z"/>
	<path class="st3" d="M1421,639.4v4.2h-8.4v24.9h-4.9v-24.9h-8.4v-4.2H1421z"/>
	<path class="st3" d="M1427.3,655c0.1,7.2,4.4,10.1,9.3,10.1c3.5,0,5.6-0.7,7.5-1.5l0.8,3.8c-1.7,0.8-4.7,1.8-9,1.8
		c-8.3,0-13.3-5.9-13.3-14.7s4.8-15.7,12.7-15.7c8.8,0,11.2,8.4,11.2,13.7c0,1.1-0.1,1.9-0.2,2.5H1427.3z M1441.7,651.2
		c0.1-3.4-1.3-8.6-6.8-8.6c-5,0-7.1,4.9-7.5,8.6H1441.7z"/>
	<path class="st3" d="M1452.5,648.9c0-3.7-0.1-6.7-0.2-9.5h4.4l0.2,5h0.1c2-3.5,5.2-5.7,9.6-5.7c6.5,0,11.4,6,11.4,14.8
		c0,10.5-5.9,15.6-12.3,15.6c-3.6,0-6.7-1.7-8.3-4.6h-0.1v15.8h-4.9V648.9z M1457.3,656.7c0,0.8,0.1,1.5,0.2,2.2
		c0.9,3.7,3.8,6.2,7.4,6.2c5.2,0,8.2-4.6,8.2-11.2c0-5.8-2.8-10.8-8-10.8c-3.3,0-6.5,2.6-7.4,6.6c-0.2,0.7-0.3,1.4-0.3,2.2V656.7z"
		/>
	<path class="st3" d="M1504.6,629.6c-1.4,0.5-3.8,1-5.6,1.3c-4.4,0.7-7.5,2.3-9.6,5.5c-1.7,2.6-2.7,6.6-3,9.6h0.2
		c1.7-4.2,5.5-6.6,9.4-6.6c6.6,0,11.5,5.1,11.5,14.4c0,9.5-4.6,15.4-12.5,15.4c-9.5,0-12.6-9.8-12.6-19.5c0-6.6,1.3-12,4.2-16.1
		c2.6-4,6.4-5.9,11.6-6.9c2.2-0.4,4.9-0.8,6.7-1.6L1504.6,629.6z M1495,643.4c-2.9,0-5,1.6-6.1,4c-0.9,1.7-1.3,3.8-1.3,6.2
		c0,4.8,2.2,11.7,7.5,11.7c5.4,0,7.4-5.7,7.4-11C1502.5,649.5,1500.8,643.4,1495,643.4z"/>
	<path class="st3" d="M1514.9,639.4l5.9,17.2c0.6,1.9,1.3,4.2,1.7,6h0.1c0.5-1.7,1.1-4,1.7-6.1l5.4-17.1h5.2l-7.4,20.7
		c-3.5,10-5.9,15.1-9.3,18.2c-2.4,2.3-4.8,3.2-6,3.4l-1.2-4.4c1.2-0.4,2.8-1.3,4.3-2.6c1.3-1.1,3-3.2,4.1-5.9c0.2-0.5,0.4-1,0.4-1.3
		c0-0.3-0.1-0.7-0.3-1.4l-10-26.8H1514.9z"/>
	<path class="st3" d="M1539.4,648.9c0-3.7-0.1-6.7-0.2-9.5h4.4l0.2,5h0.1c2-3.5,5.2-5.7,9.6-5.7c6.5,0,11.4,6,11.4,14.8
		c0,10.5-5.9,15.6-12.3,15.6c-3.6,0-6.7-1.7-8.3-4.6h-0.1v15.8h-4.9V648.9z M1544.2,656.7c0,0.8,0.1,1.5,0.2,2.2
		c0.9,3.7,3.8,6.2,7.4,6.2c5.2,0,8.2-4.6,8.2-11.2c0-5.8-2.8-10.8-8-10.8c-3.3,0-6.5,2.6-7.4,6.6c-0.2,0.7-0.3,1.4-0.3,2.2V656.7z"
		/>
	<path class="st3" d="M1587.6,639.4v4.3h-11.7v24.8h-4.9v-29.1H1587.6z"/>
	<path class="st3" d="M1606.7,668.5l-0.4-3.7h-0.2c-1.5,2.3-4.4,4.3-8.3,4.3c-5.5,0-8.3-4.1-8.3-8.4c0-7,5.8-10.9,16.2-10.8v-0.6
		c0-2.4-0.6-6.7-6.1-6.7c-2.5,0-5.1,0.8-7,2.2l-1.1-3.5c2.2-1.6,5.5-2.6,8.9-2.6c8.3,0,10.3,6.1,10.3,11.9v10.9c0,2.5,0.1,5,0.4,7
		H1606.7z M1606,653.7c-5.4-0.1-11.4,0.9-11.4,6.6c0,3.4,2.1,5.1,4.6,5.1c3.5,0,5.7-2.4,6.5-4.9c0.2-0.5,0.3-1.1,0.3-1.7V653.7z"/>
</g>
<g>
	<path class="st1" d="M940.6,381.8v-91.7h13.5l24,45.3c5.5,10.9,10.4,21,14.4,30.6l0.1-0.1c-1-12.8-1.3-23.6-1.3-38.1v-37.7h11v91.7
		h-12.6l-24.1-45.6c-5.4-10.3-10.3-20.7-14.5-31.2l-0.4,0.1c0.6,11.9,0.8,22.4,0.8,38.7v38H940.6z M1055,316.4
		c0,17.5-11,24.7-22.3,24.7c-12.6,0-22.3-8.7-22.3-24.1c0-15.8,10.3-24.7,22.4-24.7C1046.6,292.2,1055,301.7,1055,316.4z
		 M1014.3,354.5v-7.3h37.1v7.3H1014.3z M1020.6,316.9c0,9.9,5.5,17.1,12.1,17.1c7.5,0,12.1-7.2,12.1-17.4c0-8.2-3.4-17.4-12.1-17.4
		C1024.4,299.3,1020.6,308.5,1020.6,316.9z"/>
</g>
</svg>
