<?xml version="1.0" encoding="utf-8"?>
<!-- Generator: Adobe Illustrator 24.1.2, SVG Export Plug-In . SVG Version: 6.00 Build 0)  -->
<svg version="1.1" id="Слой_1" xmlns="http://www.w3.org/2000/svg" xmlns:xlink="http://www.w3.org/1999/xlink" x="0px" y="0px"
	 viewBox="0 0 1656.6 513.3" style="enable-background:new 0 0 1656.6 513.3;" xml:space="preserve">
<style type="text/css">
	.st0{fill:#42C1C7;stroke:#42AEC7;stroke-width:2;stroke-miterlimit:10;}
	.st1{fill:none;}
	.st2{fill:#A23F97;stroke:#42AEC7;stroke-width:2;stroke-miterlimit:10;}
	.st3{font-family:'MyriadPro-Regular';}
	.st4{font-size:237px;}
	.st5{font-size:170.3862px;}
	.st6{font-size:586.2087px;}
	.st7{fill:#42C1C7;stroke:#E90027;stroke-miterlimit:10;}
	.st8{fill:#A23F97;stroke:#42AEC7;stroke-miterlimit:10;}
	.st9{font-size:60.0334px;}
	.st10{fill:#A23F97;}
</style>
<path class="st0" d="M287.5,510.8c2.3,1.6,5,2.4,7.6,2.5h0.9c2.7-0.1,5.3-0.9,7.6-2.5l9.5-6.5c28.5-19.4,278-193.9,278-340.7
	C591.2,93,550,33.5,485.8,10.2c-0.6-0.2-2.2-0.7-4-1.3c-4.5-1.4-9.1,1.9-9.1,6.7v50c0,3.9,2.1,7.7,5.6,9.5
	c31.8,17.1,50.5,49.5,50.5,88.6c0,45.7-43.4,111.5-122.3,185.3c-40.3,37.7-80.4,68.9-104.9,87c-3.6,2.6-8.4,2.6-11.9,0
	c-24.5-18.1-64.6-49.3-104.9-87C105.9,275.1,62.5,209.3,62.5,163.6c0-39,18.7-71.5,50.5-88.6c3.5-1.9,5.6-5.6,5.6-9.5v-50
	c0-4.8-4.6-8.1-9.1-6.7c-1.8,0.6-3.4,1.1-4,1.3C41.2,33.4,0,93,0,163.6c0,146.8,249.6,321.3,278,340.7L287.5,510.8L287.5,510.8z"/>
<rect x="-480" y="51.8" class="st1" width="2006.4" height="245.1"/>
<text transform="matrix(1 0 0 1 114.72 220.0667)" class="st2 st3 st4">Детская</text>
<text transform="matrix(1 0 0 1 15.6155 393.4656)" class="st2 st3 st5">Поликлиника </text>
<text transform="matrix(1 0 0 1 1055.0538 426.506)" class="st2 st3 st6">29</text>
<path class="st7" d="M693.9-95.8"/>
<text transform="matrix(0.9275 0 0 1 -0.6177 501.8532)" class="st8 st3 st9">Отдел Здравоохранения Калининского района г.Санкт-Петербурга</text>
<text transform="matrix(1 0 0 1 950.1509 285.8264)" class="st10 st3 st5">№</text>
</svg>
