<?xml version="1.0" encoding="utf-8"?>
<!-- Generator: Adobe Illustrator 24.1.2, SVG Export Plug-In . SVG Version: 6.00 Build 0)  -->
<svg version="1.1" id="Слой_1" xmlns="http://www.w3.org/2000/svg" xmlns:xlink="http://www.w3.org/1999/xlink" x="0px" y="0px"
	 viewBox="0 0 55.3 26.9" style="enable-background:new 0 0 55.3 26.9;" xml:space="preserve">
<style type="text/css">
	.st0{fill:none;stroke:#BBBDBF;stroke-width:2;stroke-linecap:round;stroke-linejoin:round;}
	.st1{fill:#95DEEB;}
	.st2{fill:#65BFC4;}
	.st3{fill:#3B9391;}
	.st4{fill:none;}
</style>
<g id="Outline">
	<path class="st0" d="M44.7,6.6c0,0,10.2-3.2,8.8,4.7c-0.9,4.6-4.3,8.3-8.8,9.5"/>
	<path class="st0" d="M10.7,6.6c0,0-10.2-3.2-8.8,4.7c0.9,4.6,4.3,8.3,8.8,9.5"/>
	<path class="st1" d="M44.7,22c0,0-4.2,3.8-17,3.8s-17-3.8-17-3.8V5c5.2-2.7,11.1-4.1,17-4.1c5.9-0.1,11.8,1.3,17,4.1V22z"/>
	<path class="st2" d="M44.7,11.8c0,0-4.2-2-17-2s-17,2-17,2V7.9c5.5-1.4,11.3-2.1,17-2.1c5.7-0.1,11.5,0.6,17,2.1V11.8z"/>
	<path class="st2" d="M10.7,14.8c0,0,4.2,2,17,2s17-2,17-2v3.9c-5.5,1.4-11.3,2.1-17,2.1c-5.7,0.1-11.5-0.6-17-2.1V14.8z"/>
	<path class="st2" d="M15.9,2.7C14.1,3.3,12.3,4,10.7,5v17c0,0,4.2,3.8,17,3.8c0.5,0,1.1,0,1.6,0C18.7,16.9,16.3,7.9,15.9,2.7z"/>
	<path class="st3" d="M21,16.6c-7.6-0.5-10.3-1.8-10.3-1.8v3.9c4.4,1.2,8.9,1.8,13.5,2C23,19.4,21.9,18,21,16.6z"/>
	<path class="st3" d="M16.5,6.6c-2,0.3-4,0.7-5.9,1.2v3.9c0,0,1.9-0.9,7-1.5C17.2,9.1,16.8,7.9,16.5,6.6z"/>
	<rect x="-4.3" y="-18.7" class="st4" width="64" height="64"/>
</g>
</svg>
