<?xml version="1.0" encoding="utf-8"?>
<!-- Generator: Adobe Illustrator 24.1.2, SVG Export Plug-In . SVG Version: 6.00 Build 0)  -->
<svg version="1.1" id="Layer_1" xmlns="http://www.w3.org/2000/svg" xmlns:xlink="http://www.w3.org/1999/xlink" x="0px" y="0px"
	 viewBox="0 0 512 512" style="enable-background:new 0 0 512 512;" xml:space="preserve">
<style type="text/css">
	.st0{fill:#4CB6AC;}
	.st1{fill:#263238;}
</style>
<g>
	<g id="XMLID_151_">
		<path id="XMLID_1224_" class="st0" d="M354.1,508.5H133.6c-44.5,0-80.6-36.1-80.6-80.6V110.7c0-44.5,36.1-80.6,80.6-80.6h220.5
			c44.5,0,80.6,36.1,80.6,80.6v317.2C434.7,472.4,398.6,508.5,354.1,508.5z"/>
		<g id="XMLID_715_">
			<g id="XMLID_16_">
				<path id="XMLID_656_" class="st1" d="M374.9,505.9H153.5c-48.4,0-87.8-39.4-87.8-87.8v-313c0-48.4,39.4-87.8,87.8-87.8h221.4
					c48.4,0,87.8,39.4,87.8,87.8v313C462.7,466.6,423.3,505.9,374.9,505.9z M153.5,37.7c-37.2,0-67.4,30.2-67.4,67.4v313
					c0,37.2,30.2,67.4,67.4,67.4h221.4c37.2,0,67.4-30.2,67.4-67.4v-313c0-37.2-30.2-67.4-67.4-67.4
					C374.9,37.7,153.5,37.7,153.5,37.7z"/>
			</g>
			<g id="XMLID_33_">
				<rect id="XMLID_655_" x="159" y="28" class="st1" width="19" height="469"/>
			</g>
			<g id="XMLID_34_">
				<rect id="XMLID_654_" x="263" y="132" class="st1" width="90" height="19"/>
			</g>
			<g id="XMLID_32_">
				<rect id="XMLID_653_" x="223" y="206" class="st1" width="172" height="23"/>
			</g>
			<g id="XMLID_36_">
				<rect id="XMLID_652_" x="223" y="284" class="st1" width="172" height="20"/>
			</g>
			<g id="XMLID_35_">
				<rect id="XMLID_651_" x="223" y="360" class="st1" width="172" height="23"/>
			</g>
			<g id="XMLID_188_">
				<path id="XMLID_1695_" class="st1" d="M200.6,9.7h45.8c5.6,0,10.2,4.6,10.2,10.2v76.3l-33.7-34.4L190.4,95V19.9
					C190.4,14.3,195,9.7,200.6,9.7z"/>
			</g>
		</g>
	</g>
</g>
</svg>
