<?xml version="1.0" encoding="utf-8"?>
<!-- Generator: Adobe Illustrator 24.1.2, SVG Export Plug-In . SVG Version: 6.00 Build 0)  -->
<svg version="1.1" id="Слой_1" xmlns="http://www.w3.org/2000/svg" xmlns:xlink="http://www.w3.org/1999/xlink" x="0px" y="0px"
	 viewBox="0 0 256 256" style="enable-background:new 0 0 256 256;" xml:space="preserve">
<style type="text/css">
	.st0{fill:#FFD659;}
	.st1{fill:#2FB1EA;}
	.st2{fill:#6DD0FC;}
	.st3{fill:#A4ECFF;}
	.st4{fill:#FF8888;}
	.st5{fill:#F97171;}
	.st6{fill:#FFFFFF;}
	.st7{fill:#FFC444;}
	.st8{fill:#FFE76E;}
	.st9{fill:#D4FFD4;}
	.st10{fill:#FFBDBD;}
	.st11{fill:#BBF1FF;}
	.st12{fill:#FFF4C5;}
</style>
<g id="Layer_2">
	<polygon class="st0" points="216.4,99.9 216.4,108.3 191.3,112.7 166.1,108.3 166.1,99.9 176.3,86.8 206.2,86.8 	"/>
	<path class="st1" d="M191.3,114.7h-0.3l-25.1-4.3c-1-0.2-1.7-1-1.7-2v-8.4c0-0.4,0.1-0.9,0.4-1.2l10.2-13.2c0.4-0.5,1-0.8,1.6-0.8
		h29.9c0.6,0,1.2,0.3,1.6,0.8L218,98.7c0.3,0.3,0.4,0.8,0.4,1.2v8.4c0,1-0.7,1.8-1.7,2l-25.1,4.3L191.3,114.7z M168.1,106.7l23.1,4
		l23.1-4v-6l-9.2-11.9h-28l-9.2,11.9L168.1,106.7z"/>
	<path class="st2" d="M232.1,109.1v39.2c0,13.9-11.3,25.2-25.2,25.2h-31.4c-13.9,0-25.2-11.3-25.2-25.2v-39.2c0-4.2,2.6-7.9,6.4-9.4
		l5.2-2l29.2,15l29.2-15l5.2,2C229.6,101.2,232.1,104.9,232.1,109.1z"/>
	<path class="st3" d="M232.1,109.1v29.2c0,13.9-11.3,25.2-25.2,25.2h-31.4c-13.9,0-25.2-11.3-25.2-25.2v-29.2c0-4.2,2.6-7.9,6.4-9.4
		l5.2-2l29.2,15l29.2-15l5.2,2C229.6,101.2,232.1,104.9,232.1,109.1z"/>
	<path class="st2" d="M174.2,129.2c1.9,0.4,4,0.2,5.8-0.5l0.7,0.7c5.9,5.7,15.2,5.7,21.1,0l0.7-0.7c1.2,0.5,2.5,0.7,3.8,0.7
		c0.7,0,1.4-0.1,2.1-0.2c2.9-0.6,5.3-2.4,6.7-5l12.6-23.4c-0.6-0.4-1.2-0.7-1.9-1l-5.2-2l-29.2,15L162,97.7l-5.2,2
		c-0.7,0.3-1.3,0.6-1.9,1l12.6,23.4C168.8,126.7,171.3,128.6,174.2,129.2z"/>
	<path class="st1" d="M206.9,175.5h-31.4c-15,0-27.2-12.2-27.2-27.2v-39.2c0-5,3.1-9.4,7.7-11.3l5.2-2c0.5-0.2,1.1-0.2,1.6,0.1
		l28.3,14.5l28.3-14.6c0.5-0.3,1.1-0.3,1.6-0.1l5.2,2c4.6,1.8,7.7,6.3,7.7,11.3v39.2C234.1,163.3,222,175.5,206.9,175.5z
		 M161.9,99.9l-4.4,1.7c-3.1,1.2-5.1,4.2-5.2,7.5v39.2c0,12.8,10.4,23.2,23.2,23.2H207c12.8,0,23.2-10.4,23.2-23.2v-39.2
		c0-3.3-2.1-6.3-5.2-7.5l-4.4-1.7l-28.4,14.6c-0.6,0.3-1.3,0.3-1.8,0L161.9,99.9z"/>
	<path class="st4" d="M200.3,159.9l-5,6.9c-1.6,2.3-4.7,2.8-7,1.2c-0.5-0.3-0.9-0.7-1.2-1.2l-5-6.9c-1.6-2.1-2.2-4.8-1.8-7.4
		L185,123h12.6l4.6,29.4C202.6,155.1,201.9,157.8,200.3,159.9z"/>
	<path class="st5" d="M186.1,123l-1.6,10.5c4.1,2.7,9.4,2.7,13.5,0l-1.6-10.5H186.1z"/>
	<path class="st1" d="M191.3,170.9c-2.3,0-4.4-1.1-5.7-2.9l-5-6.9c-1.9-2.6-2.6-5.8-2.1-8.9l4.6-29.4c0.2-1,1-1.7,2-1.7h12.6
		c1,0,1.8,0.7,2,1.7l4.6,29.4c0.5,3.1-0.3,6.3-2.1,8.9l-5,6.9C195.7,169.8,193.5,170.9,191.3,170.9z M186.7,125l-4.3,27.7
		c-0.3,2.1,0.2,4.3,1.4,6l5,6.9c0.9,1.4,2.8,1.7,4.2,0.8c0.3-0.2,0.6-0.5,0.8-0.8l5-6.9l0,0c1.3-1.7,1.8-3.9,1.4-6l-4.3-27.7H186.7z
		"/>
	<path class="st4" d="M204.8,117.2l-10.1,9.8c-2,1.9-5.1,1.9-7.1,0l-10.1-9.9l13.6-5.5L204.8,117.2z"/>
	<path class="st1" d="M191.3,130.4c-1.8,0-3.6-0.7-4.9-2l-10.1-9.9c-0.8-0.8-0.8-2,0-2.8c0.2-0.2,0.4-0.3,0.7-0.5l13.6-5.5
		c0.5-0.2,1-0.2,1.5,0l13.6,5.5c1,0.4,1.5,1.6,1.1,2.6c-0.1,0.3-0.3,0.5-0.5,0.7l-10.1,9.9C194.9,129.7,193.1,130.5,191.3,130.4z
		 M181.3,117.9l7.9,7.7c1.2,1.2,3.1,1.2,4.3,0l7.9-7.7l-10-4L181.3,117.9z"/>
	<polygon class="st6" points="172.4,89.1 162,97.7 176.3,124.2 191.3,112.7 	"/>
	<path class="st1" d="M176.3,126.2c-0.1,0-0.3,0-0.4,0c-0.6-0.1-1.1-0.5-1.3-1l-14.2-26.6c-0.5-0.8-0.2-1.9,0.5-2.5l10.4-8.6
		c0.8-0.7,2.1-0.6,2.8,0.3c0,0,0,0,0,0l18.8,23.6c0.7,0.9,0.5,2.1-0.3,2.8c0,0,0,0,0,0l-15,11.5
		C177.1,126.1,176.7,126.2,176.3,126.2z M164.6,98.2l12.4,23l11.5-8.9l-16.3-20.4L164.6,98.2z"/>
	<polygon class="st6" points="210.1,89.1 220.5,97.7 206.2,124.2 191.3,112.7 	"/>
	<path class="st1" d="M206.2,126.2c-0.4,0-0.9-0.1-1.2-0.4l-15-11.5c-0.9-0.7-1-1.9-0.4-2.8c0,0,0,0,0,0l18.8-23.6
		c0.7-0.9,1.9-1,2.8-0.3c0,0,0,0,0,0l10.4,8.6c0.7,0.6,0.9,1.6,0.5,2.5L208,125.2c-0.3,0.5-0.8,0.9-1.3,1
		C206.5,126.2,206.4,126.2,206.2,126.2z M194.1,112.3l11.5,8.9l12.4-23l-7.6-6.3L194.1,112.3z"/>
	<path class="st7" d="M191.3,44L191.3,44c11.1,0,20.2,9,20.2,20.2v10.1c0,11.1-9,20.2-20.2,20.2l0,0c-11.1,0-20.2-9-20.2-20.2V64.2
		C171.1,53,180.1,44,191.3,44z"/>
	<path class="st8" d="M191.3,44L191.3,44c11.1,0,20.2,9,20.2,20.2v3.1c0,11.1-9,20.2-20.2,20.2l0,0c-11.1,0-20.2-9-20.2-20.2v-3.1
		C171.1,53,180.1,44,191.3,44z"/>
	<path class="st1" d="M191.3,96.4c-12.2,0-22.1-9.9-22.2-22.2V64.2c0-12.2,9.9-22.2,22.1-22.2c12.2,0,22.2,9.9,22.2,22.1
		c0,0,0,0,0,0v10.1C213.4,86.5,203.5,96.4,191.3,96.4z M191.3,46c-10,0-18.1,8.1-18.2,18.2v10.1c0,10,8.1,18.2,18.1,18.2
		c10,0,18.2-8.1,18.2-18.1c0,0,0,0,0,0V64.2C209.4,54.1,201.3,46,191.3,46z"/>
	<polygon class="st0" points="89.9,99.9 89.9,108.3 64.7,112.7 39.6,108.3 39.6,99.9 49.8,86.8 79.7,86.8 	"/>
	<path class="st1" d="M64.7,114.7h-0.3l-25.2-4.3c-1-0.2-1.7-1-1.7-2v-8.4c0-0.4,0.1-0.9,0.4-1.2l10.2-13.2c0.4-0.5,1-0.8,1.6-0.8
		h29.9c0.6,0,1.2,0.3,1.6,0.8l10.2,13.2c0.3,0.3,0.4,0.8,0.4,1.2v8.4c0,1-0.7,1.8-1.7,2l-25.2,4.3L64.7,114.7z M41.6,106.7l23.2,4
		l23.2-4v-6l-9.2-11.9h-28l-9.2,11.9L41.6,106.7z"/>
	<path class="st2" d="M105.6,109.1v39.2c0,13.9-11.3,25.2-25.2,25.2H49.1c-13.9,0-25.2-11.3-25.2-25.2v-39.2c0-4.2,2.6-7.9,6.4-9.4
		l5.2-2l29.2,15l29.3-15l5.2,2C103.1,101.2,105.6,104.9,105.6,109.1z"/>
	<path class="st3" d="M105.6,109.1v29.2c0,13.9-11.3,25.2-25.2,25.2H49.1c-13.9,0-25.2-11.3-25.2-25.2v-29.2c0-4.2,2.6-7.9,6.4-9.4
		l5.2-2l29.2,15l29.3-15l5.2,2C103.1,101.2,105.6,104.9,105.6,109.1z"/>
	<path class="st2" d="M47.7,129.2c1.9,0.4,4,0.2,5.8-0.5l0.7,0.7c5.9,5.7,15.2,5.7,21.1,0l0.7-0.7c1.2,0.5,2.5,0.7,3.8,0.7
		c0.7,0,1.4-0.1,2.1-0.2c2.9-0.6,5.3-2.4,6.7-5l12.6-23.5c-0.6-0.4-1.2-0.7-1.9-1l-5.2-2l-29.2,15l-29.2-15l-5.2,2
		c-0.7,0.3-1.3,0.6-1.9,1L41,124.1C42.4,126.7,44.8,128.5,47.7,129.2z"/>
	<path class="st1" d="M80.4,175.5H49.1c-15,0-27.2-12.2-27.2-27.2v-39.2c0-5,3.1-9.4,7.7-11.3l5.2-2c0.5-0.2,1.1-0.2,1.6,0.1
		l28.3,14.5l28.3-14.6c0.5-0.3,1.1-0.3,1.6-0.1l5.2,2c4.6,1.8,7.7,6.3,7.7,11.3v39.2C107.6,163.3,95.5,175.5,80.4,175.5z M35.4,99.9
		l-4.4,1.7c-3.1,1.2-5.1,4.2-5.2,7.5v39.2c0,12.8,10.4,23.2,23.2,23.2h31.4c12.8,0,23.2-10.4,23.2-23.2v-39.2c0-3.3-2.1-6.3-5.2-7.5
		l-4.4-1.7l-28.4,14.6c-0.6,0.3-1.3,0.3-1.8,0L35.4,99.9z"/>
	<path class="st4" d="M73.8,159.9l-5,6.9c-1.6,2.3-4.7,2.8-7,1.2c-0.5-0.3-0.9-0.7-1.2-1.2l-5-6.9c-1.6-2.1-2.2-4.8-1.8-7.4
		l4.6-29.5H71l4.6,29.4C76,155.1,75.4,157.7,73.8,159.9z"/>
	<path class="st5" d="M59.6,123L58,133.6c4.1,2.7,9.4,2.7,13.5,0L69.9,123H59.6z"/>
	<path class="st1" d="M64.7,170.9c-2.3,0-4.4-1.1-5.7-2.9l-5-6.9c-1.9-2.6-2.6-5.8-2.1-8.9l4.6-29.4c0.2-1,1-1.7,2-1.7H71
		c1,0,1.8,0.7,2,1.7l4.6,29.4c0.5,3.1-0.3,6.3-2.1,8.9l-5,6.9C69.1,169.8,67,170.9,64.7,170.9z M60.2,125l-4.3,27.7
		c-0.3,2.1,0.2,4.3,1.4,6l5,6.9c0.9,1.4,2.8,1.7,4.2,0.8c0.3-0.2,0.6-0.5,0.8-0.8l5-6.9l0,0c1.3-1.7,1.8-3.9,1.4-6L69.3,125H60.2z"
		/>
	<path class="st4" d="M78.3,117.2L68.3,127c-2,1.9-5.1,1.9-7.1,0l-10-9.9l13.6-5.5L78.3,117.2z"/>
	<path class="st1" d="M64.7,130.4c-1.8,0-3.6-0.7-4.9-2l-10-9.9c-0.8-0.8-0.8-2,0-2.8c0.2-0.2,0.4-0.3,0.7-0.5l13.6-5.5
		c0.5-0.2,1-0.2,1.5,0l13.6,5.5c1,0.4,1.5,1.6,1.1,2.6c-0.1,0.3-0.3,0.5-0.5,0.7l-10.1,9.9C68.4,129.7,66.6,130.5,64.7,130.4z
		 M54.7,117.9l7.9,7.7c1.2,1.2,3.1,1.2,4.3,0l7.9-7.7l-10-4L54.7,117.9z"/>
	<polygon class="st6" points="45.9,89.1 35.5,97.7 49.8,124.2 64.7,112.7 	"/>
	<path class="st1" d="M49.8,126.2c-0.1,0-0.3,0-0.4,0c-0.6-0.1-1.1-0.5-1.3-1L33.8,98.6c-0.5-0.8-0.2-1.9,0.5-2.5l10.4-8.6
		c0.8-0.7,2.1-0.6,2.8,0.3c0,0,0,0,0,0l18.8,23.6c0.7,0.9,0.5,2.1-0.3,2.8c0,0,0,0,0,0l-15,11.5C50.6,126.1,50.2,126.2,49.8,126.2z
		 M38.1,98.2l12.3,23l11.5-8.9L45.6,91.9L38.1,98.2z"/>
	<polygon class="st6" points="83.6,89.1 94,97.7 79.7,124.2 64.7,112.7 	"/>
	<path class="st1" d="M79.7,126.2c-0.4,0-0.9-0.1-1.2-0.4l-15-11.5c-0.9-0.7-1-1.9-0.4-2.8c0,0,0,0,0,0L82,87.8
		c0.7-0.9,1.9-1,2.8-0.3c0,0,0,0,0,0l10.4,8.6c0.7,0.6,0.9,1.6,0.5,2.5l-14.2,26.5c-0.3,0.5-0.8,0.9-1.3,1
		C80,126.2,79.9,126.2,79.7,126.2z M67.6,112.3l11.5,8.9l12.3-23l-7.6-6.3L67.6,112.3z"/>
	<path class="st7" d="M64.7,44L64.7,44c11.1,0,20.2,9,20.2,20.2v10.1c0,11.1-9,20.2-20.2,20.2l0,0c-11.1,0-20.2-9-20.2-20.2V64.2
		C44.6,53,53.6,44,64.7,44z"/>
	<path class="st8" d="M64.7,44L64.7,44c11.1,0,20.2,9,20.2,20.2v3.1c0,11.1-9,20.2-20.2,20.2l0,0c-11.1,0-20.2-9-20.2-20.2v-3.1
		C44.6,53,53.6,44,64.7,44z"/>
	<path class="st1" d="M64.7,96.4c-12.2,0-22.1-9.9-22.2-22.2V64.2c0-12.2,9.9-22.2,22.2-22.2s22.2,9.9,22.2,22.2v10.1
		C86.9,86.5,77,96.4,64.7,96.4z M64.7,46c-10,0-18.1,8.1-18.2,18.2v10.1c0,10,8.1,18.2,18.2,18.2s18.2-8.1,18.2-18.2l0,0V64.2
		C82.9,54.1,74.8,46,64.7,46z"/>
	<polygon class="st0" points="153.1,138.5 153.1,146.9 127.9,151.2 102.8,146.9 102.8,138.5 113,125.3 142.9,125.3 	"/>
	<path class="st1" d="M127.9,153.2h-0.3l-25.2-4.3c-1-0.2-1.7-1-1.7-2v-8.4c0-0.4,0.1-0.9,0.4-1.2l10.2-13.2c0.4-0.5,1-0.8,1.6-0.8
		h29.9c0.6,0,1.2,0.3,1.6,0.8l10.2,13.2c0.3,0.3,0.4,0.8,0.4,1.2v8.4c0,1-0.7,1.8-1.7,2l-25.1,4.3L127.9,153.2z M104.8,145.2l23.2,4
		l23.1-4v-6l-9.2-11.9H114l-9.2,11.9L104.8,145.2z"/>
	<path class="st2" d="M168.8,147.6v39.2c0,13.9-11.3,25.2-25.2,25.2h-31.4c-13.9,0-25.2-11.3-25.2-25.2v-39.2c0-4.2,2.6-7.9,6.4-9.4
		l5.2-2l29.2,15l29.2-15l5.2,2C166.3,139.7,168.8,143.5,168.8,147.6z"/>
	<path class="st3" d="M168.8,147.6v29.2c0,13.9-11.3,25.2-25.2,25.2h-31.4c-13.9,0-25.2-11.3-25.2-25.2v-29.2c0-4.2,2.6-7.9,6.4-9.4
		l5.2-2l29.2,15l29.2-15l5.2,2C166.3,139.7,168.8,143.5,168.8,147.6z"/>
	<path class="st2" d="M110.9,167.7c1.9,0.4,4,0.2,5.8-0.5l0.7,0.7c5.9,5.7,15.2,5.7,21.1,0l0.7-0.7c1.2,0.5,2.5,0.7,3.8,0.7
		c0.7,0,1.4-0.1,2.1-0.2c2.9-0.6,5.3-2.4,6.7-5l12.6-23.4c-0.6-0.4-1.2-0.7-1.9-1l-5.2-2l-29.2,15l-29.2-15l-5.2,2
		c-0.7,0.3-1.3,0.6-1.9,1l12.6,23.4C105.6,165.3,108,167.1,110.9,167.7z"/>
	<path class="st1" d="M143.6,214h-31.4c-15,0-27.2-12.2-27.2-27.2v-39.2c0-5,3.1-9.4,7.7-11.3l5.2-2c0.5-0.2,1.1-0.2,1.6,0.1
		l28.3,14.5l28.3-14.5c0.5-0.3,1.1-0.3,1.6-0.1l5.2,2c4.6,1.8,7.7,6.3,7.7,11.3v39.2C170.8,201.8,158.6,214,143.6,214z M98.6,138.4
		l-4.4,1.7c-3.1,1.2-5.1,4.2-5.2,7.5v39.2c0,12.8,10.4,23.2,23.2,23.2h31.4c12.8,0,23.2-10.4,23.2-23.2v-39.2c0-3.3-2.1-6.3-5.2-7.5
		l-4.4-1.7L128.9,153c-0.6,0.3-1.3,0.3-1.8,0L98.6,138.4z"/>
	<path class="st4" d="M137,198.4l-5,6.9c-1.6,2.3-4.7,2.8-7,1.2c-0.5-0.3-0.9-0.7-1.2-1.2l-5-6.9c-1.6-2.1-2.2-4.8-1.8-7.4l4.6-29.4
		h12.6l4.6,29.5C139.2,193.6,138.6,196.3,137,198.4z"/>
	<path class="st5" d="M122.8,161.6l-1.6,10.5c4.1,2.7,9.4,2.7,13.5,0l-1.6-10.5H122.8z"/>
	<path class="st1" d="M127.9,209.4c-2.3,0-4.4-1.1-5.7-2.9l-5-6.9c-1.9-2.6-2.6-5.8-2.1-8.9l4.6-29.4c0.2-1,1-1.7,2-1.7h12.6
		c1,0,1.8,0.7,2,1.7l4.6,29.4c0.5,3.1-0.3,6.3-2.1,8.9l-5,6.9C132.3,208.4,130.2,209.4,127.9,209.4z M123.4,163.6l-4.3,27.7
		c-0.3,2.1,0.2,4.3,1.4,6l5,6.9c0.9,1.4,2.8,1.7,4.2,0.8c0.3-0.2,0.6-0.5,0.8-0.8l5-6.9l0,0c1.3-1.7,1.8-3.9,1.4-6l-4.3-27.8
		L123.4,163.6z"/>
	<path class="st4" d="M141.5,155.7l-10.1,9.9c-2,1.9-5.1,1.9-7.1,0l-10.1-9.9l13.6-5.5L141.5,155.7z"/>
	<path class="st1" d="M127.9,169c-1.8,0-3.6-0.7-4.9-2l-10-9.9c-0.8-0.8-0.8-2,0-2.8c0.2-0.2,0.4-0.3,0.7-0.5l13.6-5.5
		c0.5-0.2,1-0.2,1.5,0l13.6,5.5c1,0.4,1.5,1.6,1.1,2.6c-0.1,0.3-0.3,0.5-0.5,0.7l-10.1,9.9C131.6,168.3,129.8,169,127.9,169z
		 M117.9,156.4l7.9,7.7c1.2,1.2,3.1,1.2,4.3,0l7.9-7.7l-10-4L117.9,156.4z"/>
	<polygon class="st6" points="109.1,127.6 98.7,136.2 113,162.7 127.9,151.2 	"/>
	<path class="st1" d="M113,164.7c-0.1,0-0.3,0-0.4,0c-0.6-0.1-1.1-0.5-1.3-1L97,137.1c-0.5-0.8-0.2-1.9,0.5-2.5l10.4-8.6
		c0.8-0.7,2.1-0.6,2.8,0.3c0,0,0,0,0,0l18.8,23.6c0.7,0.9,0.5,2.1-0.3,2.8c0,0,0,0,0,0l-15,11.5C113.9,164.6,113.4,164.7,113,164.7z
		 M101.3,136.7l12.3,23l11.5-8.9l-16.3-20.4L101.3,136.7z"/>
	<polygon class="st6" points="146.8,127.6 157.2,136.2 142.9,162.7 127.9,151.2 	"/>
	<path class="st1" d="M142.9,164.7c-0.4,0-0.9-0.1-1.2-0.4l-15-11.5c-0.9-0.7-1-1.9-0.4-2.8c0,0,0,0,0,0l18.8-23.6
		c0.7-0.9,1.9-1,2.8-0.3c0,0,0,0,0,0l10.4,8.6c0.7,0.6,0.9,1.6,0.5,2.5l-14.2,26.5c-0.3,0.5-0.8,0.9-1.3,1
		C143.2,164.7,143.1,164.7,142.9,164.7z M130.8,150.8l11.5,8.9l12.4-23l-7.6-6.3L130.8,150.8z"/>
	<path class="st7" d="M127.9,82.5L127.9,82.5c11.1,0,20.2,9,20.2,20.2v10.1c0,11.1-9,20.2-20.2,20.2l0,0c-11.1,0-20.2-9-20.2-20.2
		v-10.1C107.8,91.5,116.8,82.5,127.9,82.5z"/>
	<path class="st8" d="M127.9,82.5L127.9,82.5c11.1,0,20.2,9,20.2,20.2v3.1c0,11.1-9,20.2-20.2,20.2l0,0c-11.1,0-20.2-9-20.2-20.2
		v-3.1C107.8,91.5,116.8,82.5,127.9,82.5z"/>
	<path class="st1" d="M127.9,134.9c-12.2,0-22.1-9.9-22.2-22.2v-10.1c0-12.2,9.9-22.2,22.2-22.2s22.2,9.9,22.2,22.2v10.1
		C150.1,125,140.2,134.9,127.9,134.9z M127.9,84.5c-10,0-18.1,8.1-18.2,18.2v10.1c0,10,8.1,18.2,18.2,18.2s18.2-8.1,18.2-18.2l0,0
		v-10.1C146.1,92.7,138,84.5,127.9,84.5z"/>
	<circle class="st9" cx="7" cy="119.5" r="5"/>
	<circle class="st9" cx="78" cy="225.5" r="4"/>
	<circle class="st9" cx="213" cy="184.5" r="3"/>
	<circle class="st9" cx="184" cy="31.5" r="2"/>
	<circle class="st9" cx="240" cy="46.5" r="1"/>
	<circle class="st10" cx="230" cy="81.5" r="5"/>
	<circle class="st10" cx="106" cy="60.5" r="4"/>
	<circle class="st10" cx="16" cy="145.5" r="3"/>
	<circle class="st10" cx="28" cy="58.5" r="2"/>
	<circle class="st10" cx="79" cy="27.5" r="1"/>
	<circle class="st11" cx="52" cy="192.5" r="5"/>
	<circle class="st11" cx="205" cy="31.5" r="4"/>
	<circle class="st11" cx="142" cy="56.5" r="3"/>
	<circle class="st11" cx="213" cy="211.5" r="2"/>
	<circle class="st11" cx="209" cy="226.5" r="1"/>
	<circle class="st12" cx="14" cy="187.5" r="5"/>
	<circle class="st12" cx="250" cy="130.5" r="4"/>
	<circle class="st12" cx="177" cy="205.5" r="3"/>
	<circle class="st12" cx="123" cy="33.5" r="2"/>
	<circle class="st12" cx="157" cy="35.5" r="1"/>
</g>
</svg>
