<?xml version="1.0" encoding="utf-8"?>
<!-- Generator: Adobe Illustrator 24.1.2, SVG Export Plug-In . SVG Version: 6.00 Build 0)  -->
<svg version="1.1" id="Layer_3" xmlns="http://www.w3.org/2000/svg" xmlns:xlink="http://www.w3.org/1999/xlink" x="0px" y="0px"
	 viewBox="0 0 1068.4 1198.7" style="enable-background:new 0 0 1068.4 1198.7;" xml:space="preserve">
<style type="text/css">
	.st0{fill:#E0E1E2;}
	.st1{fill:#1682FC;}
	.st2{fill:#2E3A58;}
</style>
<path class="st0" d="M578.7,1124.7c0,0-485.6-116.3-504.3-919.3c-26.1,16.4-41.9,30.7-41.9,41.1c18.4,803.8,504.3,920.1,504.3,920.1
	s121-29.1,244.7-163.7C673.8,1101.8,578.7,1124.7,578.7,1124.7z"/>
<path class="st0" d="M536.4,1050c-9.9-4.2-22.2-10-36.1-17.6c-50-27.3-96.7-64.6-138.9-110.8c-59.6-65.4-108-146.9-143.8-242.4
	c-41.6-111-66.3-241.2-73.4-387.5c21.4-12.5,60-32.5,128-62.3c78.5-34.4,165.5-68.3,224.6-90.7c25.8-9.8,54.3-9.9,80.1-0.1
	c59.1,22.3,146,56,224.5,90.3c67,29.3,105.5,49.2,127.1,61.6c-10.3,146.9-36.9,277.5-79.2,388.9c-36.6,96-84.9,177.9-143.6,243.4
	c-41.3,46.1-86.8,83.2-135.1,110.2C557.5,1040.3,545.9,1045.9,536.4,1050z"/>
<path class="st1" d="M721.3,428.5c8.3,0,15,6.7,15,15v123c0,8.3-6.7,15-15,15h-108v108c0,8.3-6.7,15-15,15h-123c-8.3,0-15-6.7-15-15
	v-108h-108c-8.3,0-15-6.7-15-15v-123c0-8.3,6.7-15,15-15h108v-108c0-8.3,6.7-15,15-15h123c8.3,0,15,6.7,15,15v108"/>
<path class="st2" d="M536.8,1181.6c-1.2,0-2.4-0.1-3.5-0.4c-1.3-0.3-32.6-8-79.5-32c-42.9-21.9-107.7-62.4-173.1-130.9
	c-73.2-76.6-132.3-172-175.6-283.5C51.2,596.1,21.7,431.9,17.5,246.9v-0.4c0-20,20.4-47.9,168.2-115.4
	C274,90.8,379.6,49.4,452.6,21.8C506.8,1.2,566.7,1.2,621,21.6C694.3,49.3,800.3,90.7,888.7,131c49.2,22.4,87.8,42.2,114.7,58.7
	c37.7,23.2,53.5,40.4,52.7,57.5c-8.2,185.8-40.1,350.4-94.9,489.2c-44,111.6-102.8,206.9-174.7,283.2
	c-35.5,37.7-93.6,90.8-169,130.1c-45.6,23.7-75.9,31.2-77.2,31.5C539.2,1181.5,538,1181.6,536.8,1181.6z M47.5,247
	c4.2,180.6,32.8,340.6,85,475.5c41.6,107.7,98.3,199.7,168.5,273.6c34.4,36.2,90.9,87.4,164.8,125.6c35.6,18.3,61.8,26.7,71,29.4
	c8.9-2.6,34.2-10.8,68.5-28.9c39.6-20.8,99.6-59.3,160.9-124.8c68.9-73.6,125.4-165.7,167.7-273.6c53.1-135.2,84.1-295.7,92.2-477.3
	c-0.7-1.8-6.5-12.5-45.6-35.5c-26.7-15.8-64.3-34.7-111.5-56c-86.5-39.1-188.4-78.8-258.6-105.3c-47.4-17.9-99.8-17.8-147.2,0.2
	C393,76.4,291.1,116.3,204.7,155.4c-47.2,21.4-84.7,40.3-111.5,56.1C54,234.6,48.2,245.3,47.5,247z"/>
<path class="st1" d="M536.4,1055c-0.7,0-1.3-0.1-1.9-0.4c-9-3.8-18.3-8.2-27.5-12.9c-2.5-1.3-3.4-4.3-2.2-6.8s4.3-3.4,6.8-2.2l0,0
	c8.3,4.3,16.7,8.2,24.8,11.7c8.1-3.5,16.4-7.6,24.7-12c2.4-1.3,5.3-0.4,6.7,1.9v0.1c1.3,2.4,0.4,5.5-2,6.8l0,0
	c-9.2,4.9-18.4,9.4-27.4,13.3C537.8,1054.8,537.1,1055,536.4,1055z"/>
<path class="st1" d="M461.3,1013.7c-1,0-2-0.3-2.8-0.9c-15.6-10.6-30.6-21.9-45-34c-2.1-1.7-2.4-4.8-0.7-6.9l0.1-0.1
	c1.8-2.1,4.9-2.4,7.1-0.7c14.1,12,28.8,23.1,44.1,33.4c2.3,1.5,2.9,4.7,1.3,6.9c0,0,0,0,0,0.1
	C464.5,1012.9,462.9,1013.7,461.3,1013.7z M375.9,941.9c-1.4,0-2.6-0.5-3.6-1.5c-4.9-5-9.8-10.2-14.6-15.4
	c-7.8-8.5-15.5-17.5-22.9-26.6c-1.7-2.1-1.4-5.3,0.7-7c2.1-1.8,5.3-1.5,7,0.6c0,0,0,0,0.1,0.1c7.3,8.9,14.8,17.8,22.5,26.2
	c4.7,5.1,9.5,10.2,14.3,15.1c1.9,2,1.9,5.1-0.1,7.1l0,0C378.4,941.4,377.2,941.9,375.9,941.9L375.9,941.9z M305.3,855.5
	c-1.6,0-3.2-0.8-4.1-2.2c-10.4-15.2-20.5-31.2-29.9-47.6c-1.6-2.2-1.1-5.4,1.1-7c2.2-1.6,5.4-1.1,7,1.1c0.2,0.3,0.4,0.6,0.5,0.9
	c9.4,16.2,19.3,32,29.5,47c1.5,2.3,0.9,5.4-1.3,6.9C307.2,855.2,306.3,855.5,305.3,855.5L305.3,855.5z M249.5,758.8
	c-1.9,0-3.7-1.2-4.5-2.9c-8-16.5-15.7-33.8-22.8-51.3c-1.1-2.5,0.1-5.4,2.6-6.4c0,0,0.1,0,0.1-0.1c2.6-1,5.5,0.2,6.6,2.7
	c7,17.4,14.6,34.4,22.5,50.8c1.2,2.5,0.2,5.5-2.3,6.7l0,0C251,758.6,250.3,758.8,249.5,758.8z M207.3,655.3c-2.1,0-4-1.3-4.7-3.3
	c-5.9-17.4-11.4-35.5-16.5-53.7c-0.8-2.7,0.7-5.4,3.4-6.2c2.7-0.7,5.4,0.9,6.2,3.5c5,18.1,10.6,35.9,16.4,53.1
	c0.9,2.6-0.4,5.5-3,6.4c0,0,0,0-0.1,0C208.4,655.3,207.9,655.3,207.3,655.3z M177.2,547.8c-2.3,0-4.4-1.6-4.9-3.9
	c-4.1-17.9-7.8-36.4-11.2-55c-0.8-2.7,0.8-5.4,3.5-6.2s5.4,0.8,6.2,3.5c0.1,0.3,0.2,0.7,0.2,1c3.4,18.4,7.1,36.8,11.1,54.5
	c0.7,2.6-0.9,5.3-3.5,6c-0.1,0-0.1,0-0.2,0L177.2,547.8z M157.2,437.9c-2.5,0-4.6-1.8-4.9-4.3c-2.6-18.2-4.8-36.9-6.7-55.7
	c-0.5-2.7,1.2-5.3,3.9-5.9c2.7-0.5,5.3,1.2,5.9,3.9c0.1,0.3,0.1,0.7,0.1,1c1.9,18.6,4.1,37.2,6.7,55.3c0.3,2.7-1.6,5.2-4.3,5.6
	L157.2,437.9z"/>
<path class="st1" d="M145.9,326.6c-2.6,0-4.8-2-5-4.6c-0.7-10-1.2-20.1-1.7-30.1c-0.1-1.9,0.8-3.6,2.4-4.6
	c7.8-4.4,16.7-9.3,26.6-14.4c2.4-1.3,5.4-0.4,6.6,2c0,0,0,0.1,0.1,0.1c1.2,2.4,0.3,5.4-2.1,6.7c-8.7,4.5-16.5,8.8-23.5,12.8
	c0.5,8.9,1,17.9,1.6,26.8c0.2,2.8-1.9,5.1-4.7,5.3l0,0H145.9z"/>
<path class="st1" d="M225.1,255.6c-2,0-3.7-1.1-4.6-2.9c-1.1-2.5-0.1-5.4,2.4-6.6c14.6-6.8,30.5-14,47.3-21.3l8.3-3.6
	c2.5-1.1,5.5,0,6.6,2.6l0,0c1.1,2.5-0.1,5.5-2.6,6.6l-8.3,3.5c-16.7,7.4-32.5,14.5-47,21.2C226.6,255.5,225.8,255.6,225.1,255.6z
	 M847.6,254.7c-0.7,0-1.4-0.2-2.1-0.5c-14.3-6.6-29.8-13.6-46.1-20.7l-9.3-4c-2.5-1.1-3.7-4.1-2.6-6.6s4.1-3.7,6.6-2.6l9.3,4
	c16.4,7.2,32,14.2,46.3,20.8c2.5,1.2,3.6,4.1,2.4,6.6c0,0,0,0,0,0.1C851.3,253.6,849.5,254.7,847.6,254.7z M336.4,207
	c-2,0-3.8-1.2-4.6-3c-1-2.6,0.2-5.5,2.7-6.6c17.9-7.4,36.9-15.1,56.4-22.9c2.6-1,5.5,0.2,6.5,2.8s-0.2,5.5-2.8,6.5
	c-19.5,7.8-38.4,15.5-56.2,22.9C337.8,206.9,337.1,207,336.4,207z M736.1,206.2c-0.6,0-1.3-0.1-1.9-0.3
	c-17.9-7.4-36.8-15.1-56.3-22.8c-2.6-1-3.8-3.9-2.8-6.5s3.9-3.8,6.5-2.8l0,0c19.5,7.7,38.5,15.4,56.4,22.8c2.5,1,3.8,3.8,2.8,6.4
	c0,0,0,0.1-0.1,0.1C740,205,738.1,206.2,736.1,206.2L736.1,206.2z M449.3,161.9c-2.8,0.1-5-2.1-5.1-4.9c0-2.1,1.3-4.1,3.3-4.8
	L495,134c3.3-1.2,6.5-2.3,9.8-3.2c2.7-0.8,5.4,0.8,6.2,3.4c0.8,2.6-0.8,5.4-3.4,6.2c-3.1,0.9-6.1,1.9-9,3
	c-15.9,6-31.9,12.1-47.5,18.2C450.5,161.8,449.9,161.9,449.3,161.9z M623.2,161.3c-0.6,0-1.2-0.1-1.8-0.4l-46.3-17.6
	c-3.3-1.3-6.7-2.4-10.2-3.3c-2.6-0.7-4.2-3.5-3.5-6.1c0.6-2.6,3.2-4.2,5.8-3.6c0.1,0,0.2,0.1,0.3,0.1c3.8,1,7.5,2.2,11.1,3.5
	l46.4,17.7c2.6,0.9,3.9,3.8,3,6.4C627.3,160,625.3,161.3,623.2,161.3L623.2,161.3z"/>
<path class="st1" d="M926.1,325.4h-0.4c-2.8-0.2-4.8-2.6-4.6-5.4l0,0c0.8-8.8,1.5-17.7,2.1-26.7c-6.9-3.9-14.8-8.2-23.4-12.7
	c-2.3-1.6-2.9-4.7-1.3-7c1.3-1.9,3.7-2.7,5.9-1.8c9.9,5.1,18.8,9.9,26.6,14.4c1.6,1,2.6,2.8,2.4,4.7c-0.7,10-1.4,20.1-2.3,30
	C930.9,323.5,928.7,325.5,926.1,325.4z"/>
<path class="st1" d="M617.8,1007.7c-1.6,0-3.1-0.7-4.1-2c-1.6-2.2-1.1-5.4,1.2-7l0,0c17.1-12.5,33.5-26.1,49.1-40.5
	c1.9-1.9,4.9-1.8,6.8,0.1c0.1,0.1,0.1,0.2,0.2,0.2c1.9,1.9,1.8,5-0.1,6.9c0,0-0.1,0-0.1,0.1c-15.8,14.8-32.6,28.6-50.1,41.3
	C619.8,1007.4,618.8,1007.7,617.8,1007.7z M712,920.7c-1.2,0-2.4-0.5-3.3-1.3c-2.1-1.8-2.3-4.9-0.5-7c13.7-15.7,27-32.6,39.5-50.2
	c1.6-2.2,4.7-2.7,6.9-1.1c2.2,1.5,2.8,4.6,1.3,6.8c0,0,0,0.1-0.1,0.1c-12.7,17.8-26.1,35-40,50.9C714.9,920,713.5,920.7,712,920.7z
	 M786.6,816.1c-0.9,0-1.7-0.2-2.5-0.6c-2.4-1.4-3.2-4.5-1.8-6.9c10.6-18,20.7-36.9,30.1-56.3c1-2.6,3.9-3.8,6.5-2.8s3.8,3.9,2.8,6.5
	c-0.1,0.2-0.2,0.4-0.3,0.6c-9.5,19.7-19.8,38.9-30.5,57.1C790,815.2,788.4,816.1,786.6,816.1L786.6,816.1z M842.9,700.7
	c-0.6,0-1.3-0.2-1.9-0.4c-2.5-1-3.8-3.8-2.8-6.4c0,0,0-0.1,0.1-0.1l6.3-16.2c5.4-14.3,10.6-29,15.5-43.9c0.9-2.6,3.8-4.1,6.4-3.2
	s4,3.7,3.1,6.3c-4.9,15-10.2,30-15.7,44.3c-2,5.5-4.2,11-6.4,16.4C846.8,699.4,845,700.7,842.9,700.7z M883.2,578.6h-1.3
	c-2.6-0.7-4.2-3.5-3.5-6.1c5.4-20.2,10.4-41.1,14.9-62.3c0.6-2.7,3.3-4.4,6-3.8l0,0c2.7,0.5,4.4,3.1,3.8,5.8v0.1
	c-4.6,21.3-9.6,42.4-15.1,62.7C887.4,577.2,885.4,578.6,883.2,578.6z M910.2,453h-0.8c-2.6-0.3-4.5-2.7-4.2-5.4c0-0.1,0-0.2,0.1-0.3
	c3.4-20.7,6.5-42,9.2-63.4c0.3-2.7,2.8-4.7,5.5-4.4s4.7,2.8,4.4,5.5c0,0,0,0,0,0.1c-2.7,21.6-5.8,43-9.3,63.8
	C914.7,451.3,912.6,453,910.2,453z"/>
</svg>
