<?xml version="1.0" encoding="utf-8"?>
<!-- Generator: Adobe Illustrator 24.1.2, SVG Export Plug-In . SVG Version: 6.00 Build 0)  -->
<svg version="1.1" id="Layer_3" xmlns="http://www.w3.org/2000/svg" xmlns:xlink="http://www.w3.org/1999/xlink" x="0px" y="0px"
	 viewBox="0 0 1259.2 1259.2" style="enable-background:new 0 0 1259.2 1259.2;" xml:space="preserve">
<style type="text/css">
	.st0{fill:#1682FC;}
	.st1{fill:#2E3A58;}
	.st2{fill:#E0E1E2;}
</style>
<path class="st0" d="M574,1240.7c-134.8-0.1-244-109.3-244-244.1V969c0-8.3,6.7-15,15-15h45c8.3,0,15,6.7,15,15v27.6
	c0,93.2,75.8,169.1,169,169.1s169.1-75.9,169.1-169.1V435.7c0-105.9,86.2-192.1,192.1-192.1s192.2,86.2,192.2,192.1v71.7
	c0,8.3-6.7,15-15,15h-45c-8.3,0-15-6.7-15-15v-71.7c0-64.6-52.6-117.1-117.2-117.1c-64.6,0.1-117,52.5-117.1,117.1v560.9
	C818.1,1131.4,708.8,1240.7,574,1240.7L574,1240.7z M360,984v12.6c-2.6,118.2,91.2,216.1,209.4,218.7s216.1-91.2,218.7-209.4
	c0.1-3.1,0.1-6.2,0-9.3V435.7c0-81.1,66-147.1,147.1-147.1s147.2,66,147.2,147.1v56.7h15v-56.7c0-89.4-72.8-162.1-162.2-162.1
	s-162.1,72.7-162.1,162.1v560.9c0,109.8-89.3,199.1-199.1,199.1s-199-89.3-199-199.1V984H360z"/>
<path class="st0" d="M367.2,855.9l-10.4-0.2c-2.7-0.2-4.9-2.5-4.8-5.2c0.1-2.8,2.4-4.9,5.2-4.8l0,0l10,0.2c16.3,0,32.6-1.6,48.6-4.6
	c2.7-0.7,5.4,0.8,6.1,3.5c0.7,2.7-0.8,5.4-3.5,6.1c-0.3,0.1-0.6,0.1-0.8,0.2C401,854.3,384.1,855.9,367.2,855.9z M297.8,846.7
	l-1.3-0.2c-19.6-5.4-38.6-13-56.6-22.6c-2.5-1.3-3.4-4.3-2.1-6.7c0,0,0,0,0-0.1c1.2-2.4,4.2-3.3,6.6-2.1c0.1,0,0.1,0.1,0.2,0.1
	c17.3,9.3,35.6,16.6,54.6,21.7c2.7,0.4,4.6,3,4.2,5.7C302.9,845.2,300.5,847,297.8,846.7z M473.8,833.4c-2,0-3.7-1.2-4.5-3
	c-1.1-2.5,0-5.5,2.5-6.6c17.9-7.9,34.9-17.9,50.6-29.7c2.2-1.6,5.3-1.2,7,1c1.7,2.1,1.3,5.2-0.8,6.9c-0.1,0-0.1,0.1-0.2,0.1
	c-16.3,12.2-33.9,22.6-52.5,30.9C475.2,833.3,474.5,833.4,473.8,833.4z M193.1,790.3c-1.2,0-2.4-0.5-3.3-1.3
	c-15.4-13.4-29.1-28.6-41-45.2c-1.6-2.2-1.1-5.3,1.1-6.8c0,0,0.1,0,0.1-0.1c2.2-1.6,5.4-1.1,7,1.1l0,0
	c11.4,15.9,24.7,30.5,39.4,43.5c2.1,1.8,2.3,5,0.5,7.1C195.9,789.7,194.5,790.3,193.1,790.3z M568.9,762c-2.8,0-5-2.3-5-5
	c0-1.2,0.4-2.3,1.2-3.2c12.6-15,23.5-31.4,32.5-48.9c1.1-2.5,4-3.8,6.5-2.7s3.8,4,2.7,6.5c-0.1,0.2-0.2,0.4-0.3,0.7
	c-9.3,18.2-20.6,35.2-33.7,50.8C571.8,761.4,570.4,762,568.9,762L568.9,762z M123.7,693.7c-2,0-3.8-1.3-4.6-3.1
	c-7.8-18.8-13.5-38.5-16.9-58.6c-0.5-2.7,1.3-5.2,4-5.7h0.1c2.6-0.5,5.1,1.2,5.6,3.8c0,0.1,0,0.2,0.1,0.3
	c3.3,19.3,8.8,38.3,16.3,56.4c1.1,2.5-0.1,5.4-2.6,6.4c0,0-0.1,0-0.1,0.1C125,693.6,124.4,693.7,123.7,693.7L123.7,693.7z
	 M623.1,656.1l-1.2-0.2c-2.7-0.6-4.3-3.3-3.7-6c4.8-19,7.3-38.6,7.7-58.2c0-2.8,2.2-5,5-5h0.1c2.7,0.2,4.9,2.4,4.9,5.1
	c-0.4,20.4-3,40.7-7.9,60.5C627.4,654.5,625.4,656.1,623.1,656.1z M103.5,576.4c-2.8,0-5-2.2-5-5v-60c0-2.8,2.2-5,5-5s5,2.2,5,5v60
	C108.5,574.2,106.3,576.4,103.5,576.4z M630.9,536.7c-2.8,0-5-2.2-5-5v-60c0-2.8,2.2-5,5-5s5,2.2,5,5v60
	C635.9,534.5,633.7,536.7,630.9,536.7z"/>
<path class="st1" d="M126.7,486.7h-45c-8.3,0-15-6.7-15-15l0,0V183C66.8,123.6,115,75.5,174.4,75.4c8.3,0,15,6.7,15,15v45
	c0,8.3-6.7,15-15,15c-18,0-32.6,14.6-32.7,32.6v288.7C141.7,480,135,486.7,126.7,486.7L126.7,486.7z M96.7,456.7h15V183
	c0.1-28.8,19.8-53.8,47.7-60.8v-15.3c-36.4,7.2-62.6,39-62.7,76.1V456.7z"/>
<path class="st1" d="M653.2,486.7h-45c-8.3,0-15-6.7-15-15l0,0V183c0-18-14.6-32.6-32.6-32.6c-8.3,0-15-6.7-15-15v-45
	c0-8.3,6.7-15,15-15C620,75.5,668.1,123.6,668.2,183v288.7C668.2,480,661.5,486.7,653.2,486.7L653.2,486.7z M623.2,456.7h15V183
	c-0.1-37-26.3-68.9-62.6-76.1v15.3c27.9,7,47.5,32,47.6,60.8V456.7z"/>
<path class="st1" d="M424.8,984H310.2c-8.3,0-15-6.7-15-15l0,0v-75C150.4,860.3,47.9,731.2,47.9,582.5V471.7c0-8.3,6.7-15,15-15l0,0
	h80c8.3,0.1,14.9,6.7,15,15v110.8c0,115.8,93.8,209.6,209.6,209.6s209.6-93.8,209.6-209.6v-0.1V471.7c0.1-8.3,6.7-14.9,15-15h80
	c8.3,0,15,6.7,15,15l0,0v110.8c0,148.7-102.5,277.8-247.3,311.5v75C439.8,977.3,433.1,984,424.8,984L424.8,984z M325.2,954h84.6
	v-72.2c0-7.2,5.1-13.4,12.2-14.7c136.4-26.3,235.1-145.7,235.1-284.6v-95.8h-50v95.8c0,132.3-107.2,239.6-239.6,239.6
	c-132.3,0-239.6-107.2-239.6-239.6c0,0,0,0,0-0.1v-95.8h-50v95.9c0,138.9,98.7,258.3,235.1,284.6c7.1,1.3,12.2,7.5,12.2,14.7V954z"
	/>
<path class="st2" d="M1168.5,529.6c41.1,58.8,26.8,139.8-32,180.9c-44.7,31.3-104.2,31.3-148.9,0c41.1,58.8,122.1,73.1,180.9,32
	s73.1-122.1,32-180.9C1191.8,549.1,1181,538.3,1168.5,529.6z"/>
<path class="st1" d="M1094.1,781c-79.8,0-144.8-65-144.8-144.9s65-144.9,144.8-144.9s144.9,65,144.9,144.9S1174,781,1094.1,781z
	 M1094.1,521.2c-63.3,0-114.8,51.6-114.8,114.9S1030.8,751,1094.1,751c63.5,0,114.9-51.4,114.9-114.9
	C1209.1,572.7,1157.7,521.2,1094.1,521.2C1094.2,521.2,1094.1,521.2,1094.1,521.2z"/>
<polygon class="st0" points="1116.3,614 1116.3,569.7 1072,569.7 1072,614 1027.7,614 1027.7,658.3 1072,658.3 1072,702.5 
	1116.3,702.5 1116.3,658.3 1160.6,658.3 1160.6,614 "/>
<path class="st0" d="M217,207.3c-31.8,0-57.6-25.8-57.6-57.6V76.1c1.3-31.8,28.2-56.6,60.1-55.2c30,1.2,54,25.3,55.2,55.2v73.6
	C274.6,181.5,248.8,207.3,217,207.3z M217,48.5c-15.2,0.1-27.5,12.4-27.6,27.6v73.6c0.9,15.3,14,26.9,29.3,26c14-0.8,25.1-12,26-26
	V76.1C244.6,60.8,232.3,48.5,217,48.5z"/>
<path class="st0" d="M518,207.3c-31.8,0-57.6-25.8-57.7-57.6V76.1c1.3-31.8,28.2-56.6,60.1-55.2c30,1.2,54,25.3,55.2,55.2v73.6
	C575.6,181.5,549.8,207.3,518,207.3z M518,48.5c-15.3,0-27.6,12.3-27.7,27.6v73.6c0.9,15.3,14,26.9,29.3,26c14-0.8,25.1-12,26-26
	V76.1C545.5,60.9,533.2,48.6,518,48.5z"/>
</svg>
