<?xml version="1.0" encoding="utf-8"?>
<!-- Generator: Adobe Illustrator 24.1.2, SVG Export Plug-In . SVG Version: 6.00 Build 0)  -->
<svg version="1.1" id="Layer_1" xmlns="http://www.w3.org/2000/svg" xmlns:xlink="http://www.w3.org/1999/xlink" x="0px" y="0px"
	 viewBox="0 0 72.6 72.6" style="enable-background:new 0 0 72.6 72.6;" xml:space="preserve">
<style type="text/css">
	.st0{fill:#E0995E;}
	.st1{opacity:0.2;fill:#231F20;enable-background:new    ;}
	.st2{opacity:0.2;}
	.st3{fill:#231F20;}
	.st4{fill:#4F5D73;}
	.st5{fill:#FFFFFF;}
</style>
<circle class="st0" cx="36.6" cy="36.6" r="32"/>
<path class="st1" d="M54.3,53L49,47.6c-0.1-0.1-0.1-0.1-0.2-0.1c2.3-3,3.7-6.8,3.7-10.9c0-9.9-8.1-18-18-18s-18,8.1-18,18
	s8.1,18,18,18c4,0,7.7-1.3,10.8-3.6c0.1,0.1,0.1,0.1,0.2,0.2l5.3,5.3c0.5,0.5,1.1,0.7,1.8,0.7s1.3-0.2,1.8-0.7
	C55.3,55.5,55.3,53.9,54.3,53z M34.6,50.6c-7.7,0-14-6.3-14-14s6.3-14,14-14s14,6.3,14,14S42.3,50.6,34.6,50.6z"/>
<g class="st2">
	<path class="st3" d="M41.1,38.6h-13c-1.1,0-2-0.9-2-2s0.9-2,2-2h13c1.1,0,2,0.9,2,2S42.2,38.6,41.1,38.6z"/>
</g>
<g>
	<path class="st4" d="M52.6,55.2c-0.6,0-1.3-0.2-1.8-0.7l-5.3-5.3c-1-1-1-2.6,0-3.5c1-1,2.6-1,3.5,0l5.3,5.3c1,1,1,2.6,0,3.5
		C53.9,55,53.2,55.2,52.6,55.2z"/>
</g>
<g>
	<path class="st4" d="M34.6,20.6c7.7,0,14,6.3,14,14s-6.3,14-14,14s-14-6.3-14-14S26.8,20.6,34.6,20.6 M34.6,16.6
		c-9.9,0-18,8.1-18,18s8.1,18,18,18s18-8.1,18-18S44.5,16.6,34.6,16.6L34.6,16.6z"/>
</g>
<g>
	<path class="st5" d="M41.1,36.6h-13c-1.1,0-2-0.9-2-2s0.9-2,2-2h13c1.1,0,2,0.9,2,2S42.2,36.6,41.1,36.6z"/>
</g>
</svg>
