<?xml version="1.0" encoding="utf-8"?>
<!-- Generator: Adobe Illustrator 24.1.2, SVG Export Plug-In . SVG Version: 6.00 Build 0)  -->
<svg version="1.1" id="Layer_3" xmlns="http://www.w3.org/2000/svg" xmlns:xlink="http://www.w3.org/1999/xlink" x="0px" y="0px"
	 viewBox="0 0 878.9 1189.5" style="enable-background:new 0 0 878.9 1189.5;" xml:space="preserve">
<style type="text/css">
	.st0{fill:#E0E1E2;}
	.st1{fill:#2E3A58;}
	.st2{fill:#1682FC;}
</style>
<path class="st0" d="M823.9,1127.4H115.6c-15.6,0-28.3-12.7-28.3-28.3l0,0V124c0-6.3,1.2-12.6,3.6-18.4
	C69.2,111.1,54,130.5,54,152.9v954.7c0,26.9,21.8,48.7,48.7,48.7h0.1h687.8c19.9,0.1,37.8-12,45.2-30.4
	C831.9,1126.9,827.9,1127.4,823.9,1127.4z"/>
<path class="st1" d="M790.6,1171.3H102.8c-35.2,0-63.7-28.5-63.8-63.7V152.9c0-35.2,28.6-63.8,63.8-63.8h123.8v30H102.8
	c-18.6,0.1-33.7,15.2-33.8,33.8v954.7c0.1,18.6,15.2,33.7,33.8,33.7h687.8c18.6,0.1,33.7-15,33.8-33.6v-0.1V152.9
	c0-18.7-15.1-33.8-33.8-33.8l0,0H666.8v-30h123.8c35.2,0,63.8,28.6,63.8,63.8l0,0v954.7C854.3,1142.8,825.8,1171.3,790.6,1171.3z"/>
<path class="st2" d="M615.2,183.3h-337c-36.7-0.1-66.5-29.8-66.6-66.5V82.4c0.1-36.7,29.9-66.5,66.6-66.5h337
	c36.7,0,66.5,29.8,66.6,66.5v34.4C681.7,153.5,651.9,183.2,615.2,183.3z"/>
<rect x="147.1" y="235.5" class="st0" width="599.3" height="825"/>
<path class="st2" d="M746.3,1065.5h-60c-2.8,0-5-2.2-5-5s2.2-5,5-5h60c2.8,0,5,2.2,5,5S749.1,1065.5,746.3,1065.5z M626.3,1065.5
	h-60c-2.8,0-5-2.2-5-5s2.2-5,5-5h60c2.8,0,5,2.2,5,5S629.1,1065.5,626.3,1065.5z M506.3,1065.5h-60c-2.8,0-5-2.2-5-5s2.2-5,5-5h60
	c2.8,0,5,2.2,5,5S509.1,1065.5,506.3,1065.5z M386.3,1065.5h-60c-2.8,0-5-2.2-5-5s2.2-5,5-5h60c2.8,0,5,2.2,5,5
	S389.1,1065.5,386.3,1065.5z M266.3,1065.5h-60c-2.8,0-5-2.2-5-5s2.2-5,5-5h60c2.8,0,5,2.2,5,5S269.1,1065.5,266.3,1065.5z
	 M147.1,1064.8c-2.8,0-5-2.2-5-5v-60c0-2.8,2.2-5,5-5s5,2.2,5,5v60C152,1062.5,149.8,1064.7,147.1,1064.8L147.1,1064.8z
	 M746.3,1036.9c-2.8,0-5-2.2-5-5v-60c0-2.8,2.2-5,5-5s5,2.2,5,5v60C751.3,1034.7,749.1,1036.9,746.3,1036.9z M147.1,944.8
	c-2.8,0-5-2.2-5-5v-60c0-2.8,2.2-5,5-5s5,2.2,5,5v60C152,942.5,149.8,944.7,147.1,944.8L147.1,944.8z M746.3,916.9c-2.8,0-5-2.2-5-5
	v-60c0-2.8,2.2-5,5-5s5,2.2,5,5v60C751.3,914.7,749.1,916.9,746.3,916.9z M147.1,824.8c-2.8,0-5-2.2-5-5v-60c0-2.8,2.2-5,5-5
	s5,2.2,5,5v60C152,822.5,149.8,824.7,147.1,824.8L147.1,824.8z M746.3,796.9c-2.8,0-5-2.2-5-5v-60c0-2.8,2.2-5,5-5s5,2.2,5,5v60
	C751.3,794.7,749.1,796.9,746.3,796.9z M147.1,704.8c-2.8,0-5-2.2-5-5v-60c0-2.8,2.2-5,5-5s5,2.2,5,5v60
	C152,702.5,149.8,704.7,147.1,704.8L147.1,704.8z M746.3,676.9c-2.8,0-5-2.2-5-5v-60c0-2.8,2.2-5,5-5s5,2.2,5,5v60
	C751.3,674.7,749.1,676.9,746.3,676.9z M147.1,584.8c-2.8,0-5-2.2-5-5l0,0v-60c0-2.8,2.2-5,5-5s5,2.2,5,5v60
	C152,582.5,149.8,584.7,147.1,584.8L147.1,584.8z M746.3,556.9c-2.8,0-5-2.2-5-5v-60c0-2.8,2.2-5,5-5s5,2.2,5,5v60
	C751.3,554.7,749.1,556.9,746.3,556.9z M147.1,464.8c-2.8,0-5-2.2-5-5v-60c0-2.8,2.2-5,5-5s5,2.2,5,5v60
	C152,462.5,149.8,464.7,147.1,464.8z M746.3,436.9c-2.8,0-5-2.2-5-5v-60c0-2.8,2.2-5,5-5s5,2.2,5,5v60
	C751.3,434.7,749.1,436.9,746.3,436.9z M147.1,344.8c-2.8,0-5-2.2-5-5v-60c0-2.8,2.2-5,5-5s5,2.2,5,5v60
	C152,342.5,149.8,344.7,147.1,344.8z M746.3,316.9c-2.8,0-5-2.2-5-5v-60c0-2.8,2.2-5,5-5s5,2.2,5,5v60
	C751.3,314.7,749.1,316.9,746.3,316.9z M702.8,240.5h-60c-2.8,0-5-2.2-5-5s2.2-5,5-5h60c2.8,0,5,2.2,5,5
	C707.7,238.2,705.5,240.4,702.8,240.5L702.8,240.5z M582.8,240.5h-60c-2.8,0-5-2.2-5-5s2.2-5,5-5h60c2.8,0,5,2.2,5,5
	C587.7,238.2,585.5,240.4,582.8,240.5L582.8,240.5z M462.8,240.5h-60c-2.8,0-5-2.2-5-5s2.2-5,5-5h60c2.8,0,5,2.2,5,5
	C467.7,238.2,465.5,240.4,462.8,240.5L462.8,240.5z M342.8,240.5h-60c-2.8,0-5-2.2-5-5s2.2-5,5-5h60c2.8,0,5,2.2,5,5
	C347.7,238.2,345.5,240.4,342.8,240.5L342.8,240.5z M222.8,240.5h-60c-2.8,0-5-2.2-5-5s2.2-5,5-5h60c2.8,0,5,2.2,5,5
	C227.7,238.2,225.5,240.4,222.8,240.5L222.8,240.5z"/>
<polygon class="st2" points="468.2,402.4 468.2,343.3 409.1,343.3 409.1,402.4 350,402.4 350,461.5 409.1,461.5 409.1,520.6 
	468.2,520.6 468.2,461.5 527.2,461.5 527.2,402.4 "/>
<rect x="237.8" y="653.9" class="st1" width="417.8" height="30"/>
<rect x="237.8" y="754.4" class="st1" width="166.4" height="30"/>
<rect x="444" y="754.4" class="st1" width="166.4" height="30"/>
<rect x="237.8" y="855" class="st1" width="242.2" height="30"/>
</svg>
