<?xml version="1.0" encoding="utf-8"?>
<!-- Generator: Adobe Illustrator 24.1.2, SVG Export Plug-In . SVG Version: 6.00 Build 0)  -->
<svg version="1.1" id="Слой_1" xmlns="http://www.w3.org/2000/svg" xmlns:xlink="http://www.w3.org/1999/xlink" x="0px" y="0px"
	 viewBox="0 0 241 241" style="enable-background:new 0 0 241 241;" xml:space="preserve">
<style type="text/css">
	.st0{fill:#455A64;}
	.st1{fill:#FF8A80;}
	.st2{fill:#E67C73;}
	.st3{fill:#FFAFA9;}
	.st4{fill:#ECEFF1;}
	.st5{fill:#FFFFFF;}
</style>
<g id="search_magnifier_magnifying_glass_loupe">
	<g id="search_funds_x2C__magnifying_glass_x2C__magnifier_x2C__loupe_1_">
		<g id="analysis_2_">
			<g>
				<g>
					<g>
						<g>
							<path class="st0" d="M159.1,159.1c-1.5,1.5-1.5,3.9,0,5.5l18.6,18.6c1.5,1.5,3.9,1.5,5.4,0c1.5-1.5,1.5-3.9,0-5.4l-18.6-18.6
								C163,157.6,160.6,157.6,159.1,159.1z"/>
						</g>
					</g>
					<g>
						<path class="st1" d="M227.6,205.9l-27-26.9c-5.8-5.8-16-5.8-21.8,0c-2.9,2.9-4.5,6.8-4.5,10.9s1.6,8,4.5,10.9l26.9,27
							c2.9,2.9,6.8,4.5,10.9,4.5s8-1.6,10.9-4.5c2.9-2.9,4.5-6.8,4.5-10.9S230.5,208.8,227.6,205.9z"/>
						<path class="st2" d="M231.5,216.1c-2.9,2.9-6.8,4.5-10.9,4.5c-4.1,0-8-1.6-10.9-4.5l-30.8-30.8c-1-1-1.7-2-2.4-3.2
							c-1.3,2.3-2.1,4.9-2.1,7.7c0,4.1,1.6,8,4.5,10.9l26.9,27c2.9,2.9,6.8,4.5,10.9,4.5s8-1.6,10.9-4.5c2.9-2.9,4.5-6.8,4.5-10.9
							c0-0.4-0.1-0.9-0.1-1.3C231.8,215.6,231.7,215.9,231.5,216.1z"/>
						<path class="st0" d="M216.8,236c-5.1,0-10-2-13.6-5.6l-26.9-26.9c-3.6-3.6-5.6-8.5-5.6-13.6c0-5.1,2-10,5.6-13.6
							c7-7,20.2-7,27.2,0l26.9,26.9c3.6,3.6,5.6,8.5,5.6,13.6s-2,10-5.6,13.6C226.7,234,221.9,236,216.8,236z M189.8,178.4
							c-3.1,0-6.1,1.2-8.2,3.2c-2.2,2.2-3.4,5.1-3.4,8.2c0,3.1,1.2,6,3.4,8.2l26.9,26.9c4.4,4.4,12,4.4,16.3,0
							c2.2-2.2,3.4-5.1,3.4-8.2s-1.2-6-3.4-8.2L198,181.6C195.9,179.6,192.9,178.4,189.8,178.4z"/>
						<path class="st3" d="M214.9,201.7l-19.3-19.3c-1.5-1.5-3.9-1.5-5.4,0c-1.5,1.5-1.5,3.9,0,5.4l19.3,19.3
							c0.8,0.8,1.7,1.1,2.7,1.1c1,0,2-0.4,2.7-1.1C216.4,205.7,216.4,203.2,214.9,201.7z"/>
					</g>
					<circle class="st4" cx="97.4" cy="97.4" r="88.6"/>
					<g>
						<path class="st4" d="M163.7,117.5c-8.7,28.2-35.1,48.8-66.3,48.8L163.7,117.5z"/>
						<path class="st0" d="M97.4,170.2c-2.1,0-3.8-1.7-3.8-3.9c0-2.1,1.7-3.8,3.8-3.8c29,0,54.2-18.5,62.6-46.1
							c0.6-2,2.8-3.2,4.8-2.5c2,0.6,3.2,2.8,2.6,4.8C157.9,149.5,129.8,170.2,97.4,170.2z"/>
					</g>
					<path class="st5" d="M28.1,112.8c0-46.8,37.9-84.7,84.7-84.7c25.1,0,47.5,10.9,63,28.2C161,28.1,131.5,8.9,97.4,8.9
						C48.5,8.9,8.9,48.5,8.9,97.4c0,34.1,19.3,63.6,47.5,78.4C39,160.3,28.1,137.9,28.1,112.8z"/>
					<path class="st0" d="M97.4,189.8c-51,0-92.4-41.4-92.4-92.4S46.4,5,97.4,5s92.4,41.4,92.4,92.4S148.4,189.8,97.4,189.8z
						 M97.4,12.7c-46.7,0-84.7,38-84.7,84.7s38,84.7,84.7,84.7s84.7-38,84.7-84.7S144.1,12.7,97.4,12.7z"/>
				</g>
			</g>
		</g>
	</g>
	<circle class="st0" cx="166.7" cy="97.4" r="3.8"/>
</g>
</svg>
