<?xml version="1.0" encoding="utf-8"?>
<!-- Generator: Adobe Illustrator 24.1.2, SVG Export Plug-In . SVG Version: 6.00 Build 0)  -->
<svg version="1.1" id="Layer_1" xmlns="http://www.w3.org/2000/svg" xmlns:xlink="http://www.w3.org/1999/xlink" x="0px" y="0px"
	 viewBox="0 0 280 280" style="enable-background:new 0 0 280 280;" xml:space="preserve">
<style type="text/css">
	.st0{fill:#FF9D9C;}
	.st1{fill:#FFFFFF;}
	.st2{fill:#E9F4BC;}
	.st3{fill:#FDE4A1;}
	.st4{fill:#505050;}
</style>
<g>
	<polyline class="st0" points="219.2,89.3 219.2,127.3 245.8,110.4 219.2,89.3 	"/>
	<polyline class="st0" points="57.8,89.3 31.1,110.4 57.8,127.4 57.8,89.3 	"/>
	<polygon class="st1" points="219.2,127.3 219.2,32.6 138.5,32.6 57.8,32.6 57.8,127.4 138.5,178.8 	"/>
	<polygon class="st2" points="245.8,110.4 162.7,163.4 245.8,247.3 	"/>
	<polygon class="st2" points="31.1,110.4 31.1,247.3 114.2,163.4 	"/>
	<polygon class="st3" points="162.7,163.4 138.5,178.8 114.2,163.4 31.1,247.3 31.1,247.4 245.8,247.4 245.8,247.3 	"/>
	<g>
		<path class="st4" d="M249.3,110.4C249.3,110.3,249.3,110.3,249.3,110.4c0-0.1,0-0.1,0-0.2c0-0.2-0.1-0.5-0.1-0.7s-0.1-0.4-0.2-0.6
			c0,0,0-0.1-0.1-0.2c0-0.1-0.1-0.2-0.2-0.3l0,0c-0.1-0.2-0.3-0.4-0.5-0.6c0,0-0.1-0.1-0.1-0.1l-25.3-20v-55c0-0.9-0.4-1.9-1-2.5
			c-0.7-0.7-1.5-1-2.5-1h-134c-1.9,0-3.5,1.5-3.5,3.5c0,1.9,1.6,3.5,3.5,3.5h130.5v89.3l-77.2,49.3l-77.2-49.2V36.1h5.2
			c1.9,0,3.5-1.6,3.5-3.5c0-2-1.6-3.5-3.5-3.5h-8.7c-0.9,0-1.8,0.4-2.5,1c-0.7,0.6-1,1.5-1,2.5v54.9l-25.3,20c0,0-0.1,0.1-0.1,0.1
			c-0.2,0.1-0.3,0.4-0.5,0.6c0,0-0.1,0.1-0.1,0.1c0,0-0.1,0.1-0.1,0.2c0,0.1,0,0.1-0.1,0.2c-0.1,0.2-0.1,0.4-0.2,0.6
			c0,0.2-0.1,0.5-0.1,0.7c0,0.1,0,0.1,0,0.2v137.1c0,1.9,1.6,3.5,3.5,3.5h214.7c1.4,0,2.7-0.9,3.2-2.1l0,0c0.2-0.4,0.3-0.9,0.3-1.4
			l0,0L249.3,110.4L249.3,110.4z M108.7,164l-74.1,74.8V116.7L108.7,164z M242.3,116.7v122.1L168.2,164L242.3,116.7z M222.7,96.5
			l17.1,13.5L222.7,121V96.5z M140.3,181.8l21.8-14l75.3,76H39.5l75.3-76l21.8,14C137.7,182.5,139.2,182.5,140.3,181.8z M54.3,121
			L37.2,110l17.1-13.5V121z"/>
		<circle class="st4" cx="75.8" cy="32.6" r="3.5"/>
		<path class="st4" d="M198.8,50.2H78.1c-1.9,0-3.5,1.6-3.5,3.5c0,1.9,1.6,3.5,3.5,3.5h120.6c1.9,0,3.5-1.6,3.5-3.5
			C202.3,51.8,200.7,50.2,198.8,50.2z"/>
		<path class="st4" d="M198.8,70H78.1c-1.9,0-3.5,1.6-3.5,3.5c0,1.9,1.6,3.5,3.5,3.5h120.6c1.9,0,3.5-1.6,3.5-3.5
			C202.3,71.6,200.7,70,198.8,70z"/>
		<path class="st4" d="M202.3,93.4c0-1.9-1.6-3.5-3.5-3.5H78.1c-1.9,0-3.5,1.6-3.5,3.5c0,1.9,1.6,3.5,3.5,3.5h120.6
			C200.7,96.9,202.3,95.3,202.3,93.4z"/>
		<path class="st4" d="M78.1,109.7c-1.9,0-3.5,1.6-3.5,3.5s1.6,3.5,3.5,3.5h51.5c1.9,0,3.5-1.6,3.5-3.5s-1.6-3.5-3.5-3.5H78.1z"/>
	</g>
</g>
</svg>
