<?xml version="1.0" encoding="utf-8"?>
<!-- Generator: Adobe Illustrator 24.1.2, SVG Export Plug-In . SVG Version: 6.00 Build 0)  -->
<svg version="1.1" id="Слой_1" xmlns="http://www.w3.org/2000/svg" xmlns:xlink="http://www.w3.org/1999/xlink" x="0px" y="0px"
	 viewBox="0 0 256 256" style="enable-background:new 0 0 256 256;" xml:space="preserve">
<style type="text/css">
	.st0{fill:#6DD0FC;}
	.st1{fill:#A4ECFF;}
	.st2{fill:#2FB1EA;}
	.st3{fill:#CBECF9;}
	.st4{fill:#FFFFFF;}
	.st5{fill:#FFC444;}
	.st6{fill:#FFE76E;}
	.st7{fill:#52E355;}
	.st8{fill:#90FC95;}
	.st9{fill:#F97171;}
	.st10{fill:#FF8888;}
	.st11{fill:#D4FFD4;}
	.st12{fill:#FFBDBD;}
	.st13{fill:#BBF1FF;}
	.st14{fill:#FFF4C5;}
</style>
<g id="Layer_2">
	<rect x="15.4" y="150.8" class="st0" width="40" height="64"/>
	<rect x="15.4" y="150.9" class="st1" width="34.3" height="55.9"/>
	<path class="st2" d="M55.4,216.9h-40c-1.1,0-2-0.9-2-2v-64c0-1.1,0.9-2,2-2h40c1.1,0,2,0.9,2,2v64C57.4,216,56.5,216.9,55.4,216.9z
		 M17.4,212.9h36v-60h-36V212.9z"/>
	<rect x="55.4" y="154.9" class="st3" width="21.6" height="56"/>
	<rect x="59.5" y="154.9" class="st4" width="12" height="49.5"/>
	<path class="st2" d="M77,212.9H55.4c-1.1,0-2-0.9-2-2v-56c0-1.1,0.9-2,2-2H77c1.1,0,2,0.9,2,2v56C79,212,78.1,212.9,77,212.9z
		 M57.4,208.9H75v-52H57.4L57.4,208.9z"/>
	<path class="st5" d="M156,164.9v43.9c0,6.6-5.4,12-12,12h-14.8c-7.5,0-14.8-2.3-21-6.4l-1.5-1c-6.2-4.2-13.5-6.4-21-6.4H77v-48h12
		c1.5,0,2.9-0.6,4-1.6l20-18.7v20.3h37C153.3,158.9,156,161.5,156,164.9z"/>
	<path class="st6" d="M144,160.9h-35.3v-18.2L93,157.2c-1.1,1-2.6,1.6-4.1,1.6h-6.1v39.2h2.7c7.5,0,14.8,2.3,21,6.4l1.5,1
		c6.2,4.2,13.5,6.4,21,6.4h8.9c6.6,0,12-5.4,12-12v-33.1C150,163.5,147.3,160.9,144,160.9z"/>
	<path class="st2" d="M144,222.8h-14.8c-7.9,0-15.6-2.3-22.2-6.8l-1.5-1c-5.9-4-12.8-6.1-19.9-6.1H77c-1.1,0-2-0.9-2-2v-48
		c0-1.1,0.9-2,2-2h12c1,0,2-0.4,2.7-1.1l20-18.7c0.8-0.8,2.1-0.7,2.8,0.1c0.3,0.4,0.5,0.9,0.5,1.4v18.3h35c4.4,0,8,3.6,8,8v43.9
		C158.1,216.6,151.8,222.8,144,222.8C144,222.8,144,222.8,144,222.8z M79,204.9h6.6c7.9,0,15.6,2.4,22.2,6.8l1.5,1
		c5.9,4,12.8,6.1,19.9,6.1H144c5.5,0,10-4.5,10-10v-43.9c0-2.2-1.8-4-4-4h-37c-1.1,0-2-0.9-2-2v-15.7l-16.6,15.5
		c-1.5,1.4-3.4,2.1-5.4,2.1H79V204.9z"/>
	<rect x="113.1" y="122.9" class="st7" width="37" height="36"/>
	<rect x="113.1" y="130.1" class="st8" width="29.3" height="28.8"/>
	<path class="st2" d="M150,160.9h-37c-1.1,0-2-0.9-2-2v-36c0-1.1,0.9-2,2-2h37c1.1,0,2,0.9,2,2v36C152,160,151.1,160.9,150,160.9z
		 M115,156.9h33v-32h-33V156.9z"/>
	<path class="st9" d="M232.7,148l-72-25.2v-62l72-25.2c3.1-1.1,6.6,0.5,7.7,3.7c0.2,0.6,0.3,1.3,0.3,2v101.2c0,3.3-2.7,6-6,6
		C233.9,148.3,233.3,148.2,232.7,148z"/>
	<path class="st10" d="M224.5,137.1l-63.9-22.4V60.8l63.9-23.3c3.9-1.4,8-3.2,8,1v93c0,3.3-2.8,6-6.1,5.9
		C225.8,137.4,225.1,137.3,224.5,137.1z"/>
	<path class="st2" d="M234.7,150.4c-0.9,0-1.8-0.2-2.7-0.5l0,0l-72-25.2c-0.8-0.3-1.3-1-1.3-1.9V60.8c0-0.9,0.5-1.6,1.3-1.9l72-25.2
		c4.2-1.5,8.7,0.7,10.2,4.9c0.3,0.8,0.4,1.7,0.4,2.6v101.2C242.6,146.8,239.1,150.4,234.7,150.4L234.7,150.4z M233.3,146.2
		c2.1,0.7,4.4-0.4,5.1-2.5c0.1-0.4,0.2-0.9,0.2-1.3V41.2c0-2.2-1.8-4-4-4c-0.5,0-0.9,0.1-1.3,0.2l-70.7,24.7v59.3L233.3,146.2z"/>
	<rect x="106.7" y="60.8" class="st3" width="53.9" height="62.1"/>
	<rect x="106.7" y="60.8" class="st4" width="53.9" height="53.9"/>
	<path class="st2" d="M160.6,124.9h-53.9c-1.1,0-2-0.9-2-2V60.8c0-1.1,0.9-2,2-2h53.9c1.1,0,2,0.9,2,2v62.1
		C162.6,124,161.7,124.9,160.6,124.9z M108.7,120.9h49.9V62.8h-49.9V120.9z"/>
	<path class="st9" d="M102.5,60.8h4.2l0,0v62.1l0,0h-4.2c-17.1,0-31.1-13.9-31.1-31v0l0,0C71.5,74.7,85.4,60.8,102.5,60.8z"/>
	<path class="st10" d="M98.4,60.8h8.3l0,0v53.9l0,0h-8.3c-14.9,0-27-12.1-27-27l0,0C71.5,72.8,83.5,60.8,98.4,60.8z"/>
	<path class="st2" d="M106.7,124.9h-4.2c-18.3,0-33.1-14.8-33.1-33c0-18.3,14.8-33.1,33-33.1c0,0,0,0,0,0h4.2c1.1,0,2,0.9,2,2v62.1
		C108.7,124,107.8,124.9,106.7,124.9z M102.5,62.8c-16,0-29.1,13-29.1,29s13,29.1,29,29.1c0,0,0,0,0,0h2.2V62.8L102.5,62.8z"/>
	<circle class="st2" cx="35.4" cy="197.6" r="6"/>
	<circle class="st11" cx="166.3" cy="143.3" r="5"/>
	<circle class="st11" cx="47.3" cy="59.3" r="4"/>
	<circle class="st11" cx="82.3" cy="43.3" r="3"/>
	<circle class="st11" cx="175.3" cy="207.3" r="2"/>
	<circle class="st11" cx="172.3" cy="192.3" r="1"/>
	<circle class="st12" cx="245.3" cy="174.3" r="5"/>
	<circle class="st12" cx="103.3" cy="229.3" r="4"/>
	<circle class="st12" cx="201.3" cy="173.3" r="3"/>
	<circle class="st12" cx="11.3" cy="137.3" r="2"/>
	<circle class="st12" cx="186.8" cy="23.8" r="1"/>
	<circle class="st13" cx="123.3" cy="41.3" r="5"/>
	<circle class="st13" cx="61.3" cy="132.3" r="4"/>
	<circle class="st13" cx="34.3" cy="228.3" r="3"/>
	<circle class="st13" cx="34.3" cy="104.3" r="2"/>
	<circle class="st13" cx="172.8" cy="47.8" r="1"/>
	<circle class="st14" cx="10.8" cy="117.8" r="5"/>
	<circle class="st14" cx="190" cy="194" r="4"/>
	<circle class="st14" cx="182.3" cy="170.3" r="3"/>
	<circle class="st14" cx="156.3" cy="27.3" r="2"/>
	<circle class="st14" cx="210.3" cy="219.3" r="1"/>
</g>
</svg>
