<svg id="Capa_1" enable-background="new 0 0 512 512" height="512" viewBox="0 0 512 512" width="512" xmlns="http://www.w3.org/2000/svg"><g><path d="m251.336 165.822s.142 56.372 5.802 89.441c1.524 8.904-5.298 17.039-14.332 17.039h-51.385c.001-.001 24.877-75.631 59.915-106.48z" fill="#7acaa6"/><path d="m242.804 272.306h-19.592c9.034 0 15.864-8.138 14.339-17.048-3.389-19.768-4.8-47.858-5.387-67.255 5.933-8.498 12.361-16.183 19.17-22.178 0 0 .144 56.367 5.81 89.433 1.523 8.911-5.306 17.048-14.34 17.048z" fill="#57be92"/><path d="m316.131 10.019v133.28l-2.178.347c-55.042 11.369-84.849 67.803-84.849 67.803-39.072 59.21-38.629 194.534-35.713 261.511.263 6.023.546 11.492.822 16.305.709 12.339-9.096 22.736-21.456 22.736h-72.597c-8.747 0-16.577-5.32-19.916-13.404-3.513-8.503-6.392-17.076-8.724-25.637-23.6-86.58 8.797-171.903 8.797-171.903 20.138-57.891 24.279-91.194 24.279-91.194 1.628-13.402-4.646-24.928-11.156-32.994-8.601-10.641-13.288-23.939-13.072-37.619.855-52.113 12.124-95.655 19.943-119.831 3.925-12.124 15.544-20.066 28.276-19.376z" fill="#f9f3f1"/><path d="m313.953 10.023v133.624c-55.038 11.372-84.849 67.801-84.849 67.801-39.072 59.21-38.629 194.534-35.714 261.511.268 6.026.546 11.496.824 16.306.711 12.341-9.096 22.734-21.457 22.734h-7.293c5.305-4.172 8.57-10.795 8.148-18.109-.278-4.81-.556-10.28-.824-16.306-.546-12.516-1.02-41.338-1.318-53.864-.999-40.967-.515-82.202 4.625-122.901 4.883-38.639 14.823-74.383 35.889-107.233 16.571-25.824 40.046-51.204 69.629-61.71 7.037-2.499 11.738-9.156 11.738-16.624v-106.341z" fill="#efe2dd"/><path d="m313.954 10.019 22.824 1.162c7.651.39 13.655 6.707 13.655 14.367v100.033c0 7.343-5.531 13.508-12.831 14.302l-23.648 3.763z" fill="#7acaa6"/><path d="m350.428 25.547v100.033c0 7.345-5.521 13.505-12.825 14.308l-14.226 2.256c5.243-2.431 8.818-7.736 8.818-13.803v-105.699c0-4.862-2.287-9.209-5.861-11.99l10.445.525c7.654.391 13.649 6.706 13.649 14.37z" fill="#57be92"/><path d="m269.889 36.02h-128.003c-4.573 0-8.617 2.955-9.994 7.316-4.515 14.297-13.752 47.239-13.942 77.988-.039 6.256 5.328 11.176 11.552 10.541l141.452-14.444c5.349-.546 9.418-5.051 9.418-10.429v-60.49c0-5.789-4.693-10.482-10.483-10.482z" fill="#cdbfba"/><path d="m280.372 46.499v60.498c0 5.377-4.069 9.879-9.415 10.425l-15.864 1.617c2.843-2.06 4.677-5.408 4.677-9.147v-65.04c0-3.574-1.658-6.757-4.254-8.828h14.37c5.788-.001 10.486 4.686 10.486 10.475z" fill="#b9acac"/><g fill="#7acaa6"><circle cx="172.619" cy="78.497" r="16.889"/><circle cx="235.047" cy="78.497" r="16.889"/></g><g fill="#57be92"><path d="m189.507 78.494c0 9.333-7.561 16.894-16.883 16.894-7.066 0-13.113-4.337-15.627-10.486.906.155 1.844.237 2.802.237 9.333 0 16.894-7.561 16.894-16.894 0-2.266-.443-4.429-1.257-6.397 7.983 1.338 14.071 8.281 14.071 16.646z"/><path d="m251.931 78.494c0 9.333-7.561 16.894-16.883 16.894-7.066 0-13.113-4.337-15.627-10.486.906.155 1.844.237 2.802.237 9.333 0 16.894-7.561 16.894-16.894 0-2.266-.443-4.429-1.257-6.397 7.983 1.338 14.071 8.281 14.071 16.646z"/></g><path d="m172.757 512h-72.597c-8.747 0-16.577-5.32-19.916-13.404-3.513-8.503-6.392-17.076-8.724-25.637h121.871c.263 6.023.546 11.492.822 16.305.708 12.339-9.097 22.736-21.456 22.736z" fill="#7acaa6"/><path d="m172.757 512h-7.293c5.305-4.172 8.57-10.795 8.148-18.109-.278-4.81-.556-10.28-.824-16.306-.062-1.36-.113-2.915-.175-4.625h20.777c.268 6.026.546 11.496.824 16.306.711 12.34-9.096 22.734-21.457 22.734z" fill="#57be92"/><g><g><g><path d="m418.39 134.018c-2.132 0-4.25-.904-5.733-2.66-2.673-3.164-2.274-7.896.89-10.569 13.056-11.029 20.544-27.146 20.544-44.217 0-17.43-7.748-33.763-21.258-44.811-3.207-2.622-3.681-7.347-1.058-10.553 2.622-3.207 7.348-3.68 10.553-1.059 17.008 13.909 26.763 34.474 26.763 56.422 0 21.498-9.427 41.791-25.864 55.676-1.409 1.19-3.127 1.771-4.837 1.771z" fill="#cdbfba"/></g><g><path d="m401.783 101.987c-2.132 0-4.25-.904-5.733-2.66-2.673-3.165-2.275-7.896.889-10.569 3.663-3.094 5.763-7.614 5.763-12.4 0-4.887-2.173-9.467-5.963-12.566-3.207-2.622-3.68-7.347-1.058-10.554 2.622-3.205 7.347-3.68 10.554-1.058 7.287 5.959 11.467 14.772 11.467 24.178 0 9.212-4.04 17.909-11.082 23.858-1.409 1.19-3.127 1.771-4.837 1.771z" fill="#cdbfba"/></g></g></g></g></svg>