<?xml version="1.0" ?><!DOCTYPE svg  PUBLIC '-//W3C//DTD SVG 1.1//EN'  'http://www.w3.org/Graphics/SVG/1.1/DTD/svg11.dtd'><svg height="100%" style="fill-rule:evenodd;clip-rule:evenodd;stroke-linejoin:round;stroke-miterlimit:1.41421;" version="1.1" viewBox="0 0 100 126" width="100%" xml:space="preserve" xmlns="http://www.w3.org/2000/svg" xmlns:serif="http://www.serif.com/" xmlns:xlink="http://www.w3.org/1999/xlink"><clipPath id="_clip1"><rect height="125" width="100" x="0" y="0.54"/></clipPath><g clip-path="url(#_clip1)"><path d="M100,42.577c0,-16.313 -13.224,-29.537 -29.537,-29.537c-12.909,0 -28.017,0 -40.926,0c-16.313,0 -29.537,13.224 -29.537,29.537c0,12.909 0,28.017 0,40.926c0,16.313 13.224,29.537 29.537,29.537c12.909,0 28.017,0 40.926,0c16.313,0 29.537,-13.224 29.537,-29.537c0,-12.909 0,-28.017 0,-40.926Z" style="fill:#ff4a4a;"/><path d="M54,93.29l0,-46.5l17.9,15.3l5.2,-6l-27.1,-23.3l-27.1,23.3l5.2,6l17.9,-15.3l0,46.5l8,0Z" style="fill-opacity:0.480729;fill-rule:nonzero;"/></g></svg>