<?xml version="1.0" ?><svg viewBox="0 0 512 512" xmlns="http://www.w3.org/2000/svg"><g id="Flat"><circle cx="120" cy="392" r="48" style="fill:#a6c72a"/><rect height="40" style="fill:#68bc40" width="16" x="112" y="432"/><circle cx="120" cy="472" r="16" style="fill:#a6c72a"/><rect height="33.53923" style="fill:#68bc40" transform="translate(-258.66607 239.80905) rotate(-45)" width="15.99967" x="152.14225" y="415.37247"/><circle cx="176.56854" cy="448.56854" r="16" style="fill:#a6c72a"/><rect height="16" style="fill:#68bc40" width="32" x="160" y="384"/><circle cx="200" cy="392" r="16" style="fill:#a6c72a"/><rect height="15.99967" style="fill:#68bc40" transform="translate(-201.06821 216.63748) rotate(-45)" width="35.88222" x="143.02935" y="343.02971"/><circle cx="176.56854" cy="335.43146" r="16" style="fill:#a6c72a"/><rect height="32" style="fill:#68bc40" width="16" x="112" y="320"/><circle cx="120" cy="312" r="16" style="fill:#a6c72a"/><rect height="35.88222" style="fill:#68bc40" transform="translate(-225.06815 158.6965) rotate(-45)" width="15.99967" x="71.02971" y="333.08843"/><circle cx="63.43146" cy="335.43146" r="16" style="fill:#a6c72a"/><rect height="16" style="fill:#68bc40" width="40" x="40" y="384"/><circle cx="40" cy="392" r="16" style="fill:#a6c72a"/><rect height="15.99967" style="fill:#68bc40" transform="translate(-283.00913 182.69644) rotate(-45)" width="35.88222" x="61.08843" y="424.97062"/><circle cx="63.43146" cy="448.56854" r="16" style="fill:#a6c72a"/><circle cx="120" cy="392" r="16" style="fill:#68bc40"/><rect height="16.00036" style="fill:#8ed0eb" transform="translate(-182.03403 224.50414) rotate(-44.99753)" width="101.82338" x="129.08831" y="323.99982"/><polygon points="208 288 224 304 240 304 256 288 224 256 208 272 208 288" style="fill:#37a2c7"/><rect height="45.25483" style="fill:#2d80b7" transform="translate(33.96133 313.9899) rotate(-45)" width="79.19596" x="356.40202" y="93.37258"/><path d="M224.26346,256.26346l31.47308,31.47308a23,23,0,0,0,32.52692,0L376,200l-64-64-87.73654,87.73654A23,23,0,0,0,224.26346,256.26346Z" style="fill:#8ed0eb"/><rect height="158.39192" style="fill:#37a2c7" transform="translate(-6.03867 297.42136) rotate(-45)" width="33.94113" x="339.02944" y="76.80404"/><rect height="113.13708" style="fill:#37a2c7" transform="translate(73.96133 330.55844) rotate(-45)" width="33.94113" x="419.02944" y="19.43146"/><rect height="33.94113" style="fill:#37a2c7" transform="translate(-106.32294 279.31371) rotate(-45)" width="16.00036" x="275.99982" y="251.02944"/><rect height="33.94113" style="fill:#37a2c7" transform="translate(-90.32294 285.94113) rotate(-45)" width="16.00036" x="291.99982" y="235.02944"/><rect height="33.94113" style="fill:#37a2c7" transform="translate(-74.32294 292.56854) rotate(-45)" width="16.00036" x="307.99982" y="219.02944"/><rect height="33.94113" style="fill:#37a2c7" transform="translate(-58.32294 299.19596) rotate(-45)" width="16.00036" x="323.99982" y="203.02944"/></g></svg>