<?xml version="1.0" ?><svg id="Covid-19_1_" style="enable-background:new 0 0 64 64;" version="1.1" viewBox="0 0 64 64" xml:space="preserve" xmlns="http://www.w3.org/2000/svg" xmlns:xlink="http://www.w3.org/1999/xlink"><style type="text/css">
	.st0{fill:#DEDDDF;}
	.st1{fill:#80B6F7;}
	.st2{fill:#4092F2;}
	.st3{fill:#FE6840;}
	.st4{fill:none;stroke:#000000;stroke-width:2;stroke-linejoin:round;stroke-miterlimit:10;}
	.st5{fill:#0EA8B2;}
	.st6{fill:#9B9A9E;}
	.st7{fill:#BCBBBE;}
	.st8{fill:#A8C6E2;}
	.st9{fill:#BFDBFB;}
	.st10{fill:#CC2B02;}
	.st11{fill:#9E2001;}
	.st12{fill:#FFDAAA;}
	.st13{fill:#FFB680;}
	.st14{fill:#79787D;}
	.st15{fill:#4D4C50;}
	.st16{fill:#87D3D8;}
	.st17{fill:#B89558;}
	.st18{fill:#8B7140;}
	.st19{fill:#626169;}
	.st20{fill:#FFA980;}
	.st21{fill:#FF8F5B;}
	.st22{fill:#C3E9EC;}
	.st23{fill:#A2FFF3;}
	.st24{fill:#4ABDC5;}
	.st25{fill:#007A80;}
	.st26{fill:#006DEE;}
	.st27{fill:#EB975D;}
	.st28{fill:#B25E1E;}
	.st29{fill:none;stroke:#000000;stroke-width:2;stroke-miterlimit:10;}
	.st30{fill:none;stroke:#000000;stroke-width:2;stroke-linecap:round;stroke-linejoin:round;stroke-miterlimit:10;}
	.st31{fill:#DEBB7E;}
	.st32{fill:#A2814B;}
	.st33{fill:#E6CC9F;}
	.st34{fill:#62D2F5;}
	.st35{fill:#CBF0FC;}
	.st36{fill:#004DDA;}
</style><g id="_x32_8-Medication"><g><g><path class="st17" d="M34,26c0,0,0,2,0,3c0,2-4,3-4,7c0,1,0,24,0,25s1,2,2,2h20c1,0,2-1,2-2s0-24,0-25c0-4-4-5-4-7c0-1,0-3,0-3     H34z"/><path class="st32" d="M37,61c0-1,0-24,0-25c0-4,4-5,4-7c0-1,0-3,0-3h-3c0,0,0,2,0,3c0,2-4,3-4,7c0,1,0,24,0,25s1,2,2,2h3     C38,63,37,62,37,61z"/><path class="st33" d="M48,61c0-1,0-24,0-25c0-4-4-5-4-7c0-1,0-3,0-3h3c0,0,0,2,0,3c0,2,4,3,4,7c0,1,0,24,0,25s-1,2-2,2h-3     C47,63,48,62,48,61z"/><rect class="st7" height="6" width="20" x="32" y="20"/><path class="st32" d="M50,26H34c0,0,0,2,0,3h16C50,28,50,26,50,26z"/><path class="st18" d="M41,26h-3c0,0,0,2,0,3h3C41,28,41,26,41,26z"/><path class="st17" d="M47,26h-3c0,0,0,2,0,3h3C47,28,47,26,47,26z"/><rect class="st6" height="6" transform="matrix(-1 -1.224647e-16 1.224647e-16 -1 74 46)" width="4" x="35" y="20"/><rect class="st0" height="6" transform="matrix(-1 -1.224647e-16 1.224647e-16 -1 94 46)" width="4" x="45" y="20"/><rect class="st16" height="20" width="24" x="30" y="37"/><rect class="st22" height="20" width="3" x="48" y="37"/><polygon class="st5" points="47,45 44,45 44,42 40,42 40,45 37,45 37,49 40,49 40,52 44,52 44,49 47,49    "/></g><g><rect class="st1" height="33" width="12" x="12" y="18"/><rect class="st2" height="33" width="2" x="15" y="18"/><rect class="st9" height="33" width="2" x="19" y="18"/><rect class="st34" height="22" width="12" x="12" y="29"/><rect class="st35" height="22" width="2" x="19" y="29"/><rect class="st5" height="6" width="6" x="15" y="12"/><rect class="st25" height="6" transform="matrix(-1 -1.224647e-16 1.224647e-16 -1 33 30)" width="3" x="15" y="12"/><rect class="st1" height="8" width="6" x="15" y="55"/><rect class="st2" height="3" width="6" x="15" y="55"/><rect class="st6" height="12" width="2" x="17"/><rect class="st6" height="2" width="4" x="20" y="25"/><rect class="st6" height="2" width="4" x="20" y="31"/><rect class="st6" height="2" width="4" x="20" y="37"/><rect class="st6" height="2" width="4" x="20" y="43"/><rect class="st1" height="4" width="16" x="10" y="51"/><rect class="st9" height="4" transform="matrix(-1 -1.224647e-16 1.224647e-16 -1 24 106)" width="4" x="10" y="51"/><rect class="st1" height="2" width="18" x="9" y="62"/><rect class="st2" height="2" width="3" x="9" y="62"/></g></g><g><g><path class="st4" d="M34,26c0,0,0,2,0,3c0,2-4,3-4,7c0,1,0,24,0,25s1,2,2,2h20c1,0,2-1,2-2s0-24,0-25c0-4-4-5-4-7c0-1,0-3,0-3H34     z"/><rect class="st4" height="6" width="20" x="32" y="20"/><rect class="st4" height="20" width="24" x="30" y="37"/><polygon class="st4" points="47,45 44,45 44,42 40,42 40,45 37,45 37,49 40,49 40,52 44,52 44,49 47,49    "/></g><g><rect class="st4" height="33" width="12" x="12" y="18"/><rect class="st4" height="6" width="6" x="15" y="12"/><rect class="st4" height="8" width="6" x="15" y="55"/><line class="st4" x1="18" x2="18" y1="0" y2="12"/><line class="st4" x1="20" x2="24" y1="26" y2="26"/><line class="st4" x1="20" x2="24" y1="32" y2="32"/><line class="st4" x1="20" x2="24" y1="38" y2="38"/><line class="st4" x1="20" x2="24" y1="44" y2="44"/><rect class="st4" height="4" width="16" x="10" y="51"/><line class="st4" x1="9" x2="27" y1="63" y2="63"/></g></g></g></svg>