<?xml version="1.0" encoding="utf-8"?>
<!-- Generator: Adobe Illustrator 24.1.2, SVG Export Plug-In . SVG Version: 6.00 Build 0)  -->
<svg version="1.1" id="Layer_1" xmlns="http://www.w3.org/2000/svg" xmlns:xlink="http://www.w3.org/1999/xlink" x="0px" y="0px"
	 viewBox="0 0 36 36" style="enable-background:new 0 0 36 36;" xml:space="preserve">
<style type="text/css">
	.st0{opacity:0.3;fill:#29ABE2;enable-background:new    ;}
	.st1{fill:#29ABE2;}
</style>
<g id="VK_Logo">
	<path class="st0" d="M31.3,14.5c0.2-0.5,1.3-2.4,2.2-3.9c2.2-3.6,2.8-4.7,2.8-5.1c0-0.3-0.2-0.5-0.5-0.5h-5.5
		c-0.2,0-0.4,0.2-0.5,0.4c-0.3,1.9-4.7,7.3-5.4,7.6c-0.4,0-0.6-0.7-0.6-2V5.6c0.1-0.4,0-0.9-0.3-1.2C23.1,4,22.4,4,20.7,4
		c-3.2,0-4.3,1-4.3,1.8c0,0.3,0.2,0.5,0.4,0.5l0,0c0.2,0.1,1,0.9,1,3.7c0,2.9-0.5,3-0.5,3c-1.8,0-4-4.7-5-7.7
		c-0.1-0.2-0.3-0.4-0.5-0.4h-5c-0.3,0-0.5,0.2-0.5,0.5v0.1C7,9.5,14.9,21.9,20,21.9h2.5c1.2,0,1.4-1.3,1.5-2.4s0.3-1.6,0.7-1.6
		c0.8,0,2.3,1.5,3.3,2.5s1.6,1.5,2.1,1.5h3.2c1.6,0,3,0,3-1.1c0-0.5-0.6-1.2-2.8-3.7C32.8,16.3,32,15.4,31.3,14.5z"/>
	<path class="st1" d="M20.3,23c0.2-0.5,1.1-1.7,1.7-2.7c1.9-2.8,2.3-3.4,2.3-3.8c0-0.3-0.2-0.5-0.5-0.5h-4.5c-0.2,0-0.4,0.2-0.5,0.4
		c-0.3,1.4-3.5,5.3-4,5.6c-0.2,0-0.5-0.5-0.5-1.5v-4.2c0.1-0.3,0-0.7-0.2-0.9C13.7,15,13.2,15,11.8,15c-2.6,0-3.5,0.8-3.5,1.5
		c0,0.3,0.2,0.5,0.4,0.5l0,0c0,0,0.6,0.4,0.6,2.5c0,0.8,0,1.7-0.1,2.5c-1.3-0.2-3-3.4-3.9-5.7C5.2,16.1,5,16,4.8,16h-4
		c-0.3,0-0.5,0.2-0.5,0.5v0.1c0.6,3,6.9,12.4,11,12.4h2c1.1,0,1.1-1.2,1.2-1.9s0.1-1.1,0.3-1.1c0.6,0,1.9,1.1,2.7,1.8
		s1.4,1.2,1.8,1.2h2.5c1.3,0,2.5,0,2.5-1c0-0.4-0.3-0.8-2.2-3C21.4,24.3,20.6,23.4,20.3,23z M21.8,28h-2.4c-0.4-0.3-0.8-0.6-1.2-0.9
		c-1.1-1-2.4-2.1-3.4-2.1c-1.1,0-1.2,1.2-1.3,2c0,0.3-0.1,0.9-0.2,1h-2c-3,0-8.7-7.6-9.9-11h3C5,18.5,7,23,9.2,23c1,0,1-1.4,1-3.5
		c0-1.8-0.4-2.7-0.8-3.1c0.7-0.3,1.5-0.4,2.3-0.4c0.5,0,1,0,1.5,0.1c0,0.1,0,0.1,0,0.2v4.2c0,1.5,0.6,2.5,1.5,2.5s4.2-4.2,4.9-6h3.3
		c-0.4,0.7-1.2,1.9-1.8,2.7c-1.7,2.5-1.9,3-1.9,3.3s0.3,0.7,2,2.7c0.6,0.7,1.6,1.8,1.9,2.2C22.7,28,22.3,28,21.8,28L21.8,28z"/>
</g>
</svg>
