<?xml version="1.0" encoding="utf-8"?>
<!-- Generator: Adobe Illustrator 24.1.2, SVG Export Plug-In . SVG Version: 6.00 Build 0)  -->
<svg version="1.1" id="VK_1_" xmlns="http://www.w3.org/2000/svg" xmlns:xlink="http://www.w3.org/1999/xlink" x="0px" y="0px"
	 viewBox="0 0 207 207" style="enable-background:new 0 0 207 207;" xml:space="preserve">
<style type="text/css">
	.st0{fill:#A23F97;}
	.st1{opacity:0.2;fill:#FFFFFF;enable-background:new    ;}
	.st2{fill:#FFFFFF;}
</style>
<g id="Background">
	<g id="bg_1_">
		<path class="st0" d="M24.7,67c0-4.9,3.5-10.9,7.7-13.4l62.5-36.6c4.2-2.5,11.1-2.5,15.4,0l62.5,36.6c4.2,2.5,7.7,8.5,7.7,13.4
			v73.4c0,4.9-3.5,10.9-7.7,13.4l-62.5,36.6c-4.2,2.5-11.1,2.5-15.4,0l-62.5-36.6c-4.2-2.5-7.7-8.5-7.7-13.4V67z"/>
	</g>
	<path id="bg-light" class="st1" d="M178.5,59.2c0,0-0.2-0.4-0.6-0.9c-0.3-0.5-0.7-1-1.1-1.5c-0.9-1-1.2-1.2-1.3-1.3
		c-0.5-0.4-1-0.9-1.6-1.2c-0.4-0.2-64.7-37.9-64.7-37.9s-1.1-0.6-2.1-0.9c-1-0.3-1.7-0.5-2.4-0.6s-1.7-0.2-2.4-0.2
		c-0.6,0-2.2,0.1-2.8,0.3c-0.6,0.2-1.1,0.3-1.3,0.3c-0.2,0.1-0.6,0.2-0.7,0.2c-0.2,0.1-0.9,0.4-1,0.4c0,0-0.3,0.1-0.4,0.2
		c-0.1,0.1-62.7,36.7-62.7,36.7s-2.6,1.4-3.7,2.3c-0.4,0.4-0.9,0.9-1.4,1.4c-0.6,0.6-1,1.3-1.3,1.6c-0.2,0.3-0.4,0.6-0.6,1
		c-0.3,0.5-0.5,1-0.7,1.3c-0.2,0.4-0.6,1.4-0.7,1.7s-0.3,1-0.3,1.1c0,0-0.1,0.6-0.1,0.7c0,0.1-0.1,0.5-0.1,0.8c0,0.1,0,0.5,0,0.5
		c0,0,0,76.6,0,76.6s0.1,0.9,0.1,1c0,0,0.1,0.6,0.1,0.9c0,0.2,0.1,0.5,0.2,0.7c0.1,0.2,0.1,0.5,0.2,0.6c0,0.1,0.2,0.5,0.2,0.6
		c0,0.1,0.2,0.6,0.3,0.7c0.1,0.1,0.3,0.7,0.3,0.8C26.1,147.2,178.5,59.2,178.5,59.2z"/>
</g>
<path id="VK" class="st2" d="M48.2,86.6c1.2,3.1,2.6,6,4.1,8.9c3.5,6.9,7.2,13.6,12.1,19.7c4.9,6.1,10.8,12.1,17.6,16.1
	c1.9,1.1,3.9,2,6,2.7c8.1,2.7,16.9,2.5,19.7,0.7c2.7-1.8-0.5-13.8,2-15.2c2.5-1.4,6.9,1.7,10.2,4.6c3.3,2.9,5.7,5.3,7.6,7.3
	c1.1,1.2,1.9,2.7,3.4,3.6c2.5,1.4,5.7,1.3,8.5,1.3c1.5,0,3.1,0,4.6,0c1,0,2.1,0,3.1,0c1.7-0.1,3.9-0.8,3.8-2.9
	c0-0.5-0.1-1.1-0.3-1.6c-0.4-1-1-2-1.7-2.9c-3.4-4.5-5.6-6.8-7.3-8.7c-1.7-1.8-8.7-8.4-9.1-9.7c-0.5-1.3-0.6-1.9,0.7-3.6
	c1.3-1.8,4.1-6.2,6.3-9.4c1.4-2,2.6-4.1,3.9-6.2c1.5-2.5,2.9-5,4-7.6c0.5-1.2,1-2.2,0.7-3.5c-0.2-0.9-0.7-1.7-1.6-1.9
	c-0.5-0.1-1.1-0.1-1.6-0.1c-1.9,0-6.9,0-6.9,0c-0.9,0-1.8,0-2.7,0c-0.9,0-1.9,0-2.8,0.1c-1.3,0.1-2.1,1.1-2.8,2.2
	c-0.8,1.3-1.5,2.6-2.3,3.8c-0.5,0.9-1.1,1.7-1.6,2.6c-0.8,1.4-1.6,2.7-2.5,4.1c-0.3,0.6-0.7,1.1-1,1.7c-1,1.6-9.4,12.8-11.1,13.2
	c-1.7,0.5-2.3,0.3-2.3-3.1c0-3.5,0-23,0-23s-0.1-1.5-1.6-1.5c-1.4,0-8.1,0-8.1,0H85.3c0,0-3.2,0-2.1,2.9c1.1,2.9,4.5,3.8,4.5,8.6
	c0,4.8,0,18.9,0,18.9s-0.6,4.2-4.2,0.7c-2.9-2.8-5.3-6-7.4-9.4c-2.2-3.5-4-7.2-5.5-11c-0.5-1.1-0.9-2.2-1.4-3.3
	c-0.5-1.1-1-2.3-1.4-3.4c-0.5-1.3-1.1-3.1-2.6-3.7C64.5,78,63.7,78,62.9,78c-2.9,0-5.8,0-8.6,0c-0.8,0-1.7,0-2.5,0
	c-2,0-4.5-0.1-5,2.4c-0.3,1.4,0.3,3,0.7,4.3C47.7,85.4,48,86,48.2,86.6z"/>
</svg>
