<?xml version="1.0" ?><svg viewBox="0 0 32 32" xmlns="http://www.w3.org/2000/svg"><defs><style>.cls-1{fill:#e291a8;}.cls-2{fill:#dd2853;}</style></defs><title/><g data-name="Layer 14" id="Layer_14"><path class="cls-1" d="M21.29,3.58,16.29,2a1.14,1.14,0,0,0-.58,0l-5,1.54a1,1,0,0,0-.71,1V13a1,1,0,0,0,1,1H21a1,1,0,0,0,1-1V4.54A1,1,0,0,0,21.29,3.58Z"/><path class="cls-2" d="M25,8H21a1,1,0,0,0-1,1v3H12V9a1,1,0,0,0-1-1H7A1,1,0,0,0,6,9V29a1,1,0,0,0,1,1H25a1,1,0,0,0,1-1V9A1,1,0,0,0,25,8Z"/><path class="cls-2" d="M29.29,6l-13-4a1.14,1.14,0,0,0-.58,0l-13,4A1,1,0,1,0,3.29,8L16,4.05,28.71,8A.92.92,0,0,0,29,8a1,1,0,0,0,.29-2Z"/><path class="cls-2" d="M18,7H17V6a1,1,0,0,0-2,0V7H14a1,1,0,0,0,0,2h1v1a1,1,0,0,0,2,0V9h1a1,1,0,0,0,0-2Z"/><rect class="cls-1" height="10" rx="1" ry="1" width="10" x="11" y="20"/><rect class="cls-1" height="15" rx="1" ry="1" width="6" x="2" y="15"/><rect class="cls-1" height="15" rx="1" ry="1" width="6" x="24" y="15"/></g></svg>