<?xml version="1.0" ?><svg data-name="Слой 1" id="Слой_1" viewBox="0 0 128 128" xmlns="http://www.w3.org/2000/svg"><defs><style>.cls-1{fill:#bbdefb;}.cls-2{fill:#424242;}</style></defs><title/><circle class="cls-1" cx="64" cy="64" r="62"/><path class="cls-2" d="M64,128a64,64,0,1,1,64-64A64.07,64.07,0,0,1,64,128ZM64,4a60,60,0,1,0,60,60A60.07,60.07,0,0,0,64,4Z"/><path class="cls-2" d="M65.33,98A34,34,0,1,1,89.09,39.68a2,2,0,1,1-2.79,2.86A30,30,0,1,0,86,85.74a2,2,0,1,1,2.76,2.9A33.85,33.85,0,0,1,65.33,98Z"/></svg>