<?xml version="1.0" ?><svg enable-background="new 0 0 512 512" id="Layer_1" version="1.1" viewBox="0 0 512 512" xml:space="preserve" xmlns="http://www.w3.org/2000/svg" xmlns:xlink="http://www.w3.org/1999/xlink"><g><g><linearGradient gradientUnits="userSpaceOnUse" id="SVGID_1_" x1="-0.0000027" x2="512" y1="256" y2="256"><stop offset="0" style="stop-color:#33B49D"/><stop offset="1" style="stop-color:#00A185"/></linearGradient><circle cx="256" cy="256" fill="url(#SVGID_1_)" r="256"/><linearGradient gradientUnits="userSpaceOnUse" id="SVGID_2_" x1="42.6666641" x2="469.3333435" y1="256.0005188" y2="256.0005188"><stop offset="0" style="stop-color:#00A185"/><stop offset="1" style="stop-color:#33B49D"/></linearGradient><path d="M256,469.3338623c-117.6314697,0-213.3333435-95.7023926-213.3333435-213.3333435    c0-117.6314545,95.7018661-213.333313,213.3333435-213.333313c117.636261,0,213.3333435,95.7018661,213.3333435,213.333313    C469.3333435,373.6314697,373.636261,469.3338623,256,469.3338623z" fill="url(#SVGID_2_)"/></g><g><polygon opacity="0.3" points="235.4538116,188.4666595 225.4538116,188.4666595 225.4538116,225.4544067     188.4668732,225.4544067 188.4668732,235.4544067 225.4538116,235.4544067 225.4538116,272.4415894 235.4538116,272.4415894     235.4538116,235.4544067 272.4412231,235.4544067 272.4412231,225.4544067 235.4538116,225.4544067   "/><path d="M378.4362793,351.5711975l-74.9450684-74.9450684    c21.1642456-33.4191895,17.2362671-78.1626587-11.9050293-107.3045349    c-33.7624512-33.7621307-88.5018616-33.7621307-122.2640533,0c-33.7626648,33.7631989-33.7626648,88.5029297,0,122.2655945    c29.1412354,29.1402893,73.8841553,33.0682678,107.3035736,11.9040222l74.9449768,74.9450684    c7.4186707,7.4181213,19.4463806,7.4181213,26.8656006,0C385.8544006,371.0181274,385.8544006,358.9888,378.4362793,351.5711975z     M229.8092804,298.4031982c-37.822403,0-68.593811-30.7717285-68.593811-68.5935974    c0-37.822403,30.7714081-68.5935974,68.593811-68.5935974c37.8229828,0,68.5939178,30.7711945,68.5939178,68.5935974    C298.4031982,267.6314697,267.6322632,298.4031982,229.8092804,298.4031982z" opacity="0.3"/></g><g><polygon fill="#FFFFFF" points="227.4538116,180.4666595 217.4538116,180.4666595 217.4538116,217.4544067     180.4666595,217.4544067 180.4666595,227.4544067 217.4538116,227.4544067 217.4538116,264.4415894 227.4538116,264.4415894     227.4538116,227.4544067 264.4412231,227.4544067 264.4412231,217.4544067 227.4538116,217.4544067   "/><path d="M370.4362793,343.5711975l-74.9450684-74.9450684    c21.1642456-33.4191895,17.2362671-78.1626587-11.9050293-107.3045349    c-33.7624512-33.7621307-88.5018616-33.7621307-122.2640533,0c-33.7626648,33.7631989-33.7626648,88.5029449,0,122.2655945    c29.1412354,29.1402893,73.8841705,33.0682678,107.3035736,11.9040222l74.9449768,74.9450684    c7.4186707,7.4181213,19.4463806,7.4181213,26.8656006,0C377.8544006,363.0181274,377.8544006,350.9888,370.4362793,343.5711975z     M221.8092804,290.4031982c-37.8226166,0-68.593811-30.7717285-68.593811-68.5935974    c0-37.822403,30.7711945-68.5935974,68.593811-68.5935974c37.8229828,0,68.5939178,30.7711945,68.5939178,68.5935974    C290.4031982,259.6314697,259.6322632,290.4031982,221.8092804,290.4031982z" fill="#FFFFFF"/></g></g></svg>