<?xml version="1.0" ?><svg id="Filled" viewBox="0 0 64 64" xmlns="http://www.w3.org/2000/svg"><title/><path d="M56,39V35H48v4h0a4,4,0,0,0-4,4V56a3,3,0,0,0,3,3H57a3,3,0,0,0,3-3V43a4,4,0,0,0-4-4Z" style="fill:#a4ede6;stroke:#000;stroke-linecap:round;stroke-linejoin:round;stroke-width:2px"/><rect height="5" rx="1" style="fill:#e1f9f7;stroke:#000;stroke-linecap:round;stroke-linejoin:round;stroke-width:2px" width="12" x="46" y="30"/><rect height="8" style="fill:#fc3a52;stroke:#000;stroke-linecap:round;stroke-linejoin:round;stroke-width:2px" width="16" x="44" y="45"/><line style="fill:none;stroke:#000;stroke-linecap:round;stroke-linejoin:round;stroke-width:2px" x1="48" x2="56" y1="49" y2="49"/><path d="M36,39V35H28v4h0a4,4,0,0,0-4,4V56a3,3,0,0,0,3,3H37a3,3,0,0,0,3-3V43a4,4,0,0,0-4-4Z" style="fill:#a4ede6;stroke:#000;stroke-linecap:round;stroke-linejoin:round;stroke-width:2px"/><rect height="5" rx="1" style="fill:#e1f9f7;stroke:#000;stroke-linecap:round;stroke-linejoin:round;stroke-width:2px" width="12" x="26" y="30"/><rect height="8" style="fill:#fc3a52;stroke:#000;stroke-linecap:round;stroke-linejoin:round;stroke-width:2px" width="16" x="24" y="45"/><line style="fill:none;stroke:#000;stroke-linecap:round;stroke-linejoin:round;stroke-width:2px" x1="28" x2="36" y1="49" y2="49"/><path d="M16,39V35H8v4H8a4,4,0,0,0-4,4V56a3,3,0,0,0,3,3H17a3,3,0,0,0,3-3V43a4,4,0,0,0-4-4Z" style="fill:#a4ede6;stroke:#000;stroke-linecap:round;stroke-linejoin:round;stroke-width:2px"/><rect height="5" rx="1" style="fill:#e1f9f7;stroke:#000;stroke-linecap:round;stroke-linejoin:round;stroke-width:2px" width="12" x="6" y="30"/><rect height="8" style="fill:#fc3a52;stroke:#000;stroke-linecap:round;stroke-linejoin:round;stroke-width:2px" width="16" x="4" y="45"/><line style="fill:none;stroke:#000;stroke-linecap:round;stroke-linejoin:round;stroke-width:2px" x1="8" x2="16" y1="49" y2="49"/><path d="M21,8H44a0,0,0,0,1,0,0V20a0,0,0,0,1,0,0H21a3,3,0,0,1-3-3V11A3,3,0,0,1,21,8Z" style="fill:#a4ede6;stroke:#000;stroke-linecap:round;stroke-linejoin:round;stroke-width:2px"/><rect height="12" style="fill:#baebe5;stroke:#000;stroke-linecap:round;stroke-linejoin:round;stroke-width:2px" width="7" x="37" y="8"/><rect height="6" style="fill:#baebe5;stroke:#000;stroke-linecap:round;stroke-linejoin:round;stroke-width:2px" width="4" x="14" y="11"/><line style="fill:none;stroke:#000;stroke-linecap:round;stroke-linejoin:round;stroke-width:2px" x1="4" x2="14" y1="14" y2="14"/><rect height="18" style="fill:#e1f9f7;stroke:#000;stroke-linecap:round;stroke-linejoin:round;stroke-width:2px" width="4" x="44" y="5"/><rect height="12" style="fill:#e1f9f7;stroke:#000;stroke-linecap:round;stroke-linejoin:round;stroke-width:2px" width="3" x="57" y="8"/><rect height="5" style="fill:#d6f4f0;stroke:#000;stroke-linecap:round;stroke-linejoin:round;stroke-width:2px" width="9" x="48" y="11.5"/><rect height="5" style="fill:#d6f4f0;stroke:#000;stroke-linecap:round;stroke-linejoin:round;stroke-width:2px" width="7" x="37" y="11.5"/><line style="fill:none;stroke:#000;stroke-linecap:round;stroke-linejoin:round;stroke-width:2px" x1="23" x2="23" y1="8" y2="11"/><line style="fill:none;stroke:#000;stroke-linecap:round;stroke-linejoin:round;stroke-width:2px" x1="28" x2="28" y1="8" y2="11"/><line style="fill:none;stroke:#000;stroke-linecap:round;stroke-linejoin:round;stroke-width:2px" x1="33" x2="33" y1="8" y2="11"/></svg>