<?xml version="1.0" ?><!DOCTYPE svg  PUBLIC '-//W3C//DTD SVG 1.1//EN'  'http://www.w3.org/Graphics/SVG/1.1/DTD/svg11.dtd'><svg enable-background="new 0 0 1024 1024" height="1024px" id="VK_1_" version="1.1" viewBox="0 0 1024 1024" width="1024px" xml:space="preserve" xmlns="http://www.w3.org/2000/svg" xmlns:xlink="http://www.w3.org/1999/xlink"><g id="Background"><g id="bg_1_"><path d="M75.094,306.009c0-27.5,19.413-61.375,43.14-75.277L468.861,25.286c23.727-13.902,62.553-13.902,86.28,0    l350.625,205.445c23.729,13.902,43.141,47.777,43.141,75.277v412c0,27.5-19.412,61.375-43.141,75.277L555.141,998.731    c-23.727,13.901-62.553,13.901-86.28,0L118.234,793.286c-23.727-13.902-43.14-47.777-43.14-75.277V306.009z" fill="#4C75A3"/></g><path d="M938.092,262.262c0,0-1.043-2.021-3.287-5.308   c-1.818-2.664-3.744-5.561-6.111-8.186c-5-5.546-6.697-6.941-7.377-7.551c-2.637-2.355-5.848-4.801-8.945-6.617   c-2.26-1.325-362.889-212.631-362.889-212.631s-6.123-3.544-11.67-5.321c-5.547-1.778-9.457-2.56-13.51-3.129   s-9.672-0.854-13.298-0.854c-3.626,0-12.089,0.711-15.716,1.565c-3.626,0.853-6.275,1.511-7.235,1.831s-3.173,1.093-4.08,1.387   c-0.905,0.293-5.093,2.16-5.333,2.293c-0.239,0.133-1.643,0.776-2.431,1.238c-0.789,0.462-351.617,206.025-351.617,206.025   s-14.797,8.097-20.628,13.074c-2.497,2.131-5.266,4.867-7.658,7.582c-3.196,3.627-5.807,7.203-7.026,9.093   c-0.923,1.43-2.28,3.533-3.494,5.707c-1.577,2.825-3.032,5.837-3.667,7.147c-1.162,2.398-3.293,8.053-3.827,9.76   s-1.547,5.534-1.707,6.436c-0.042,0.234-0.693,3.521-0.747,3.911c-0.053,0.391-0.44,2.92-0.533,4.267   c-0.033,0.48-0.211,2.897-0.212,2.969c-0.001,0.072-0.001,429.511-0.001,429.511s0.349,5.079,0.427,5.635   c0.028,0.203,0.453,3.433,0.782,4.836c0.213,0.91,0.64,2.987,0.924,3.982c0.284,0.995,0.729,2.636,0.96,3.342   c0.213,0.653,0.96,2.917,1.209,3.591c0.249,0.675,1.25,3.248,1.529,3.912c0.286,0.68,1.813,4.018,1.92,4.23   C82.951,756.204,938.092,262.262,938.092,262.262z" enable-background="new    " fill="#FFFFFF" id="bg-light" opacity="0.2"/></g><path d="M206.937,415.862c6.57,17.151,14.67,33.69,23.029,50.023  c19.863,38.812,40.318,76.521,67.744,110.633c27.716,34.472,60.438,67.878,98.983,90.177c10.722,6.202,21.99,11.436,33.729,15.412  c45.294,15.342,94.972,13.881,110.314,3.652s-2.922-77.439,10.959-85.476c13.879-8.037,38.719,9.498,56.982,25.569  c18.264,16.072,32.145,29.952,42.373,40.911c6.404,6.862,10.914,15.054,19.264,19.947c13.813,8.096,32.217,7.198,47.623,7.241  c8.59,0.025,17.18,0.053,25.77-0.054c5.805-0.072,11.613,0.115,17.414-0.165c9.533-0.462,22-4.227,21.283-16.151  c-0.168-2.819-0.793-6.192-1.914-8.794c-2.408-5.593-5.801-11.399-9.447-16.271c-18.994-25.386-31.596-38.354-41.092-48.582  c-9.498-10.228-48.582-47.12-51.139-54.427c-2.559-7.305-3.379-10.547,3.879-20.41c7.262-9.862,23.15-34.747,35.57-52.646  c7.789-11.227,14.865-22.963,21.855-34.695c8.242-13.833,15.994-28.001,22.602-42.692c2.955-6.568,5.635-12.554,3.807-19.914  c-1.227-4.932-4-9.264-9.166-10.481c-2.818-0.664-5.896-0.731-8.779-0.731c-10.775,0-38.904,0-38.904,0  c-5.084,0-10.168-0.074-15.254-0.064c-5.213,0.009-10.467-0.032-15.666,0.414c-7.395,0.633-11.928,6.336-15.646,12.086  c-4.551,7.035-8.693,14.355-13.107,21.48c-3.018,4.868-5.973,9.775-8.873,14.714c-4.531,7.713-9.203,15.346-13.873,22.977  c-1.938,3.167-3.883,6.328-5.793,9.512c-5.479,9.132-52.965,71.595-62.461,74.151c-9.498,2.558-12.785,1.827-12.785-17.533  c0-19.358,0-129.308,0-129.308s-0.73-8.478-8.766-8.478c-8.037,0-45.311,0-45.311,0h-76.877c0,0-18.082,0.075-11.688,16.331  c6.393,16.255,25.296,21.187,25.296,48.309s0,106.296,0,106.296s-3.196,23.834-23.834,4.109  c-16.263-15.544-29.663-33.922-41.503-52.977c-12.31-19.81-22.228-40.391-31.063-61.953c-2.526-6.167-5.027-12.344-7.623-18.482  c-2.709-6.408-5.393-12.826-7.99-19.279c-3.018-7.496-6.244-17.293-14.377-20.743c-4.089-1.735-8.611-1.65-12.971-1.648  c-16.165,0.004-32.328,0.049-48.493,0.019c-4.743-0.009-9.486-0.013-14.229-0.002c-11.198,0.026-25.126-0.304-27.783,13.686  c-1.531,8.058,1.513,16.66,4.06,24.207C204.221,409.191,205.645,412.489,206.937,415.862z" fill="#FFFFFF" id="VK"/></svg>