<?xml version="1.0" ?><svg id="Layer_1" style="enable-background:new 0 0 468.001 468.001;" version="1.1" viewBox="0 0 468.001 468.001" xml:space="preserve" xmlns="http://www.w3.org/2000/svg" xmlns:xlink="http://www.w3.org/1999/xlink"><g><g><g><g><rect height="49.085" style="fill:#29B6F6;" width="252.495" x="96" y="399.907"/><rect height="49.085" style="fill:#00AAE5;" width="20" x="96" y="399.907"/><path d="M348.496,453.992H96c-2.761,0-5-2.238-5-5v-49.085c0-2.762,2.239-5,5-5h252.495      c2.762,0,5,2.238,5,5v49.085C353.496,451.754,351.257,453.992,348.496,453.992z M101,443.992h242.495v-39.085H101V443.992z" style="fill:#333333;"/></g><g><rect height="51.024" style="fill:#E0E0E0;" width="211.177" x="116.659" y="348.883"/><rect height="51.024" style="fill:#C9C9C9;" width="20" x="116.659" y="348.883"/><path d="M327.836,404.907H116.659c-2.761,0-5-2.238-5-5v-51.024c0-2.762,2.239-5,5-5h211.177      c2.762,0,5,2.238,5,5v51.024C332.836,402.669,330.598,404.907,327.836,404.907z M121.659,394.907h201.177v-41.024H121.659      V394.907z" style="fill:#333333;"/></g><path d="M135.573,468.001c-2.761,0-5-2.238-5-5v-14.009c0-2.762,2.239-5,5-5s5,2.238,5,5v14.009     C140.573,465.763,138.334,468.001,135.573,468.001z" style="fill:#333333;"/><path d="M308.922,468.001c-2.762,0-5-2.238-5-5v-14.009c0-2.762,2.238-5,5-5s5,2.238,5,5v14.009     C313.922,465.763,311.684,468.001,308.922,468.001z" style="fill:#333333;"/></g><g><path d="M243.916,366.147v-34.528c51.508,0,93.414-41.734,93.414-93.032s-41.906-93.032-93.414-93.032     v-34.528c70.626,0,128.084,57.223,128.084,127.56S314.543,366.147,243.916,366.147z" style="fill:#29B6F6;"/><path d="M243.917,111.027v0.765C307.98,118.76,358,172.961,358,238.587s-50.02,119.827-114.084,126.795     v0.765c70.626,0,128.084-57.223,128.084-127.56S314.543,111.027,243.917,111.027z" style="fill:#00AAE5;"/><path d="M243.917,371.147c-2.762,0-5-2.238-5-5v-34.528c0-2.762,2.238-5,5-5     c48.752,0,88.414-39.491,88.414-88.032s-39.662-88.032-88.414-88.032c-2.762,0-5-2.238-5-5v-34.527c0-2.762,2.238-5,5-5     c73.383,0,133.084,59.466,133.084,132.56S317.299,371.147,243.917,371.147z M248.917,336.494v24.554     C314.478,358.429,367,304.501,367,238.587c0-65.913-52.522-119.841-118.084-122.46v24.553     c51.953,2.602,93.414,45.521,93.414,97.907S300.87,333.893,248.917,336.494z" style="fill:#333333;"/></g><g><rect height="45.311" style="fill:#E0E0E0;" width="43.337" x="200.579" y="301.279"/><rect height="45.311" style="fill:#C9C9C9;" width="18" x="200.579" y="301.279"/><path d="M243.917,351.59h-43.337c-2.761,0-5-2.238-5-5v-45.311c0-2.762,2.239-5,5-5h43.337     c2.762,0,5,2.238,5,5v45.311C248.917,349.352,246.678,351.59,243.917,351.59z M205.579,341.59h33.337v-35.311h-33.337V341.59z" style="fill:#333333;"/><path d="M293.471,306.279H151.025c-2.761,0-5-2.238-5-5s2.239-5,5-5h142.446c2.762,0,5,2.238,5,5     S296.233,306.279,293.471,306.279z" style="fill:#333333;"/><path d="M275.042,283.163H169.454c-2.761,0-5-2.238-5-5s2.239-5,5-5h105.589c2.762,0,5,2.238,5,5     S277.804,283.163,275.042,283.163z" style="fill:#333333;"/></g><g><ellipse cx="222.248" cy="348.883" rx="27.086" ry="26.975" style="fill:#EDEDED;"/><path d="M222.248,321.908c-10.073,0-18.854,5.48-23.521,13.605c3.98-2.289,8.595-3.605,13.521-3.605     c14.959,0,27.086,12.077,27.086,26.975c0,4.867-1.301,9.428-3.565,13.37c8.106-4.662,13.565-13.378,13.565-23.37     C249.334,333.985,237.207,321.908,222.248,321.908z" style="fill:#E0E0E0;"/><path d="M222.248,380.858c-17.692,0-32.086-14.344-32.086-31.976c0-17.631,14.394-31.975,32.086-31.975     c17.692,0,32.085,14.344,32.085,31.975C254.334,366.515,239.94,380.858,222.248,380.858z M222.248,326.908     c-12.178,0-22.086,9.857-22.086,21.975s9.908,21.976,22.086,21.976c12.178,0,22.085-9.858,22.085-21.976     S234.426,326.908,222.248,326.908z" style="fill:#333333;"/></g><g><g><g><path d="M251.459,231.389l-7.505,2.003c-3.468,0.925-7.032-1.124-7.962-4.578l-13.173-48.963       l20.063-5.354l13.173,48.963C256.985,226.913,254.927,230.463,251.459,231.389z" style="fill:#91D3E2;"/><path d="M242.275,238.613c-5.076,0-9.735-3.384-11.111-8.502l-13.173-48.962       c-0.345-1.282-0.166-2.648,0.498-3.799s1.758-1.988,3.041-2.331l20.063-5.354c2.663-0.712,5.401,0.869,6.117,3.532       l13.173,48.963c0.796,2.956,0.392,6.046-1.141,8.7c-1.536,2.661-4.02,4.564-6.995,5.358l0,0l-7.505,2.003       C244.251,238.487,243.255,238.613,242.275,238.613z M228.949,183.39l11.872,44.125c0.213,0.792,1.035,1.259,1.843,1.046       l7.506-2.003c0.499-0.133,0.771-0.452,0.912-0.695c0.138-0.238,0.274-0.623,0.146-1.103l-11.877-44.146L228.949,183.39z" style="fill:#333333;"/></g><g><path d="M182.448,191.708l2.011,7.474c0.929,3.454,4.494,5.503,7.962,4.578l49.164-13.12l-5.376-19.981       l-49.164,13.12C183.577,184.705,181.519,188.255,182.448,191.708z" style="fill:#91D3E2;"/><path d="M190.744,208.982c-5.077,0-9.737-3.385-11.113-8.501l-2.011-7.475       c-0.796-2.957-0.391-6.047,1.141-8.7c1.537-2.661,4.02-4.564,6.994-5.358l49.164-13.119c2.662-0.713,5.4,0.869,6.117,3.532       l5.376,19.98c0.345,1.282,0.166,2.648-0.498,3.799s-1.758,1.988-3.041,2.331l-49.164,13.12       C192.72,208.855,191.724,208.981,190.744,208.982z M232.677,176.777l-44.343,11.833c-0.525,0.14-0.797,0.496-0.912,0.696       c-0.138,0.238-0.274,0.623-0.146,1.103l0,0l2.011,7.475c0.213,0.791,1.04,1.259,1.846,1.046l44.322-11.828L232.677,176.777z" style="fill:#333333;"/></g><g><path d="M209.466,233.096l-7.506-4.316c-3.109-1.788-4.174-5.747-2.379-8.844l25.449-43.899       l18.766,10.79l-25.449,43.899C216.551,233.823,212.575,234.884,209.466,233.096z" style="fill:#FFFFFF;"/><path d="M212.695,238.96c-1.947,0-3.918-0.493-5.722-1.53l0,0.001l-7.506-4.315       c-2.667-1.534-4.574-4.013-5.368-6.979c-0.793-2.961-0.383-6.054,1.155-8.707l25.449-43.898       c1.381-2.383,4.43-3.199,6.818-1.827l18.766,10.79c1.152,0.663,1.993,1.757,2.338,3.041c0.344,1.284,0.162,2.651-0.505,3.802       l-25.449,43.898C220.543,236.905,216.67,238.96,212.695,238.96z M226.856,182.856l-22.95,39.588       c-0.25,0.432-0.218,0.839-0.147,1.104c0.072,0.269,0.251,0.643,0.694,0.897l7.505,4.314c0,0,0,0,0,0.001       c0.722,0.413,1.647,0.172,2.062-0.543l22.932-39.558L226.856,182.856z" style="fill:#333333;"/></g></g><g><g><polygon points="269.623,178.36 219.175,149.353 271.881,58.437 322.329,87.444      " style="fill:#E0E0E0;"/><polygon points="285.797,66.439 271.881,58.437 219.175,149.353 232.403,156.959      " style="fill:#C9C9C9;"/><path d="M269.619,183.36c-0.846,0-1.702-0.215-2.487-0.666l-50.449-29.007       c-1.152-0.663-1.994-1.757-2.337-3.041c-0.344-1.283-0.163-2.651,0.504-3.802l52.705-90.916       c1.383-2.383,4.431-3.199,6.818-1.827l50.448,29.008c1.152,0.663,1.993,1.757,2.338,3.041c0.344,1.284,0.162,2.651-0.504,3.802       l-52.706,90.915C273.022,182.466,271.344,183.36,269.619,183.36z M226.017,147.52l41.779,24.021l47.69-82.264l-41.779-24.022       L226.017,147.52z" style="fill:#333333;"/></g><g><polygon points="314.363,82.864 279.846,63.017 300.819,26.839 335.337,46.686      " style="fill:#29B6F6;"/><polygon points="314.319,34.601 300.819,26.839 279.846,63.017 293.346,70.779      " style="fill:#00AAE5;"/><path d="M314.359,87.865c-0.846,0-1.702-0.215-2.487-0.666l-34.518-19.848       c-1.152-0.663-1.993-1.757-2.338-3.041c-0.344-1.284-0.162-2.651,0.504-3.802l20.973-36.178       c1.382-2.383,4.43-3.199,6.818-1.827l34.518,19.848c1.152,0.663,1.993,1.757,2.338,3.041c0.344,1.284,0.162,2.651-0.504,3.802       L318.69,85.372C317.762,86.971,316.084,87.865,314.359,87.865z M286.688,61.184l25.849,14.862l15.958-27.526l-25.849-14.862       L286.688,61.184z" style="fill:#333333;"/></g><g><polygon points="250.423,203.098 207.263,178.281 222.819,151.448 265.979,176.265      " style="fill:#29B6F6;"/><polygon points="237.786,160.054 222.819,151.448 207.263,178.281 222.23,186.887      " style="fill:#00AAE5;"/><path d="M250.418,208.1c-0.846,0-1.702-0.215-2.487-0.666l-43.161-24.817       c-1.152-0.663-1.994-1.757-2.337-3.041c-0.344-1.284-0.163-2.651,0.504-3.802l15.556-26.834       c1.381-2.383,4.431-3.199,6.818-1.827l43.161,24.817c1.152,0.663,1.993,1.757,2.338,3.041c0.344,1.283,0.162,2.651-0.504,3.802       l-15.556,26.834C253.822,207.205,252.144,208.1,250.418,208.1z M214.105,176.448l34.491,19.832l10.541-18.183l-34.492-19.832       L214.105,176.448z" style="fill:#333333;"/></g><path d="M318.073,41.764c-0.851,0-1.714-0.218-2.503-0.676c-2.389-1.385-3.203-4.444-1.817-6.833      l18.413-31.762c1.385-2.388,4.445-3.204,6.833-1.817c2.389,1.385,3.203,4.444,1.817,6.833l-18.413,31.762      C321.476,40.87,319.797,41.764,318.073,41.764z" style="fill:#333333;"/></g></g><g><ellipse cx="293.646" cy="139.978" rx="27.086" ry="26.975" style="fill:#EDEDED;"/><path d="M293.646,113.003c-10.073,0-18.854,5.48-23.521,13.605c3.98-2.289,8.595-3.605,13.521-3.605     c14.959,0,27.086,12.077,27.086,26.975c0,4.866-1.301,9.428-3.565,13.37c8.106-4.662,13.565-13.378,13.565-23.37     C320.732,125.08,308.605,113.003,293.646,113.003z" style="fill:#E0E0E0;"/><path d="M293.646,171.953c-17.691,0-32.085-14.344-32.085-31.975c0-17.632,14.394-31.976,32.085-31.976     c17.692,0,32.086,14.344,32.086,31.976C325.732,157.609,311.338,171.953,293.646,171.953z M293.646,118.003     c-12.178,0-22.085,9.858-22.085,21.976s9.907,21.975,22.085,21.975c12.179,0,22.086-9.857,22.086-21.975     S305.825,118.003,293.646,118.003z" style="fill:#333333;"/></g></g><g><g><g><circle cx="130.001" cy="70.001" r="39.801" style="fill:#9CCC65;"/><path d="M105.2,70.001c0-19.416,13.906-35.576,32.3-39.085c-2.43-0.464-4.935-0.716-7.5-0.716      c-21.981,0-39.8,17.819-39.8,39.801s17.819,39.801,39.8,39.801c2.565,0,5.07-0.252,7.5-0.716      C119.107,105.577,105.2,89.417,105.2,70.001z" style="fill:#88AD57;"/><path d="M130.001,114.802c-24.703,0-44.8-20.098-44.8-44.801s20.097-44.801,44.8-44.801      s44.8,20.098,44.8,44.801S154.704,114.802,130.001,114.802z M130.001,35.2c-19.189,0-34.8,15.611-34.8,34.801      s15.611,34.801,34.8,34.801s34.8-15.611,34.8-34.801S149.189,35.2,130.001,35.2z" style="fill:#333333;"/></g><circle cx="116.777" cy="62.933" r="10.947" style="fill:#383838;"/><circle cx="131.67" cy="88.954" r="7" style="fill:#383838;"/><circle cx="149.44" cy="67.773" r="5.385" style="fill:#383838;"/></g><g><g><line style="fill:#FFFFFF;" x1="130.001" x2="130.001" y1="30.2" y2="9.529"/><path d="M130.001,35.2c-2.761,0-5-2.238-5-5V9.529c0-2.762,2.239-5,5-5c2.761,0,5,2.238,5,5V30.2      C135.001,32.962,132.762,35.2,130.001,35.2z" style="fill:#333333;"/></g><circle cx="130.001" cy="9.529" r="9.528" style="fill:#383838;"/></g><g><g><line style="fill:#FFFFFF;" x1="101.857" x2="87.24" y1="41.858" y2="27.241"/><path d="M101.857,46.857c-1.28,0-2.559-0.488-3.536-1.464L83.705,30.777      c-1.953-1.953-1.953-5.119,0-7.071c1.952-1.953,5.118-1.952,7.071-0.001l14.617,14.616c1.953,1.953,1.953,5.119,0,7.071      C104.417,46.369,103.137,46.857,101.857,46.857z" style="fill:#333333;"/></g><circle cx="87.24" cy="27.241" r="9.528" style="fill:#383838;"/></g><g><g><line style="fill:#FFFFFF;" x1="90.2" x2="69.529" y1="70.001" y2="70.001"/><path d="M90.2,75.001H69.528c-2.761,0-5-2.238-5-5s2.239-5,5-5H90.2c2.761,0,5,2.238,5,5      S92.961,75.001,90.2,75.001z" style="fill:#333333;"/></g><circle cx="69.529" cy="70.001" r="9.528" style="fill:#383838;"/></g><g><g><line style="fill:#FFFFFF;" x1="101.857" x2="87.24" y1="98.144" y2="112.761"/><path d="M87.24,117.761c-1.28,0-2.559-0.488-3.536-1.465c-1.953-1.952-1.953-5.118,0-7.071l14.617-14.616      c1.954-1.951,5.119-1.951,7.071,0.001s1.953,5.118,0,7.071l-14.617,14.616C89.799,117.272,88.52,117.761,87.24,117.761z" style="fill:#333333;"/></g><circle cx="87.24" cy="112.761" r="9.528" style="fill:#383838;"/></g><g><g><line style="fill:#FFFFFF;" x1="130.001" x2="130.001" y1="109.802" y2="130.473"/><path d="M130.001,135.473c-2.761,0-5-2.238-5-5v-20.671c0-2.762,2.239-5,5-5c2.761,0,5,2.238,5,5v20.671      C135.001,133.234,132.762,135.473,130.001,135.473z" style="fill:#333333;"/></g><circle cx="130.001" cy="130.473" r="9.528" style="fill:#383838;"/></g><g><g><line style="fill:#FFFFFF;" x1="158.144" x2="172.761" y1="98.144" y2="112.761"/><path d="M172.761,117.761c-1.28,0-2.559-0.488-3.536-1.464l-14.617-14.616      c-1.953-1.953-1.953-5.119,0-7.071c1.952-1.953,5.118-1.952,7.071-0.001l14.617,14.616c1.953,1.953,1.953,5.119,0,7.071      C175.32,117.272,174.041,117.761,172.761,117.761z" style="fill:#333333;"/></g><circle cx="172.761" cy="112.761" r="9.528" style="fill:#383838;"/></g><g><g><line style="fill:#FFFFFF;" x1="169.801" x2="190.472" y1="70.001" y2="70.001"/><path d="M190.473,75.001h-20.672c-2.761,0-5-2.238-5-5s2.239-5,5-5h20.672c2.761,0,5,2.238,5,5      S193.234,75.001,190.473,75.001z" style="fill:#333333;"/></g><circle cx="190.472" cy="70.001" r="9.528" style="fill:#383838;"/></g><g><g><line style="fill:#FFFFFF;" x1="158.144" x2="172.761" y1="41.858" y2="27.241"/><path d="M158.144,46.857c-1.28,0-2.559-0.488-3.536-1.465c-1.953-1.952-1.953-5.118,0-7.071      l14.617-14.616c1.954-1.951,5.119-1.951,7.071,0.001c1.953,1.952,1.953,5.118,0,7.071l-14.617,14.616      C160.703,46.369,159.423,46.857,158.144,46.857z" style="fill:#333333;"/></g><circle cx="172.761" cy="27.241" r="9.528" style="fill:#383838;"/></g></g><g><g><g><circle cx="70" cy="270.001" r="39.801" style="fill:#ED4848;"/><path d="M45.2,270.001c0-19.416,13.906-35.576,32.3-39.085c-2.43-0.464-4.935-0.716-7.5-0.716      c-21.981,0-39.8,17.819-39.8,39.801s17.819,39.801,39.8,39.801c2.565,0,5.07-0.252,7.5-0.716      C59.107,305.577,45.2,289.417,45.2,270.001z" style="fill:#CC4040;"/><path d="M70,314.802c-24.703,0-44.8-20.098-44.8-44.801S45.297,225.2,70,225.2s44.8,20.098,44.8,44.801      S94.704,314.802,70,314.802z M70,235.2c-19.189,0-34.8,15.611-34.8,34.801s15.611,34.801,34.8,34.801s34.8-15.611,34.8-34.801      S89.189,235.2,70,235.2z" style="fill:#333333;"/></g><circle cx="56.777" cy="262.933" r="10.947" style="fill:#383838;"/><circle cx="71.67" cy="288.954" r="7" style="fill:#383838;"/><circle cx="89.44" cy="267.773" r="5.385" style="fill:#383838;"/></g><g><g><line style="fill:#FFFFFF;" x1="70" x2="70" y1="230.2" y2="209.529"/><path d="M70,235.2c-2.761,0-5-2.238-5-5v-20.671c0-2.762,2.239-5,5-5s5,2.238,5,5V230.2      C75,232.962,72.762,235.2,70,235.2z" style="fill:#333333;"/></g><circle cx="70" cy="209.529" r="9.528" style="fill:#383838;"/></g><g><g><line style="fill:#FFFFFF;" x1="41.857" x2="27.24" y1="241.858" y2="227.241"/><path d="M41.857,246.857c-1.28,0-2.559-0.488-3.536-1.464l-14.617-14.616      c-1.953-1.953-1.953-5.119,0-7.071c1.952-1.953,5.118-1.952,7.071-0.001l14.617,14.616c1.953,1.953,1.953,5.119,0,7.071      C44.417,246.369,43.137,246.857,41.857,246.857z" style="fill:#333333;"/></g><circle cx="27.24" cy="227.241" r="9.528" style="fill:#383838;"/></g><g><g><line style="fill:#FFFFFF;" x1="30.2" x2="9.529" y1="270.001" y2="270.001"/><path d="M30.2,275.001H9.528c-2.761,0-5-2.238-5-5s2.239-5,5-5H30.2c2.761,0,5,2.238,5,5      S32.961,275.001,30.2,275.001z" style="fill:#333333;"/></g><circle cx="9.529" cy="270.001" r="9.528" style="fill:#383838;"/></g><g><g><line style="fill:#FFFFFF;" x1="41.857" x2="27.24" y1="298.144" y2="312.761"/><path d="M27.24,317.761c-1.28,0-2.559-0.488-3.536-1.465c-1.953-1.952-1.953-5.118,0-7.071l14.617-14.616      c1.954-1.951,5.119-1.951,7.071,0.001c1.953,1.952,1.953,5.118,0,7.071l-14.617,14.616      C29.799,317.272,28.52,317.761,27.24,317.761z" style="fill:#333333;"/></g><circle cx="27.24" cy="312.761" r="9.528" style="fill:#383838;"/></g><g><g><line style="fill:#FFFFFF;" x1="70" x2="70" y1="309.802" y2="330.473"/><path d="M70,335.473c-2.761,0-5-2.238-5-5v-20.671c0-2.762,2.239-5,5-5s5,2.238,5,5v20.671      C75,333.234,72.762,335.473,70,335.473z" style="fill:#333333;"/></g><circle cx="70" cy="330.473" r="9.528" style="fill:#383838;"/></g><g><g><line style="fill:#FFFFFF;" x1="98.144" x2="112.761" y1="298.144" y2="312.761"/><path d="M112.761,317.761c-1.28,0-2.559-0.488-3.536-1.464l-14.617-14.616      c-1.953-1.953-1.953-5.119,0-7.071c1.952-1.953,5.118-1.952,7.071-0.001l14.617,14.616c1.953,1.953,1.953,5.119,0,7.071      C115.32,317.272,114.041,317.761,112.761,317.761z" style="fill:#333333;"/></g><circle cx="112.761" cy="312.761" r="9.528" style="fill:#383838;"/></g><g><g><line style="fill:#FFFFFF;" x1="109.801" x2="130.472" y1="270.001" y2="270.001"/><path d="M130.473,275.001h-20.672c-2.761,0-5-2.238-5-5s2.239-5,5-5h20.672c2.761,0,5,2.238,5,5      S133.234,275.001,130.473,275.001z" style="fill:#333333;"/></g><circle cx="130.472" cy="270.001" r="9.528" style="fill:#383838;"/></g><g><g><line style="fill:#FFFFFF;" x1="98.144" x2="112.761" y1="241.858" y2="227.241"/><path d="M98.144,246.857c-1.28,0-2.559-0.488-3.536-1.465c-1.953-1.952-1.953-5.118,0-7.071      l14.617-14.616c1.954-1.95,5.119-1.951,7.071,0.001c1.953,1.952,1.953,5.118,0,7.071l-14.617,14.616      C100.703,246.369,99.423,246.857,98.144,246.857z" style="fill:#333333;"/></g><circle cx="112.761" cy="227.241" r="9.528" style="fill:#383838;"/></g></g><g><g><g><circle cx="408" cy="108.001" r="34.115" style="fill:#FFD766;"/><path d="M386.743,108.001c0-16.642,11.92-30.494,27.686-33.501c-2.083-0.397-4.23-0.613-6.429-0.613      c-18.841,0-34.115,15.274-34.115,34.115s15.274,34.115,34.115,34.115c2.199,0,4.346-0.216,6.429-0.613      C398.663,138.495,386.743,124.643,386.743,108.001z" style="fill:#FFC533;"/><path d="M408,147.115c-21.567,0-39.114-17.547-39.114-39.114S386.433,68.887,408,68.887      s39.114,17.547,39.114,39.114S429.568,147.115,408,147.115z M408,78.887c-16.054,0-29.114,13.061-29.114,29.114      s13.061,29.114,29.114,29.114s29.114-13.061,29.114-29.114S424.054,78.887,408,78.887z" style="fill:#333333;"/></g><circle cx="396.666" cy="101.943" r="9.383" style="fill:#383838;"/><circle cx="409.432" cy="124.246" r="6" style="fill:#383838;"/><circle cx="424.663" cy="106.091" r="4.615" style="fill:#383838;"/></g><g><g><line style="fill:#FFFFFF;" x1="408" x2="408" y1="73.886" y2="56.168"/><path d="M408,78.887c-2.762,0-5-2.238-5-5V56.168c0-2.762,2.238-5,5-5s5,2.238,5,5v17.719      C413,76.648,410.762,78.887,408,78.887z" style="fill:#333333;"/></g><circle cx="408" cy="56.168" r="8.167" style="fill:#383838;"/></g><g><g><line style="fill:#FFFFFF;" x1="383.878" x2="371.349" y1="83.878" y2="71.349"/><path d="M383.877,88.878c-1.279,0-2.56-0.488-3.535-1.465l-12.528-12.528      c-1.953-1.952-1.953-5.118,0-7.07c1.951-1.953,5.119-1.953,7.07,0l12.528,12.528c1.953,1.952,1.953,5.118,0,7.07      C386.437,88.39,385.157,88.878,383.877,88.878z" style="fill:#333333;"/></g><circle cx="371.349" cy="71.349" r="8.167" style="fill:#383838;"/></g><g><g><line style="fill:#FFFFFF;" x1="373.886" x2="356.167" y1="108.001" y2="108.001"/><path d="M373.886,113.001h-17.719c-2.762,0-5-2.238-5-5s2.238-5,5-5h17.719c2.762,0,5,2.238,5,5      S376.648,113.001,373.886,113.001z" style="fill:#333333;"/></g><circle cx="356.167" cy="108.001" r="8.167" style="fill:#383838;"/></g><g><g><line style="fill:#FFFFFF;" x1="383.878" x2="371.349" y1="132.124" y2="144.653"/><path d="M371.349,149.652c-1.279,0-2.56-0.488-3.535-1.465c-1.953-1.952-1.953-5.118,0-7.07      l12.528-12.528c1.951-1.953,5.119-1.953,7.07,0c1.953,1.952,1.953,5.118,0,7.07l-12.528,12.528      C373.909,149.164,372.628,149.652,371.349,149.652z" style="fill:#333333;"/></g><circle cx="371.349" cy="144.653" r="8.167" style="fill:#383838;"/></g><g><g><line style="fill:#FFFFFF;" x1="408" x2="408" y1="142.116" y2="159.834"/><path d="M408,164.834c-2.762,0-5-2.238-5-5v-17.719c0-2.762,2.238-5,5-5s5,2.238,5,5v17.719      C413,162.596,410.762,164.834,408,164.834z" style="fill:#333333;"/></g><circle cx="408" cy="159.834" r="8.167" style="fill:#383838;"/></g><g><g><line style="fill:#FFFFFF;" x1="432.123" x2="444.652" y1="132.124" y2="144.653"/><path d="M444.652,149.652c-1.279,0-2.56-0.488-3.535-1.465l-12.528-12.528      c-1.953-1.952-1.953-5.118,0-7.07c1.951-1.953,5.119-1.953,7.07,0l12.528,12.528c1.953,1.952,1.953,5.118,0,7.07      C447.211,149.164,445.931,149.652,444.652,149.652z" style="fill:#333333;"/></g><circle cx="444.652" cy="144.653" r="8.167" style="fill:#383838;"/></g><g><g><line style="fill:#FFFFFF;" x1="442.115" x2="459.834" y1="108.001" y2="108.001"/><path d="M459.833,113.001h-17.719c-2.762,0-5-2.238-5-5s2.238-5,5-5h17.719c2.762,0,5,2.238,5,5      S462.595,113.001,459.833,113.001z" style="fill:#333333;"/></g><circle cx="459.834" cy="108.001" r="8.167" style="fill:#383838;"/></g><g><g><line style="fill:#FFFFFF;" x1="432.123" x2="444.652" y1="83.878" y2="71.349"/><path d="M432.124,88.878c-1.279,0-2.56-0.488-3.535-1.465c-1.953-1.952-1.953-5.118,0-7.07l12.528-12.528      c1.951-1.953,5.119-1.953,7.07,0c1.953,1.952,1.953,5.118,0,7.07l-12.528,12.528C434.683,88.39,433.403,88.878,432.124,88.878z" style="fill:#333333;"/></g><circle cx="444.652" cy="71.349" r="8.167" style="fill:#383838;"/></g></g></g><g/><g/><g/><g/><g/><g/><g/><g/><g/><g/><g/><g/><g/><g/><g/></svg>