<?xml version="1.0" ?><svg viewBox="0 0 512 512" xmlns="http://www.w3.org/2000/svg"><g data-name="Fill out line" id="Fill_out_line"><rect height="288" style="fill:#a6c72a" width="176" x="168" y="200"/><rect height="224" style="fill:#a6c72a" width="128" x="40" y="264"/><rect height="32" style="fill:#a6c72a" width="144" x="24" y="232"/><rect height="224" style="fill:#a6c72a" transform="translate(816 752) rotate(180)" width="128" x="344" y="264"/><rect height="32" style="fill:#a6c72a" transform="translate(832 496) rotate(180)" width="144" x="344" y="232"/><rect height="96" style="fill:#8ed0eb" width="48" x="384" y="392"/><rect height="32" style="fill:#f2e09e" width="64" x="376" y="360"/><rect height="96" style="fill:#8ed0eb" width="48" x="80" y="392"/><rect height="32" style="fill:#f2e09e" width="64" x="72" y="360"/><rect height="96" style="fill:#8ed0eb" width="48" x="208" y="392"/><rect height="96" style="fill:#8ed0eb" width="48" x="256" y="392"/><rect height="32" style="fill:#f2e09e" width="112" x="200" y="360"/><rect height="32" style="fill:#8ed0eb" width="40" x="200" y="296"/><rect height="32" style="fill:#8ed0eb" width="40" x="272" y="296"/><rect height="32" style="fill:#8ed0eb" width="40" x="200" y="232"/><rect height="32" style="fill:#8ed0eb" width="40" x="272" y="232"/><rect height="32" style="fill:#a6c72a" width="208" x="152" y="168"/><rect height="32" style="fill:#37a2c7" width="176" x="168" y="136"/><circle cx="256" cy="96" r="72" style="fill:#8ed0eb"/><polygon points="296 80 296 112 272 112 272 136 240 136 240 112 216 112 216 80 240 80 240 56 272 56 272 80 296 80" style="fill:#e84042"/><rect height="32" style="fill:#8ed0eb" width="80" x="64" y="296"/><rect height="32" style="fill:#8ed0eb" width="80" x="368" y="296"/><path d="M240,336H200a7.99977,7.99977,0,0,1-8-8V296a7.99977,7.99977,0,0,1,8-8h40a7.99977,7.99977,0,0,1,8,8v32A7.99977,7.99977,0,0,1,240,336Zm-32-16h24V304H208Z"/><path d="M312,336H272a7.99977,7.99977,0,0,1-8-8V296a7.99977,7.99977,0,0,1,8-8h40a7.99977,7.99977,0,0,1,8,8v32A7.99977,7.99977,0,0,1,312,336Zm-32-16h24V304H280Z"/><path d="M240,272H200a7.99977,7.99977,0,0,1-8-8V232a7.99977,7.99977,0,0,1,8-8h40a7.99977,7.99977,0,0,1,8,8v32A7.99977,7.99977,0,0,1,240,272Zm-32-16h24V240H208Z"/><path d="M312,272H272a7.99977,7.99977,0,0,1-8-8V232a7.99977,7.99977,0,0,1,8-8h40a7.99977,7.99977,0,0,1,8,8v32A7.99977,7.99977,0,0,1,312,272Zm-32-16h24V240H280Z"/><path d="M488,224H352V208h8a7.99786,7.99786,0,0,0,8-8V168a7.99782,7.99782,0,0,0-8-8h-8V136a7.99782,7.99782,0,0,0-8-8H329.31006A80,80,0,1,0,182.69,128H168a7.99778,7.99778,0,0,0-8,8v24h-8a7.99778,7.99778,0,0,0-8,8v32a7.99782,7.99782,0,0,0,8,8h8v16H24a7.99778,7.99778,0,0,0-8,8v32a7.99786,7.99786,0,0,0,8,8h8V488a7.99786,7.99786,0,0,0,8,8H472a7.9979,7.9979,0,0,0,8-8V272h8a7.9979,7.9979,0,0,0,8-8V232A7.99782,7.99782,0,0,0,488,224ZM120,480H88V400h32Zm8-96H80V368h48Zm32,96H136V400a7.99786,7.99786,0,0,0,8-8V360a7.99778,7.99778,0,0,0-8-8H72a7.99778,7.99778,0,0,0-8,8v32a7.99786,7.99786,0,0,0,8,8v80H48V272H160Zm0-224H32V240H160ZM336,144v16H303.96a81.43932,81.43932,0,0,0,16.01-16ZM256,32a64,64,0,1,1-64,64A64.07207,64.07207,0,0,1,256,32ZM176,144h16.03a81.439,81.439,0,0,0,16.01,16H176Zm-16,32H352v16H160Zm88,304H216V400h32Zm48,0H264V400h32Zm8-96H208V368h96Zm32,96H312V400a7.9979,7.9979,0,0,0,8-8V360a7.99782,7.99782,0,0,0-8-8H200a7.99778,7.99778,0,0,0-8,8v32a7.99786,7.99786,0,0,0,8,8v80H176V208H336Zm88,0H392V400h32Zm8-96H384V368h48Zm32,96H440V400a7.9979,7.9979,0,0,0,8-8V360a7.99782,7.99782,0,0,0-8-8H376a7.99782,7.99782,0,0,0-8,8v32a7.9979,7.9979,0,0,0,8,8v80H352V272H464Zm16-224H352V240H480Z"/><path d="M272,144H240a7.99977,7.99977,0,0,1-8-8V120H216a7.99977,7.99977,0,0,1-8-8V80a7.99977,7.99977,0,0,1,8-8h16V56a7.99977,7.99977,0,0,1,8-8h32a7.99977,7.99977,0,0,1,8,8V72h16a7.99977,7.99977,0,0,1,8,8v32a7.99977,7.99977,0,0,1-8,8H280v16A7.99977,7.99977,0,0,1,272,144Zm-24-16h16V112a7.99977,7.99977,0,0,1,8-8h16V88H272a7.99977,7.99977,0,0,1-8-8V64H248V80a7.99977,7.99977,0,0,1-8,8H224v16h16a7.99977,7.99977,0,0,1,8,8Z"/><path d="M144,336H64a7.99977,7.99977,0,0,1-8-8V296a7.99977,7.99977,0,0,1,8-8h80a7.99977,7.99977,0,0,1,8,8v32A7.99977,7.99977,0,0,1,144,336ZM72,320h64V304H72Z"/><path d="M448,336H368a7.99977,7.99977,0,0,1-8-8V296a7.99977,7.99977,0,0,1,8-8h80a7.99977,7.99977,0,0,1,8,8v32A7.99977,7.99977,0,0,1,448,336Zm-72-16h64V304H376Z"/></g></svg>