<?xml version="1.0" ?><svg viewBox="0 0 64 64" xmlns="http://www.w3.org/2000/svg"><defs><style>.cls-1{fill:#c69c6d;}.cls-2{fill:#f2f2f2;}.cls-3{fill:#e6e6e6;}.cls-4{fill:#ffe441;}.cls-5{fill:#ffeb71;}.cls-6,.cls-7{fill:none;stroke:#000;stroke-linejoin:round;stroke-width:2px;}.cls-6{stroke-linecap:round;}</style></defs><title/><g data-name="Layer 28" id="Layer_28"><circle class="cls-1" cx="54" cy="54" r="8"/><circle class="cls-1" cx="54" cy="10" r="8"/><circle class="cls-2" cx="48" cy="32" r="8"/><path class="cls-1" d="M53.66,26.34A8,8,0,0,1,42.34,37.66h0L53.66,26.34Z"/><path class="cls-2" d="M59.66,48.34A8,8,0,0,1,48.34,59.66h0L59.66,48.34Z"/><path class="cls-2" d="M59.66,4.34A8,8,0,0,1,48.34,15.66h0L59.66,4.34Z"/><rect class="cls-3" height="52" rx="2" ry="2" width="32" x="2" y="6"/><circle class="cls-4" cx="10" cy="14" r="4"/><ellipse class="cls-5" cx="8.5" cy="14" rx="2.5" ry="3.7"/><circle class="cls-4" cx="10" cy="26" r="4"/><ellipse class="cls-5" cx="8.5" cy="26" rx="2.5" ry="3.7"/><circle class="cls-4" cx="10" cy="38" r="4"/><ellipse class="cls-5" cx="8.5" cy="38" rx="2.5" ry="3.7"/><circle class="cls-4" cx="10" cy="50" r="4"/><ellipse class="cls-5" cx="8.5" cy="50" rx="2.5" ry="3.7"/><circle class="cls-4" cx="26" cy="50" r="4"/><ellipse class="cls-5" cx="24.5" cy="50" rx="2.5" ry="3.7"/><circle class="cls-4" cx="26" cy="38" r="4"/><ellipse class="cls-5" cx="24.5" cy="38" rx="2.5" ry="3.7"/><circle class="cls-4" cx="26" cy="26" r="4"/><ellipse class="cls-5" cx="24.5" cy="26" rx="2.5" ry="3.7"/><circle class="cls-4" cx="26" cy="14" r="4"/><ellipse class="cls-5" cx="24.5" cy="14" rx="2.5" ry="3.7"/><rect class="cls-6" height="52" rx="2" ry="2" width="32" x="2" y="6"/><circle class="cls-7" cx="10" cy="14" r="4"/><circle class="cls-7" cx="10" cy="26" r="4"/><circle class="cls-7" cx="10" cy="38" r="4"/><circle class="cls-7" cx="10" cy="50" r="4"/><circle class="cls-7" cx="26" cy="14" r="4"/><circle class="cls-7" cx="26" cy="26" r="4"/><circle class="cls-7" cx="26" cy="38" r="4"/><circle class="cls-7" cx="26" cy="50" r="4"/><line class="cls-7" x1="18" x2="18" y1="6" y2="58"/><circle class="cls-7" cx="54" cy="10" r="8"/><line class="cls-7" x1="48" x2="60" y1="16" y2="4"/><circle class="cls-7" cx="48" cy="32" r="8"/><line class="cls-7" x1="42" x2="54" y1="38" y2="26"/><circle class="cls-7" cx="54" cy="54" r="8"/><line class="cls-7" x1="48" x2="60" y1="60" y2="48"/></g></svg>