<?xml version="1.0" ?><svg style="enable-background:new 0 0 512 512;" version="1.1" viewBox="0 0 512 512" xml:space="preserve" xmlns="http://www.w3.org/2000/svg" xmlns:xlink="http://www.w3.org/1999/xlink"><g id="_x34_6_x2C__clipboard_x2C__healthcare_x2C__medical_x2C__report_x2C__medicine"><g id="XMLID_7137_"><path d="M396,326v5c0,13.822,11.199,25,25,25v98.83c0,8.93-7.24,16.17-16.17,16.17h-52.66    c-8.93,0-16.17-7.24-16.17-16.17c0-10.88,0-88.826,0-98.83c13.81,0,25-11.19,25-25v-5H396z" id="XMLID_3922_" style="fill:#9BC9FF;"/><path d="M451,71c11.05,0,20,8.95,20,20s-8.95,20-20,20s-20-8.95-20-20S439.95,71,451,71z" id="XMLID_3921_" style="fill:#FFFFFF;"/><path d="M63.5,326c12.43,0,22.5,10.07,22.5,22.5S75.93,371,63.5,371S41,360.93,41,348.5    S51.07,326,63.5,326z" id="XMLID_3920_" style="fill:#FFFFFF;"/><rect height="65" id="XMLID_3919_" style="fill:#FFFFFF;" width="40" x="336" y="381"/><path d="M416,308.33v5.34c0,6.811-5.52,12.33-12.33,12.33H396h-35h-7.67    c-6.81,0-12.33-5.52-12.33-12.33v-5.34c0-6.811,5.52-12.33,12.33-12.33H391h12.67C410.48,296,416,301.52,416,308.33z" id="XMLID_3918_" style="fill:#9BC9FF;"/><path d="M336,451H154.5c-18.5,0-33.5-15-33.5-33.5v-283c0-18.5,15-33.5,33.5-33.5    c0.17,0,202.83,0,203,0c18.5,0,33.5,15,33.5,33.5V296h-37.67c-6.81,0-12.33,5.52-12.33,12.33v5.34c0,6.811,5.52,12.33,12.33,12.33    H361v5c0,13.81-11.19,25-25,25C336,366.04,336,440.931,336,451z" id="XMLID_3917_" style="fill:#FFFFFF;"/><path d="M336,112.75V121H176v-8.25c0-4.15,0.8-8.11,2.25-11.75    c4.46-11.2,15.13-19.26,27.75-19.95V66h100v15.05c12.62,0.69,23.29,8.75,27.75,19.95C335.2,104.64,336,108.6,336,112.75z" id="XMLID_3916_" style="fill:#9BC9FF;"/><circle cx="463.5" cy="433.5" id="XMLID_3915_" r="7.5" style="fill:#1E81CE;"/><circle cx="443.5" cy="193.5" id="XMLID_3914_" r="7.5" style="fill:#1E81CE;"/><circle cx="353.5" cy="43.5" id="XMLID_3913_" r="7.5" style="fill:#1E81CE;"/><circle cx="93.5" cy="53.5" id="XMLID_3912_" r="7.5" style="fill:#1E81CE;"/><circle cx="78.5" cy="453.5" id="XMLID_3911_" r="7.5" style="fill:#1E81CE;"/><circle cx="53.5" cy="213.5" id="XMLID_3910_" r="7.5" style="fill:#1E81CE;"/><path d="M403.67,331H396c-2.761,0-5-2.238-5-5s2.239-5,5-5h7.67    c4.042,0,7.33-3.288,7.33-7.33v-5.34c0-4.042-3.288-7.33-7.33-7.33h-50.34c-4.042,0-7.33,3.288-7.33,7.33v5.34    c0,4.042,3.288,7.33,7.33,7.33H361c2.761,0,5,2.238,5,5s-2.239,5-5,5h-7.67c-9.556,0-17.33-7.774-17.33-17.33v-5.34    c0-9.556,7.774-17.33,17.33-17.33h50.34c9.556,0,17.33,7.774,17.33,17.33v5.34C421,323.226,413.226,331,403.67,331z" id="XMLID_3909_" style="fill:#1E81CE;"/><path d="M404.83,476h-52.66c-11.673,0-21.17-9.497-21.17-21.17V446c0-2.762,2.239-5,5-5    s5,2.238,5,5v8.83c0,6.159,5.011,11.17,11.17,11.17h52.66c6.159,0,11.17-5.011,11.17-11.17v-94.242    c-6.115-1.019-11.747-3.903-16.216-8.373C394.12,346.551,391,339.017,391,331h-25c0,14.839-10.83,27.196-25,29.583V381    c0,2.762-2.239,5-5,5s-5-2.238-5-5v-25c0-2.762,2.239-5,5-5c11.028,0,20-8.972,20-20v-5c0-2.762,2.239-5,5-5h35    c2.761,0,5,2.238,5,5v5c0,5.346,2.08,10.368,5.855,14.144C410.631,348.92,415.654,351,421,351c2.761,0,5,2.238,5,5v98.83    C426,466.503,416.503,476,404.83,476z" id="XMLID_3908_" style="fill:#1E81CE;"/><path d="M376,451h-40c-2.761,0-5-2.238-5-5v-65c0-2.762,2.239-5,5-5h40    c2.761,0,5,2.238,5,5v65C381,448.762,378.761,451,376,451z M341,441h30v-55h-30V441z" id="XMLID_7237_" style="fill:#1E81CE;"/><path d="M391,301c-2.761,0-5-2.238-5-5V134.5c0-15.715-12.785-28.5-28.5-28.5h-23.75    c-2.761,0-5-2.239-5-5s2.239-5,5-5h23.75c21.229,0,38.5,17.271,38.5,38.5V296C396,298.762,393.761,301,391,301z" id="XMLID_3905_" style="fill:#1E81CE;"/><path d="M336,456H154.5c-21.229,0-38.5-17.272-38.5-38.5v-283    c0-21.229,17.271-38.5,38.5-38.5h23.75c2.761,0,5,2.239,5,5s-2.239,5-5,5H154.5c-15.715,0-28.5,12.785-28.5,28.5v283    c0,15.715,12.785,28.5,28.5,28.5H336c2.761,0,5,2.238,5,5S338.761,456,336,456z" id="XMLID_3904_" style="fill:#1E81CE;"/><path d="M336,126H176c-2.761,0-5-2.239-5-5v-8.25c0-4.686,0.876-9.262,2.605-13.601    C178.288,87.389,188.75,78.925,201,76.627V66c0-2.761,2.239-5,5-5h100c2.761,0,5,2.239,5,5v10.627    c12.25,2.297,22.712,10.761,27.396,22.523c1.728,4.338,2.604,8.914,2.604,13.6V121C341,123.761,338.761,126,336,126z M181,116h150    v-3.25c0-3.413-0.638-6.743-1.895-9.899c-3.84-9.644-13.017-16.241-23.378-16.808C303.076,85.897,301,83.705,301,81.05V71h-90    v10.05c0,2.655-2.076,4.848-4.727,4.993c-10.361,0.567-19.538,7.164-23.378,16.807c-1.258,3.157-1.895,6.488-1.895,9.9V116z" id="XMLID_7223_" style="fill:#1E81CE;"/><path d="M451,116c-13.785,0-25-11.215-25-25s11.215-25,25-25c13.785,0,25,11.215,25,25    S464.785,116,451,116z M451,76c-8.271,0-15,6.729-15,15s6.729,15,15,15s15-6.729,15-15S459.271,76,451,76z" id="XMLID_7215_" style="fill:#1E81CE;"/><path d="M63.5,376C48.336,376,36,363.663,36,348.5S48.336,321,63.5,321    S91,333.337,91,348.5S78.664,376,63.5,376z M63.5,331c-9.649,0-17.5,7.851-17.5,17.5S53.851,366,63.5,366S81,358.149,81,348.5    S73.149,331,63.5,331z" id="XMLID_7206_" style="fill:#1E81CE;"/><path d="M311,421H156c-2.761,0-5-2.238-5-5V211c0-2.761,2.239-5,5-5s5,2.239,5,5v200h150    c2.761,0,5,2.238,5,5S313.761,421,311,421z" id="XMLID_3897_" style="fill:#1E81CE;"/><path d="M316,181H196c-2.761,0-5-2.239-5-5s2.239-5,5-5h120c2.761,0,5,2.239,5,5    S318.761,181,316,181z" id="XMLID_3896_" style="fill:#1E81CE;"/><path d="M316,206H196c-2.761,0-5-2.239-5-5s2.239-5,5-5h120c2.761,0,5,2.239,5,5    S318.761,206,316,206z" id="XMLID_3895_" style="fill:#1E81CE;"/><path d="M316,231H196c-2.761,0-5-2.239-5-5s2.239-5,5-5h120c2.761,0,5,2.239,5,5    S318.761,231,316,231z" id="XMLID_3894_" style="fill:#1E81CE;"/><path d="M316,256H196c-2.761,0-5-2.238-5-5c0-2.761,2.239-5,5-5h120c2.761,0,5,2.239,5,5    C321,253.762,318.761,256,316,256z" id="XMLID_3893_" style="fill:#1E81CE;"/><path d="M316,281H196c-2.761,0-5-2.238-5-5s2.239-5,5-5h120c2.761,0,5,2.238,5,5    S318.761,281,316,281z" id="XMLID_3892_" style="fill:#1E81CE;"/></g></g><g id="Layer_1"/></svg>