<?xml version="1.0" ?><svg viewBox="0 0 64 64" xmlns="http://www.w3.org/2000/svg"><title/><g data-name="Layer 31" id="Layer_31"><rect height="56" style="fill:#e6e6e6" width="34" x="15" y="7"/><path d="M18,30V7H15V63H49V60H48A30,30,0,0,1,18,30Z" style="fill:#cecece"/><rect height="30" style="fill:#e6e6e6" width="14" x="1" y="33"/><rect height="30" style="fill:#cecece" width="2" x="13" y="33"/><path d="M4,52V33H1V63H15V60H12A8,8,0,0,1,4,52Z" style="fill:#cecece"/><rect height="30" style="fill:#e6e6e6" width="14" x="49" y="33"/><path d="M52,52V33H49V63H63V60H60A8,8,0,0,1,52,52Z" style="fill:#cecece"/><rect height="6" rx="2" style="fill:#7a838b" width="38" x="13" y="1"/><rect height="2" style="fill:#cecece" width="34" x="15" y="7"/><path d="M18,4a2,2,0,0,1-2-2V1H15a2,2,0,0,0-2,2V5a2,2,0,0,0,2,2H49a2,2,0,0,0,2-2V4Z" style="fill:#5d6972"/><polygon points="37 14 34 14 34 11 30 11 30 14 27 14 27 18 30 18 30 21 34 21 34 18 37 18 37 14" style="fill:#ff938d"/><rect height="6" style="fill:#82d0d8" width="5" x="27" y="57"/><rect height="6" style="fill:#98deea" width="5" x="32" y="57"/><path d="M34.912,57H32v6h5V57.91C36.292,57.63,35.593,57.331,34.912,57Z" style="fill:#82d0d8"/><rect height="4" style="fill:#98deea" width="4" x="19" y="25"/><rect height="4" style="fill:#98deea" width="4" x="30" y="25"/><rect height="4" style="fill:#98deea" width="4" x="41" y="25"/><rect height="4" style="fill:#98deea" width="4" x="19" y="33"/><rect height="4" style="fill:#98deea" width="4" x="30" y="33"/><rect height="4" style="fill:#98deea" width="4" x="41" y="33"/><rect height="4" style="fill:#98deea" width="4" x="19" y="41"/><path d="M19,45h3.023a29.967,29.967,0,0,1-1.933-4H19Z" style="fill:#82d0d8"/><rect height="4" style="fill:#98deea" width="4" x="6" y="37"/><rect height="4" style="fill:#98deea" width="4" x="6" y="45"/><rect height="4" style="fill:#98deea" width="4" x="6" y="53"/><rect height="4" style="fill:#98deea" width="4" x="54" y="37"/><rect height="4" style="fill:#98deea" width="4" x="54" y="45"/><rect height="4" style="fill:#98deea" width="4" x="54" y="53"/><rect height="4" style="fill:#98deea" width="4" x="30" y="41"/><rect height="4" style="fill:#98deea" width="4" x="41" y="41"/><rect height="4" style="fill:#82d0d8" width="4" x="19" y="49"/><rect height="4" style="fill:#98deea" width="4" x="30" y="49"/><rect height="4" style="fill:#98deea" width="4" x="41" y="49"/><path d="M63,32H50V7.816A3,3,0,0,0,52,5V3a3,3,0,0,0-3-3H15a3,3,0,0,0-3,3V5a3,3,0,0,0,2,2.816V21a1,1,0,0,0,2,0V8H41a1,1,0,0,0,0-2H15a1,1,0,0,1-1-1V3a1,1,0,0,1,1-1H49a1,1,0,0,1,1,1V5a1,1,0,0,1-1,1H45a1,1,0,0,0,0,2h3V62H38V57a1,1,0,0,0-1-1H27a1,1,0,0,0-1,1v5H16V25a1,1,0,0,0-2,0v7H1a1,1,0,0,0-1,1V63a1,1,0,0,0,1,1H63a1,1,0,0,0,1-1V33A1,1,0,0,0,63,32ZM2,34H14V62H2ZM28,58h3v4H28Zm5,4V58h3v4Zm29,0H50V34H62Z"/><path d="M34,10H30a1,1,0,0,0-1,1v2H27a1,1,0,0,0-1,1v4a1,1,0,0,0,1,1h2v2a1,1,0,0,0,1,1h4a1,1,0,0,0,1-1V19h2a1,1,0,0,0,1-1V14a1,1,0,0,0-1-1H35V11A1,1,0,0,0,34,10Zm2,5v2H34a1,1,0,0,0-1,1v2H31V18a1,1,0,0,0-1-1H28V15h2a1,1,0,0,0,1-1V12h2v2a1,1,0,0,0,1,1Z"/><path d="M19,30h4a1,1,0,0,0,1-1V25a1,1,0,0,0-1-1H19a1,1,0,0,0-1,1v4A1,1,0,0,0,19,30Zm1-4h2v2H20Z"/><path d="M35,25a1,1,0,0,0-1-1H30a1,1,0,0,0-1,1v4a1,1,0,0,0,1,1h4a1,1,0,0,0,1-1Zm-2,3H31V26h2Z"/><path d="M41,30h4a1,1,0,0,0,1-1V25a1,1,0,0,0-1-1H41a1,1,0,0,0-1,1v4A1,1,0,0,0,41,30Zm1-4h2v2H42Z"/><path d="M18,37a1,1,0,0,0,1,1h4a1,1,0,0,0,1-1V33a1,1,0,0,0-1-1H19a1,1,0,0,0-1,1Zm2-3h2v2H20Z"/><path d="M35,33a1,1,0,0,0-1-1H30a1,1,0,0,0-1,1v4a1,1,0,0,0,1,1h4a1,1,0,0,0,1-1Zm-2,3H31V34h2Z"/><path d="M40,37a1,1,0,0,0,1,1h4a1,1,0,0,0,1-1V33a1,1,0,0,0-1-1H41a1,1,0,0,0-1,1Zm2-3h2v2H42Z"/><path d="M18,45a1,1,0,0,0,1,1h4a1,1,0,0,0,1-1V41a1,1,0,0,0-1-1H19a1,1,0,0,0-1,1Zm2-3h2v2H20Z"/><path d="M10,36H6a1,1,0,0,0-1,1v4a1,1,0,0,0,1,1h4a1,1,0,0,0,1-1V37A1,1,0,0,0,10,36ZM9,40H7V38H9Z"/><path d="M10,44H6a1,1,0,0,0-1,1v4a1,1,0,0,0,1,1h4a1,1,0,0,0,1-1V45A1,1,0,0,0,10,44ZM9,48H7V46H9Z"/><path d="M10,52H6a1,1,0,0,0-1,1v4a1,1,0,0,0,1,1h4a1,1,0,0,0,1-1V53A1,1,0,0,0,10,52ZM9,56H7V54H9Z"/><path d="M54,42h4a1,1,0,0,0,1-1V37a1,1,0,0,0-1-1H54a1,1,0,0,0-1,1v4A1,1,0,0,0,54,42Zm1-4h2v2H55Z"/><path d="M54,50h4a1,1,0,0,0,1-1V45a1,1,0,0,0-1-1H54a1,1,0,0,0-1,1v4A1,1,0,0,0,54,50Zm1-4h2v2H55Z"/><path d="M54,58h4a1,1,0,0,0,1-1V53a1,1,0,0,0-1-1H54a1,1,0,0,0-1,1v4A1,1,0,0,0,54,58Zm1-4h2v2H55Z"/><path d="M35,41a1,1,0,0,0-1-1H30a1,1,0,0,0-1,1v4a1,1,0,0,0,1,1h4a1,1,0,0,0,1-1Zm-2,3H31V42h2Z"/><path d="M40,45a1,1,0,0,0,1,1h4a1,1,0,0,0,1-1V41a1,1,0,0,0-1-1H41a1,1,0,0,0-1,1Zm2-3h2v2H42Z"/><path d="M18,53a1,1,0,0,0,1,1h4a1,1,0,0,0,1-1V49a1,1,0,0,0-1-1H19a1,1,0,0,0-1,1Zm2-3h2v2H20Z"/><path d="M34,48H30a1,1,0,0,0-1,1v4a1,1,0,0,0,1,1h4a1,1,0,0,0,1-1V49A1,1,0,0,0,34,48Zm-1,4H31V50h2Z"/><path d="M40,53a1,1,0,0,0,1,1h4a1,1,0,0,0,1-1V49a1,1,0,0,0-1-1H41a1,1,0,0,0-1,1Zm2-3h2v2H42Z"/><path d="M49,4H47a1,1,0,0,1,0-2h2a1,1,0,0,1,0,2Z" style="fill:#fff"/></g></svg>