<?xml version="1.0" ?><svg viewBox="0 0 64 64" xmlns="http://www.w3.org/2000/svg"><g data-name="Hospital-Health Clinic-Building-Medical-Health" id="Hospital-Health_Clinic-Building-Medical-Health"><rect height="38" style="fill:#5aaae7" width="30" x="17" y="23"/><rect height="2" style="fill:#3d9ae2" width="30" x="17" y="23"/><rect height="4" style="fill:#5aaae7" width="34" x="15" y="19"/><rect height="18" style="fill:#acabb1" width="18" x="23" y="12"/><rect height="32" style="fill:#3d9ae2" width="14" x="47" y="29"/><rect height="10" style="fill:#c6c5ca" width="6" x="32" y="51"/><polygon points="34 19 34 16 30 16 30 19 27 19 27 23 30 23 30 26 34 26 34 23 37 23 37 19 34 19" style="fill:#e6e7e8"/><rect height="10" style="fill:#d8d7da" width="6" x="26" y="51"/><rect height="32" style="fill:#3d9ae2" width="14" x="3" y="29"/><rect height="2" style="fill:#3d9ae2" width="18" x="23" y="30"/><rect height="2" style="fill:#3d9ae2" width="2" x="21" y="34"/><rect height="2" style="fill:#3d9ae2" width="2" x="25" y="34"/><rect height="2" style="fill:#3d9ae2" width="2" x="29" y="34"/><rect height="2" style="fill:#3d9ae2" width="2" x="33" y="34"/><rect height="2" style="fill:#3d9ae2" width="2" x="37" y="34"/><rect height="2" style="fill:#3d9ae2" width="2" x="41" y="34"/><rect height="2" style="fill:#3d9ae2" width="2" x="21" y="38"/><rect height="2" style="fill:#3d9ae2" width="2" x="25" y="38"/><rect height="2" style="fill:#3d9ae2" width="2" x="29" y="38"/><rect height="2" style="fill:#3d9ae2" width="2" x="33" y="38"/><rect height="2" style="fill:#3d9ae2" width="2" x="37" y="38"/><rect height="2" style="fill:#3d9ae2" width="2" x="41" y="38"/><rect height="2" style="fill:#1e81ce" width="2" x="51" y="34"/><rect height="2" style="fill:#1e81ce" width="2" x="55" y="34"/><rect height="2" style="fill:#1e81ce" width="2" x="51" y="38"/><rect height="2" style="fill:#1e81ce" width="2" x="55" y="38"/><rect height="2" style="fill:#1e81ce" width="2" x="51" y="42"/><rect height="2" style="fill:#1e81ce" width="2" x="55" y="42"/><rect height="2" style="fill:#1e81ce" width="2" x="51" y="46"/><rect height="2" style="fill:#1e81ce" width="2" x="55" y="46"/><rect height="2" style="fill:#1e81ce" width="2" x="51" y="50"/><rect height="2" style="fill:#1e81ce" width="2" x="55" y="50"/><rect height="2" style="fill:#1e81ce" width="2" x="51" y="54"/><rect height="2" style="fill:#1e81ce" width="2" x="55" y="54"/><rect height="2" style="fill:#1e81ce" width="2" x="7" y="34"/><rect height="2" style="fill:#1e81ce" width="2" x="11" y="34"/><rect height="2" style="fill:#1e81ce" width="2" x="7" y="38"/><rect height="2" style="fill:#1e81ce" width="2" x="11" y="38"/><rect height="2" style="fill:#1e81ce" width="2" x="7" y="42"/><rect height="2" style="fill:#1e81ce" width="2" x="11" y="42"/><rect height="2" style="fill:#1e81ce" width="2" x="7" y="46"/><rect height="2" style="fill:#1e81ce" width="2" x="11" y="46"/><rect height="2" style="fill:#1e81ce" width="2" x="7" y="54"/><rect height="2" style="fill:#1e81ce" width="2" x="11" y="54"/><rect height="2" style="fill:#1e81ce" width="2" x="7" y="50"/><rect height="2" style="fill:#1e81ce" width="2" x="11" y="50"/><rect height="2" style="fill:#3d9ae2" width="2" x="21" y="42"/><rect height="2" style="fill:#3d9ae2" width="2" x="25" y="42"/><rect height="2" style="fill:#3d9ae2" width="2" x="29" y="42"/><rect height="2" style="fill:#3d9ae2" width="2" x="33" y="42"/><rect height="2" style="fill:#3d9ae2" width="2" x="37" y="42"/><rect height="2" style="fill:#3d9ae2" width="2" x="41" y="42"/><rect height="2" style="fill:#3d9ae2" width="2" x="21" y="46"/><rect height="2" style="fill:#3d9ae2" width="2" x="25" y="46"/><rect height="2" style="fill:#3d9ae2" width="2" x="29" y="46"/><rect height="2" style="fill:#3d9ae2" width="2" x="33" y="46"/><rect height="2" style="fill:#3d9ae2" width="2" x="37" y="46"/><rect height="2" style="fill:#3d9ae2" width="2" x="41" y="46"/></g></svg>