<?xml version="1.0" ?><svg height="512" viewBox="0 0 512 512" width="512" xmlns="http://www.w3.org/2000/svg"><g><g><rect fill="#c0dce2" height="104" width="48" x="392" y="384"/><path d="M472,496H360a8,8,0,0,1,0-16H472a8,8,0,0,1,0,16Z" fill="#00a8e7"/><polygon fill="#e22526" points="320 88 224 88 216 24 328 24 320 88"/><path d="M232,88V448a40,40,0,0,0,40,40h0a40,40,0,0,0,40-40V88Z" fill="#c0dce2"/><path d="M264,360H232a8,8,0,0,1,0-16h32a8,8,0,0,1,0,16Z" fill="#e22526"/><path d="M248,392H232a8,8,0,0,1,0-16h16a8,8,0,0,1,0,16Z" fill="#e22526"/><path d="M264,424H232a8,8,0,0,1,0-16h32a8,8,0,0,1,0,16Z" fill="#e22526"/><path d="M264,296H232a8,8,0,0,1,0-16h32a8,8,0,0,1,0,16Z" fill="#e22526"/><path d="M248,328H232a8,8,0,0,1,0-16h16a8,8,0,0,1,0,16Z" fill="#e22526"/><path d="M264,232H232a8,8,0,0,1,0-16h32a8,8,0,0,1,0,16Z" fill="#e22526"/><path d="M248,264H232a8,8,0,0,1,0-16h16a8,8,0,0,1,0,16Z" fill="#e22526"/><path d="M264,168H232a8,8,0,0,1,0-16h32a8,8,0,0,1,0,16Z" fill="#e22526"/><path d="M248,200H232a8,8,0,0,1,0-16h16a8,8,0,0,1,0,16Z" fill="#e22526"/><polygon fill="#d1e1e5" points="432 24 400 56 400 160 432 160 432 24"/><rect fill="#00a8e7" height="32" width="64" x="384" y="160"/><rect fill="#eceff0" height="192" width="112" x="360" y="192"/><path d="M344,392a8,8,0,0,1,0-16H488a8,8,0,0,1,0,16Z" fill="#00a8e7"/><path d="M392,360H360a8,8,0,0,1,0-16h32a8,8,0,0,1,0,16Z" fill="#00a8e7"/><path d="M392,296H360a8,8,0,0,1,0-16h32a8,8,0,0,1,0,16Z" fill="#00a8e7"/><path d="M376,328H360a8,8,0,0,1,0-16h16a8,8,0,0,1,0,16Z" fill="#00a8e7"/><path d="M392,232H360a8,8,0,0,1,0-16h32a8,8,0,0,1,0,16Z" fill="#00a8e7"/><path d="M376,264H360a8,8,0,0,1,0-16h16a8,8,0,0,1,0,16Z" fill="#00a8e7"/><path d="M40,488H168a16,16,0,0,0,16-16V288H24V472A16,16,0,0,0,40,488Z" fill="#48b589"/><path d="M136,240h0V208H72v32a48,48,0,0,0-48,48H184A48,48,0,0,0,136,240Z" fill="#c0dce2"/><rect fill="#009d54" height="32" width="96" x="56" y="176"/><g><path d="M104,24A48,48,0,0,0,56,72h96A48,48,0,0,0,104,24Z" fill="#fcc200"/><path d="M56,72a48,48,0,0,0,96,0Z" fill="#ffdb43"/></g><path d="M136,360a8,8,0,0,0,0-16H112V328h24a8,8,0,0,0,0-16H112V296a8,8,0,0,0-16,0v16H72a8,8,0,0,0,0,16H96v16H72a8,8,0,0,0,0,16H96v16H72a8,8,0,0,0,0,16H96v16H72a8,8,0,0,0,0,16H96v16H72a8,8,0,0,0,0,16H96v24a8,8,0,0,0,16,0V456h24a8,8,0,0,0,0-16H112V424h24a8,8,0,0,0,0-16H112V392h24a8,8,0,0,0,0-16H112V360Z" fill="#1a9663"/></g><path d="M328,16H216a8,8,0,0,0-7.938,8.992l8,64A8,8,0,0,0,224,96V448a48,48,0,0,0,96,0V96a8,8,0,0,0,7.938-7.008l8-64A8,8,0,0,0,328,16Zm-9.062,16-6,48H231.062l-6-48ZM304,448a32,32,0,0,1-64,0V424h24a8,8,0,0,0,0-16H240V392h8a8,8,0,0,0,0-16h-8V360h24a8,8,0,0,0,0-16H240V328h8a8,8,0,0,0,0-16h-8V296h24a8,8,0,0,0,0-16H240V264h8a8,8,0,0,0,0-16h-8V232h24a8,8,0,0,0,0-16H240V200h8a8,8,0,0,0,0-16h-8V168h24a8,8,0,0,0,0-16H240V96h64Zm184-72h-8V192a8,8,0,0,0-8-8H456V160a8,8,0,0,0-8-8h-8V24a8,8,0,0,0-13.657-5.657l-32,32A8,8,0,0,0,392,56v96h-8a8,8,0,0,0-8,8v24H360a8,8,0,0,0-8,8V376h-8a8,8,0,0,0,0,16h40v88H360a8,8,0,0,0,0,16H472a8,8,0,0,0,0-16H448V392h40a8,8,0,0,0,0-16ZM408,59.313l16-16V152H408ZM392,168h48v16H392ZM368,360h24a8,8,0,0,0,0-16H368V328h8a8,8,0,0,0,0-16h-8V296h24a8,8,0,0,0,0-16H368V264h8a8,8,0,0,0,0-16h-8V232h24a8,8,0,0,0,0-16H368V200h96V376H368Zm64,120H400V392h32ZM144,232.57V216h8a8,8,0,0,0,8-8V176a8,8,0,0,0-8-8H56a8,8,0,0,0-8,8v32a8,8,0,0,0,8,8h8v16.57A56.086,56.086,0,0,0,16,288V472a24.028,24.028,0,0,0,24,24H168a24.028,24.028,0,0,0,24-24V288A56.086,56.086,0,0,0,144,232.57ZM64,184h80v16H64ZM32,472V296H96v16H72a8,8,0,0,0,0,16H96v16H72a8,8,0,0,0,0,16H96v16H72a8,8,0,0,0,0,16H96v16H72a8,8,0,0,0,0,16H96v16H72a8,8,0,0,0,0,16H96v24H40A8.009,8.009,0,0,1,32,472Zm144,0a8.009,8.009,0,0,1-8,8H112V456h24a8,8,0,0,0,0-16H112V424h24a8,8,0,0,0,0-16H112V392h24a8,8,0,0,0,0-16H112V360h24a8,8,0,0,0,0-16H112V328h24a8,8,0,0,0,0-16H112V296h64ZM32.8,280A40.071,40.071,0,0,1,72,248a8,8,0,0,0,8-8V216h48v24a8,8,0,0,0,8,8,40.071,40.071,0,0,1,39.2,32ZM104,128A56,56,0,1,0,48,72,56.063,56.063,0,0,0,104,128Zm0-16A40.067,40.067,0,0,1,64.805,80H143.2A40.067,40.067,0,0,1,104,112Zm0-80A40.067,40.067,0,0,1,143.2,64H64.805A40.067,40.067,0,0,1,104,32Z"/></g></svg>