<?xml version="1.0" ?><svg viewBox="0 0 512 512" xmlns="http://www.w3.org/2000/svg"><g id="Flat"><rect height="288" style="fill:#a6c72a" width="176" x="168" y="200"/><rect height="224" style="fill:#a6c72a" width="128" x="40" y="264"/><rect height="32" style="fill:#a6c72a" width="144" x="24" y="232"/><rect height="224" style="fill:#a6c72a" transform="translate(816 752) rotate(180)" width="128" x="344" y="264"/><rect height="32" style="fill:#a6c72a" transform="translate(832 496) rotate(180)" width="144" x="344" y="232"/><rect height="96" style="fill:#8ed0eb" width="48" x="384" y="392"/><rect height="32" style="fill:#f2e09e" width="64" x="376" y="360"/><rect height="96" style="fill:#8ed0eb" width="48" x="80" y="392"/><rect height="32" style="fill:#f2e09e" width="64" x="72" y="360"/><rect height="96" style="fill:#8ed0eb" width="48" x="208" y="392"/><rect height="96" style="fill:#8ed0eb" width="48" x="256" y="392"/><rect height="32" style="fill:#f2e09e" width="112" x="200" y="360"/><rect height="32" style="fill:#8ed0eb" width="40" x="200" y="296"/><rect height="32" style="fill:#8ed0eb" width="40" x="272" y="296"/><rect height="32" style="fill:#8ed0eb" width="40" x="200" y="232"/><rect height="32" style="fill:#8ed0eb" width="40" x="272" y="232"/><rect height="32" style="fill:#a6c72a" width="208" x="152" y="168"/><rect height="32" style="fill:#37a2c7" width="176" x="168" y="136"/><circle cx="256" cy="96" r="72" style="fill:#8ed0eb"/><polygon points="296 80 296 112 272 112 272 136 240 136 240 112 216 112 216 80 240 80 240 56 272 56 272 80 296 80" style="fill:#e84042"/><rect height="32" style="fill:#8ed0eb" width="80" x="64" y="296"/><rect height="32" style="fill:#8ed0eb" width="80" x="368" y="296"/><rect height="16" style="fill:#68bc40" width="176" x="168" y="200"/><polygon points="472 264 472 280 360 280 360 488 344 488 344 232 360 232 360 264 472 264" style="fill:#68bc40"/><polygon points="40 264 40 280 152 280 152 488 168 488 168 232 152 232 152 264 40 264" style="fill:#68bc40"/><rect height="96" style="fill:#37a2c7" width="16" x="248" y="392"/></g></svg>