<?xml version="1.0" ?><svg style="enable-background:new 0 0 64 64;" version="1.1" viewBox="0 0 64 64" xml:space="preserve" xmlns="http://www.w3.org/2000/svg" xmlns:xlink="http://www.w3.org/1999/xlink"><style type="text/css">
	.st0{fill:#D1FEFB;}
	.st1{fill:#00A6FF;}
	.st2{fill:#FFAA20;}
	.st3{fill:#FF3636;}
	.st4{fill:#E83636;}
	.st5{fill:#FFF5CB;}
	.st6{fill:#F7F2DF;}
	.st7{fill:#FFFFFF;}
	.st8{fill:#594A42;}
	.st9{fill:#9B8579;}
	.st10{fill:#4F6361;}
	.st11{fill:#FF6663;}
	.st12{fill:#C5FFFD;}
	.st13{fill:#A5E5E1;}
	.st14{fill:#AEEDEA;}
	.st15{fill:#8DCEC8;}
	.st16{fill:#A7A9AC;}
	.st17{fill:#F9F0CA;}
	.st18{fill:#D1D3D4;}
	.st19{fill:#88D9E6;}
	.st20{fill:#8DC63F;}
	.st21{fill:#80AF35;}
	.st22{fill:#E6BE95;}
	.st23{fill:#C69B73;}
	.st24{fill:#39B54A;}
	.st25{fill:#2E9E38;}
	.st26{fill:#78C0E0;}
	.st27{fill:#E5D1B3;}
	.st28{fill:#D3BC9C;}
	.st29{fill:#FFEECE;}
	.st30{fill:#EAD8BB;}
	.st31{fill:#D14242;}
	.st32{fill:#EA5757;}
	.st33{fill:#FBFBF2;}
	.st34{fill:#BCBEC0;}
	.st35{fill:#7BDFF2;}
	.st36{fill:#58ABAF;}
	.st37{fill:#6EC3CC;}
	.st38{fill:#ACEAE7;}
	.st39{fill:#0399DB;}
	.st40{fill:#E0D5A4;}
	.st41{fill:#FAA916;}
	.st42{fill:#EF5656;}
	.st43{fill:#231F20;}
	.st44{fill:#FFC064;}
	.st45{fill:#542C2C;}
	.st46{fill:#0097CC;}
	.st47{fill:#EDEDE2;}
	.st48{fill:#EA9924;}
	.st49{fill:#A7ACAF;}
	.st50{fill:#EAE9D6;}
	.st51{fill:#D8AF8B;}
	.st52{fill:#C69C77;}
	.st53{fill:#B58C6D;}
	.st54{fill:#65AFC9;}
	.st55{fill:#61CCDB;}
	.st56{fill:#E8E7D1;}
	.st57{fill:#419191;}
	.st58{fill:#EAEADA;}
	.st59{fill:#0691C1;}
	.st60{fill:#D14747;}
	.st61{fill:#E53030;}
	.st62{fill:#B2EDEA;}
	.st63{fill:#ED5454;}
	.st64{fill:#C1B584;}
	.st65{fill:#414042;}
	.st66{fill:#2C2B2D;}
	.st67{fill:#E5A44E;}
	.st68{fill:#A9EAE6;}
	.st69{fill:#F2B15A;}
	.st70{fill:#ED5656;}
	.st71{fill:#EA5353;}
	.st72{fill:#E8E8D9;}
	.st73{fill:#383F4C;}
</style><g id="Layer_3"><path class="st11" d="M32,51.42c-7.03,0-12.75-5.72-12.75-12.75c0-6.76,7.83-18.13,12.75-24.36c4.92,6.23,12.75,17.59,12.75,24.36   C44.75,45.7,39.03,51.42,32,51.42z"/><g><path class="st11" d="M16.25,38.67c0-3.23,1.4-7.11,3.36-10.97c-1.09-1.49-2.85-3.91-3.09-4.22C12.17,29.09,7,37.25,7,41.88    c0,5.26,4.28,9.54,9.54,9.54c1.66,0,3.27-0.44,4.71-1.26C18.18,47.28,16.25,43.21,16.25,38.67z"/><path class="st11" d="M47.47,23.48c-0.67,0.86-1.43,1.88-2.24,3.01l-0.85,1.19c1.96,3.87,3.37,7.76,3.37,10.99    c0,4.53-1.92,8.6-4.99,11.47c1.44,0.82,3.04,1.27,4.7,1.27c5.26,0,9.54-4.28,9.54-9.54C57,36.87,51.34,28.48,47.47,23.48z"/></g></g><g id="Layer_1"><path class="st45" d="M61.35,40c0.1,0.65,0.15,1.28,0.15,1.88c0,0.83-0.67,1.5-1.5,1.5s-1.5-0.67-1.5-1.5   c0-0.44-0.04-0.92-0.12-1.42c-0.13-0.82,0.43-1.58,1.25-1.71C60.45,38.63,61.22,39.18,61.35,40z"/><path class="st45" d="M58.94,47.14c0.71,0.43,0.93,1.36,0.5,2.06c-2.58,4.21-7.05,6.72-11.98,6.72c-2.59,0-5.08-0.71-7.28-2.05   c-2.46,1.32-5.25,2.05-8.18,2.05c-2.95,0-5.73-0.75-8.16-2.06c-2.2,1.35-4.71,2.06-7.3,2.06c-7.74,0-14.04-6.3-14.04-14.04   c0-9.08,12.38-23.53,12.9-24.14c0.29-0.33,0.7-0.52,1.14-0.52c0.44,0,0.85,0.19,1.14,0.52c0.07,0.08,1.51,1.76,3.4,4.29   c4.35-7.09,9.41-13,9.78-13.43c0.57-0.66,1.71-0.66,2.28,0c0.28,0.34,5.39,6.29,9.78,13.43c1.89-2.53,3.33-4.21,3.4-4.29   c0.29-0.33,0.7-0.52,1.14-0.52c0.44,0,0.85,0.19,1.14,0.52c0.21,0.24,5.19,6.04,8.91,12.58c0.41,0.72,0.16,1.64-0.56,2.05   c-0.72,0.4-1.64,0.16-2.05-0.56c-2.53-4.46-5.76-8.65-7.44-10.74c-0.73,0.91-1.76,2.22-2.89,3.77c0.32,0.58,0.63,1.16,0.94,1.75   c0.28,0.55,0.55,1.1,0.81,1.64c0.02,0.04,0.04,0.08,0.06,0.11c0.23,0.5,0.46,1,0.67,1.5c0.01,0,0.01,0.01,0.01,0.01   c0.23,0.55,0.45,1.08,0.65,1.6c0.29,0.78-0.1,1.64-0.88,1.94c-0.17,0.06-0.35,0.09-0.53,0.09c-0.6,0-1.17-0.37-1.4-0.97   c-0.19-0.51-0.41-1.04-0.65-1.59c-0.03-0.08-0.07-0.16-0.11-0.24c-0.19-0.45-0.4-0.9-0.63-1.36c-0.07-0.16-0.15-0.31-0.22-0.47   c-0.2-0.4-0.41-0.8-0.62-1.21c-0.09-0.17-0.19-0.35-0.28-0.52c-0.24-0.44-0.49-0.89-0.75-1.34C38.29,19.9,34.01,14.4,32,11.93   c-1.98,2.43-6.15,7.79-9.47,13.52c-0.01,0.02-0.01,0.03-0.02,0.05c-2.73,4.74-4.29,8.69-4.67,11.79c-0.01,0.07-0.01,0.14-0.02,0.22   c-0.04,0.4-0.07,0.79-0.07,1.16c0,0.44,0.03,0.88,0.07,1.31c0.01,0.09,0.01,0.17,0.02,0.26c0.05,0.43,0.11,0.86,0.2,1.28   c0,0.02,0.01,0.04,0.01,0.05c0.09,0.44,0.2,0.87,0.33,1.29c0.01,0.02,0.02,0.04,0.02,0.07c0.42,1.32,1.02,2.57,1.79,3.7   c0,0,0,0,0,0.01c0.25,0.36,0.52,0.72,0.8,1.06c0.01,0.01,0.02,0.03,0.03,0.04c0.26,0.31,0.53,0.61,0.82,0.9   c0.09,0.09,0.18,0.18,0.27,0.27c0.18,0.17,0.37,0.33,0.55,0.5c0.31,0.26,0.63,0.52,0.97,0.76c0.06,0.05,0.11,0.09,0.17,0.13   c0.22,0.16,0.45,0.31,0.68,0.45c2.19,1.36,4.76,2.17,7.52,2.17c2.62,0,5.1-0.71,7.25-1.98c0.12-0.1,0.25-0.18,0.39-0.23   c2.15-1.37,3.93-3.3,5.12-5.69c0.37-0.74,1.27-1.04,2.01-0.67c0.74,0.37,1.04,1.27,0.67,2.01c-1.1,2.21-2.62,4.1-4.43,5.61   c1.4,0.62,2.9,0.95,4.45,0.95c3.87,0,7.4-1.98,9.42-5.28C57.31,46.93,58.24,46.71,58.94,47.14z M21.02,51.96   c-0.45-0.37-0.88-0.78-1.3-1.19c-0.19-0.2-0.36-0.41-0.55-0.61c-0.19-0.22-0.4-0.44-0.58-0.67c-0.22-0.27-0.43-0.55-0.63-0.84   c-0.13-0.18-0.26-0.36-0.38-0.55c-0.21-0.31-0.4-0.62-0.58-0.95c-0.1-0.18-0.2-0.36-0.3-0.55c-0.17-0.33-0.33-0.66-0.48-1   c-0.09-0.21-0.18-0.42-0.26-0.63c-0.13-0.33-0.25-0.65-0.36-0.99c-0.09-0.26-0.15-0.52-0.23-0.79c-0.08-0.3-0.16-0.6-0.23-0.9   c-0.07-0.35-0.12-0.7-0.18-1.05c-0.03-0.25-0.08-0.48-0.11-0.73c-0.06-0.6-0.1-1.22-0.1-1.84c0-0.41,0.03-0.84,0.07-1.26   c0.01-0.15,0.03-0.29,0.05-0.44c0.03-0.3,0.08-0.6,0.13-0.91c0.03-0.17,0.06-0.34,0.1-0.52c0.07-0.33,0.15-0.68,0.23-1.02   c0.07-0.26,0.14-0.52,0.22-0.79c0.09-0.31,0.18-0.61,0.28-0.93c0.08-0.24,0.17-0.49,0.26-0.75c0.09-0.25,0.19-0.51,0.29-0.77   c0.13-0.36,0.28-0.72,0.43-1.08c0.14-0.34,0.28-0.68,0.44-1.02c0.11-0.26,0.23-0.51,0.35-0.77c0.18-0.37,0.36-0.74,0.54-1.11   c0.12-0.24,0.23-0.47,0.36-0.71c0.26-0.51,0.53-1.01,0.81-1.52c0.04-0.07,0.08-0.15,0.12-0.23c-1.13-1.55-2.16-2.86-2.89-3.77   C13.52,24.82,5.5,35.38,5.5,41.88c0,6.08,4.95,11.04,11.04,11.04C18.1,52.92,19.62,52.59,21.02,51.96z"/><path class="st45" d="M49.16,37.11c0.06,0.53,0.09,1.06,0.09,1.56c0,0.83-0.67,1.5-1.5,1.5s-1.5-0.67-1.5-1.5   c0-0.39-0.03-0.8-0.07-1.23c-0.09-0.82,0.5-1.56,1.32-1.66C48.31,35.7,49.07,36.29,49.16,37.11z"/><path class="st45" d="M41.75,37.17c0.83,0,1.5,0.67,1.5,1.5c0,6.2-5.05,11.25-11.25,11.25c-0.83,0-1.5-0.67-1.5-1.5   c0-0.83,0.67-1.5,1.5-1.5c4.55,0,8.25-3.7,8.25-8.25C40.25,37.84,40.92,37.17,41.75,37.17z"/><path class="st45" d="M38.21,35.14c0.83,0,1.5,0.67,1.5,1.5c0,0.83-0.67,1.5-1.5,1.5H33.5v4.71c0,0.83-0.67,1.5-1.5,1.5   c-0.83,0-1.5-0.67-1.5-1.5v-4.71h-4.71c-0.83,0-1.5-0.67-1.5-1.5c0-0.83,0.67-1.5,1.5-1.5h4.71v-4.71c0-0.83,0.67-1.5,1.5-1.5   c0.83,0,1.5,0.67,1.5,1.5v4.71H38.21z"/><path class="st45" d="M28.04,6.17c0.65,0.51,0.77,1.45,0.26,2.1c-0.19,0.25-0.39,0.5-0.59,0.76c-0.3,0.39-0.74,0.59-1.19,0.59   c-0.32,0-0.64-0.1-0.91-0.31c-0.66-0.5-0.79-1.44-0.28-2.1c0.21-0.27,0.41-0.54,0.61-0.79C26.45,5.77,27.39,5.66,28.04,6.17z"/><path class="st45" d="M24.51,10.79c0.67,0.48,0.82,1.42,0.33,2.09c-1,1.38-1.59,2.26-2.55,3.73c-0.29,0.44-0.77,0.68-1.26,0.68   c-0.28,0-0.56-0.08-0.82-0.25c-0.69-0.45-0.88-1.38-0.43-2.08c0.98-1.5,1.6-2.42,2.64-3.84C22.91,10.45,23.85,10.3,24.51,10.79z"/></g><g id="Fill"/></svg>