<?xml version="1.0" ?><svg id="Layer_1" style="enable-background:new 0 0 512 512;" version="1.1" viewBox="0 0 512 512" xml:space="preserve" xmlns="http://www.w3.org/2000/svg" xmlns:xlink="http://www.w3.org/1999/xlink"><rect height="98.116" style="fill:#FFFFFF;" transform="matrix(0.7078 -0.7064 0.7064 0.7078 -265.2963 226.2123)" width="14.961" x="133.329" y="384.753"/><rect height="31.878" style="fill:#FFFFFF;" transform="matrix(0.7079 -0.7063 0.7063 0.7079 -230.3216 240.025)" width="60.104" x="144.974" y="382.529"/><g><rect height="341.408" style="fill:#3671A6;" width="273.234" x="149.273" y="126.048"/><path d="M339.039,401.705c-1.809-4.601-1.707-7.601-1.698-7.744c0.388-3.496-2.129-6.635-5.625-7.024   c-3.17-0.404-6.635,2.113-7.024,5.625c-0.124,1.181-0.808,10.069,6.433,21.582c-0.164-0.159-0.344-0.284-0.51-0.439   c-0.087-0.082-0.174-0.153-0.265-0.229c-9.823-9.049-22.49-12.436-23.248-12.633c-3.465-0.886-6.883,1.212-7.738,4.6   c-0.87,3.403,1.196,6.868,4.6,7.738c0.087,0.02,3.924,1.132,8.527,3.44c-9.038,2.578-18.485,3.178-27.793,1.815   c0.385-0.409,0.678-0.702,0.696-0.717c2.595-2.346,2.812-6.355,0.466-8.966c-2.346-2.641-6.355-2.843-8.981-0.497   c-0.28,0.249-3.698,3.357-6.635,8.53c1.111-4.273,1.142-7.474,1.142-7.753c0.008-3.496-2.805-6.324-6.308-6.355   c-0.015,0-0.038,0-0.055,0c-3.393,0-6.138,2.684-6.314,6.053c-10.874-6.933-19.692-16.76-25.019-28.645   c-2.311-5.179-3.684-10.573-4.622-16.046c3.809,1.645,6.358,3.497,6.416,3.538c1.158,0.901,2.533,1.336,3.9,1.336   c1.896,0,3.768-0.839,5.019-2.455c2.16-2.75,1.685-6.728-1.064-8.903c-0.479-0.384-8.054-6.13-18.826-7.983   c-0.934-0.472-1.967-0.767-3.184-0.579c-0.204,0.006-0.372,0.109-0.57,0.134c-4.906-0.361-10.272,0.112-15.916,2.336   c-4.149,1.259-8.647-1.103-10.131-5.252c-1.212-3.387,0.707-8.391,3.861-10.1c3.294-1.803,7.295-1.212,10.177,1.678   c0.116,0.124,1.111,1.072,1.236,1.181c13.456,11.654,31.193,8.717,31.963,8.639c3.45-0.606,5.749-3.869,5.175-7.334   c-0.583-3.45-3.854-5.874-7.319-5.221c-0.064-0.009-3.988,0.537-9.07-0.361c3.378-11.812,9.838-22.282,18.842-30.526   c1.793,4.581,1.692,7.568,1.686,7.703c-0.388,3.496,2.136,6.635,5.632,7.024c0.233,0.031,0.466,0.046,0.699,0.046   c3.201,0,5.959-2.424,6.316-5.672c0.132-1.181,0.808-10.069-6.441-21.599c9.914,9.602,23.246,13.115,24.038,13.317   c3.481,0.963,6.837-1.181,7.723-4.583c0.886-3.387-1.165-6.868-4.568-7.753c-0.087-0.02-3.873-1.099-8.436-3.363   c31.166-8.87,65.04,6.029,78.685,36.459C366.639,351.951,359.773,382.648,339.039,401.705z" style="fill:#02A437;"/><path d="M428.878,113.323h-16.891c-3.192-11.67-10.33-44.813,2.48-68.796h7.793c3.511,0,6.371-2.852,6.371-6.363   c0-3.511-2.859-6.363-6.371-6.363H126.735c-13.06,0-25.203,5.213-34.192,14.691c-8.351,8.81-12.889,20.161-12.936,32.226   c0,0.055,0,0.101,0,0.156l-2.852,330.966c-0.109,13.083,2.02,24.768,6.332,34.744c3.45,7.971,8.049,15.321,13.666,21.816   c7.567,8.764,18.778,13.798,30.75,13.798h301.374c3.511,0,6.371-2.859,6.371-6.371V119.686   C435.248,116.174,432.389,113.323,428.878,113.323z M101.78,55.256c6.557-6.915,15.422-10.729,24.954-10.729h273.681   c-3.724,9.074-5.455,18.709-5.928,28.039H139.026c-3.511,0-6.363,2.852-6.363,6.363s2.851,6.363,6.363,6.363h255.485   c0.631,11.38,2.624,21.373,4.294,28.031H129.042c-19.275,0-35.715-14.598-36.655-32.538C91.883,71.229,95.223,62.163,101.78,55.256   z M106.388,458.071c-4.77-5.516-8.678-11.763-11.615-18.553c-3.605-8.328-5.384-18.273-5.291-29.569l2.587-299.975   c9.145,9.821,22.469,16.074,36.974,16.074h7.505v341.408h-9.044C119.238,467.457,111.538,464.038,106.388,458.071z    M422.507,467.457H149.273V126.048h273.234V467.457z"/><path d="M285.754,238.85c29.15,0,52.861-23.711,52.861-52.854s-23.711-52.846-52.861-52.846c-29.143,0-52.846,23.703-52.846,52.846   S256.613,238.85,285.754,238.85z M285.754,145.876c22.127,0,40.12,18.001,40.12,40.12c0,22.127-17.993,40.127-40.12,40.127   c-22.119,0-40.12-18.001-40.12-40.127C245.634,163.877,263.635,145.876,285.754,145.876z"/><path d="M302.504,324.24c0,0-0.015,0-0.015-0.015c-1.756-9.198-10.691-15.196-19.889-13.565c-4.475,0.839-8.344,3.387-10.916,7.148   c-2.564,3.76-3.511,8.298-2.657,12.757c0.839,4.475,3.38,8.344,7.14,10.908c2.859,1.958,6.169,2.968,9.541,2.968   c1.072,0,2.144-0.093,3.216-0.295C298.138,342.404,304.229,333.485,302.504,324.24z M286.546,331.636   c-1.119,0.187-2.284-0.031-3.216-0.668c-0.948-0.653-1.585-1.632-1.803-2.782c-0.202-1.119,0.031-2.268,0.668-3.216   c0.653-0.948,1.632-1.585,2.766-1.786c0.264-0.063,0.528-0.078,0.792-0.078c2.02,0,3.838,1.43,4.227,3.496   C290.431,328.933,288.893,331.186,286.546,331.636z"/><path d="M318.385,361.874c-3.232-2.191-7.101-3.03-10.954-2.3c-3.854,0.73-7.178,2.906-9.385,6.138   c-2.191,3.216-3.014,7.101-2.284,10.971c1.321,6.992,7.49,11.902,14.404,11.902c0.886,0,1.786-0.093,2.704-0.264   c7.909-1.508,13.13-9.168,11.638-17.077c0-0.015,0-0.015,0-0.015c-0.015,0-0.015,0-0.015-0.015   C323.777,367.39,321.601,364.065,318.385,361.874z M310.507,375.812c-1.119,0.326-2.051-0.497-2.237-1.491   c-0.156-0.839,0.544-1.942,2.595-1.942c0.109,0,0.217,0,0.342,0c0.295,0.202,0.668,0.575,0.777,1.196   c0,0.015,0.015,0.015,0.015,0.031C312.185,374.631,311.517,375.625,310.507,375.812z"/><path d="M324.242,309.759c-5.485,1.026-10.224,4.133-13.363,8.732c-3.138,4.615-4.288,10.162-3.248,15.632   c1.026,5.485,4.133,10.224,8.732,13.363c3.511,2.378,7.567,3.62,11.716,3.62c1.306,0,2.61-0.124,3.916-0.373   c11.281-2.129,18.739-13.068,16.626-24.364h-0.015C346.462,315.088,335.508,307.598,324.242,309.759z M329.634,338.24   c-2.129,0.388-4.288-0.046-6.091-1.274c-1.803-1.228-3.014-3.077-3.418-5.205c-0.404-2.129,0.046-4.305,1.274-6.091   c1.228-1.803,3.077-3.014,5.205-3.403c0.497-0.109,1.01-0.156,1.508-0.156c3.823,0,7.256,2.734,8.002,6.619   C336.922,333.144,334.032,337.402,329.634,338.24z"/><circle cx="285.89" cy="186" r="42.229" style="fill:#FFFFFF;"/><path d="M106.388,458.071c-4.77-5.516-8.678-11.763-11.615-18.553c-3.605-8.328-5.384-18.273-5.291-29.569   l2.587-299.975c9.145,9.821,22.469,16.074,36.974,16.074h7.505v341.408h-9.044C119.238,467.457,111.538,464.038,106.388,458.071z" style="fill:#838F9B;"/><path d="M101.78,55.256c6.557-6.915,15.422-10.729,24.954-10.729h273.681   c-3.724,9.074-5.455,18.709-5.928,28.039H139.026c-3.511,0-6.363,2.852-6.363,6.363s2.851,6.363,6.363,6.363h255.485   c0.631,11.38,2.624,21.373,4.294,28.031H129.042c-19.275,0-35.715-14.598-36.655-32.538C91.883,71.229,95.223,62.163,101.78,55.256   z" style="fill:#FFFFFF;"/><polygon points="276.359,210.433 295.162,210.433 295.162,195.401 310.195,195.401 310.195,176.597    295.162,176.597 295.162,161.565 276.359,161.565 276.359,176.597 261.326,176.597 261.326,195.401 276.359,195.401  " style="fill:#C7463B;"/><path d="M313.273,255.297c0.326-0.124,0.824-0.264,1.414-0.264c0.56,0,1.212,0.116,1.88,0.474   c1.585,0.832,2.455,2.758,2.035,4.467c-0.311,1.196-0.979,1.911-1.491,2.285c-1.694,1.266-3.092,2.696-4.164,4.25   c-0.436-1.935-1.072-3.884-1.942-5.827c-0.419-0.986-0.451-2.074-0.078-3.061C311.501,256.151,312.635,255.529,313.273,255.297z" style="fill:#02A437;"/><path d="M236.8,273.865c-1.958-0.761-3.519-2.245-4.389-4.187c-0.933-2.074-0.933-4.452,0-6.527   c0.94-2.106,2.688-3.659,4.926-4.366c0.769-0.249,1.561-0.365,2.346-0.365c2.727,0,5.377,1.414,6.822,3.814   c0.986,1.632,1.367,3.457,1.111,5.291c-0.482,3.403-0.287,6.557,0.575,9.385c0.661,2.159,1.531,4.18,2.556,6.06   C247.095,279.086,242.41,276.024,236.8,273.865z" style="fill:#02A437;"/><path d="M218.698,406.95c-1.289,2.315-4.219,3.216-6.635,2.098c-1.911-0.901-3.294-3.993-2.688-6.029   c0.746-2.533,2.999-3.667,4.918-3.667c0.116-0.046,1.538-0.031,1.694-0.031c3.41-0.249,6.782-1.135,10.015-2.61   C222.91,399.508,220.454,402.911,218.698,406.95z" style="fill:#02A437;"/><path d="M266.556,438.167c0.272,2.658-1.585,5.081-4.242,5.531c-2.113,0.482-4.988-1.367-5.648-3.357   c-0.847-2.533,0.342-4.755,1.919-5.842c0.124-0.093,1.243-0.916,1.367-1.01c2.999-2.439,5.213-5.268,6.845-8.126   C265.873,429.17,265.593,433.475,266.556,438.167z" style="fill:#02A437;"/><path d="M351.792,431.967c1.973,0.762,3.528,2.237,4.398,4.18c0.933,2.083,0.933,4.459,0,6.542   c-0.948,2.098-2.688,3.652-4.91,4.351c-3.45,1.103-7.319-0.342-9.183-3.434c-0.979-1.632-1.367-3.465-1.103-5.299   c0.466-3.403,0.28-6.557-0.575-9.385c-0.668-2.176-1.538-4.195-2.58-6.076C341.506,426.746,346.199,429.808,351.792,431.967z" style="fill:#02A437;"/><path d="M382.869,370.28c3.263-0.637,6.402,1.383,7.241,4.615c0.684,2.564-1.103,6.23-3.527,7.287   c-2.595,1.135-5.563,0.466-7.474-1.864c-0.109-0.139-0.979-1.119-1.103-1.243c-2.155-2.211-4.706-3.956-7.441-5.464   c0.204-0.753,0.289-1.529,0.471-2.287C374.885,371.646,378.775,371.491,382.869,370.28z" style="fill:#02A437;"/><path d="M373.996,315.927c2.502-2.02,4.755-4.507,6.744-7.427c0.87-1.274,2.191-2.144,3.713-2.439   c1.71-0.311,3.309,0.063,4.661,1.087c1.336,1.01,2.144,2.517,2.284,4.242c0.202,2.58-1.508,5.128-3.978,5.92   c-1.71,0.56-3.092,0.249-3.916-0.063c-2.455-0.963-4.879-1.461-7.226-1.461c-0.373,0-0.731,0.015-1.087,0.031   C374.788,315.85,374.4,315.881,373.996,315.927z" style="fill:#02A437;"/><path d="M378.891,329.104c3.947,1.523,8.36,1.632,12.446,0.326c8.049-2.595,13.41-10.597,12.742-19.034   c-0.404-5.299-3.061-10.177-7.272-13.378c-4.211-3.216-9.572-4.475-14.777-3.45c-4.832,0.933-9.012,3.682-11.794,7.753   c-1.942,2.843-4.18,4.988-6.635,6.355c-1.222,0.672-2.388,0.998-3.592,1.518c-9.418-14.164-22.771-24.665-38.042-30.374   c0.203-1.794,0.59-3.472,1.359-4.893c0.233-0.451,0.714-0.948,1.414-1.476c3.092-2.323,5.236-5.554,6.2-9.37   c1.849-7.397-1.71-15.321-8.469-18.856c-4.242-2.222-9.229-2.533-13.69-0.839c-4.475,1.685-8.018,5.205-9.727,9.657   c-1.601,4.133-1.491,8.655,0.295,12.757c1.119,2.533,1.632,4.956,1.508,7.256c-0.022,0.473-0.156,0.856-0.196,1.317   c-12.131-1.003-24.567,0.622-36.508,5.579c-1.601-2.007-3.004-4.188-3.788-6.756c-0.318-1.041-0.365-2.346-0.148-3.9   c0.676-4.755-0.295-9.463-2.812-13.635c-4.871-8.073-14.909-11.879-23.922-9.012c-5.656,1.803-10.286,5.92-12.694,11.296   c-2.409,5.384-2.409,11.553,0,16.944c2.26,5.034,6.332,8.888,11.436,10.846c3.932,1.523,7.132,3.62,9.501,6.215   c0.408,0.45,0.695,0.866,1.069,1.308c-11.246,9.69-19.414,22.182-23.792,36.381c-0.486-0.367-0.989-0.649-1.462-1.064   c-6.658-6.697-16.75-8.157-25.04-3.652c-8.74,4.755-13.115,16.222-9.766,25.576c3.73,10.411,14.971,16.3,25.67,13.176   c0.707-0.202,1.39-0.466,2.051-0.731c1.861-0.731,3.708-1.065,5.529-1.235c0.875,7.761,2.63,15.384,5.784,22.683   c-2.266,1.191-4.654,2.06-7.437,2.216c-0.023,0-0.038,0-0.063,0c-7.847,0-14.878,5.267-17.1,12.788   c-2.393,8.064,1.849,17.559,9.455,21.148c2.447,1.165,5.042,1.71,7.599,1.71c6.285,0,12.361-3.309,15.585-9.09   c0.109-0.202,0.746-1.538,0.839-1.74c0.998-2.317,2.77-4.181,4.887-5.83c5.376,5.998,11.657,11.055,18.633,15.181   c-0.849,1.127-1.626,2.285-2.845,3.267c-6.472,4.475-9.238,12.85-6.728,20.339c2.378,7.101,9.711,12.104,17.131,12.104   c0.916,0,1.841-0.078,2.75-0.233c9.222-1.585,15.702-10.1,14.739-19.438c-0.015-0.202-0.264-1.632-0.311-1.834   c-0.334-1.618-0.288-3.158-0.108-4.647c5.127,1.028,10.297,1.726,15.49,1.726c10.297,0,20.506-2.22,30.139-6.197   c1.615,2.011,3.028,4.2,3.812,6.772c0.311,1.026,0.358,2.346,0.139,3.916c-0.653,4.755,0.311,9.463,2.812,13.627   c3.791,6.262,10.706,9.945,17.822,9.945c2.035,0,4.102-0.311,6.106-0.948c5.656-1.786,10.271-5.904,12.694-11.281   c2.409-5.377,2.409-11.561,0-16.952c-2.268-5.034-6.324-8.888-11.436-10.846c-3.931-1.508-7.117-3.605-9.494-6.215   c-0.4-0.441-0.683-0.85-1.05-1.283c8.721-7.541,15.72-16.585,20.343-26.739c1.102,0.79,2.19,1.615,3.269,2.757   c3.667,4.413,9.105,6.822,14.653,6.822c2.548-0.015,5.128-0.512,7.552-1.569c8.25-3.589,13.068-13.565,10.768-22.22   c-2.517-9.665-12.197-15.74-22.033-13.844c-0.187,0.031-1.71,0.436-1.88,0.497c-1.773,0.506-3.598,0.687-5.461,0.623   c0.748-9.516-0.33-19.172-3.113-28.576c2.032-0.976,4.07-1.684,6.103-1.819C376.669,328.358,377.772,328.653,378.891,329.104z    M313.273,255.297c0.326-0.124,0.824-0.264,1.414-0.264c0.56,0,1.212,0.116,1.88,0.474c1.585,0.832,2.455,2.758,2.035,4.467   c-0.311,1.196-0.979,1.911-1.491,2.285c-1.694,1.266-3.092,2.696-4.164,4.25c-0.436-1.935-1.072-3.884-1.942-5.827   c-0.419-0.986-0.451-2.074-0.078-3.061C311.501,256.151,312.635,255.529,313.273,255.297z M236.8,273.865   c-1.958-0.761-3.519-2.245-4.389-4.187c-0.933-2.074-0.933-4.452,0-6.527c0.94-2.106,2.688-3.659,4.926-4.366   c0.769-0.249,1.561-0.365,2.346-0.365c2.727,0,5.377,1.414,6.822,3.814c0.986,1.632,1.367,3.457,1.111,5.291   c-0.482,3.403-0.287,6.557,0.575,9.385c0.661,2.159,1.531,4.18,2.556,6.06C247.095,279.086,242.41,276.024,236.8,273.865z    M218.698,406.95c-1.289,2.315-4.219,3.216-6.635,2.098c-1.911-0.901-3.294-3.993-2.688-6.029c0.746-2.533,2.999-3.667,4.918-3.667   c0.116-0.046,1.538-0.031,1.694-0.031c3.41-0.249,6.782-1.135,10.015-2.61C222.91,399.508,220.454,402.911,218.698,406.95z    M266.556,438.167c0.272,2.658-1.585,5.081-4.242,5.531c-2.113,0.482-4.988-1.367-5.648-3.357   c-0.847-2.533,0.342-4.755,1.919-5.842c0.124-0.093,1.243-0.916,1.367-1.01c2.999-2.439,5.213-5.268,6.845-8.126   C265.873,429.17,265.593,433.475,266.556,438.167z M351.792,431.967c1.973,0.762,3.528,2.237,4.398,4.18   c0.933,2.083,0.933,4.459,0,6.542c-0.948,2.098-2.688,3.652-4.91,4.351c-3.45,1.103-7.319-0.342-9.183-3.434   c-0.979-1.632-1.367-3.465-1.103-5.299c0.466-3.403,0.28-6.557-0.575-9.385c-0.668-2.176-1.538-4.195-2.58-6.076   C341.506,426.746,346.199,429.808,351.792,431.967z M339.039,401.705c-1.809-4.601-1.707-7.601-1.698-7.744   c0.388-3.496-2.129-6.635-5.625-7.024c-3.17-0.404-6.635,2.113-7.024,5.625c-0.124,1.181-0.808,10.069,6.433,21.582   c-0.164-0.159-0.344-0.284-0.51-0.439c-0.087-0.082-0.174-0.153-0.265-0.229c-9.823-9.049-22.49-12.436-23.248-12.633   c-3.465-0.886-6.883,1.212-7.738,4.6c-0.87,3.403,1.196,6.868,4.6,7.738c0.087,0.02,3.924,1.132,8.527,3.44   c-9.038,2.578-18.485,3.178-27.793,1.815c0.385-0.409,0.678-0.702,0.696-0.717c2.595-2.346,2.812-6.355,0.466-8.966   c-2.346-2.641-6.355-2.843-8.981-0.497c-0.28,0.249-3.698,3.357-6.635,8.53c1.111-4.273,1.142-7.474,1.142-7.753   c0.008-3.496-2.805-6.324-6.308-6.355c-0.015,0-0.038,0-0.055,0c-3.393,0-6.138,2.684-6.314,6.053   c-10.874-6.933-19.692-16.76-25.019-28.645c-2.311-5.179-3.684-10.573-4.622-16.046c3.809,1.645,6.358,3.497,6.416,3.538   c1.158,0.901,2.533,1.336,3.9,1.336c1.896,0,3.768-0.839,5.019-2.455c2.16-2.75,1.685-6.728-1.064-8.903   c-0.479-0.384-8.054-6.13-18.826-7.983c-0.934-0.472-1.967-0.767-3.184-0.579c-0.204,0.006-0.372,0.109-0.57,0.134   c-4.906-0.361-10.272,0.112-15.916,2.336c-4.149,1.259-8.647-1.103-10.131-5.252c-1.212-3.387,0.707-8.391,3.861-10.1   c3.294-1.803,7.295-1.212,10.177,1.678c0.116,0.124,1.111,1.072,1.236,1.181c13.456,11.654,31.193,8.717,31.963,8.639   c3.45-0.606,5.749-3.869,5.175-7.334c-0.583-3.45-3.854-5.874-7.319-5.221c-0.064-0.009-3.988,0.537-9.07-0.361   c3.378-11.812,9.838-22.282,18.842-30.526c1.793,4.581,1.692,7.568,1.686,7.703c-0.388,3.496,2.136,6.635,5.632,7.024   c0.233,0.031,0.466,0.046,0.699,0.046c3.201,0,5.959-2.424,6.316-5.672c0.132-1.181,0.808-10.069-6.441-21.599   c9.914,9.602,23.246,13.115,24.038,13.317c3.481,0.963,6.837-1.181,7.723-4.583c0.886-3.387-1.165-6.868-4.568-7.753   c-0.087-0.02-3.873-1.099-8.436-3.363c31.166-8.87,65.04,6.029,78.685,36.459C366.639,351.951,359.773,382.648,339.039,401.705z    M382.869,370.28c3.263-0.637,6.402,1.383,7.241,4.615c0.684,2.564-1.103,6.23-3.527,7.287c-2.595,1.135-5.563,0.466-7.474-1.864   c-0.109-0.139-0.979-1.119-1.103-1.243c-2.155-2.211-4.706-3.956-7.441-5.464c0.204-0.753,0.289-1.529,0.471-2.287   C374.885,371.646,378.775,371.491,382.869,370.28z M373.996,315.927c2.502-2.02,4.755-4.507,6.744-7.427   c0.87-1.274,2.191-2.144,3.713-2.439c1.71-0.311,3.309,0.063,4.661,1.087c1.336,1.01,2.144,2.517,2.284,4.242   c0.202,2.58-1.508,5.128-3.978,5.92c-1.71,0.56-3.092,0.249-3.916-0.063c-2.455-0.963-4.879-1.461-7.226-1.461   c-0.373,0-0.731,0.015-1.087,0.031C374.788,315.85,374.4,315.881,373.996,315.927z"/><path d="M329.634,338.24c-2.129,0.388-4.288-0.046-6.091-1.274c-1.803-1.228-3.014-3.077-3.418-5.205   c-0.404-2.129,0.046-4.305,1.274-6.091c1.228-1.803,3.077-3.014,5.205-3.403c0.497-0.109,1.01-0.156,1.508-0.156   c3.823,0,7.256,2.734,8.002,6.619C336.922,333.144,334.032,337.402,329.634,338.24z" style="fill:#A3D85D;"/><path d="M286.546,331.636c-1.119,0.187-2.284-0.031-3.216-0.668c-0.948-0.653-1.585-1.632-1.803-2.782   c-0.202-1.119,0.031-2.268,0.668-3.216c0.653-0.948,1.632-1.585,2.766-1.786c0.264-0.063,0.528-0.078,0.792-0.078   c2.02,0,3.838,1.43,4.227,3.496C290.431,328.933,288.893,331.186,286.546,331.636z" style="fill:#A3D85D;"/><path d="M282.905,366.338c0,0-0.013,0-0.013-0.013c-1.487-7.792-9.056-12.872-16.848-11.49c-3.79,0.711-7.068,2.869-9.246,6.055   c-2.172,3.185-2.974,7.029-2.25,10.806c0.711,3.79,2.863,7.068,6.048,9.24c2.422,1.658,5.225,2.514,8.082,2.514   c0.908,0,1.816-0.079,2.724-0.25C279.207,381.725,284.366,374.17,282.905,366.338z M269.388,372.604   c-0.948,0.158-1.935-0.026-2.724-0.566c-0.803-0.553-1.342-1.382-1.527-2.356c-0.171-0.948,0.026-1.921,0.566-2.724   c0.553-0.803,1.382-1.342,2.343-1.513c0.224-0.053,0.447-0.066,0.671-0.066c1.711,0,3.251,1.211,3.58,2.961   C272.678,370.314,271.376,372.222,269.388,372.604z"/><path d="M269.388,372.604c-0.948,0.158-1.935-0.026-2.724-0.566c-0.803-0.553-1.342-1.382-1.527-2.356   c-0.171-0.948,0.026-1.921,0.566-2.724c0.553-0.803,1.382-1.342,2.343-1.513c0.224-0.053,0.447-0.066,0.671-0.066   c1.711,0,3.251,1.211,3.58,2.961C272.678,370.314,271.376,372.222,269.388,372.604z" style="fill:#A3D85D;"/><path d="M310.507,375.812c-1.119,0.326-2.051-0.497-2.237-1.491c-0.156-0.839,0.544-1.942,2.595-1.942   c0.109,0,0.217,0,0.342,0c0.295,0.202,0.668,0.575,0.777,1.196c0,0.015,0.015,0.015,0.015,0.031   C312.185,374.631,311.517,375.625,310.507,375.812z" style="fill:#A3D85D;"/></g></svg>