<?xml version="1.0" ?><svg id="_x33_0" style="enable-background:new 0 0 64 64;" version="1.1" viewBox="0 0 64 64" xml:space="preserve" xmlns="http://www.w3.org/2000/svg" xmlns:xlink="http://www.w3.org/1999/xlink"><g><rect height="5" style="fill:#F0BC5E;" width="6" x="33" y="19"/><rect height="5" style="fill:#F0BC5E;" width="6" x="9" y="19"/><rect height="5" style="fill:#F0BC5E;" width="6" x="33" y="31"/><rect height="5" style="fill:#F0BC5E;" width="6" x="9" y="31"/><rect height="5" style="fill:#F0BC5E;" width="6" x="33" y="43"/><rect height="5" style="fill:#F0BC5E;" width="6" x="9" y="43"/><rect height="7" style="fill:#F0BC5E;" width="13" x="44" y="55"/><rect height="6" style="fill:#F0BC5E;" width="15" x="42" y="29"/><g><rect height="6" width="2" x="49" y="29"/></g><rect height="6" style="fill:#F0BC5E;" width="15" x="42" y="41"/><rect height="7" style="fill:#F0BC5E;" width="18" x="15" y="55"/><path d="M61,19v-2.219c0-0.919-0.623-1.717-1.516-1.94L44.242,11.03L43,11.027v-2.32c0-0.846-0.536-1.604-1.334-1.886L26.276,1.39   c-1.463-0.518-3.09-0.518-4.553,0L6.334,6.822C5.536,7.104,5,7.861,5,8.708V11c-1.103,0-2,0.897-2,2v2c0,1.103,0.897,2,2,2v6   c-1.103,0-2,0.897-2,2v2c0,1.103,0.897,2,2,2v6c-1.103,0-2,0.897-2,2v2c0,1.103,0.897,2,2,2v6H3c-1.103,0-2,0.897-2,2v2   c0,1.103,0.897,2,2,2v8c0,1.103,0.897,2,2,2h54c1.103,0,2-0.897,2-2V25c1.103,0,2-0.897,2-2v-2C63,19.897,62.103,19,61,19z M45,15   v-1.719l14,3.5V19H43v-2C44.103,17,45,16.103,45,15z M5,13h13.342v-2H7V8.708l15.39-5.432c1.035-0.366,2.186-0.366,3.221,0   L41,8.708v2.316L29.658,11v2H43v2H31v-1h-2v9h-4v-3h-2v3h-4v-9h-2v1H5V13z M31,39v-2h12v2H31z M41,41v6H31v-6H41z M31,35v-6h10v6   H31z M31,27v-2h10h2v2H31z M31,23v-6h10v6H31z M25,39v-6h4v6H25z M29,41v6h-4v-6H29z M25,31v-6h4v6H25z M19,39v-6h4v6H19z M23,41v6   h-4v-6H23z M19,31v-6h4v6H19z M17,17v6H7v-6H17z M5,25h12v2H5V25z M17,29v6H7v-6H17z M5,37h12v2H5V37z M17,41v6H7v-6H17z M3,51   l-0.002-2H3h42v2H3z M7,61H5v-8h2V61z M11,61H9v-8h2V61z M35,61h-6v-6h-2v6h-6v-6h-2v6h-6v-8h22V61z M39,61h-2v-8h2V61z M43,61h-2   v-8h2V61z M59,61h-8v-6h-2v6h-4v-8c1.103,0,2-0.897,2-2v-2c0-1.103-0.897-2-2-2h-2v-6c1.103,0,2-0.897,2-2v-2c0-1.103-0.897-2-2-2   v-6c1.103,0,2-0.897,2-2v-2h14V61z M61,23H43v-2h18V23z"/><g><path d="M24,21c-3.859,0-7-3.14-7-7s3.141-7,7-7s7,3.14,7,7S27.859,21,24,21z" style="fill:#F0BC5E;"/></g><polygon points="27,13 25,13 25,11 23,11 23,13 21,13 21,15 23,15 23,17 25,17 25,15 27,15  "/><g><rect height="6" width="2" x="49" y="41"/></g></g></svg>