<?xml version="1.0" ?><svg id="Layer_5" style="enable-background:new 0 0 64 64;" version="1.1" viewBox="0 0 64 64" xml:space="preserve" xmlns="http://www.w3.org/2000/svg" xmlns:xlink="http://www.w3.org/1999/xlink"><style type="text/css">
	.st0{fill:#5F605A;}
	.st1{fill:#FFFFFF;}
	.st2{fill:#DAD4D4;}
	.st3{fill:#A29292;}
	.st4{fill:#9E7059;}
	.st5{fill:#FFD5C2;}
	.st6{fill:#EE2D02;}
	.st7{fill:#FFA180;}
	.st8{fill:#DB2007;}
	.st9{fill:#BFA599;}
	.st10{fill:#995B3F;}
	.st11{fill:#472B3C;}
	.st12{fill:#0DCEBB;}
	.st13{fill:#02998E;}
	.st14{fill:#EAEAEA;}
	.st15{fill:#FFCA3A;}
	.st16{fill:#F9B223;}
	.st17{fill:#F49E06;}
	.st18{fill:#828282;}
	.st19{fill:#6E7070;}
	.st20{fill:#726C6C;}
	.st21{fill:#D8D4D0;}
	.st22{fill:#46D3C8;}
	.st23{fill:#02A094;}
	.st24{fill:#41BFB0;}
	.st25{fill:#46F7E6;}
	.st26{fill:#F9E4E1;}
	.st27{fill:#02AF9E;}
	.st28{fill:#6A4C93;}
	.st29{fill:#5C3D99;}
	.st30{fill:#E2886D;}
	.st31{fill:#FFDCD2;}
	.st32{fill:#8AC926;}
	.st33{fill:#DFDAD4;}
	.st34{fill:#FF9700;}
	.st35{fill:#B7B1AB;}
	.st36{fill:#B9DEEF;}
	.st37{fill:#9AC2D8;}
	.st38{fill:#73BDE5;}
	.st39{fill:#999999;}
	.st40{fill:#F7F7F7;}
	.st41{fill:#7C4D4D;}
	.st42{fill:#897C7C;}
	.st43{fill:#B51F1F;}
	.st44{fill:#991D1D;}
	.st45{fill:#D7F9F5;}
	.st46{fill:#EA940A;}
	.st47{fill:#607F0A;}
	.st48{fill:#C92206;}
	.st49{fill:none;stroke:#A53068;stroke-width:2;stroke-linecap:round;stroke-linejoin:round;stroke-miterlimit:10;}
	.st50{fill:#B32202;}
	.st51{fill:#727272;}
	.st52{fill:#FCD1C0;}
	.st53{fill:#C6BDBD;}
	.st54{fill:#4C308E;}
	.st55{fill:#8E7979;}
	.st56{fill:#7F6F6F;}
	.st57{fill:#F4EDED;}
	.st58{fill:#E75502;}
	.st59{fill:#D9A42A;}
	.st60{fill:#EDEDEB;}
	.st61{fill:#7AA822;}
	.st62{fill:#F26A07;}
	.st63{fill:#E25B00;}
	.st64{fill:#7D5A34;}
	.st65{fill:#774D23;}
	.st66{fill:#F9DEC5;}
	.st67{fill:#E8F7F9;}
	.st68{fill:#EFE8F9;}
	.st69{fill:#F9B7B7;}
	.st70{fill:#C25B3C;}
	.st71{fill:#E0907E;}
	.st72{fill:#EAE7E5;}
	.st73{fill:none;stroke:#472B3C;stroke-width:2;stroke-linecap:round;stroke-linejoin:round;stroke-miterlimit:10;}
	.st74{fill:#00B2A9;}
	.st75{fill:#2DE0CA;}
	.st76{fill:#665D5D;}
	.st77{fill:#E5E2DF;}
	.st78{fill:#048777;}
	.st79{fill:#FFF2DC;}
	.st80{fill:#F9B9A5;}
	.st81{fill:#07AA96;}
	.st82{fill:#FF595E;}
	.st83{fill:#8E8282;}
	.st84{fill:#474744;}
	.st85{fill:#E2E0E1;}
	.st86{fill:#F7F1E2;}
</style><g><path class="st74" d="M22.77,55.19c0.12,0.49-0.15,0.98-0.63,1.16c-0.81,0.3-1.66,0.5-2.55,0.59c-0.03,0-0.07,0.01-0.1,0.01   c-0.54,0-0.99-0.44-0.99-0.99v-2.05c0-0.49,0.36-0.9,0.84-0.96c0.55-0.08,1.09-0.22,1.59-0.42c0.57-0.23,1.22,0.06,1.36,0.66   l0.2,0.81L22.77,55.19z"/><path class="st74" d="M8,21.02c-1.8,1.16-3,3.18-3,5.48V34c0,0.55-0.45,1-1,1H3H2c-0.55,0-1-0.45-1-1v-7.5c0-4.57,2.92-8.46,7-9.9   c1.09-0.39,2.27-0.6,3.5-0.6H12h3.27h3.23c4.19,0,7.81,2.46,9.49,6.01c0.15,0.32,0.29,0.65,0.41,0.99c0.39,1.09,0.6,2.27,0.6,3.5   V32v2c0,0.55-0.45,1-1,1h-1h-1c-0.55,0-1-0.45-1-1v-7.5c0-3.59-2.91-6.5-6.5-6.5H12h-0.5C10.21,20,9.01,20.38,8,21.02z"/><path class="st74" d="M9.07,52.53c0.5,0.2,1.04,0.34,1.59,0.42c0.48,0.06,0.84,0.47,0.84,0.96v2.05c0,0.59-0.51,1.04-1.09,0.98   C9.57,56.86,8.77,56.67,8,56.4c-0.05-0.02-0.09-0.03-0.14-0.05c-0.48-0.18-0.75-0.67-0.63-1.16L7.51,54l0.2-0.81   c0.05-0.2,0.15-0.36,0.29-0.49C8.27,52.45,8.69,52.38,9.07,52.53z"/><path class="st82" d="M36,19v4h-2v2h-4v-2h-1.6c-0.12-0.34-0.26-0.67-0.41-0.99L28,22v-3h2v-2h4v2H36z"/><path class="st1" d="M47.05,34.39C47.65,34.14,48.31,34,49,34c1.13,0,2.17,0.37,3,1V10h-5.81H40v1.08c0,0.51-0.45,0.92-1,0.92H25   c-0.55,0-1-0.41-1-0.92V10h-6.18H12v6h3.27h3.23c4.19,0,7.81,2.46,9.49,6.01L28,22v-3h2v-2h4v2h2v4h-2v2h-4v-2h-1.6   c0.39,1.09,0.6,2.27,0.6,3.5V32v2c0,0.55-0.45,1-1,1h-1h-1c-0.55,0-1-0.45-1-1v-7.5c0-3.59-2.91-6.5-6.5-6.5H12v35.96V58   c0,0.55,0.5,1,1.11,1h6.38h31.4C51.5,59,52,58.55,52,58V43c-0.83,0.63-1.87,1-3,1c-2.07,0-3.85-1.26-4.61-3.05   C44.14,40.35,44,39.69,44,39C44,36.93,45.26,35.15,47.05,34.39z M22.14,56.35c-0.81,0.3-1.66,0.5-2.55,0.59   c-0.03,0-0.07,0.01-0.1,0.01c-0.54,0-0.99-0.44-0.99-0.99v-2.05c0-0.49,0.36-0.9,0.84-0.96c0.55-0.08,1.09-0.22,1.59-0.42   c0.57-0.23,1.22,0.06,1.36,0.66l0.2,0.81l0.28,1.19C22.89,55.68,22.62,56.17,22.14,56.35z"/><path class="st13" d="M28.46,23.19c-0.13-0.41-0.29-0.8-0.47-1.18c-0.781-1.65-1.984-3.059-3.466-4.101   c-0.32,1.374-0.796,2.721-1.406,4.019C24.281,23.102,25,24.717,25,26.5V34c0,0.55,0.45,1,1,1h1h1c0.55,0,1-0.45,1-1v-7.5   C29,25.34,28.81,24.23,28.46,23.19z"/><path class="st15" d="M40,10v1.08c0,0.51-0.45,0.92-1,0.92H25c-0.55,0-1-0.41-1-0.92V10V6V5.44V3.75c0-0.51,0.45-0.92,1-0.92h4.15   c0.41,0,0.82-0.21,0.95-0.58C30.37,1.53,31.12,1,32,1c0.88,0,1.63,0.53,1.9,1.25c0.13,0.37,0.54,0.58,0.95,0.58H39   c0.55,0,1,0.41,1,0.92v1.69V10z"/><path class="st34" d="M40,3.75v7.33c0,0.51-0.45,0.92-1,0.92h-6.72c3.29-1.28,5.67-4.89,5.72-9.17h1C39.55,2.83,40,3.24,40,3.75z"/><path class="st3" d="M52,43c-0.83,0.63-1.87,1-3,1c-2.07,0-3.85-1.26-4.61-3.05C44.14,40.35,44,39.69,44,39   c0-2.07,1.26-3.85,3.05-4.61C47.65,34.14,48.31,34,49,34c1.13,0,2.17,0.37,3,1c1.21,0.91,2,2.37,2,4S53.21,42.09,52,43z M49,41   c1.1,0,2-0.9,2-2s-0.9-2-2-2s-2,0.9-2,2S47.9,41,49,41z"/><circle class="st0" cx="49" cy="39" r="2"/><path class="st83" d="M52,35c-0.168-0.127-0.35-0.236-0.534-0.341c-0.293,0.991-0.703,1.926-1.222,2.79   C50.701,37.816,51,38.372,51,39c0,1.1-0.9,2-2,2c-0.521,0-0.994-0.207-1.351-0.537c-0.777,0.638-1.642,1.181-2.587,1.609   C45.978,43.241,47.399,44,49,44c1.13,0,2.17-0.37,3-1c1.21-0.91,2-2.37,2-4S53.21,35.91,52,35z"/><path class="st84" d="M50.245,37.449c-0.688,1.146-1.561,2.166-2.596,3.014C48.006,40.793,48.479,41,49,41c1.1,0,2-0.9,2-2   C51,38.372,50.701,37.816,50.245,37.449z"/><path class="st13" d="M7.744,53.107c-0.01,0.029-0.026,0.052-0.034,0.083L7.51,54l-0.28,1.19c-0.12,0.49,0.15,0.98,0.63,1.16   C7.91,56.37,7.95,56.38,8,56.4c0.77,0.27,1.57,0.46,2.41,0.54c0.58,0.06,1.09-0.39,1.09-0.98v-0.212   C10.083,55.032,8.717,54.267,7.744,53.107z"/><path class="st13" d="M22.49,54l-0.017-0.068c-0.969,1.084-2.677,0.936-3.973,1.475v0.554c0,0.55,0.45,0.99,0.99,0.99   c0.03,0,0.07-0.01,0.1-0.01c0.89-0.09,1.74-0.29,2.55-0.59c0.48-0.18,0.75-0.67,0.63-1.16L22.49,54z"/><g><path class="st18" d="M11.5,16H12v-6h5.82H24V6h-1.45H9.14C8.51,6,8,6.45,8,7v9.605l0.19-0.065C9.23,16.19,10.34,16,11.5,16z"/><path class="st18" d="M54.91,6H40v4h6.19H52v25c1.21,0.91,2,2.37,2,4s-0.79,3.09-2,4v15c0,0.55-0.5,1-1.11,1h-31.4h-6.38    C12.5,59,12,58.55,12,58v-2.04V20h-0.5c-1.29,0-2.49,0.38-3.5,1.02v31.69c0.27-0.26,0.69-0.33,1.07-0.18    c0.5,0.2,1.04,0.34,1.59,0.42c0.48,0.06,0.84,0.47,0.84,0.96v2.05c0,0.59-0.51,1.04-1.09,0.98C9.57,56.86,8.77,56.67,8,56.4V62    c0,0.55,0.49,1,1.09,1h45.82c0.6,0,1.09-0.45,1.09-1V39V7C56,6.45,55.51,6,54.91,6z"/></g><path class="st85" d="M47.05,34.39C47.65,34.14,48.31,34,49,34c1.13,0,2.17,0.37,3,1V12.503C45.007,30.138,36.626,49.65,21.28,59   h29.61C51.5,59,52,58.55,52,58V43c-0.83,0.63-1.87,1-3,1c-2.07,0-3.85-1.26-4.61-3.05C44.14,40.35,44,39.69,44,39   C44,36.93,45.26,35.15,47.05,34.39z"/><path class="st0" d="M54.91,6h-0.338c-0.843,2.123-1.697,4.297-2.572,6.503V35c1.21,0.91,2,2.37,2,4s-0.79,3.09-2,4v15   c0,0.55-0.5,1-1.11,1H21.28c-2.776,1.691-5.781,3.047-9.046,4H54.91c0.6,0,1.09-0.45,1.09-1V39V7C56,6.45,55.51,6,54.91,6z"/><path class="st86" d="M27.083,4.25c-1.93,0-1.934,3,0,3C29.014,7.25,29.017,4.25,27.083,4.25z"/><path class="st86" d="M29.458,4.417c-0.643,0-0.644,1,0,1C30.102,5.417,30.103,4.417,29.458,4.417z"/><g><path class="st11" d="M54.909,5H41.643C41.431,4.907,41.217,4.82,41,4.739V3.75c0-1.057-0.897-1.917-2-1.917h-4.148l-0.048-0.011    C34.362,0.729,33.248,0,32,0c-1.255,0-2.375,0.736-2.811,1.841c-0.001-0.01-0.014-0.011-0.041-0.008H25c-1.103,0-2,0.86-2,1.917    v0.984C22.783,4.815,22.57,4.906,22.359,5H9.143C7.961,5,7,5.897,7,7v8.919C2.889,17.674,0,21.755,0,26.5V34c0,1.103,0.897,2,2,2    v10.5c0,3.242,1.665,6.215,4.372,7.963l-0.118,0.491C6.065,55.737,6.38,56.531,7,56.999V62c0,1.103,0.938,2,2.091,2h45.818    C56.062,64,57,63.103,57,62V7C57,5.897,56.062,5,54.909,5z M44.019,9H41V7h0.207C42.239,7.505,43.183,8.182,44.019,9z M25,3.833    h4.148c0.863,0,1.625-0.497,1.894-1.237C31.169,2.245,31.563,2,32,2s0.831,0.245,0.958,0.596c0.269,0.74,1.03,1.237,1.894,1.237    L39,3.75V11l-14,0.083V3.833z M39,13c1.103,0,2-0.86,2-1.917V11h4.676C47.144,13.217,48,15.993,48,18.959V33.09    c-2.833,0.478-5,2.942-5,5.91c0,0.341,0.035,0.674,0.09,1H30c-0.552,0-1,0.447-1,1s0.448,1,1,1h13.812c1.039,1.79,2.973,3,5.188,3    c0.703,0,1.374-0.128,2.001-0.35l0.01,13.309C51.004,57.968,50.964,58,50.889,58H13.111c-0.07-0.001-0.108-0.027-0.111-0.008V21    h5.5c2.868,0,5.228,2.208,5.475,5.013c-0.285,0.007-0.564,0.122-0.756,0.362l-3.302,4.128l-1.21-1.21    c-0.391-0.391-1.023-0.391-1.414,0s-0.391,1.023,0,1.414l2,2C19.481,32.896,19.735,33,20,33c0.019,0,0.037-0.001,0.055-0.002    c0.284-0.016,0.548-0.151,0.726-0.373L24,28.601V34c0,0.389,0.116,0.749,0.309,1.056c-0.385-0.125-0.822-0.015-1.09,0.319    l-3.302,4.128l-1.21-1.21c-0.391-0.391-1.023-0.391-1.414,0s-0.391,1.023,0,1.414l2,2C19.481,41.896,19.735,42,20,42    c0.019,0,0.037-0.001,0.055-0.002c0.284-0.016,0.548-0.151,0.726-0.373l4-5c0.221-0.277,0.254-0.629,0.149-0.942    C25.24,35.881,25.605,36,26,36v10.5c0,2.352-1.111,4.53-2.951,5.94c-0.186-0.322-0.453-0.594-0.791-0.768    c-0.524-0.27-1.145-0.295-1.702-0.07c-0.431,0.174-0.883,0.293-1.344,0.353c-0.976,0.127-1.711,0.967-1.711,1.955v2.054    c0,0.561,0.239,1.098,0.656,1.474c0.367,0.331,0.844,0.512,1.333,0.512c0.068,0,0.136-0.003,0.205-0.01    c0.958-0.1,1.899-0.319,2.798-0.653c0.951-0.353,1.49-1.354,1.254-2.331l-0.118-0.491C26.335,52.715,28,49.742,28,46.5V36    c1.103,0,2-0.897,2-2v-7.5c0-0.171-0.018-0.336-0.026-0.505C29.983,25.995,29.991,26,30,26h4c0.552,0,1-0.447,1-1v-1h1    c0.552,0,1-0.447,1-1v-4c0-0.553-0.448-1-1-1h-1v-1c0-0.553-0.448-1-1-1h-4c-0.552,0-1,0.447-1,1v1h-1    c-0.489,0-0.877,0.357-0.964,0.821C24.93,16.482,21.888,15,18.5,15h-1.964c0.403-1.459,1.024-2.81,1.817-4H23v0.083    C23,12.14,23.897,13,25,13H39z M49,43c-2.206,0-4-1.794-4-4s1.794-4,4-4s4,1.794,4,4S51.206,43,49,43z M51,33.35    c-0.322-0.114-0.656-0.202-1-0.26V18.959c0-2.894-0.73-5.632-2.005-7.959H51V33.35z M8.205,55.41    c-0.001,0-0.006,0.013-0.007,0.013l0.497-1.968c0.589,0.238,1.207,0.401,1.805,0.454l0.012,2.039    C9.722,55.867,8.946,55.686,8.205,55.41z M9.445,51.602C9.3,51.543,9.151,51.503,9,51.479V21.607c0.61-0.313,1.285-0.517,2-0.582    v30.977c-0.07-0.017-0.138-0.038-0.211-0.047C10.328,51.895,9.876,51.775,9.445,51.602z M21.804,55.405    c-0.001,0.002-0.007,0.005-0.009,0.005c-0.741,0.275-1.517,0.457-2.295,0.553l-0.031-2.025c0.63-0.081,1.248-0.244,1.852-0.514    L21.804,55.405z M34,20h1v2h-1c-0.552,0-1,0.447-1,1v1h-2v-1c0-0.553-0.448-1-1-1h-0.919c-0.025-0.058-0.056-0.111-0.081-0.169V20    h1c0.552,0,1-0.447,1-1v-1h2v1C33,19.553,33.448,20,34,20z M13,15v-4h3.014c-0.678,1.229-1.201,2.575-1.544,4H13z M23,7v2h-2.995    c0.835-0.818,1.77-1.498,2.782-2H23z M8.987,7.052C8.995,7.041,9.045,7,9.143,7h10.091c-0.687,0.595-1.321,1.265-1.894,2H12    c-0.552,0-1,0.447-1,1v5.025c-0.684,0.03-1.354,0.112-2.002,0.257L8.987,7.052z M2,26.5c0-5.238,4.262-9.5,9.5-9.5h7    c5.238,0,9.5,4.262,9.5,9.5l0.001,7.5H26v-7.5c0-4.136-3.364-7.5-7.5-7.5h-7C7.364,19,4,22.364,4,26.5V34H2V26.5z M4,46.5V36    c1.103,0,2-0.897,2-2v-7.5c0-1.173,0.372-2.258,1-3.152v29.014c-0.017,0.026-0.033,0.051-0.049,0.078C5.111,51.03,4,48.852,4,46.5    z M54.909,62H9.091C9.034,62,9.004,61.979,9,61.993v-4.274c0.43,0.096,0.865,0.173,1.305,0.219    c0.068,0.008,0.137,0.011,0.205,0.011c0.167,0,0.33-0.028,0.49-0.069V58c0,1.103,0.947,2,2.111,2h37.777    C52.053,60,53,59.103,53,58V43.46c1.224-1.099,2-2.688,2-4.46s-0.776-3.36-2-4.46V10c0-0.553-0.448-1-1-1h-5.311    c-0.571-0.736-1.21-1.403-1.901-2h10.121C54.966,7,54.996,7.021,55,7.007l0.009,54.959C55.003,61.974,54.971,62,54.909,62z"/><path class="st11" d="M31,32c0,0.553,0.448,1,1,1h14c0.552,0,1-0.447,1-1s-0.448-1-1-1H32C31.448,31,31,31.447,31,32z"/><path class="st11" d="M30,51h16c0.552,0,1-0.447,1-1s-0.448-1-1-1H30c-0.552,0-1,0.447-1,1S29.448,51,30,51z"/><path class="st11" d="M20,51c0.019,0,0.037-0.001,0.055-0.002c0.284-0.016,0.548-0.151,0.726-0.373l4-5    c0.345-0.432,0.275-1.061-0.156-1.406c-0.431-0.344-1.061-0.274-1.405,0.156l-3.302,4.128l-1.21-1.21    c-0.391-0.391-1.023-0.391-1.414,0s-0.391,1.023,0,1.414l2,2C19.481,50.896,19.735,51,20,51z"/><path class="st11" d="M49,36c-1.654,0-3,1.346-3,3s1.346,3,3,3s3-1.346,3-3S50.654,36,49,36z M49,40c-0.551,0-1-0.448-1-1    s0.449-1,1-1s1,0.448,1,1S49.551,40,49,40z"/></g><path class="st40" d="M48.682,38.25c-0.643,0-0.645,1,0,1C49.326,39.25,49.327,38.25,48.682,38.25z"/></g></svg>