<?xml version="1.0" ?><svg id="Layer_1" style="enable-background:new 0 0 468 468;" version="1.1" viewBox="0 0 468 468" xml:space="preserve" xmlns="http://www.w3.org/2000/svg" xmlns:xlink="http://www.w3.org/1999/xlink"><g><g><rect height="251.716" style="fill:#ABE1F4;" width="237.633" x="111.276" y="140.522"/><rect height="251.716" style="fill:#91D3E2;" width="20" x="111.276" y="140.522"/><path d="M348.908,397.238H111.276c-2.761,0-5-2.238-5-5V140.522c0-2.762,2.239-5,5-5h237.632    c2.762,0,5,2.238,5,5v251.716C353.908,395,351.67,397.238,348.908,397.238z M116.276,387.238h227.632V145.522H116.276V387.238z" style="fill:#333333;"/><path d="M39.34,427.633V180.522c0-22.091,17.909-40,40-40h31.936v322.441H74.67    C55.158,462.963,39.34,447.145,39.34,427.633z" style="fill:#29B6F6;"/><path d="M59.34,427.633V180.522c0-22.092,17.909-40,40-40h-20c-22.091,0-40,17.908-40,40v247.111    c0,19.512,15.818,35.33,35.33,35.33h20C75.158,462.963,59.34,447.146,59.34,427.633z" style="fill:#00AAE5;"/><path d="M111.276,467.963H74.67c-22.238,0-40.33-18.092-40.33-40.33v-247.11c0-24.813,20.187-45,45-45    h31.936c2.761,0,5,2.238,5,5v322.44C116.276,465.725,114.037,467.963,111.276,467.963z M79.34,145.522c-19.299,0-35,15.701-35,35    v247.11c0,16.724,13.606,30.33,30.33,30.33h31.606v-312.44H79.34z" style="fill:#333333;"/><path d="M348.908,463H74.381C54.841,463,39,447.159,39,427.619v0c0-19.54,15.841-35.381,35.381-35.381    h274.527V463z" style="fill:#F7F7F7;"/><path d="M40.443,417.619c-0.933,3.172-1.443,6.526-1.443,10l0,0C39,447.159,54.841,463,74.381,463h274.527    v-20H74.381C58.315,443,44.758,432.288,40.443,417.619z" style="fill:#EDEDED;"/><path d="M348.908,468H74.381C52.115,468,34,449.885,34,427.619s18.115-40.381,40.381-40.381h274.527    c2.762,0,5,2.238,5,5V463C353.908,465.762,351.67,468,348.908,468z M74.381,397.238C57.629,397.238,44,410.867,44,427.619    S57.629,458,74.381,458h269.527v-60.762H74.381z" style="fill:#333333;"/></g><g><path d="M286.58,175.533c-14.434,0-28.182-4.548-39.756-13.152c-11.577-8.606-19.879-20.451-24.008-34.255    l-19.05-63.686c-3.651-12.207-1.379-25.072,6.235-35.298C217.641,18.884,229.368,13,242.176,13h20.67v10h-20.67    c-9.616,0-18.42,4.416-24.153,12.115c-5.708,7.666-7.412,17.31-4.675,26.46l19.05,63.686    c7.092,23.712,29.374,40.272,54.183,40.272s47.091-16.561,54.184-40.272l19.05-63.686c2.736-9.15,1.032-18.794-4.676-26.46    C349.404,27.416,340.601,23,330.983,23h-22.056V13h22.056c12.808,0,24.535,5.884,32.175,16.143    c7.614,10.226,9.887,23.091,6.235,35.298l-19.05,63.686c-4.129,13.804-12.431,25.648-24.008,34.255    C314.762,170.985,301.014,175.533,286.58,175.533z" style="fill:#333333;"/><g><path d="M259.542,31h-4.067c-7.18,0-13-5.82-13-13v0c0-7.18,5.82-13,13-13h4.067c7.18,0,13,5.82,13,13v0     C272.542,25.18,266.721,31,259.542,31z" style="fill:#E0E0E0;"/><path d="M259.542,36h-4.067c-9.925,0-18-8.075-18-18s8.075-18,18-18h4.067c9.925,0,18,8.075,18,18     S269.467,36,259.542,36z M255.475,10c-4.411,0-8,3.589-8,8s3.589,8,8,8h4.067c4.411,0,8-3.589,8-8s-3.589-8-8-8H255.475z" style="fill:#333333;"/></g><g><path d="M318.186,30h-5.067c-6.904,0-12.5-5.596-12.5-12.5v0c0-6.904,5.596-12.5,12.5-12.5h5.067     c6.904,0,12.5,5.596,12.5,12.5v0C330.686,24.404,325.09,30,318.186,30z" style="fill:#E0E0E0;"/><path d="M318.186,35h-5.067c-9.649,0-17.5-7.851-17.5-17.5S303.469,0,313.118,0h5.067     c9.649,0,17.5,7.851,17.5,17.5S327.835,35,318.186,35z M313.118,10c-4.136,0-7.5,3.364-7.5,7.5s3.364,7.5,7.5,7.5h5.067     c4.136,0,7.5-3.364,7.5-7.5s-3.364-7.5-7.5-7.5H313.118z" style="fill:#333333;"/></g><path d="M411.136,345.436c-2.762,0-5-2.238-5-5v-97.167c0-14.358-11.715-26.039-26.114-26.039    c-14.398,0-26.113,11.681-26.113,26.039v15.649c0,19.9-16.223,36.09-36.164,36.09s-36.164-16.189-36.164-36.09v-88.385    c0-2.762,2.238-5,5-5s5,2.238,5,5v88.385c0,14.386,11.737,26.09,26.164,26.09s26.164-11.704,26.164-26.09v-15.649    c0-19.872,16.2-36.039,36.113-36.039s36.114,16.167,36.114,36.039v97.167C416.136,343.197,413.897,345.436,411.136,345.436z" style="fill:#333333;"/><g><ellipse cx="411.136" cy="345.69" rx="17.864" ry="17.822" style="fill:#E0E0E0;"/><path d="M411.136,368.512c-12.607,0-22.864-10.237-22.864-22.821s10.257-22.821,22.864-22.821     S434,333.106,434,345.69S423.743,368.512,411.136,368.512z M411.136,332.869c-7.094,0-12.864,5.752-12.864,12.821     s5.771,12.821,12.864,12.821S424,352.76,424,345.69S418.229,332.869,411.136,332.869z" style="fill:#333333;"/></g></g><g><ellipse cx="230.092" cy="266.38" rx="70.168" ry="70" style="fill:#ED4848;"/><path d="M182.608,266.38c0-34.806,25.469-63.666,58.826-69.077c-3.693-0.599-7.479-0.923-11.342-0.923    c-38.753,0-70.168,31.34-70.168,70s31.416,70,70.168,70c3.863,0,7.649-0.324,11.342-0.923    C208.077,330.046,182.608,301.186,182.608,266.38z" style="fill:#CC4040;"/><path d="M230.092,341.38c-41.448,0-75.168-33.645-75.168-75s33.72-75,75.168-75s75.169,33.645,75.169,75    S271.54,341.38,230.092,341.38z M230.092,201.38c-35.934,0-65.168,29.159-65.168,65s29.234,65,65.168,65    c35.935,0,65.169-29.159,65.169-65S266.026,201.38,230.092,201.38z" style="fill:#333333;"/><g><path d="M263.451,271.38h-66.719c-2.761,0-5-2.238-5-5s2.239-5,5-5h66.719c2.762,0,5,2.238,5,5     S266.213,271.38,263.451,271.38z" style="fill:#333333;"/><path d="M230.092,304.659c-2.761,0-5-2.238-5-5l0-66.559c0-2.762,2.239-5,5-5s5,2.238,5,5v66.559     C235.093,302.421,232.854,304.659,230.092,304.659z" style="fill:#333333;"/></g></g></g><g/><g/><g/><g/><g/><g/><g/><g/><g/><g/><g/><g/><g/><g/><g/></svg>