<?xml version="1.0" ?><svg data-name="Layer 3" id="Layer_3" viewBox="0 0 2050 2050" xmlns="http://www.w3.org/2000/svg"><defs><style>.cls-1{fill:#e0e1e2;}.cls-2{fill:#1682fc;}.cls-3{fill:#2e3a58;}</style></defs><title/><path class="cls-1" d="M892,1481.6c-215.6,0-390.3-174.7-390.3-390.2A389.1,389.1,0,0,1,587,847.9c-89.4,71.5-146.7,181.5-146.7,305,0,215.5,174.7,390.2,390.2,390.2,123.4,0,233.4-57.3,304.9-146.8A388,388,0,0,1,892,1481.6Z"/><path class="cls-1" d="M440.3,1152.9c0,10.6.4,21.2,1.3,31.7h777.8c.9-10.5,1.3-21.1,1.3-31.7s-.4-21.3-1.3-31.8H441.6C440.7,1131.6,440.3,1142.2,440.3,1152.9Z"/><path class="cls-1" d="M1511.9,1266.1h-26a118.5,118.5,0,0,1-118.5-118.5V727.3a117.3,117.3,0,0,1,11.4-50.6,125.8,125.8,0,0,0-61.4,108.2v405.2a126,126,0,0,0,126,126h0a125.9,125.9,0,0,0,105.1-56.4A105.9,105.9,0,0,1,1511.9,1266.1Z"/><path class="cls-2" d="M535.1,1062.7l-1.5-.3a4.9,4.9,0,0,1-3.3-6.2,311.6,311.6,0,0,1,24.2-55.9,5.1,5.1,0,0,1,6.8-2,5,5,0,0,1,1.9,6.8,304.9,304.9,0,0,0-23.4,54.1A4.9,4.9,0,0,1,535.1,1062.7Zm590.4-1.4a5.1,5.1,0,0,1-4.8-3.5,294.1,294.1,0,0,0-23.7-53.9,5,5,0,1,1,8.8-4.9,313.6,313.6,0,0,1,24.4,55.7,5,5,0,0,1-3.2,6.3A4,4,0,0,1,1125.5,1061.3ZM592.9,958.4a4.7,4.7,0,0,1-3.2-1.2,4.9,4.9,0,0,1-.6-7c5.8-7,12.1-13.8,18.5-20.2a330.4,330.4,0,0,1,24.9-22.5,5,5,0,0,1,6.3,7.8A310.5,310.5,0,0,0,614.7,937c-6.3,6.3-12.3,12.9-18,19.6A4.9,4.9,0,0,1,592.9,958.4Zm474.3-1.2a4.9,4.9,0,0,1-3.9-1.7c-5.3-6.3-11.1-12.6-17-18.5a315.4,315.4,0,0,0-25.2-22.6,5,5,0,0,1,6.2-7.8,303,303,0,0,1,26.1,23.4c6.1,6.1,12,12.5,17.6,19a5.1,5.1,0,0,1-.6,7.1A4.8,4.8,0,0,1,1067.2,957.2ZM685.6,883.4a5,5,0,0,1-4.4-2.7,4.9,4.9,0,0,1,2.1-6.7,307,307,0,0,1,56.3-23.1,5,5,0,0,1,6.2,3.3,5.1,5.1,0,0,1-3.3,6.3,298,298,0,0,0-54.6,22.3A4.6,4.6,0,0,1,685.6,883.4Zm288.5-.7a4.6,4.6,0,0,1-2.3-.6A305.5,305.5,0,0,0,917.1,860a5,5,0,0,1-3.4-6.2,5.2,5.2,0,0,1,6.3-3.4,320.5,320.5,0,0,1,56.4,22.9,5,5,0,0,1-2.3,9.4ZM799.8,849.1a5,5,0,0,1-.5-9.9,295,295,0,0,1,31.2-1.6h0c9.9,0,19.9.5,29.7,1.4a5,5,0,0,1-1,10c-9.4-.9-19.1-1.4-28.7-1.4h0c-10.1,0-20.2.5-30.2,1.5Z"/><path class="cls-2" d="M1219.4,1199.6H441.6a15,15,0,0,1-15-13.8c-.9-10.9-1.3-22-1.3-32.9s.4-22.1,1.3-33a15,15,0,0,1,15-13.8h777.8a15,15,0,0,1,15,13.8c.9,10.9,1.3,22,1.3,33s-.4,22-1.3,32.9A15,15,0,0,1,1219.4,1199.6Zm-763.7-30h749.6c.3-5.6.4-11.2.4-16.7s-.1-11.2-.4-16.8H455.7c-.3,5.6-.4,11.2-.4,16.8S455.4,1164,455.7,1169.6Z"/><path class="cls-2" d="M1443.4,1271.1a80.9,80.9,0,0,1-33.9-7.4,5.2,5.2,0,0,1-2.5-6.7,5,5,0,0,1,6.7-2.4,70.6,70.6,0,0,0,29.7,6.5,71.6,71.6,0,0,0,24.8-4.4,5,5,0,1,1,3.5,9.3A79.7,79.7,0,0,1,1443.4,1271.1Zm69.3-44.6a5.4,5.4,0,0,1-2.1-.5,4.9,4.9,0,0,1-2.4-6.6,70.2,70.2,0,0,0,6.3-29.3v-27.6a5,5,0,0,1,10,0v27.6a80,80,0,0,1-7.2,33.4A5.1,5.1,0,0,1,1512.7,1226.5Zm-140.7-5.4a4.8,4.8,0,0,1-4.7-3.3,79.3,79.3,0,0,1-4.9-27.7v-33.4a5,5,0,0,1,10,0v33.4a69.5,69.5,0,0,0,4.3,24.3,5,5,0,0,1-3,6.4A5.1,5.1,0,0,1,1372,1221.1Zm147.5-113.6a5,5,0,0,1-5-5v-60a5,5,0,0,1,10,0v60A5,5,0,0,1,1519.5,1107.5Zm-152.1-5.8a5,5,0,0,1-5-5v-60a5,5,0,0,1,10,0v60A5,5,0,0,1,1367.4,1101.7Z"/><path class="cls-2" d="M1559.1,1002.5H1317.4a15,15,0,0,1,0-30h241.7a15,15,0,0,1,0,30Z"/><path class="cls-1" d="M641.8,464.4v26A118.6,118.6,0,0,0,760.4,608.9h420.2a117.4,117.4,0,0,0,50.7-11.4,125.8,125.8,0,0,1-108.2,61.4H717.9A126.1,126.1,0,0,1,591.8,532.8h0a125.9,125.9,0,0,1,56.5-105A105.5,105.5,0,0,0,641.8,464.4Z"/><path class="cls-2" d="M871.3,613.9h-60a5,5,0,0,1,0-10h60a5,5,0,0,1,0,10Zm-120,0H717.9a81.2,81.2,0,0,1-27.7-4.9,4.9,4.9,0,0,1-3-6.4,5,5,0,0,1,6.4-3,71.5,71.5,0,0,0,24.3,4.3h33.4a5,5,0,0,1,0,10ZM648.9,569.7a5.2,5.2,0,0,1-4.6-2.9,80.7,80.7,0,0,1-2.4-62.2,5.2,5.2,0,0,1,6.5-3,5,5,0,0,1,2.9,6.5,70.3,70.3,0,0,0,2.1,54.5,5,5,0,0,1-2.4,6.6A4.1,4.1,0,0,1,648.9,569.7Zm37.6-101.1a4.9,4.9,0,0,1-4.5-3,4.9,4.9,0,0,1,2.4-6.6,80.4,80.4,0,0,1,33.5-7.2h27.6a5,5,0,0,1,0,10H717.9a70.2,70.2,0,0,0-29.3,6.3A5.4,5.4,0,0,1,686.5,468.6Zm179-6.8h-60a5,5,0,0,1,0-10h60a5,5,0,0,1,0,10Z"/><path class="cls-2" d="M920.5,673.9a15,15,0,0,1-15-15V417.2a15,15,0,0,1,30,0V658.9A15,15,0,0,1,920.5,673.9Z"/><path class="cls-3" d="M1123.1,673.9H717.9c-77.8,0-141.1-63.3-141.1-141.1h0c0-77.7,63.3-141,141.1-141h405.2c77.8,0,141.1,63.3,141.1,141S1200.9,673.9,1123.1,673.9ZM717.9,421.8c-61.2,0-111.1,49.8-111.1,111A111.2,111.2,0,0,0,717.9,643.9h405.2a111.1,111.1,0,1,0,0-222.1Z"/><path class="cls-3" d="M830.5,1558.1a404.5,404.5,0,1,1,157.7-31.9A401.2,401.2,0,0,1,830.5,1558.1Zm0-780.5a374.3,374.3,0,1,0,146,29.5A373.4,373.4,0,0,0,830.5,777.6Z"/><path class="cls-3" d="M1443.4,1331.1c-77.7,0-141-63.2-141-141V784.9c0-77.8,63.3-141.1,141-141.1s141.1,63.3,141.1,141.1v405.2C1584.5,1267.9,1521.2,1331.1,1443.4,1331.1Zm0-657.3a111.2,111.2,0,0,0-111,111.1v405.2a111.1,111.1,0,0,0,111,111h0a111.2,111.2,0,0,0,111.1-111V784.9A111.2,111.2,0,0,0,1443.4,673.8Z"/></svg>