<?xml version="1.0" ?><svg data-name="Layer 3" id="Layer_3" viewBox="0 0 2050 2050" xmlns="http://www.w3.org/2000/svg"><defs><style>.cls-1{fill:#e0e1e2;}.cls-2{fill:#1682fc;}.cls-3{fill:#2e3a58;}</style></defs><title/><path class="cls-1" d="M1045.9,993.8l-56.6,56.5,35,35a373.5,373.5,0,0,0,29.8-26.8,396,396,0,0,0,26.8-29.8Z"/><rect class="cls-1" height="317.65" transform="translate(-488 1124.3) rotate(-45)" width="32.5" x="1096.9" y="992.4"/><path class="cls-2" d="M1213.9,1290h0a15.2,15.2,0,0,1-10.6-4.4L978.7,1061a15.2,15.2,0,0,1,0-21.3l56.6-56.5a15,15,0,0,1,10.6-4.4h0a15,15,0,0,1,10.6,4.4l224.6,224.6a14.9,14.9,0,0,1,0,21.2l-56.6,56.6A15,15,0,0,1,1213.9,1290Zm-203.4-239.7,203.4,203.4,35.4-35.3L1045.9,1015Z"/><path class="cls-1" d="M1017.6,949.8c-127.8,127.8-335,127.8-462.9,0a325.8,325.8,0,0,1-93.8-195.3c-10.5,95.4,20.7,194.4,93.8,267.6,127.9,127.8,335.1,127.8,462.9,0a327,327,0,0,0,93.9-267.6A325.9,325.9,0,0,1,1017.6,949.8Z"/><path class="cls-3" d="M786.2,1132.9a340.6,340.6,0,1,1,128.8-25A341.5,341.5,0,0,1,786.2,1132.9Zm0-654.6A312.4,312.4,0,1,0,1007,569.8,310.4,310.4,0,0,0,786.2,478.3Z"/><path class="cls-2" d="M790.7,1063.3a5.4,5.4,0,0,1,0-10.8,262.7,262.7,0,0,0,66.2-9.6,5.3,5.3,0,0,1,6.6,3.8,5.4,5.4,0,0,1-3.7,6.6,275.2,275.2,0,0,1-69,10Zm-67.8-7.5h-1.3a270.6,270.6,0,0,1-65.1-25,5.4,5.4,0,0,1,5.2-9.5,259.8,259.8,0,0,0,62.4,24,5.4,5.4,0,0,1,4,6.5A5.3,5.3,0,0,1,722.9,1055.8Zm198.3-29a5.3,5.3,0,0,1-2.7-10,267,267,0,0,0,52.9-41,260.1,260.1,0,0,0,23.5-26.9,5.4,5.4,0,1,1,8.6,6.5,282.2,282.2,0,0,1-24.5,28,273.1,273.1,0,0,1-55.1,42.7A5.2,5.2,0,0,1,921.2,1026.8ZM603.7,991.4a5.1,5.1,0,0,1-3.6-1.5c-2.3-2.1-4.6-4.3-6.7-6.5a266.6,266.6,0,0,1-37.8-47.1,5.3,5.3,0,0,1,1.6-7.4,5.4,5.4,0,0,1,7.5,1.7A265.5,265.5,0,0,0,601,975.8l6.4,6.3a5.4,5.4,0,0,1,.3,7.6A5.6,5.6,0,0,1,603.7,991.4Zm429.6-93.1a5.2,5.2,0,0,1-2.1-.4,5.4,5.4,0,0,1-2.9-7,261.6,261.6,0,0,0,17.4-64.6,5.4,5.4,0,0,1,10.7,1.4,273.4,273.4,0,0,1-18.1,67.3A5.4,5.4,0,0,1,1033.3,898.3Zm-502-21.4a5.5,5.5,0,0,1-5.2-3.7,273.8,273.8,0,0,1-12.3-68.6,5.4,5.4,0,1,1,10.8-.5,261.3,261.3,0,0,0,11.8,65.8,5.4,5.4,0,0,1-3.5,6.8A4.4,4.4,0,0,1,531.3,876.9Zm520.3-112.8a5.3,5.3,0,0,1-5.3-4.8,261.2,261.2,0,0,0-16.4-64.8,5.5,5.5,0,0,1,3.1-7,5.3,5.3,0,0,1,7,3,273.7,273.7,0,0,1,17,67.6,5.4,5.4,0,0,1-4.8,5.9ZM524.4,741.6h-1.1a5.4,5.4,0,0,1-4.2-6.4,268.5,268.5,0,0,1,22.7-65.8,5.3,5.3,0,0,1,7.2-2.4,5.4,5.4,0,0,1,2.5,7.2,257.1,257.1,0,0,0-21.8,63.2A5.4,5.4,0,0,1,524.4,741.6Zm477.5-103.5a5.4,5.4,0,0,1-4.3-2.2,270.4,270.4,0,0,0-26.2-30.5c-6.4-6.3-13.1-12.4-20-18a5.4,5.4,0,0,1-.7-7.6,5.5,5.5,0,0,1,7.6-.8c7.1,5.9,14.1,12.2,20.7,18.8a282.1,282.1,0,0,1,27.3,31.7,5.5,5.5,0,0,1-1.2,7.6A5.3,5.3,0,0,1,1001.9,638.1ZM584.7,620.4a5.5,5.5,0,0,1-4.1-9c4.1-4.6,8.4-9.2,12.8-13.6a278.3,278.3,0,0,1,39.3-32.7,5.5,5.5,0,0,1,7.5,1.4,5.4,5.4,0,0,1-1.4,7.5A263.6,263.6,0,0,0,601,605.4c-4.2,4.2-8.4,8.6-12.3,13.1A5.3,5.3,0,0,1,584.7,620.4Zm312.2-67.8a6.4,6.4,0,0,1-2.3-.5,254.3,254.3,0,0,0-63.9-19.6,5.4,5.4,0,0,1,1.8-10.7,267.7,267.7,0,0,1,66.6,20.5,5.4,5.4,0,0,1,2.7,7.1A5.4,5.4,0,0,1,896.9,552.6ZM696.6,544a5.5,5.5,0,0,1-5.1-3.6,5.3,5.3,0,0,1,3.3-6.8,272.4,272.4,0,0,1,68.1-14.7,5.4,5.4,0,0,1,5.8,4.9,5.3,5.3,0,0,1-4.9,5.8,264.1,264.1,0,0,0-65.4,14.1A5.7,5.7,0,0,1,696.6,544Z"/><path class="cls-1" d="M1428.5,1467.2l-203.4-203.4-34.1,34.1,203.4,203.5a72.5,72.5,0,0,0,102.5,0h0a71.4,71.4,0,0,0,14.1-20A72.3,72.3,0,0,1,1428.5,1467.2Z"/><path class="cls-3" d="M1445.6,1537.6a86.9,86.9,0,0,1-61.8-25.6l-203.5-203.5a14.9,14.9,0,0,1-4.3-10.6,15.1,15.1,0,0,1,4.3-10.6l102.6-102.5a14.9,14.9,0,0,1,21.2,0l203.4,203.4a87.7,87.7,0,0,1,0,123.8h0A87,87,0,0,1,1445.6,1537.6Zm-233.4-239.7L1405,1490.7a57.3,57.3,0,0,0,81.3,0h0a57.6,57.6,0,0,0,0-81.3l-192.8-192.8Z"/><polygon class="cls-2" points="746.9 751.4 668.4 751.4 668.4 829.9 746.9 829.9 746.9 908.4 825.4 908.4 825.4 829.9 903.9 829.9 903.9 751.4 825.4 751.4 825.4 672.9 746.9 672.9 746.9 751.4"/></svg>