<?xml version="1.0" ?><svg id="Layer_1" style="enable-background:new 0 0 512 512;" version="1.1" viewBox="0 0 512 512" xml:space="preserve" xmlns="http://www.w3.org/2000/svg" xmlns:xlink="http://www.w3.org/1999/xlink"><rect height="98.116" style="fill:#FFFFFF;" transform="matrix(0.7078 -0.7064 0.7064 0.7078 -265.2963 226.2123)" width="14.961" x="133.329" y="384.753"/><rect height="31.878" style="fill:#FFFFFF;" transform="matrix(0.7079 -0.7063 0.7063 0.7079 -230.3216 240.025)" width="60.104" x="144.974" y="382.529"/><g><path d="M459.817,271.496c-13.123,33.095-38.341,59.086-71.008,73.21   c-32.668,14.111-68.912,14.672-101.979,1.535c-13.257-5.247-25.478-12.495-36.232-21.494c-0.768-0.667-1.355-1.175-3.317-1.175   c-4.866,0-18.216,3.137-63.852,14.805l30.978-56.03c0.834-1.509,0.908-3.325,0.194-4.9c-15.085-33.261-15.979-70.267-2.523-104.189   c27.087-68.298,104.683-101.847,172.981-74.746c33.095,13.116,59.086,38.334,73.21,71.008   C472.379,202.197,472.94,238.409,459.817,271.496z" style="fill:#52BF83;"/><path d="M400.784,148.63c0.2-1.288,0.881-2.417,1.909-3.191c0.854-0.634,1.856-0.961,2.897-0.961   c0.334,0,0.667,0.033,1.001,0.1c1.375,0.287,2.523,1.121,3.244,2.369c1.108,1.896,0.747,4.379-0.841,5.894   c-1.055,1.015-2.216,1.295-3.003,1.355c-2.617,0.207-4.926,0.881-6.875,1.989c-0.214,0.126-0.44,0.254-0.654,0.388   C399.569,154.157,400.343,151.501,400.784,148.63z" style="fill:#D970A2;"/><path d="M246.513,223.39c-2.723,1.502-6.188,0.58-7.857-2.07c-1.375-2.156-0.828-5.927,1.094-7.61   c2.016-1.762,4.886-1.983,7.249-0.487c0.126,0.087,1.148,0.708,1.282,0.774c3.711,2.005,8.006,2.773,12.467,2.974   c-0.004,0.513-0.091,1.027-0.085,1.54C255.631,218.87,250.885,220.42,246.513,223.39z" style="fill:#D970A2;"/><path d="M343.192,326.644c-2.122,1.402-4.646,1.829-7.168,1.175c-3.872-1.015-6.608-4.659-6.528-8.65   c0.054-2.096,0.774-4.018,2.096-5.581c2.122-2.483,3.578-5.127,4.339-7.863c1.634-5.949,1.206-11.709-0.09-17.007   c-0.071-0.49-0.189-0.942-0.383-1.386c-3.474-12.355-11.861-21.601-12.383-22.151c-2.083-2.196-5.5-2.31-7.717-0.227   c-2.202,2.062-2.31,5.513-0.254,7.717c0.073,0.078,3.528,3.854,6.549,9.388c-10.382-2.708-19.897-7.831-27.862-15.001   c1.418-0.461,2.425-0.675,2.503-0.687c2.964-0.508,4.966-3.324,4.472-6.295c-0.494-2.97-3.377-5.059-6.288-4.492   c-0.735,0.12-17.915,3.15-23.989,19.197c-1.382,2.776-4.733,4.005-7.616,2.817c-2.37-0.988-4.092-4.392-3.478-6.862   c0.641-2.61,2.857-4.439,5.467-4.553c0.153-0.006,1.535-0.093,1.689-0.113c5.462-0.65,9.934-2.878,13.418-5.371   c0.024-0.015,0.054-0.007,0.078-0.022c0.091-0.057,0.137-0.152,0.224-0.214c5.209-3.821,8.093-8.168,8.292-8.47   c1.616-2.537,0.867-5.887-1.669-7.523c-2.523-1.629-5.914-0.914-7.543,1.622c-0.009,0.014-0.382,0.501-0.717,0.931   c-5.978-12.09-8.419-25.683-6.479-39.138c0.893-6.176,2.881-11.988,5.375-17.591c3.044,4.06,4.437,7.794,4.464,7.866   c0.815,2.229,2.91,3.624,5.153,3.624c0.615,0,1.228-0.107,1.829-0.32c2.844-1.015,4.326-4.118,3.324-6.962   c-0.195-0.565-3.584-9.553-11.824-16.767c-0.444-0.668-1-1.268-1.738-1.702c-0.196-0.113-0.413-0.124-0.616-0.211   c-3.865-2.871-8.547-5.294-14.382-6.41c-4.606-1.362-7.383-6.121-6.328-10.834c0.875-3.932,5.34-7.409,9.525-7.116   c4.125,0.281,7.503,3.164,8.477,7.603c0.027,0.14,0.347,1.375,0.388,1.509c4.98,16.58,21.106,23.429,21.787,23.716   c2.776,1.148,5.954-0.173,7.129-2.943c1.162-2.776-0.147-5.974-2.924-7.149c-0.071-0.031-4.218-1.897-8.384-5.943   c9.651-8.841,21.465-14.564,34.299-16.653c-0.921,5.654-2.807,8.802-2.914,8.946c-1.882,2.357-1.495,5.8,0.854,7.682   c2.376,1.896,5.808,1.515,7.69-0.861c0.742-0.921,6.166-8.383,5.805-22.575c0-0.006,0.004-0.013,0.003-0.02   c0-0.004-0.003-0.006-0.003-0.01c-0.069-2.664-0.273-5.481-0.825-8.627c-0.908-5.273-3.204-10.413-6.809-15.279   c-1.389-1.882-1.975-4.198-1.642-6.514c0.361-2.483,1.762-4.706,3.858-6.095c2.136-1.415,4.699-1.822,7.182-1.168   c3.858,1.021,6.608,4.659,6.528,8.644c-0.054,2.089-0.788,4.025-2.083,5.573c-2.149,2.503-3.618,5.16-4.352,7.87   c-1.643,5.974-1.207,11.754,0.1,17.069c0.071,0.462,0.18,0.892,0.362,1.311c3.468,12.363,11.86,21.62,12.382,22.17   c1.081,1.141,2.523,1.715,3.979,1.715c1.335,0,2.683-0.494,3.738-1.488c2.203-2.062,2.31-5.521,0.254-7.723   c-0.072-0.075-3.472-3.799-6.472-9.261c32.492,8.506,54.339,40.029,49.432,74.056c-4.186,29.018-27.115,51.654-55.557,56.318   c0.919-5.679,2.811-8.84,2.919-8.98c1.882-2.363,1.495-5.808-0.854-7.69c-2.363-1.876-5.794-1.509-7.69,0.861   c-0.734,0.911-6.04,8.25-5.812,22.144c-0.004,0.155-0.072,0.292-0.062,0.45c0.005,0.083,0.052,0.152,0.061,0.234   c0.077,2.601,0.286,5.348,0.82,8.403c0.921,5.286,3.218,10.427,6.822,15.299c1.389,1.869,1.975,4.179,1.642,6.488   C346.703,323.04,345.288,325.256,343.192,326.644z" style="fill:#D970A2;"/><path d="M404.027,278.425c3.471,1.362,5.286,5.234,4.165,8.798c-0.935,2.91-4.886,5.366-7.837,4.859   c-3.177-0.494-5.581-2.95-5.994-6.114c-0.013-0.147-0.24-1.589-0.267-1.748c-0.655-3.143-2-6.089-3.652-8.928   c0.948-0.854,1.798-1.791,2.704-2.689C396.276,275.109,399.714,277.204,404.027,278.425z" style="fill:#D970A2;"/><path d="M443.023,234.63c-1.415,2.67-4.526,4.058-7.476,3.317c-1.548-0.4-2.844-1.261-3.765-2.51   c-1.775-2.396-3.725-4.145-5.927-5.34c-1.468-0.794-3.017-1.455-4.619-1.975c4.312,0.033,8.784-0.854,13.257-2.79   c1.616-0.694,3.418-0.734,5.086-0.093c1.762,0.694,3.164,2.109,3.818,3.891C444.077,230.939,443.944,232.894,443.023,234.63z" style="fill:#D970A2;"/><path d="M258.047,431.307c0,6.902-5.614,12.509-12.516,12.509H55.236c-6.902,0-12.516-5.607-12.516-12.509   V80.686c0-6.902,5.614-12.516,12.516-12.516h190.296c6.902,0,12.516,5.614,12.516,12.516v20.502   c-25.252,16.16-44.87,39.619-56.137,68.042c-14.224,35.851-13.63,74.873,1.608,110.21l-35.791,64.733   c-1.055,1.909-0.875,4.258,0.46,5.994c1.329,1.709,3.604,2.443,5.68,1.949c23.97-6.141,62.23-15.74,71.468-17.515   c4.013,3.238,8.379,5.97,12.709,8.75v87.956H258.047z" style="fill:#80D3E0;"/><path d="M175.322,420.686h-49.753c-0.357,0-0.647-0.29-0.647-0.647V394.97c0-0.357,0.29-0.647,0.647-0.647   h49.753c0.357,0,0.647,0.29,0.647,0.647v25.068C175.97,420.396,175.68,420.686,175.322,420.686z" style="fill:#838F9B;"/><circle cx="378.988" cy="216.396" r="13.482" style="fill:#C63E86;"/><circle cx="344.868" cy="191.441" r="13.482" style="fill:#C63E86;"/><circle cx="301.839" cy="213.529" r="10.582" style="fill:#C63E86;"/><circle cx="340.576" cy="243.567" r="10.582" style="fill:#C63E86;"/><g><g><path d="M151.007,98.014h26.72c3.017,0,5.467-2.45,5.467-5.467s-2.45-5.467-5.467-5.467h-26.72c-3.017,0-5.467,2.45-5.467,5.467     C145.541,95.564,147.99,98.014,151.007,98.014z"/><path d="M132.024,98.014c3.017,0,5.467-2.45,5.467-5.467s-2.45-5.467-5.467-5.467h-8.991c-3.017,0-5.467,2.45-5.467,5.467     s2.45,5.467,5.467,5.467H132.024z"/><path d="M175.605,389.629h-50.443c-3.017,0-5.467,2.456-5.467,5.474v25.471c0,3.017,2.45,5.474,5.467,5.474h50.443     c3.017,0,5.467-2.456,5.467-5.474v-25.471C181.072,392.086,178.622,389.629,175.605,389.629z M170.138,415.101h-39.509v-14.524     h39.509V415.101z"/><path d="M468.308,165.184c-15.286-35.357-43.414-62.644-79.218-76.842c-35.778-14.184-74.973-13.591-110.35,1.676     c-3.351,1.449-6.558,3.12-9.759,4.795V80.686c0-12.929-10.52-23.449-23.449-23.449H55.236c-12.929,0-23.449,10.52-23.449,23.449     v350.621c0,12.936,10.52,23.456,23.449,23.456h190.296c12.929,0,23.449-10.52,23.449-23.456v-81.602     c4.53,2.375,9.029,4.811,13.818,6.708c17.221,6.822,35.204,10.226,53.186,10.226c19.411,0,38.808-3.965,57.165-11.895     c35.351-15.286,62.638-43.414,76.842-79.218C484.18,239.723,483.579,200.542,468.308,165.184z M258.047,431.307     c0,6.902-5.614,12.509-12.516,12.509H55.236c-6.902,0-12.516-5.607-12.516-12.509V80.686c0-6.902,5.614-12.516,12.516-12.516     h190.296c6.902,0,12.516,5.614,12.516,12.516v20.502c-25.252,16.16-44.87,39.619-56.137,68.042     c-14.224,35.851-13.63,74.873,1.608,110.21l-35.791,64.733c-1.055,1.909-0.875,4.258,0.46,5.994     c1.329,1.709,3.604,2.443,5.68,1.949c23.97-6.141,62.23-15.74,71.468-17.515c4.013,3.238,8.379,5.97,12.709,8.75v87.956H258.047z      M459.817,271.496c-13.123,33.095-38.341,59.086-71.008,73.21c-32.668,14.111-68.912,14.672-101.979,1.535     c-13.257-5.247-25.478-12.495-36.232-21.494c-0.768-0.667-1.355-1.175-3.317-1.175c-4.866,0-18.216,3.137-63.852,14.805     l30.978-56.03c0.834-1.509,0.908-3.325,0.194-4.9c-15.085-33.261-15.979-70.267-2.523-104.189     c27.087-68.298,104.683-101.847,172.981-74.746c33.095,13.116,59.086,38.334,73.21,71.008     C472.379,202.197,472.94,238.409,459.817,271.496z"/><path d="M443.557,215.053c-4.339-1.689-9.091-1.602-13.403,0.233c-3.271,1.415-6.368,2.056-9.372,1.876     c-1.608-0.092-2.999-0.484-4.491-0.74c-0.219-17.23-6.108-33.444-16.181-46.51c1.287-1.751,2.709-3.257,4.411-4.22     c0.547-0.314,1.335-0.514,2.31-0.588c3.618-0.281,7.062-1.822,9.719-4.352c5.207-4.972,6.355-13.09,2.75-19.29     c-2.27-3.918-6.101-6.681-10.506-7.589c-4.365-0.894-8.998,0.113-12.615,2.79c-3.364,2.497-5.567,6.154-6.208,10.313     c-0.44,2.871-1.348,5.32-2.737,7.276c-0.396,0.565-0.87,0.961-1.288,1.486c-9.867-7.62-21.679-12.943-34.773-15.109     c-0.367-2.811-0.414-5.691,0.377-8.571c0.32-1.175,1.015-2.37,2.136-3.678c2.95-3.504,4.579-7.789,4.685-12.415     c0.173-8.984-5.994-17.168-14.685-19.457c-5.46-1.435-11.308-0.481-16.006,2.63c-4.685,3.11-7.837,8.083-8.624,13.643     c-0.747,5.187,0.547,10.366,3.671,14.578c2.576,3.491,4.205,7.075,4.832,10.66c0.17,0.977,0.074,1.642,0.182,2.552     c-15.116,2.096-29.088,8.541-40.573,18.66c-0.414-0.955-0.855-1.885-1.167-2.942c-1.909-8.671-9.438-15.139-18.33-15.733     c-9.512-0.681-18.856,6.375-20.926,15.632c-2.316,10.306,3.785,20.726,13.89,23.716c0.641,0.187,1.295,0.32,2.109,0.474     c2.357,0.448,4.388,1.35,6.275,2.401c-3.704,7.415-6.491,15.227-7.691,23.544c-0.001,0.005,0,0.01-0.001,0.015     c-2.538-0.118-5.455-0.689-8.563-2.405c-6.375-4.058-14.505-3.451-20.212,1.542c-6,5.247-7.403,14.986-3.137,21.7     c3.197,5.053,8.691,7.857,14.311,7.857c2.723,0,5.474-0.654,8.01-2.035c0.161-0.087,1.375-0.854,1.522-0.954     c2.413-1.639,5.34-2.275,8.479-2.445c1.33,8.406,4.057,16.493,8.055,24.078c-1.626,0.704-3.342,1.355-5.354,1.582     c-7.562,0.327-13.857,5.5-15.673,12.869c-1.896,7.723,2.543,16.507,9.899,19.564c2.109,0.881,4.305,1.295,6.468,1.295     c6.235,0,12.229-3.457,15.139-9.331c0.093-0.161,0.64-1.495,0.708-1.669c0.754-1.998,1.911-3.61,3.203-5.004     c11.377,11.118,25.824,18.626,41.572,21.232c0.377,2.823,0.432,5.713-0.359,8.602c-0.334,1.175-1.055,2.417-2.136,3.698     c-2.964,3.484-4.592,7.77-4.685,12.415c-0.214,8.984,5.967,17.182,14.672,19.465c1.669,0.44,3.364,0.654,5.059,0.654     c3.858,0,7.663-1.121,10.92-3.284c4.685-3.11,7.849-8.076,8.65-13.643c0.761-5.193-0.547-10.373-3.671-14.578     c-2.59-3.484-4.219-7.075-4.832-10.654c-0.169-0.966-0.073-1.623-0.18-2.525c11.891-1.667,23.021-5.845,32.631-12.333     c0.741,1.581,1.307,3.325,1.699,5.353c1.028,7.903,7.249,14.284,15.166,15.513c0.815,0.12,1.642,0.187,2.47,0.187     c7.622,0,15.139-5.233,17.448-12.549c2.871-9.024-1.762-18.81-10.547-22.281c-0.054-0.02-1.816-0.574-1.869-0.588     c-2.112-0.599-4.016-1.713-5.814-3.073c5.995-7.846,10.346-16.934,13.03-26.733c2.648,0.215,5.136,0.719,7.229,1.858     c0.788,0.421,1.562,1.155,2.363,2.229c2.417,3.284,5.82,5.56,9.826,6.588c1.415,0.367,2.844,0.541,4.258,0.541     c6.381,0,12.536-3.531,15.606-9.331c2.363-4.466,2.71-9.719,0.962-14.418C451.914,220.62,448.23,216.882,443.557,215.053z      M400.784,148.63c0.2-1.288,0.881-2.417,1.909-3.191c0.854-0.634,1.856-0.961,2.897-0.961c0.334,0,0.667,0.033,1.001,0.1     c1.375,0.287,2.523,1.121,3.244,2.369c1.108,1.896,0.747,4.379-0.841,5.894c-1.055,1.015-2.216,1.295-3.003,1.355     c-2.617,0.207-4.926,0.881-6.875,1.989c-0.214,0.126-0.44,0.254-0.654,0.388C399.569,154.157,400.343,151.501,400.784,148.63z      M246.513,223.39c-2.723,1.502-6.188,0.58-7.857-2.07c-1.375-2.156-0.828-5.927,1.094-7.61c2.016-1.762,4.886-1.983,7.249-0.487     c0.126,0.087,1.148,0.708,1.282,0.774c3.711,2.005,8.006,2.773,12.467,2.974c-0.004,0.513-0.091,1.027-0.085,1.54     C255.631,218.87,250.885,220.42,246.513,223.39z M343.192,326.644c-2.122,1.402-4.646,1.829-7.168,1.175     c-3.872-1.015-6.608-4.659-6.528-8.65c0.054-2.096,0.774-4.018,2.096-5.581c2.122-2.483,3.578-5.127,4.339-7.863     c1.634-5.949,1.206-11.709-0.09-17.007c-0.071-0.49-0.189-0.942-0.383-1.386c-3.474-12.355-11.861-21.601-12.383-22.151     c-2.083-2.196-5.5-2.31-7.717-0.227c-2.202,2.062-2.31,5.513-0.254,7.717c0.073,0.078,3.528,3.854,6.549,9.388     c-10.382-2.708-19.897-7.831-27.862-15.001c1.418-0.461,2.425-0.675,2.503-0.687c2.964-0.508,4.966-3.324,4.472-6.295     c-0.494-2.97-3.377-5.059-6.288-4.492c-0.735,0.12-17.915,3.15-23.989,19.197c-1.382,2.776-4.733,4.005-7.616,2.817     c-2.37-0.988-4.092-4.392-3.478-6.862c0.641-2.61,2.857-4.439,5.467-4.553c0.153-0.006,1.535-0.093,1.689-0.113     c5.462-0.65,9.934-2.878,13.418-5.371c0.024-0.015,0.054-0.007,0.078-0.022c0.091-0.057,0.137-0.152,0.224-0.214     c5.209-3.821,8.093-8.168,8.292-8.47c1.616-2.537,0.867-5.887-1.669-7.523c-2.523-1.629-5.914-0.914-7.543,1.622     c-0.009,0.014-0.382,0.501-0.717,0.931c-5.978-12.09-8.419-25.683-6.479-39.138c0.893-6.176,2.881-11.988,5.375-17.591     c3.044,4.06,4.437,7.794,4.464,7.866c0.815,2.229,2.91,3.624,5.153,3.624c0.615,0,1.228-0.107,1.829-0.32     c2.844-1.015,4.326-4.118,3.324-6.962c-0.195-0.565-3.584-9.553-11.824-16.767c-0.444-0.668-1-1.268-1.738-1.702     c-0.196-0.113-0.413-0.124-0.616-0.211c-3.865-2.871-8.547-5.294-14.382-6.41c-4.606-1.362-7.383-6.121-6.328-10.834     c0.875-3.932,5.34-7.409,9.525-7.116c4.125,0.281,7.503,3.164,8.477,7.603c0.027,0.14,0.347,1.375,0.388,1.509     c4.98,16.58,21.106,23.429,21.787,23.716c2.776,1.148,5.954-0.173,7.129-2.943c1.162-2.776-0.147-5.974-2.924-7.149     c-0.071-0.031-4.218-1.897-8.384-5.943c9.651-8.841,21.465-14.564,34.299-16.653c-0.921,5.654-2.807,8.802-2.914,8.946     c-1.882,2.357-1.495,5.8,0.854,7.682c2.376,1.896,5.808,1.515,7.69-0.861c0.742-0.921,6.166-8.383,5.805-22.575     c0-0.006,0.004-0.013,0.003-0.02c0-0.004-0.003-0.006-0.003-0.01c-0.069-2.664-0.273-5.481-0.825-8.627     c-0.908-5.273-3.204-10.413-6.809-15.279c-1.389-1.882-1.975-4.198-1.642-6.514c0.361-2.483,1.762-4.706,3.858-6.095     c2.136-1.415,4.699-1.822,7.182-1.168c3.858,1.021,6.608,4.659,6.528,8.644c-0.054,2.089-0.788,4.025-2.083,5.573     c-2.149,2.503-3.618,5.16-4.352,7.87c-1.643,5.974-1.207,11.754,0.1,17.069c0.071,0.462,0.18,0.892,0.362,1.311     c3.468,12.363,11.86,21.62,12.382,22.17c1.081,1.141,2.523,1.715,3.979,1.715c1.335,0,2.683-0.494,3.738-1.488     c2.203-2.062,2.31-5.521,0.254-7.723c-0.072-0.075-3.472-3.799-6.472-9.261c32.492,8.506,54.339,40.029,49.432,74.056     c-4.186,29.018-27.115,51.654-55.557,56.318c0.919-5.679,2.811-8.84,2.919-8.98c1.882-2.363,1.495-5.808-0.854-7.69     c-2.363-1.876-5.794-1.509-7.69,0.861c-0.734,0.911-6.04,8.25-5.812,22.144c-0.004,0.155-0.072,0.292-0.062,0.45     c0.005,0.083,0.052,0.152,0.061,0.234c0.077,2.601,0.286,5.348,0.82,8.403c0.921,5.286,3.218,10.427,6.822,15.299     c1.389,1.869,1.975,4.179,1.642,6.488C346.703,323.04,345.288,325.256,343.192,326.644z M404.027,278.425     c3.471,1.362,5.286,5.234,4.165,8.798c-0.935,2.91-4.886,5.366-7.837,4.859c-3.177-0.494-5.581-2.95-5.994-6.114     c-0.013-0.147-0.24-1.589-0.267-1.748c-0.655-3.143-2-6.089-3.652-8.928c0.948-0.854,1.798-1.791,2.704-2.689     C396.276,275.109,399.714,277.204,404.027,278.425z M443.023,234.63c-1.415,2.67-4.526,4.058-7.476,3.317     c-1.548-0.4-2.844-1.261-3.765-2.51c-1.775-2.396-3.725-4.145-5.927-5.34c-1.468-0.794-3.017-1.455-4.619-1.975     c4.312,0.033,8.784-0.854,13.257-2.79c1.616-0.694,3.418-0.734,5.086-0.093c1.762,0.694,3.164,2.109,3.818,3.891     C444.077,230.939,443.944,232.894,443.023,234.63z"/><path d="M338.934,206.395c1.936,0.768,3.938,1.129,5.914,1.129c6.408,0,12.469-3.851,14.978-10.153     c3.271-8.243-0.774-17.615-9.024-20.893c-8.21-3.238-17.609,0.788-20.893,9.031C326.638,193.753,330.683,203.118,338.934,206.395     z M340.082,189.541c0.801-2.023,2.75-3.257,4.793-3.257c0.64,0,1.268,0.12,1.896,0.361c2.644,1.048,3.938,4.052,2.883,6.695     c-1.042,2.63-4.005,3.918-6.689,2.89C340.322,195.182,339.027,192.177,340.082,189.541z"/><path d="M353.312,248.628c0-0.006,0-0.006,0-0.013c2.776-7.015-0.681-14.985-7.69-17.769c-7.009-2.79-14.992,0.661-17.782,7.69     c-2.776,7.022,0.681,14.999,7.69,17.769c1.642,0.654,3.351,0.968,5.02,0.968C345.995,257.271,351.175,253.994,353.312,248.628z      M338.012,242.566c0.427-1.088,1.468-1.756,2.563-1.756c0.347,0,0.681,0.066,1.015,0.194c1.415,0.567,2.109,2.176,1.548,3.591     c-0.588,1.422-2.19,2.076-3.578,1.542C338.146,245.584,337.452,243.969,338.012,242.566z"/><path d="M308.522,203.191c-5.713-3.684-13.35-2.049-17.048,3.645c-1.789,2.764-2.39,6.054-1.709,9.271     c0.694,3.217,2.603,5.974,5.354,7.763c2.07,1.335,4.379,1.969,6.675,1.969c4.045,0,7.996-1.975,10.359-5.607     c0-0.006,0-0.006,0-0.006c1.789-2.764,2.39-6.047,1.709-9.265C313.182,207.743,311.286,204.98,308.522,203.191z M302.969,214.285     c-0.427,0.641-1.282,0.815-1.896,0.4c-0.547-0.347-0.774-1.355-0.414-1.903c0.267-0.407,0.708-0.634,1.162-0.634     c0.254,0,0.52,0.074,0.747,0.227C303.209,212.783,303.383,213.644,302.969,214.285z"/><path d="M371.654,234.884c2.376,0.948,4.846,1.415,7.329,1.415c2.683,0,5.354-0.547,7.89-1.642     c4.886-2.109,8.65-5.994,10.613-10.933s1.869-10.346-0.24-15.226c-2.109-4.879-5.994-8.644-10.933-10.607     c-10.239-4.039-21.787,0.974-25.832,11.168C356.435,219.258,361.454,230.845,371.654,234.884z M370.653,213.09     c1.389-3.517,4.766-5.66,8.344-5.66c1.094,0,2.202,0.2,3.284,0.634c2.229,0.881,3.978,2.576,4.926,4.772     c0.948,2.202,0.988,4.632,0.107,6.855c-0.881,2.223-2.576,3.971-4.78,4.926c-2.163,0.954-4.606,1.001-6.848,0.1     C371.093,222.896,368.824,217.683,370.653,213.09z"/></g></g></g></svg>