<?xml version="1.0" ?><svg data-name="Layer 1" id="Layer_1" viewBox="0 0 130 130" xmlns="http://www.w3.org/2000/svg"><defs><style>.cls-1{fill:#c9c9c9;}.cls-2{fill:#353949;}.cls-3{fill:#bb3e3a;}.cls-4{fill:#595f70;}.cls-5{fill:#4a505e;}.cls-6{fill:#dbdbdb;}.cls-7{fill:#353f60;}.cls-8{fill:#ecdeb9;}.cls-9{fill:#b2b2b2;}.cls-10{fill:#70788e;}</style></defs><title/><path class="cls-1" d="M115.54,50.19V16.38a5.66,5.66,0,0,0-5.64-5.64h0a5.66,5.66,0,0,0-5.64,5.64V50.19a9.6,9.6,0,1,0,11.28,0Z"/><path class="cls-2" d="M109.9,69.06a11.1,11.1,0,0,1-7.14-19.6V16.38a7.14,7.14,0,1,1,14.28,0V49.46a11.1,11.1,0,0,1-7.14,19.6Zm0-56.82a4.14,4.14,0,0,0-4.14,4.14V50.19a1.5,1.5,0,0,1-.62,1.21,8.1,8.1,0,1,0,9.51,0,1.5,1.5,0,0,1-.62-1.21V16.38A4.14,4.14,0,0,0,109.9,12.24Z"/><circle class="cls-3" cx="109.9" cy="58.05" r="5.63"/><path class="cls-3" d="M109.9,58.85a1.5,1.5,0,0,1-1.5-1.5V36.14a1.5,1.5,0,0,1,3,0V57.35A1.5,1.5,0,0,1,109.9,58.85Z"/><path class="cls-2" d="M107.87,22.29h-3.6a1.5,1.5,0,0,1,0-3h3.6a1.5,1.5,0,0,1,0,3Z"/><path class="cls-2" d="M107.87,27h-3.6a1.5,1.5,0,0,1,0-3h3.6a1.5,1.5,0,0,1,0,3Z"/><path class="cls-2" d="M107.87,31.72h-3.6a1.5,1.5,0,1,1,0-3h3.6a1.5,1.5,0,0,1,0,3Z"/><path class="cls-4" d="M102.78,119.26a43.75,43.75,0,1,0-87.51,0Z"/><path class="cls-5" d="M25.82,94.34c-5.79.32-6,4.6-6,4.6,2.52,4,13.5,17.45,38.64,16.82,19-.47,37.61-15.62,37.55-19.95,0,0-.83-5-10.37-3.38"/><path class="cls-2" d="M102.28,120.76H14.77a1.5,1.5,0,0,1-1.5-1.5,45.25,45.25,0,1,1,90.51,0A1.5,1.5,0,0,1,102.28,120.76Zm-86-3h84.45a42.25,42.25,0,0,0-84.45,0Z"/><path class="cls-6" d="M94.94,87.51s-5.07,11.08-5.07,20.08v11.67H76.76v-12"/><path class="cls-1" d="M77.4,110.89s3.87-.88,9.33-5.09l0,13.46h2.84V98.64s-9.69,9.3-13.64,9.65Z"/><path class="cls-2" d="M89.62,120.76H76.51a1.5,1.5,0,0,1-1.5-1.5v-12a1.5,1.5,0,1,1,3,0v10.5H88.12V107.59c0-9.22,5-20.24,5.21-20.71a1.5,1.5,0,0,1,2.73,1.25c0,.11-4.94,10.9-4.94,19.46v11.67A1.5,1.5,0,0,1,89.62,120.76Z"/><path class="cls-6" d="M27.43,87.51c-5.67.38-5.91,8-5.91,8,2.31,3.74,13.59,17,34.94,17S97.13,97,97.13,84.93c0,0-1.07-6.39-10.41-4.44"/><path class="cls-1" d="M30.47,84c-4.8.32-5,6.77-5,6.77,2,3.17,12.6,15.51,32,15.51,18.07,0,33.9-16.25,33.9-26.48,0,0-2.8-3.4-10.7-1.75"/><path class="cls-7" d="M18.78,10.93H93.14a1.55,1.55,0,0,1,1.55,1.55V32.56A34.57,34.57,0,0,1,60.12,67.14H51.8A34.57,34.57,0,0,1,17.22,32.56V12.49a1.55,1.55,0,0,1,1.55-1.55Z" transform="translate(111.92 78.07) rotate(-180)"/><path class="cls-8" d="M32,35H80a9.66,9.66,0,0,1,9.66,9.66v24A33.66,33.66,0,0,1,56,102.29h0A33.66,33.66,0,0,1,22.3,68.63v-24A9.66,9.66,0,0,1,32,35Z"/><path class="cls-7" d="M22.3,50.8s51.1-2.63,51.1-19.15V19.13L28.45,30l-5.51,9.92Z"/><path class="cls-9" d="M75.16,73.52l-7.4,7.4A1.48,1.48,0,1,0,69.85,83l7.4-7.4a3,3,0,1,0-2.09-2.09Z"/><path class="cls-3" d="M77.94,70.6A2,2,0,0,0,76,72.7a2,2,0,0,0,.25.88l-3.06,3a.65.65,0,0,0,.92.93l3.1-3.07a2,2,0,0,0,.9.18,2,2,0,1,0-.15-4.05Z"/><path class="cls-7" d="M91.78,54.11S73.4,51.49,73.4,35V22.44L86,33.76l5.34,7Z"/><path class="cls-2" d="M45.31,66.21c0,3.06-1.62,5.55-3.62,5.55s-3.62-3-3.62-6c1-.19,2.29-.35,2.29-.35l-1.45-2.69a10.16,10.16,0,0,1,.7-1,2.85,2.85,0,0,1,2.08-1C43.69,60.66,45.31,63.14,45.31,66.21Z"/><path class="cls-2" d="M75.17,66.21c0,3.06-1.62,5.55-3.62,5.55s-3.62-3-3.62-6c1-.19,2.29-.35,2.29-.35l-1.45-2.69a10.16,10.16,0,0,1,.7-1,2.85,2.85,0,0,1,2.08-1C73.55,60.66,75.17,63.14,75.17,66.21Z"/><path class="cls-2" d="M37.78,62.49c-.39,0-.78,0-1.18-.06a1.5,1.5,0,1,1,.29-3c4.69.46,8.73-2.91,8.77-2.95a1.5,1.5,0,0,1,1.94,2.29A16.77,16.77,0,0,1,37.78,62.49Z"/><path class="cls-2" d="M75.45,62.49a16.77,16.77,0,0,1-9.82-3.7,1.5,1.5,0,0,1,1.94-2.29h0s4.11,3.4,8.77,2.95a1.5,1.5,0,1,1,.29,3C76.24,62.47,75.84,62.49,75.45,62.49Z"/><path class="cls-2" d="M69.41,87.55l-.25,0a1.5,1.5,0,0,1-1.23-1.73c.21-1.24.28-2.84-.59-3.43C65,80.77,57,84.3,52.1,87.33a1.5,1.5,0,1,1-1.58-2.55c2.24-1.39,13.68-8.14,18.5-4.89,1.76,1.19,2.39,3.35,1.87,6.42A1.5,1.5,0,0,1,69.41,87.55Z"/><rect class="cls-8" height="16.48" rx="6.48" ry="6.48" width="12.96" x="84.89" y="59.66"/><path class="cls-8" d="M22,76.14h0a6.5,6.5,0,0,1-6.48-6.48V66.14A6.5,6.5,0,0,1,22,59.66s6.48,2.92,6.48,6.48v3.51A6.5,6.5,0,0,1,22,76.14Z"/><path class="cls-2" d="M55.25,103.79A35.44,35.44,0,0,1,21,76.36a1.5,1.5,0,1,1,2.93-.66,32.15,32.15,0,0,0,62.81-.37,1.5,1.5,0,0,1,2-1.07,4.91,4.91,0,0,0,1.91.39,5,5,0,0,0,5-5V66.14c0-3.72-3.27-4.5-6-4.5a1.5,1.5,0,0,1,0-3c6.65,0,9,3.88,9,7.5v3.51a8,8,0,0,1-9.38,7.86A35.37,35.37,0,0,1,55.25,103.79Z"/><path class="cls-2" d="M21.26,77.64a8,8,0,0,1-8-8V66.14c0-5,3.37-8,9-8a1.5,1.5,0,0,1,0,3c-4,0-6,1.68-6,5v3.51a5,5,0,0,0,5,5,4.93,4.93,0,0,0,.9-.09,1.5,1.5,0,1,1,.54,3A7.91,7.91,0,0,1,21.26,77.64Z"/><path class="cls-7" d="M41.69,45.6c0,4-4.85,8.51-10.84,8.51C22.3,54.11,20,49.65,20,45.6s4.85-7.33,10.84-7.33S41.69,41.56,41.69,45.6Z"/><ellipse class="cls-7" cx="46.63" cy="42.29" rx="10.84" ry="7.33"/><ellipse class="cls-7" cx="62.85" cy="37.15" rx="11.54" ry="9.51"/><path class="cls-10" d="M92.31,43.26,93,44.75a33.17,33.17,0,0,0-33.07-33h-8A33.18,33.18,0,0,0,19,41.8a9,9,0,0,1,2.44-1A33.2,33.2,0,0,1,53.83,14.55h4.75A33.2,33.2,0,0,1,91.24,42.49,1.19,1.19,0,0,1,92.31,43.26Z"/><path class="cls-2" d="M30.85,55.61c-4.75,0-8.76-1.78-11-4.89A1.5,1.5,0,1,1,22.27,49c1.68,2.32,4.81,3.65,8.58,3.65a10,10,0,0,0,8.73-4.81,1.5,1.5,0,0,1,1.91-.68,13.32,13.32,0,0,0,5.15,1c3.8,0,7.3-1.52,8.71-3.77a1.5,1.5,0,0,1,2-.53,11.83,11.83,0,0,0,5.53,1.34c5.46,0,12.18-5.53,12.18-10a1.5,1.5,0,0,1,3,0c0,6.09-8.08,13-15.18,13A15,15,0,0,1,57.08,47c-2.22,2.52-6.16,4.1-10.45,4.1a16.72,16.72,0,0,1-5.1-.78A13.27,13.27,0,0,1,30.85,55.61Z"/><path class="cls-2" d="M17.22,62a1.5,1.5,0,0,1-1.5-1.5v-15A36.11,36.11,0,0,1,51.8,9.43h8.32A36.11,36.11,0,0,1,96.19,45.51v15a1.5,1.5,0,1,1-3,0v-15A33.11,33.11,0,0,0,60.12,12.43H51.8A33.11,33.11,0,0,0,18.72,45.51v15A1.5,1.5,0,0,1,17.22,62Z"/><path class="cls-2" d="M89.62,61.35a1.5,1.5,0,0,1-1.5-1.5v-5C74.68,51.46,73,41.14,72.91,40.69a1.5,1.5,0,0,1,3-.45c.06.4,1.66,9.34,14.05,11.94a1.5,1.5,0,0,1,1.19,1.47v6.21A1.5,1.5,0,0,1,89.62,61.35Z"/><path class="cls-2" d="M22.3,61.16a1.5,1.5,0,0,1-1.5-1.5V51.14a1.5,1.5,0,0,1,3,0v8.52A1.5,1.5,0,0,1,22.3,61.16Z"/><path class="cls-2" d="M57.18,114c-21.8,0-36-13.37-37.11-18.1-.25-.88-1.18-5.73,6.69-9.71a1.5,1.5,0,0,1,1.35,2.68c-6,3-5.2,6.07-5.16,6.2l0,.16c.62,3,13.56,15.77,34.19,15.77A45,45,0,0,0,88.3,98c4-4.14,6.31-8.47,6.23-11.88a1.44,1.44,0,0,1,0-.15c0-.49.07-4.91-6.7-5.29a1.5,1.5,0,0,1-1.41-1.58A1.52,1.52,0,0,1,88,77.65c3.38.19,5.94,1.25,7.61,3.15a7.9,7.9,0,0,1,1.92,5.27c.08,4.21-2.5,9.31-7.08,14A48.06,48.06,0,0,1,57.18,114Z"/><path class="cls-2" d="M109.27,106.59a1.5,1.5,0,0,1-.81-.24c-.56-.36-5.43-3.65-3.91-7.41a1.89,1.89,0,0,0,0-1.54,4.73,4.73,0,0,0-2.35-2,1.5,1.5,0,0,1,1.08-2.8,7.67,7.67,0,0,1,4,3.59,4.9,4.9,0,0,1,0,3.86c-.45,1.11,1.57,3,2.76,3.76a1.5,1.5,0,0,1-.82,2.76Z"/><path class="cls-2" d="M116.88,112a1.49,1.49,0,0,1-.81-.24c-.46-.29-4.42-3-3.14-6.12a1.09,1.09,0,0,0,0-.91,3.34,3.34,0,0,0-1.63-1.35,1.5,1.5,0,0,1,1.09-2.8,6.26,6.26,0,0,1,3.29,2.95,4.1,4.1,0,0,1,0,3.24c-.22.54,1,1.85,2,2.47a1.5,1.5,0,0,1-.82,2.76Z"/><path class="cls-2" d="M12.24,96.42a1.5,1.5,0,0,1-.82-2.76c1.18-.77,3.2-2.66,2.76-3.76a4.9,4.9,0,0,1,0-3.86,7.67,7.67,0,0,1,4-3.59,1.5,1.5,0,0,1,1.08,2.8,4.72,4.72,0,0,0-2.36,2,1.9,1.9,0,0,0,0,1.54c1.53,3.76-3.35,7-3.91,7.41A1.5,1.5,0,0,1,12.24,96.42Z"/><path class="cls-2" d="M10.49,108a1.5,1.5,0,0,1-.82-2.76c1.07-.7,2.19-2,2-2.47a4.11,4.11,0,0,1,0-3.24,6.26,6.26,0,0,1,3.29-2.95A1.5,1.5,0,0,1,16,99.43a3.34,3.34,0,0,0-1.63,1.35,1.09,1.09,0,0,0,0,.91c1.28,3.15-2.68,5.82-3.14,6.12A1.49,1.49,0,0,1,10.49,108Z"/></svg>