<?xml version="1.0" ?><svg id="Layer_2" style="enable-background:new 0 0 64 64;" version="1.1" viewBox="0 0 64 64" xml:space="preserve" xmlns="http://www.w3.org/2000/svg" xmlns:xlink="http://www.w3.org/1999/xlink"><g><g><g><path d="M28,46.02v11.96V58h-0.53c-1.37,0-2.68-0.39-3.8-1.08c-1.12-0.7-2.05-1.7-2.67-2.92v-4     c1.23-2.45,3.73-4,6.47-4H28V46.02z" style="fill:#FFEAA7;"/></g><g><path d="M21,50v4h-4c-0.55,0-1-0.45-1-1v-1v-1c0-0.55,0.45-1,1-1H21z" style="fill:#FFEAA7;"/></g><g><polygon points="32,46 36,46 40,46 44,46 49,46 50,46 50,58 49,58 36,58 28,58 28,57.98 28,46.02 28,46         " style="fill:#FFEAA7;"/></g><g><rect height="4" style="fill:#AAB2BD;" width="4" x="54" y="50"/></g><g><path d="M54,54v5c0,0.55-0.45,1-1,1h-2c-0.55,0-1-0.45-1-1v-1V46v-1c0-0.55,0.45-1,1-1h2     c0.55,0,1,0.45,1,1v5V54z" style="fill:#E6E9ED;"/></g><g><path d="M62,47v10c0,0.55-0.45,1-1,1h-2c-0.55,0-1-0.45-1-1v-3v-4v-3c0-0.55,0.45-1,1-1h2     C61.55,46,62,46.45,62,47z" style="fill:#E6E9ED;"/></g><g><path d="M28,58h8c0,2.21-1.79,4-4,4H6c-2.21,0-4-1.79-4-4v-6h14v1c0,0.55,0.45,1,1,1h4     c0.62,1.22,1.55,2.22,2.67,2.92c1.12,0.69,2.43,1.08,3.8,1.08H28z" style="fill:#E6E9ED;"/></g><g><rect height="4" style="fill:#FCD770;" width="34" x="2" y="38"/></g><g><path d="M36,42v4h-4h-4h-0.53c-2.74,0-5.24,1.55-6.47,4h-4c-0.55,0-1,0.45-1,1v1H2V42H36z" style="fill:#5CD6B3;"/></g><g><path d="M34,3v6c0,0.55-0.45,1-1,1h-3H8H5c-0.55,0-1-0.45-1-1V3c0-0.55,0.45-1,1-1h28     C33.55,2,34,2.45,34,3z" style="fill:#5CD6B3;"/></g><g><rect height="4" style="fill:#AAB2BD;" width="22" x="8" y="10"/></g><g><path d="M36,21.94V22H2v-0.06c0-3.03,1.71-5.8,4.42-7.15L8,14h22l1.58,0.79c1.13,0.56,2.09,1.38,2.82,2.35     c0.04,0.07,0.09,0.14,0.16,0.21C35.48,18.67,36,20.26,36,21.94z" style="fill:#E6E9ED;"/></g><g><path d="M2,22h34v4v7.91c-0.48,0.02-0.95,0.22-1.31,0.58c-0.78,0.78-0.78,2.04,0,2.82     c0.37,0.37,0.84,0.57,1.32,0.58L36,38H2V22z M34,26c0-1.1-0.9-2-2-2c-1.1,0-2,0.9-2,2s0.9,2,2,2C33.1,28,34,27.1,34,26z" style="fill:#5CD6B3;"/></g><g><circle cx="46" cy="12" r="2" style="fill:#EF7385;"/></g><g><path d="M37.51,14.69c0.79,0.78,0.79,2.04,0,2.82c-0.78,0.79-2.04,0.79-2.82,0     c-0.05-0.05-0.1-0.1-0.13-0.16c-0.06-0.07-0.11-0.14-0.16-0.21c-0.47-0.77-0.38-1.78,0.29-2.45     C35.47,13.91,36.73,13.91,37.51,14.69z" style="fill:#EF7385;"/></g><g><circle cx="60" cy="26" r="2" style="fill:#EF7385;"/></g><g><path d="M57.31,17.51c-0.78,0.79-2.04,0.79-2.82,0c-0.79-0.78-0.79-2.04,0-2.82     c0.78-0.78,2.04-0.78,2.82,0C58.09,15.47,58.09,16.73,57.31,17.51z" style="fill:#EF7385;"/></g><g><circle cx="32" cy="26" r="2" style="fill:#EF7385;"/></g><g><path d="M37.51,34.49c0.79,0.78,0.79,2.04,0,2.82c-0.41,0.41-0.96,0.61-1.5,0.58     c-0.48-0.01-0.95-0.21-1.32-0.58c-0.78-0.78-0.78-2.04,0-2.82c0.36-0.36,0.83-0.56,1.31-0.58     C36.54,33.87,37.09,34.07,37.51,34.49z" style="fill:#EF7385;"/></g><g><circle cx="46" cy="40" r="2" style="fill:#EF7385;"/></g><g><path d="M57.31,37.31c-0.78,0.78-2.04,0.78-2.82,0c-0.79-0.78-0.79-2.04,0-2.82     c0.78-0.79,2.04-0.79,2.82,0C58.09,35.27,58.09,36.53,57.31,37.31z" style="fill:#EF7385;"/></g><g><path d="M43.17,23.17c1.17-1.17,1.17-3.07,0-4.24c-0.1-0.1-0.21-0.2-0.32-0.28c1-0.44,2.08-0.65,3.15-0.65     c2.05,0,4.1,0.78,5.66,2.34c1.55,1.55,2.33,3.6,2.34,5.64c-1.04-0.34-2.23-0.1-3.05,0.73c-1.17,1.17-1.17,3.07,0,4.24     c0.25,0.25,0.52,0.44,0.82,0.59c-0.03,0.04-0.07,0.08-0.11,0.12c-1.55,1.55-3.6,2.33-5.64,2.34c0.34-1.04,0.1-2.23-0.73-3.05     c-1.17-1.17-3.07-1.17-4.24,0c-0.25,0.25-0.44,0.52-0.59,0.82c-0.04-0.03-0.08-0.07-0.12-0.11C38.78,30.1,38,28.05,38,26     c0-1.07,0.21-2.14,0.65-3.15c0.08,0.11,0.18,0.22,0.28,0.32C40.1,24.34,42,24.34,43.17,23.17z" style="fill:#ED5565;"/></g><g><path d="M43.17,18.93c1.17,1.17,1.17,3.07,0,4.24c-1.17,1.17-3.07,1.17-4.24,0     c-0.1-0.1-0.2-0.21-0.28-0.32c0.38-0.91,0.95-1.77,1.69-2.51s1.6-1.31,2.51-1.69C42.96,18.73,43.07,18.83,43.17,18.93z" style="fill:#EF7385;"/></g><g><path d="M47.41,24.59c-0.78,0.78-2.04,0.78-2.82,0c-0.79-0.79-0.79-2.05,0-2.83     c0.78-0.78,2.04-0.78,2.82,0C48.2,22.54,48.2,23.8,47.41,24.59z" style="fill:#FFEAA7;"/></g><g><path d="M54,25.98c0,0.01,0,0.01,0,0.02c0,2-0.74,4-2.23,5.54c-0.3-0.15-0.57-0.34-0.82-0.59     c-1.17-1.17-1.17-3.07,0-4.24C51.77,25.88,52.96,25.64,54,25.98z" style="fill:#EF7385;"/></g><g><path d="M45.29,30.95c0.83,0.82,1.07,2.01,0.73,3.05c-0.01,0-0.01,0-0.02,0c-2,0-4-0.74-5.54-2.23     c0.15-0.3,0.34-0.57,0.59-0.82C42.22,29.78,44.12,29.78,45.29,30.95z" style="fill:#EF7385;"/></g></g><rect height="2" width="6" x="7" y="29"/><rect height="2" width="2" x="25" y="29"/><rect height="2" width="8" x="15" y="29"/><rect height="2" width="10" x="7" y="25"/><rect height="2" width="8" x="19" y="25"/><path d="M54.941,27h2.244c0.414,1.161,1.514,2,2.816,2c1.654,0,3-1.346,3-3s-1.346-3-3-3c-1.302,0-2.402,0.839-2.816,2h-2.243   c-0.186-1.695-0.845-3.284-1.912-4.615l1.585-1.585c0.398,0.19,0.832,0.3,1.286,0.3c0.801,0,1.555-0.312,2.121-0.878c0,0,0,0,0,0   s0,0,0,0c0.566-0.566,0.878-1.32,0.878-2.121s-0.312-1.555-0.878-2.121c-1.134-1.134-3.11-1.133-4.243,0   c-0.567,0.567-0.879,1.32-0.879,2.122c0,0.454,0.11,0.888,0.3,1.286l-1.585,1.585c-1.331-1.067-2.92-1.725-4.615-1.912v-2.243   c1.161-0.414,2-1.514,2-2.816c0-1.654-1.346-3-3-3s-3,1.346-3,3c0,1.302,0.839,2.402,2,2.816v2.244   c-1.695,0.186-3.284,0.845-4.615,1.912L38.8,17.386c0.19-0.398,0.3-0.832,0.3-1.286c0-0.801-0.312-1.555-0.878-2.121c0,0,0,0,0,0   s0,0,0,0c-1.133-1.133-3.109-1.133-4.242,0c-0.236,0.236-0.416,0.509-0.559,0.8c-0.436-0.328-0.894-0.634-1.395-0.884L31,13.382V11   h2c1.103,0,2-0.897,2-2V3c0-1.103-0.897-2-2-2H5C3.897,1,3,1.897,3,3v6c0,1.103,0.897,2,2,2h2v2.382l-1.025,0.513   C2.906,15.429,1,18.513,1,21.944V58c0,2.757,2.243,5,5,5h26c2.414,0,4.434-1.721,4.899-4H49c0,1.103,0.897,2,2,2h2   c1.103,0,2-0.897,2-2v-4h2v2c0,1.103,0.897,2,2,2h2c1.103,0,2-0.897,2-2V47c0-1.103-0.897-2-2-2h-2c-1.103,0-2,0.897-2,2v2h-2v-4   c0-1.103-0.897-2-2-2h-2c-1.103,0-2,0.897-2,2H37v-6.252c0.454-0.143,0.875-0.381,1.222-0.727c0.921-0.921,1.105-2.291,0.577-3.405   l1.586-1.586c1.33,1.067,2.92,1.725,4.615,1.912v2.244c-1.161,0.414-2,1.514-2,2.816c0,1.654,1.346,3,3,3s3-1.346,3-3   c0-1.302-0.839-2.402-2-2.816v-2.244c1.695-0.187,3.284-0.845,4.615-1.912l1.587,1.587c-0.528,1.114-0.344,2.484,0.576,3.405h0   c0.566,0.566,1.32,0.879,2.121,0.879s1.555-0.312,2.121-0.879c1.17-1.17,1.17-3.072,0-4.242c-0.887-0.886-2.286-1.069-3.397-0.568   l-1.595-1.595C54.096,30.284,54.754,28.695,54.941,27z M59,47h2l0.001,10H59V47z M57,51v2h-2v-2H57z M51,45h2l0.001,14H51V45z    M51.657,27.414c0.351-0.351,0.811-0.534,1.287-0.565c-0.146,1.214-0.606,2.354-1.338,3.331   C50.883,29.397,50.897,28.174,51.657,27.414z M60,25c0.551,0,1,0.449,1,1s-0.449,1-1,1s-1-0.449-1-1S59.449,25,60,25z    M55.193,15.394c0.188-0.189,0.439-0.293,0.707-0.293s0.518,0.104,0.707,0.293c0.189,0.188,0.293,0.439,0.293,0.707   s-0.104,0.518-0.293,0.707l0,0c-0.377,0.378-1.036,0.378-1.414,0c-0.189-0.188-0.293-0.439-0.293-0.707   S55.003,15.583,55.193,15.394z M52.897,24.839c-0.983,0.042-1.931,0.438-2.655,1.161c-1.541,1.541-1.553,4.033-0.049,5.596   c-0.896,0.674-1.929,1.118-3.032,1.301c-0.042-0.983-0.438-1.931-1.161-2.655c-1.541-1.541-4.033-1.553-5.596-0.049   C39.497,28.989,39,27.534,39,26c0-0.493,0.054-0.977,0.152-1.448c0.578,0.314,1.221,0.498,1.898,0.498   c0.8,0,1.563-0.234,2.213-0.668c0.145,0.33,0.346,0.641,0.615,0.91c0.566,0.566,1.32,0.878,2.121,0.878s1.555-0.312,2.121-0.878   c1.17-1.169,1.17-3.073,0-4.243c-0.819-0.819-2.074-1.037-3.137-0.673c-0.073-0.433-0.225-0.842-0.433-1.225   C45.023,19.054,45.507,19,46,19c1.87,0,3.627,0.728,4.95,2.05C51.994,22.094,52.66,23.411,52.897,24.839z M35,41H3v-2h32V41z M3,37   V23h29h3v2h-0.184c-0.414-1.161-1.514-2-2.816-2c-1.654,0-3,1.346-3,3s1.346,3,3,3c1.302,0,2.402-0.839,2.816-2H35v6.13   c-0.377,0.141-0.727,0.355-1.021,0.648h0c-0.87,0.87-1.09,2.144-0.666,3.222H3z M37.386,18.8l1.585,1.585   c-1.067,1.331-1.725,2.92-1.912,4.615H37v-3.056c0-1.003-0.181-1.97-0.488-2.884C36.818,19.018,37.111,18.932,37.386,18.8z    M42.645,19.856c0.259,0.344,0.405,0.756,0.405,1.194c0,0.534-0.208,1.036-0.586,1.414c-0.688,0.688-1.836,0.743-2.607,0.179   c0.317-0.577,0.714-1.114,1.193-1.593C41.529,20.571,42.067,20.173,42.645,19.856z M45.293,22.464   c0.188-0.189,0.439-0.293,0.707-0.293s0.518,0.104,0.707,0.293c0.39,0.39,0.39,1.024,0,1.415c-0.378,0.377-1.036,0.377-1.414,0   C44.903,23.489,44.903,22.854,45.293,22.464z M33,26c0,0.551-0.449,1-1,1s-1-0.449-1-1s0.449-1,1-1S33,25.449,33,26z M37,33.073V27   h0.059c0.186,1.695,0.845,3.284,1.912,4.615l-1.595,1.595C37.253,33.155,37.128,33.111,37,33.073z M41.82,31.606   c0.784-0.722,2.005-0.709,2.766,0.051c0.351,0.351,0.535,0.81,0.566,1.287C43.937,32.797,42.797,32.338,41.82,31.606z M46,11   c0.551,0,1,0.449,1,1s-0.449,1-1,1s-1-0.449-1-1S45.449,11,46,11z M35.394,15.394c0.188-0.189,0.439-0.293,0.707-0.293   s0.518,0.104,0.707,0.293l0,0c0.189,0.188,0.293,0.439,0.293,0.707s-0.104,0.518-0.293,0.707c-0.377,0.378-1.036,0.378-1.414,0   c-0.189-0.188-0.293-0.439-0.293-0.707S35.205,15.583,35.394,15.394z M5,3h28l0.001,6H5V3z M29,11v2H9v-2H29z M6.87,15.684   L8.237,15h21.527l1.367,0.684c1,0.5,1.83,1.221,2.47,2.076c0.003,0.004,0.006,0.008,0.009,0.012   c0.699,0.938,1.166,2.039,1.325,3.228H3.065C3.371,18.72,4.769,16.734,6.87,15.684z M32,61H6c-1.654,0-3-1.346-3-3v-5h12   c0,1.103,0.897,2,2,2h3.431c1.485,2.475,4.118,4,7.041,4h7.344C34.402,60.161,33.302,61,32,61z M22,50.245   c1.019-1.869,2.891-3.056,5-3.213v9.937c-2.109-0.158-3.981-1.345-5-3.213V53v-2V50.245z M20,53h-3v-2h3V53z M49,57H29V47h2v6h2v-6   h2v4h2v-4h2v6h2v-6h2v4h2v-4h4V57z M27.472,45c-2.923,0-5.556,1.525-7.041,4H17c-1.103,0-2,0.897-2,2H3v-8h32v2H27.472z    M36.807,36.606c-0.377,0.379-1.036,0.379-1.414,0c-0.39-0.39-0.39-1.024,0-1.414h0c0.188-0.189,0.439-0.293,0.707-0.293   s0.518,0.104,0.707,0.293C37.197,35.582,37.197,36.217,36.807,36.606z M46,41c-0.551,0-1-0.448-1-1s0.449-1,1-1s1,0.448,1,1   S46.551,41,46,41z M55.899,34.899c0.267,0,0.518,0.104,0.707,0.293c0.39,0.39,0.39,1.024,0,1.414c-0.377,0.379-1.036,0.379-1.413,0   h0c-0.39-0.39-0.39-1.024,0-1.414C55.381,35.003,55.632,34.899,55.899,34.899z"/></g></svg>