<?xml version="1.0" ?><svg viewBox="0 0 64 64" xmlns="http://www.w3.org/2000/svg"><title/><g data-name="15-health insurance" id="_15-health_insurance"><path d="M28.554,39.879,22,43l-6.554-3.121A25.34,25.34,0,0,1,1,17H1V7H1A39.713,39.713,0,0,0,21.432,1.341h0a1.1,1.1,0,0,1,1.134,0h0A39.713,39.713,0,0,0,43,7h0V17h0A25.34,25.34,0,0,1,28.554,39.879Z" style="fill:none;stroke:#000;stroke-linejoin:round;stroke-width:2px"/><polygon points="34 18 26 18 26 10 18 10 18 18 10 18 10 26 18 26 18 34 26 34 26 26 34 26 34 18" style="fill:none;stroke:#000;stroke-linejoin:round;stroke-width:2px"/><ellipse cx="43" cy="45.5" rx="3.5" ry="3" style="fill:none;stroke:#000;stroke-linejoin:round;stroke-width:2px" transform="translate(-16.989 27.596) rotate(-30)"/><ellipse cx="44.741" cy="34.167" rx="2.558" ry="2.949" style="fill:none;stroke:#000;stroke-linejoin:round;stroke-width:2px" transform="translate(-11.09 26.948) rotate(-30)"/><ellipse cx="32.5" cy="44" rx="2" ry="2.5" style="fill:none;stroke:#000;stroke-linejoin:round;stroke-width:2px" transform="translate(-20.458 57.699) rotate(-68.052)"/><path d="M25.159,41a13.912,13.912,0,0,0,2.432,6.08l-2.38,2.38-.353-.353a1.5,1.5,0,0,0-2.121,2.121l3.535,3.535a1.5,1.5,0,0,0,2.121-2.121l-.353-.353,2.312-2.312A13.915,13.915,0,0,0,37,52.841V60h-.5a1.5,1.5,0,0,0,0,3h5a1.5,1.5,0,0,0,0-3H41V52.841a13.915,13.915,0,0,0,6.648-2.864l2.312,2.312-.353.353a1.5,1.5,0,0,0,2.121,2.121l3.535-3.535a1.5,1.5,0,0,0-2.121-2.121l-.353.353-2.38-2.38A13.912,13.912,0,0,0,52.841,41H60v.5a1.5,1.5,0,0,0,3,0v-5a1.5,1.5,0,0,0-3,0V37H52.841a13.915,13.915,0,0,0-2.864-6.648l2.812-2.812.353.353a1.5,1.5,0,1,0,2.121-2.121l-3.535-3.535a1.5,1.5,0,0,0-2.121,2.121l.353.353-2.88,2.88A13.912,13.912,0,0,0,41,25.159" style="fill:none;stroke:#000;stroke-linejoin:round;stroke-width:2px"/><path d="M15,41.5a1.5,1.5,0,0,0,3,0V41" style="fill:none;stroke:#000;stroke-linejoin:round;stroke-width:2px"/><line style="fill:none;stroke:#000;stroke-linejoin:round;stroke-width:2px" x1="39" x2="41" y1="38" y2="38"/><line style="fill:none;stroke:#000;stroke-linejoin:round;stroke-width:2px" x1="48" x2="50" y1="40" y2="40"/><line style="fill:none;stroke:#000;stroke-linejoin:round;stroke-width:2px" x1="36" x2="38" y1="49" y2="49"/><line style="fill:none;stroke:#000;stroke-linejoin:round;stroke-width:2px" x1="36" x2="38" y1="41" y2="41"/><circle cx="56" cy="11" r="5" style="fill:none;stroke:#000;stroke-linejoin:round;stroke-width:2px"/><line style="fill:none;stroke:#000;stroke-linejoin:round;stroke-width:2px" x1="56" x2="56" y1="3" y2="6"/><line style="fill:none;stroke:#000;stroke-linejoin:round;stroke-width:2px" x1="62.061" x2="59.939" y1="5.439" y2="7.561"/><line style="fill:none;stroke:#000;stroke-linejoin:round;stroke-width:2px" x1="49.939" x2="52.061" y1="5.439" y2="7.561"/><line style="fill:none;stroke:#000;stroke-linejoin:round;stroke-width:2px" x1="56" x2="56" y1="16" y2="19"/><line style="fill:none;stroke:#000;stroke-linejoin:round;stroke-width:2px" x1="59.939" x2="62.061" y1="14.439" y2="16.561"/><line style="fill:none;stroke:#000;stroke-linejoin:round;stroke-width:2px" x1="52.061" x2="49.939" y1="14.439" y2="16.561"/><line style="fill:none;stroke:#000;stroke-linejoin:round;stroke-width:2px" x1="61" x2="64" y1="11" y2="11"/><line style="fill:none;stroke:#000;stroke-linejoin:round;stroke-width:2px" x1="48" x2="51" y1="11" y2="11"/><line style="fill:none;stroke:#000;stroke-linejoin:round;stroke-width:2px" x1="56" x2="58" y1="9" y2="9"/><line style="fill:none;stroke:#000;stroke-linejoin:round;stroke-width:2px" x1="54" x2="56" y1="13" y2="13"/><circle cx="8" cy="56" r="5" style="fill:none;stroke:#000;stroke-linejoin:round;stroke-width:2px"/><line style="fill:none;stroke:#000;stroke-linejoin:round;stroke-width:2px" x1="8" x2="8" y1="48" y2="51"/><line style="fill:none;stroke:#000;stroke-linejoin:round;stroke-width:2px" x1="14.061" x2="11.939" y1="50.439" y2="52.561"/><line style="fill:none;stroke:#000;stroke-linejoin:round;stroke-width:2px" x1="1.939" x2="4.061" y1="50.439" y2="52.561"/><line style="fill:none;stroke:#000;stroke-linejoin:round;stroke-width:2px" x1="8" x2="8" y1="61" y2="64"/><line style="fill:none;stroke:#000;stroke-linejoin:round;stroke-width:2px" x1="11.939" x2="14.061" y1="59.439" y2="61.561"/><line style="fill:none;stroke:#000;stroke-linejoin:round;stroke-width:2px" x1="4.061" x2="1.939" y1="59.439" y2="61.561"/><line style="fill:none;stroke:#000;stroke-linejoin:round;stroke-width:2px" x1="13" x2="16" y1="56" y2="56"/><line style="fill:none;stroke:#000;stroke-linejoin:round;stroke-width:2px" x2="3" y1="56" y2="56"/><line style="fill:none;stroke:#000;stroke-linejoin:round;stroke-width:2px" x1="8" x2="10" y1="54" y2="54"/><line style="fill:none;stroke:#000;stroke-linejoin:round;stroke-width:2px" x1="6" x2="8" y1="58" y2="58"/></g></svg>