<?xml version="1.0" ?><svg style="enable-background:new 0 0 512 512;" version="1.1" viewBox="0 0 512 512" xml:space="preserve" xmlns="http://www.w3.org/2000/svg" xmlns:xlink="http://www.w3.org/1999/xlink"><g id="_x38__x2C__health_care_x2C__Building_x2C__clinic_x2C__hospital"><g id="XMLID_8588_"><path d="M136,285v170H26V285H136z" id="XMLID_8905_" style="fill:#9BC9FF;"/><path d="M486,285v170H376V285H486z" id="XMLID_8899_" style="fill:#9BC9FF;"/><rect height="35" id="XMLID_463_" style="fill:#FFFFFF;" width="110" x="376" y="250"/><path d="M441,75c11.05,0,20,8.95,20,20s-8.95,20-20,20s-20-8.95-20-20S429.95,75,441,75z" id="XMLID_462_" style="fill:#FFFFFF;"/><path d="M61,75c13.81,0,25,11.19,25,25s-11.19,25-25,25s-25-11.19-25-25S47.19,75,61,75z" id="XMLID_461_" style="fill:#FFFFFF;"/><rect height="30" id="XMLID_460_" style="fill:#FFFFFF;" width="30" x="51" y="355"/><rect height="30" id="XMLID_459_" style="fill:#FFFFFF;" width="30" x="81" y="325"/><path d="M376,455c-0.142,0-229.694,0-240,0c0-15.907,0-325.621,0-340    c8.023,0,232.003,0,240,0C376,133.816,376,436.124,376,455z" id="XMLID_8878_" style="fill:#FFFFFF;"/><rect height="30" id="XMLID_457_" style="fill:#FFFFFF;" width="30" x="401" y="355"/><rect height="30" id="XMLID_456_" style="fill:#FFFFFF;" width="30" x="431" y="325"/><rect height="40" id="XMLID_455_" style="fill:#9BC9FF;" width="40" x="296" y="310"/><rect height="40" id="XMLID_454_" style="fill:#9BC9FF;" width="40" x="216" y="310"/><rect height="40" id="XMLID_453_" style="fill:#9BC9FF;" width="40" x="256" y="270"/><rect height="40" id="XMLID_452_" style="fill:#9BC9FF;" width="40" x="176" y="270"/><rect height="40" id="XMLID_451_" style="fill:#9BC9FF;" width="40" x="216" y="230"/><rect height="40" id="XMLID_450_" style="fill:#9BC9FF;" width="40" x="296" y="230"/><rect height="40" id="XMLID_449_" style="fill:#9BC9FF;" width="40" x="296" y="150"/><rect height="40" id="XMLID_448_" style="fill:#9BC9FF;" width="40" x="256" y="190"/><rect height="35" id="XMLID_447_" style="fill:#FFFFFF;" width="110" x="376" y="455"/><rect height="30" id="XMLID_446_" style="fill:#FFFFFF;" width="30" x="431" y="355"/><circle cx="448.5" cy="192.5" id="XMLID_445_" r="7.5" style="fill:#1E81CE;"/><rect height="30" id="XMLID_444_" style="fill:#FFFFFF;" width="30" x="401" y="325"/><circle cx="373.5" cy="57.5" id="XMLID_443_" r="7.5" style="fill:#1E81CE;"/><rect height="35" id="XMLID_442_" style="fill:#9BC9FF;" width="80" x="296" y="455"/><rect height="40" id="XMLID_441_" style="fill:#FFFFFF;" width="40" x="296" y="270"/><rect height="40" id="XMLID_440_" style="fill:#FFFFFF;" width="40" x="296" y="190"/><polygon id="XMLID_439_" points="298.5,57.5 298.5,87.5 271,87.5 271,115 241,115 241,87.5 213.5,87.5     213.5,57.5 241,57.5 241,30 271,30 271,57.5   " style="fill:#9BC9FF;"/><polygon id="XMLID_438_" points="296,455 296,490 216,490 216,455 216,390 296,390   " style="fill:#9BC9FF;"/><rect height="40" id="XMLID_437_" style="fill:#FFFFFF;" width="40" x="256" y="310"/><rect height="40" id="XMLID_436_" style="fill:#FFFFFF;" width="40" x="256" y="230"/><rect height="40" id="XMLID_435_" style="fill:#FFFFFF;" width="40" x="256" y="150"/><rect height="40" id="XMLID_434_" style="fill:#FFFFFF;" width="40" x="216" y="270"/><rect height="40" id="XMLID_433_" style="fill:#FFFFFF;" width="40" x="216" y="190"/><rect height="40" id="XMLID_432_" style="fill:#9BC9FF;" width="40" x="216" y="150"/><rect height="35" id="XMLID_431_" style="fill:#9BC9FF;" width="80" x="136" y="455"/><rect height="40" id="XMLID_430_" style="fill:#FFFFFF;" width="40" x="176" y="310"/><rect height="40" id="XMLID_429_" style="fill:#FFFFFF;" width="40" x="176" y="230"/><rect height="40" id="XMLID_428_" style="fill:#9BC9FF;" width="40" x="176" y="190"/><rect height="40" id="XMLID_427_" style="fill:#FFFFFF;" width="40" x="176" y="150"/><circle cx="173.5" cy="42.5" id="XMLID_426_" r="7.5" style="fill:#1E81CE;"/><rect height="35" id="XMLID_425_" style="fill:#FFFFFF;" width="110" x="26" y="455"/><rect height="35" id="XMLID_424_" style="fill:#FFFFFF;" width="110" x="26" y="250"/><rect height="30" id="XMLID_423_" style="fill:#FFFFFF;" width="30" x="81" y="355"/><circle cx="98.5" cy="157.5" id="XMLID_422_" r="7.5" style="fill:#1E81CE;"/><rect height="30" id="XMLID_421_" style="fill:#FFFFFF;" width="30" x="51" y="325"/><circle cx="58.5" cy="207.5" id="XMLID_420_" r="7.5" style="fill:#1E81CE;"/><path d="M216,495h-80c-2.761,0-5-2.238-5-5s2.239-5,5-5h80c2.761,0,5,2.238,5,5    S218.761,495,216,495z" id="XMLID_419_" style="fill:#1E81CE;"/><path d="M376,495h-80c-2.761,0-5-2.238-5-5s2.239-5,5-5h80c2.761,0,5,2.238,5,5    S378.761,495,376,495z" id="XMLID_418_" style="fill:#1E81CE;"/><path d="M376,255c-2.761,0-5-2.239-5-5V120H271c-2.761,0-5-2.239-5-5s2.239-5,5-5h105    c2.761,0,5,2.239,5,5v135C381,252.761,378.761,255,376,255z" id="XMLID_417_" style="fill:#1E81CE;"/><path d="M136,255c-2.761,0-5-2.239-5-5V115c0-2.761,2.239-5,5-5h105c2.761,0,5,2.239,5,5    s-2.239,5-5,5H141v130C141,252.761,138.761,255,136,255z" id="XMLID_416_" style="fill:#1E81CE;"/><path d="M176,195c-2.761,0-5-2.239-5-5v-40c0-2.761,2.239-5,5-5h40c2.761,0,5,2.239,5,5    s-2.239,5-5,5h-35v35C181,192.761,178.761,195,176,195z" id="XMLID_415_" style="fill:#1E81CE;"/><path d="M216,195c-2.761,0-5-2.239-5-5v-40c0-2.761,2.239-5,5-5h40c2.761,0,5,2.239,5,5    s-2.239,5-5,5h-35v35C221,192.761,218.761,195,216,195z" id="XMLID_414_" style="fill:#1E81CE;"/><path d="M256,195c-2.761,0-5-2.239-5-5v-40c0-2.761,2.239-5,5-5h40c2.761,0,5,2.239,5,5    s-2.239,5-5,5h-35v35C261,192.761,258.761,195,256,195z" id="XMLID_413_" style="fill:#1E81CE;"/><path d="M336,195c-2.761,0-5-2.239-5-5v-35h-30v35c0,2.761-2.239,5-5,5s-5-2.239-5-5v-40    c0-2.761,2.239-5,5-5h40c2.761,0,5,2.239,5,5v40C341,192.761,338.761,195,336,195z" id="XMLID_412_" style="fill:#1E81CE;"/><path d="M176,235c-2.761,0-5-2.239-5-5v-40c0-2.761,2.239-5,5-5h40c2.761,0,5,2.239,5,5    s-2.239,5-5,5h-35v35C181,232.761,178.761,235,176,235z" id="XMLID_411_" style="fill:#1E81CE;"/><path d="M216,235c-2.761,0-5-2.239-5-5v-40c0-2.761,2.239-5,5-5h40c2.761,0,5,2.239,5,5    s-2.239,5-5,5h-35v35C221,232.761,218.761,235,216,235z" id="XMLID_410_" style="fill:#1E81CE;"/><path d="M256,235c-2.761,0-5-2.239-5-5v-40c0-2.761,2.239-5,5-5h40c2.761,0,5,2.239,5,5    s-2.239,5-5,5h-35v35C261,232.761,258.761,235,256,235z" id="XMLID_409_" style="fill:#1E81CE;"/><path d="M336,235c-2.761,0-5-2.239-5-5v-35h-30v35c0,2.761-2.239,5-5,5s-5-2.239-5-5v-40    c0-2.761,2.239-5,5-5h40c2.761,0,5,2.239,5,5v40C341,232.761,338.761,235,336,235z" id="XMLID_408_" style="fill:#1E81CE;"/><path d="M176,275c-2.761,0-5-2.238-5-5v-40c0-2.761,2.239-5,5-5h40c2.761,0,5,2.239,5,5    s-2.239,5-5,5h-35v35C181,272.762,178.761,275,176,275z" id="XMLID_407_" style="fill:#1E81CE;"/><path d="M216,275c-2.761,0-5-2.238-5-5v-40c0-2.761,2.239-5,5-5h40c2.761,0,5,2.239,5,5    s-2.239,5-5,5h-35v35C221,272.762,218.761,275,216,275z" id="XMLID_406_" style="fill:#1E81CE;"/><path d="M256,275c-2.761,0-5-2.238-5-5v-40c0-2.761,2.239-5,5-5h40c2.761,0,5,2.239,5,5    s-2.239,5-5,5h-35v35C261,272.762,258.761,275,256,275z" id="XMLID_405_" style="fill:#1E81CE;"/><path d="M336,275c-2.761,0-5-2.238-5-5v-35h-30v35c0,2.762-2.239,5-5,5s-5-2.238-5-5v-40    c0-2.761,2.239-5,5-5h40c2.761,0,5,2.239,5,5v40C341,272.762,338.761,275,336,275z" id="XMLID_404_" style="fill:#1E81CE;"/><path d="M176,315c-2.761,0-5-2.238-5-5v-40c0-2.762,2.239-5,5-5h40c2.761,0,5,2.238,5,5    s-2.239,5-5,5h-35v35C181,312.762,178.761,315,176,315z" id="XMLID_403_" style="fill:#1E81CE;"/><path d="M216,315c-2.761,0-5-2.238-5-5v-40c0-2.762,2.239-5,5-5h40c2.761,0,5,2.238,5,5    s-2.239,5-5,5h-35v35C221,312.762,218.761,315,216,315z" id="XMLID_402_" style="fill:#1E81CE;"/><path d="M256,315c-2.761,0-5-2.238-5-5v-40c0-2.762,2.239-5,5-5h40c2.761,0,5,2.238,5,5    s-2.239,5-5,5h-35v35C261,312.762,258.761,315,256,315z" id="XMLID_401_" style="fill:#1E81CE;"/><path d="M336,315c-2.761,0-5-2.238-5-5v-35h-30v35c0,2.762-2.239,5-5,5s-5-2.238-5-5v-40    c0-2.762,2.239-5,5-5h40c2.761,0,5,2.238,5,5v40C341,312.762,338.761,315,336,315z" id="XMLID_400_" style="fill:#1E81CE;"/><path d="M216,355h-40c-2.761,0-5-2.238-5-5v-40c0-2.762,2.239-5,5-5h40    c2.761,0,5,2.238,5,5s-2.239,5-5,5h-35v30h35c2.761,0,5,2.238,5,5S218.761,355,216,355z" id="XMLID_399_" style="fill:#1E81CE;"/><path d="M256,355h-40c-2.761,0-5-2.238-5-5v-40c0-2.762,2.239-5,5-5h40    c2.761,0,5,2.238,5,5s-2.239,5-5,5h-35v30h35c2.761,0,5,2.238,5,5S258.761,355,256,355z" id="XMLID_398_" style="fill:#1E81CE;"/><path d="M296,355h-40c-2.761,0-5-2.238-5-5v-40c0-2.762,2.239-5,5-5h40    c2.761,0,5,2.238,5,5s-2.239,5-5,5h-35v30h35c2.761,0,5,2.238,5,5S298.761,355,296,355z" id="XMLID_397_" style="fill:#1E81CE;"/><path d="M336,355h-40c-2.761,0-5-2.238-5-5v-40c0-2.762,2.239-5,5-5h40    c2.761,0,5,2.238,5,5v40C341,352.762,338.761,355,336,355z M301,345h30v-30h-30V345z" id="XMLID_8687_" style="fill:#1E81CE;"/><path d="M486,290c-2.761,0-5-2.238-5-5v-30H381v30c0,2.762-2.239,5-5,5s-5-2.238-5-5v-35    c0-2.761,2.239-5,5-5h110c2.761,0,5,2.239,5,5v35C491,287.762,488.761,290,486,290z" id="XMLID_394_" style="fill:#1E81CE;"/><path d="M486,495H376c-2.761,0-5-2.238-5-5V285c0-2.762,2.239-5,5-5h110    c2.761,0,5,2.238,5,5v205C491,492.762,488.761,495,486,495z M381,485h100V290H381V485z" id="XMLID_8676_" style="fill:#1E81CE;"/><path d="M136,290c-2.761,0-5-2.238-5-5v-30H31v30c0,2.762-2.239,5-5,5s-5-2.238-5-5v-35    c0-2.761,2.239-5,5-5h110c2.761,0,5,2.239,5,5v35C141,287.762,138.761,290,136,290z" id="XMLID_391_" style="fill:#1E81CE;"/><path d="M136,495H26c-2.761,0-5-2.238-5-5V285c0-2.762,2.239-5,5-5h110    c2.761,0,5,2.238,5,5v205C141,492.762,138.761,495,136,495z M31,485h100V290H31V485z" id="XMLID_8665_" style="fill:#1E81CE;"/><path d="M401,360c-2.761,0-5-2.238-5-5v-30c0-2.762,2.239-5,5-5h30c2.761,0,5,2.238,5,5    s-2.239,5-5,5h-25v25C406,357.762,403.761,360,401,360z" id="XMLID_388_" style="fill:#1E81CE;"/><path d="M461,360c-2.761,0-5-2.238-5-5v-25h-20v25c0,2.762-2.239,5-5,5s-5-2.238-5-5v-30    c0-2.762,2.239-5,5-5h30c2.761,0,5,2.238,5,5v30C466,357.762,463.761,360,461,360z" id="XMLID_387_" style="fill:#1E81CE;"/><path d="M431,390h-30c-2.761,0-5-2.238-5-5v-30c0-2.762,2.239-5,5-5h30    c2.761,0,5,2.238,5,5s-2.239,5-5,5h-25v20h25c2.761,0,5,2.238,5,5S433.761,390,431,390z" id="XMLID_386_" style="fill:#1E81CE;"/><path d="M461,390h-30c-2.761,0-5-2.238-5-5v-30c0-2.762,2.239-5,5-5h30    c2.761,0,5,2.238,5,5v30C466,387.762,463.761,390,461,390z M436,380h20v-20h-20V380z" id="XMLID_8648_" style="fill:#1E81CE;"/><path d="M51,360c-2.761,0-5-2.238-5-5v-30c0-2.762,2.239-5,5-5h30c2.761,0,5,2.238,5,5    s-2.239,5-5,5H56v25C56,357.762,53.761,360,51,360z" id="XMLID_383_" style="fill:#1E81CE;"/><path d="M111,360c-2.761,0-5-2.238-5-5v-25H86v25c0,2.762-2.239,5-5,5s-5-2.238-5-5v-30    c0-2.762,2.239-5,5-5h30c2.761,0,5,2.238,5,5v30C116,357.762,113.761,360,111,360z" id="XMLID_382_" style="fill:#1E81CE;"/><path d="M81,390H51c-2.761,0-5-2.238-5-5v-30c0-2.762,2.239-5,5-5h30c2.761,0,5,2.238,5,5    s-2.239,5-5,5H56v20h25c2.761,0,5,2.238,5,5S83.761,390,81,390z" id="XMLID_381_" style="fill:#1E81CE;"/><path d="M111,390H81c-2.761,0-5-2.238-5-5v-30c0-2.762,2.239-5,5-5h30    c2.761,0,5,2.238,5,5v30C116,387.762,113.761,390,111,390z M86,380h20v-20H86V380z" id="XMLID_8631_" style="fill:#1E81CE;"/><path d="M296,495h-80c-2.761,0-5-2.238-5-5V390c0-2.762,2.239-5,5-5h80    c2.761,0,5,2.238,5,5v100C301,492.762,298.761,495,296,495z M221,485h70v-90h-70V485z" id="XMLID_8623_" style="fill:#1E81CE;"/><path d="M271,120h-30c-2.761,0-5-2.239-5-5V92.5h-22.5c-2.761,0-5-2.239-5-5v-30    c0-2.761,2.239-5,5-5H236V30c0-2.761,2.239-5,5-5h30c2.761,0,5,2.239,5,5v22.5h22.5c2.761,0,5,2.239,5,5v30c0,2.761-2.239,5-5,5    H276V115C276,117.761,273.761,120,271,120z M246,110h20V87.5c0-2.761,2.239-5,5-5h22.5v-20H271c-2.761,0-5-2.239-5-5V35h-20v22.5    c0,2.761-2.239,5-5,5h-22.5v20H241c2.761,0,5,2.239,5,5V110z" id="XMLID_8615_" style="fill:#1E81CE;"/><path d="M441,120c-13.785,0-25-11.215-25-25s11.215-25,25-25s25,11.215,25,25    S454.785,120,441,120z M441,80c-8.271,0-15,6.729-15,15s6.729,15,15,15s15-6.729,15-15S449.271,80,441,80z" id="XMLID_8607_" style="fill:#1E81CE;"/><path d="M61,130c-16.542,0-30-13.458-30-30s13.458-30,30-30s30,13.458,30,30    S77.542,130,61,130z M61,80c-11.028,0-20,8.972-20,20s8.972,20,20,20s20-8.972,20-20S72.028,80,61,80z" id="XMLID_8599_" style="fill:#1E81CE;"/><path d="M486,460H296c-2.761,0-5-2.238-5-5s2.239-5,5-5h190c2.761,0,5,2.238,5,5    S488.761,460,486,460z" id="XMLID_370_" style="fill:#1E81CE;"/><path d="M216,460H26c-2.761,0-5-2.238-5-5s2.239-5,5-5h190c2.761,0,5,2.238,5,5    S218.761,460,216,460z" id="XMLID_369_" style="fill:#1E81CE;"/></g></g><g id="Layer_1"/></svg>