<?xml version="1.0" ?><svg height="512" viewBox="0 0 512 512" width="512" xmlns="http://www.w3.org/2000/svg"><g><path d="M164,296H348a60,60,0,0,1,60,60v52a0,0,0,0,1,0,0H104a0,0,0,0,1,0,0V356A60,60,0,0,1,164,296Z" fill="#5ec09b"/><path d="M256,112h0a88,88,0,0,0-88,88v80a40,40,0,0,0,40,40h96a40,40,0,0,0,40-40V200A88,88,0,0,0,256,112Z" fill="#fac8b2"/><path d="M160,200H352V148a60,60,0,0,0-60-60H220a60,60,0,0,0-60,60Z" fill="#5ec09b"/><circle cx="256" cy="112" fill="#eceff0" r="56"/><path d="M168,248h0V200H152a16,16,0,0,0-16,16h0A32,32,0,0,0,168,248Z" fill="#eaaa94"/><path d="M344,248h0V200h16a16,16,0,0,1,16,16h0A32,32,0,0,1,344,248Z" fill="#eaaa94"/><circle cx="216" cy="224" fill="#683b11" r="8"/><circle cx="296" cy="224" fill="#683b11" r="8"/><path d="M360,416a8,8,0,0,1-8-8V392a32,32,0,0,0-64,0v16a8,8,0,0,1-16,0V392a48,48,0,0,1,96,0v16A8,8,0,0,1,360,416Z" fill="#2c3f51"/><path d="M320,360a8,8,0,0,1-8-8V320a8,8,0,0,1,16,0v32A8,8,0,0,1,320,360Z" fill="#2c3f51"/><path d="M192,384a8,8,0,0,1-8-8V320a8,8,0,0,1,16,0v56A8,8,0,0,1,192,384Z" fill="#2c3f51"/><circle cx="192" cy="392" fill="#eceff0" r="16"/><path d="M256,416a8,8,0,0,1-8-8V352a8,8,0,0,1,16,0v56A8,8,0,0,1,256,416Z" fill="#42a87e"/><path d="M128,72H104a8,8,0,0,1,0-16h24a8,8,0,0,1,0,16Z" fill="#00a8e7"/><path d="M88,96a7.969,7.969,0,0,1-5.655-2.342l-8-8a8,8,0,1,1,11.31-11.316l8,8A8,8,0,0,1,88,96Z" fill="#00a8e7"/><path d="M64,136a8,8,0,0,1-8-8V104a8,8,0,0,1,16,0v24A8,8,0,0,1,64,136Z" fill="#00a8e7"/><polygon fill="#94a4a5" points="40 72 72 40 40 40 40 72"/><path d="M40,48a7.974,7.974,0,0,1-5.657-2.343l-16-16A8,8,0,0,1,29.657,18.343l16,16A8,8,0,0,1,40,48Z" fill="#7f8b8c"/><path d="M104,264H84a8,8,0,0,1,0-16h20a8,8,0,1,1,0,16Z" fill="#00a8e7"/><path d="M80,240a8,8,0,0,1-5.657-13.657l16-16a8,8,0,0,1,11.314,11.314l-16,16A7.974,7.974,0,0,1,80,240Z" fill="#00a8e7"/><path d="M96,304a7.974,7.974,0,0,1-5.657-2.343l-16-16a8,8,0,0,1,11.314-11.314l16,16A8,8,0,0,1,96,304Z" fill="#00a8e7"/><polygon fill="#94a4a5" points="56 232 56 280 32 256 56 232"/><path d="M408,72H384a8,8,0,0,1,0-16h24a8,8,0,0,1,0,16Z" fill="#00a8e7"/><path d="M424,96a8,8,0,0,1-5.657-13.657l8-8a8,8,0,0,1,11.314,11.314l-8,8A7.974,7.974,0,0,1,424,96Z" fill="#00a8e7"/><path d="M448,136a8,8,0,0,1-8-8V104a8,8,0,0,1,16,0v24A8,8,0,0,1,448,136Z" fill="#00a8e7"/><polygon fill="#94a4a5" points="472 72 440 40 472 40 472 72"/><path d="M472,48a8,8,0,0,1-5.657-13.657l16-16a8,8,0,0,1,11.314,11.314l-16,16A7.974,7.974,0,0,1,472,48Z" fill="#7f8b8c"/><path d="M128,456H104a8,8,0,0,1,0-16h24a8,8,0,1,1,0,16Z" fill="#00a8e7"/><path d="M80,440a8,8,0,0,1-5.655-13.658l8-8a8,8,0,1,1,11.31,11.316l-8,8A7.969,7.969,0,0,1,80,440Z" fill="#00a8e7"/><path d="M64,416a8,8,0,0,1-8-8V384a8,8,0,0,1,16,0v24A8,8,0,0,1,64,416Z" fill="#00a8e7"/><polygon fill="#94a4a5" points="40 439.996 72 471.996 40 471.996 40 439.996"/><path d="M24,496a8,8,0,0,1-5.657-13.657l16-16a8,8,0,1,1,11.314,11.314l-16,16A7.974,7.974,0,0,1,24,496Z" fill="#7f8b8c"/><path d="M408,456H384a8,8,0,0,1,0-16h24a8,8,0,0,1,0,16Z" fill="#00a8e7"/><path d="M432,440a7.969,7.969,0,0,1-5.655-2.342l-8-8a8,8,0,0,1,11.31-11.316l8,8A8,8,0,0,1,432,440Z" fill="#00a8e7"/><path d="M448,416a8,8,0,0,1-8-8V384a8,8,0,0,1,16,0v24A8,8,0,0,1,448,416Z" fill="#00a8e7"/><polygon fill="#94a4a5" points="472 439.996 440 471.996 472 471.996 472 439.996"/><path d="M488,496a7.974,7.974,0,0,1-5.657-2.343l-16-16a8,8,0,1,1,11.314-11.314l16,16A8,8,0,0,1,488,496Z" fill="#7f8b8c"/><path d="M428,264H408a8,8,0,0,1,0-16h20a8,8,0,0,1,0,16Z" fill="#00a8e7"/><path d="M432,240a7.974,7.974,0,0,1-5.657-2.343l-16-16a8,8,0,0,1,11.314-11.314l16,16A8,8,0,0,1,432,240Z" fill="#00a8e7"/><path d="M416,304a8,8,0,0,1-5.657-13.657l16-16a8,8,0,0,1,11.314,11.314l-16,16A7.974,7.974,0,0,1,416,304Z" fill="#00a8e7"/><polygon fill="#94a4a5" points="456 232 456 280 480 256 456 232"/><path d="M32,264H24a8,8,0,0,1,0-16h8a8,8,0,0,1,0,16Z" fill="#7f8b8c"/><path d="M488,264h-8a8,8,0,0,1,0-16h8a8,8,0,0,1,0,16Z" fill="#7f8b8c"/><circle cx="256" cy="112" fill="#d1e1e5" r="16"/><path d="M160,248H352a0,0,0,0,1,0,0v32a40,40,0,0,1-40,40H200a40,40,0,0,1-40-40V248A0,0,0,0,1,160,248Z" fill="#42a87e"/><path d="M232,320h48a0,0,0,0,1,0,0v8a24,24,0,0,1-24,24h0a24,24,0,0,1-24-24v-8A0,0,0,0,1,232,320Z" fill="#fac8b2"/></g></svg>