<?xml version="1.0" ?><svg data-name="Layer 3" id="Layer_3" viewBox="0 0 2050 2050" xmlns="http://www.w3.org/2000/svg"><defs><style>.cls-1{fill:#e0e1e2;}.cls-2{fill:#2e3a58;}.cls-3{fill:#1682fc;}</style></defs><title/><path class="cls-1" d="M1359.7,1029.8a132,132,0,0,1,129.1-131.9l1.6-4.2a300.5,300.5,0,0,0-4.5-37.7c-93.3,3-168.2,79.8-168.2,173.8a173.5,173.5,0,0,0,55.8,127.5l27.9-28.1.9-2.4A131.3,131.3,0,0,1,1359.7,1029.8Z"/><path class="cls-1" d="M964,1435.9,608.9,1077.7a308.7,308.7,0,0,1-54.5-360A316.8,316.8,0,0,1,585.8,669a309.1,309.1,0,0,0-28.2,460l355.1,358.2a93.8,93.8,0,0,0,133.3.1l46.3-46.6A93.9,93.9,0,0,1,964,1435.9Z"/><path class="cls-2" d="M979.4,1530h0a108.1,108.1,0,0,1-77.4-32.2L546.9,1139.5A323.8,323.8,0,0,1,979.6,659.2a327.9,327.9,0,0,1,53.2-34.6,323.8,323.8,0,0,1,472.6,268.2l-30,1.7A293.8,293.8,0,0,0,989.5,690.1a15,15,0,0,1-19.7,0,296.4,296.4,0,0,0-57.2-39,293.8,293.8,0,0,0-344.4,467.3l355.1,358.3a78.8,78.8,0,0,0,56.1,23.3h0a78.4,78.4,0,0,0,56-23.3l355.3-358,21.3,21.1-355.3,358A108.1,108.1,0,0,1,979.4,1530Z"/><path class="cls-3" d="M1337,1091.2a4.7,4.7,0,0,1-3.5-1.5,4.9,4.9,0,0,1-.1-7l10.5-10.5c3.4-3.6,6.9-7.2,10.1-10.9a4.9,4.9,0,0,1,7-.5,5.1,5.1,0,0,1,.5,7.1c-3.3,3.8-6.9,7.6-10.5,11.3l-10.5,10.5A4.7,4.7,0,0,1,1337,1091.2Z"/><path class="cls-3" d="M1001.1,1429.6a5.4,5.4,0,0,1-3.5-1.4,5.1,5.1,0,0,1,0-7.1l42-42.3a4.8,4.8,0,0,1,7,0,4.9,4.9,0,0,1,.1,7l-42,42.3A5.1,5.1,0,0,1,1001.1,1429.6Zm-47.4-4a5.1,5.1,0,0,1-3.6-1.5l-41.9-42.3a5,5,0,0,1,0-7.1,5,5,0,0,1,7.1.1l41.9,42.3a5,5,0,0,1,0,7.1A5.2,5.2,0,0,1,953.7,1425.6Zm131.4-80.6a5.2,5.2,0,0,1-3.5-1.4,5,5,0,0,1,0-7.1l41.9-42.3a5,5,0,0,1,7.1,0,4.8,4.8,0,0,1,0,7l-41.9,42.3A5.1,5.1,0,0,1,1085.1,1345Zm-215.3-4a5.1,5.1,0,0,1-3.6-1.5l-41.9-42.3a5,5,0,0,1,0-7.1,5,5,0,0,1,7.1,0l41.9,42.4a4.8,4.8,0,0,1,0,7A5,5,0,0,1,869.8,1341Zm299.3-80.6a5.4,5.4,0,0,1-3.6-1.4,5.1,5.1,0,0,1,0-7.1l42-42.3a5,5,0,0,1,7.1,0,5,5,0,0,1,0,7l-42,42.3A5,5,0,0,1,1169.1,1260.4Zm-383.2-4.1a5.1,5.1,0,0,1-3.6-1.5l-41.9-42.3a5,5,0,0,1,0-7.1,5,5,0,0,1,7.1.1l41.9,42.3a5,5,0,0,1,0,7.1A5.4,5.4,0,0,1,785.9,1256.3Zm467.1-80.5a5.2,5.2,0,0,1-3.5-1.4,5,5,0,0,1,0-7.1l42-42.3a4.9,4.9,0,0,1,7-.1,5,5,0,0,1,.1,7.1l-42,42.3A5.1,5.1,0,0,1,1253,1175.8Zm-551-4.1a5.1,5.1,0,0,1-3.6-1.5l-41.9-42.4a4.8,4.8,0,0,1,0-7,5,5,0,0,1,7.1,0l41.9,42.3a5.1,5.1,0,0,1-3.5,8.6ZM618,1087a5,5,0,0,1-3.5-1.5L608,1079a241.5,241.5,0,0,1-32-40.2,5,5,0,1,1,8.4-5.3,231,231,0,0,0,30.7,38.4l6.5,6.6a5,5,0,0,1,0,7A5.1,5.1,0,0,1,618,1087Zm-62.9-99.7a5.1,5.1,0,0,1-4.8-3.5,249.5,249.5,0,0,1-8.5-36.6c-1.1-7.6-1.9-15.4-2.4-23.1a5.1,5.1,0,0,1,4.8-5.3,5,5,0,0,1,5.2,4.7c.4,7.4,1.2,14.9,2.3,22.2a244.9,244.9,0,0,0,8.1,35.1,5,5,0,0,1-3.2,6.3Zm-6.2-117.7-1-.2a4.9,4.9,0,0,1-3.9-5.9,237.3,237.3,0,0,1,19.8-57.3,5,5,0,0,1,9,4.4,225.5,225.5,0,0,0-19,55A5.1,5.1,0,0,1,548.9,869.6Zm837.6-64.4a5.1,5.1,0,0,1-4.4-2.6,230.5,230.5,0,0,0-34.2-47.1,5,5,0,1,1,7.3-6.9,236.5,236.5,0,0,1,35.6,49.2,4.9,4.9,0,0,1-2,6.8A4.6,4.6,0,0,1,1386.5,805.2ZM601.2,763.9a5.4,5.4,0,0,1-3.3-1.2,5.1,5.1,0,0,1-.5-7.1,238.4,238.4,0,0,1,45.4-40.3,5,5,0,0,1,5.6,8.2A231.3,231.3,0,0,0,605,762.2,5.2,5.2,0,0,1,601.2,763.9Zm373.6-.7h-.3a69.4,69.4,0,0,1-40.8-17l-7.3-6.3-6.1-5.2a5,5,0,0,1-.8-7,5.1,5.1,0,0,1,7.1-.8l6.4,5.4,7.3,6.4a58.7,58.7,0,0,0,34.9,14.5,5.1,5.1,0,0,1,4.6,5.4A5,5,0,0,1,974.8,763.2Zm53.7-21.2a5.2,5.2,0,0,1-3.8-1.7,5.1,5.1,0,0,1,.5-7.1l1-.8a234.9,234.9,0,0,1,46.3-31.5l3-1.6a5,5,0,0,1,6.7,2.2,4.9,4.9,0,0,1-2.2,6.7l-2.9,1.5a231,231,0,0,0-44.3,30.2l-1,.9A5.2,5.2,0,0,1,1028.5,742Zm277.1-22.6a5,5,0,0,1-2.6-.8l-4.2-2.5a228.4,228.4,0,0,0-48.7-21.7,5.1,5.1,0,0,1-3.3-6.3,5.1,5.1,0,0,1,6.3-3.3,243.4,243.4,0,0,1,50.8,22.7l4.4,2.6a5.1,5.1,0,0,1,1.6,6.9A5.2,5.2,0,0,1,1305.6,719.4ZM872.8,704.6a3.5,3.5,0,0,1-2-.5A230.6,230.6,0,0,0,815.2,687a4.9,4.9,0,0,1-4.1-5.7,5,5,0,0,1,5.8-4.1,238.7,238.7,0,0,1,58,17.8,5,5,0,0,1-2.1,9.6Zm-174.2-7.1a4.9,4.9,0,0,1-4.7-3.4,5,5,0,0,1,3-6.4,236.3,236.3,0,0,1,59.3-12.9,5,5,0,0,1,.9,9.9,225.5,225.5,0,0,0-56.8,12.5A5.1,5.1,0,0,1,698.6,697.5Zm435.2-8.5a5,5,0,0,1-4.9-4,5.1,5.1,0,0,1,3.9-5.9A236.8,236.8,0,0,1,1182,674l11.3.2a5.1,5.1,0,0,1,4.8,5.3,5,5,0,0,1-5.3,4.7L1182,684a223.4,223.4,0,0,0-47.1,4.9Z"/><path class="cls-3" d="M1413.5,890.2a5.1,5.1,0,0,1-5-4.4,218.8,218.8,0,0,0-5.2-28.9,5,5,0,0,1,9.7-2.4,237.6,237.6,0,0,1,5.5,30.1,5.1,5.1,0,0,1-4.4,5.6Z"/><path class="cls-3" d="M877.9,1243.8a15.2,15.2,0,0,1-14.3-10.2L779.1,980.3l-35.4,46.2a15.2,15.2,0,0,1-11.9,5.9H426.5v-30H724.4l48-62.8a15,15,0,0,1,26.2,4.4l76.3,228.5,71.9-328.3a15,15,0,0,1,29.2-.6l37.5,142.5,35.7-56.2a15,15,0,0,1,25.7.8l57.4,103.1,22.2-26.8a15.2,15.2,0,0,1,11.6-5.4h197.1v30H1173.1l-31.7,38.3a15,15,0,0,1-24.6-2.3L1061,967.3l-40.6,63.9a15,15,0,0,1-27.2-4.2L962.8,911.4,892.5,1232a15,15,0,0,1-13.8,11.8Z"/><path class="cls-1" d="M1520.3,1133.1a131.9,131.9,0,0,1-106.5-209.8,131.9,131.9,0,1,0,184.3,184.4A131.7,131.7,0,0,1,1520.3,1133.1Z"/><path class="cls-2" d="M1491.6,1176.7c-81,0-146.9-65.9-146.9-146.9s65.9-146.9,146.9-146.9,146.9,65.9,146.9,146.9S1572.6,1176.7,1491.6,1176.7Zm0-263.8a116.9,116.9,0,1,0,116.9,116.9A117,117,0,0,0,1491.6,912.9Z"/><polygon class="cls-3" points="1513.8 1007.7 1513.8 963.4 1469.5 963.4 1469.5 1007.7 1425.2 1007.7 1425.2 1051.9 1469.5 1051.9 1469.5 1096.2 1513.8 1096.2 1513.8 1051.9 1558 1051.9 1558 1007.7 1513.8 1007.7"/></svg>