<?xml version="1.0" ?><svg data-name="Layer 1" id="Layer_1" viewBox="0 0 130 130" xmlns="http://www.w3.org/2000/svg"><defs><style>.cls-1{fill:#c4502c;}.cls-2{fill:#353949;}.cls-3{fill:#7cbaa8;}.cls-4{fill:#45ba8e;}.cls-5{fill:#dbdbdb;}.cls-6{fill:#c9c9c9;}.cls-7{fill:#ecdeb9;}.cls-8{fill:#db764d;}.cls-10,.cls-9{fill:#c95555;}.cls-9{opacity:0.36;}.cls-11{fill:#e58080;opacity:0.6;}.cls-12{fill:#bb3e3a;}</style></defs><title/><path class="cls-1" d="M19.81,75.4c0,7-3.5,9-3.5,9a7.5,7.5,0,0,0-7.5,7.5c0,4.14,6.36,11,10.5,11s12-11.86,12-16l-2-11Z"/><path class="cls-2" d="M18.81,103.9c-5,0-12.5-7.18-12.5-12a9,9,0,0,1,8.5-9c.67-.58,2.5-2.6,2.5-7.51a1.5,1.5,0,0,1,3,0c0,7.78-4.08,10.2-4.26,10.3a1.5,1.5,0,0,1-.74.2,6,6,0,0,0-6,6c0,3.2,6.13,9,9.5,9a1.5,1.5,0,1,1,0,3Z"/><path class="cls-3" d="M104.09,119.16a43.75,43.75,0,0,0-87.51,0Z"/><path class="cls-4" d="M27.13,94.25c-5.79.32-6,4.6-6,4.6,2.52,4,13.5,17.45,38.64,16.82,19-.47,37.61-15.62,37.55-19.95,0,0-.83-5-10.37-3.38"/><path class="cls-2" d="M103.59,120.66H16.09a1.5,1.5,0,0,1-1.5-1.5,45.25,45.25,0,1,1,90.51,0A1.5,1.5,0,0,1,103.59,120.66Zm-86-3h84.45a42.25,42.25,0,0,0-84.45,0Z"/><path class="cls-5" d="M96.25,87.41S91.18,98.5,91.18,107.5v11.67H78.07v-12"/><path class="cls-6" d="M78.71,110.79s3.87-.88,9.33-5.09l0,13.46h2.84V98.54s-9.69,9.3-13.64,9.65Z"/><path class="cls-2" d="M90.93,120.66H77.82a1.5,1.5,0,0,1-1.5-1.5v-12a1.5,1.5,0,0,1,3,0v10.5H89.43V107.5c0-9.22,5-20.24,5.21-20.71A1.5,1.5,0,1,1,97.37,88c0,.11-4.94,10.9-4.94,19.46v11.67A1.5,1.5,0,0,1,90.93,120.66Z"/><path class="cls-5" d="M28.75,87.41c-5.67.38-5.91,8-5.91,8,2.31,3.74,13.59,17,34.94,17S98.45,96.92,98.45,84.83c0,0-1.07-6.39-10.41-4.44"/><path class="cls-6" d="M31.78,83.88c-4.8.32-5,6.77-5,6.77,2,3.17,12.6,15.51,32,15.51,18.07,0,33.9-16.25,33.9-26.48,0,0-2.8-3.4-10.7-1.75"/><path class="cls-1" d="M20.09,10.84H94.45A1.55,1.55,0,0,1,96,12.39V32.47A34.57,34.57,0,0,1,61.43,67H53.11A34.57,34.57,0,0,1,18.53,32.47V12.39a1.55,1.55,0,0,1,1.55-1.55Z" transform="translate(114.54 77.88) rotate(-180)"/><path class="cls-7" d="M33.27,34.87h48a9.66,9.66,0,0,1,9.66,9.66v24a33.66,33.66,0,0,1-33.66,33.66h0A33.66,33.66,0,0,1,23.61,68.53v-24a9.66,9.66,0,0,1,9.66-9.66Z"/><path class="cls-1" d="M23.61,50.71s51.1-2.63,51.1-19.15V19l-45,10.88-5.51,9.92Z"/><path class="cls-1" d="M93.09,54S74.71,51.39,74.71,34.87V22.34L87.34,33.66l5.34,7Z"/><path class="cls-2" d="M44.1,61.39q-.58,0-1.18-.06a1.5,1.5,0,0,1,.29-3c4.69.47,8.73-2.91,8.77-2.94a1.5,1.5,0,1,1,1.94,2.29A16.78,16.78,0,0,1,44.1,61.39Z"/><path class="cls-2" d="M45.15,72.78a1.5,1.5,0,0,1-.35-3c4.27-1,6.79-5.23,6.81-5.27a1.5,1.5,0,0,1,2.58,1.52c-.13.22-3.2,5.34-8.69,6.67A1.51,1.51,0,0,1,45.15,72.78Z"/><path class="cls-2" d="M54.12,72.87a1.51,1.51,0,0,1-.35,0c-5.81-1.4-9.06-6.83-9.2-7.06a1.5,1.5,0,0,1,2.58-1.53h0s2.77,4.57,7.32,5.67a1.5,1.5,0,0,1-.35,3Z"/><path class="cls-2" d="M71.15,70.78a1.5,1.5,0,0,1-.35-3c4.27-1,6.79-5.23,6.81-5.27a1.5,1.5,0,0,1,2.58,1.52c-.13.22-3.2,5.34-8.69,6.67A1.51,1.51,0,0,1,71.15,70.78Z"/><path class="cls-2" d="M80.12,70.87a1.51,1.51,0,0,1-.35,0c-5.81-1.4-9.06-6.83-9.2-7.06a1.5,1.5,0,0,1,2.58-1.53h0s2.77,4.57,7.32,5.67a1.5,1.5,0,0,1-.35,3Z"/><path class="cls-2" d="M77.76,60.39a16.77,16.77,0,0,1-9.82-3.7,1.5,1.5,0,0,1,1.94-2.29c.08.07,4.13,3.4,8.77,2.95a1.5,1.5,0,0,1,.29,3Q78.35,60.39,77.76,60.39Z"/><rect class="cls-7" height="16.48" rx="6.48" ry="6.48" width="12.96" x="86.2" y="59.56"/><path class="cls-7" d="M23.28,76h0a6.5,6.5,0,0,1-6.48-6.48V66a6.5,6.5,0,0,1,6.48-6.48s6.48,2.92,6.48,6.48v3.51A6.5,6.5,0,0,1,23.28,76Z"/><path class="cls-2" d="M56.56,103.69A35.44,35.44,0,0,1,22.27,76.26a1.5,1.5,0,0,1,2.93-.66A32.15,32.15,0,0,0,88,75.22a1.5,1.5,0,0,1,2-1.07,4.9,4.9,0,0,0,1.91.39,5,5,0,0,0,5-5V66c0-3.72-3.27-4.5-6-4.5a1.5,1.5,0,0,1,0-3c6.65,0,9,3.88,9,7.5v3.51a8,8,0,0,1-9.38,7.86A35.37,35.37,0,0,1,56.56,103.69Z"/><path class="cls-2" d="M22.57,77.54a8,8,0,0,1-8-8V66c0-5,3.37-8,9-8a1.5,1.5,0,1,1,0,3c-4,0-6,1.68-6,5v3.51a5,5,0,0,0,5,5,4.93,4.93,0,0,0,.9-.09,1.5,1.5,0,0,1,.54,3A7.87,7.87,0,0,1,22.57,77.54Z"/><path class="cls-1" d="M43,45.51c0,4-4.85,8.51-10.84,8.51-8.56,0-10.84-4.46-10.84-8.51s4.85-7.33,10.84-7.33S43,41.46,43,45.51Z"/><ellipse class="cls-1" cx="47.95" cy="42.2" rx="10.84" ry="7.33"/><ellipse class="cls-1" cx="64.16" cy="37.05" rx="11.54" ry="9.51"/><path class="cls-8" d="M93.62,43.16l.67,1.49a33.17,33.17,0,0,0-33.07-33h-8a33.18,33.18,0,0,0-32.93,30,9,9,0,0,1,2.44-1A33.2,33.2,0,0,1,55.14,14.45h4.75A33.2,33.2,0,0,1,92.55,42.39,1.19,1.19,0,0,1,93.62,43.16Z"/><path class="cls-2" d="M32.16,55.52c-4.75,0-8.76-1.78-11-4.89a1.5,1.5,0,0,1,2.43-1.76c1.68,2.32,4.81,3.65,8.58,3.65a10,10,0,0,0,8.73-4.81A1.5,1.5,0,0,1,42.8,47a13.32,13.32,0,0,0,5.15,1c3.8,0,7.3-1.51,8.71-3.77a1.5,1.5,0,0,1,2-.53,11.83,11.83,0,0,0,5.53,1.34c5.46,0,12.18-5.53,12.18-10a1.5,1.5,0,0,1,3,0c0,6.09-8.08,13-15.18,13a15,15,0,0,1-5.77-1.14C56.17,49.45,52.23,51,47.95,51a16.7,16.7,0,0,1-5.1-.78A13.27,13.27,0,0,1,32.16,55.52Z"/><path class="cls-2" d="M18.53,61.92a1.5,1.5,0,0,1-1.5-1.5v-15A36.11,36.11,0,0,1,53.11,9.34h8.32A36.11,36.11,0,0,1,97.5,45.41v15a1.5,1.5,0,1,1-3,0v-15A33.11,33.11,0,0,0,61.43,12.34H53.11A33.11,33.11,0,0,0,20,45.41v15A1.5,1.5,0,0,1,18.53,61.92Z"/><path class="cls-2" d="M90.93,61.26a1.5,1.5,0,0,1-1.5-1.5v-5C76,51.36,74.29,41,74.22,40.59a1.5,1.5,0,0,1,3-.45c.07.4,1.66,9.33,14.05,11.94a1.5,1.5,0,0,1,1.19,1.47v6.21A1.5,1.5,0,0,1,90.93,61.26Z"/><path class="cls-2" d="M23.61,61.06a1.5,1.5,0,0,1-1.5-1.5V51a1.5,1.5,0,0,1,3,0v8.52A1.5,1.5,0,0,1,23.61,61.06Z"/><path class="cls-2" d="M58.49,113.88c-21.8,0-36-13.37-37.11-18.1-.25-.88-1.18-5.73,6.69-9.71a1.5,1.5,0,1,1,1.35,2.68c-6,3-5.2,6.07-5.16,6.2l0,.16c.62,3,13.56,15.77,34.19,15.77a45,45,0,0,0,31.12-13c4-4.14,6.31-8.47,6.23-11.88a1.45,1.45,0,0,1,0-.15c0-.49.07-4.92-6.7-5.29A1.5,1.5,0,0,1,87.73,79a1.52,1.52,0,0,1,1.58-1.41c3.38.19,5.94,1.25,7.61,3.15A7.9,7.9,0,0,1,98.84,86c.08,4.21-2.5,9.31-7.08,14A48.06,48.06,0,0,1,58.49,113.88Z"/><path class="cls-2" d="M114.58,78.5a1.49,1.49,0,0,1-.81-.24c-.56-.36-5.43-3.65-3.91-7.41a1.9,1.9,0,0,0,0-1.54,4.72,4.72,0,0,0-2.36-2,1.5,1.5,0,0,1,1.08-2.8,7.67,7.67,0,0,1,4,3.59,4.9,4.9,0,0,1,0,3.86c-.45,1.11,1.57,3,2.76,3.76a1.5,1.5,0,0,1-.82,2.76Z"/><path class="cls-2" d="M122.19,83.92a1.49,1.49,0,0,1-.81-.24c-.46-.29-4.42-3-3.14-6.12a1.09,1.09,0,0,0,0-.92,3.4,3.4,0,0,0-1.62-1.34,1.5,1.5,0,0,1,1.08-2.8A6.26,6.26,0,0,1,121,75.46a4.1,4.1,0,0,1,0,3.24c-.22.54,1,1.85,2,2.47a1.5,1.5,0,0,1-.82,2.76Z"/><path class="cls-2" d="M118.64,115.47a1.5,1.5,0,0,1-1.23-.64c-.81-1.15-2.77-3.11-3.86-2.62a4.91,4.91,0,0,1-3.86.16,7.68,7.68,0,0,1-3.74-3.9,1.5,1.5,0,0,1,2.76-1.19,4.72,4.72,0,0,0,2.08,2.29,1.9,1.9,0,0,0,1.53-.1c3.7-1.66,7.16,3.09,7.54,3.64a1.5,1.5,0,0,1-1.23,2.36Z"/><ellipse class="cls-9" cx="42.31" cy="76.9" rx="6" ry="4"/><ellipse class="cls-9" cx="76.31" cy="75.9" rx="6" ry="4"/><path class="cls-2" d="M64.8,93.53A6.13,6.13,0,1,1,70.93,87h0a6.13,6.13,0,0,1-5.68,6.55Zm0-9.26h-.22a3.13,3.13,0,0,0-1.83,5.49,3.13,3.13,0,0,0,5.17-2.59h0A3.14,3.14,0,0,0,64.81,84.27Z"/><path class="cls-2" d="M52.81,90.9a1.5,1.5,0,0,1-1.15-2.47,3.46,3.46,0,0,0,.69-2.67c-.69-2.76-5.5-2.86-5.55-2.86a1.5,1.5,0,0,1,0-3c.29,0,7.19.06,8.46,5.14A6.48,6.48,0,0,1,54,90.37,1.5,1.5,0,0,1,52.81,90.9Z"/><path class="cls-3" d="M44.12,108.29c2.12-5.31,7.43-7.43,11.67-7.43,6.37,0,8.49,4.24,7.43,10.61L61.1,118.9H38.81Z"/><path class="cls-2" d="M61.1,119.87H38.81a1.5,1.5,0,0,1-1.34-2.17l5.28-10.56c2.49-6.13,8.57-8.31,13-8.31,3.18,0,5.6,1,7.19,2.83,1.83,2.17,2.41,5.37,1.72,9.53a1.46,1.46,0,0,1,0,.17l-2.12,7.43A1.5,1.5,0,0,1,61.1,119.87Zm-19.86-3H60l1.79-6.26c.51-3.16.15-5.58-1.06-7-1-1.17-2.64-1.77-4.9-1.77-3.55,0-8.37,1.7-10.28,6.49l-.05.11Zm2.88-9.11h0Z"/><circle class="cls-7" cx="58.44" cy="100.86" r="7.43"/><path class="cls-2" d="M59,109.26a8.93,8.93,0,1,1,8.93-8.93A8.94,8.94,0,0,1,59,109.26ZM59,94.4a5.93,5.93,0,1,0,5.93,5.93A5.94,5.94,0,0,0,59,94.4Z"/><path class="cls-10" d="M57.81,17.4c11-10,16-3,16-3s2,9-5,11c0,0-7.5,1.5-9.5-.5Z"/><path class="cls-11" d="M74.06,14.95S69.29,8.27,58.81,17.8L60.24,25c1.91,1.91,9.05.48,9.05.48C76,23.52,74.06,14.95,74.06,14.95ZM68.92,25.45s-6.06,1.21-7.68-.4L60,19C68.92,10.91,73,16.57,73,16.57S74.57,23.84,68.92,25.45Z"/><path class="cls-2" d="M31.81,36.9A1.5,1.5,0,0,1,31,34.15C55.33,17.92,80.27,26.61,81.32,27a1.5,1.5,0,0,1-1,2.82c-.24-.09-24.61-8.54-47.66,6.84A1.49,1.49,0,0,1,31.81,36.9Z"/><path class="cls-10" d="M51.81,18.4c-16-8-18-1-18-1s2.28,10.67,7.64,11.84c0,0,10.86-3.34,12.86-3.34a18.66,18.66,0,0,1-3-4Z"/><path class="cls-11" d="M50.31,22.9l1,1c.62,1.25-.67.24,0,1,.75-.16,2.66,1,3,1a3.55,3.55,0,0,1-3-2l.5-3.5c-12.66-6.33-16.55-3.27-17.63-1.72C35.31,19.9,42.31,16.9,50.31,22.9Z"/><path class="cls-2" d="M41.45,31.74a1.5,1.5,0,0,1-.32,0c-6.13-1.33-8.53-11.8-8.79-13a1.5,1.5,0,0,1,0-.73,5.41,5.41,0,0,1,3.13-3.2c3.69-1.62,9.4-.52,17,3.27a1.5,1.5,0,0,1-1.34,2.68c-8.85-4.42-12.84-3.91-14.43-3.21a3,3,0,0,0-1.32,1c.71,2.87,3,9.47,6.38,10.2a1.5,1.5,0,0,1-.32,3Z"/><path class="cls-2" d="M70.81,27.9a1.5,1.5,0,0,1-.94-2.67c3.69-3,2.83-8.74,2.55-10.15a5.24,5.24,0,0,0-3.32-1.53c-2.86-.26-6.42,1.45-10.29,5a1.5,1.5,0,0,1-2-2.22c4.62-4.2,8.9-6.12,12.7-5.72a8.07,8.07,0,0,1,5.53,3,1.5,1.5,0,0,1,.23.51c.09.37,2.17,9-3.52,13.54A1.49,1.49,0,0,1,70.81,27.9Z"/><rect class="cls-10" height="9" rx="4.5" ry="4.5" width="9" x="51.31" y="16.9"/><path class="cls-11" d="M55.31,17.9c-1.1,0-2.53,1.55-3.13,2.38a3.29,3.29,0,0,1,1.94-.64A3.33,3.33,0,0,1,57.44,23a3.29,3.29,0,0,1-.64,1.94,4.08,4.08,0,0,0,1.51-3C58.31,20.08,57.14,17.9,55.31,17.9Z"/><path class="cls-2" d="M55.31,27.9a6,6,0,1,1,6-6A6,6,0,0,1,55.31,27.9Zm0-9a3,3,0,1,0,3,3A3,3,0,0,0,55.31,18.9Z"/><circle class="cls-12" cx="114.31" cy="93.9" r="6.46"/><path class="cls-2" d="M114.31,102.4a8.5,8.5,0,1,1,8.5-8.5A8.51,8.51,0,0,1,114.31,102.4Zm0-14a5.5,5.5,0,1,0,5.5,5.5A5.51,5.51,0,0,0,114.31,88.4Z"/><path class="cls-2" d="M112.81,83.9a1.49,1.49,0,0,1-.83-.25l-9-6a1.5,1.5,0,0,1,1.66-2.5l9,6a1.5,1.5,0,0,1-.83,2.75Z"/><path class="cls-2" d="M105.81,87.9a1.49,1.49,0,0,1-.77-.21l-5-3a1.5,1.5,0,0,1,1.54-2.57l5,3a1.5,1.5,0,0,1-.77,2.79Z"/></svg>