<?xml version="1.0" ?><!DOCTYPE svg  PUBLIC '-//W3C//DTD SVG 1.1//EN'  'http://www.w3.org/Graphics/SVG/1.1/DTD/svg11.dtd'><svg enable-background="new 0 0 64 64" height="64px" version="1.1" viewBox="0 0 64 64" width="64px" xml:space="preserve" xmlns="http://www.w3.org/2000/svg" xmlns:xlink="http://www.w3.org/1999/xlink"><g id="Antivirus_x2C__injection_x2C__syringe_x2C__vaccine_x2C__medicine"><polygon fill="#FFFFFF" id="XMLID_1321_" points="23.5,46.5 11.5,46.5 11.5,18.5 16,17.5 19,17.5 23.5,18.5  "/><polygon fill="#84FFFF" id="XMLID_1324_" points="13,19 13,46.5 23.5,46.5 23.5,18.667 20.5,18 17.5,18  "/><rect fill="#ECEFF1" height="8" id="XMLID_1306_" width="10.5" x="13" y="38.5"/><rect fill="#37474F" height="1" width="6.5" x="17" y="38"/><g id="XMLID_1307_"><g id="XMLID_1319_"><rect fill="#37474F" height="1" width="3.5" x="11.5" y="22"/></g><g id="XMLID_1316_"><rect fill="#37474F" height="1" width="3.5" x="11.5" y="26"/></g><g id="XMLID_1314_"><rect fill="#37474F" height="1" width="3.5" x="11.5" y="30"/></g><g id="XMLID_1312_"><rect fill="#37474F" height="1" width="3.5" x="11.5" y="34"/></g><g id="XMLID_1309_"><rect fill="#37474F" height="1" width="3.5" x="11.5" y="42"/></g><g id="XMLID_1310_"><rect fill="#37474F" height="1" width="3.5" x="11.5" y="38"/></g></g><g><polygon fill="#84FFFF" id="XMLID_118_" points="19,17.5 16,17.5 16.5,12.5 18.5,12.5   "/><path d="M19.552,18h-4.104l0.6-6h2.905L19.552,18z M16.553,17h1.895l-0.4-4h-1.095L16.553,17z" fill="#37474F"/></g><g><path d="M24.5,48.5h-14c-0.552,0-1-0.448-1-1l0,0c0-0.552,0.448-1,1-1h14c0.552,0,1,0.448,1,1l0,0    C25.5,48.052,25.052,48.5,24.5,48.5z" fill="#FFFFFF" id="XMLID_117_"/><path d="M24.5,49h-14C9.673,49,9,48.327,9,47.5S9.673,46,10.5,46h14c0.827,0,1.5,0.673,1.5,1.5S25.327,49,24.5,49z     M10.5,47c-0.276,0-0.5,0.224-0.5,0.5s0.224,0.5,0.5,0.5h14c0.276,0,0.5-0.224,0.5-0.5S24.776,47,24.5,47H10.5z" fill="#37474F"/></g><g><rect fill="#CFD8DC" height="8" id="XMLID_116_" width="6" x="14.5" y="48.5"/><path d="M21,57h-7v-9h7V57z M15,56h5v-7h-5V56z" fill="#37474F"/></g><g><path d="M22.5,58.5h-10c-0.552,0-1-0.448-1-1l0,0c0-0.552,0.448-1,1-1h10c0.552,0,1,0.448,1,1l0,0    C23.5,58.052,23.052,58.5,22.5,58.5z" fill="#FFFFFF" id="XMLID_112_"/><path d="M22.5,59h-10c-0.827,0-1.5-0.673-1.5-1.5s0.673-1.5,1.5-1.5h10c0.827,0,1.5,0.673,1.5,1.5    S23.327,59,22.5,59z M12.5,57c-0.276,0-0.5,0.224-0.5,0.5s0.224,0.5,0.5,0.5h10c0.276,0,0.5-0.224,0.5-0.5S22.776,57,22.5,57H12.5    z" fill="#37474F"/></g><g><path d="M17.5,12.5V4V12.5z" fill="#FFFFFF" id="XMLID_111_"/><rect fill="#37474F" height="8.5" width="1" x="17" y="4"/></g><path d="M32,55.5v-23c0-1.604,0.426-2.978,1.5-3.615V28.5c-2.209,0-4,1.791-4,4v23   c0,1.657,1.343,3,3,3H35C33.343,58.5,32,57.157,32,55.5z" fill="#FFFFFF" id="XMLID_1330_"/><path d="M47.5,28.5v-3h-11H35h-1.5v3.385C32.426,29.522,32,30.896,32,32.5v23c0,1.657,1.343,3,3,3   h13.5c1.657,0,3-1.343,3-3v-23C51.5,30.291,49.709,28.5,47.5,28.5z" fill="#84FFFF" id="XMLID_1329_"/><path d="M49,55.5v-23c0-1.604-0.426-2.978-1.5-3.615V28.5c2.209,0,4,1.791,4,4v23   c0,1.657-1.343,3-3,3H46C47.657,58.5,49,57.157,49,55.5z" fill="#18FFFF" id="XMLID_1322_"/><path d="M48.5,59h-16c-1.93,0-3.5-1.57-3.5-3.5v-23c0-2.313,1.753-4.223,4-4.472V25h15v3.028   c2.247,0.25,4,2.16,4,4.472v23C52,57.43,50.43,59,48.5,59z M33.5,29c-1.93,0-3.5,1.57-3.5,3.5v23c0,1.378,1.122,2.5,2.5,2.5h16   c1.378,0,2.5-1.122,2.5-2.5v-23c0-1.93-1.57-3.5-3.5-3.5H47v-3H34v3H33.5z" fill="#37474F"/><path d="M48.5,19.5h-16c-1.104,0-2,0.896-2,2v2c0,1.104,0.896,2,2,2h16c1.104,0,2-0.896,2-2v-2   C50.5,20.396,49.604,19.5,48.5,19.5z" fill="#FFFFFF" id="XMLID_1328_"/><path d="M48.5,19.5h-16c-1.104,0-2,0.896-2,2v2c0,1.104,0.896,2,2,2h16c1.104,0,2-0.896,2-2v-2   C50.5,20.396,49.604,19.5,48.5,19.5z" fill="#FFFFFF" id="XMLID_1327_"/><path d="M50.5,23.5v-2c0-1.104-0.896-2-2-2H34c-1.104,0-2,0.896-2,2v2c0,1.104,0.896,2,2,2h14.5   C49.604,25.5,50.5,24.604,50.5,23.5z" fill="#FFE57F" id="XMLID_1336_"/><path d="M50.5,23.5v-2c0-1.104-0.896-2-2-2H47c1.104,0,2,0.896,2,2v2c0,1.104-0.896,2-2,2h1.5   C49.604,25.5,50.5,24.604,50.5,23.5z" fill="#FFD740" id="XMLID_1334_"/><path d="M48.5,26h-16c-1.378,0-2.5-1.122-2.5-2.5v-2c0-1.378,1.122-2.5,2.5-2.5h16c1.378,0,2.5,1.122,2.5,2.5v2   C51,24.878,49.878,26,48.5,26z M32.5,20c-0.827,0-1.5,0.673-1.5,1.5v2c0,0.827,0.673,1.5,1.5,1.5h16c0.827,0,1.5-0.673,1.5-1.5v-2   c0-0.827-0.673-1.5-1.5-1.5H32.5z" fill="#37474F"/><rect fill="#FFFFFF" height="17" id="XMLID_1323_" width="22" x="29.5" y="35.5"/><rect fill="#ECEFF1" height="17" id="XMLID_1325_" width="19.5" x="32" y="35.5"/><rect fill="#CFD8DC" height="17" id="XMLID_980_" width="2.5" x="49" y="35.5"/><path d="M52,53H29V35h23V53z M30,52h21V36H30V52z" fill="#37474F"/><g><path d="M58,58.5h1H58z" fill="#FFFFFF" id="XMLID_110_"/><rect fill="#37474F" height="1" width="1" x="58" y="58"/></g><g><path d="M19,58.5h38H19z" fill="#FFFFFF" id="XMLID_109_"/><rect fill="#37474F" height="1" width="38" x="19" y="58"/></g><path d="M24,47H11V18.099L16,17l3.108,0.012L24,18.099V47z M12,46h11V18.901L18.945,18h-2.891L12,18.901V46z" fill="#37474F"/><rect fill="#18FFFF" height="1" id="XMLID_1332_" width="13" x="34" y="26"/><circle cx="41" cy="44" fill="#B2FF59" id="XMLID_1003_" r="5"/><path d="M41,49.5c-3.033,0-5.5-2.467-5.5-5.5s2.467-5.5,5.5-5.5c0.996,0,1.972,0.269,2.822,0.779l-0.514,0.857   C42.613,39.72,41.815,39.5,41,39.5c-2.481,0-4.5,2.019-4.5,4.5s2.019,4.5,4.5,4.5s4.5-2.019,4.5-4.5   c0-0.463-0.07-0.919-0.207-1.354l0.953-0.301C46.415,42.877,46.5,43.435,46.5,44C46.5,47.033,44.033,49.5,41,49.5z" fill="#37474F"/><polygon fill="#37474F" points="40.932,46.168 38.55,43.393 39.309,42.741 40.92,44.619 44.999,39.714 45.768,40.354  "/></g></svg>