<?xml version="1.0" ?><svg data-name="Layer 3" id="Layer_3" viewBox="0 0 2050 2050" xmlns="http://www.w3.org/2000/svg"><defs><style>.cls-1{fill:#e0e1e2;}.cls-2{fill:#1682fc;}.cls-3{fill:#2e3a58;}</style></defs><title/><rect class="cls-1" height="47" transform="translate(-497.4 1200.7) rotate(-45)" width="450.1" x="975.7" y="1177.2"/><path class="cls-2" d="M1250,1430c-4.4,0-8.9-.2-13.3-.5a5,5,0,1,1,.7-10c4.2.3,8.4.5,12.6.5a170.9,170.9,0,0,0,45.1-6.1,5,5,0,0,1,2.7,9.7A183.5,183.5,0,0,1,1250,1430Zm-70.9-14.9a4.6,4.6,0,0,1-2-.5,177.1,177.1,0,0,1-51.1-34.1,4.9,4.9,0,0,1-.2-7,5,5,0,0,1,7.1-.2,169.5,169.5,0,0,0,48.2,32.2,5.1,5.1,0,0,1,2.6,6.6A5.3,5.3,0,0,1,1179.1,1415.1Zm171.4-16.7a5,5,0,0,1-4.1-2.2,5,5,0,0,1,1.2-6.9,171.8,171.8,0,0,0,22.7-19,183.2,183.2,0,0,0,18.5-21.9,4.9,4.9,0,0,1,6.9-1.2,5,5,0,0,1,1.2,7,172.3,172.3,0,0,1-19.6,23.1,183.8,183.8,0,0,1-23.9,20.2A5.2,5.2,0,0,1,1350.5,1398.4ZM1087,1339.5a5.4,5.4,0,0,1-3.6-1.4l-42.4-42.5a5,5,0,0,1,0-7,5,5,0,0,1,7.1,0l42.4,42.4a5,5,0,0,1,0,7.1A5.2,5.2,0,0,1,1087,1339.5Zm331.5-37.1-1.3-.2a5,5,0,0,1-3.5-6.2,169.6,169.6,0,0,0,6.3-46c0-3.9-.2-7.8-.4-11.7a5,5,0,0,1,10-.7c.2,4.1.4,8.3.4,12.4a181.7,181.7,0,0,1-6.7,48.7A5,5,0,0,1,1418.5,1302.4Zm-8.1-117.4a5,5,0,0,1-4.5-3,168.5,168.5,0,0,0-32-48.4,5,5,0,1,1,7.3-6.9A178.5,178.5,0,0,1,1415,1178a4.9,4.9,0,0,1-2.6,6.5A4.6,4.6,0,0,1,1410.4,1185Zm-75.2-92.4a4.6,4.6,0,0,1-3.5-1.4l-42.5-42.4a5.1,5.1,0,0,1,0-7.1,5,5,0,0,1,7.1,0l42.4,42.4a5,5,0,0,1,0,7.1A4.6,4.6,0,0,1,1335.2,1092.6Z"/><path class="cls-2" d="M761.7,1014.2a4.6,4.6,0,0,1-3.5-1.4l-42.5-42.5a5,5,0,0,1,0-7,5,5,0,0,1,7.1,0l42.4,42.4a5,5,0,0,1,0,7.1A4.6,4.6,0,0,1,761.7,1014.2Zm-84.9-84.8a5,5,0,0,1-3.5-1.5l-.6-.6a177.6,177.6,0,0,1-35-49.4,4.9,4.9,0,0,1,2.3-6.6,5,5,0,0,1,6.7,2.3,169.4,169.4,0,0,0,33,46.6l.7.7a5,5,0,0,1,0,7A5.1,5.1,0,0,1,676.8,929.4ZM626,823.3a5,5,0,0,1-5-4.5,167.9,167.9,0,0,1-1-18.8,182.8,182.8,0,0,1,5-42.4,5,5,0,0,1,6.1-3.7,5,5,0,0,1,3.7,6A169.2,169.2,0,0,0,630,800a176.8,176.8,0,0,0,.9,17.8,5,5,0,0,1-4.4,5.5Zm375-64.9a5.4,5.4,0,0,1-3.6-1.4L955,714.5a5,5,0,0,1,0-7,5,5,0,0,1,7.1,0l42.4,42.4a5,5,0,0,1,0,7.1A5.2,5.2,0,0,1,1001,758.4ZM653.6,708.9a4.5,4.5,0,0,1-2.7-.8,5,5,0,0,1-1.5-6.9,181.3,181.3,0,0,1,23.3-28.5,160.6,160.6,0,0,1,18.7-16.3,5,5,0,1,1,6,7.9,184.2,184.2,0,0,0-17.7,15.4,171.3,171.3,0,0,0-21.9,27A5.2,5.2,0,0,1,653.6,708.9Zm262.3-35.1a5,5,0,0,1-3.3-1.2,170.5,170.5,0,0,0-49.4-30.5,5.1,5.1,0,0,1-2.8-6.5,5,5,0,0,1,6.5-2.7,175.5,175.5,0,0,1,52.3,32.2,5,5,0,0,1-3.3,8.7ZM747.5,638a5,5,0,0,1-1.5-9.8,182.7,182.7,0,0,1,54-8.2h6.9a5.2,5.2,0,0,1,4.8,5.2,5,5,0,0,1-5.2,4.8H800a169.2,169.2,0,0,0-51,7.8Z"/><rect class="cls-1" height="47" transform="translate(-351.8 849.3) rotate(-45)" width="450.1" x="624.2" y="825.8"/><path class="cls-1" d="M1409.2,640.8h0a241.1,241.1,0,0,0-25.1-21.6c65.5,88.1,58.3,213.3-21.6,293.2L912.4,1362.5c-79.9,79.9-205.1,87.1-293.2,21.6a241.1,241.1,0,0,0,21.6,25.1h0c87.9,87.8,230.4,87.8,318.3,0l450.1-450.1C1497,871.2,1497,728.7,1409.2,640.8Z"/><path class="cls-3" d="M800,1490.1a240.1,240.1,0,0,1-169.8-409.8l450.1-450.1a240.1,240.1,0,0,1,339.5,339.5L969.7,1419.8A238.5,238.5,0,0,1,800,1490.1Zm450-900.2a208.6,208.6,0,0,0-148.5,61.6l-450,450c-81.9,81.9-81.9,215.1,0,297a209.8,209.8,0,0,0,297,0l450-450c81.9-81.9,81.9-215.1,0-297A208.5,208.5,0,0,0,1250,589.9Z"/><path class="cls-2" d="M1059,1324.3a15.1,15.1,0,0,1-10.6-4.4L730.1,1001.6a15,15,0,0,1,0-21.2L980.4,730.1a15.1,15.1,0,0,1,21.2,0l318.3,318.3a15,15,0,0,1,0,21.2l-250.3,250.3A15.1,15.1,0,0,1,1059,1324.3ZM762,991l297,297,229-229L991,762Z"/><path class="cls-3" d="M706.7,1040a15.2,15.2,0,0,1-10.6-4.4l-65.9-65.9A240.1,240.1,0,0,1,969.7,630.2l65.9,65.9a14.9,14.9,0,0,1,0,21.2L717.3,1035.6A15,15,0,0,1,706.7,1040ZM800,589.9A210,210,0,0,0,651.5,948.5l55.2,55.3,297.1-297.1-55.3-55.2A208.6,208.6,0,0,0,800,589.9Z"/><path class="cls-3" d="M1250,1490.1a238.5,238.5,0,0,1-169.7-70.3l-65.9-65.9a14.9,14.9,0,0,1,0-21.2l318.3-318.3a15,15,0,0,1,10.6-4.4,15.2,15.2,0,0,1,10.6,4.4l65.9,65.9A240.1,240.1,0,0,1,1250,1490.1Zm-203.8-146.8,55.3,55.2a210,210,0,1,0,297-297l-55.2-55.3Z"/><path class="cls-2" d="M798.6,1430a178.3,178.3,0,0,1-41.1-4.9,5.1,5.1,0,0,1-3.7-6,4.9,4.9,0,0,1,6-3.7,169.4,169.4,0,0,0,38.8,4.6,173.3,173.3,0,0,0,19.1-1.1,5,5,0,0,1,1.1,10A195.3,195.3,0,0,1,798.6,1430Zm77.1-17.3a5,5,0,0,1-2.1-9.5,166.9,166.9,0,0,0,46.6-32.9l.7-.7a5,5,0,0,1,7,0,5,5,0,0,1,0,7.1l-.6.6a175.8,175.8,0,0,1-49.4,34.9A4.4,4.4,0,0,1,875.7,1412.7Zm-171.8-11.3a4.5,4.5,0,0,1-2.7-.8,181.3,181.3,0,0,1-28.5-23.3,160.6,160.6,0,0,1-16.3-18.7,5,5,0,1,1,7.9-6,184.2,184.2,0,0,0,15.4,17.7,171.3,171.3,0,0,0,27,21.9,5.1,5.1,0,0,1,1.4,7A5.2,5.2,0,0,1,703.9,1401.4Zm262.9-65.7a5.2,5.2,0,0,1-3.5-1.4,5,5,0,0,1,0-7.1l42.4-42.4a5,5,0,0,1,7.1,0,5,5,0,0,1,0,7l-42.5,42.5A5,5,0,0,1,966.8,1335.7ZM633,1307.5a5.1,5.1,0,0,1-4.8-3.5,182.7,182.7,0,0,1-8.2-54c0-2.3.1-4.6.1-6.9a5.2,5.2,0,0,1,5.2-4.8,5,5,0,0,1,4.8,5.2c0,2.2-.1,4.4-.1,6.5a169.2,169.2,0,0,0,7.8,51,5.1,5.1,0,0,1-3.3,6.3Zm4.5-117.6-1.9-.3a5,5,0,0,1-2.7-6.5,175.5,175.5,0,0,1,32.2-52.3,4.8,4.8,0,0,1,7-.4,4.9,4.9,0,0,1,.5,7,170.5,170.5,0,0,0-30.5,49.4A4.9,4.9,0,0,1,637.5,1189.9Zm73.5-93.5a4.6,4.6,0,0,1-3.5-1.4,5,5,0,0,1,0-7.1l42.4-42.4a5,5,0,0,1,7.1,0,5.1,5.1,0,0,1,0,7.1L714.5,1095A4.6,4.6,0,0,1,711,1096.4Z"/><path class="cls-2" d="M1292.1,1010.4a4.6,4.6,0,0,1-3.5-1.4,5,5,0,0,1,0-7.1l42.4-42.4a5,5,0,0,1,7.1,0,5.1,5.1,0,0,1,0,7.1l-42.5,42.4A4.6,4.6,0,0,1,1292.1,1010.4Zm84.8-84.8a4.9,4.9,0,0,1-3.4-1.4,5,5,0,0,1-.2-7.1,169.5,169.5,0,0,0,32.2-48.2,5,5,0,1,1,9.1,4,177.1,177.1,0,0,1-34.1,51.1A5,5,0,0,1,1376.9,925.6ZM1424.5,818h-.4a5,5,0,0,1-4.6-5.4c.3-4.2.5-8.4.5-12.6a170.9,170.9,0,0,0-6.1-45.1,5,5,0,1,1,9.7-2.7A183.5,183.5,0,0,1,1430,800c0,4.4-.2,8.9-.5,13.3A5,5,0,0,1,1424.5,818Zm-379.3-55.8a5.2,5.2,0,0,1-3.5-1.4,5,5,0,0,1,0-7.1l42.4-42.4a5,5,0,0,1,7.1,0,5,5,0,0,1,0,7l-42.4,42.5A5.4,5.4,0,0,1,1045.2,762.2Zm348.2-57.7a4.9,4.9,0,0,1-4.1-2.1,164.5,164.5,0,0,0-19-22.7,183.2,183.2,0,0,0-21.9-18.5,5,5,0,0,1-1.2-7,5.1,5.1,0,0,1,7-1.1,172.3,172.3,0,0,1,23.1,19.6,183.8,183.8,0,0,1,20.2,23.9,5,5,0,0,1-1.3,7A4.7,4.7,0,0,1,1393.4,704.5Zm-263.3-27.1a5,5,0,0,1-3.4-8.6,176.8,176.8,0,0,1,51.3-33.7,5,5,0,1,1,4,9.1,168.1,168.1,0,0,0-48.4,31.9A5.1,5.1,0,0,1,1130.1,677.4Zm167.3-41-1.3-.2a165.2,165.2,0,0,0-44.7-6.2c-4.3,0-8.7.2-13,.5a5,5,0,0,1-.7-10c4.5-.3,9.1-.5,13.7-.5a177.1,177.1,0,0,1,47.4,6.5,5.1,5.1,0,0,1,3.5,6.2A5.2,5.2,0,0,1,1297.4,636.4Z"/><polygon class="cls-2" points="1061.4 988.6 1061.4 915.7 988.6 915.7 988.6 988.6 915.7 988.6 915.7 1061.4 988.6 1061.4 988.6 1134.3 1061.4 1134.3 1061.4 1061.4 1134.3 1061.4 1134.3 988.6 1061.4 988.6"/></svg>