<?xml version="1.0" ?><svg data-name="Layer 3" id="Layer_3" viewBox="0 0 2050 2050" xmlns="http://www.w3.org/2000/svg"><defs><style>.cls-1{fill:#e0e1e2;}.cls-2{fill:#2e3a58;}.cls-3{fill:#1682fc;}</style></defs><title/><path class="cls-1" d="M1409.4,1551.1H701.1a28.3,28.3,0,0,1-28.3-28.3V547.7a49,49,0,0,1,3.6-18.4,48.8,48.8,0,0,0-36.9,47.3v954.7a48.7,48.7,0,0,0,48.8,48.7h687.8a48.6,48.6,0,0,0,45.2-30.4A46.8,46.8,0,0,1,1409.4,1551.1Z"/><path class="cls-2" d="M1376.1,1595H688.3a63.8,63.8,0,0,1-63.8-63.7V576.6a63.8,63.8,0,0,1,63.8-63.8H812.1v30H688.3a33.9,33.9,0,0,0-33.8,33.8v954.7a33.8,33.8,0,0,0,33.8,33.7h687.8a33.7,33.7,0,0,0,33.8-33.7V576.6a33.8,33.8,0,0,0-33.8-33.8H1252.3v-30h123.8a63.8,63.8,0,0,1,63.8,63.8v954.7A63.8,63.8,0,0,1,1376.1,1595Z"/><path class="cls-3" d="M1200.7,607h-337a66.7,66.7,0,0,1-66.6-66.5V506.1a66.6,66.6,0,0,1,66.6-66.5h337a66.6,66.6,0,0,1,66.6,66.5v34.4A66.7,66.7,0,0,1,1200.7,607Z"/><rect class="cls-1" height="825.03" width="599.3" x="732.6" y="659.2"/><path class="cls-3" d="M1331.8,1489.2h-60a5,5,0,0,1,0-10h60a5,5,0,0,1,0,10Zm-120,0h-60a5,5,0,0,1,0-10h60a5,5,0,0,1,0,10Zm-120,0h-60a5,5,0,0,1,0-10h60a5,5,0,0,1,0,10Zm-120,0h-60a5,5,0,0,1,0-10h60a5,5,0,0,1,0,10Zm-120,0h-60a5,5,0,0,1,0-10h60a5,5,0,0,1,0,10Zm-119.2-.7a5,5,0,0,1-5-5v-60a5,5,0,0,1,5-5,5,5,0,0,1,5,5v60A5.1,5.1,0,0,1,732.6,1488.5Zm599.2-27.9a5,5,0,0,1-5-5v-60a5,5,0,0,1,5-5,5,5,0,0,1,5,5v60A5,5,0,0,1,1331.8,1460.6Zm-599.2-92.1a5,5,0,0,1-5-5v-60a5,5,0,0,1,5-5,5,5,0,0,1,5,5v60A5.1,5.1,0,0,1,732.6,1368.5Zm599.2-27.9a5,5,0,0,1-5-5v-60a5,5,0,0,1,5-5,5,5,0,0,1,5,5v60A5,5,0,0,1,1331.8,1340.6Zm-599.2-92.1a5,5,0,0,1-5-5v-60a5,5,0,0,1,5-5,5,5,0,0,1,5,5v60A5.1,5.1,0,0,1,732.6,1248.5Zm599.2-27.9a5,5,0,0,1-5-5v-60a5,5,0,0,1,5-5,5,5,0,0,1,5,5v60A5,5,0,0,1,1331.8,1220.6Zm-599.2-92.1a5,5,0,0,1-5-5v-60a5,5,0,0,1,5-5,5,5,0,0,1,5,5v60A5.1,5.1,0,0,1,732.6,1128.5Zm599.2-27.9a5,5,0,0,1-5-5v-60a5,5,0,0,1,5-5,5,5,0,0,1,5,5v60A5,5,0,0,1,1331.8,1100.6Zm-599.2-92.1a5,5,0,0,1-5-5v-60a5,5,0,0,1,5-5,5,5,0,0,1,5,5v60A5.1,5.1,0,0,1,732.6,1008.5Zm599.2-27.9a5,5,0,0,1-5-5v-60a5,5,0,0,1,5-5,5,5,0,0,1,5,5v60A5,5,0,0,1,1331.8,980.6ZM732.6,888.5a5,5,0,0,1-5-5v-60a5,5,0,0,1,5-5,5,5,0,0,1,5,5v60A5.1,5.1,0,0,1,732.6,888.5Zm599.2-27.9a5,5,0,0,1-5-5v-60a5,5,0,0,1,5-5,5,5,0,0,1,5,5v60A5,5,0,0,1,1331.8,860.6ZM732.6,768.5a5,5,0,0,1-5-5v-60a5,5,0,0,1,5-5,5,5,0,0,1,5,5v60A5.1,5.1,0,0,1,732.6,768.5Zm599.2-27.9a5,5,0,0,1-5-5v-60a5,5,0,0,1,5-5,5,5,0,0,1,5,5v60A5,5,0,0,1,1331.8,740.6Zm-43.5-76.4h-60a5,5,0,0,1-5-5,5,5,0,0,1,5-5h60a5,5,0,0,1,5,5A5.1,5.1,0,0,1,1288.3,664.2Zm-120,0h-60a5,5,0,0,1-5-5,5,5,0,0,1,5-5h60a5,5,0,0,1,5,5A5.1,5.1,0,0,1,1168.3,664.2Zm-120,0h-60a5,5,0,0,1-5-5,5,5,0,0,1,5-5h60a5,5,0,0,1,5,5A5.1,5.1,0,0,1,1048.3,664.2Zm-120,0h-60a5,5,0,0,1-5-5,5,5,0,0,1,5-5h60a5,5,0,0,1,5,5A5.1,5.1,0,0,1,928.3,664.2Zm-120,0h-60a5,5,0,0,1-5-5,5,5,0,0,1,5-5h60a5,5,0,0,1,5,5A5.1,5.1,0,0,1,808.3,664.2Z"/><polygon class="cls-3" points="1053.7 826.1 1053.7 767 994.6 767 994.6 826.1 935.5 826.1 935.5 885.2 994.6 885.2 994.6 944.3 1053.7 944.3 1053.7 885.2 1112.7 885.2 1112.7 826.1 1053.7 826.1"/><rect class="cls-2" height="30" width="417.8" x="823.3" y="1077.6"/><rect class="cls-2" height="30" width="166.4" x="823.3" y="1178.1"/><rect class="cls-2" height="30" width="166.4" x="1029.5" y="1178.1"/><rect class="cls-2" height="30" width="242.2" x="823.3" y="1278.7"/></svg>