<?xml version="1.0" ?><svg data-name="Layer 3" id="Layer_3" viewBox="0 0 2050 2050" xmlns="http://www.w3.org/2000/svg"><defs><style>.cls-1{fill:#e0e1e2;}.cls-2{fill:#2e3a58;}.cls-3{fill:#1682fc;}</style></defs><title/><rect class="cls-1" height="740.22" width="60.7" x="678.3" y="784.6"/><rect class="cls-1" height="740.22" width="60.7" x="1311" y="784.6"/><polygon class="cls-1" points="797.1 1466.7 797.1 570.5 739 604.6 739 1524.8 1311 1524.8 1311 1466.7 797.1 1466.7"/><circle class="cls-1" cx="1025" cy="811.2" r="143.3"/><path class="cls-2" d="M1311,1539.8H739a15,15,0,0,1-15-15V604.6a14.9,14.9,0,0,1,7.4-12.9l286-168.1a14.8,14.8,0,0,1,15.2,0l286,168.1a14.9,14.9,0,0,1,7.4,12.9v920.2A15,15,0,0,1,1311,1539.8Zm-557-30h542V613.2L1025,453.9,754,613.2Z"/><polygon class="cls-3" points="1051.8 784.3 1051.8 730.7 998.2 730.7 998.2 784.3 944.5 784.3 944.5 838 998.2 838 998.2 891.7 1051.8 891.7 1051.8 838 1105.5 838 1105.5 784.3 1051.8 784.3"/><path class="cls-3" d="M1010.3,958.7h-.6a146.4,146.4,0,0,1-58.6-18.9,4.9,4.9,0,0,1-1.8-6.8,5,5,0,0,1,6.8-1.9,136.1,136.1,0,0,0,54.7,17.7,5,5,0,0,1,4.4,5.5A4.9,4.9,0,0,1,1010.3,958.7Zm59.2-6.2a5,5,0,0,1-1.6-9.8,136.5,136.5,0,0,0,49.7-28.8,5,5,0,0,1,7.1.4,4.8,4.8,0,0,1-.4,7,145.1,145.1,0,0,1-53.3,30.9A4,4,0,0,1,1069.5,952.5ZM909.3,900.7a5.1,5.1,0,0,1-4.1-2A146.9,146.9,0,0,1,880,842.4a4.9,4.9,0,0,1,3.8-5.9,5,5,0,0,1,6,3.8,134.7,134.7,0,0,0,23.5,52.5,5,5,0,0,1-1.1,6.9A4.6,4.6,0,0,1,909.3,900.7ZM1156,874.4a4.5,4.5,0,0,1-2-.4,5,5,0,0,1-2.6-6.6,137.3,137.3,0,0,0,11.9-56.2.9.9,0,0,1,.1-.5.6.6,0,0,1-.1-.4,137.2,137.2,0,0,0-12.2-56.2,4.9,4.9,0,0,1,2.5-6.6,5.1,5.1,0,0,1,6.6,2.5,146.5,146.5,0,0,1,13.1,60.2v1a148.6,148.6,0,0,1-12.7,60.3A5.2,5.2,0,0,1,1156,874.4ZM884.7,786.8h-1a4.9,4.9,0,0,1-3.9-5.9,145.9,145.9,0,0,1,24.9-56.4,5,5,0,0,1,8.1,5.9,134.5,134.5,0,0,0-23.2,52.6A5,5,0,0,1,884.7,786.8Zm235.6-77.7a5,5,0,0,1-3.3-1.2,136,136,0,0,0-49.9-28.5,5.1,5.1,0,0,1-3.3-6.3,5.1,5.1,0,0,1,6.3-3.3,146.6,146.6,0,0,1,53.5,30.6,4.8,4.8,0,0,1,.4,7A4.5,4.5,0,0,1,1120.3,709.1ZM952.8,692.3a5,5,0,0,1-2.5-9.3,147.6,147.6,0,0,1,58.5-19.3,5,5,0,0,1,5.5,4.4,5.1,5.1,0,0,1-4.4,5.6,136.9,136.9,0,0,0-54.6,17.9A4.5,4.5,0,0,1,952.8,692.3Z"/><rect class="cls-2" height="30" width="422.8" x="813.6" y="1152.8"/><path class="cls-2" d="M1203.5,1539.8h-357a15,15,0,0,1-15-15v-357a15,15,0,0,1,15-15h357a15,15,0,0,1,15,15v357A15,15,0,0,1,1203.5,1539.8Zm-342-30h327v-327h-327Z"/><rect class="cls-2" height="356.99" width="30" x="1010" y="1167.8"/><rect class="cls-3" height="30" width="108" x="1311" y="857.7"/><rect class="cls-3" height="30" width="108" x="1311" y="989.3"/><rect class="cls-3" height="30" width="108" x="1311" y="1121"/><rect class="cls-3" height="30" width="108" x="1311" y="1252.7"/><rect class="cls-3" height="30" width="108" x="1311" y="1384.4"/><path class="cls-3" d="M1529.6,1529.8a5,5,0,0,1-5-5v-4.7a5,5,0,0,1,5-5,5,5,0,0,1,5,5v4.7A5.1,5.1,0,0,1,1529.6,1529.8Zm0-64.7a5,5,0,0,1-5-5v-60a5,5,0,0,1,5-5,5,5,0,0,1,5,5v60A5,5,0,0,1,1529.6,1465.1Zm0-120a5,5,0,0,1-5-5v-60a5,5,0,0,1,5-5,5,5,0,0,1,5,5v60A5,5,0,0,1,1529.6,1345.1Zm0-120a5,5,0,0,1-5-5v-60a5,5,0,0,1,5-5,5,5,0,0,1,5,5v60A5,5,0,0,1,1529.6,1225.1Zm0-120a5,5,0,0,1-5-5v-60a5,5,0,0,1,5-5,5,5,0,0,1,5,5v60A5,5,0,0,1,1529.6,1105.1Zm0-120a5,5,0,0,1-5-5v-60a5,5,0,0,1,5-5,5,5,0,0,1,5,5v60A5,5,0,0,1,1529.6,985.1Zm0-120a5,5,0,0,1-5-5v-60a5,5,0,0,1,5-5,5,5,0,0,1,5,5v60A5,5,0,0,1,1529.6,865.1Z"/><rect class="cls-3" height="30" width="108" x="631" y="857.7"/><rect class="cls-3" height="30" width="108" x="631" y="989.3"/><rect class="cls-3" height="30" width="108" x="631" y="1121"/><rect class="cls-3" height="30" width="108" x="631" y="1252.7"/><rect class="cls-3" height="30" width="108" x="631" y="1384.4"/><path class="cls-3" d="M520.4,1529.8a5.1,5.1,0,0,1-5-5v-4.7a5,5,0,0,1,5-5,5,5,0,0,1,5,5v4.7A5,5,0,0,1,520.4,1529.8Zm0-64.7a5,5,0,0,1-5-5v-60a5,5,0,0,1,5-5,5,5,0,0,1,5,5v60A5,5,0,0,1,520.4,1465.1Zm0-120a5,5,0,0,1-5-5v-60a5,5,0,0,1,5-5,5,5,0,0,1,5,5v60A5,5,0,0,1,520.4,1345.1Zm0-120a5,5,0,0,1-5-5v-60a5,5,0,0,1,5-5,5,5,0,0,1,5,5v60A5,5,0,0,1,520.4,1225.1Zm0-120a5,5,0,0,1-5-5v-60a5,5,0,0,1,5-5,5,5,0,0,1,5,5v60A5,5,0,0,1,520.4,1105.1Zm0-120a5,5,0,0,1-5-5v-60a5,5,0,0,1,5-5,5,5,0,0,1,5,5v60A5,5,0,0,1,520.4,985.1Zm0-120a5,5,0,0,1-5-5v-60a5,5,0,0,1,5-5,5,5,0,0,1,5,5v60A5,5,0,0,1,520.4,865.1Z"/><path class="cls-2" d="M1596.6,1539.8H1311a15,15,0,0,1-15-15V784.6a15,15,0,0,1,15-15h285.6a15,15,0,0,1,15,15v740.2A15,15,0,0,1,1596.6,1539.8Zm-270.6-30h255.6V799.6H1326Z"/><path class="cls-2" d="M739,1539.8H453.4a15,15,0,0,1-15-15V784.6a15,15,0,0,1,15-15H739a15,15,0,0,1,15,15v740.2A15,15,0,0,1,739,1539.8Zm-270.6-30H724V799.6H468.4Z"/></svg>