<?xml version="1.0" ?><svg data-name="Layer 1" id="Layer_1" viewBox="0 0 65 65" xmlns="http://www.w3.org/2000/svg"><title/><path d="M14.646,55.467H9.483A.685.685,0,0,1,9,54.3L21.382,41.914l3.409,3.409Zm-3.2-1.5h2.576l8.645-8.644-1.288-1.288Z" style="fill:#231f20"/><path d="M26.079,47.856a2.107,2.107,0,0,1-1.493-.617l-5.12-5.121a2.112,2.112,0,0,1,0-2.986l1.385-1.386a.771.771,0,0,1,1.061,0l7.046,7.046a.75.75,0,0,1,0,1.061l-1.386,1.386A2.107,2.107,0,0,1,26.079,47.856Zm-4.7-8.519-.856.856a.613.613,0,0,0,0,.865l5.121,5.12a.612.612,0,0,0,.864,0l.856-.855Z" style="fill:#231f20"/><path d="M44.869,31.98a.75.75,0,0,1-.53-1.28l2.992-2.992L39,19.373,34.83,23.54a.75.75,0,1,1-1.061-1.061l4.7-4.7a.749.749,0,0,1,1.06,0l9.395,9.4a.75.75,0,0,1,0,1.061L45.4,31.761A.747.747,0,0,1,44.869,31.98Z" style="fill:#231f20"/><path d="M29.6,46.683a2.1,2.1,0,0,1-1.493-.619L20.64,38.6a2.11,2.11,0,0,1,0-2.986L27.9,28.352a.75.75,0,0,1,1.06,1.06L21.7,36.669a.614.614,0,0,0,0,.866L29.17,45a.625.625,0,0,0,.864,0l3.735-3.735A.75.75,0,0,1,34.83,42.33L31.1,46.064A2.1,2.1,0,0,1,29.6,46.683Z" style="fill:#231f20"/><path d="M49.566,29.046a2.155,2.155,0,0,1-1.528-.631L38.29,18.666a2.163,2.163,0,0,1,0-3.056l.354-.354a2.163,2.163,0,0,1,3.055,0l9.748,9.748a2.158,2.158,0,0,1,0,3.056l-.353.353A2.156,2.156,0,0,1,49.566,29.046Zm-9.4-12.921a.657.657,0,0,0-.467.192l-.354.354a.662.662,0,0,0,0,.934L49.1,27.354a.677.677,0,0,0,.934,0L50.386,27a.658.658,0,0,0,0-.934l-9.749-9.749A.653.653,0,0,0,40.171,16.125Z" style="fill:#231f20"/><path d="M48.392,23.76a.744.744,0,0,1-.53-.22l-4.7-4.7a.75.75,0,0,1,0-1.061l3.523-3.523a.75.75,0,0,1,1.061,0l4.7,4.7a.749.749,0,0,1,0,1.06L48.922,23.54A.744.744,0,0,1,48.392,23.76Zm-3.637-5.448,3.637,3.637,2.462-2.462L47.218,15.85Z" style="fill:#231f20"/><path d="M53.676,21.221a2.615,2.615,0,0,1-1.854-.767L46.25,14.883a2.626,2.626,0,0,1,0-3.71l.874-.874a2.629,2.629,0,0,1,3.71,0l5.571,5.572a2.625,2.625,0,0,1,0,3.709l-.874.874A2.616,2.616,0,0,1,53.676,21.221Zm-4.7-10.189a1.12,1.12,0,0,0-.794.328l-.874.874a1.124,1.124,0,0,0,0,1.588l5.571,5.572a1.125,1.125,0,0,0,1.588,0l.874-.874a1.125,1.125,0,0,0,0-1.589L49.773,11.36A1.12,1.12,0,0,0,48.979,11.032Z" style="fill:#231f20"/><rect height="14.636" style="fill:#231f20" transform="translate(-0.275 64.372) rotate(-89.865)" width="1.5" x="31.375" y="25.006"/><path d="M30.679,27.185a.75.75,0,0,1-.53-1.28l1.174-1.175a.75.75,0,0,1,1.061,1.061l-1.175,1.174A.744.744,0,0,1,30.679,27.185Z" style="fill:#231f20"/><path d="M43.6,50.407a9.881,9.881,0,0,1-6.989-16.869h0A9.884,9.884,0,1,1,43.6,50.407Zm0-18.264A8.329,8.329,0,0,0,37.668,34.6h0A8.383,8.383,0,1,0,43.6,32.143Zm-6.459,1.925h0Z" style="fill:#231f20"/><path d="M42.3,44.952a5.043,5.043,0,0,1-1.461-.216h0a2.814,2.814,0,0,1-2.116-3.1,2.217,2.217,0,0,1,2.369-1.832.628.628,0,0,0,.436-.105.649.649,0,0,0,.12-.419,3.862,3.862,0,0,1,1.147-3.2,3.631,3.631,0,0,1,3.109-.744,3.1,3.1,0,0,1,2.173,1.565,4.789,4.789,0,0,1,.208,3.925A7.107,7.107,0,0,1,42.3,44.952ZM41.272,43.3c2.637.791,5.13-1.749,5.614-3.008a3.283,3.283,0,0,0-.114-2.648,1.576,1.576,0,0,0-1.13-.826,2.158,2.158,0,0,0-1.852.391,2.37,2.37,0,0,0-.644,1.979,2.144,2.144,0,0,1-.526,1.544,2.019,2.019,0,0,1-1.579.575c-.475-.012-.772.183-.837.576A1.337,1.337,0,0,0,41.272,43.3Z" style="fill:#231f20"/><path d="M45.774,36.829a.765.765,0,0,1-.189-.024.751.751,0,0,1-.538-.915l.328-1.263A.75.75,0,0,1,46.827,35L46.5,36.267A.75.75,0,0,1,45.774,36.829Z" style="fill:#231f20"/><path d="M39.535,42.205a.731.731,0,0,1-.237-.039l-1.543-.514a.75.75,0,0,1,.474-1.423l1.544.515a.75.75,0,0,1-.238,1.461Z" style="fill:#231f20"/><path d="M42.989,37.477a.743.743,0,0,1-.467-.165l-.98-.783a.75.75,0,1,1,.936-1.172l.98.784a.75.75,0,0,1-.469,1.336Z" style="fill:#231f20"/><path d="M47.743,38.8a.75.75,0,0,1-.318-1.429l1.151-.539a.75.75,0,0,1,.636,1.358l-1.152.539A.746.746,0,0,1,47.743,38.8Z" style="fill:#231f20"/><path d="M47.987,43.259a.745.745,0,0,1-.457-.156l-.956-.735a.75.75,0,0,1,.915-1.189l.956.736a.75.75,0,0,1-.458,1.344Z" style="fill:#231f20"/><path d="M44.387,45.88a.752.752,0,0,1-.687-.447l-.465-1.053a.75.75,0,0,1,1.372-.607l.465,1.054a.749.749,0,0,1-.382.989A.76.76,0,0,1,44.387,45.88Z" style="fill:#231f20"/><path d="M39.8,45.782a.75.75,0,0,1-.65-1.122l.686-1.2a.75.75,0,1,1,1.3.745l-.686,1.2A.749.749,0,0,1,39.8,45.782Z" style="fill:#231f20"/><path d="M39.8,45.782a.75.75,0,0,1-.65-1.122l.686-1.2a.75.75,0,1,1,1.3.745l-.686,1.2A.749.749,0,0,1,39.8,45.782Z" style="fill:#231f20"/></svg>